<svg width="23" height="29" viewBox="0 0 23 29" fill="none" xmlns="http://www.w3.org/2000/svg">
<path d="M11.0518 0C4.9578 0 0 4.9578 0 11.0518C0 14.0121 1.79349 17.8137 5.33063 22.3505C6.95116 24.4236 8.70611 26.3881 10.5841 28.2313C10.71 28.3517 10.8776 28.4189 11.0518 28.4189C11.226 28.4189 11.3936 28.3517 11.5195 28.2313C13.3975 26.3881 15.1524 24.4236 16.773 22.3505C20.3101 17.8137 22.1036 14.0121 22.1036 11.0518C22.1036 4.9578 17.1458 0 11.0518 0ZM11.0518 18.9459C6.69874 18.9459 3.15766 15.4049 3.15766 11.0518C3.15766 6.69874 6.69874 3.15766 11.0518 3.15766C15.4049 3.15766 18.9459 6.69874 18.9459 11.0518C18.9459 15.4049 15.4049 18.9459 11.0518 18.9459Z" fill="#B9DDFF"/>
</svg>
