<svg width="23" height="29" viewBox="0 0 23 29" fill="none" xmlns="http://www.w3.org/2000/svg">
<path d="M11.0519 0C4.95786 0 6.10352e-05 4.9578 6.10352e-05 11.0518C6.10352e-05 14.0121 1.79355 17.8137 5.33069 22.3505C6.95123 24.4236 8.70617 26.3881 10.5842 28.2313C10.7101 28.3517 10.8776 28.4189 11.0519 28.4189C11.2261 28.4189 11.3936 28.3517 11.5195 28.2313C13.3976 26.3881 15.1525 24.4236 16.773 22.3505C20.3102 17.8137 22.1037 14.0121 22.1037 11.0518C22.1037 4.9578 17.1459 0 11.0519 0ZM11.0519 18.9459C6.6988 18.9459 3.15772 15.4049 3.15772 11.0518C3.15772 6.69874 6.6988 3.15766 11.0519 3.15766C15.4049 3.15766 18.946 6.69874 18.946 11.0518C18.946 15.4049 15.4049 18.9459 11.0519 18.9459Z" fill="#B9DDFF"/>
</svg>
