<svg width="23" height="29" viewBox="0 0 23 29" fill="none" xmlns="http://www.w3.org/2000/svg">
<path d="M11.2728 0C5.05696 0 0 5.05696 0 11.2728C0 14.2923 1.82936 18.17 5.43724 22.7975C7.09019 24.9121 8.88023 26.9159 10.7958 28.7959C10.9242 28.9187 11.0951 28.9873 11.2728 28.9873C11.4506 28.9873 11.6214 28.9187 11.7499 28.7959C13.6654 26.9159 15.4555 24.9121 17.1084 22.7975C20.7163 18.17 22.5457 14.2923 22.5457 11.2728C22.5457 5.05696 17.4887 0 11.2728 0ZM11.2728 19.3249C6.83272 19.3249 3.22081 15.713 3.22081 11.2728C3.22081 6.83272 6.83272 3.22081 11.2728 3.22081C15.713 3.22081 19.3249 6.83272 19.3249 11.2728C19.3249 15.713 15.713 19.3249 11.2728 19.3249Z" fill="#B9DDFF"/>
</svg>
