<svg width="36" height="12" viewBox="0 0 36 12" fill="none" xmlns="http://www.w3.org/2000/svg">
<path d="M24.6115 2.20444C25.0002 2.28535 25.3564 2.46336 25.6966 2.67374C26.9599 3.46672 28.4985 3.49909 29.9562 3.38581C31.3004 3.28871 32.6609 3.06214 34.0052 3.22397C34.2805 3.25634 34.5882 3.32108 34.815 3.49909C35.2037 3.82275 35.2361 4.38916 35.2361 4.89084C35.2361 5.82947 35.1712 6.91374 34.3938 7.44778C33.8756 7.78763 33.2115 7.78764 32.6608 8.06275C32.2074 8.28932 31.8673 8.67771 31.4786 9.00138C30.8955 9.50306 30.1829 9.8429 29.4865 10.1827C28.0127 10.8786 26.393 11.5907 24.7734 11.2347C24.1094 11.089 23.4454 10.7653 22.7652 10.8624C22.2793 10.9272 21.8582 11.2023 21.3723 11.2185C20.8216 11.2508 20.3195 10.9434 19.785 10.8463C19.2668 10.733 18.7323 10.8139 18.1978 10.7815C17.2585 10.7492 16.3515 10.377 15.396 10.3284C14.2946 10.2475 13.1609 10.6197 12.0596 10.4255C11.6547 10.3446 11.2659 10.1989 10.8772 10.0533L7.79999 8.88809C7.67042 8.83954 7.57326 8.72626 7.57326 8.5968C7.57326 8.4026 7.71907 8.35405 7.86484 8.3055C8.69083 8.09512 9.61396 8.25695 10.4076 7.88473C10.5533 7.82 10.6991 7.72291 10.6667 7.49634C10.6343 7.35069 10.521 7.22123 10.359 7.17268C9.25768 6.84901 8.12393 7.25359 7.0064 7.4316C6.01845 7.60962 4.9981 7.57726 4.01014 7.38306C3.3623 7.26977 2.81162 6.91374 2.37433 6.41207C2.36354 6.39049 2.34737 6.37431 2.32578 6.36352C2.18001 6.12077 2.26101 5.79711 2.50395 5.63527C2.64971 5.55436 2.79546 5.45725 2.81166 5.26305C2.82785 5.13359 2.7793 4.98794 2.68212 4.89084C2.47157 4.69664 2.19621 4.66428 1.92088 4.66428C1.51598 4.68047 1.07865 4.72902 0.754733 4.2597C0.673753 4.13024 0.608969 3.98458 0.592773 3.83893C0.592773 3.75802 0.592821 3.66092 0.641409 3.59619C0.754781 3.43435 1.01393 3.4829 1.22448 3.4829C1.61318 3.49908 1.98568 3.24016 2.09905 2.86794C2.19622 2.59283 2.14762 2.28535 2.32578 2.05878C2.47154 1.8484 2.77923 1.79985 3.02217 1.86458C3.26511 1.92932 3.47572 2.10734 3.65388 2.28535C3.85903 2.49034 4.03715 2.71691 4.18832 2.96505C4.33408 3.22398 4.46365 3.49908 4.6742 3.72565C4.91714 4.00076 5.28963 4.17878 5.62974 4.00077C5.8079 3.91985 5.9213 3.72566 5.90511 3.53146C5.85652 3.09451 5.25727 3.14305 5.17629 2.75466C5.1439 2.54428 5.25722 2.35008 5.45157 2.26916C5.79169 2.10733 6.13182 2.26916 6.43954 2.43099C6.69868 2.54428 6.99022 2.67375 7.26555 2.64138C7.39512 2.60902 7.54092 2.54428 7.54092 2.41482C7.57331 2.2368 7.37896 2.1397 7.217 2.07497C7.06584 2.02103 6.91463 1.96708 6.76346 1.91314C6.63389 1.86459 6.48816 1.81603 6.39099 1.73512C6.27761 1.63802 6.21278 1.49237 6.26137 1.36291C6.29376 1.21726 6.43953 1.13634 6.58529 1.07161C7.58944 0.667032 8.83657 0.909776 9.61397 1.6542C9.82452 1.86458 10.0026 2.10733 10.2294 2.30153C10.9258 2.94886 12.0433 3.11069 12.9017 2.70611C12.9017 2.70611 13.582 2.38245 13.9383 2.39864C14.4404 2.431 14.9101 2.65757 15.234 3.04596C15.5579 3.41818 15.7847 3.88749 16.1248 4.2597C16.2058 4.3568 16.3029 4.4539 16.4163 4.48626C16.5297 4.53481 16.6916 4.50244 16.7564 4.40535C16.7888 4.34061 16.805 4.2597 16.805 4.19497C16.8374 3.70947 16.7402 3.20779 16.562 2.75466C16.4649 2.51191 16.3353 2.25298 16.4001 2.01024C16.4649 1.78367 16.6593 1.63802 16.8536 1.52474C18.1979 0.71558 19.9632 0.715584 21.3075 1.50856C21.5343 1.63803 21.7771 1.83222 21.6638 2.15589C21.6152 2.30154 21.5018 2.43099 21.3723 2.51191L20.5625 2.99741C20.2871 3.17542 19.9956 3.35344 19.9309 3.69329C19.8823 3.90367 19.9794 4.14641 20.2061 4.21115C20.4329 4.27588 20.6272 4.09787 20.7892 3.95222C21.3885 3.36962 22.0687 2.86794 22.7813 2.46336C22.8947 2.39863 22.9757 2.30153 22.9919 2.17207C23.0567 1.86459 22.6518 1.73512 22.506 1.49237C22.3278 1.20107 22.5708 0.796498 22.8785 0.667032C23.2024 0.537567 23.5588 0.602299 23.8989 0.667032C24.0932 0.699399 24.32 0.780309 24.3685 0.974507C24.3847 1.05542 24.4333 1.29817 24.4009 1.37909C24.3685 1.49237 24.3037 1.60566 24.2389 1.71894C24.1741 1.84841 24.2065 2.01024 24.3361 2.09115C24.4333 2.1397 24.5305 2.18825 24.6115 2.20444Z" fill="#F1F1F1" stroke="#BABABA" stroke-width="1.18548" stroke-linecap="round" stroke-linejoin="round"/>
</svg>
