<svg width="16" height="16" viewBox="0 0 16 16" fill="none" xmlns="http://www.w3.org/2000/svg">
<mask id="mask0_16_1310" style="mask-type:alpha" maskUnits="userSpaceOnUse" x="0" y="0" width="16" height="16">
<circle cx="7.89414" cy="7.89414" r="7.89414" fill="#D9D9D9"/>
</mask>
<g mask="url(#mask0_16_1310)">
<path d="M-2.61255 0H6.59728V15.7883H-2.61255V0Z" fill="#2B9F5A"/>
<path d="M6.59728 0H18.4385V15.7883H6.59728V0Z" fill="#DC251C"/>
<path d="M3.96579 6.57845C3.96579 5.85182 4.55484 5.26276 5.28148 5.26276H7.91286C8.63949 5.26276 9.22855 5.85182 9.22855 6.57845V7.89414C9.22855 9.34741 8.05044 10.5255 6.59717 10.5255C5.1439 10.5255 3.96579 9.34741 3.96579 7.89414V6.57845Z" fill="#DC251C"/>
<path d="M5.28159 6.57845H7.91297V7.89414C7.91297 8.62078 7.32392 9.20983 6.59728 9.20983C5.87065 9.20983 5.28159 8.62078 5.28159 7.89414V6.57845Z" fill="#F5F8FB"/>
</g>
</svg>
