<svg width="150" height="18" viewBox="0 0 150 18" fill="none" xmlns="http://www.w3.org/2000/svg">
<path d="M16.4446 0.344059V17.5642H11.5557V10.849H4.88889V17.5642H1.52588e-05V0.344059H4.88889V6.81348H11.5557V0.344059H16.4446Z" fill="#E28133"/>
<path d="M31.4801 14.2178H24.172L22.8144 17.5631H17.8269L25.4556 0.342979H30.2705L37.9239 17.5631H32.8377L31.4801 14.2178ZM30.0485 10.6267L27.8266 5.11678L25.6047 10.6267H30.0485Z" fill="#E28133"/>
<path d="M51.2812 1.11868C52.4329 1.63474 53.3219 2.37303 53.9481 3.33249C54.5733 4.29196 54.8864 5.41916 54.8864 6.71519C54.8864 8.01121 54.5733 9.13414 53.9481 10.0851C53.3219 11.036 52.434 11.77 51.2812 12.2871C50.1284 12.8032 48.7708 13.0617 47.2073 13.0617H44.195V17.5631H39.3062V0.344059H47.2073C48.7708 0.344059 50.1295 0.602622 51.2812 1.11868ZM49.1826 8.57214C49.693 8.13728 49.9482 7.51866 49.9482 6.71519C49.9482 5.91172 49.693 5.28881 49.1826 4.84541C48.6721 4.40308 47.915 4.18084 46.9113 4.18084H44.195V9.22389H46.9113C47.915 9.22389 48.6721 9.007 49.1826 8.57214Z" fill="#E28133"/>
<path d="M69.2302 1.11868C70.3819 1.63474 71.2709 2.37303 71.8972 3.33249C72.5224 4.29196 72.8355 5.41916 72.8355 6.71519C72.8355 8.01121 72.5224 9.13414 71.8972 10.0851C71.272 11.036 70.383 11.77 69.2302 12.2871C68.0774 12.8032 66.7198 13.0617 65.1563 13.0617H62.1441V17.5631H57.2552V0.344059H65.1563C66.7209 0.344059 68.0785 0.602622 69.2302 1.11868ZM67.1316 8.57214C67.6421 8.13728 67.8973 7.51866 67.8973 6.71519C67.8973 5.91172 67.6421 5.28881 67.1316 4.84541C66.6212 4.40308 65.8641 4.18084 64.8604 4.18084H62.1441V9.22389H64.8604C65.8641 9.22389 66.6212 9.007 67.1316 8.57214Z" fill="#E28133"/>
<path d="M75.2054 0.344059H80.0943V17.5642H75.2054V0.344059Z" fill="#E28133"/>
<path d="M100.019 0.344059V17.5642H95.994L88.3653 8.38837V17.5642H83.5751V0.344059H87.5996L95.2284 9.51985V0.344059H100.019Z" fill="#E28133"/>
<path d="M117.351 13.8V17.5642H103.476V0.344059H117.031V4.10818H108.315V7.01114H115.994V10.6524H108.315V13.8011H117.351V13.8Z" fill="#E28133"/>
<path d="M122.066 17.3911C120.749 17.047 119.679 16.5876 118.857 16.0138L120.461 12.4228C121.234 12.9314 122.132 13.3417 123.152 13.6526C124.173 13.9646 125.177 14.1195 126.165 14.1195C128.041 14.1195 128.98 13.6526 128.98 12.7177C128.98 12.2262 128.712 11.8608 128.178 11.6225C127.642 11.3853 126.782 11.1342 125.597 10.8725C124.297 10.5936 123.21 10.2945 122.339 9.97499C121.466 9.65552 120.717 9.14267 120.092 8.4375C119.466 7.73232 119.154 6.78141 119.154 5.58368C119.154 4.53447 119.441 3.58676 120.018 2.74269C120.594 1.89862 121.454 1.22978 122.598 0.738295C123.742 0.246811 125.145 0 126.808 0C127.944 0 129.063 0.127144 130.166 0.381433C131.268 0.635723 132.24 1.00861 133.079 1.50116L131.574 5.11678C129.928 4.23104 128.331 3.7887 126.783 3.7887C125.812 3.7887 125.104 3.93187 124.66 4.21928C124.216 4.50669 123.993 4.87958 123.993 5.33901C123.993 5.79844 124.256 6.14248 124.784 6.3722C125.31 6.60191 126.157 6.83911 127.326 7.08592C128.643 7.36478 129.734 7.66394 130.598 7.98341C131.462 8.30287 132.211 8.81145 132.844 9.50915C133.478 10.2068 133.795 11.1535 133.795 12.3501C133.795 13.3833 133.506 14.3182 132.93 15.1548C132.354 15.9914 131.49 16.6592 130.338 17.1592C129.186 17.6592 127.787 17.9092 126.141 17.9092C124.741 17.9082 123.383 17.7362 122.066 17.3911Z" fill="#E28133"/>
<path d="M138.04 17.3911C136.723 17.047 135.653 16.5876 134.831 16.0138L136.435 12.4228C137.208 12.9314 138.106 13.3417 139.126 13.6526C140.147 13.9646 141.151 14.1195 142.139 14.1195C144.015 14.1195 144.954 13.6526 144.954 12.7177C144.954 12.2262 144.686 11.8608 144.151 11.6225C143.616 11.3853 142.756 11.1342 141.571 10.8725C140.271 10.5936 139.184 10.2945 138.312 9.97499C137.44 9.65552 136.691 9.14267 136.066 8.4375C135.44 7.73232 135.128 6.78141 135.128 5.58368C135.128 4.53447 135.415 3.58676 135.992 2.74269C136.568 1.89862 137.428 1.22978 138.572 0.738295C139.716 0.246811 141.119 0 142.782 0C143.918 0 145.037 0.127144 146.14 0.381433C147.242 0.635723 148.214 1.00861 149.053 1.50116L147.548 5.11678C145.902 4.23104 144.305 3.7887 142.757 3.7887C141.786 3.7887 141.078 3.93187 140.634 4.21928C140.19 4.50669 139.967 4.87958 139.967 5.33901C139.967 5.79844 140.23 6.14248 140.757 6.3722C141.284 6.60191 142.131 6.83911 143.3 7.08592C144.617 7.36478 145.707 7.66394 146.572 7.98341C147.436 8.30287 148.185 8.81145 148.818 9.50915C149.452 10.2068 149.768 11.1535 149.768 12.3501C149.768 13.3833 149.48 14.3182 148.904 15.1548C148.328 15.9914 147.464 16.6592 146.312 17.1592C145.159 17.6592 143.761 17.9092 142.115 17.9092C140.715 17.9082 139.357 17.7362 138.04 17.3911Z" fill="#E28133"/>
</svg>
