<svg width="23" height="19" viewBox="0 0 23 19" fill="none" xmlns="http://www.w3.org/2000/svg">
<path fill-rule="evenodd" clip-rule="evenodd" d="M21.3437 6.11558C21.3812 5.88954 21.3167 5.65829 21.1687 5.48329C21.0198 5.30933 20.8021 5.20829 20.5729 5.20829H1.82291C1.59374 5.20829 1.37604 5.30933 1.22708 5.48329C1.07916 5.65829 1.01458 5.88954 1.05208 6.11558C1.05208 6.11558 2.11666 12.6197 2.64062 15.827C2.8677 17.2125 4.06458 18.2291 5.4677 18.2291H16.9281C18.3312 18.2291 19.5281 17.2125 19.7552 15.827L21.3437 6.11558ZM19.6531 6.77079L18.2125 15.575C18.1094 16.2041 17.5656 16.6666 16.9281 16.6666C14.0417 16.6666 8.35416 16.6666 5.4677 16.6666C4.8302 16.6666 4.28645 16.2041 4.18333 15.575L2.7427 6.77079H19.6531Z" fill="#333F48"/>
<path fill-rule="evenodd" clip-rule="evenodd" d="M18.1176 5.58747L14.9926 0.379134C14.7708 0.00934207 14.2906 -0.11045 13.9208 0.111425C13.551 0.3333 13.4312 0.813509 13.6531 1.1833L16.7781 6.39163C16.9999 6.76143 17.4801 6.88122 17.8499 6.65934C18.2197 6.43747 18.3395 5.95726 18.1176 5.58747Z" fill="#333F48"/>
<path fill-rule="evenodd" clip-rule="evenodd" d="M5.61764 6.39163L8.74263 1.1833C8.96451 0.813509 8.84472 0.3333 8.47493 0.111425C8.10513 -0.11045 7.62493 0.00934207 7.40305 0.379134L4.27805 5.58747C4.05618 5.95726 4.17597 6.43747 4.54576 6.65934C4.91555 6.88122 5.39576 6.76143 5.61764 6.39163Z" fill="#333F48"/>
<path fill-rule="evenodd" clip-rule="evenodd" d="M10.4166 9.63539V13.8021C10.4166 14.2333 10.7666 14.5833 11.1979 14.5833C11.6291 14.5833 11.9791 14.2333 11.9791 13.8021V9.63539C11.9791 9.20414 11.6291 8.85414 11.1979 8.85414C10.7666 8.85414 10.4166 9.20414 10.4166 9.63539Z" fill="#333F48"/>
<path fill-rule="evenodd" clip-rule="evenodd" d="M6.25 9.63539V13.8021C6.25 14.2333 6.6 14.5833 7.03125 14.5833C7.4625 14.5833 7.8125 14.2333 7.8125 13.8021V9.63539C7.8125 9.20414 7.4625 8.85414 7.03125 8.85414C6.6 8.85414 6.25 9.20414 6.25 9.63539Z" fill="#333F48"/>
<path fill-rule="evenodd" clip-rule="evenodd" d="M14.5833 9.63539V13.8021C14.5833 14.2333 14.9333 14.5833 15.3645 14.5833C15.7958 14.5833 16.1458 14.2333 16.1458 13.8021V9.63539C16.1458 9.20414 15.7958 8.85414 15.3645 8.85414C14.9333 8.85414 14.5833 9.20414 14.5833 9.63539Z" fill="#333F48"/>
<path fill-rule="evenodd" clip-rule="evenodd" d="M21.6146 5.20829H0.78125C0.35 5.20829 0 5.55829 0 5.98954C0 6.42079 0.35 6.77079 0.78125 6.77079H21.6146C22.0458 6.77079 22.3958 6.42079 22.3958 5.98954C22.3958 5.55829 22.0458 5.20829 21.6146 5.20829Z" fill="#333F48"/>
</svg>
