<svg width="29" height="31" viewBox="0 0 29 31" fill="none" xmlns="http://www.w3.org/2000/svg">
<g filter="url(#filter0_d_16_493)">
<path d="M8.39154 1.44922C8.7594 1.38745 9.13626 1.43021 9.41107 1.57227C9.78305 1.76441 10.093 2.14842 10.3427 2.57324C10.4666 2.78402 10.5713 2.99628 10.6591 3.18848L10.8749 3.68359C11.2629 4.56875 11.5071 5.59933 11.7216 6.97461C11.8591 7.85741 12.0536 8.91107 12.2158 9.80371C12.297 10.251 12.3702 10.6579 12.4238 10.9844C12.4782 11.3164 12.51 11.5507 12.5136 11.6621L12.9511 11.6689C12.9721 11.3392 12.9424 10.8319 12.9228 10.3564C12.9025 9.8637 12.8929 9.40746 12.9413 9.13379C12.9828 8.89957 13.1032 8.63646 13.2792 8.41211C13.4557 8.18728 13.6745 8.01776 13.9023 7.94824V7.94922C14.3528 7.81249 14.8741 7.76464 15.3232 7.85938H15.3242C15.5529 7.90715 15.7952 8.01707 16.0048 8.1582C16.2166 8.30091 16.3773 8.4643 16.4579 8.60547C16.7367 9.09638 16.8881 9.86704 16.9697 10.5283C17.0098 10.8536 17.0319 11.1433 17.0458 11.3457C17.0527 11.4449 17.0575 11.5286 17.0615 11.5801C17.0633 11.6034 17.0659 11.6307 17.0693 11.6514C17.0702 11.6569 17.0717 11.6683 17.0751 11.6807C17.0768 11.6868 17.0803 11.698 17.0859 11.7109C17.0897 11.7198 17.1041 11.7518 17.1357 11.7822C17.1535 11.7993 17.1849 11.8235 17.2304 11.8359C17.2799 11.8494 17.3299 11.8443 17.373 11.8262C17.4445 11.796 17.475 11.7393 17.4804 11.7295C17.4974 11.6985 17.5023 11.6688 17.5029 11.666C17.5779 11.3292 17.6113 10.7763 17.665 10.2793C17.6928 10.0222 17.7268 9.77222 17.7744 9.55176C17.8225 9.32856 17.8816 9.15089 17.9531 9.0293C18.0469 8.86915 18.2248 8.70111 18.4286 8.56348C18.5829 8.4594 18.7343 8.38462 18.8495 8.34473L18.9511 8.31641C19.3646 8.24176 19.8557 8.21339 20.2949 8.27148L20.4794 8.30176C20.6357 8.33323 20.8475 8.45418 21.0517 8.61523C21.254 8.77483 21.4105 8.9433 21.4677 9.03418V9.0332C21.5427 9.15407 21.6165 9.34528 21.6865 9.58691C21.7554 9.82495 21.8163 10.0984 21.8681 10.375C21.9715 10.9271 22.0376 11.4801 22.0683 11.7686V11.7695C22.07 11.7861 22.0742 11.8181 22.0849 11.8496C22.0889 11.8612 22.1046 11.9062 22.1464 11.9453C22.1712 11.9684 22.2107 11.9947 22.2646 12.0029C22.3192 12.0112 22.3662 11.9975 22.3994 11.9805C22.4547 11.952 22.483 11.9082 22.4892 11.8984C22.4998 11.8818 22.5066 11.866 22.5107 11.8564C22.5191 11.8369 22.526 11.816 22.5312 11.7988C22.5506 11.7352 22.5808 11.6094 22.6142 11.4863C22.6871 11.2178 22.7972 10.8705 22.9619 10.6064C23.2493 10.1449 23.9269 9.8486 24.5468 9.94629C24.8488 9.99391 25.1291 10.1348 25.3398 10.3887C25.5508 10.6432 25.7059 11.0289 25.7275 11.5898C25.7691 12.7013 25.7607 12.6472 25.7607 13.3965C25.7607 14.0545 25.7497 14.5144 25.7245 14.9697L25.6953 15.4307C25.6431 16.1186 25.4996 17.637 25.2978 18.3594C25.1595 18.8535 24.6938 19.9812 24.2411 20.6514C24.2383 20.6548 24.2353 20.6593 24.2314 20.6641C24.2179 20.6802 24.1978 20.7039 24.1728 20.7344C24.1228 20.7953 24.0511 20.8829 23.9648 20.9912C23.7921 21.2079 23.5602 21.5078 23.3212 21.8379C23.0826 22.1674 22.8354 22.5305 22.6347 22.874C22.4375 23.2116 22.2724 23.5507 22.2158 23.8281C22.0144 24.8077 22.0784 24.8435 22.041 25.5068C22.0204 25.872 22.0745 26.2852 22.1308 26.5986C22.1515 26.7138 22.1745 26.817 22.1933 26.9023C22.0607 26.9164 21.8833 26.9335 21.6865 26.9473C21.368 26.9695 21.0111 26.9828 20.7119 26.9648L20.4355 26.9355C20.3306 26.9182 20.1947 26.8452 20.0351 26.709C19.8794 26.5761 19.7202 26.3997 19.5703 26.208C19.2705 25.8249 19.024 25.4039 18.9247 25.2109C18.7455 24.8619 18.4446 24.696 18.1337 24.708C17.8725 24.7182 17.626 24.8535 17.4648 25.0664L17.4013 25.1621C17.2177 25.4813 16.9282 25.9265 16.6181 26.2979C16.4629 26.4837 16.3067 26.6457 16.1601 26.7637C16.0088 26.8854 15.8894 26.9425 15.8066 26.9531C15.2655 27.0226 14.4219 27.0363 13.4755 27.0293C12.6095 27.0228 11.6901 26.9995 10.8398 26.9883C10.8412 26.9754 10.8442 26.9619 10.8456 26.9482C10.8645 26.7713 10.8825 26.5276 10.8779 26.2637C10.8733 26.001 10.8468 25.7102 10.7724 25.4414C10.7076 25.2073 10.6026 24.9746 10.4316 24.7949L10.3544 24.7217C10.1053 24.5055 9.76354 24.1759 9.414 23.8369C9.06992 23.5032 8.71851 23.1606 8.45306 22.9219L7.08392 21.374C6.85862 21.0832 6.60518 20.6346 6.26947 20.0479C5.93751 19.4676 5.53322 18.7681 5.01556 18.001C4.71882 17.5621 4.20435 16.9319 3.7226 16.3232C3.29289 15.7803 2.89239 15.2585 2.66302 14.876L2.57611 14.7217C2.39782 14.3737 2.32639 14.1373 2.30463 13.9258C2.28245 13.7097 2.30963 13.5039 2.35443 13.1992C2.49389 12.2491 3.46013 11.4912 4.49701 11.5928H4.49799C5.28712 11.669 5.97179 12.2051 6.64154 12.7646H6.64252C7.02007 13.0794 7.49108 13.6993 7.79779 14.0781L7.79877 14.0791C8.06914 14.4111 8.11458 14.5201 8.42181 14.9385C8.51635 15.0673 8.59394 15.1789 8.65814 15.2695C8.71572 15.3508 8.7755 15.4349 8.82318 15.4814C8.83574 15.4937 8.86028 15.5157 8.89349 15.5332C8.92089 15.5476 9.0143 15.5898 9.11615 15.5322C9.20807 15.4801 9.22636 15.3898 9.23041 15.3672C9.2363 15.3344 9.23563 15.3042 9.23431 15.2852C9.2318 15.2491 9.22337 15.2028 9.21185 15.1484L9.16791 14.9609C9.0493 14.114 8.85621 12.6749 8.57611 11.3994L8.44037 10.7998C8.40193 10.6363 8.36872 10.502 8.33588 10.375L8.10443 9.52441C7.99718 9.13057 7.91604 8.79812 7.83685 8.45801L7.57806 7.3457C7.45553 6.82731 7.24967 5.84377 7.15521 5.15918L7.12201 4.88574C7.07505 4.42537 7.0396 3.82609 7.08685 3.26074C7.13493 2.68589 7.26511 2.18881 7.51263 1.89355C7.69887 1.67172 8.02283 1.51121 8.39154 1.44922Z" fill="white" stroke="#2A6DBD" stroke-width="0.4375"/>
<path fill-rule="evenodd" clip-rule="evenodd" d="M6.91067 21.5082C6.43629 20.8957 5.8599 19.6436 4.83423 18.1236C4.25289 17.2638 2.81123 15.6448 2.38192 14.8226C2.0094 14.0959 2.04949 13.7701 2.13803 13.1678C2.29506 12.0965 3.37089 11.2624 4.51854 11.3749C5.38552 11.4585 6.12061 12.0437 6.78211 12.5963C7.18136 12.929 7.67256 13.5755 7.96818 13.9407C8.2405 14.275 8.30734 14.4132 8.59801 14.809C8.98224 15.3327 9.10252 15.592 8.95552 15.0154C8.83686 14.1692 8.64308 12.7243 8.36248 11.4466C8.14864 10.4776 8.09682 10.3257 7.89306 9.58195C7.67751 8.79038 7.5673 8.23599 7.36515 7.39664C7.22481 6.80303 6.97256 5.59007 6.90409 4.90766C6.80891 3.97454 6.75871 2.45277 7.34509 1.75334C7.80453 1.20574 8.85863 1.04026 9.51176 1.37804C10.3671 1.81988 10.8532 3.08913 11.0754 3.59573C11.4747 4.50671 11.7219 5.55932 11.9374 6.94108C12.2114 8.69996 12.7159 11.1411 12.7325 11.6546C12.7727 11.0251 12.619 9.69957 12.7259 9.0957C12.8228 8.54807 13.2738 7.9118 13.8384 7.73949C14.3162 7.59444 14.8759 7.54162 15.3686 7.64564C15.8916 7.75479 16.4428 8.13694 16.6483 8.49696C17.253 9.56144 17.2647 11.7365 17.2898 11.6205C17.4335 10.979 17.4084 9.52392 17.7642 8.91826C17.9981 8.51909 18.5944 8.15916 18.9118 8.10113C19.403 8.01241 20.006 7.98514 20.5223 8.08746C20.9382 8.17105 21.5011 8.67602 21.6532 8.91826C22.0173 9.50512 22.2245 11.165 22.2863 11.7467C22.3113 11.9873 22.4099 11.078 22.7758 10.4911C23.4541 9.4011 25.8545 9.18955 25.9465 11.5813C25.9882 12.697 25.9799 12.6458 25.9799 13.3964C25.9799 14.2783 25.9598 14.8089 25.913 15.4469C25.8613 16.1293 25.7176 17.6714 25.5088 18.4186C25.3651 18.9322 24.889 20.0871 24.4196 20.7797C24.4196 20.7797 22.6254 22.9121 22.43 23.8725C22.2329 24.8313 22.298 24.8381 22.2596 25.5188C22.2212 26.1978 22.4618 27.0916 22.4618 27.0916C22.4618 27.0916 21.1219 27.2691 20.4003 27.1514C19.7471 27.0439 18.9385 25.7166 18.7297 25.3106C18.4424 24.7511 17.8294 24.8586 17.5904 25.2714C17.2146 25.9248 16.4061 27.0968 15.8347 27.1701C14.7188 27.3134 12.4034 27.223 10.591 27.2042C10.591 27.2042 10.9 25.4795 10.2118 24.8876C9.70221 24.4457 8.82517 23.5501 8.30068 23.0793L6.91067 21.5082Z" stroke="#2A6DBD" stroke-width="0.65625" stroke-linecap="round" stroke-linejoin="round"/>
</g>
<defs>
<filter id="filter0_d_16_493" x="0" y="0" width="28.0587" height="30.2026" filterUnits="userSpaceOnUse" color-interpolation-filters="sRGB">
<feFlood flood-opacity="0" result="BackgroundImageFix"/>
<feColorMatrix in="SourceAlpha" type="matrix" values="0 0 0 0 0 0 0 0 0 0 0 0 0 0 0 0 0 0 127 0" result="hardAlpha"/>
<feOffset dy="0.875"/>
<feGaussianBlur stdDeviation="0.875"/>
<feColorMatrix type="matrix" values="0 0 0 0 0 0 0 0 0 0 0 0 0 0 0 0 0 0 0.24 0"/>
<feBlend mode="normal" in2="BackgroundImageFix" result="effect1_dropShadow_16_493"/>
<feBlend mode="normal" in="SourceGraphic" in2="effect1_dropShadow_16_493" result="shape"/>
</filter>
</defs>
</svg>
