<svg width="21" height="14" viewBox="0 0 21 14" fill="none" xmlns="http://www.w3.org/2000/svg">
<path fill-rule="evenodd" clip-rule="evenodd" d="M20.3021 0.907292C20.3396 0.68125 20.275 0.45 20.1271 0.275C19.9782 0.101042 19.7605 0 19.5313 0H0.781284C0.552118 0 0.334409 0.101042 0.185451 0.275C0.0375342 0.45 -0.0270491 0.68125 0.0104509 0.907292C0.0104509 0.907292 1.07503 7.41146 1.59899 10.6188C1.82608 12.0042 3.02295 13.0208 4.42608 13.0208H15.8865C17.2896 13.0208 18.4865 12.0042 18.7136 10.6188L20.3021 0.907292ZM18.6115 1.5625L17.1709 10.3667C17.0677 10.9958 16.524 11.4583 15.8865 11.4583C13 11.4583 7.31254 11.4583 4.42608 11.4583C3.78858 11.4583 3.24483 10.9958 3.1417 10.3667L1.70108 1.5625H18.6115Z" fill="#333F48"/>
</svg>
