<svg width="9" height="7" viewBox="0 0 9 7" fill="none" xmlns="http://www.w3.org/2000/svg">
<path fill-rule="evenodd" clip-rule="evenodd" d="M1.70732 0.813954C1.70732 0.364407 1.32513 0 0.853659 0C0.382183 0 0 0.364407 0 0.813954V5.69767C0 6.14722 0.382183 6.51163 0.853659 6.51163C1.32513 6.51163 1.70732 6.14722 1.70732 5.69767V0.813954ZM4.26829 0C4.73977 0 5.12195 0.364407 5.12195 0.813954V5.69767C5.12195 6.14722 4.73977 6.51163 4.26829 6.51163C3.79682 6.51163 3.41463 6.14722 3.41463 5.69767V0.813954C3.41463 0.364407 3.79682 0 4.26829 0ZM7.68293 0C8.1544 0 8.53659 0.364407 8.53659 0.813954V5.69767C8.53659 6.14722 8.1544 6.51163 7.68293 6.51163C7.21145 6.51163 6.82927 6.14722 6.82927 5.69767V0.813954C6.82927 0.364407 7.21145 0 7.68293 0Z" fill="#E28133"/>
</svg>
