<svg width="30" height="30" viewBox="0 0 30 30" fill="none" xmlns="http://www.w3.org/2000/svg">
<path d="M17.1972 15.0002L14 17.1317V12.8688L17.1972 15.0002Z" fill="white"/>
<path fill-rule="evenodd" clip-rule="evenodd" d="M3.01221 3.54636C10.9144 1.85304 19.0856 1.85304 26.9878 3.54636C28.7448 3.92285 30 5.47556 30 7.27242V22.7281C30 24.5249 28.7448 26.0776 26.9878 26.4541C19.0856 28.1475 10.9144 28.1475 3.01221 26.4541C1.25523 26.0776 0 24.5249 0 22.7281V7.27242C0 5.47556 1.25523 3.92285 3.01221 3.54636ZM13.5547 10.1682C13.2478 9.96362 12.8533 9.94455 12.5281 10.1186C12.203 10.2926 12 10.6315 12 11.0002V19.0002C12 19.369 12.203 19.7079 12.5281 19.8819C12.8533 20.0559 13.2478 20.0369 13.5547 19.8323L19.5547 15.8323C19.8329 15.6468 20 15.3346 20 15.0002C20 14.6659 19.8329 14.3537 19.5547 14.1682L13.5547 10.1682Z" fill="white"/>
</svg>
