<svg width="30" height="30" viewBox="0 0 30 30" fill="none" xmlns="http://www.w3.org/2000/svg">
<path d="M29.9864 3.16441C30.0447 2.81473 29.9135 2.46032 29.6415 2.2329C29.3696 2.00548 28.9975 1.93904 28.6637 2.05827L0.663673 12.0583C0.286417 12.193 0.0259733 12.5399 0.00182741 12.9397C-0.0223184 13.3396 0.194494 13.7153 0.552796 13.8944L8.5528 17.8944C8.87377 18.0549 9.25612 18.0311 9.55471 17.8321L16.1955 13.4049L12.2191 18.3753C12.0441 18.5942 11.9688 18.8765 12.0118 19.1534C12.0548 19.4304 12.2121 19.6766 12.4453 19.8321L24.4453 27.8321C24.7276 28.0203 25.0862 28.0525 25.3975 27.9176C25.7089 27.7827 25.9306 27.4991 25.9864 27.1644L29.9864 3.16441Z" fill="white"/>
</svg>
