<svg width="24" height="27" viewBox="0 0 24 27" fill="none" xmlns="http://www.w3.org/2000/svg">
<path d="M6.31348 0.246094C6.68134 0.184328 7.05819 0.227088 7.33301 0.369141C7.70498 0.561284 8.01492 0.945291 8.26465 1.37012C8.38855 1.58089 8.49319 1.79316 8.58105 1.98535L8.79688 2.48047C9.18482 3.36563 9.42901 4.3962 9.64355 5.77148C9.78105 6.65428 9.97555 7.70794 10.1377 8.60059C10.2189 9.04787 10.2921 9.45478 10.3457 9.78125C10.4002 10.1132 10.4319 10.3476 10.4355 10.459L10.873 10.4658C10.8941 10.136 10.8643 9.62878 10.8447 9.15332C10.8244 8.66057 10.8148 8.20434 10.8633 7.93066C10.9047 7.69644 11.0251 7.43333 11.2012 7.20898C11.3776 6.98415 11.5964 6.81464 11.8242 6.74512V6.74609C12.2747 6.60936 12.796 6.56151 13.2451 6.65625H13.2461C13.4749 6.70402 13.7171 6.81395 13.9268 6.95508C14.1386 7.09778 14.2993 7.26117 14.3799 7.40234C14.6587 7.89326 14.8101 8.66392 14.8916 9.3252C14.9317 9.65046 14.9538 9.94013 14.9678 10.1426C14.9746 10.2417 14.9794 10.3255 14.9834 10.377C14.9852 10.4003 14.9878 10.4276 14.9912 10.4482C14.9921 10.4537 14.9937 10.4652 14.9971 10.4775C14.9988 10.4836 15.0022 10.4949 15.0078 10.5078C15.0116 10.5166 15.026 10.5487 15.0576 10.5791C15.0754 10.5962 15.1068 10.6204 15.1523 10.6328C15.2018 10.6463 15.2519 10.6412 15.2949 10.623C15.3664 10.5929 15.397 10.5362 15.4023 10.5264C15.4194 10.4954 15.4242 10.4657 15.4248 10.4629C15.4999 10.1261 15.5332 9.57314 15.5869 9.07617C15.6147 8.81905 15.6488 8.56909 15.6963 8.34863C15.7444 8.12543 15.8036 7.94777 15.875 7.82617C15.9688 7.66602 16.1468 7.49798 16.3506 7.36035C16.5048 7.25627 16.6563 7.1815 16.7715 7.1416L16.873 7.11328C17.2865 7.03864 17.7777 7.01026 18.2168 7.06836L18.4014 7.09863C18.5576 7.1301 18.7694 7.25106 18.9736 7.41211C19.1759 7.5717 19.3325 7.74017 19.3896 7.83105V7.83008C19.4647 7.95095 19.5384 8.14215 19.6084 8.38379C19.6773 8.62183 19.7383 8.89528 19.79 9.17188C19.8934 9.72395 19.9596 10.277 19.9902 10.5654V10.5664C19.992 10.583 19.9961 10.615 20.0068 10.6465C20.0108 10.6581 20.0266 10.7031 20.0684 10.7422C20.0932 10.7653 20.1327 10.7916 20.1865 10.7998C20.2412 10.8081 20.2882 10.7943 20.3213 10.7773C20.3766 10.7488 20.4049 10.7051 20.4111 10.6953C20.4217 10.6786 20.4285 10.6629 20.4326 10.6533C20.441 10.6337 20.4479 10.6128 20.4531 10.5957C20.4725 10.5321 20.5027 10.4063 20.5361 10.2832C20.6091 10.0147 20.7191 9.66742 20.8838 9.40332C21.1712 8.94178 21.8488 8.64548 22.4688 8.74316C22.7707 8.79079 23.051 8.93169 23.2617 9.18555C23.4728 9.44004 23.6279 9.82576 23.6494 10.3867C23.691 11.4981 23.6826 11.4441 23.6826 12.1934C23.6826 12.8514 23.6716 13.3113 23.6465 13.7666L23.6172 14.2275C23.565 14.9154 23.4215 16.4338 23.2197 17.1562C23.0815 17.6504 22.6157 18.7781 22.1631 19.4482C22.1602 19.4517 22.1573 19.4562 22.1533 19.4609C22.1399 19.4771 22.1197 19.5008 22.0947 19.5312C22.0447 19.5922 21.973 19.6798 21.8867 19.7881C21.7141 20.0048 21.4822 20.3047 21.2432 20.6348C21.0045 20.9643 20.7573 21.3273 20.5566 21.6709C20.3594 22.0085 20.1943 22.3475 20.1377 22.625C19.9363 23.6046 20.0003 23.6403 19.9629 24.3037C19.9423 24.6689 19.9965 25.082 20.0527 25.3955C20.0734 25.5107 20.0965 25.6139 20.1152 25.6992C19.9826 25.7133 19.8052 25.7304 19.6084 25.7441C19.2899 25.7663 18.933 25.7797 18.6338 25.7617L18.3574 25.7324C18.2526 25.7151 18.1166 25.6421 17.957 25.5059C17.8013 25.3729 17.6422 25.1965 17.4922 25.0049C17.1924 24.6218 16.946 24.2008 16.8467 24.0078C16.6675 23.6588 16.3665 23.4929 16.0557 23.5049C15.7944 23.5151 15.5479 23.6503 15.3867 23.8633L15.3232 23.959C15.1396 24.2782 14.8501 24.7234 14.54 25.0947C14.3849 25.2806 14.2286 25.4425 14.082 25.5605C13.9308 25.6823 13.8113 25.7394 13.7285 25.75C13.1874 25.8195 12.3438 25.8332 11.3975 25.8262C10.5314 25.8197 9.61206 25.7964 8.76172 25.7852C8.76318 25.7723 8.76612 25.7588 8.76758 25.7451C8.78642 25.5682 8.80439 25.3245 8.7998 25.0605C8.79522 24.7979 8.7687 24.5071 8.69434 24.2383C8.62953 24.0042 8.52456 23.7715 8.35352 23.5918L8.27637 23.5186C8.02722 23.3024 7.68548 22.9728 7.33594 22.6338C6.99186 22.3001 6.64045 21.9575 6.375 21.7188L5.00586 20.1709C4.78056 19.88 4.52712 19.4315 4.19141 18.8447C3.85944 18.2645 3.45515 17.565 2.9375 16.7979C2.64076 16.359 2.12628 15.7288 1.64453 15.1201C1.21482 14.5772 0.814325 14.0554 0.584961 13.6729L0.498047 13.5186C0.319754 13.1705 0.248329 12.9342 0.226562 12.7227C0.204385 12.5066 0.231571 12.3008 0.276367 11.9961C0.415822 11.046 1.38207 10.288 2.41895 10.3896H2.41992C3.20906 10.4659 3.89372 11.002 4.56348 11.5615H4.56445C4.94201 11.8763 5.41302 12.4961 5.71973 12.875L5.7207 12.876C5.99108 13.208 6.03651 13.317 6.34375 13.7354C6.43829 13.8642 6.51587 13.9758 6.58008 14.0664C6.63766 14.1477 6.69744 14.2318 6.74512 14.2783C6.75767 14.2906 6.78222 14.3126 6.81543 14.3301C6.84283 14.3445 6.93624 14.3867 7.03809 14.3291C7.13001 14.277 7.14829 14.1866 7.15234 14.1641C7.15823 14.1312 7.15756 14.101 7.15625 14.082C7.15373 14.046 7.1453 13.9996 7.13379 13.9453L7.08984 13.7578C6.97124 12.9109 6.77814 11.4718 6.49805 10.1963L6.3623 9.59668C6.32386 9.43319 6.29065 9.29892 6.25781 9.17188L6.02637 8.32129C5.91912 7.92744 5.83798 7.59499 5.75879 7.25488L5.5 6.14258C5.37746 5.62418 5.17161 4.64064 5.07715 3.95605L5.04395 3.68262C4.99699 3.22225 4.96154 2.62297 5.00879 2.05762C5.05687 1.48277 5.18704 0.985682 5.43457 0.69043C5.62081 0.468594 5.94477 0.308084 6.31348 0.246094Z" fill="white" stroke="#2A6DBD" stroke-width="0.4375"/>
</svg>
