<svg width="25" height="27" viewBox="0 0 25 27" fill="none" xmlns="http://www.w3.org/2000/svg">
<path fill-rule="evenodd" clip-rule="evenodd" d="M5.16067 20.6332C4.68629 20.0207 4.1099 18.7686 3.08423 17.2486C2.50289 16.3888 1.06123 14.7698 0.631922 13.9476C0.259403 13.2209 0.299491 12.8951 0.388032 12.2928C0.545063 11.2215 1.62089 10.3874 2.76854 10.4999C3.63552 10.5835 4.37061 11.1687 5.03211 11.7213C5.43136 12.054 5.92256 12.7005 6.21818 13.0657C6.4905 13.4 6.55734 13.5382 6.84801 13.934C7.23224 14.4577 7.35252 14.717 7.20552 14.1404C7.08686 13.2942 6.89308 11.8493 6.61248 10.5716C6.39864 9.60262 6.34682 9.45074 6.14306 8.70695C5.92751 7.91538 5.8173 7.36099 5.61515 6.52164C5.47481 5.92803 5.22256 4.71507 5.15409 4.03266C5.05891 3.09954 5.00871 1.57777 5.59509 0.878342C6.05453 0.330739 7.10863 0.165262 7.76176 0.503037C8.61713 0.944875 9.1032 2.21413 9.32541 2.72073C9.72467 3.63171 9.97189 4.68432 10.1874 6.06608C10.4614 7.82496 10.9659 10.2661 10.9825 10.7796C11.0227 10.1501 10.869 8.82457 10.9759 8.2207C11.0728 7.67307 11.5238 7.0368 12.0884 6.86449C12.5662 6.71944 13.1259 6.66662 13.6186 6.77064C14.1416 6.87979 14.6928 7.26194 14.8983 7.62196C15.503 8.68644 15.5147 10.8615 15.5398 10.7455C15.6835 10.104 15.6584 8.64892 16.0142 8.04326C16.2481 7.64409 16.8444 7.28416 17.1618 7.22613C17.653 7.13741 18.256 7.11014 18.7723 7.21246C19.1882 7.29605 19.7511 7.80102 19.9032 8.04326C20.2673 8.63012 20.4745 10.29 20.5363 10.8717C20.5613 11.1123 20.6599 10.203 21.0258 9.61614C21.7041 8.5261 24.1045 8.31455 24.1965 10.7063C24.2382 11.822 24.2299 11.7708 24.2299 12.5214C24.2299 13.4033 24.2098 13.9339 24.163 14.5719C24.1113 15.2543 23.9676 16.7964 23.7588 17.5436C23.6151 18.0572 23.139 19.2121 22.6696 19.9047C22.6696 19.9047 20.8754 22.0371 20.68 22.9975C20.4829 23.9563 20.548 23.9631 20.5096 24.6438C20.4712 25.3228 20.7118 26.2166 20.7118 26.2166C20.7118 26.2166 19.3719 26.3941 18.6503 26.2764C17.9971 26.1689 17.1885 24.8416 16.9797 24.4356C16.6924 23.8761 16.0794 23.9836 15.8404 24.3964C15.4646 25.0498 14.6561 26.2218 14.0847 26.2951C12.9688 26.4384 10.6534 26.348 8.84096 26.3292C8.84096 26.3292 9.14998 24.6045 8.46176 24.0126C7.95221 23.5707 7.07517 22.6751 6.55068 22.2043L5.16067 20.6332Z" stroke="#2A6DBD" stroke-width="0.65625" stroke-linecap="round" stroke-linejoin="round"/>
</svg>
