<svg width="12" height="24" viewBox="0 0 12 24" fill="none" xmlns="http://www.w3.org/2000/svg">
<path d="M10.2662 9.7572C9.61838 10.5825 8.82477 11.2784 8.24172 12.1523C7.5129 13.2528 7.12413 14.6122 7.20511 15.9392C7.30229 17.9621 8.38748 19.9688 8.07976 21.927C7.23757 22.0241 6.42772 22.2021 5.60172 22.3963C5.07265 22.515 4.54903 22.639 4.03076 22.7685C3.99837 22.2506 3.88496 21.7328 3.67441 21.2473C3.52865 20.9236 3.35051 20.6 3.36671 20.2278C3.3991 19.6613 3.93357 19.192 3.93357 18.6256C3.93357 18.221 3.67441 17.8812 3.59343 17.4766C3.56104 17.2824 3.56101 17.072 3.56101 16.8778C3.52862 16.3438 3.31809 15.8259 3.41526 15.308C3.44765 15.0815 3.54486 14.8549 3.60965 14.6122C3.67443 14.337 3.67443 14.0296 3.69063 13.7383C3.70142 13.0694 3.71217 12.4059 3.72297 11.7477C3.72297 11.6183 3.723 11.4888 3.67441 11.3917C3.51245 11.1004 3.09134 11.1166 2.8484 10.9062C2.4597 10.5664 2.71888 9.95143 2.6541 9.46593C2.58931 8.85097 2.03863 8.39782 1.50417 8.10652C1.26123 7.97706 1.01826 7.84758 0.823904 7.65338C0.645748 7.45919 0.532384 7.16791 0.62956 6.90898C0.71054 6.71478 0.904891 6.58532 1.03446 6.42348C1.24501 6.14837 1.27741 5.8085 1.24502 5.46865C1.2882 5.44707 1.3314 5.42551 1.37459 5.40394C1.79569 5.145 1.82804 4.54623 2.18435 4.1902C2.75121 3.6076 3.72297 4.02836 4.53277 3.97981C5.29398 3.93126 5.99041 3.39721 6.23335 2.68515C6.29813 2.49095 6.33057 2.2644 6.36297 2.05402C6.44395 1.60089 6.50873 1.14776 6.84885 0.840283C7.39951 0.354787 8.29029 0.646085 8.79237 1.16395C9.31064 1.68181 9.61833 2.37766 10.1366 2.87934C10.2446 2.98723 10.3634 3.07897 10.4929 3.15449C10.4444 3.63998 10.4606 4.14166 10.5739 4.61097C10.7683 5.38777 11.2218 6.09983 11.319 6.87662C11.4323 7.92853 10.9141 8.93186 10.2662 9.7572Z" fill="#F1F1F1" stroke="#BABABA" stroke-width="1.18548" stroke-linecap="round" stroke-linejoin="round"/>
</svg>
