<svg width="44" height="36" viewBox="0 0 44 36" fill="none" xmlns="http://www.w3.org/2000/svg">
<path d="M42.7129 8.25277C42.6589 8.52249 42.6049 8.79221 42.5509 9.06193C42.5186 9.20758 42.5024 9.35325 42.4052 9.45035C42.308 9.56364 42.1623 9.62834 42.0165 9.6607C41.5954 9.81175 41.1744 9.95743 40.7533 10.0977C40.4617 10.1948 40.1378 10.3242 40.0244 10.5993C39.9597 10.745 39.9758 10.9068 39.9272 11.0525C39.7815 11.5218 39.166 11.7484 39.0365 12.2339C38.9717 12.509 39.0688 12.7841 39.085 13.0754C39.1498 13.9169 38.6154 14.6937 38.0809 15.3087C37.838 15.6 37.5464 15.8589 37.3035 16.1502C37.0767 16.4253 36.8985 16.7328 36.7204 17.0565C36.2669 17.898 35.8783 18.788 35.1494 19.4354C34.9713 19.5972 34.7607 19.7428 34.6149 19.9532C34.3396 20.3416 34.3882 20.8433 34.3558 21.3126C34.2749 22.7853 33.4164 24.0961 32.5256 25.2613C32.2179 25.6659 31.894 26.1029 31.813 26.6045C31.7968 26.7178 31.7806 26.8311 31.6996 26.912C31.6187 26.9767 31.5053 26.9929 31.4081 26.9929C30.9223 27.0253 30.3554 27.0091 30.0962 26.6207C29.7723 26.1676 30.0153 25.407 29.5132 25.1319C29.416 25.0671 29.3026 25.0509 29.1893 25.0509C28.6386 25.0671 28.2823 25.5526 27.7803 25.6659C27.4563 25.7306 27.1162 25.6335 26.8085 25.6821C26.3388 25.7468 25.9501 26.0867 25.61 26.3941C24.865 27.0846 24.1199 27.7751 23.3749 28.4656C22.8081 28.9997 22.0954 29.5499 21.3504 29.3718C21.2694 29.3557 21.1722 29.3233 21.0913 29.3718C21.0103 29.4204 20.9941 29.5337 20.9779 29.6308C20.9132 30.2943 20.8807 31.0549 21.3504 31.5242C21.561 31.7508 21.8687 31.8964 21.7068 32.3496C21.642 32.5114 21.5286 32.6409 21.399 32.7542C21.0751 32.9969 20.8484 33.3529 20.7188 33.7413C20.5568 33.7737 20.3787 33.8384 20.2329 33.9193C20.1195 33.9841 19.99 34.065 19.8604 34.1135C19.7309 34.1621 19.6013 34.1783 19.4555 34.1944C19.002 34.243 18.5485 34.3077 18.1112 34.1944C17.7711 34.0973 17.4472 33.9193 17.1071 33.9031C16.9775 33.887 16.848 33.8708 16.7022 33.8546C15.5361 33.6604 14.4347 34.5666 13.2362 34.5828C12.4264 34.5828 11.649 34.1621 11.1307 33.5309C10.6125 32.916 10.3534 32.1068 10.2886 31.2977C10.24 30.5856 10.2885 29.7764 9.75406 29.3071C9.54352 29.1291 9.26818 29.0482 9.02524 28.9025C8.44219 28.6112 8.00493 28.0934 7.43807 27.7859C6.80643 27.4622 6.06141 27.4137 5.33259 27.3813C4.16648 27.3328 2.98414 27.268 1.81803 27.3813C1.69926 27.3921 1.58595 27.4029 1.47798 27.4137C1.7857 25.4555 0.700504 23.4488 0.603328 21.4259C0.522348 20.0989 0.911115 18.7395 1.63994 17.639C2.22299 16.7651 3.01659 16.0692 3.66443 15.2439C4.31227 14.4186 4.83055 13.4152 4.71717 12.3633C4.62 11.5865 4.16649 10.8745 3.97214 10.0977C3.85877 9.62837 3.84257 9.12669 3.89116 8.64119C3.91276 8.36069 3.95591 8.08015 4.0207 7.79964C4.36081 6.13277 5.08965 4.5792 5.81847 3.04179C6.12619 2.39447 6.49869 1.66624 7.17892 1.43967C7.76197 1.22929 8.40984 1.42346 8.9929 1.24544C9.49498 1.08361 9.89986 0.646665 10.4343 0.598116C10.7421 0.565749 11.0498 0.679039 11.3413 0.808505C12.799 1.37492 14.3052 1.97369 15.3741 3.10651C15.6332 3.36544 15.8762 3.65675 16.2163 3.77004C16.9937 4.01279 17.6577 3.17126 18.4189 2.87996C20.2167 2.20027 21.8201 4.61156 23.7475 4.5792C24.7516 4.5792 25.5938 3.89949 26.4198 3.34926C27.8774 2.37827 29.74 1.71476 31.3596 2.34591C32.5743 2.8314 33.708 4.02898 34.955 3.6244C35.4733 3.46257 35.8944 3.00943 36.0078 2.47538C36.0402 2.265 36.0564 2.03845 36.2184 1.92517C36.3156 1.86044 36.4451 1.84424 36.5584 1.82805C37.4816 1.73095 38.3886 1.47202 39.2146 1.05125C39.301 1.19151 39.3927 1.321 39.4899 1.43967C39.7976 1.7957 40.2187 2.05462 40.5427 2.39447C40.8828 2.73431 41.1419 3.18745 41.061 3.65676C41.061 3.66755 41.0556 3.67833 41.0448 3.68912C40.9962 3.96424 40.8342 4.19081 40.7856 4.46592C40.6722 5.08088 41.1582 5.6311 41.644 6.03568C42.1461 6.44026 42.6967 6.86101 42.7939 7.47597C42.8263 7.7349 42.7777 8.01003 42.7129 8.25277Z" fill="#F1F1F1" stroke="#BABABA" stroke-width="1.18548" stroke-linecap="round" stroke-linejoin="round"/>
</svg>
