<svg width="48" height="78" viewBox="0 0 48 78" fill="none" xmlns="http://www.w3.org/2000/svg">
<path d="M47.2697 20.6438C46.6326 20.7516 45.9902 20.8649 45.3424 20.9836C44.8727 21.0645 44.3706 21.1454 43.9333 20.9674C43.5446 20.8218 43.2369 20.4981 42.832 20.3848C42.3461 20.2554 41.8278 20.4819 41.4391 20.7894C41.0342 21.0969 40.7103 21.4853 40.2892 21.7766C39.8681 22.0679 39.3336 22.2621 39.0097 22.6828C38.7668 23.0065 38.6858 23.4111 38.4753 23.7509C38.2323 24.1717 37.795 24.463 37.633 24.9161C37.4063 25.5796 37.795 26.2593 38.0865 26.8743C38.3942 27.5054 38.5562 28.347 38.0379 28.8001C37.876 28.9296 37.6816 29.0105 37.5196 29.1561C37.3253 29.3503 37.2443 29.6092 37.1147 29.852C36.8394 30.386 36.3374 30.7421 35.8515 31.0981C35.2252 31.5404 34.5936 31.9828 33.9565 32.4251C32.8066 33.2505 31.592 34.092 30.1991 34.3509C29.3407 34.4966 28.3527 34.7231 27.8992 35.4837C27.7859 35.6941 27.7049 35.9207 27.5591 36.0987C27.4457 36.2282 27.3 36.3253 27.1704 36.4385C26.8789 36.6975 26.6683 37.0535 26.6036 37.4419C26.5712 37.5714 26.5711 37.717 26.5064 37.8303C26.2958 38.2025 25.729 38.0892 25.3079 38.2025C24.9354 38.3158 24.6438 38.6233 24.4009 38.9308C24.2713 39.0764 24.1256 39.2382 24.077 39.4163C24.0284 39.5943 24.0284 39.7561 24.0446 39.9341C24.077 40.4843 24.104 41.0346 24.1256 41.5848C24.158 42.0056 24.1742 42.4425 24.0284 42.8309C23.9312 43.0575 23.7855 43.2517 23.6559 43.4621C22.8785 44.7405 22.6517 46.3265 23.0566 47.7668C23.2024 48.3008 23.5263 48.8673 24.077 48.9482C24.2551 48.9644 24.4333 48.932 24.6115 48.932C24.9678 48.932 25.3079 49.0938 25.5508 49.3366C25.7776 49.725 26.2311 49.903 26.636 50.0648C27.0571 50.2266 27.4944 50.4208 27.6887 50.8254C27.7697 50.9711 27.8021 51.1491 27.8669 51.2947C27.9965 51.6184 28.2393 51.8611 28.5309 52.0553C28.7576 52.2172 29.0005 52.3466 29.1787 52.557C29.3569 52.7998 29.4217 53.1396 29.3569 53.4309C29.2921 53.7384 29.0978 53.9973 28.8386 54.1753C28.5957 54.3372 28.2718 54.4504 28.1584 54.7256C28.1098 54.855 28.1098 54.9845 28.1098 55.114C28.045 56.2468 27.3324 57.3149 26.3121 57.8327C26.1825 57.8975 26.0529 57.946 25.9719 58.0755C26.0205 58.2373 25.8424 58.3668 25.6804 58.3668C25.5347 58.3506 25.3889 58.2859 25.2755 58.2049C25.146 58.1402 25.0002 58.0755 24.8544 58.0917C24.6763 58.124 24.5467 58.2859 24.4657 58.4639C24.4009 58.6257 24.3523 58.8199 24.2551 58.9656C24.0446 59.2892 23.6073 59.3701 23.2186 59.3701C22.8947 59.354 22.5222 59.3216 22.3116 59.5482C22.1011 59.8071 22.182 60.2117 21.9877 60.4868C21.9229 60.5839 21.8257 60.6486 21.7448 60.7457C21.4532 61.0532 21.437 61.5549 21.6476 61.9109C21.7285 62.0242 21.8096 62.1213 21.8582 62.2507C21.8906 62.3155 21.8905 62.3802 21.9067 62.445C21.9553 62.8172 21.8582 63.2056 21.6314 63.513C21.5828 63.5778 21.5342 63.6425 21.5018 63.7072C21.4532 63.8367 21.4695 63.9662 21.4695 64.1118C21.4857 64.662 21.4209 65.2285 21.2913 65.7787C21.1293 66.1833 20.9674 66.604 20.8054 67.0086C20.7406 67.1543 20.7244 67.3161 20.7892 67.4617C20.7892 67.4833 20.8 67.4995 20.8216 67.5103C20.8702 67.5426 20.935 67.5265 20.9836 67.5103C21.4857 67.3484 21.8581 66.9277 22.1497 66.4908C22.3602 66.1833 22.5708 65.8434 22.9109 65.7301C22.9433 65.714 22.9918 65.714 23.0404 65.714C23.1214 65.7301 23.17 65.8111 23.1862 65.892C23.2024 65.9891 23.17 66.07 23.1538 66.1509C23.1053 66.2965 23.0567 66.4584 23.0081 66.6202C22.9433 66.8791 22.8623 67.1543 22.7652 67.397C22.6842 67.6236 22.587 67.8501 22.506 68.0605C22.4088 68.2763 22.317 68.4921 22.2306 68.7078C21.8743 69.5656 21.5018 70.4233 21.0484 71.2324C20.935 71.4104 20.7892 71.6046 20.5787 71.5885C20.4329 71.5885 20.3034 71.459 20.2548 71.3133C20.2062 71.1677 20.2062 71.022 20.2223 70.8602C20.2223 70.5366 20.2224 70.1805 20.0928 69.873C20.0766 69.8407 20.0604 69.8083 20.028 69.7759C19.9956 69.7598 19.9147 69.6788 19.8499 69.6627C19.6555 69.6788 19.5259 69.8892 19.4611 70.0672C19.1696 70.7307 18.9914 71.4428 18.9105 72.1711C18.9105 72.2034 18.8943 72.252 18.8781 72.2843C18.8457 72.3167 18.8133 72.3329 18.7647 72.3329C17.8253 72.5756 16.8536 71.9607 15.8819 72.074C15.3798 72.1387 14.9101 72.4138 14.4728 72.6889C13.8897 73.0288 13.2743 73.4172 13.0476 74.0483C12.918 74.372 12.918 74.7118 12.8046 75.0517C12.7074 75.3753 12.4645 75.699 12.1244 75.7314C12.011 75.7475 11.8976 75.7152 11.7842 75.699C11.4603 75.6342 11.0878 75.6181 10.9097 75.8932C10.8287 76.0065 10.8125 76.1359 10.7639 76.2492C10.5372 76.6862 9.88931 76.6214 9.45201 76.3787C9.04711 76.1521 8.67464 75.8123 8.4317 75.4077C8.15637 74.9707 8.01059 74.4691 7.68667 74.0483C7.36275 73.5952 6.82825 73.2391 6.76346 72.6727C6.66629 71.8312 7.70281 71.2162 7.71901 70.3747C7.71901 69.7759 7.23315 69.3066 6.76346 68.9668C6.27758 68.6107 5.7431 68.2709 5.53255 67.7045C5.37059 67.2675 5.45157 66.7335 5.20863 66.3289C5.06287 66.07 4.80378 65.892 4.60943 65.6654C4.41508 65.4388 4.36644 65.0019 4.39883 64.6944C4.5122 63.772 3.78343 62.9952 3.39473 62.1698C3.23277 61.8138 3.11938 61.4416 2.89264 61.1503C2.71448 60.8914 2.43918 60.7133 2.27722 60.4382C1.98569 60.0013 2.03423 59.4349 2.06662 58.9008C2.08282 58.383 2.06666 57.7842 1.69415 57.412C1.38642 57.0883 0.900497 57.0074 0.592773 56.6999C1.17583 56.7323 1.75895 56.975 2.19624 57.3634C2.43918 57.5738 2.71446 57.8489 3.03838 57.7842C3.21654 57.7518 3.34614 57.6223 3.47571 57.4929C3.67006 57.2987 3.86436 57.0883 3.91295 56.8132C3.96154 56.4733 3.73484 56.1335 3.63767 55.7936C3.47571 55.3082 3.55669 54.7579 3.79963 54.2886C4.02637 53.8193 4.3989 53.4309 4.7876 53.0911C5.01434 52.913 5.25728 52.735 5.51642 52.6379C5.72697 52.5732 5.96986 52.5246 6.11562 52.3628C6.30997 52.0877 6.35855 51.7478 6.42333 51.4242C6.50431 51.1167 6.56913 50.8254 6.61771 50.5179C6.69869 49.9353 6.68251 49.2718 6.22903 48.8511C6.11565 48.7216 5.96986 48.6407 5.87268 48.5112C5.64594 48.1875 5.75931 47.7506 5.87268 47.3784C5.96986 47.1195 6.08322 46.8282 6.34235 46.7473C6.5529 46.6663 6.84444 46.7634 7.0064 46.6016C7.10358 46.5045 7.13602 46.375 7.217 46.2618C7.31417 46.1323 7.4761 46.0837 7.58947 45.9866C7.94579 45.7115 7.89723 45.1289 7.6219 44.7891C7.36276 44.433 6.94163 44.2388 6.53673 44.0447C6.13183 43.8505 5.72693 43.6401 5.48399 43.2517C4.98192 42.4101 5.64592 41.3582 5.61353 40.3873C5.59734 39.5457 5.06288 38.7851 5.14386 37.9436C5.19245 37.4743 5.4192 37.0535 5.54876 36.6004C5.67833 36.1473 5.69457 35.597 5.35446 35.2572C5.27348 35.1925 5.19244 35.1277 5.12765 35.063C4.83612 34.7393 4.91712 34.2376 5.14386 33.8654C5.35441 33.4932 5.67838 33.1857 5.84034 32.7812C5.88893 32.6355 5.93745 32.4575 6.01843 32.328C6.21278 32.0529 6.55296 31.972 6.8121 31.794C7.10363 31.616 7.29796 31.3085 7.36275 30.9848C7.39514 30.7421 7.39515 30.4184 7.6219 30.3051C7.71907 30.2566 7.83243 30.2566 7.92961 30.2566C9.35485 30.2566 11.6223 30.7259 12.4483 29.1723C12.4969 29.059 12.5617 28.9296 12.5617 28.8001C12.5617 28.4602 12.2863 28.2013 12.0272 27.9909C11.8328 27.8129 11.6061 27.6349 11.347 27.5863C11.2174 27.5702 11.0878 27.5702 10.9744 27.5216C10.6991 27.4245 10.5857 27.0685 10.6667 26.7772C10.7639 26.5021 10.9906 26.2755 11.2174 26.0975C11.768 25.612 12.4159 25.1912 12.756 24.5277C13.2581 23.5567 12.9665 22.343 13.42 21.3396C13.5496 21.0322 13.7763 20.757 13.8087 20.4172C13.8573 20.0773 13.7277 19.7537 13.6468 19.43C13.582 19.1064 13.5658 18.7179 13.8087 18.4914C14.0193 18.281 14.3432 18.2486 14.6347 18.2163C15.1368 18.1839 15.6389 18.103 16.0762 17.8926C16.5296 17.666 16.9022 17.2776 17.0156 16.7921C17.1127 16.4038 17.0479 15.9183 17.3556 15.6593C17.469 15.5784 17.5986 15.5299 17.6795 15.4166C17.7929 15.3033 17.8091 15.1253 17.8577 14.9796C18.1007 14.3161 18.9914 14.219 19.5421 13.7983C20.1575 13.3289 20.3195 12.3903 19.9146 11.743C19.6879 11.4032 19.283 11.0633 19.4125 10.6749C19.6231 10.0761 20.4815 10.2218 20.6435 9.34788C20.7244 8.92711 20.8702 8.49018 21.1617 8.1827C21.437 7.90758 21.8581 7.7943 22.1334 7.51919C22.3764 7.27644 22.4898 6.95277 22.668 6.66147C22.8461 6.37017 23.1376 6.11125 23.4778 6.14362C24.0608 6.20835 24.2066 7.08224 24.7572 7.29262C25.0973 7.4059 25.4698 7.24407 25.7775 7.03369C26.0529 6.83949 26.3283 6.56438 26.3283 6.22453C26.3283 6.04652 26.231 5.86849 26.1987 5.69048C26.1825 5.52865 26.1987 5.383 26.1987 5.22116C26.231 4.94065 26.2635 4.65476 26.2958 4.36347C26.312 4.18545 26.3444 3.99125 26.474 3.87797C26.555 3.79705 26.6683 3.78086 26.7655 3.76468C27.2028 3.69994 27.6563 3.78087 28.045 3.97506C28.2879 4.12071 28.5147 4.29872 28.79 4.39582C29.4702 4.65476 30.28 4.26636 30.9603 4.54148C31.3004 4.67094 31.5595 4.94605 31.8673 5.12407C32.175 5.30208 32.6123 5.383 32.8714 5.12407C33.163 4.81659 33.0172 4.34727 32.9848 3.92651C32.9686 3.61903 33.0334 3.26301 33.2763 3.06881C33.4221 2.97171 33.584 2.92317 33.7298 2.80988C34.0375 2.58332 34.0861 2.08163 33.8432 1.79033C33.6165 1.54759 33.1954 1.3534 33.2925 1.02973C33.3573 0.786984 33.665 0.738426 33.908 0.738426C34.5558 0.738426 35.2522 0.819338 35.8191 0.592773C35.9 1.12682 36.1592 1.64468 36.5965 1.96834C37.2929 2.50239 38.3618 2.59949 38.8153 3.3601C38.9449 3.57048 39.0097 3.82941 39.1879 4.00742C39.6738 4.57384 40.5645 4.234 41.2934 4.34729C42.2327 4.49294 42.8643 5.36682 43.7551 5.6743C44.0142 5.75522 44.3058 5.78759 44.5163 5.96561C44.8079 6.19217 44.8889 6.58056 44.9537 6.95278C45.1048 7.82667 45.256 8.70594 45.4071 9.59063C45.4395 9.78482 45.4719 9.99522 45.5853 10.1732C45.7311 10.3836 46.0064 10.5616 46.0064 10.8206C46.0064 11.128 45.65 11.3061 45.5529 11.5812C45.4557 11.8239 45.5529 12.0828 45.6663 12.2932C46.0874 13.1509 46.8647 13.9763 46.6704 14.8987C46.6056 15.2386 46.4113 15.5299 46.2493 15.8374C46.0064 16.3067 45.8282 16.8245 45.7472 17.3424C45.7149 17.5528 45.6824 17.7793 45.7958 17.9573C45.9092 18.1677 46.1359 18.281 46.3465 18.4267C47.0267 18.9122 47.2373 19.7699 47.2697 20.6438Z" fill="#F1F1F1" stroke="#BABABA" stroke-width="1.18548" stroke-linecap="round" stroke-linejoin="round"/>
</svg>
