<svg width="39" height="60" viewBox="0 0 39 60" fill="none" xmlns="http://www.w3.org/2000/svg">
<path d="M38.2485 43.1851C38.2323 43.7029 37.714 44.0428 37.3577 44.415C37.0661 44.7387 36.8718 45.127 36.6289 45.4993C35.8191 46.6806 34.5234 47.4412 33.6165 48.5417C33.2763 48.9625 32.9848 49.448 32.5637 49.7878C32.2398 50.0467 31.8673 50.2409 31.5758 50.5322C31.3652 50.7588 31.2033 51.0501 31.0251 51.309C30.2639 52.3124 29.0006 52.7817 27.9154 53.429C27.5591 53.6556 27.219 53.9037 26.8951 54.1734C26.3607 54.6104 25.8748 55.1444 25.5832 55.7756C25.4969 55.7972 25.4105 55.8241 25.3241 55.8565C24.2228 56.1478 23.0243 55.8241 21.9553 56.2287C21.7772 56.2935 21.599 56.3905 21.4046 56.4229C20.9835 56.5038 20.5463 56.342 20.1252 56.2935C19.8174 56.2611 19.4936 56.2935 19.202 56.3744C18.7485 56.7628 18.1817 57.0379 17.5824 57.135C17.1937 57.1997 16.7888 57.1997 16.4163 57.3292C16.0762 57.4263 15.7847 57.6205 15.4607 57.7823C14.4404 58.3163 13.2905 58.5591 12.1406 58.7533C11.1202 58.9313 10.0837 59.077 9.04711 58.9637C8.49645 58.9151 7.94582 58.7695 7.54092 58.3973C7.37896 58.2516 7.23318 58.0574 7.03883 57.928C6.76349 57.7499 6.35858 57.7337 6.13183 57.491C5.98607 57.3292 5.92125 57.1026 5.77549 56.9408C5.58114 56.698 5.25728 56.6333 4.94956 56.6333C4.64183 56.6333 4.33408 56.698 4.02636 56.6818C3.47569 56.6495 2.95744 56.3258 2.66591 55.8565C2.39058 55.371 2.35818 54.756 2.58493 54.2544C2.66591 54.1087 2.74687 53.9631 2.81166 53.8174C2.86024 53.6556 2.87644 53.5099 2.89264 53.3481C3.00601 52.5066 3.05461 51.6327 3.15179 50.7912C3.13559 50.3057 2.89264 49.7878 2.56872 49.4156C2.48774 49.3023 2.37436 49.2052 2.32578 49.0757C2.26099 48.9463 2.2448 48.7844 2.2448 48.655C2.234 48.3097 2.26099 47.9645 2.32578 47.6193C2.39056 47.247 2.50395 46.8586 2.42297 46.4864C2.37438 46.2437 2.26098 46.0171 2.1476 45.7744C1.79129 44.9814 1.69416 44.059 1.87232 43.2013C1.90471 43.0556 1.9533 42.91 2.03428 42.7805C2.18004 42.5863 2.42292 42.4406 2.45531 42.1979C2.47151 41.8904 2.1638 41.6962 1.90466 41.5182C1.61314 41.3078 1.37023 41.0165 1.20827 40.6929C1.17588 40.6119 1.1435 40.5148 1.1435 40.4339C1.17589 40.1264 1.62932 40.0617 1.88845 40.2235C2.16378 40.3854 2.35818 40.6605 2.66591 40.7414C2.90885 40.8061 3.16794 40.7252 3.42707 40.7414C3.92915 40.7738 4.38264 41.2107 4.88471 41.1622C5.27342 41.1136 5.56496 40.8223 5.7917 40.4986C6.40715 39.6248 6.73109 38.5405 7.50849 37.7961C7.91339 37.4077 8.44789 37.1325 8.99856 37.0193C9.14432 37.0031 9.29002 36.9869 9.41959 36.9222C9.58155 36.8574 9.72736 36.728 9.87312 36.5823C10.6073 35.8918 11.3469 35.2013 12.0919 34.5109C12.5292 33.2971 13.5982 32.3261 14.8615 31.9863C15.153 31.9054 15.477 31.8568 15.7199 31.6626C16.1572 31.339 16.2057 30.724 16.2219 30.1738C16.2381 29.5426 16.222 28.8306 15.8009 28.3451C15.5093 28.0214 15.072 27.8758 14.7157 27.6168C14.327 27.3417 14.0193 26.921 13.582 26.7753C13.2257 26.662 12.8531 26.7268 12.4968 26.7915C12.3457 26.8131 12.1945 26.84 12.0434 26.8724C12.011 25.9985 11.8004 25.1408 11.1202 24.6553C10.9096 24.5097 10.6829 24.3964 10.5695 24.186C10.4561 24.008 10.4886 23.7814 10.521 23.571C10.6019 23.0532 10.7801 22.5353 11.0231 22.066C11.185 21.7585 11.3793 21.4672 11.4441 21.1274C11.6384 20.2049 10.8611 19.3796 10.44 18.5219C10.3266 18.3115 10.2294 18.0526 10.3266 17.8098C10.4238 17.5347 10.7801 17.3567 10.7801 17.0492C10.7801 16.7903 10.5048 16.6123 10.359 16.4019C10.2456 16.2239 10.2132 16.0135 10.1808 15.8193C10.0297 14.9346 9.87854 14.0553 9.72738 13.1814C9.66259 12.8092 9.58158 12.4208 9.29005 12.1943C9.0795 12.0162 8.78794 11.9839 8.52881 11.903C7.63803 11.5955 7.00643 10.7216 6.06707 10.5759C5.33825 10.4627 4.44747 10.8025 3.96159 10.2361C3.78343 10.0581 3.7186 9.79913 3.58903 9.58875C3.13554 8.82814 2.06666 8.73104 1.37023 8.197C0.932937 7.87333 0.673753 7.35547 0.592773 6.82142C0.733139 6.77827 0.86277 6.71354 0.981541 6.62723C1.51601 6.23884 1.85612 5.47822 2.52016 5.42967C2.97365 5.39731 3.37855 5.73715 3.65388 6.09318C3.92921 6.40066 4.25313 6.67578 4.54466 6.9509C5.43544 7.80861 6.13183 8.89289 7.26555 9.44311C7.33034 9.47548 7.38974 9.50245 7.44373 9.52403C8.3669 9.91243 9.56535 9.83149 10.2294 9.10325C10.4075 8.90905 10.5533 8.66632 10.7962 8.56922C10.9744 8.4883 11.185 8.52067 11.3793 8.55304C12.011 8.66632 12.6264 8.92524 13.1771 9.2489C13.4848 9.4431 13.7925 9.65349 14.1489 9.76678C14.489 9.86388 14.91 9.84769 15.1854 9.60495C15.4607 9.3622 15.5255 8.94142 15.7684 8.68249C16.2381 8.16463 17.1775 8.2941 17.5986 7.76006C17.7605 7.54968 17.8092 7.27457 17.8254 7.01563C17.9064 5.96373 17.5986 4.74997 18.2626 3.92463C18.5218 3.60097 18.8942 3.3906 19.1372 3.06693C19.3153 2.84037 19.4126 2.56525 19.5907 2.33869C20.0766 1.73991 20.9835 1.69136 21.7448 1.86937C22.0201 1.9341 22.3117 2.01503 22.6032 1.99884C23.2024 1.93411 23.6235 1.40005 24.077 1.01165C24.5466 0.623258 25.3241 0.38051 25.6966 0.849823C25.8423 1.02784 25.8909 1.25441 25.9719 1.46479C26.1825 1.99884 26.6683 2.4196 27.2352 2.53288C27.6401 2.62998 28.0774 2.56524 28.4985 2.62997C29.033 2.71089 29.5512 3.03456 29.8265 3.50387C30.1019 3.97318 30.1505 4.58814 29.8914 5.05745C29.7294 5.38112 29.454 5.62387 29.2759 5.93135C29.0653 6.31975 28.9844 6.80525 28.6443 7.09655C28.4337 7.29075 28.1098 7.45258 27.964 7.66296C27.8992 7.76006 27.8669 7.87334 27.9154 8.00281C27.9478 8.11609 28.0612 8.197 28.1098 8.32647C28.2718 8.65013 27.964 8.98997 27.7373 9.26508C27.3324 9.81531 27.1704 10.5274 27.3324 11.1909C27.5105 11.8382 27.9803 12.4046 28.5957 12.6798C29.114 12.9225 29.697 12.9387 30.1991 13.2138C30.5554 13.3918 30.7336 13.764 31.0251 14.0068C31.3976 14.3304 31.8025 14.6379 32.1912 14.9616C32.4179 15.1396 32.6447 15.3338 32.7257 15.6089C32.8391 16.0297 32.5151 16.4342 32.2236 16.7579C31.6513 17.4052 31.0791 18.0526 30.5068 18.6999C30.1667 19.0883 29.8104 19.4929 29.6484 19.9945C29.5027 20.4962 29.5836 21.095 30.0047 21.4025C30.2477 21.5805 30.5716 21.6452 30.7497 21.8718C30.8631 22.0013 30.9117 22.1955 30.9603 22.3573C31.3004 23.6034 32.0616 24.6715 32.7742 25.7396C32.9848 26.0471 33.1953 26.4193 33.0657 26.7753C32.9848 26.9533 32.839 27.099 32.6933 27.2284C32.4179 27.5197 32.175 27.8596 32.013 28.2318C31.8672 28.5555 31.7701 28.9277 31.8025 29.2837C31.8349 29.5912 31.9482 29.8987 31.8835 30.2061C31.7863 30.7726 31.0899 31.161 31.1709 31.7274C31.2518 32.2129 31.8187 32.407 32.2721 32.5689C32.7256 32.7469 33.2439 33.1839 33.0334 33.637C32.9686 33.7503 32.8552 33.8635 32.839 33.993C32.8228 34.1387 32.92 34.2843 33.0172 34.4138C33.3087 34.786 33.6164 35.1744 34.0699 35.3362C34.2157 35.3848 34.3938 35.401 34.5234 35.4981C34.9283 35.7732 34.7664 36.4367 34.4263 36.7927C34.0861 37.1487 33.6003 37.3753 33.3735 37.8122C32.7257 39.0098 34.815 39.8513 35.5438 40.353C35.8677 40.5796 36.1592 40.8223 36.4021 41.1136C36.5641 41.2916 36.7099 41.502 36.888 41.6638C37.1471 41.9066 37.4711 42.0684 37.7464 42.295C38.0218 42.5216 38.2485 42.829 38.2485 43.1851Z" fill="#F1F1F1" stroke="#BABABA" stroke-width="1.18548" stroke-linecap="round" stroke-linejoin="round"/>
</svg>
