<svg width="30" height="34" viewBox="0 0 30 34" fill="none" xmlns="http://www.w3.org/2000/svg">
<path d="M28.6118 11.6297C28.5309 12.0181 28.1907 12.2932 27.9478 12.6169C27.6077 13.0862 27.4943 13.6688 27.4457 14.2514C27.4295 14.3647 27.4133 14.478 27.3647 14.5912C27.2513 14.7693 27.0247 14.834 26.8465 14.9311C26.0853 15.3195 25.9233 16.3552 25.2269 16.8569C25.0973 16.954 24.9516 17.0349 24.822 17.132C24.3361 17.3262 23.996 17.7955 23.9312 18.2972C23.915 18.5237 23.9312 18.7665 23.8016 18.9445C23.7206 19.0578 23.5911 19.1387 23.4777 19.2034C22.9918 19.4786 22.4088 19.7698 21.8905 19.5595C21.8095 19.5271 21.7285 19.4785 21.6314 19.4624C21.356 19.4462 21.2103 19.7698 21.1455 20.045C21.0483 20.401 20.9673 20.7732 20.9835 21.1292C20.9997 21.5014 21.1293 21.8899 21.4208 22.1164C21.5342 22.1973 21.6638 22.262 21.7448 22.3753C21.7933 22.4562 21.8095 22.5695 21.8257 22.6666C21.8689 23.0335 21.9121 23.3949 21.9553 23.7509C21.9715 23.8318 21.9877 23.9128 21.9553 23.9775C21.8905 24.107 21.7286 24.1555 21.5828 24.1717C20.6596 24.2688 19.7202 24.1231 18.7971 24.2526C18.6999 24.2526 18.6189 24.2688 18.5541 24.3335C18.4245 24.4306 18.4245 24.6086 18.3759 24.7542C18.2302 25.1912 17.6795 25.3207 17.3394 25.6282C16.7564 26.1784 16.8697 27.1979 16.2705 27.6996C15.6874 28.2013 14.7967 27.9585 14.0354 28.0556C13.4686 28.1366 12.8208 28.6868 12.4483 29.1237C12.8532 29.5768 12.351 30.3375 12.2377 30.9201C12.2053 31.0657 12.1729 31.2114 12.1081 31.3246C12.0272 31.4379 11.9138 31.5026 11.7842 31.5512C10.8287 31.891 9.85687 30.8715 8.83652 30.9524C8.04291 31.0172 7.45986 31.6969 6.73104 31.972C6.39092 32.1176 6.03461 32.1662 5.6783 32.2309C5.32199 32.3118 4.96568 32.4089 4.62556 32.5222C3.58902 30.5478 2.56867 28.5735 1.6293 26.5506C1.38636 26.0327 1.14341 25.5149 1.04623 24.9646C0.997642 24.7381 0.981461 24.5115 0.900481 24.3012C0.835698 24.0746 0.738537 23.8804 0.592773 23.7023C3.2975 22.7475 6.05079 21.9222 8.82031 21.1939C9.43575 21.0321 10.0674 20.8703 10.5695 20.4981C11.7518 19.6566 11.9624 18.0544 12.2053 16.6303C12.2863 16.2095 12.3835 15.7564 12.6588 15.4328C12.8693 15.19 13.1608 15.0282 13.3714 14.7692C13.8897 14.1057 13.5658 13.1186 13.0799 12.4065C12.6588 11.7592 12.1081 11.128 12.0272 10.3674C12.0164 10.3027 12.0109 10.2325 12.0109 10.157C12.0109 9.6877 12.2053 9.23457 12.3996 8.8138C13.2418 7.04984 14.1488 5.31827 15.0558 3.58666C15.574 2.58331 16.0977 1.58534 16.6268 0.592773C16.6376 0.614351 16.643 0.641323 16.643 0.673689C16.6754 0.851705 16.6754 1.02971 16.724 1.19154C16.7888 1.35338 16.9022 1.48285 16.9832 1.64468C17.1775 2.06544 17.0965 2.5671 17.0317 3.03641C16.9831 3.48954 16.9993 4.0236 17.3394 4.34727C17.55 4.54146 17.8415 4.60621 18.1007 4.71949C18.3436 4.81659 18.5865 4.99459 18.6513 5.23734C19.5259 6.0465 20.7729 6.41869 21.9391 6.22449C22.2954 6.15976 22.6355 6.06266 22.9918 6.06266C23.5749 6.09503 24.1094 6.45109 24.5628 6.8233C24.9839 7.16315 25.3888 7.55152 25.7451 7.97229C25.8909 8.13412 26.0366 8.31214 26.15 8.50634C26.312 8.81382 26.4092 9.15366 26.6198 9.42877C26.9275 9.86572 27.4295 10.0761 27.8668 10.3674C28.3041 10.6425 28.709 11.128 28.6118 11.6297Z" fill="#F1F1F1" stroke="#BABABA" stroke-width="1.18548" stroke-linecap="round" stroke-linejoin="round"/>
</svg>
