<svg width="28" height="56" viewBox="0 0 28 56" fill="none" xmlns="http://www.w3.org/2000/svg">
<path d="M26.8303 39.0132C26.7979 39.2236 26.7007 39.4016 26.5873 39.5796C26.474 39.7414 26.3444 39.9033 26.1987 40.0489C26.0367 40.2107 25.8586 40.3564 25.7614 40.5668C25.6642 40.8095 25.7128 41.0846 25.7614 41.3274C25.7938 41.5216 25.8261 41.732 25.9395 41.8938C26.0043 41.9909 26.0853 42.088 26.1339 42.1851C26.2796 42.4764 26.1663 42.8001 26.0529 43.1075C25.9557 43.3341 25.8639 43.5661 25.7775 43.8034C25.7452 43.852 25.729 43.9005 25.6966 43.9491C25.5022 44.208 25.0487 44.0461 24.8058 44.2565C24.7248 44.3213 24.6763 44.4022 24.6277 44.4831C24.1904 45.2114 23.4454 45.7778 22.6032 45.9882C22.3657 46.1284 22.128 46.2686 21.8905 46.4089C21.7771 46.4736 21.68 46.5384 21.599 46.6355C21.4856 46.765 21.4208 46.9106 21.3236 47.0562C21.1617 47.2666 20.9187 47.4123 20.6758 47.5579C20.3357 47.7359 19.9794 47.9139 19.6069 47.9463C19.2668 47.9949 18.9104 47.9139 18.5703 47.833C18.3922 47.8007 18.2141 47.7683 18.0521 47.6874C17.9549 47.655 17.8739 47.6064 17.7767 47.5741C17.6148 47.5255 17.4367 47.5417 17.2585 47.5579C16.967 47.4608 16.7888 47.7521 16.7888 47.9949C16.7726 48.2214 16.8374 48.4318 16.7888 48.6422C16.7078 49.0468 16.2705 49.2895 16.1571 49.6617C16.0924 49.8721 16.1248 50.0825 16.1248 50.2929C16.1248 50.5032 16.0762 50.7298 15.9142 50.8755C15.6551 51.102 15.234 50.924 14.8777 51.005C14.6671 51.0697 14.489 51.2315 14.327 51.3771C14.1165 51.5713 13.9059 51.7817 13.7277 52.0083C13.582 52.2349 13.4686 52.4938 13.2581 52.6394C12.9989 52.8336 12.6264 52.8336 12.3349 52.9955C12.0757 53.1573 11.9138 53.4486 11.6709 53.6428C11.4442 53.8046 11.1526 53.9179 11.0878 54.1768C11.0554 54.2739 11.0554 54.4034 10.9744 54.4519C10.9258 54.4843 10.8772 54.4843 10.8125 54.4681C10.6343 54.452 10.4238 54.4196 10.3266 54.2577C10.2942 54.193 10.278 54.1121 10.278 54.0474C10.1161 52.9145 10.1322 51.7655 10.3104 50.6489C10.5533 50.39 10.6667 50.0177 10.6019 49.6779C10.5534 49.3381 10.3266 49.0306 10.0189 48.8687C9.88931 48.804 9.74354 48.7555 9.61397 48.6907C9.5006 48.626 9.40343 48.5451 9.29005 48.4804C8.99853 48.3185 8.69083 48.27 8.35072 48.3023C8.36151 48.2807 8.36685 48.2646 8.36685 48.2538C8.43163 48.1243 8.49642 48.0111 8.60979 47.9301C8.75555 47.8492 8.91756 47.8492 9.06332 47.8654C9.61399 47.8654 10.3104 47.833 10.521 47.3152C10.6505 46.9915 10.5047 46.6031 10.6505 46.2956C10.8287 45.9234 11.3146 45.8101 11.7195 45.8425C12.2701 45.891 12.8046 46.0852 13.2419 46.4089C13.4686 46.5869 13.6792 46.7811 13.9221 46.9106C14.1651 47.0239 14.489 47.0724 14.7157 46.8944C15.0072 46.684 15.0072 46.2471 14.8452 45.9396C14.6833 45.6159 14.3918 45.4056 14.1326 45.1628C13.8735 44.9039 13.6306 44.6126 13.6144 44.2565C13.5982 43.7548 14.0516 43.3503 14.5213 43.1885C14.991 43.0266 15.5093 43.0104 15.979 42.8648C17.0155 42.5573 17.7443 41.6672 18.4084 40.8257C18.8187 40.2971 19.229 39.7738 19.6393 39.2559C19.8012 39.0617 19.9632 38.8514 20.028 38.6248C20.0927 38.4306 20.0766 38.2364 20.0766 38.0422C20.028 37.4111 19.8498 36.7961 19.5421 36.2458C19.3639 35.9222 19.1372 35.6147 19.0239 35.2587C18.8619 34.7732 18.9266 34.2553 18.9752 33.7537C19.0076 33.5271 19.04 33.2843 19.1372 33.0578C19.148 33.0254 19.1642 32.9931 19.1858 32.9607C19.2992 32.7665 19.4612 32.6047 19.5907 32.4266C20.1414 31.666 19.947 30.4685 19.1696 29.9182C18.9105 29.7402 18.5865 29.5946 18.4893 29.3033C18.3922 29.0282 18.5218 28.7369 18.6675 28.4941C18.8295 28.2514 19.0076 27.9925 18.9914 27.7012C18.9914 27.4099 18.5056 27.2966 18.2141 27.1671L17.5338 26.8272C16.5782 26.3741 16.0923 25.3384 15.4931 24.4645C15.1044 23.8657 14.6185 23.3155 14.1489 22.7814C13.5982 22.1341 13.0475 21.4922 12.4968 20.8557C11.6222 19.8361 10.7477 18.8166 9.72738 17.975C9.01475 17.3924 8.25353 16.8908 7.44373 16.4862C7.21698 16.3729 6.97401 16.2596 6.84444 16.0493C6.6015 15.6123 6.9416 15.0621 7.39509 14.8517C7.84858 14.6413 8.36691 14.6413 8.8366 14.528C9.25769 14.4309 9.66253 14.2367 9.98645 13.9616C10.2618 13.7512 10.4885 13.4599 10.5533 13.1201C10.6181 12.7802 10.4723 12.3757 10.1484 12.2462C9.84069 12.1167 9.46823 12.2462 9.14431 12.1167C8.38309 11.8093 8.82035 10.4337 8.14012 9.96436C7.84859 9.77016 7.47607 9.80252 7.15215 9.9158C6.82823 10.0453 6.53675 10.2395 6.22903 10.3689C5.48401 10.6602 4.59318 10.5146 3.99393 10.0129C3.76719 9.81872 3.57285 9.57597 3.52426 9.28467C3.41089 8.76681 3.78343 8.23277 3.71865 7.71491C3.65386 6.97049 2.87647 6.56587 2.27722 6.14511C1.5484 5.62725 0.965281 4.93139 0.592773 4.13841C0.657557 4.12762 0.727787 4.11143 0.803369 4.08985C1.20827 3.92802 1.49981 3.44254 1.9533 3.45872C2.40679 3.49109 2.6983 4.05749 3.15179 4.00894C3.44332 3.99275 3.63767 3.73383 3.88061 3.572C4.52845 3.11887 5.43542 3.42635 6.22903 3.32925C7.26557 3.19979 8.22115 2.35826 9.2415 2.60101C9.53302 2.66574 9.87311 2.8114 10.0999 2.53629C10.1646 2.45537 10.2132 2.35827 10.2294 2.24498C10.3104 1.75949 10.3428 1.24163 10.6829 0.869413C10.8287 0.691398 11.0554 0.578124 11.2983 0.594307C11.687 0.626673 11.849 0.96652 12.0434 1.24163C12.5454 1.96988 13.3877 2.43918 14.2623 2.48773C14.7481 2.5201 15.2501 2.43916 15.736 2.58481C15.9142 2.64954 16.0923 2.74666 16.2219 2.89231C16.6106 3.31308 16.3839 3.75002 16.3029 4.18697C16.0599 5.54636 17.3557 6.71155 18.6837 7.1485C19.6393 7.47216 20.6759 7.55307 21.6314 7.82819C21.5882 7.84976 21.545 7.87674 21.5018 7.9091C21.2103 8.07093 20.9188 8.23276 20.7407 8.50787C20.6435 8.63734 20.5787 8.79919 20.4815 8.92865C20.3357 9.10667 20.1252 9.20376 19.9632 9.36559C19.8174 9.51124 19.704 9.68925 19.5421 9.80253C19.3477 9.93199 19.0886 9.94818 18.8457 9.96436C18.4354 9.98594 18.0197 10.0021 17.5986 10.0129C17.3556 10.0291 17.1127 10.0453 16.9346 10.1909C16.724 10.3527 16.6754 10.6279 16.643 10.8868C16.6268 11.1295 16.6431 11.4047 16.5297 11.6312C16.4811 11.7607 16.4001 11.8578 16.3353 11.9873C16.2219 12.2624 16.2543 12.586 16.0762 12.8288C15.817 13.1848 15.2016 13.1686 15.0396 13.6379C14.6347 13.816 14.1327 14.0425 13.9869 14.4957C13.9545 14.6413 13.9545 14.7869 13.9545 14.9326C13.9545 15.1807 13.9545 15.4289 13.9545 15.677C13.9545 15.8551 13.9545 16.0169 13.9059 16.1787C13.8411 16.4538 13.6306 16.6642 13.4038 16.826C13.2904 16.9231 13.1447 17.004 13.0961 17.1497C13.0313 17.3762 13.1933 17.5866 13.3391 17.7647C13.447 17.8833 13.555 18.002 13.663 18.1207C13.8465 18.3364 14.0301 18.5469 14.2136 18.7518C14.6185 19.2212 15.0396 19.6743 15.4931 20.0951C15.7522 20.2245 15.9466 20.4834 15.979 20.7585C16.0114 21.066 15.8818 21.3735 16.0114 21.6486C16.1572 22.0046 16.6268 22.0856 16.9507 22.3121C17.1613 22.4578 17.3233 22.6843 17.4852 22.8947C17.8416 23.364 18.2303 23.801 18.619 24.2218C18.8025 24.4268 18.9806 24.6263 19.1534 24.8205C19.3963 25.0957 19.6555 25.3708 19.947 25.5811C20.1899 25.7592 20.4329 25.8724 20.6758 26.0343C20.9187 26.1961 21.1293 26.4065 21.2427 26.6654C22.0201 26.8434 22.6356 27.5393 22.7327 28.3161C22.7489 28.4294 22.7489 28.5588 22.7975 28.6559C22.8623 28.8016 23.0081 28.8987 23.1376 28.9796C23.386 29.1522 23.6343 29.3248 23.8827 29.4975C24.1418 29.6593 24.4009 29.8535 24.5143 30.1286C24.5629 30.2581 24.5791 30.4037 24.6277 30.5332C24.7735 30.9702 25.2107 31.2776 25.3403 31.7146C25.3727 31.8602 25.3889 32.0059 25.4213 32.1353C25.4861 32.4266 25.5994 32.6856 25.8262 32.8798C26.0853 33.2196 26.2473 33.608 26.1501 34.0288C26.0529 34.4172 25.7128 34.7246 25.5994 35.113C25.4375 35.6471 25.7452 36.1973 26.1339 36.5857C26.2149 36.6666 26.3282 36.7637 26.3606 36.877C26.393 37.0227 26.3282 37.1683 26.2958 37.314C26.1987 37.7024 26.3282 38.1555 26.6036 38.4306C26.7655 38.5439 26.8465 38.8028 26.8303 39.0132Z" fill="#F1F1F1" stroke="#BABABA" stroke-width="1.18548" stroke-linecap="round" stroke-linejoin="round"/>
</svg>
