<svg width="17" height="19" viewBox="0 0 17 19" fill="none" xmlns="http://www.w3.org/2000/svg">
<path d="M15.8819 17.1583C15.8711 17.2339 15.8602 17.304 15.8494 17.3687C15.1368 17.3687 14.4403 17.4496 13.8735 17.8219C13.6305 17.9675 13.4362 18.1617 13.2743 18.3883C12.6588 18.0808 12.2701 17.482 11.7519 17.0127C11.1688 16.4948 10.4238 16.1712 9.6464 15.9608C9.51683 15.9284 9.371 15.8961 9.25763 15.799C9.07947 15.6695 8.99853 15.4591 8.88515 15.2811C8.39927 14.5528 7.29791 14.5367 6.58529 14.0026C5.64592 13.3067 5.56499 11.8988 4.77139 11.0249C4.56084 10.7984 4.30172 10.6203 4.13976 10.3614C4.01019 10.151 3.94541 9.90825 3.81584 9.69787C3.68627 9.4713 3.49186 9.29329 3.42707 9.05054C3.36229 8.87252 3.37853 8.66214 3.31375 8.48413C3.23277 8.27375 3.0222 8.12811 2.89264 7.93391C2.6335 7.54552 2.68207 7.02766 2.71446 6.55834C2.73066 6.1214 2.68212 5.61972 2.3582 5.3446C2.342 4.55163 2.24481 3.75866 2.09905 2.96568C2.00187 2.51255 1.88848 2.04324 1.59696 1.67103C1.32162 1.29881 0.868105 1.02371 0.592773 0.667676C1.45116 0.53821 2.32574 0.554377 3.10315 0.894224C3.63762 1.12079 4.1073 1.49299 4.56079 1.84902C5.02508 2.21584 5.48938 2.58266 5.95366 2.94948C6.13182 3.07895 6.30997 3.22459 6.52052 3.3055C6.81205 3.41879 7.136 3.38645 7.44373 3.3379C7.5409 3.3379 7.63809 3.30554 7.70288 3.25699C7.78386 3.20844 7.83238 3.12751 7.88097 3.0466C8.05913 2.73912 8.20492 2.39925 8.39927 2.09176C8.49645 1.95151 8.59901 1.82206 8.70698 1.70338C8.99851 1.89758 9.33867 2.02705 9.6464 2.18888C9.98651 2.3669 10.278 2.60966 10.5533 2.85241C11.7194 3.85576 12.9341 4.90765 13.6305 6.26704C13.5496 6.882 14.1651 6.99528 14.5052 7.31894C14.7805 7.57788 14.8777 7.99866 14.8129 8.35469C14.7481 8.72691 14.5538 9.06674 14.3108 9.35804C14.0355 9.68171 13.7116 9.9568 13.5172 10.3452C13.3391 10.7012 13.3229 11.122 13.3391 11.5104C13.3714 12.6594 13.744 13.857 14.57 14.6499C14.9263 14.9898 15.3636 15.2649 15.6227 15.6856C15.898 16.1064 15.9466 16.6567 15.8819 17.1583Z" fill="#F1F1F1" stroke="#BABABA" stroke-width="1.18548" stroke-linecap="round" stroke-linejoin="round"/>
</svg>
