<svg width="36" height="23" viewBox="0 0 36 23" fill="none" xmlns="http://www.w3.org/2000/svg">
<path d="M34.4318 7.15739C34.367 7.28686 34.286 7.43251 34.1564 7.52961C34.0107 7.61053 33.8487 7.6267 33.6706 7.64289C32.9471 7.68604 32.2183 7.68604 31.4841 7.64289C31.4031 7.6267 31.3221 7.62672 31.2412 7.65909C31.0306 7.74 31.0144 8.0475 31.1278 8.2417C31.2573 8.41971 31.4679 8.51681 31.6461 8.64628C31.8404 8.75956 32.0186 8.93757 32.0347 9.16413C32.0509 9.40688 31.8566 9.61724 31.6461 9.7467C31.4193 9.90853 31.144 10.038 30.8848 10.1513C30.7445 10.216 30.6042 10.2808 30.4638 10.3455C29.9455 10.3779 29.4272 10.4102 28.909 10.4426C28.7956 10.4426 28.666 10.4588 28.5526 10.4102C28.4068 10.3455 28.3259 10.216 28.2125 10.1189C27.8076 9.73053 27.1598 9.79527 26.6091 9.84382C25.9613 9.90855 25.3134 9.90857 24.6656 9.86002C23.7586 9.79528 22.6735 9.73052 22.1714 10.4749C21.8151 10.9928 21.9446 11.7049 21.9123 12.3522C21.8475 13.2585 21.4264 14.1324 20.7462 14.715C20.6166 14.8283 20.487 14.9253 20.3898 15.0548C20.2603 15.2328 20.2279 15.4756 20.1631 15.686C20.0174 16.2847 19.7582 16.835 19.4991 17.3852C19.3479 17.6981 19.1968 18.0109 19.0456 18.3238C18.7541 18.9388 18.4139 19.6023 17.7661 19.8288C17.1344 20.0392 16.3733 19.7479 15.7902 20.0878C15.5797 20.2011 15.4177 20.3953 15.2071 20.4924C14.8346 20.6542 14.3973 20.5409 14.0572 20.3305C13.7009 20.1363 13.3932 19.8612 13.0207 19.7156C12.4052 19.4566 11.6926 19.5537 11.0286 19.7156C10.6885 19.8127 10.3159 19.9421 10.0892 20.2173C9.95961 20.3791 9.87863 20.5895 9.76526 20.7837C9.34416 21.4148 8.55058 21.5604 7.83795 21.5766C7.2549 21.609 6.67187 21.5119 6.08882 21.5281C5.52196 21.5604 5.08465 21.8194 4.53399 21.9489C3.80517 22.1431 3.41648 21.5119 2.9306 21.0911C2.44472 20.6704 1.9102 20.282 1.42432 19.8612C1.21378 19.6832 1.00321 19.489 0.841253 19.2624C0.679293 19.0359 0.565921 18.7607 0.598313 18.4856C0.614509 18.162 0.825073 17.8707 0.938445 17.5632C0.970837 17.5848 0.99783 17.6064 1.01943 17.6279C1.14899 17.7466 1.25697 17.8707 1.34334 18.0001C1.42432 18.1134 1.48909 18.2429 1.57007 18.3238C1.65105 18.4047 1.73205 18.4533 1.82922 18.5018C2.36369 18.8093 3.01155 18.9226 3.627 18.8578C3.72417 18.8417 3.83753 18.8255 3.9347 18.8578C4.01568 18.8902 4.0805 18.955 4.12909 19.0035C4.40982 19.2732 4.6905 19.543 4.97123 19.8127C5.03602 19.8774 5.10086 19.9583 5.19804 19.9745C5.29521 19.9907 5.37613 19.9421 5.45711 19.9098C5.74864 19.7156 5.86204 19.3433 5.89443 18.9873C5.91063 18.6313 5.86204 18.2753 5.89443 17.9354C5.97541 17.2719 6.41271 16.7055 6.78521 16.1715C7.09294 15.9934 7.36825 15.7669 7.5788 15.4756C7.67598 15.3623 7.75701 15.2167 7.87038 15.1196C8.09712 14.893 8.42101 14.7959 8.72873 14.7311C9.40896 14.5855 10.1378 14.6179 10.8342 14.5369C11.5306 14.4722 12.2594 14.2618 12.7453 13.744C12.8749 13.6145 12.9721 13.4689 13.0692 13.3232C13.2636 13.0643 13.4417 12.8053 13.6361 12.5464C13.9114 12.1904 14.2029 11.8667 14.5269 11.5754C15.1099 10.8472 15.7578 10.1351 16.3571 9.40688C16.5838 9.11558 16.8591 8.80808 17.2316 8.77571C17.7337 8.74334 18.1386 8.54915 18.3491 8.45205C18.8026 8.27403 18.8998 8.03129 19.2561 7.69144C19.58 7.36778 20.0335 7.73999 20.2927 7.4487C20.649 7.02793 21.1835 7.07649 21.4588 6.60718C21.6046 6.34825 21.6207 6.02459 21.7665 5.76566C22.0256 5.2478 22.6573 5.02121 23.0136 4.56808C23.4023 4.09877 23.4347 3.40291 23.8396 2.9336C24.0015 2.75559 24.2121 2.62612 24.3903 2.44811C24.5846 2.22154 24.7141 1.96261 24.8923 1.71986C25.2648 1.23437 25.8479 0.667931 26.4633 0.603198C27.095 0.522282 27.759 0.926886 28.2611 1.31528C28.7146 1.67131 29.2005 2.1568 29.6054 2.6423C29.7511 2.86886 29.6863 3.09542 29.6863 3.32198C29.6863 3.6942 29.9455 4.03404 30.2694 4.21206C30.6095 4.40626 30.982 4.47098 31.3707 4.48716C31.5327 4.50335 31.7108 4.50337 31.8728 4.55192C32.0671 4.61665 32.2291 4.72994 32.4073 4.84323C32.958 5.19926 33.6058 5.39343 34.2374 5.58763C34.3832 5.63618 34.5128 5.71712 34.6423 5.81422C34.7395 5.87895 34.8691 6.0246 34.8853 6.13788C34.9177 6.5101 34.61 6.83373 34.4318 7.15739Z" fill="#F1F1F1" stroke="#BABABA" stroke-width="1.18548" stroke-linecap="round" stroke-linejoin="round"/>
</svg>
