<svg width="5" height="8" viewBox="0 0 5 8" fill="none" xmlns="http://www.w3.org/2000/svg">
<path d="M3.44328 4.38212C3.32991 4.93235 3.67003 5.51493 3.52426 6.06516C3.44328 6.32409 3.28136 6.56685 3.31375 6.8096C3.30295 6.8096 3.28671 6.8096 3.26511 6.8096C2.97358 6.84197 2.66584 6.87433 2.35812 6.84196C2.0504 6.82578 1.7427 6.72868 1.49976 6.56685C1.14345 6.30792 0.932889 5.87097 0.754733 5.46639C0.706145 5.35311 0.641393 5.23985 0.625197 5.12656C0.592805 5.01328 0.592773 4.88379 0.592773 4.7705C0.706145 4.78669 0.835761 4.70577 0.884349 4.60867C0.965329 4.44684 0.949117 4.26885 0.949117 4.10702C0.949117 3.75099 1.03005 3.39496 1.2244 3.10367C1.32158 2.95802 1.43501 2.84473 1.53219 2.69909C1.74274 2.40779 1.82368 2.03555 1.82368 1.66334C1.82368 1.50151 1.80747 1.33969 1.88845 1.19404C1.93704 1.12931 2.00184 1.06456 2.06662 1.01601C2.1638 0.918911 2.26636 0.827214 2.37433 0.740904C2.45531 0.692354 2.5201 0.611454 2.61727 0.595271C2.74684 0.579088 2.87646 0.643789 2.98983 0.724705C3.58908 1.24257 3.71865 2.11648 3.71865 2.89328C3.71865 3.23312 3.70242 3.57295 3.60524 3.88043C3.55666 4.04226 3.47568 4.20411 3.44328 4.38212Z" fill="#F1F1F1" stroke="#BABABA" stroke-width="1.18548" stroke-linecap="round" stroke-linejoin="round"/>
</svg>
