<svg width="22" height="17" viewBox="0 0 22 17" fill="none" xmlns="http://www.w3.org/2000/svg">
<path d="M21.1959 13.7761C20.9853 14.6824 20.71 15.6534 20.1593 16.3492C19.9974 15.7828 19.22 15.7019 18.6531 15.8961C18.1024 16.0903 17.5518 16.4302 16.9687 16.3169C16.7258 16.2683 16.499 16.1227 16.2399 16.0903C15.9322 16.0579 15.5921 16.1874 15.3005 16.0741C15.09 15.977 14.9604 15.7667 14.7823 15.621C14.3612 15.265 13.7781 15.2326 13.2274 15.2164C13.1411 15.2164 13.0547 15.2164 12.9683 15.2164C12.1045 15.1948 11.2353 15.1787 10.3608 15.1679C9.21084 15.1355 8.06092 15.1193 6.911 15.2326C5.98783 15.3297 5.04847 15.5239 4.1253 15.5886C3.3155 15.6534 2.5057 15.6372 1.6959 15.5724C1.66351 14.9575 1.66352 14.3425 1.82548 13.7437C1.90646 13.4201 2.03604 13.1126 2.08463 12.7889C2.2142 11.8827 1.72829 10.9764 1.6959 10.054C1.6959 9.84362 1.7121 9.63321 1.66352 9.42283C1.61493 9.21245 1.22622 8.71078 1.01568 8.66223C0.950892 8.33857 0.562173 7.46469 0.594565 7.14103C0.626957 6.785 0.643176 6.41276 0.821332 6.10528C0.934704 5.91108 1.08048 5.76544 1.19385 5.58742C1.372 5.31231 1.46916 5.00484 1.66352 4.74591C1.89026 4.47079 2.21419 4.26041 2.35995 3.93675C2.42474 3.75873 2.44092 3.58071 2.5057 3.40269C2.65146 3.04666 2.99157 2.78772 3.02396 2.4155C3.07255 2.17276 2.95921 1.93001 2.89443 1.68726C2.84044 1.50385 2.80803 1.32046 2.79724 1.13705C2.97539 1.12086 3.15356 1.15324 3.33171 1.1856C5.42099 1.49309 7.54267 0.198406 9.56717 0.716268C10.2474 0.894283 10.879 1.26653 11.3487 1.80057C11.4945 1.94622 11.6241 2.10805 11.8022 2.23751C12.0452 2.39934 12.3529 2.4317 12.6282 2.51262C13.2922 2.69063 13.8753 3.0952 14.2964 3.62924C14.5231 3.90436 14.7013 4.22804 14.8956 4.53552C15.3977 5.37704 15.997 6.17 16.6772 6.86588C17.0659 7.27046 17.4708 7.65887 17.7623 8.12818C17.7731 8.14976 17.7893 8.17136 17.8109 8.19293C17.9081 8.37095 17.9891 8.53277 18.0701 8.71079C18.2968 9.21247 18.5236 9.71415 18.6045 10.2482C18.6855 10.9279 18.5721 11.7694 19.139 12.174C19.7382 12.5947 20.8234 12.2225 21.1797 12.8699C21.3254 13.145 21.2607 13.4848 21.1959 13.7761Z" fill="#F1F1F1" stroke="#BABABA" stroke-width="1.18548" stroke-linecap="round" stroke-linejoin="round"/>
</svg>
