<svg width="23" height="31" viewBox="0 0 23 31" fill="none" xmlns="http://www.w3.org/2000/svg">
<path d="M22.735 17.7988C22.3868 13.265 20.2759 10.4238 18.4137 7.91664C16.6893 5.59555 15.2 3.59117 15.2 0.634418C15.2 0.396918 15.067 0.179843 14.8561 0.0710087C14.6445 -0.0384788 14.3904 -0.0205475 14.198 0.119221C11.4012 2.12051 9.06769 5.49355 8.25253 8.71191C7.68663 10.9525 7.61176 13.4715 7.60125 15.1351C5.01843 14.5834 4.43335 10.72 4.42718 10.6779C4.39808 10.4775 4.27565 10.3032 4.09753 10.2079C3.91756 10.1139 3.70601 10.1071 3.52355 10.1974C3.38812 10.263 0.199144 11.8833 0.0135967 18.3529C0.000593529 18.5681 0 18.784 0 18.9998C0 25.2851 5.11427 30.399 11.4 30.399C11.4087 30.3996 11.4179 30.4009 11.4254 30.399C11.4278 30.399 11.4303 30.399 11.4334 30.399C17.7037 30.3811 22.8 25.274 22.8 18.9998C22.8 18.6838 22.735 17.7988 22.735 17.7988ZM11.4 29.1325C9.30454 29.1325 7.6 27.3167 7.6 25.0847C7.6 25.0087 7.59941 24.932 7.60493 24.838C7.63028 23.8967 7.80906 23.2542 8.00512 22.8268C8.37253 23.6159 9.02934 24.3414 10.0962 24.3414C10.4463 24.3414 10.7296 24.0581 10.7296 23.7081C10.7296 22.8064 10.7482 21.7662 10.9727 20.8273C11.1725 19.9949 11.6499 19.1092 12.2548 18.3993C12.5239 19.3208 13.0484 20.0666 13.5605 20.7945C14.2934 21.836 15.051 22.9127 15.184 24.7489C15.192 24.8578 15.2001 24.9672 15.2001 25.0847C15.2 27.3167 13.4955 29.1325 11.4 29.1325Z" fill="white"/>
</svg>
