<svg width="18" height="17" viewBox="0 0 18 17" fill="none" xmlns="http://www.w3.org/2000/svg">
<path d="M16.3748 4.30855C16.4396 4.59985 16.553 4.87499 16.6178 5.18247C16.0887 6.17504 15.565 7.173 15.0467 8.17636C14.1397 9.90796 13.2328 11.6395 12.3906 13.4035C12.1962 13.8243 12.0019 14.2774 12.0019 14.7467C12.0019 14.8222 12.0073 14.8924 12.0181 14.9571C11.4836 15.0704 10.9653 15.216 10.4471 15.3293C9.4753 15.5235 8.40638 15.5721 7.548 15.0866C7.28886 14.9571 7.0621 14.7791 6.80296 14.6496C6.28469 14.3907 5.68546 14.3583 5.1186 14.3421C4.50315 14.3206 3.89313 14.299 3.28848 14.2774C3.07793 14.2612 2.85114 14.2612 2.67299 14.1317C2.25189 13.8728 2.33292 13.2417 2.15476 12.7886C1.89563 12.1251 1.0696 11.8176 0.745679 11.1702C0.567523 10.8142 0.567491 10.4258 0.632275 10.0374C0.842823 10.1183 1.10201 10.1183 1.32875 10.0374C1.71745 9.92414 2.04133 9.64903 2.41383 9.47101C3.23983 9.06643 4.22783 9.1635 5.13481 9.27678C5.36155 9.29297 5.60451 9.32533 5.79886 9.43861C5.94462 9.53571 6.058 9.649 6.20376 9.72992C6.41431 9.8432 6.67343 9.84319 6.91637 9.84319C7.53182 9.82701 8.26062 9.76229 8.60073 9.24442C8.7303 9.06641 8.77892 8.85603 8.8761 8.67801C9.10284 8.27343 9.50773 8.01451 9.83165 7.67466C10.1556 7.351 10.3823 6.83312 10.1394 6.44472C10.026 6.21816 9.75067 6.02396 9.83165 5.7974C9.88023 5.6032 10.0907 5.53848 10.2689 5.48993C10.5388 5.4252 10.8034 5.35506 11.0626 5.27954C11.6618 5.13389 12.2772 4.97207 12.7793 4.59986C13.4595 4.11436 13.832 3.30519 14.1721 2.5284C14.2909 2.29105 14.3989 2.05371 14.4961 1.81636C14.6904 1.41178 14.8847 0.974837 15.2896 0.732089C15.484 0.618807 15.6946 0.57025 15.9051 0.602616C16.5368 0.715898 16.6825 1.46033 16.6015 2.0591C16.5044 2.80353 16.229 3.56412 16.3748 4.30855Z" fill="#F1F1F1" stroke="#BABABA" stroke-width="1.18548" stroke-linecap="round" stroke-linejoin="round"/>
</svg>
