<svg width="24" height="29" viewBox="0 0 24 29" fill="none" xmlns="http://www.w3.org/2000/svg">
<path d="M1.4923 15.5306C1.37893 15.6277 1.24936 15.7409 1.24936 15.7409C0.990228 15.9675 0.731045 16.2426 0.633869 16.5825C0.569085 16.7929 0.569085 17.0356 0.714849 17.2136C0.779633 17.3107 0.876841 17.3754 0.909232 17.4887C0.925428 17.5535 0.909232 17.6182 0.909232 17.6668C0.844449 17.9257 0.747273 18.1523 0.666293 18.395C0.585313 18.6863 0.552889 19.0099 0.714849 19.2689C1.00638 19.4954 1.39511 19.4145 1.71903 19.3012C2.04295 19.188 2.39922 19.0585 2.72314 19.1556C3.01466 19.2527 3.20905 19.5116 3.4034 19.7544C3.43579 19.8191 3.48441 19.8838 3.5168 19.9486C3.5492 20.0618 3.54915 20.1589 3.54915 20.2722C3.53295 20.5635 3.50061 20.8548 3.59778 21.1299C3.64637 21.308 3.7435 21.4536 3.79209 21.6316C3.88926 21.9229 3.87305 22.2466 3.85686 22.5541C3.82446 22.8616 3.79214 23.2014 3.59778 23.4279C3.48441 23.5736 3.30626 23.6707 3.19288 23.8164C2.99853 24.0591 2.99848 24.3828 3.06327 24.6741C3.12805 24.9654 3.27386 25.2405 3.35484 25.5318C3.45202 25.8878 3.46817 26.26 3.54915 26.6322C3.58154 26.8264 3.64631 27.0044 3.77588 27.1663C4.05121 27.5385 4.56951 27.6518 5.023 27.5547C5.47649 27.4414 5.84898 27.1339 6.14051 26.7779C6.36725 26.519 6.54539 26.2438 6.61017 25.9202C6.65876 25.6127 6.59403 25.289 6.57783 24.9654C6.56163 24.6579 6.59404 24.3019 6.83698 24.0915C6.88557 24.0267 6.96655 23.9782 6.99894 23.9134C7.09612 23.7354 6.95031 23.525 6.86933 23.347C6.67497 22.9586 6.75594 22.4731 6.61017 22.0524C6.513 21.8096 6.3511 21.5669 6.43208 21.308C6.46447 21.1623 6.61019 21.049 6.70737 20.9196C6.78835 20.7901 6.85318 20.6121 6.756 20.4826C6.7452 20.0726 6.73438 19.6627 6.72358 19.2527C6.72358 19.1233 6.72355 18.9938 6.69115 18.8481C6.65876 18.7187 6.59401 18.5892 6.56162 18.4436C6.51303 18.2332 6.52921 18.0228 6.54541 17.8124C6.5616 17.5373 6.59403 17.246 6.73979 17.0194C6.98273 16.6796 7.43619 16.5663 7.84109 16.5663C8.08403 16.5663 8.3108 16.5987 8.52135 16.6796C8.7319 16.7767 8.91004 16.9547 8.99102 17.1651C9.08819 17.424 9.00725 17.7153 8.86148 17.9581C8.73191 18.2008 8.52133 18.395 8.34318 18.6054C8.2622 18.6863 8.18119 18.7834 8.14879 18.8967C8.10021 19.0261 8.10025 19.1718 8.11645 19.3012C8.13265 19.4954 8.14884 19.6896 8.27841 19.8353C8.3108 19.9 8.37557 19.9324 8.42416 19.981C8.73188 20.2075 8.97481 20.4988 9.13677 20.8386C9.18535 20.9519 9.23396 21.0814 9.31494 21.1785C9.41211 21.3403 9.59024 21.4536 9.76839 21.5669C10.0113 21.5669 10.2705 21.664 10.4649 21.8258C10.5458 21.8906 10.6268 21.9715 10.6754 22.0848C10.724 22.1981 10.7402 22.3275 10.7564 22.4408C10.8319 22.9047 10.9022 23.3686 10.967 23.8325C10.967 23.8811 10.9831 23.9458 11.0155 23.9782C11.0641 24.0429 11.1451 24.0429 11.2099 24.0591C11.55 24.0915 11.9225 24.1077 12.1817 23.8811C12.3598 23.7354 12.4246 23.5089 12.5379 23.2985C12.6351 23.0881 12.8133 22.8777 13.0562 22.8777C13.2668 22.8777 13.4449 23.0396 13.5583 23.2176C13.7365 23.4765 13.8822 23.784 13.8336 24.0753C13.785 24.4637 13.4773 24.755 13.3477 25.1272C13.2182 25.4347 13.2182 25.7745 13.3477 26.082C13.4125 26.2438 13.5097 26.4057 13.5421 26.5675C13.5583 26.6808 13.5583 26.7779 13.5583 26.8912C13.5907 27.231 13.7688 27.5547 14.0603 27.7489C14.0927 27.7651 14.1413 27.7974 14.1737 27.7974C14.3033 27.8136 14.3843 27.6679 14.4652 27.5547C14.7082 27.1824 15.2103 27.053 15.4694 26.697C15.5828 26.5352 15.6476 26.3571 15.7286 26.1953C15.8149 26.0119 15.9229 25.8446 16.0525 25.6936C16.1173 25.6127 16.1982 25.5318 16.2468 25.4347C16.2954 25.3538 16.3116 25.2567 16.3278 25.1596C16.4249 24.7065 16.4843 24.2533 16.5059 23.8002C16.5059 23.6222 16.506 23.4441 16.4574 23.2661C16.3278 22.9101 15.9391 22.6674 15.5666 22.7159C15.4694 22.5864 15.3669 22.457 15.2589 22.3275C15.2265 22.2952 15.2103 22.2628 15.2103 22.2304C15.2103 22.1819 15.2589 22.1495 15.2912 22.1333C15.5504 21.9553 15.8905 21.8744 16.1497 21.6802C16.4088 21.486 16.5707 21.0976 16.3602 20.8548C16.1658 20.5959 15.761 20.693 15.4856 20.871C15.2103 21.0329 14.9188 21.2594 14.6111 21.2271C14.3195 21.1785 14.1089 20.9519 13.9146 20.7254C13.7202 20.4988 13.5259 20.2399 13.4935 19.9324C13.4773 19.6573 13.6231 19.3822 13.6879 19.107C13.785 18.5406 13.5421 17.958 13.1534 17.5373C13.0077 17.3916 12.8457 17.246 12.7161 17.0841C12.4408 16.7605 12.2626 16.3721 12.0035 16.0484C11.7605 15.7571 11.469 15.5306 11.226 15.2554C10.9831 14.9641 10.7887 14.6243 10.8211 14.2521C10.8373 14.1388 10.8698 14.0093 10.9345 13.9284C11.0155 13.8637 11.0965 13.8151 11.1937 13.7666C11.5338 13.6048 11.9711 13.362 12.3112 13.2002C12.7161 13.0384 13.0724 12.5691 13.4125 12.2939C13.5421 12.1807 13.6717 12.0997 13.785 11.9703C13.8822 11.8732 13.947 11.7599 14.0603 11.679C14.1899 11.5981 14.3519 11.5657 14.4491 11.4362C14.4977 11.4039 14.5138 11.3391 14.5624 11.3068C14.6434 11.2258 14.773 11.242 14.8701 11.323C14.9511 11.3877 14.9997 11.5009 14.9997 11.6142C15.0159 11.7113 14.9997 11.8246 14.9835 11.9379C14.9673 12.0997 14.9673 12.2777 15.0321 12.4234C15.1293 12.6014 15.3237 12.6823 15.5018 12.7632C15.6152 12.828 15.7285 12.8765 15.8419 12.8927C15.9229 12.9089 16.0038 12.9089 16.0848 12.9089C16.5221 12.9251 16.9756 12.9251 17.4129 12.8765C17.4939 12.8603 17.5587 12.828 17.5587 12.828C17.9312 12.7147 17.9474 12.1645 17.7531 11.8246C17.5587 11.4686 17.2348 11.1935 17.1538 10.8051C17.008 10.1739 17.5263 9.4295 17.1214 8.91164C16.8137 8.49087 16.1659 8.60417 15.6638 8.766C14.3249 9.18677 12.9968 9.6291 11.6796 10.093C11.5824 10.1254 11.469 10.1578 11.3719 10.1416C11.2585 10.1092 11.1775 10.0283 11.0803 9.96354C10.6916 9.7208 10.1572 9.89883 9.83324 10.2225C9.50932 10.5462 9.33116 10.9831 9.10442 11.3715C9.03964 11.5009 8.97479 11.6142 8.87761 11.6951C8.50511 12.0026 7.93831 11.7437 7.64678 11.3553C7.37145 10.9831 7.24188 10.4976 6.91796 10.1416C6.49687 9.67226 5.78419 9.47805 5.49267 8.91164C5.3631 8.66889 5.33071 8.37762 5.33071 8.08632C5.3469 7.09914 5.76803 6.09578 6.57783 5.52937C6.75599 5.3999 6.9665 5.2866 7.19325 5.27042C7.54956 5.23805 7.88966 5.43226 8.22977 5.56173C8.76424 5.75592 9.36356 5.77209 9.91422 5.62644C10.1572 5.56171 10.4001 5.44843 10.643 5.43225C10.9994 5.39989 11.3395 5.52935 11.6796 5.59408C12.214 5.675 12.7485 5.61027 13.2992 5.56173C14.1576 5.49699 15.0483 5.51319 15.8581 5.82067C16.1334 5.91777 16.3926 6.0634 16.6841 6.12814C16.9918 6.20905 17.332 6.20905 17.6559 6.20905C18.4117 6.19826 19.1621 6.19285 19.9071 6.19285C20.0691 6.19285 20.2472 6.17669 20.3768 6.09578C20.5225 6.01486 20.5874 5.83685 20.6683 5.6912C20.9923 5.04387 21.4458 4.47744 21.9802 4.00812C22.2232 3.79774 22.4823 3.60356 22.6928 3.37699C23.1625 2.85913 23.373 2.09851 23.2111 1.41881C23.1301 1.03042 22.8548 0.609677 22.4499 0.593494C22.126 0.577311 21.8668 0.836234 21.7049 1.11135C21.5267 1.38646 21.4296 1.71012 21.2352 1.95287C20.8465 2.43836 20.1176 2.64877 19.8909 3.23136C19.8909 3.23136 19.8585 3.31226 19.8261 3.37699C19.7937 3.44173 19.7614 3.49027 19.7614 3.49027C19.6642 3.70065 19.3727 3.73302 19.1459 3.73302C18.6924 3.7492 18.2389 3.74919 17.8178 3.60354C17.6397 3.53881 17.4616 3.44174 17.2834 3.39319C17.0243 3.31228 16.7651 3.32845 16.5059 3.34464C16.1928 3.377 15.8851 3.42554 15.5828 3.49027C15.2265 3.57119 14.8378 3.68449 14.4814 3.55503C14.2547 3.47411 14.0604 3.29607 13.866 3.16661C13.0562 2.64874 12.0035 2.92385 11.0803 2.71347C10.1409 2.50309 9.29873 1.74251 8.32697 1.85579C8.13261 1.87197 7.93828 1.93668 7.77632 2.06614C7.37142 2.3898 7.38763 3.05333 6.98273 3.37699C6.61022 3.66829 6.01097 3.61975 5.76803 3.99196C5.36313 3.94341 5.02297 4.25089 4.82862 4.59073C4.63426 4.88203 4.5371 5.22189 4.35895 5.52937C4.18079 5.80448 3.9541 6.0472 3.84072 6.35469C3.64637 6.84018 3.77589 7.4066 3.79209 7.94065C3.80828 8.31286 3.75971 8.68506 3.64634 9.02491C3.53297 9.34858 3.38724 9.65607 3.19288 9.93119C3.01473 10.1739 2.80413 10.4005 2.65837 10.6756C2.23727 11.4848 2.46405 12.4881 2.20491 13.362C2.14013 13.5886 2.04292 13.799 2.01053 14.0417C1.99433 14.2359 2.01051 14.4463 1.99432 14.6405C1.96192 14.9965 1.76764 15.3202 1.4923 15.5306Z" fill="#F1F1F1" stroke="#BABABA" stroke-width="1.18548" stroke-linecap="round" stroke-linejoin="round"/>
</svg>
