<svg width="40" height="42" viewBox="0 0 40 42" fill="none" xmlns="http://www.w3.org/2000/svg">
<path d="M0.695483 2.17471C0.760266 2.27181 0.873638 2.33652 0.938422 2.43362C1.06799 2.61163 1.03557 2.85441 1.06796 3.06479C1.10035 3.35609 1.26234 3.5988 1.4243 3.84155C1.55387 4.03575 1.68345 4.22997 1.84541 4.3918C2.00737 4.55363 2.20169 4.68309 2.37985 4.82874C2.81714 5.20095 3.14106 5.70262 3.59455 6.07484C4.25859 6.64125 5.18176 6.86784 5.78101 7.51517C6.50983 7.88738 7.2872 8.34048 7.61112 9.10109C7.67591 9.26292 7.72454 9.45713 7.82172 9.60278C8.08086 9.975 8.61531 10.0559 8.93923 10.3796C9.19836 10.6223 9.29557 10.9783 9.45753 11.2858C9.91102 12.1112 10.8342 12.5481 11.482 13.2116C11.7088 13.4544 11.9193 13.7133 12.1137 13.9884C12.5348 14.5603 12.9558 15.132 13.3769 15.7038C14.0895 15.9951 14.2353 16.8367 14.2353 17.5487C14.2515 18.2123 14.2191 18.9405 14.624 19.4745C14.9156 19.8467 15.3853 20.0409 15.774 20.3161C16.5028 20.8501 16.9401 21.6916 17.4745 22.4361C17.8794 22.9701 18.3329 23.4556 18.7864 23.9411V24.0705C19.3046 25.0254 19.4828 26.1582 20.082 27.0644C20.406 27.5499 20.8271 27.9545 21.151 28.44C21.3939 28.8446 21.5721 29.2815 21.7826 29.7023C22.2847 30.7057 23.046 31.5634 23.7748 32.4049C24.6817 33.6024 25.5887 34.8 26.7224 35.771C28.2934 37.0818 30.2856 37.9072 31.6298 39.4446C31.9538 39.8168 32.2453 40.2214 32.6016 40.545C32.9741 40.8525 33.4437 41.0953 33.9296 41.0629C34.1564 41.0467 34.3669 40.9658 34.5775 40.9011C35.4035 40.6745 36.2781 40.7069 37.0717 40.9982C37.4442 41.1276 37.8329 41.2895 38.173 41.1277C38.5941 40.9335 38.6589 40.367 38.6589 39.8977C38.6481 39.3043 38.6211 38.7109 38.5779 38.1176C38.5617 37.7454 38.5455 37.357 38.4159 37.0009C38.3188 36.6935 38.1406 36.4183 38.0435 36.1109C37.9301 35.7225 37.9301 35.3179 37.9301 34.9133C37.9301 34.444 37.9462 33.9585 38.0596 33.4892C38.1406 33.2141 38.2539 32.9552 38.3025 32.68C38.3349 32.4697 38.335 32.2431 38.335 32.0327C38.3188 31.4339 38.2864 30.8028 38.011 30.2849C37.8329 29.9127 37.5252 29.6052 37.1527 29.4272C36.9745 29.2815 36.7316 29.2006 36.4886 29.1845C36.1647 29.1359 35.8246 29.1844 35.5007 29.1683C35.3873 29.1683 35.2901 29.1521 35.2092 29.1035C35.0634 29.0226 34.9986 28.8446 34.9824 28.6666C34.95 28.5048 34.9662 28.3267 34.9176 28.1649C34.869 27.9707 34.707 27.7927 34.5127 27.6956C34.3183 27.6147 34.0754 27.6147 33.9296 27.4852C33.7515 27.3234 33.7353 27.0644 33.7353 26.8217C33.7461 26.4225 33.7515 26.0233 33.7515 25.6241C33.7515 25.4785 33.7515 25.349 33.7029 25.2196C33.6219 24.993 33.3952 24.8636 33.1847 24.7503C32.9255 24.61 32.6609 24.4752 32.391 24.3457C32.2614 24.281 32.1319 24.2162 31.9861 24.1839C31.8565 24.1677 31.7108 24.1838 31.5812 24.1677C31.2087 24.1191 30.8524 23.8602 30.4961 23.9573C30.0912 23.6012 29.913 23.0348 29.913 22.5008C29.913 21.9991 30.0588 21.5136 30.2045 21.0281C30.3503 20.5912 30.4961 20.0895 30.2694 19.6849C30.075 19.3127 29.5891 19.1509 29.168 19.2156C28.9899 19.2318 28.8279 19.2803 28.6659 19.2641C28.4878 19.2318 28.3259 19.1023 28.3259 18.9405C28.3259 18.811 28.423 18.7139 28.504 18.6168C28.8117 18.2446 28.9575 17.7429 28.8441 17.2736C28.8279 17.2089 28.8117 17.1603 28.7631 17.128C28.7145 17.0956 28.6659 17.0794 28.6174 17.0794C28.2449 17.047 27.8562 17.0147 27.5161 17.1442C27.3703 17.2089 27.2245 17.2898 27.0787 17.3384C26.8682 17.3869 26.6577 17.3869 26.4471 17.3707C26.3661 17.3707 26.3013 17.3707 26.2365 17.3222C26.1555 17.2736 26.107 17.1927 26.0584 17.1118C25.9774 16.9823 25.8478 16.869 25.6859 16.7881C25.5887 16.7396 25.4915 16.691 25.3944 16.6263C25.3458 16.5777 25.2972 16.513 25.281 16.4483C24.9571 15.9952 24.6277 15.542 24.293 15.0889C23.9529 14.6357 23.5966 14.1503 23.0945 13.8913C22.4791 13.5677 21.734 13.6162 21.07 13.7781C20.9566 13.8104 20.8433 13.8428 20.7299 13.8266C20.4707 13.7942 20.2927 13.5677 20.1469 13.3573C19.877 12.9905 19.607 12.6183 19.3371 12.2407C19.1913 12.0141 19.0293 11.7875 18.835 11.6095C18.6568 11.4477 18.4787 11.302 18.2843 11.1725C17.6527 10.687 17.0535 10.1692 16.5028 9.60278C15.9953 9.2036 15.4824 8.80443 14.9642 8.40524C14.6564 8.16249 14.3325 7.90353 13.96 7.72552C13.5713 7.5475 13.134 7.45042 12.7938 7.1753C12.5509 6.96492 12.3889 6.68982 12.227 6.4147C11.8167 5.72422 11.4064 5.03914 10.9962 4.35944C10.5912 3.67975 10.1539 2.96769 9.44132 2.66021C8.98783 2.44983 8.46954 2.43362 7.96747 2.43362C7.21166 2.41204 6.45584 2.39585 5.70003 2.38506C5.31132 2.36888 4.92262 2.36891 4.56631 2.25563C3.99945 2.0938 3.52977 1.67302 3.27063 1.15516C3.20585 1.0257 3.14108 0.88004 3.0439 0.782941C2.91433 0.653476 2.71997 0.621093 2.54181 0.60491C2.02354 0.556361 1.48909 0.653468 1.0194 0.896216C0.82505 0.993315 0.598307 1.25224 0.938422 1.41407C0.582111 1.49499 0.501131 1.93196 0.695483 2.17471Z" fill="#F1F1F1" stroke="#BABABA" stroke-width="1.18548" stroke-linecap="round" stroke-linejoin="round"/>
</svg>
