<svg width="70" height="59" viewBox="0 0 70 59" fill="none" xmlns="http://www.w3.org/2000/svg">
<path d="M68.5947 50.1269C68.5947 50.5153 68.4489 50.9361 68.1088 51.1303C67.882 51.2597 67.6068 51.2759 67.3476 51.2921C66.6674 51.3245 65.9871 51.4378 65.3393 51.6805C64.7076 51.9394 64.1246 52.344 63.7197 52.8943C63.4119 53.315 63.2176 53.8005 63.0395 54.286C62.9585 54.4964 62.8775 54.6906 62.8451 54.901C62.7803 55.1761 62.7965 55.435 62.7803 55.7101C62.7479 56.2927 62.6183 56.8591 62.6021 57.4417C62.262 57.5064 61.922 57.5226 61.5818 57.4903C60.3185 57.3284 59.282 56.228 58.0187 56.1633C56.885 56.1147 55.8484 56.8915 54.7309 56.9724C54.1154 57.0048 53.5 56.8268 52.998 56.4869C52.7874 56.3413 52.6092 56.1795 52.3825 56.0985C52.1881 56.0176 51.9614 56.0014 51.7508 55.9852C50.9572 55.969 50.1475 55.9852 49.3701 55.8396C48.5765 55.6778 47.799 55.3379 47.3131 54.7068C46.7787 54.0594 46.6329 53.1856 46.4548 52.3764C46.552 51.2112 45.9041 50.0136 44.8837 49.4472C44.7218 49.3663 44.5436 49.2854 44.3654 49.334C44.1711 49.3663 44.0253 49.5605 43.8796 49.7223C43.4099 50.2726 42.8107 50.7095 42.1466 50.9846C41.5312 51.2274 40.8833 51.3406 40.2355 51.4539C39.8252 51.5187 39.4095 51.5834 38.9884 51.6482C38.0005 51.81 36.9639 51.9718 36.0084 51.7129C35.4739 51.5672 35.0042 51.3083 34.5345 51.0494C32.9797 50.1593 31.5221 49.1236 30.1616 47.9745C29.9025 47.7642 29.6271 47.5214 29.3032 47.4243C29.0602 47.3596 28.8173 47.3596 28.5744 47.3111C28.1856 47.2463 27.8455 47.0359 27.5216 46.8256C27.0357 46.5235 26.5661 46.1998 26.1126 45.8546C25.7401 45.5633 25.3838 45.2396 25.1571 44.8188C24.655 43.9126 24.9465 42.6341 24.2663 41.8735C24.1853 41.4204 23.6832 41.3557 23.3431 41.1291C22.9544 40.854 22.7762 40.3685 22.679 39.8991C22.598 39.4298 22.5819 38.9443 22.3875 38.4912C22.3227 38.3294 22.2256 38.1675 22.0636 38.0704C21.8855 37.9733 21.6749 37.9734 21.4643 37.9734C21.1404 37.9895 20.8003 38.0219 20.5412 38.2161C20.4278 38.3132 20.3306 38.4265 20.2011 38.475C20.1039 38.5236 20.0067 38.5236 19.8934 38.5236C19.7422 38.5236 19.591 38.5182 19.4398 38.5074C19.3588 38.5074 19.2779 38.5074 19.1969 38.475C19.0835 38.4103 19.0187 38.2808 18.9377 38.1514C18.7596 37.8439 18.4843 37.5688 18.1604 37.3908C18.1118 37.3584 18.0632 37.326 17.9984 37.326C17.9012 37.326 17.8203 37.4069 17.7879 37.504C17.7555 37.6011 17.7392 37.6982 17.7392 37.7953C17.6907 38.0543 17.5935 38.3132 17.4315 38.5236C17.3668 38.5883 17.302 38.6692 17.221 38.6854C17.1562 38.7178 17.0914 38.7178 17.0266 38.7178H16.8809C16.2978 38.0381 15.731 37.3422 15.2451 36.5978C14.824 35.9505 14.4677 35.2708 14.1276 34.5749C13.7875 33.8628 13.4635 33.0051 13.836 32.3092C13.9494 32.0989 14.1276 31.8885 14.0628 31.6619C14.0466 31.5486 13.9494 31.4515 13.8684 31.3544C13.2962 30.7395 12.7293 30.1245 12.1678 29.5095C11.1475 28.4091 9.99756 27.2439 8.50753 27.0659C8.39416 27.0497 8.2808 27.0335 8.19982 26.985C7.85971 26.7908 8.03788 26.2891 8.05407 25.9007C8.07027 25.3343 7.64919 24.865 7.17951 24.5575C6.72602 24.25 6.19153 24.0234 5.78663 23.635C5.1064 23.0039 4.91203 21.9358 5.20356 21.0457C5.47889 20.1557 6.15911 19.4436 6.96891 18.9743C7.43859 18.7153 8.0217 18.3917 7.98931 17.8577C7.97311 17.6796 7.89213 17.534 7.82735 17.3722C7.71397 17.0161 7.71394 16.6115 7.63296 16.2231C7.55198 15.8509 7.32521 15.4625 6.9527 15.3493C6.70976 15.2845 6.43447 15.3654 6.19153 15.3169C5.81903 15.236 5.55986 14.9123 5.34931 14.6048C4.83104 13.828 4.39375 12.9865 4.05363 12.1126L3.74592 11.4329C3.55157 10.8665 3.29245 10.3325 2.95234 9.84697C2.6932 9.49094 2.41782 9.1511 2.0939 8.84362C1.73759 8.51996 1.33269 8.19629 1.20312 7.74316C0.927789 6.85308 1.73759 5.96301 1.60802 5.04057C1.49465 4.31233 0.814417 3.77825 0.636261 3.06619C0.474301 2.37031 0.798237 1.67445 1.05737 1.01093C1.05737 1.01093 1.06279 1.01093 1.07358 1.01093C1.3975 0.956991 1.72684 0.886856 2.06156 0.800545C2.49885 0.687263 2.96852 0.525455 3.422 0.622554C3.8269 0.719653 4.16705 1.01095 4.50717 1.26988C5.1658 1.80932 5.86222 2.3056 6.59643 2.75873C6.92035 2.96911 7.29281 3.16331 7.68152 3.16331C8.11881 3.16331 8.50756 2.92054 8.86387 2.66161C8.95025 2.59688 9.04198 2.52678 9.13916 2.45126C9.59265 2.11142 10.0462 1.73918 10.5645 1.49643C11.1799 1.20513 11.9411 1.09185 12.5565 1.41551C12.8804 1.59353 13.1396 1.88484 13.3988 2.15996C14.5325 3.35751 15.8443 4.37706 17.2858 5.2024C17.3182 5.4937 17.3668 5.76878 17.464 6.06008C17.7879 7.03107 18.6138 7.82407 19.5856 8.14774C20.201 8.34194 20.8489 8.3743 21.4481 8.63323C22.2255 8.97308 22.7762 9.66896 23.4078 10.2516C24.9303 11.6757 27.1168 12.3715 29.2061 12.0964C30.7933 11.886 32.3318 11.1416 33.919 11.2873C34.5021 11.352 35.2148 11.4491 35.5225 10.9636C35.5873 10.8665 35.625 10.764 35.6358 10.6561C36.0731 10.7856 36.5914 10.6723 36.8992 10.3325C37.1259 10.0735 37.2393 9.73367 37.385 9.42619C37.709 8.73032 38.2596 8.14771 38.794 7.59749C39.2151 7.16054 39.6686 6.70741 40.2679 6.54558C41.3368 6.25428 42.6001 7.03108 43.5556 6.4323C43.8472 6.25429 44.0578 5.963 44.3331 5.75262C44.9485 5.25094 45.9041 5.2024 46.5843 5.63934C47.1998 6.04392 47.5399 6.77217 48.1554 7.17675C48.5603 7.43568 49.0299 7.53278 49.4996 7.62988C49.7803 7.68383 50.0611 7.74314 50.3418 7.80787C51.7185 8.08299 53.1275 8.39049 54.3422 9.11873C54.9252 9.47476 55.4435 9.91168 55.8808 10.4295C56.3019 10.915 56.642 11.4815 57.1927 11.8213C57.8405 12.2097 58.6341 12.323 59.3792 12.323H60.108C60.6424 12.3392 61.015 12.3715 61.2579 12.7599C61.5009 13.1322 61.5332 13.6015 61.5494 14.0384C61.571 14.772 61.5333 15.5003 61.4361 16.2231C61.2579 17.712 60.8368 19.1685 60.2214 20.544C60.0918 20.803 59.9622 21.0781 59.7355 21.2723C59.6059 21.3856 59.444 21.4665 59.3306 21.5959C59.0715 21.8711 59.039 22.2756 59.039 22.6479C59.0174 23.4354 58.9959 24.223 58.9743 25.0106C58.9743 25.1832 58.9743 25.3613 58.9743 25.5447C58.9581 26.014 58.9418 26.4833 59.0228 26.9364C59.1686 27.7456 59.5735 28.5062 59.7031 29.3315C59.8003 29.9141 59.7193 30.5129 59.7841 31.1117C59.8326 31.6943 60.0108 32.3254 60.4967 32.6814C61.3551 33.3449 62.9099 32.9889 63.3472 33.9599C63.5415 34.3807 63.412 34.8824 63.2014 35.2869C62.9747 35.6915 62.6507 36.0314 62.4402 36.436C62.2944 36.6949 62.1973 36.9538 62.0353 37.1966C61.76 37.6011 61.2903 37.8601 60.9826 38.2485C60.61 38.6854 60.4643 39.3165 60.5777 39.8829C60.6424 40.1904 60.7559 40.4818 60.9502 40.7245C61.1608 40.9834 61.4361 41.1938 61.6628 41.4366C62.0515 41.8249 62.3269 42.3105 62.6346 42.7474C63.3634 43.7508 64.3514 44.5599 65.4851 45.0616C66.0358 45.3043 66.7645 45.5956 66.7483 46.2753L66.6998 46.9388C66.6998 47.133 66.6944 47.3272 66.6836 47.5214C66.6674 47.8127 66.6673 48.1202 66.7969 48.3791C67.0398 48.8484 67.623 48.9941 68.0764 49.2692C68.2546 49.3663 68.4165 49.4958 68.5137 49.69C68.5785 49.8194 68.5947 49.9813 68.5947 50.1269Z" fill="#F1F1F1" stroke="#BABABA" stroke-width="1.18548" stroke-linecap="round" stroke-linejoin="round"/>
</svg>
