<svg width="75" height="62" viewBox="0 0 75 62" fill="none" xmlns="http://www.w3.org/2000/svg">
<path d="M74.0119 40.9531C73.8013 41.212 73.5098 41.3739 73.2993 41.6166C73.0239 41.9403 72.9268 42.3934 72.8458 42.8142C72.6029 44.2383 72.3923 45.8404 71.21 46.682C70.7079 47.0542 70.0762 47.216 69.4608 47.3778C66.6913 48.1061 63.938 48.9314 61.2332 49.8862C59.5273 50.4796 57.8375 51.1161 56.1639 51.7958C55.2084 52.2004 54.2366 52.605 53.2324 52.8801C51.2403 53.4141 49.0053 53.4303 47.3371 54.6602C45.7013 55.874 45.021 57.9454 44.2922 59.8551C44.2112 60.0654 44.1141 60.3082 43.9197 60.4377C43.5634 60.6642 43.0775 60.4377 42.8346 60.114C42.5754 59.7903 42.4783 59.3696 42.2839 59.0135C41.6037 57.7513 39.9841 57.3628 38.5589 57.2172C37.3604 57.0877 36.0647 57.0068 35.0605 56.3919C34.7366 56.1977 34.3479 56.1329 33.9754 56.2138C33.5219 56.3109 33.0522 56.2462 32.6635 55.9873C32.372 55.8093 32.1452 55.518 31.8213 55.4047C31.1897 55.1781 30.5094 55.6798 30.1855 56.2786C29.8778 56.8612 29.7969 57.5571 29.5215 58.1558C29.392 58.4633 29.2138 58.7384 29.0032 58.9973C28.9222 58.7222 28.8089 58.4795 28.5983 58.2853C28.2744 57.9778 27.7885 57.8645 27.5294 57.4923C27.1569 56.9744 27.4322 56.2139 27.1892 55.6151C26.9625 55.0001 26.2985 54.7088 25.8126 54.2557C25.4563 53.9158 25.1971 53.4627 24.857 53.1067C24.5007 52.7183 24.0311 52.427 23.7395 52.0062C23.1079 51.1 23.3184 49.8215 22.865 48.8181C22.703 48.4783 22.4762 48.187 22.2495 47.8957C21.796 47.3131 21.3425 46.7251 20.889 46.1317C20.6461 45.63 20.1116 45.2578 19.5286 45.2255C19.2856 45.2255 19.0427 45.2578 18.7997 45.2416C18.2977 45.1931 17.8118 44.8371 17.6175 44.3678C17.5527 44.1897 17.5203 44.0117 17.4393 43.8337C17.3421 43.6557 17.2125 43.4938 17.0667 43.332C16.7104 42.9328 16.3488 42.5282 15.9817 42.1183C15.8197 41.9403 15.6577 41.7299 15.6415 41.4871C15.6253 41.1473 15.9168 40.8884 16.014 40.5647C16.1436 40.1278 15.933 39.6746 15.7711 39.2701C15.6091 38.8493 15.4958 38.3152 15.8035 37.9916C15.9007 37.8783 16.0464 37.7974 16.095 37.6517C16.1112 37.587 16.1112 37.4899 16.1112 37.409C16.0788 37.0637 16.0464 36.7131 16.014 36.3571C15.9978 36.2276 15.9978 36.1143 15.9654 36.0011C15.9007 35.8392 15.8035 35.6935 15.7063 35.5641C15.431 35.2242 15.1719 34.8682 14.8641 34.5607C14.7508 34.4313 14.6212 34.318 14.524 34.1723C14.4268 34.0429 14.3782 33.8811 14.3134 33.7354C14.1515 33.3632 13.9248 33.0395 13.6332 32.7806C13.3579 32.2465 13.0502 31.6316 12.4671 31.4536C12.1594 31.3565 11.8193 31.3888 11.5115 31.3079C10.9771 31.1461 10.637 30.6282 10.3293 30.1589C9.82719 29.3497 9.29268 28.5082 9.2279 27.5534C9.1955 27.2459 9.2279 26.9546 9.14692 26.6633C9.08213 26.4691 8.98494 26.2911 8.88776 26.1131C8.68261 25.7355 8.47208 25.3525 8.25614 24.9641C8.02939 24.5595 7.80268 24.1549 7.47876 23.8313C6.9281 23.2649 6.1183 22.9897 5.61622 22.3748C4.9036 21.5009 4.98456 20.2062 4.38531 19.2676C4.25574 19.0734 4.09375 18.8792 4.02897 18.6688C3.96418 18.4746 3.98044 18.2643 3.93185 18.0701C3.80228 17.5522 3.3326 17.2124 2.87911 16.9049C2.76574 16.5327 2.39317 16.2737 2.00447 16.2414C1.74533 16.2252 1.47001 16.3223 1.21088 16.2737C0.935546 16.209 0.708786 15.9824 0.627806 15.7073C0.546826 15.4322 0.611674 15.1247 0.773634 14.882C0.967986 14.6069 1.30809 14.3965 1.40526 14.0566C1.47005 13.7653 1.3243 13.4417 1.17853 13.1666C1.14614 13.1234 1.11373 13.0802 1.08134 13.0371L1.25951 10.8847C2.15029 10.8685 3.02486 10.9656 3.75368 11.4511C3.91564 11.5482 4.04518 11.6615 4.20714 11.7424C4.774 12.0175 5.47044 11.7586 5.92393 11.354C6.39361 10.9333 6.70135 10.383 7.07386 9.88136C7.44637 9.39587 7.9484 8.92657 8.56384 8.84565C8.92016 8.81329 9.26033 8.878 9.60045 8.86181C9.95676 8.84563 10.3292 8.66762 10.4264 8.34396C10.4912 8.13358 10.4264 7.90701 10.475 7.69663C10.6532 7.09785 11.6897 7.09785 11.8517 6.48289C11.9974 5.9974 11.463 5.57666 10.9771 5.41482C10.7828 5.35009 10.5884 5.28535 10.4588 5.12352C10.2483 4.86459 10.3779 4.46002 10.3293 4.12017C10.2807 3.82887 10.0863 3.58612 9.92437 3.34337C10.4318 2.8363 10.9555 2.34002 11.4953 1.85452C11.6735 1.69269 11.8679 1.51466 12.1108 1.43374C12.3862 1.33664 12.6939 1.36901 12.9854 1.35283C13.86 1.30428 14.6536 0.851157 15.512 0.673142C16.4999 0.478943 17.5203 0.673118 18.5082 0.851133C18.7998 0.905077 19.0913 0.959021 19.3828 1.01297C19.7553 1.0777 20.144 1.15861 20.5165 1.25571C21.3911 1.51464 22.2009 1.98399 22.8812 2.58277C23.1889 2.85788 23.4804 3.14918 23.8367 3.31101C24.2578 3.50521 24.7275 3.50519 25.181 3.61847C25.9584 3.79649 26.6548 4.28199 27.0921 4.96169L27.5941 5.41482C30.0397 7.16261 32.5178 8.91039 34.6718 11.0304C35.1253 11.4511 35.5788 11.9205 36.178 12.0823C36.421 12.147 36.6801 12.147 36.9393 12.1632C38.2133 12.1956 39.482 12.2279 40.7453 12.2603C41.0368 12.2603 41.3445 12.2765 41.6037 12.1632C41.8628 12.0661 42.0896 11.8719 42.2839 11.6939C43.0775 10.9171 43.7902 10.0432 44.3894 9.10456C44.5028 8.92655 44.6162 8.73235 44.7943 8.61907C44.9887 8.4896 45.2154 8.45726 45.4584 8.44107C46.4301 8.37634 47.4019 8.68382 48.1955 9.25023C48.1847 9.27181 48.1738 9.288 48.1631 9.29879C47.9903 9.64403 47.8337 9.98926 47.6934 10.3345C47.6934 10.3345 47.6448 10.4478 47.5962 10.5772C47.4342 10.7876 47.4181 11.0951 47.5476 11.3217C47.6934 11.5968 47.9687 11.7424 48.1307 11.9852C48.1955 12.0823 48.2441 12.2118 48.2927 12.325C48.5032 12.7458 48.8271 13.0856 49.1025 13.474C49.232 13.652 49.3616 13.8624 49.4102 14.089C49.4426 14.2994 49.4264 14.526 49.4912 14.7202C49.5883 14.9629 49.815 15.1247 49.9446 15.3351C50.1714 15.7235 50.0742 16.209 50.058 16.6621C50.0418 16.7754 50.058 16.8887 50.1066 16.9858C50.139 17.0505 50.1876 17.0991 50.2362 17.1476C50.7707 17.617 51.4994 17.9568 51.7424 18.6203C52.6979 18.863 53.4754 19.5104 54.2204 20.1577C54.3662 20.2872 54.5119 20.4166 54.5929 20.5785C54.6739 20.7888 54.6577 21.0316 54.6577 21.2582C54.6739 22.0026 55.0464 22.8441 54.8196 23.54C54.6577 23.7504 54.6577 24.1226 54.7549 24.3653C54.8358 24.5919 54.9978 24.7861 55.176 24.9803C55.4513 25.2716 55.7752 25.5305 56.0181 25.838C56.2772 26.1617 56.4717 26.5339 56.4879 26.9385C56.4879 27.0518 56.4878 27.1812 56.5526 27.2621C56.585 27.2945 56.6336 27.3107 56.6822 27.3107C56.6822 27.4239 56.6822 27.5534 56.7146 27.6667C56.7308 27.78 56.7955 27.8933 56.8441 28.0065C57.0223 28.4111 57.2328 28.8481 57.5892 29.107C57.8321 29.2688 58.1398 29.3659 58.4475 29.3821C58.7552 29.4145 59.063 29.3821 59.3545 29.3497C59.3761 29.3497 59.3923 29.3497 59.4031 29.3497C59.4139 29.3821 59.4247 29.4091 59.4355 29.4307C59.4679 29.5439 59.5651 29.6411 59.6461 29.722C60.0996 30.2075 60.5152 30.7145 60.8931 31.2432C60.9579 31.4374 61.1036 31.5669 61.2818 31.6316C61.217 32.02 61.2171 32.4084 61.3952 32.7644C61.7191 33.4117 62.5452 33.7192 62.8043 34.3827C62.9824 34.8359 62.9014 35.467 63.3225 35.7259C63.5007 35.8554 63.7275 35.8554 63.938 35.8716C64.5427 35.8932 65.1527 35.9147 65.7681 35.9363C66.335 35.9525 66.9342 35.9849 67.4525 36.2438C67.7116 36.3733 67.9384 36.5513 68.1975 36.6807C69.0559 37.1662 70.1248 37.1177 71.0966 36.9235C71.6149 36.8102 72.1332 36.6646 72.6676 36.5513C72.7486 37.3119 73.2993 37.943 73.7204 38.5904C74.2063 39.3024 74.5301 40.2896 74.0119 40.9531Z" fill="#F1F1F1" stroke="#BABABA" stroke-width="1.18548" stroke-linecap="round" stroke-linejoin="round"/>
</svg>
