<svg width="37" height="12" viewBox="0 0 37 12" fill="none" xmlns="http://www.w3.org/2000/svg">
<path d="M0.596962 3.73485C0.64555 4.15561 1.03421 4.44691 1.43911 4.54401C1.4607 4.55479 1.48769 4.5602 1.52009 4.5602C1.89259 4.64112 2.2813 4.59256 2.65381 4.59256C3.0749 4.59256 3.51222 4.64114 3.81995 4.90007C3.96571 5.02953 4.07907 5.19134 4.20864 5.32081C4.56495 5.69302 5.05086 5.87106 5.53674 5.95198C6.03882 6.04907 6.52465 6.06523 7.02672 6.12997C7.17249 6.14615 7.30205 6.17851 7.43162 6.24324C7.9175 6.46981 8.01469 7.1657 8.58155 7.31135C9.05124 7.60264 9.63428 7.7483 10.1849 7.68357C10.7356 7.61884 11.2701 7.37609 11.8208 7.27899C12.258 7.21426 12.6954 7.23042 13.1489 7.26279C13.8183 7.31673 14.4931 7.36531 15.1734 7.40846C15.3191 7.42465 15.4649 7.44083 15.5783 7.48938C15.7078 7.53793 15.8049 7.61881 15.9183 7.69973C16.2314 7.96945 16.55 8.2338 16.8739 8.49273C17.0035 8.60601 17.1492 8.71928 17.3112 8.80019C17.6027 8.94584 17.9428 8.94587 18.2667 8.94587C19.1413 8.93508 20.0105 8.92967 20.8743 8.92967C21.101 8.92967 21.3116 8.92967 21.5059 9.01058C21.6517 9.05913 21.7813 9.15624 21.927 9.22097C22.1214 9.31807 22.3481 9.38281 22.5587 9.43136C23.0877 9.55004 23.6223 9.67408 24.1621 9.80354C24.8586 9.88446 25.5712 9.96539 26.2676 9.81974C26.9154 9.69028 27.5795 9.38278 28.2111 9.5608C28.5027 9.6579 28.7617 9.83593 29.0371 9.98157C29.9116 10.4671 31.013 10.5642 31.9523 10.2081C32.341 10.0787 32.7784 9.96537 33.1185 10.2081C33.3938 10.4023 33.491 10.6936 33.7339 10.904C34.0254 11.1629 34.4951 11.0982 34.8191 10.8878C35.1592 10.6937 35.4183 10.3862 35.7098 10.1434C35.8394 10.0463 35.969 9.96541 36.0662 9.83594C36.2281 9.60938 36.2281 9.30188 36.2281 9.01058C36.2281 8.88112 36.2281 8.75164 36.1633 8.63836C36.1147 8.52508 36.0176 8.44419 35.9042 8.37945C35.5317 8.15289 35.0134 8.08813 34.5923 8.23378C34.0579 8.4118 33.4586 8.05577 33.0699 7.66737C32.665 7.27897 32.3086 6.80966 31.7904 6.61546C30.9158 6.2918 29.9927 6.85823 29.0695 7.00388C27.952 7.1819 26.7535 6.69639 26.0894 5.77394C25.9275 5.54738 25.9274 5.2561 25.7331 5.0619C25.5873 4.91625 25.2796 4.7544 25.1177 4.64112C23.5953 3.68631 21.8137 2.94187 20.0807 3.41118C19.2709 3.62156 18.5745 4.10707 17.8295 4.47929C17.0845 4.83532 16.226 5.09424 15.4324 4.83531C14.6874 4.57638 14.1206 3.88051 13.3269 3.75104C13.0192 3.7025 12.6954 3.75106 12.42 3.60541C11.9989 3.39503 11.8693 2.86098 11.5778 2.50495C10.8652 1.61487 9.43997 1.92234 8.37104 1.51776C8.01473 1.38829 7.70699 1.17793 7.38307 1.0161C5.86064 0.287857 4.04671 0.61149 2.4595 1.14553C2.29754 1.14553 2.18411 1.32357 2.15171 1.4854C2.10313 1.64723 2.08699 1.82523 1.97362 1.95469C1.87645 2.05179 1.76306 2.10037 1.63349 2.14892C1.14761 2.37549 0.775086 2.82862 0.645518 3.36266C0.613126 3.47595 0.580766 3.60538 0.596962 3.73485Z" fill="#F1F1F1" stroke="#BABABA" stroke-width="1.18548" stroke-linecap="round" stroke-linejoin="round"/>
</svg>
