<svg width="78" height="105" viewBox="0 0 78 105" fill="none" xmlns="http://www.w3.org/2000/svg">
<path d="M77.3941 38.1863C77.3941 38.5423 77.135 38.8175 76.7949 39.0117C76.6006 39.1411 76.3738 39.222 76.1471 39.303C75.7746 39.4162 75.3697 39.5295 75.0134 39.3677C74.5275 39.1411 74.3655 38.5585 73.9768 38.2187C73.6043 37.8788 73.0212 37.7979 72.5353 37.9921C72.0656 38.1701 71.6931 38.5747 71.4826 39.044C71.353 39.3515 71.2882 39.7075 71.4178 40.015C71.5636 40.3225 71.8713 40.5167 72.1466 40.6785C72.4598 40.8727 72.7729 41.0615 73.086 41.2449C73.3614 41.4068 73.6529 41.5848 73.7987 41.8599C73.9444 42.1512 73.8958 42.572 73.6205 42.7014C73.4747 42.7662 73.3128 42.7662 73.167 42.7662C72.4382 42.8147 71.7417 43.2678 71.4826 43.9475C71.2396 44.6272 71.515 45.4688 72.1304 45.8248C72.3734 45.9543 72.6488 46.019 72.8431 46.2132C73.1022 46.5045 73.0698 46.9252 73.0536 47.3136C72.9565 49.0776 73.2156 50.8577 73.8149 52.5084C73.9444 52.8321 74.0578 53.1558 74.1064 53.4794C74.2035 54.0944 74.0092 54.7094 73.8796 55.3243C73.8688 55.3243 73.8526 55.3243 73.831 55.3243C73.4423 55.3081 73.1994 54.8874 72.9889 54.5475C72.6649 54.0297 72.2276 53.528 71.6445 53.3661C71.0939 53.2043 70.527 53.3661 70.0574 53.7384C69.8792 53.884 69.8307 53.9487 69.6039 54.1429C69.5391 54.2077 69.5067 54.4504 69.4419 54.5313C69.2638 54.7255 68.9884 54.7579 68.7779 54.9035C68.5188 55.0816 68.4054 55.4376 68.1301 55.5994C67.6442 55.8907 66.8667 55.4376 66.559 56.0687C66.4942 56.2144 66.4942 56.3762 66.4942 56.5381C66.5752 57.5091 66.2999 58.5771 65.8464 59.4348C65.6197 60.0822 64.7937 60.4058 64.4535 60.9884C64.3726 61.1503 64.3078 61.3121 64.2106 61.4416C63.7571 62.0404 62.7692 61.749 62.1538 62.1536C61.9918 62.2669 61.8622 62.4125 61.684 62.5096C61.4249 62.6553 61.1172 62.6229 60.8256 62.6715C60.2588 62.7848 59.7729 63.157 59.3842 63.5778C59.0117 64.0147 58.704 64.5164 58.3477 64.9695C56.9224 66.8144 54.655 67.8987 53.3107 69.8083C53.1488 70.0348 52.9868 70.2938 52.7762 70.4718C52.5657 70.6498 52.2904 70.7469 52.0313 70.6822C51.5454 70.9411 51.0433 71.2162 50.7356 71.6532C50.5898 71.8797 50.4926 72.1225 50.3954 72.3652C50.2173 72.8022 50.0553 73.2553 49.7638 73.6437C49.4885 74.0159 49.0674 74.3396 48.5977 74.3881C48.1604 74.4205 47.6907 74.2587 47.3182 74.469C47.1886 74.5338 47.0915 74.6309 46.9943 74.728C46.5948 75.1271 46.1953 75.5317 45.7958 75.9417C45.6824 76.055 45.569 76.1683 45.488 76.3139C45.4232 76.411 45.3909 76.5243 45.3099 76.6052C45.1642 76.7832 44.8888 76.7832 44.6621 76.7832C44.187 76.7832 43.7173 76.7778 43.253 76.7671C43.091 76.7671 42.929 76.767 42.8157 76.8803C42.7023 76.9774 42.6861 77.1393 42.6861 77.2849C42.6537 78.0132 42.6862 78.7252 42.7186 79.4534C42.7348 79.7447 42.751 80.0522 42.7995 80.3435C42.8805 80.829 43.0424 81.3307 42.9129 81.8162C42.8643 82.2208 42.8157 82.6577 42.9615 83.0299C43.1721 83.5478 43.7065 83.9686 43.5769 84.4864C43.5283 84.713 43.3826 84.891 43.2854 85.0852C43.1397 85.4574 43.2206 85.862 43.253 86.2504C43.2692 86.7682 43.1882 87.27 43.1073 87.7716C43.0749 87.982 43.0263 88.1924 42.9291 88.3866C42.7023 88.7588 42.2651 88.9206 41.9735 89.2281C41.6982 89.5356 41.601 89.9402 41.52 90.3447C41.3094 91.4452 41.2447 92.5942 41.3257 93.7109C41.4877 94.0022 41.6658 94.2935 41.7306 94.6171C41.7954 94.957 41.7467 95.3292 41.52 95.5881C41.2609 95.8794 40.8236 95.928 40.4511 96.0736C39.4794 96.4458 38.8639 97.5786 39.1068 98.5982C39.1878 98.9866 39.366 99.4073 39.1392 99.7148C39.0583 99.8281 38.9449 99.8928 38.8315 99.9576C38.3133 100.249 37.7463 100.475 37.1633 100.589C36.9042 100.637 36.6288 100.67 36.4183 100.831C36.0458 101.107 35.9972 101.624 35.7543 102.013C35.5923 102.239 35.3817 102.417 35.155 102.579C34.7339 102.914 34.3182 103.243 33.9079 103.566C33.6487 103.761 33.3896 103.955 33.0981 104.068C32.7904 104.165 32.4341 104.165 32.1912 103.971C31.9968 103.842 31.8996 103.615 31.7701 103.421C31.187 102.482 30.0694 101.964 29.5512 100.993C29.1625 100.249 29.1625 99.375 29.0653 98.5334C28.9033 97.3359 28.4984 96.1707 28.0935 95.0217C27.883 94.4067 27.6563 93.7756 27.2514 93.2739C26.9599 92.9179 26.6035 92.6266 26.4092 92.222C26.2958 92.0116 26.1663 91.7203 25.9557 91.7203C25.0973 90.7169 24.417 89.5679 23.9473 88.3542C23.7692 87.8849 23.6234 87.3994 23.5587 86.8977C23.4939 86.2827 23.5911 85.6516 23.4453 85.0528C23.3482 84.6644 23.17 84.2923 22.9918 83.9362C21.9661 81.9079 20.9403 79.8796 19.9146 77.8513C19.785 77.5762 19.6392 77.3011 19.5906 76.9936C19.5421 76.7023 19.5583 76.3949 19.3639 76.1683C19.2829 76.0874 19.1695 76.0226 19.0885 75.9417C18.9104 75.7637 18.8295 75.5048 18.7485 75.262C18.5325 74.5176 18.3166 73.7678 18.1007 73.0126C18.0845 72.2196 17.89 71.4428 17.5499 70.7469C17.307 70.2452 16.9831 69.7597 16.9021 69.2095C16.8697 68.902 16.9021 68.5945 16.8697 68.3032C16.805 67.6559 16.4648 67.0571 16.4162 66.426C16.3838 66.0538 16.4486 65.6654 16.3352 65.3093C16.2219 64.9857 15.979 64.7267 15.898 64.4031C15.8008 64.0632 15.8656 63.7072 15.8008 63.3836C15.7198 62.9628 15.4769 62.6067 15.3311 62.2183C15.1854 61.8138 15.2015 61.3121 15.5254 61.0532C15.6226 60.9884 15.7198 60.9399 15.8008 60.8752C15.9304 60.7457 15.979 60.5838 15.9952 60.4058C16.0114 60.2278 16.1085 60.0498 16.2219 59.9203C16.481 59.629 16.6754 59.273 16.6916 58.8846C16.6916 58.6581 16.643 58.4315 16.5782 58.2211C16.4648 57.7518 16.3352 57.2986 16.1085 56.8779C15.9303 56.5866 15.7198 56.3115 15.655 55.9878C15.6065 55.6803 15.7036 55.3567 15.7684 55.033C15.8817 54.4666 15.8494 53.8678 15.655 53.3176C15.5741 53.0587 15.3635 52.7512 15.0882 52.7997C14.8776 52.8321 14.7481 53.0749 14.6671 53.2691C14.5051 53.6736 14.3269 54.1106 14.4079 54.5475C14.4565 54.7903 14.5861 55.0168 14.6185 55.2596C14.6995 55.7774 14.3432 56.2953 13.8735 56.5542C13.339 56.8455 12.6912 56.8779 12.1729 57.2015C11.6708 57.4928 11.3469 58.0431 10.8286 58.2859C10.7314 58.3344 10.6181 58.3829 10.5533 58.4638C10.4723 58.5448 10.4399 58.6742 10.3751 58.7552C10.2294 58.917 9.95404 58.8846 9.7273 58.8361C9.09565 58.6904 8.39921 58.4962 8.01051 57.9784C7.89713 57.8327 7.81615 57.6547 7.68659 57.5252C7.36267 57.2015 6.79584 57.1692 6.50431 56.8294C5.90506 56.5381 6.03464 55.7774 5.62974 55.3405C5.45159 55.1463 5.17624 55.0492 4.96569 54.8874C4.69036 54.6446 4.52835 54.3048 4.26922 54.0297C3.9129 53.6736 3.37848 53.4956 3.10315 53.0587C2.925 52.7836 2.87638 52.4275 2.98975 52.12C3.03834 51.9906 3.11933 51.8611 3.2489 51.7964C3.32988 51.764 3.44322 51.764 3.5404 51.764C3.88591 51.7748 4.23682 51.7802 4.59314 51.7802C4.91706 51.7802 5.24104 51.7802 5.54876 51.6993C5.72692 51.6345 5.90504 51.5374 6.0832 51.5051C6.39092 51.4403 6.69868 51.5051 7.0064 51.4889C7.31413 51.4727 7.65421 51.3109 7.7028 51.0034C7.73519 50.8901 7.70277 50.7769 7.67037 50.6798C7.65418 50.5827 7.63798 50.4855 7.58939 50.4208C7.47602 50.259 7.28173 50.1942 7.08738 50.2104C6.89303 50.2104 6.71481 50.2913 6.53665 50.3399C5.67827 50.5988 4.75511 50.5179 3.88053 50.4208C3.70237 50.4046 3.52426 50.3884 3.3623 50.3237C3.20034 50.259 3.05453 50.1457 2.90877 50.0486C2.53626 49.7735 2.14757 49.4984 1.79126 49.1747C1.6455 49.0291 1.48354 48.8834 1.30538 48.7701C1.09483 48.5112 0.868105 48.2199 0.592773 48.0095C1.37018 47.8477 2.11515 47.5402 2.7306 47.0709C3.15169 46.7472 3.52422 46.3588 3.96151 46.0675C4.3988 45.7924 4.9495 45.6144 5.45157 45.7924C5.79169 45.9219 6.05079 46.2132 6.39091 46.3427C6.77961 46.4883 7.2331 46.4074 7.60561 46.2455C7.97811 46.0675 8.31823 45.8086 8.65835 45.5658C8.88509 45.404 9.16047 45.2422 9.4358 45.3069C9.93788 45.4202 10.1322 46.2132 10.6505 46.1808C10.8772 46.1646 11.0554 45.9866 11.1364 45.7762C11.2012 45.5659 11.2011 45.3393 11.2011 45.1127C11.185 44.5949 11.1688 44.0608 11.0392 43.543C10.7477 42.491 9.97024 41.6334 9.07946 40.9698C8.72315 40.7109 8.30202 40.3872 8.31821 39.9503C8.31821 39.6752 8.4964 39.4486 8.59358 39.2058C8.78793 38.7365 8.70693 38.0892 8.25345 37.8465C8.0267 37.717 7.73519 37.717 7.45986 37.6846C6.8768 37.5875 6.30996 37.2801 5.93745 36.8269C5.84027 36.7136 5.75925 36.5842 5.72686 36.4547C5.69446 36.3091 5.67828 36.131 5.74307 36.0016C6.19656 35.0953 7.07114 34.5936 7.60561 33.7521C7.73517 33.5579 7.86473 33.3476 7.91331 33.121C7.9781 32.8944 8.01049 32.6679 8.15625 32.4737C8.43159 32.1014 8.99849 31.9234 9.33861 32.2147C9.56535 32.3927 9.63015 32.7002 9.8407 32.8944C10.1646 33.2019 10.6828 33.121 11.0877 32.943C11.4926 32.7488 11.8814 32.4736 12.3187 32.4413C12.675 32.4089 13.0313 32.5222 13.3714 32.506C14.2946 32.4251 14.8452 31.4541 15.1692 30.5802C15.4769 29.7063 15.8332 28.703 16.7078 28.3793C17.0155 28.2822 17.3394 28.266 17.6309 28.1527C19.1047 27.6025 18.8456 25.2074 20.1575 24.3497C20.53 24.1069 20.9997 23.9937 21.2912 23.6538C21.6313 23.2007 21.518 22.5372 21.8095 22.0517C22.2468 21.3072 23.4777 21.2263 23.753 20.401C23.8826 20.045 23.7854 19.6566 23.6721 19.2844C23.5263 18.7989 23.3805 18.3134 23.3967 17.8117C23.4129 17.31 23.6397 16.7921 24.077 16.5494C24.4981 16.3228 24.9839 16.3875 25.4374 16.3066C25.8909 16.2257 26.393 15.8373 26.2634 15.4004C26.1177 14.834 25.3079 14.9149 24.7248 14.834C23.9312 14.7369 23.2834 14.1543 22.8623 13.4746C22.2468 12.5359 21.939 11.4031 22.0038 10.2865C22.0524 9.47733 22.2468 8.5549 21.7123 7.95613C21.4694 7.66483 21.0483 7.38968 21.1779 7.03365C21.2427 6.85564 21.4208 6.75855 21.5828 6.67763C22.2144 6.33778 22.8785 5.99796 23.5911 6.01414C23.996 6.01414 24.3685 6.1436 24.7734 6.20833C25.243 6.27307 25.7128 6.27305 26.1824 6.27305C27.0894 6.26226 27.9964 6.25148 28.9033 6.24069C29.6969 6.24069 30.5554 6.20832 31.2194 5.78755C31.8349 5.39916 32.2073 4.71947 32.7256 4.21779C33.2439 3.71611 34.1023 3.39244 34.6853 3.84557C34.9283 4.03977 35.074 4.36345 35.3008 4.59001C35.5113 4.83276 35.9324 4.96221 36.1592 4.73565C36.008 3.99122 35.9216 3.24141 35.9 2.4862C35.9432 2.47541 35.9864 2.45922 36.0296 2.43764C36.4507 2.21108 36.7746 1.85506 37.1471 1.56377C37.9245 0.948804 38.8963 0.608957 39.8843 0.592773C40.4997 0.592773 41.1313 0.722239 41.5524 1.15919C41.8763 1.49903 42.0545 2.01688 42.508 2.19489C43.0262 2.40528 43.7227 2.0007 44.1114 2.64803C44.2085 2.80986 44.241 3.00405 44.2572 3.19824C44.2572 4.18542 43.8522 5.17259 43.1396 5.86847C42.9129 6.09504 42.6537 6.28923 42.4432 6.54816C42.1517 6.888 41.9735 7.30878 41.7306 7.69718C41.4877 8.06939 41.1313 8.40926 40.6779 8.44162C40.3053 8.47399 39.9652 8.29597 39.6251 8.15032C39.2364 8.00467 38.7667 7.93994 38.4752 8.23123C38.3618 8.3607 38.297 8.52254 38.297 8.68437C38.3132 9.18605 38.8315 9.4288 39.0906 9.81719C39.3335 10.1732 39.3174 10.6425 39.3822 11.0633C39.5117 11.8725 39.9652 12.6169 40.6292 13.1185C40.8074 13.248 41.0341 13.4098 41.0665 13.6364C41.0989 13.7659 41.0666 13.8953 41.0018 14.0086C40.7426 14.6074 40.1433 14.9796 39.5765 15.3033C39.4145 15.3842 39.2364 15.4813 39.0745 15.4004C38.9449 15.3518 38.8639 15.2062 38.7829 15.0767C38.5561 14.7207 38.135 14.5103 37.7139 14.5265C37.5682 14.5265 37.4224 14.5751 37.3253 14.6722C37.1309 14.8825 37.2443 15.2224 37.4387 15.4328C37.633 15.6431 37.8922 15.805 38.0217 16.0477C38.3294 16.5818 37.9407 17.2776 38.0865 17.8926C38.2808 18.637 39.1392 18.9283 39.8356 19.252C40.613 19.6242 41.2771 20.1744 41.9411 20.7246C42.5889 21.2911 43.2368 21.8575 43.998 22.2944C44.3543 22.4886 44.7268 22.6504 45.0993 22.8285C45.2073 22.8716 45.3153 22.9148 45.4232 22.9579C45.6176 23.0335 45.812 23.0982 46.0063 23.1521C45.6284 23.7131 45.2559 24.2796 44.8888 24.8514C44.7592 25.0294 44.6297 25.2074 44.4677 25.3531C44.1924 25.5796 44.0304 25.9033 44.0304 26.2593C44.0466 26.583 43.998 26.9066 43.8523 27.1817C43.6093 27.6672 43.091 27.9585 42.8967 28.4764C42.8157 28.6868 42.8157 28.9295 42.9129 29.1237C43.1882 29.6416 43.917 29.5445 44.4839 29.674C44.7916 29.7387 45.0669 29.8843 45.3423 30.03C46.4112 30.5802 47.4801 31.1304 48.3385 31.9558C48.5653 32.1662 48.792 32.4089 49.0998 32.4898C49.4237 32.5869 49.78 32.4737 50.1039 32.5546C50.4926 32.6679 50.768 33.0401 51.1405 33.2019C51.6102 33.4285 52.1932 33.299 52.6952 33.4932C53.0353 33.6226 53.2783 33.914 53.6022 34.0758C54.5416 34.5936 55.7077 34.0272 56.7767 34.1081C58.5258 34.2538 59.7081 36.0987 61.4087 36.5356C62.0728 36.7136 62.7853 36.6651 63.3846 36.9726C63.5465 37.0535 63.6924 37.1668 63.8381 37.2477C64.0325 37.3448 64.243 37.4095 64.4373 37.4743C65.2633 37.7008 66.1055 37.8465 66.9639 37.9112C68.0167 37.9759 69.0694 37.895 70.1221 37.8626C70.4784 37.8465 70.8348 37.6846 71.0453 37.3933C71.6284 36.6327 70.7376 35.7912 70.6566 34.9173C70.5757 34.0434 71.3206 33.3152 71.4178 32.4413C71.4286 32.3981 71.434 32.3496 71.434 32.2956C72.1628 32.1824 72.8917 32.1824 73.6205 32.2633C73.5881 32.9214 73.5503 33.5849 73.5071 34.2538C73.4585 34.8688 73.4585 35.5646 73.8796 36.0178C74.3007 36.4709 74.9809 36.5033 75.564 36.6651C75.9527 36.7622 76.3252 36.924 76.6653 37.1182C76.8111 37.2153 76.973 37.3286 77.0864 37.4743C77.2808 37.6685 77.4103 37.9112 77.3941 38.1863Z" fill="#F1F1F1" stroke="#BABABA" stroke-width="1.18548" stroke-linecap="round" stroke-linejoin="round"/>
</svg>
