<svg width="43" height="35" viewBox="0 0 43 35" fill="none" xmlns="http://www.w3.org/2000/svg">
<path d="M42.1043 30.4516C41.7588 30.4408 41.4079 30.4355 41.0516 30.4355C40.8896 30.4355 40.7114 30.4354 40.598 30.5487C40.5332 30.5973 40.5009 30.6458 40.4685 30.7106C39.6749 30.1441 38.7032 29.8367 37.7314 29.9014C37.4884 29.9176 37.2617 29.9499 37.0673 30.0794C36.8892 30.1927 36.7758 30.3869 36.6624 30.5649C36.0632 31.5035 35.3506 32.3774 34.557 33.1542C34.3626 33.3322 34.1358 33.5264 33.8767 33.6235C33.6176 33.7368 33.3099 33.7206 33.0183 33.7206C31.7551 33.6882 30.4864 33.6559 29.2123 33.6235C28.9531 33.6073 28.694 33.6073 28.451 33.5426C27.8518 33.3808 27.3983 32.9115 26.9448 32.4907C24.7908 30.3707 22.3128 28.6229 19.8672 26.8751L19.3652 26.422C18.9279 25.7423 18.2314 25.2568 17.454 25.0788C17.0005 24.9655 16.5308 24.9655 16.1097 24.7713C15.7534 24.6095 15.4619 24.3182 15.1542 24.0431C14.474 23.4443 13.6641 22.975 12.7896 22.716C12.4171 22.6189 12.0283 22.538 11.6558 22.4733C11.3643 22.4193 11.0728 22.3654 10.7813 22.3115C9.79332 22.1334 8.77297 21.9393 7.78502 22.1335C6.92663 22.3115 6.13301 22.7646 5.25842 22.8132C4.9669 22.8293 4.65919 22.797 4.38386 22.8941C4.14092 22.975 3.94652 23.153 3.76836 23.3148C3.2285 23.8003 2.70487 24.2966 2.1974 24.8037C2.10022 24.658 2.01919 24.5124 1.9868 24.3344C1.93821 24.1563 1.95443 23.946 1.92203 23.7679C1.80866 23.2177 1.32275 22.8455 0.998831 22.3924C0.723499 22.004 0.577735 21.5185 0.593931 21.033C1.48471 20.8712 2.32692 20.5151 3.03954 19.9811C3.44444 19.6736 3.80077 19.3176 4.18947 18.9777C4.82112 18.4599 5.50132 18.0229 6.18155 17.6022C8.20605 16.3237 10.2468 15.029 12.4656 14.1389C13.5508 13.702 14.7817 13.2813 15.3162 12.2617C15.7049 11.5335 15.6563 10.6596 15.9478 9.89896C16.0935 9.51056 16.3203 9.15454 16.3203 8.73377C16.3203 8.29683 16.045 7.90844 15.8668 7.48768C15.3161 6.19302 15.8829 4.54231 17.1138 3.86262C17.8427 3.45804 18.7335 3.36095 19.3652 2.82691C19.7215 2.50324 19.9482 2.06628 20.094 1.59697C20.839 1.4675 21.5354 0.561253 22.3614 0.59362C23.0416 0.609803 23.5761 1.27331 24.2725 1.27331C24.6936 1.27331 25.1471 1.04674 25.5034 1.27331C25.6654 1.3704 25.7625 1.54844 25.8921 1.69408C26.3132 2.1634 27.0744 2.21195 27.6575 1.93683C27.8518 1.85052 28.0246 1.73185 28.1758 1.58081C28.5159 2.06631 28.775 2.60036 28.9693 3.16677L29.2771 3.84646C29.6172 4.72035 30.0545 5.56186 30.5727 6.33865C30.7833 6.64613 31.0424 6.96982 31.415 7.05074C31.6579 7.09929 31.9332 7.01836 32.1761 7.0831C32.5486 7.19638 32.7754 7.58476 32.8564 7.95697C32.9374 8.34537 32.9374 8.74996 33.0508 9.106C33.1155 9.26783 33.1965 9.41348 33.2127 9.59149C33.2451 10.1255 32.662 10.4492 32.1923 10.7081C31.3825 11.1774 30.7023 11.8895 30.427 12.7796C30.1355 13.6696 30.3298 14.7377 31.0101 15.3689C31.415 15.7573 31.9494 15.9838 32.4029 16.2913C32.8726 16.5988 33.2937 17.0681 33.2775 17.6345C33.2613 18.0229 33.0831 18.5246 33.4232 18.7188C33.5042 18.7673 33.6176 18.7835 33.7309 18.7997C35.221 18.9777 36.3709 20.1429 37.3913 21.2434C37.9527 21.8584 38.5196 22.4733 39.0918 23.0883C39.1728 23.1854 39.27 23.2825 39.2862 23.3958C39.351 23.6223 39.1728 23.8327 39.0594 24.0431C38.6869 24.739 39.0109 25.5967 39.351 26.3087C39.6911 27.0046 40.0474 27.6843 40.4685 28.3316C40.9544 29.0761 41.5213 29.7719 42.1043 30.4516Z" fill="#F1F1F1" stroke="#BABABA" stroke-width="1.18548" stroke-linecap="round" stroke-linejoin="round"/>
</svg>
