<svg width="36" height="30" viewBox="0 0 36 30" fill="none" xmlns="http://www.w3.org/2000/svg">
<path d="M34.2704 29.3536C33.7845 29.4669 33.3311 29.0947 33.0071 28.7387C32.667 28.3827 32.2783 27.9781 31.7924 27.9781C31.3875 27.9781 30.9989 28.2694 30.594 28.237C30.3672 28.2208 30.1567 28.1237 29.9461 28.0428C29.0553 27.7515 28.0997 28.1237 27.1604 28.0752C25.9943 28.0266 24.9415 27.3469 24.0507 26.5701C23.6296 26.2303 23.241 25.8419 22.8846 25.4373C21.9615 24.353 21.346 23.0422 20.4553 21.9094C19.6131 20.8413 18.4308 19.9026 17.0703 19.8541C16.3739 19.6923 15.7098 19.3524 15.1916 18.8669C14.9324 18.608 14.6733 18.3167 14.317 18.2196C13.7825 18.0901 13.2642 18.4785 12.7297 18.5756C12.0981 18.7051 11.3369 18.4623 10.8348 18.8831C10.5433 19.142 10.4461 19.5628 10.4461 19.9512C10.4299 20.3396 10.4785 20.728 10.4137 21.1002C10.3166 21.5372 10.0736 21.9255 9.83066 22.2978C9.37717 22.9775 8.87508 23.7057 8.11387 23.997C7.70897 24.1588 7.2717 24.175 6.8344 24.1912C5.40916 24.2559 3.98392 24.3153 2.55868 24.3692C2.16997 24.3854 1.76507 24.4016 1.42496 24.2397C1.38177 24.2182 1.34395 24.1966 1.31155 24.175V15.7921C1.128 15.6627 0.94446 15.5332 0.760905 15.4037C0.728513 15.3713 0.679894 15.3552 0.647502 15.3066C0.61511 15.2743 0.615141 15.2095 0.598945 15.161C0.566553 14.902 0.663729 14.6431 0.841885 14.4651C0.971453 14.3356 1.1334 14.2385 1.31155 14.1738V0.644642C1.58149 0.633853 1.85683 0.617662 2.13756 0.596084C2.29952 0.596084 2.4777 0.579932 2.63966 0.628482C2.91499 0.693215 3.14168 0.91978 3.40082 1.03306C3.80572 1.24344 4.34024 1.22723 4.58318 1.64799C4.98268 1.78825 5.37675 1.92852 5.76545 2.06877C5.976 2.1335 6.20273 2.21442 6.39708 2.31152C6.60763 2.40862 6.80201 2.52188 6.99636 2.61898C7.6766 2.95883 8.4216 3.12068 9.16661 3.12068C9.42575 3.10449 9.70113 3.08832 9.94407 3.16924C10.106 3.21779 10.2355 3.29869 10.3813 3.39578C11.0184 3.80576 11.6446 4.23194 12.2601 4.67428C12.3896 4.7552 12.5354 4.85228 12.6812 4.90083C12.8593 4.94938 13.0375 4.91702 13.2156 4.94939C13.3776 4.98175 13.5395 5.06266 13.6853 5.14358C14.0092 5.32699 14.3385 5.51038 14.6732 5.69379C15.3535 6.00127 16.0013 6.40586 16.633 6.79425C16.9245 6.97227 17.1998 7.13412 17.4266 7.37687C17.6371 7.58725 17.8153 7.87854 18.0906 8.02419C18.2202 8.10511 18.3497 8.13748 18.4631 8.23458C18.6413 8.38023 18.7061 8.63915 18.7709 8.86571C18.8681 9.12464 18.9814 9.36739 19.1271 9.59396C19.2567 9.77197 19.4025 9.94999 19.4511 10.1604C19.5159 10.4031 19.4673 10.6782 19.5807 10.9048C19.6779 11.1152 19.8884 11.2447 20.1151 11.3094C20.3419 11.3741 20.5686 11.3903 20.7954 11.4388C21.1031 11.5036 21.4594 11.6169 21.7185 11.7949C21.8049 11.8488 21.8967 11.9028 21.9939 11.9567C22.2692 12.1185 22.5607 12.248 22.8522 12.3613C23.0142 12.426 23.1599 12.4746 23.3219 12.5069C23.4839 12.5555 23.6297 12.5555 23.7916 12.5878C23.9752 12.6094 24.1479 12.6526 24.3099 12.7173C24.5528 12.8144 24.7796 12.9277 24.9739 13.1057C25.4274 13.5426 25.5246 14.2223 25.6055 14.8373C25.6055 14.8858 25.6055 14.9506 25.5893 14.983C25.5569 15.0315 25.5084 15.0477 25.4598 15.0639C25.0549 15.2095 24.6176 15.2742 24.1641 15.2904C23.8402 15.2904 23.4677 15.2904 23.2571 15.5332C23.079 15.7436 23.079 16.0672 22.917 16.2776C22.8198 16.4071 22.6741 16.5042 22.6255 16.6498C22.5931 16.7793 22.6579 16.9249 22.7227 17.0382C23.079 17.6856 23.6944 18.1387 24.3099 18.5756C24.4718 18.6889 24.65 18.8184 24.8444 18.8669C25.0549 18.9317 25.2655 18.9155 25.476 18.9478C26.1238 19.0449 26.6745 19.5952 26.7231 20.2425C26.8364 20.372 26.9175 20.5176 26.9499 20.6794C26.9661 20.8575 26.9498 21.0355 26.9822 21.1973C27.047 21.4886 27.3061 21.6828 27.4681 21.9255C27.7596 22.3463 27.8244 22.8804 28.1807 23.2364C28.5046 23.5601 29.0715 23.6248 29.4116 23.3335C29.4764 23.2849 29.5412 23.204 29.6222 23.1716C29.8004 23.0745 30.0433 23.1717 30.1566 23.3497C30.2862 23.5115 30.3024 23.7381 30.3186 23.9323C30.3348 24.2236 30.3186 24.5148 30.3996 24.79C30.4806 25.1298 30.7235 25.4373 31.0798 25.4535C31.4361 25.3726 31.7924 25.2755 32.1487 25.324C32.505 25.3726 32.8614 25.6153 32.9424 25.9552C33.0072 26.1817 32.9261 26.4568 33.0557 26.6672C33.1691 26.8452 33.3958 26.9262 33.6063 27.0071C34.1246 27.2013 34.6267 27.5249 34.821 28.0266C35.0316 28.5283 34.7887 29.2242 34.2704 29.3536Z" fill="#F1F1F1" stroke="#BABABA" stroke-width="1.18548" stroke-linecap="round" stroke-linejoin="round"/>
</svg>
