<svg width="29" height="42" viewBox="0 0 29 42" fill="none" xmlns="http://www.w3.org/2000/svg">
<path d="M28.3689 38.1067C28.3257 38.2362 28.2879 38.3603 28.2555 38.479C28.2123 38.6516 28.18 38.8296 28.1584 39.013C28.126 39.2881 28.1259 39.547 28.1098 39.8221C28.1098 39.8329 28.1098 39.8383 28.1098 39.8383C28.099 39.9354 28.0882 40.0271 28.0774 40.1134C28.0666 40.1566 28.0558 40.2052 28.045 40.2591C28.0126 40.4048 27.964 40.5504 27.883 40.6799C27.8344 40.7931 27.7535 40.8902 27.6725 40.9712C27.6401 41.0035 27.6077 41.0305 27.5753 41.0521C27.4997 41.106 27.4188 41.1438 27.3324 41.1654C27.3108 41.1761 27.2838 41.1816 27.2514 41.1816C27.2298 41.1923 27.2082 41.1977 27.1866 41.1977C26.9599 41.2139 26.7169 41.1492 26.5873 40.9712C26.5658 40.9496 26.5442 40.9226 26.5226 40.8902C26.474 40.7931 26.4254 40.696 26.3768 40.5989C26.1177 40.2105 25.648 40.1134 25.1621 40.0649C25.1189 40.0649 25.0757 40.0595 25.0325 40.0487C24.9785 40.0487 24.9245 40.0433 24.8706 40.0325C24.8058 40.0217 24.741 40.011 24.6762 40.0002C24.6223 40.0002 24.5629 39.9948 24.4981 39.984C24.4441 39.9624 24.3847 39.9462 24.3199 39.9355C24.2335 39.9139 24.1525 39.8869 24.077 39.8545C24.0014 39.833 23.9258 39.8114 23.8502 39.7898C23.7045 39.725 23.5425 39.6765 23.3967 39.6441C23.3103 39.6226 23.2293 39.601 23.1538 39.5794C23.0566 39.5578 22.9649 39.5417 22.8785 39.5309C22.7921 39.5201 22.7111 39.5093 22.6355 39.4985C22.3926 39.4823 22.1334 39.4661 21.8905 39.4661C21.7285 39.4769 21.5612 39.4823 21.3884 39.4823C20.8216 39.4985 20.2385 39.5309 19.6555 39.5309C19.364 39.5417 19.0778 39.5417 18.7971 39.5309C18.6459 39.5201 18.5002 39.5093 18.3598 39.4985C18.2194 39.4877 18.0791 39.4769 17.9387 39.4661C17.6472 39.4338 17.361 39.3852 17.0803 39.3205C16.4162 39.1748 15.7684 38.9321 15.0882 38.8026C14.3918 38.657 13.6791 38.6246 12.9665 38.5922C12.3672 38.5761 11.7356 38.5599 11.2497 38.8997C11.0392 39.0615 10.8772 39.2719 10.6343 39.3852C10.3913 39.5147 10.0998 39.5147 9.82449 39.5309C8.46403 39.5525 7.10353 39.5794 5.74307 39.6118C5.75926 39.4661 5.7917 39.3205 5.87268 39.2072C5.93747 39.1101 6.03461 39.0454 6.0832 38.9483C6.19657 38.7379 6.05086 38.4628 5.8889 38.2686C5.72694 38.0744 5.53255 37.864 5.53255 37.6051C5.54875 37.1843 6.0994 37.0063 6.32614 36.6503C6.56908 36.278 6.45571 35.7925 6.24516 35.4203C6.03461 35.0481 5.75933 34.6921 5.64596 34.2875C5.53258 33.8829 5.58116 33.4298 5.30582 33.1223C5.0143 32.8148 4.5122 32.8472 4.07491 32.8796C3.65382 32.9119 3.13551 32.8796 2.90877 32.5073C2.84399 32.3941 2.81162 32.2646 2.69825 32.1837C2.61727 32.1351 2.50393 32.119 2.40676 32.0866C1.8237 31.9086 1.74272 31.0671 1.19206 30.792C1.0139 30.6949 0.803321 30.6786 0.592773 30.7272C0.722341 30.3388 0.949117 29.9828 1.27304 29.74C1.4026 29.6268 1.51596 29.4973 1.58074 29.3355C1.7427 28.8823 1.43495 28.7367 1.2244 28.5101C0.754718 28.0408 0.787141 27.2802 0.851925 26.6167C0.868121 26.5196 0.88427 26.4063 0.96525 26.3577C1.04623 26.3092 1.14342 26.3415 1.2244 26.3577C1.96942 26.5357 2.68204 25.9855 3.2489 25.4515C3.99392 24.761 4.73898 24.0705 5.484 23.38C5.82411 23.0726 6.2128 22.7327 6.68248 22.668C6.99021 22.6194 7.33032 22.7165 7.65424 22.6518C8.15632 22.5385 8.51258 22.053 9.06325 22.0368C9.17662 22.0368 9.28999 22.053 9.38717 22.1177C9.88924 22.3929 9.64632 23.1535 9.97024 23.6066C10.2294 23.995 10.7963 24.0112 11.2821 23.9788C11.3793 23.9788 11.4926 23.9626 11.5736 23.8979C11.6546 23.817 11.6708 23.7037 11.687 23.5904C11.768 23.0888 12.0919 22.6518 12.3996 22.2472C13.2904 21.082 14.1489 19.7712 14.2298 18.2985C14.2622 17.8292 14.2136 17.3275 14.4889 16.9391C14.6347 16.7287 14.8453 16.5831 15.0234 16.4213C15.7522 15.7739 16.1409 14.8839 16.5944 14.0423C16.7725 13.7187 16.9507 13.4112 17.1775 13.1361C17.4204 12.8448 17.712 12.5859 17.9549 12.2946C18.4894 11.6796 19.0238 10.9028 18.959 10.0613C18.9428 9.76997 18.8457 9.49486 18.9105 9.21975C19.04 8.73425 19.6555 8.50768 19.8012 8.03837C19.8498 7.89272 19.8336 7.73088 19.8984 7.58523C20.0118 7.31011 20.3357 7.18067 20.6273 7.08357C21.0483 6.94332 21.4694 6.79764 21.8905 6.6466C22.0363 6.61423 22.182 6.54953 22.2792 6.43625C22.3764 6.33915 22.3926 6.19347 22.4249 6.04783C22.4789 5.77811 22.5329 5.50839 22.5869 5.23867C22.6517 4.99592 22.7003 4.7208 22.6679 4.46186C22.5707 3.8469 22.0201 3.42616 21.518 3.02158C21.0322 2.617 20.5462 2.06678 20.6596 1.45181C20.7082 1.1767 20.8702 0.950128 20.9187 0.675014C21.1887 0.631858 21.4586 0.604886 21.7285 0.594098C21.8905 0.594098 22.0524 0.577899 22.182 0.658815C22.263 0.707364 22.3278 0.772113 22.3926 0.836846C22.7003 1.20906 22.8461 1.67836 23.089 2.1153C23.3481 2.6008 23.7531 3.00538 24.0122 3.49087C24.3361 4.10583 24.4657 4.78556 24.5791 5.46525C24.6438 5.9993 24.5791 6.53331 24.4171 7.05118C24.3199 7.31011 24.2065 7.55289 24.1579 7.81182C24.0608 8.39441 24.2713 8.99317 24.5304 9.52721C24.7896 10.0774 25.1297 10.6277 25.648 10.9513C25.8586 11.0808 26.1176 11.2426 26.0853 11.4854C26.0691 11.6796 25.8585 11.7929 25.6641 11.8091C25.4698 11.8091 25.2754 11.7281 25.0973 11.6634C24.6924 11.5501 24.2551 11.5501 23.834 11.5501C23.1754 11.5609 22.5221 11.5663 21.8743 11.5663C21.5828 11.5825 21.2913 11.5825 21.0322 11.7119C20.5139 12.0032 20.4329 12.7639 20.692 13.2979C20.9512 13.832 21.4532 14.2042 21.9229 14.5602C22.3656 14.9054 22.8028 15.2561 23.2347 15.6121C23.6396 15.9681 24.0284 16.3403 24.4333 16.6964C24.6277 16.8582 24.8543 16.9715 25.0163 17.1819C25.1297 17.3275 25.2107 17.5055 25.2917 17.6997C25.4374 18.1043 25.5184 18.5251 25.6156 18.9297C25.729 19.3828 25.8909 19.8683 26.231 20.192C25.8099 20.4994 25.1621 20.6936 24.9515 21.163C24.7734 21.519 24.903 21.9559 24.8058 22.3443C24.7248 22.6356 24.5305 22.8945 24.3199 23.1211C23.8232 23.7037 23.3265 24.2917 22.8298 24.8851C22.5707 25.1926 22.2792 25.5324 22.2144 25.9532C22.1496 26.4063 22.3602 26.8594 22.5059 27.2964C22.7165 27.9113 22.8137 28.5587 22.7813 29.206C22.7489 29.6429 22.6841 30.0799 22.8623 30.4683C23.17 31.1156 24.0932 31.326 24.3199 32.0057C24.3847 32.2161 24.3685 32.4588 24.3847 32.6854C24.4333 33.8506 25.1621 34.9348 26.1177 35.6307C26.5712 35.9544 27.0894 36.2133 27.4619 36.6341C27.6401 36.8444 27.7859 37.1034 27.8345 37.3623C27.9154 37.686 28.1098 37.9449 28.3689 38.1067Z" fill="#F1F1F1" stroke="#BABABA" stroke-width="1.18548" stroke-linecap="round" stroke-linejoin="round"/>
</svg>
