<svg width="145" height="110" viewBox="0 0 145 110" fill="none" xmlns="http://www.w3.org/2000/svg">
<path d="M1.11184 57.2807C1.46815 57.8472 1.84066 58.4298 2.32654 58.8829C2.5047 59.0609 2.69902 59.2065 2.86098 59.3846C3.20109 59.7406 3.39545 60.2099 3.5898 60.6792C3.64378 60.8195 3.69777 60.9543 3.75176 61.0838C3.94611 61.6664 4.14048 62.249 4.33483 62.8316C4.51299 63.3656 4.69113 63.8997 4.88548 64.4337C5.06363 64.9354 5.25797 65.4533 5.59809 65.874C5.74385 66.052 5.90581 66.2139 6.00299 66.4081C6.10016 66.6023 6.11637 66.8127 6.18116 67.0069C6.37551 67.6542 6.94238 68.1073 7.25011 68.7061C7.76838 69.7418 7.44448 71.0365 7.99514 72.0398C8.10851 72.2502 8.25428 72.4282 8.31906 72.6548C8.38384 72.849 8.38384 73.0594 8.40004 73.2697C8.40004 73.6743 8.40002 74.3379 8.38383 74.7424C8.36763 75.2927 8.69152 75.8267 8.99924 76.3122C9.50672 77.089 10.0088 77.8658 10.5055 78.6426C10.6513 78.8691 10.797 79.0957 10.878 79.3546C11.0885 80.0505 10.7485 80.7787 10.5865 81.4746C10.376 82.3161 10.4083 83.2224 10.6675 84.0478C10.7485 84.3229 10.8456 84.6142 10.7485 84.8893C10.6675 85.0673 10.5055 85.213 10.3436 85.3424C9.96565 85.6337 9.59308 85.925 9.22597 86.2163C8.67531 86.6532 7.91411 86.9607 7.86552 87.7699C7.84933 88.1259 7.81697 88.66 7.89795 88.8056C8.44861 89.7604 9.7605 89.5986 10.5055 90.3107C11.1372 90.9094 11.1209 92.0423 11.8335 92.5439C12.2222 92.8352 12.7567 92.8352 13.2426 92.8352C15.1376 92.7705 17.0325 92.463 18.8465 91.929C19.4781 91.7348 20.1259 91.5082 20.5956 91.0551C20.8061 90.8609 20.9843 90.6343 21.2272 90.4563C21.8427 89.987 23.0898 90.0355 23.7376 89.631C24.353 89.2588 24.3045 88.5629 24.8875 88.1583C25.4058 87.7861 26.0374 87.7051 26.6691 87.6242C27.3655 87.5433 28.0619 87.4462 28.7746 87.4948C30.378 87.5919 31.9651 88.3525 33.52 87.9803C34.4161 88.0558 35.3123 88.1313 36.2085 88.2068C37.0507 88.2878 37.9415 88.3363 38.6703 87.9155C40.0308 87.1064 40.0955 85.035 41.375 84.0963C42.4602 83.3033 44.0636 83.5946 45.1487 82.8017C45.667 82.4133 46.0071 81.8145 46.574 81.5394C46.9627 81.3614 47.4162 81.3452 47.8373 81.329C49.0358 81.2966 50.2288 81.2642 51.4165 81.2319C52.2263 81.1995 53.0523 81.1833 53.7812 80.8435C54.7367 80.4065 55.5142 79.4841 56.5507 79.5165V79.565C57.0366 79.5003 57.5225 79.5165 58.0083 79.5003C60.3892 79.4679 62.7214 78.8368 65.086 78.8044C66.0092 78.772 67.0295 78.9015 67.6612 79.565C67.8879 79.824 68.066 80.1314 68.3576 80.3256C69.1674 80.8273 70.2687 79.9858 71.1595 80.3094C71.5806 80.4713 71.8883 80.8759 72.3094 81.0539C72.5685 81.1672 72.86 81.1995 73.1192 81.2804C73.8156 81.4746 74.3501 81.9925 74.8522 82.4942C74.9817 82.6398 75.1275 82.7855 75.2085 82.9797C75.2895 83.19 75.2732 83.4166 75.3056 83.6432C75.3542 83.8859 75.4514 84.1125 75.581 84.3067C76.326 84.6627 76.9901 85.1644 77.5407 85.7632C77.6703 85.9088 77.7837 86.0545 77.8646 86.2163C77.9132 86.3619 77.9456 86.54 77.9942 86.6856C78.1723 87.252 78.6906 87.689 78.8364 88.2554C78.885 88.482 78.885 88.7085 78.9012 88.9513C78.9822 89.9546 79.549 90.8609 80.1159 91.7186C80.1969 91.848 80.2778 91.9613 80.4074 92.0584C80.6017 92.1879 80.8447 92.1717 81.0714 92.1717C81.2982 92.1609 81.5195 92.1501 81.7355 92.1394C81.8812 92.1394 82.0432 92.1232 82.1728 92.0422C82.351 91.929 82.4157 91.7186 82.4157 91.5082C82.4319 91.2978 82.3833 91.0874 82.3995 90.8771C82.4319 90.5372 82.6263 90.2297 82.8692 89.9708C83.0959 89.728 83.4199 89.5501 83.7114 89.3559C84.1487 89.0322 84.5859 88.66 84.9585 88.2554C85.088 88.0936 85.2176 87.9479 85.3634 87.8185C85.5253 87.6728 85.7035 87.5595 85.8654 87.4462C86.0598 87.306 86.2433 87.1657 86.4161 87.0255C86.5133 86.9445 86.6267 86.8474 86.7077 86.7342C86.7887 86.6371 86.8372 86.5076 86.902 86.3943C87.1287 85.9412 87.3717 85.5042 87.7118 85.1158C87.8737 84.954 88.0357 84.7922 88.2463 84.7275C88.4568 84.6627 88.7321 84.6951 88.8617 84.8731C88.9751 85.0349 88.9751 85.2291 88.9427 85.4071C88.8941 85.8764 88.6998 86.3134 88.4082 86.6856C88.1653 86.9769 87.8576 87.2197 87.6632 87.5595C87.3069 87.8832 86.902 88.2554 86.821 88.7409C86.7238 89.2911 87.0802 89.9223 86.7724 90.3916C86.6267 90.602 86.3999 90.7152 86.1732 90.8447C85.7197 91.1198 85.2986 91.4596 84.9585 91.8804C84.7479 92.1232 84.5536 92.463 84.6507 92.7705C84.6993 92.8676 84.7642 92.9647 84.8451 93.0294C85.2176 93.3855 85.8168 93.3531 86.3189 93.2883C86.8048 93.2236 87.2907 93.1589 87.6956 92.9C87.8575 92.819 87.9871 92.6896 88.1167 92.5763C88.4406 92.2688 88.7646 91.9452 88.8941 91.5244C89.0075 91.1522 88.9751 90.7314 89.1046 90.3592C89.1694 90.1974 89.299 90.0194 89.4771 90.0355C89.5743 90.0517 89.6391 90.1003 89.7039 90.1488C89.8875 90.2783 90.044 90.4293 90.1736 90.602C90.2546 90.6829 90.3032 90.7638 90.3356 90.8771C90.368 90.958 90.3679 91.0551 90.3679 91.1522C90.3841 91.7509 90.4003 92.3659 90.2384 92.9485C90.1574 93.256 90.0116 93.5635 90.0602 93.8872C90.0764 94.1461 90.3031 94.405 90.5461 94.4374C91.1291 94.5992 91.7932 94.3079 92.3438 94.583C92.522 94.6801 92.684 94.8419 92.8297 95.0038C93.3966 95.6026 93.9635 96.2175 94.4818 96.8648C94.5951 97.0105 94.7085 97.1562 94.7732 97.318C94.838 97.4636 94.8542 97.6093 94.919 97.7387C94.9676 97.8358 95.0486 97.9329 95.0972 98.0462C95.2267 98.3213 95.1458 98.645 95.0324 98.9201C94.919 99.2114 94.7733 99.4865 94.7895 99.794C94.7895 100.085 94.919 100.344 95 100.619C95.0486 100.765 95.0648 100.927 95.1134 101.089C95.2591 101.639 95.664 102.076 96.0527 102.48C96.6844 103.144 97.4941 103.597 98.3039 104.018C99.2001 104.503 100.102 104.983 101.009 105.458C101.138 105.539 101.268 105.604 101.414 105.636C101.689 105.717 101.997 105.652 102.288 105.701C102.483 105.733 102.661 105.798 102.855 105.863C103.584 106.089 104.377 106.057 105.155 106.025C105.511 106.008 105.9 105.992 106.24 106.138C106.645 106.332 106.904 106.737 107.179 107.076C107.471 107.449 107.86 107.789 108.329 107.756C109.236 107.821 110.143 107.432 110.84 106.85C111.536 106.283 112.054 105.555 112.54 104.811C112.718 104.552 113.026 104.261 113.253 104.52C113.382 104.633 113.399 104.843 113.318 104.989C112.945 105.685 113.561 106.364 114.208 106.591C114.775 106.801 115.407 106.817 115.958 107.044C116.298 107.174 116.589 107.384 116.881 107.594C117.41 107.961 117.939 108.333 118.468 108.711C118.598 108.792 118.727 108.889 118.889 108.889C119.002 108.889 119.116 108.824 119.213 108.759C119.78 108.42 120.25 107.918 120.525 107.319C120.638 107.076 120.719 106.834 120.849 106.623C121.124 106.219 121.578 105.96 121.885 105.604C122.096 105.41 122.306 105.232 122.517 105.037C123.084 104.714 123.521 104.147 124.137 103.856C124.493 103.678 124.898 103.597 125.303 103.532C126.517 103.338 127.732 103.257 128.947 103.192C129.562 103.079 130.259 103.468 130.826 103.192C131.149 103.014 131.344 102.642 131.457 102.286C132.154 100.296 131.813 98.0786 132.429 96.0719C132.947 94.3727 134.146 92.819 134.049 91.0389C134.032 90.6829 133.951 90.3107 134.113 89.987C134.372 89.4044 135.198 89.3073 135.603 88.8218C135.814 88.5791 135.895 88.2716 135.992 87.9641C136.316 86.8798 136.769 85.8279 137.352 84.8569C137.633 84.393 137.93 83.9453 138.243 83.5137C138.88 82.6398 139.582 81.8252 140.349 81.07C140.98 80.4389 141.061 79.4032 141.482 78.5778C141.725 78.0923 142.098 77.6716 142.292 77.1699C142.6 76.3769 142.454 75.5192 142.454 74.6777C142.454 73.7067 142.665 72.7357 143.07 71.8456C143.248 71.441 143.475 71.0527 143.539 70.6157C143.604 70.1626 143.475 69.6933 143.507 69.2239C143.539 68.5766 143.863 67.994 144.09 67.3952C144.56 66.1329 144.544 64.5956 143.604 63.5598C143.41 63.3333 143.28 63.042 143.248 62.7345V62.7021C142.908 62.0224 142.665 61.3104 142.6 60.5659C142.551 60.0966 142.584 59.6273 142.616 59.158C142.681 58.1708 142.73 57.1675 143.005 56.2127C143.28 55.2902 143.734 54.384 143.637 53.4453C143.62 53.1864 143.539 52.9275 143.361 52.7171C143.199 52.5229 142.908 52.4096 142.665 52.5067C142.325 52.62 142.195 53.0407 142.163 53.3968C142.13 53.6072 142.049 53.8661 141.855 53.8661C141.758 53.8661 141.677 53.8175 141.612 53.769C140.899 53.2511 140.3 52.5876 139.879 51.827C139.652 51.4386 139.474 51.0017 139.183 50.678C138.972 50.4515 138.729 50.2734 138.486 50.0954C137.725 49.529 136.948 48.9788 136.122 48.5257C135.717 48.2991 135.296 48.0887 135.036 47.7165C134.632 47.1339 134.745 46.3409 134.648 45.645C134.583 45.2405 134.518 44.8035 134.372 44.4151C134.227 44.0591 133.919 43.7678 133.563 43.6383C133.336 43.5574 133.109 43.4765 132.947 43.3632C132.64 43.169 132.251 43.0072 131.895 43.1043C131.587 43.1852 131.328 43.4279 131.004 43.4603C130.761 43.4765 130.534 43.3794 130.356 43.2176C130.178 43.0719 130.048 42.8777 129.919 42.6674C129.773 42.4246 129.643 42.1818 129.546 41.9067C129.319 41.227 129.481 40.0457 129.141 39.4145C128.866 38.8967 128.526 38.5244 128.121 38.1037C127.764 37.7314 127.441 37.2783 127.554 36.6472C127.586 36.2102 127.538 35.7571 127.424 35.3202C127.392 35.1745 127.327 35.0127 127.23 34.8994C127.117 34.77 126.955 34.7052 126.809 34.6567C126.388 34.5056 125.956 34.3923 125.513 34.3168C125.254 34.2683 124.995 34.2359 124.784 34.0903C124.655 33.9932 124.574 33.8475 124.444 33.7504C124.234 33.54 123.958 33.4429 123.732 33.2487C123.44 32.9898 123.294 32.5852 122.97 32.3586C122.501 32.0188 121.837 32.1645 121.318 31.9379C121.108 31.8408 120.93 31.6951 120.752 31.5495C120.514 31.3445 120.271 31.1395 120.023 30.9345C119.877 30.8213 119.747 30.708 119.65 30.5623C119.521 30.3681 119.44 30.1415 119.31 29.9312C119.132 29.6399 118.824 29.4133 118.711 29.0735C118.614 28.8307 118.614 28.5556 118.484 28.329C118.387 28.1834 118.241 28.0863 118.128 27.9568C117.723 27.5522 117.61 26.824 117.885 26.3223C118.16 25.7721 118.16 25.0277 117.917 24.4613C117.512 23.555 116.557 23.0695 115.925 22.2927C115.828 22.1794 115.747 22.0661 115.699 21.9367C115.601 21.6616 115.666 21.3541 115.65 21.0628C115.617 20.7391 115.472 20.4155 115.407 20.0918C115.277 19.493 115.391 18.8619 115.326 18.2469C115.261 17.5672 114.986 16.9037 114.532 16.3858C114.338 16.1754 114.095 15.9975 113.998 15.7223C113.706 15.2692 113.366 14.8323 113.075 14.3791C112.864 14.0716 112.654 13.7641 112.346 13.5861C111.844 13.311 111.245 13.4081 110.678 13.4567C110.127 13.5052 109.463 13.4567 109.155 12.9874C108.961 12.7284 108.945 12.3886 108.88 12.0649C108.718 11.0292 108.88 10.0906 108.686 9.05483C108.588 8.47224 107.892 7.84112 107.714 7.25852C107.293 5.85059 106.742 5.00904 106.71 3.55255C106.694 2.95377 106.046 2.09609 105.787 1.56205C105.576 1.1251 105.365 0.898529 104.977 0.623415C104.88 0.574865 104.572 0.591048 104.491 0.623415C104.394 0.655781 104.264 0.72049 104.215 0.801406C103.503 1.74003 103.357 2.98616 102.806 4.02188C102.531 4.55593 102.142 5.02523 101.98 5.59165C101.786 6.20661 101.851 6.85394 101.883 7.50127C101.894 8.11623 101.862 8.73118 101.786 9.34614C101.721 9.81545 101.576 10.2848 101.381 10.7217C101.09 11.4338 101.09 12.2591 101.235 13.0359C101.381 13.9745 101.478 14.9455 101.527 15.8842C101.657 17.6481 101.138 19.2664 100.458 20.8848C100.183 21.5645 99.9073 22.228 99.6806 22.9077C99.3729 23.8463 99.1138 24.8335 98.3526 25.5455C98.1258 25.7721 97.8343 25.9339 97.5266 26.031C96.0851 26.4194 95.2267 24.9791 94.0444 24.4451C93.8015 24.3318 93.6071 24.1376 93.5585 23.8625C93.4452 23.2475 94.174 23.0695 94.7085 22.8915C95.081 22.762 95.4373 22.5516 95.6478 22.2118C95.8422 21.8719 95.8584 21.4026 95.5993 21.1113C95.3563 20.8362 94.9514 20.7553 94.6113 20.8362C94.255 20.9171 93.9634 21.1275 93.6881 21.3541C92.9755 21.9367 92.3276 22.6811 91.4206 22.762C90.3031 22.8753 89.7039 21.8072 89.0399 20.901C88.6836 20.4155 88.0195 20.0109 87.5175 19.671C87.2583 19.493 86.9344 19.3635 86.74 19.1046C86.5295 18.8457 86.4647 18.5058 86.2056 18.2793C86.0922 18.1822 85.9302 18.1336 85.7845 18.1822C85.4929 18.2631 85.5577 18.4896 85.4605 18.6515C85.3634 18.7971 85.1852 18.8457 85.0232 18.8457C83.8895 18.878 83.5008 17.551 82.5453 16.9361C81.8974 16.4991 80.6504 16.2725 80.618 15.4958C80.6018 15.2692 80.6827 15.0588 80.7637 14.8484C81.0229 14.0716 81.3144 13.2786 81.8974 12.6961C82.0594 12.5342 82.2375 12.3724 82.3509 12.162C82.5938 11.6604 82.2538 10.9806 82.5777 10.5275C82.6425 10.4304 82.7396 10.3657 82.8368 10.3171C83.2903 10.0906 83.9219 10.4142 84.3106 10.0906C84.7155 9.75073 84.424 9.03867 84.6832 8.55318C84.8613 8.19715 85.2986 8.05148 85.5253 7.72782C85.8006 7.33942 85.7035 6.8054 85.5901 6.33609C85.4443 5.68876 85.2014 4.94433 84.505 4.8796C84.3754 4.70159 84.0677 4.73393 83.8895 4.89576C83.7113 5.05759 83.6142 5.30035 83.4685 5.51073C83.3389 5.68875 83.1284 5.85058 83.0636 6.07714C82.9826 6.30371 83.0311 6.59499 82.8368 6.70827C82.7072 6.773 82.529 6.70828 82.4319 6.595C82.3509 6.4979 82.3024 6.35224 82.2538 6.22277C82.1566 5.87753 82.054 5.53772 81.946 5.20327C81.865 4.92815 81.7679 4.63683 81.3468 4.65301C81.201 4.65301 81.0552 4.70156 80.9095 4.76629C79.8405 5.3327 78.5934 5.75348 77.4273 5.42981C77.0062 5.31653 76.6176 5.10617 76.1803 5.04143C75.8402 4.9767 75.4677 5.00904 75.1275 4.89576C74.917 4.81485 74.7226 4.6692 74.512 4.53974C73.848 4.08661 73.103 3.73059 72.3742 3.37456C72.0665 3.22891 71.6939 3.08326 71.4186 3.29364C71.3214 3.37456 71.2566 3.48785 71.1919 3.58495C70.625 4.55594 69.8314 5.3651 68.8759 5.93151C68.6815 6.23899 68.3252 6.28753 68.0013 6.28753C67.5586 6.29832 67.1213 6.26057 66.6894 6.17426C66.5113 6.14189 66.3331 6.09332 66.1549 6.1095C65.9282 6.12568 65.7338 6.2228 65.5233 6.28753C65.3127 6.33608 65.1022 6.35227 64.8916 6.41701C64.3086 6.57884 63.8389 6.99958 63.353 7.32324C62.9805 7.61454 62.6242 7.88965 62.2193 8.1324C61.863 8.43988 61.3123 8.69881 61.1341 9.18431C61.0046 9.50797 61.0694 9.86401 61.037 10.2039C60.9884 10.7379 60.7131 11.2234 60.3568 11.628C60.0004 12.0326 59.547 12.34 59.1421 12.6799C58.8181 12.9712 58.5104 13.5214 58.4295 13.7318C58.3323 13.9422 58.2999 14.2011 58.397 14.4115C58.6076 14.897 59.3526 15.0102 59.4822 15.5281C59.5308 15.7223 59.4822 15.9165 59.4012 16.1107C59.385 16.1593 59.3526 16.224 59.304 16.2564C59.2392 16.3211 59.1258 16.3373 59.0287 16.3211C58.7047 16.2887 58.4133 16.0622 58.1217 15.9003C57.8788 15.787 57.6359 15.7385 57.3929 15.6414C57.0042 15.4958 56.5831 15.253 56.1782 15.3501C55.8705 15.431 55.6438 15.6576 55.4494 15.868C55.3036 16.0136 55.1255 16.1755 54.9311 16.1593C54.6882 16.1431 54.5586 15.868 54.4938 15.6252C54.3966 15.2692 54.5262 14.8646 54.2995 14.5571C54.1375 14.3467 53.846 14.1687 53.6678 13.9583C53.5221 13.7803 53.3115 13.6023 53.1658 13.4081C53.0038 13.2139 52.7932 13.0683 52.5827 12.9226C52.3343 12.75 52.086 12.5774 51.8377 12.4048C51.4328 12.1297 50.9631 11.6118 50.4772 11.6603C50.2505 11.6603 49.9751 11.7898 49.7322 11.9354C49.5378 12.0487 49.2949 12.1296 49.1815 12.34C49.1653 12.3724 49.1492 12.4048 49.133 12.4209C49.1006 12.4371 49.0844 12.4371 49.052 12.4371C48.7929 12.4533 48.5499 12.3238 48.307 12.2106C48.064 12.1296 47.7887 12.0649 47.5619 12.1944C47.4486 12.2429 47.3675 12.3562 47.2866 12.4695C47.0922 12.7446 46.9627 13.0683 46.9141 13.4081C46.8979 13.4891 46.8979 13.57 46.8493 13.6347C46.8277 13.6563 46.8061 13.6779 46.7845 13.6994C46.6712 13.7804 46.5578 13.8451 46.4282 13.8936C45.9099 14.0878 45.748 13.7318 45.5698 13.4567C45.4403 13.2949 45.2459 13.1168 45.0515 13.1815C44.8734 13.2139 44.7762 13.4081 44.7276 13.57C44.6143 13.8774 44.5333 14.2173 44.258 14.3953C44.096 14.5086 43.8854 14.5571 43.7721 14.7028C43.6587 14.8484 43.6749 15.0264 43.6425 15.2044C43.5939 15.5928 43.3995 15.9813 43.0918 16.2402C42.8813 16.4182 42.6545 16.5477 42.4602 16.7418C42.3306 16.8875 42.2497 17.0493 42.1525 17.2273C41.7962 17.8423 41.4074 18.4087 40.9863 18.9913C40.8568 19.3959 40.3709 19.5092 40.0308 19.7843C39.804 19.9785 39.6097 20.2374 39.3505 20.3831C38.897 20.5934 38.2816 20.4316 37.9901 20.9171C37.8767 21.079 37.8606 21.2732 37.8768 21.4674C37.9253 21.9205 38.2006 22.2603 38.395 22.6487C38.5407 22.9562 38.6542 23.3284 38.5246 23.6521C38.4922 23.7492 38.4274 23.8463 38.3302 23.8949C38.233 23.9434 38.0872 23.9272 37.9739 23.9272C37.8929 23.9272 37.8119 23.911 37.7309 23.8949C36.9373 23.7007 37.1479 23.118 37.0507 22.6487C36.9698 22.3089 36.7106 22.0338 36.4677 21.7748C36.4029 21.7101 36.3381 21.6292 36.2409 21.5968C36.079 21.5321 35.8846 21.613 35.7551 21.7425C35.6255 21.8719 35.5445 22.05 35.4311 22.1956C35.1072 22.6487 34.5727 22.8753 34.103 23.1666C33.6172 23.4417 33.1475 23.8301 33.0665 24.3803C33.0179 24.7364 33.1475 25.0924 33.0665 25.4323C33.0989 25.7236 33.1151 25.9825 33.1313 26.2738C33.3904 26.8564 33.2933 27.5846 32.9045 28.0863C32.694 28.3452 32.4025 28.5556 32.1757 28.7983C31.8032 29.1867 31.5441 29.6884 31.4631 30.2225C31.4307 30.4328 31.4307 30.6432 31.3335 30.8374C31.1715 31.0964 30.8638 31.2258 30.6209 31.42C30.3618 31.6304 30.1836 31.9217 29.9568 32.1644C29.6815 32.4557 29.3414 32.6661 28.9851 32.8765C28.4344 33.2164 27.8514 33.5562 27.2522 33.7828C26.9768 34.0579 26.5881 34.074 26.2318 34.1388C25.8269 34.2197 25.4544 34.3977 25.0495 34.4948C23.6566 34.8347 22.1018 34.333 20.7738 34.8994C20.5956 34.9803 20.4175 35.0774 20.2231 35.1098C20.0126 35.1583 19.802 35.126 19.6076 35.1422C19.2999 35.1907 19.0246 35.3687 18.7978 35.6115C18.6521 35.7733 18.5387 35.9675 18.4253 36.1617C18.2958 36.7119 18.15 37.4078 17.6318 37.6829C17.1945 37.9257 16.6599 37.7962 16.1903 37.6344C15.5262 37.424 14.8622 37.1651 14.1658 37.0842C13.4693 37.0194 12.7082 37.1489 12.1899 37.6182C12.0117 37.7638 11.866 37.958 11.704 38.1199C11.5259 38.3141 11.3153 38.4597 11.1047 38.6054C10.3921 39.107 9.67949 39.6087 8.93448 40.0456C8.61056 40.2237 8.28662 40.4017 8.02748 40.6606C7.80074 40.8872 7.65502 41.1623 7.42828 41.3889C7.03958 41.7773 6.39172 42.02 6.27835 42.5702C6.22976 42.7806 6.22974 43.0719 6.0192 43.1204C5.88963 43.1528 5.76006 43.0557 5.69528 42.9425C5.64669 42.8292 5.63051 42.6997 5.63051 42.5702C5.61971 42.0416 5.60888 41.5076 5.59809 40.9681C5.59809 40.9196 5.59812 40.8548 5.54953 40.8063C5.50094 40.7577 5.43614 40.7577 5.37136 40.7577C4.77211 40.8063 4.18908 41.13 3.86516 41.6154C3.7032 42.0848 3.39543 42.4893 3.16869 42.9263C2.94194 43.3794 2.7638 43.8811 2.86098 44.3666C2.99055 45.0463 3.58983 45.5641 3.7032 46.2277C3.78418 46.6808 3.62219 47.1339 3.42784 47.5385C3.21729 47.9916 2.94194 48.4286 2.60183 48.817C2.14834 49.1568 1.98639 49.7556 2.05118 50.3058C2.11596 50.8237 2.34267 51.293 2.58561 51.7461C2.84475 52.183 3.12008 52.62 3.31443 53.0893C3.41161 53.2997 3.47639 53.5101 3.55737 53.7043C3.70314 54.0279 3.89755 54.303 4.1081 54.5782C4.38343 54.9666 4.6587 55.3549 5.01501 55.6624C5.20937 55.8243 5.43611 55.9699 5.58187 56.1803C5.77623 56.4554 5.82488 56.8762 5.48476 57.0704C5.339 57.1351 5.17699 57.1513 5.03123 57.1028C4.64252 56.9895 4.41579 56.682 4.15666 56.4069C4.01089 56.245 3.81654 56.0994 3.5898 56.1156C3.55741 56.1156 3.50885 56.1318 3.46026 56.1641C3.36309 56.245 3.42782 56.423 3.49261 56.5525C3.63837 56.86 3.68696 57.1837 3.65457 57.5073C3.63837 57.6692 3.42781 57.7339 3.31443 57.6206C2.55862 56.8007 1.83522 55.9483 1.14419 55.0637C1.0956 54.9989 1.047 54.9342 0.966015 54.9342C0.901231 54.9342 0.852659 54.9989 0.820267 55.0475C0.658307 55.2741 0.593539 55.5168 0.593539 55.7919C0.577343 56.3583 0.820315 56.8114 1.11184 57.2807Z" fill="#F1F1F1" stroke="#BABABA" stroke-width="1.18548" stroke-linecap="round" stroke-linejoin="round"/>
</svg>
