<svg width="39" height="34" viewBox="0 0 39 34" fill="none" xmlns="http://www.w3.org/2000/svg">
<path d="M37.6396 22.8715C37.4614 23.0495 37.3642 23.3084 37.3966 23.5673C37.4128 23.6159 37.4128 23.6806 37.4452 23.713C37.4776 23.7616 37.5262 23.7777 37.5586 23.8101C37.7421 23.9395 37.9257 24.069 38.1092 24.1985V32.5814C37.51 32.2092 37.267 31.3838 36.6516 31.0116C36.2845 30.5908 35.9174 30.1647 35.5503 29.7331C35.3721 29.5389 35.2102 29.3448 34.9997 29.1829C34.6919 28.924 34.3194 28.7783 33.9145 28.7298C33.7039 28.7136 33.4772 28.7136 33.2504 28.7298C32.9265 28.7514 32.5972 28.7676 32.2625 28.7784C32.0357 28.7945 31.809 28.8107 31.6146 28.924C31.4527 29.0211 31.3393 29.1829 31.2097 29.3124C30.902 29.5875 30.4809 29.7008 30.076 29.7817C29.6009 29.8896 29.1205 29.9597 28.6346 29.9921C28.2135 29.7817 27.7115 29.7817 27.2256 29.7493C26.934 29.717 26.5939 29.6684 26.4481 29.4095C26.3024 29.1829 26.3996 28.8916 26.4805 28.6327C26.6911 28.0501 26.9016 27.4675 27.2417 26.9658C27.3875 26.7554 27.5495 26.545 27.7762 26.3994C27.922 26.3185 28.0839 26.2537 28.2459 26.2052C28.586 26.0757 28.9423 25.9625 29.2986 25.8815C29.7359 25.7844 30.2542 25.7359 30.4809 25.3313C30.6429 25.2019 30.6753 24.9429 30.6753 24.7164C30.6753 24.5653 30.6753 24.4143 30.6753 24.2632C30.6753 24.1823 30.6753 24.1014 30.6429 24.0205C30.6105 23.9396 30.5619 23.8587 30.4971 23.7939C29.8277 23.0063 29.2068 22.1918 28.6346 21.3502H28.6184C28.4564 20.6382 28.2621 19.8776 27.6952 19.4083C27.5657 19.295 27.4199 19.2141 27.2903 19.1008C26.9988 18.8419 26.8369 18.4858 26.5777 18.2107C26.0271 17.6119 25.1524 17.4339 24.3426 17.4339C23.9539 17.4339 23.5652 17.4663 23.1927 17.3854C22.3019 17.175 21.638 16.3982 20.7472 16.2364C20.4557 16.1878 20.1641 16.204 19.8725 16.204C19.3975 16.2148 18.9278 16.177 18.4635 16.0907C18.0424 15.8965 17.6376 15.6376 17.265 15.3139C17.1517 15.2168 17.0383 15.1197 16.9087 15.0226C16.7791 14.9417 16.6496 14.877 16.5038 14.8122C15.5482 14.3915 14.4793 14.1002 13.8152 13.3072C13.6209 13.0806 13.4104 12.7893 13.1189 12.8217C13.0217 12.8379 12.9407 12.8864 12.8597 12.935C12.5034 13.1454 12.1795 13.4205 11.9204 13.7603C11.807 13.8898 11.726 14.0354 11.5964 14.1487C11.3211 14.3915 10.9324 14.4886 10.576 14.5209C10.3007 14.5533 9.99301 14.5533 9.78246 14.3915C9.53952 14.2135 9.44233 13.8898 9.44233 13.5985C9.44233 13.291 9.50711 12.9997 9.52331 12.7084C9.52331 12.4171 9.45857 12.0935 9.24802 11.8993C9.15085 11.8669 9.06985 11.8345 9.06985 11.8345C8.42201 11.5432 7.96854 10.9283 7.38549 10.5399C7.17494 10.3942 6.94818 10.281 6.80241 10.0868C6.64045 9.89257 6.59183 9.58505 6.76999 9.40704C6.91575 9.27757 7.12629 9.26141 7.32064 9.26141C7.73094 9.27219 8.14125 9.27761 8.55155 9.27761C8.81069 9.27761 9.05364 9.29376 9.29658 9.24521C9.53952 9.19666 9.76626 9.08341 10.0254 9.03486C10.3169 8.95394 10.6409 8.95393 10.9486 8.90538C11.3535 8.85683 11.7259 8.72734 12.0985 8.59788C12.2604 8.54933 12.4386 8.50081 12.5682 8.38753C12.714 8.29043 12.8111 8.12857 12.8111 7.95055C12.7949 7.67544 12.471 7.49745 12.1956 7.4489C11.1753 7.27088 10.2197 8.06384 9.18318 8.16094C8.76208 8.19331 8.34102 8.11242 7.91992 8.06387C7.67698 8.04768 7.41783 8.04768 7.17489 7.98295C6.64042 7.8373 6.20311 7.36797 6.10594 6.83393C6.07355 6.68828 6.07361 6.54261 6.00883 6.41315C5.84687 5.99239 5.32859 5.83056 4.87511 5.81438C4.42162 5.78201 3.85476 5.74967 3.49845 5.47455C3.23931 5.26417 2.89915 5.02141 2.64001 4.81103C2.41327 4.6492 2.20277 4.47118 2.04081 4.24462C1.91124 4.08278 1.83021 3.88859 1.66825 3.75912C1.37672 3.48401 0.874696 3.484 0.664148 3.14415C0.469796 2.82049 0.696525 2.36737 1.05284 2.22172C1.40915 2.09225 1.81402 2.18935 2.15413 2.38355C2.33229 2.48065 2.4943 2.6101 2.68865 2.69101C2.99637 2.82048 3.33642 2.85285 3.67654 2.85285C3.80611 2.86903 3.93571 2.85285 4.03288 2.77193C4.13006 2.7072 4.17863 2.57776 4.25961 2.48066C4.43777 2.28647 4.74551 2.33502 5.00464 2.31883C5.36095 2.28647 5.68491 2.12463 6.00883 1.94661C6.41373 1.72005 6.83477 1.49347 7.17489 1.16981C7.32065 1.02416 7.4664 0.862329 7.64456 0.765229C7.83891 0.651947 8.06565 0.619581 8.2924 0.603398C8.43816 0.587214 8.61638 0.58723 8.76215 0.619597C8.90791 0.651963 9.02127 0.732871 9.15083 0.813787C9.38837 0.96483 9.6259 1.11588 9.86344 1.26692C10.2683 1.63914 10.8352 1.72004 11.3696 1.73622C11.8717 1.73622 12.3576 1.70386 12.8435 1.78478C13.3294 1.86569 13.8153 2.12463 14.0258 2.56158C14.1716 2.90143 14.2363 3.27364 14.3659 3.61349C14.4955 3.96952 14.6413 4.32554 14.5927 4.69775C14.5765 4.79485 14.5603 4.89195 14.5441 5.02142C14.5279 5.1347 14.4631 5.32889 14.4307 5.45836C14.285 6.39698 14.1878 7.30323 14.625 8.16094C14.7222 8.35514 14.8356 8.53317 14.9976 8.66264C15.192 8.80828 15.4349 8.85683 15.6454 8.9863C16.0341 9.22905 16.2123 9.71454 16.2123 9.71454C16.2447 9.86019 16.2285 10.022 16.2609 10.1838C16.2771 10.3942 16.4552 10.5561 16.6172 10.7179C16.8601 10.9445 17.1192 11.1872 17.4431 11.2681C17.5727 11.3167 17.7023 11.3167 17.8319 11.3167C18.415 11.3167 19.0304 11.0092 19.2409 10.4589C19.3219 10.2647 19.3381 10.0544 19.4515 9.89254C19.7106 9.47177 20.3423 9.45559 20.65 9.08337C20.7796 8.90536 20.8443 8.67881 21.0063 8.53316C21.152 8.38751 21.3626 8.3228 21.557 8.2257C21.7351 8.1286 21.9133 7.95056 21.8809 7.75636C21.8647 7.59453 21.7351 7.48126 21.6217 7.40034C21.3464 7.23851 21.0225 7.1576 20.7148 7.04432C20.1803 6.85012 19.7106 6.55881 19.3057 6.1866C19.1599 6.05713 19.0304 5.91149 18.8684 5.83058C18.6255 5.71729 18.3177 5.73348 18.0262 5.74966C17.7185 5.74966 17.3622 5.70109 17.1841 5.44216C17.1193 5.31269 17.0383 5.18323 17.0221 5.03758C17.0059 4.94048 17.0382 4.8272 17.1192 4.76247C17.1678 4.7301 17.2326 4.71391 17.2812 4.71391C17.4917 4.69773 17.6861 4.79486 17.8967 4.82723C18.172 4.89196 18.4473 4.87577 18.7388 4.85959C18.8846 4.85959 19.0466 4.85958 19.1923 4.89194C19.3381 4.92431 19.4838 4.98903 19.6458 5.03758C20.0021 5.13468 20.3908 5.06994 20.7633 5.11849C21.0224 5.15086 21.2816 5.23177 21.5408 5.28032C21.6379 5.28032 21.7513 5.29653 21.8485 5.34508C21.9295 5.37745 21.9942 5.44216 22.059 5.49071C22.4315 5.71728 22.9336 5.55544 23.3709 5.60399C23.4033 5.62017 23.4519 5.62018 23.4843 5.65255C23.5167 5.66873 23.5329 5.71729 23.5491 5.74966C23.6624 6.04096 23.6624 6.3808 23.5328 6.6721C23.5005 6.76919 23.4519 6.88249 23.5328 6.93104C23.549 6.96341 23.5976 6.9634 23.63 6.9634C24.1645 7.01195 24.699 6.76919 25.0229 6.34843C25.3792 5.8953 25.525 5.19942 26.0432 4.9243C26.2862 4.77865 26.5939 4.71393 26.8854 4.73011C27.177 4.74629 27.4523 4.81103 27.7438 4.89194C28.1163 4.98904 28.4888 5.08614 28.8128 5.29652C28.9747 5.39362 29.1204 5.52308 29.2662 5.65255C29.7035 5.99239 30.2056 6.26753 30.7401 6.44555C31.0154 6.52646 31.3069 6.60738 31.5499 6.76921C31.6794 6.86631 31.7766 6.96339 31.89 7.07667C32.4245 7.56217 33.1857 7.83729 33.8983 7.85348C34.5785 7.85348 35.3073 7.86965 35.9875 7.88583C36.1333 7.88583 36.2629 7.88583 36.4087 7.91819C36.6516 7.98293 36.8459 8.16096 36.9593 8.38753C37.0403 8.53318 37.0727 8.72736 37.1861 8.85683C37.3805 9.08339 37.7044 9.0834 37.9797 9.06722C38.0229 9.06722 38.066 9.06181 38.1092 9.05102V22.5802C37.9311 22.6449 37.7691 22.742 37.6396 22.8715Z" fill="#F1F1F1" stroke="#BABABA" stroke-width="1.18548" stroke-linecap="round" stroke-linejoin="round"/>
</svg>
