<svg width="11" height="18" viewBox="0 0 11 18" fill="none" xmlns="http://www.w3.org/2000/svg">
<path d="M9.79208 9.81719C9.75969 10.0977 9.7327 10.3782 9.7111 10.6587L9.53293 12.8111C9.46815 12.714 9.37096 12.6492 9.27378 12.6816C9.16041 12.714 9.1118 12.8273 9.09561 12.9244C9.03082 13.2157 9.06326 13.5717 8.82032 13.7659C8.72315 13.8468 8.56114 13.8792 8.44777 13.9601C8.25342 14.0734 8.14003 14.3161 8.10764 14.5427C8.09144 14.7692 8.12386 14.9958 8.14006 15.2386C8.20484 15.9506 8.02669 16.776 7.41124 17.132C7.36265 17.1482 7.33023 17.1644 7.29784 17.1644C7.21686 17.1806 7.1521 17.132 7.08732 17.0996C6.39089 16.6465 5.96981 15.8859 5.40295 15.2871C4.91707 14.7854 4.2854 14.3809 3.99387 13.7497C3.81571 13.3775 3.76716 12.9567 3.62139 12.5683C3.36226 11.8401 2.81155 11.2575 2.27708 10.7073C2.14751 10.5778 2.0018 10.4483 1.92082 10.2703C1.82364 10.0599 1.8398 9.80103 1.80741 9.55829C1.77502 9.28317 1.69406 9.00806 1.58068 8.74913C1.54829 8.66821 1.49972 8.58726 1.43494 8.5549C1.39175 8.53332 1.34851 8.52254 1.30532 8.52254C1.30532 8.00468 1.26758 7.49221 1.192 6.98513C1.10562 6.32702 0.97065 5.67432 0.787096 5.02699C0.706116 4.73569 0.608908 4.4282 0.592712 4.12072C0.592712 3.9427 0.60894 3.76468 0.625136 3.58666C0.754704 3.53811 0.900468 3.48956 1.03004 3.45719C1.35396 3.40864 1.67789 3.55431 2.01801 3.52195C2.52008 3.44103 2.87638 2.95554 3.37845 2.84226C4.25304 2.66425 5.03046 3.7485 5.90505 3.58666C6.65006 3.44102 6.94157 2.5186 7.58941 2.11402C7.87014 1.62852 8.15083 1.13762 8.43156 0.641331C8.44235 0.630542 8.45318 0.614351 8.46398 0.592773C8.12386 1.87125 7.89709 3.1821 7.78372 4.49294C7.73513 4.94607 7.70278 5.41537 7.91333 5.81995C8.0429 6.09507 8.28579 6.30544 8.43156 6.58055C8.56112 6.8233 8.60976 7.08225 8.72313 7.325C8.98227 7.84286 9.51675 8.18268 9.7111 8.71673C9.84067 9.05658 9.80828 9.44498 9.79208 9.81719Z" fill="#F1F1F1" stroke="#BABABA" stroke-width="1.18548" stroke-linecap="round" stroke-linejoin="round"/>
</svg>
