<svg width="16" height="19" viewBox="0 0 16 19" fill="none" xmlns="http://www.w3.org/2000/svg">
<path d="M14.4241 14.7369C14.1812 14.9634 13.8411 15.0767 13.5981 15.3033C13.1122 15.724 13.0151 16.4847 13.2419 17.0996C13.2527 17.1104 13.258 17.1266 13.258 17.1482C12.5778 17.1644 11.8814 17.1644 11.2011 17.1482C11.0554 17.1482 10.9096 17.1482 10.7638 17.1643C10.116 17.2453 9.61394 17.7793 9.01469 18.0059C8.35065 18.281 7.60562 18.2001 6.893 18.2325C6.8768 17.8279 6.76343 17.4556 6.4881 17.1482C6.21277 16.8245 5.77548 16.5979 5.59732 16.2257C5.57572 16.1934 5.55956 16.1556 5.54876 16.1124C5.41919 15.7402 5.59732 15.3033 5.51634 14.9149C5.30579 13.9439 3.9291 13.863 3.21648 13.1671C2.95734 12.9405 2.79541 12.6331 2.68204 12.2932C2.67124 12.2716 2.66583 12.2447 2.66583 12.2123C2.42289 11.4679 2.43912 10.6425 2.69825 9.91429C2.73064 9.80101 2.76302 9.7039 2.76302 9.6068C2.74682 9.13749 1.9694 9.10512 1.77505 8.66817C1.61309 8.31214 1.93701 7.95611 2.09897 7.60008C2.30952 7.14695 2.24475 6.66147 2.11518 6.17597C2.018 5.88468 1.90463 5.59337 1.79126 5.31826C1.33777 4.2178 0.938288 3.10117 0.592773 1.96834C0.851909 1.96834 1.12721 1.96834 1.37015 1.88743C1.9856 1.7256 2.45527 1.19154 3.05452 0.964975C3.42702 0.835509 3.83197 0.81933 4.23687 0.786964C4.79833 0.754597 5.35978 0.689873 5.92124 0.592773C6.18037 1.11064 6.34232 1.75796 6.71483 2.21109C7.02255 2.59949 7.50848 2.85841 7.73522 3.29536C7.84859 3.52192 7.89715 3.79704 8.02672 4.00742C8.4964 4.67093 9.7921 4.62237 9.90547 5.43153C9.97025 5.93321 9.48436 6.49964 9.80828 6.90422C9.93785 7.06605 10.1646 7.1146 10.3751 7.16315C11.0986 7.31419 11.822 7.46522 12.5454 7.61626C12.675 7.64863 12.8046 7.66482 12.9017 7.60008C13.0475 7.50298 13.0475 7.32497 13.1285 7.17932C13.2904 6.93658 13.7115 6.98512 13.922 7.21168C14.1164 7.43825 14.1488 7.76192 14.165 8.0694C14.1974 8.40925 14.2136 8.76528 14.2622 9.12131C14.0678 9.47734 13.8249 9.801 13.6468 10.1732C13.3552 10.7558 13.2094 11.5002 13.5819 12.0505C13.841 12.4389 14.327 12.6492 14.6023 13.0376C14.9748 13.5393 14.8938 14.3161 14.4241 14.7369Z" fill="#F1F1F1" stroke="#BABABA" stroke-width="1.18548" stroke-linecap="round" stroke-linejoin="round"/>
</svg>
