<svg width="38" height="31" viewBox="0 0 38 31" fill="none" xmlns="http://www.w3.org/2000/svg">
<path d="M36.759 12.4431C36.759 12.702 36.5 12.8477 36.257 12.9124C35.593 13.1228 34.8966 13.1551 34.2163 13.0419C33.7142 12.9448 33.1635 12.783 32.7101 13.0257C32.4995 13.139 32.3376 13.3332 32.208 13.5274C32.0353 13.7647 31.8787 14.0075 31.7383 14.2556C31.4792 14.7573 31.382 15.3075 31.4306 15.8578C31.4522 16.1706 31.4792 16.4781 31.5116 16.7802C31.544 17.1848 31.5926 17.5894 31.4792 17.9616C31.2687 18.6898 30.5884 19.1429 30.0054 19.6123C29.3251 20.1463 28.7096 20.7451 28.0942 21.3438C27.9214 21.5057 27.7541 21.6675 27.5922 21.8293C27.5274 21.8941 27.4626 21.9588 27.4302 22.0397C27.3978 22.1207 27.3816 22.2015 27.3816 22.2986C27.414 22.7356 27.7703 23.0917 27.9971 23.4639C28.321 24.0303 28.321 24.7423 28.0618 25.3249C27.9485 25.6648 27.6731 25.9399 27.3816 26.1017C27.1872 26.215 26.9605 26.2959 26.8795 26.5063C26.7985 26.7005 26.8796 26.9109 27.0253 27.0727C27.1549 27.2183 27.3168 27.3478 27.4464 27.4935C27.7055 27.8009 27.7703 28.2055 27.8027 28.6101C27.8027 28.8043 27.8027 29.0147 27.7055 29.1927C27.5921 29.3869 27.333 29.5325 27.1224 29.3869C26.5286 29.3761 25.9294 29.3653 25.3247 29.3545C25.0656 29.3545 24.8064 29.3545 24.5635 29.4354C24.0938 29.5973 23.7861 30.0666 23.3164 30.2446C23.0248 30.3417 22.701 30.3255 22.3933 30.3255C21.8642 30.3147 21.3405 30.3309 20.8222 30.3741C20.5307 30.3903 20.223 30.4226 19.9476 30.2932C19.7695 30.1961 19.6399 30.0342 19.6399 29.84C19.6075 29.4354 20.0934 29.2251 20.3201 28.9014C20.5793 28.5454 20.4983 27.9951 20.142 27.7362C20.0448 27.6553 19.9152 27.6067 19.7857 27.6391C19.6885 27.6715 19.6237 27.7362 19.5427 27.8009C19.2674 28.0113 18.8787 28.0437 18.5386 28.0437C18.1984 28.0599 17.8259 28.0599 17.5668 27.8495C17.3077 27.6553 17.2267 27.3155 16.9838 27.1051C16.7409 26.8785 16.3845 26.83 16.0768 26.8947C15.7043 26.9756 15.3965 27.2184 15.1374 27.4611C14.8297 27.6715 14.4896 27.8657 14.1171 27.8333C13.9389 27.8333 13.7446 27.7686 13.5664 27.8009C13.4693 27.8171 13.3883 27.8657 13.3073 27.898C13.0589 28.0275 12.8106 28.157 12.5623 28.2864C12.3355 28.3997 12.0926 28.513 11.8659 28.4159C11.6391 28.3026 11.5905 28.0113 11.5743 27.7524C11.5581 27.4611 11.5743 27.1536 11.5095 26.8623C11.4447 26.5872 11.2666 26.2959 10.9913 26.1988C10.7807 26.1179 10.5378 26.1503 10.3272 26.1988C10.0573 26.2635 9.80353 26.3606 9.56599 26.4901C9.27446 26.6358 8.98292 26.8299 8.659 26.7976C8.2541 26.7652 7.94639 26.393 7.54149 26.2797C7.13659 26.1503 6.69933 26.2959 6.27824 26.2959C6.16487 26.2959 6.0353 26.2635 5.95432 26.1826C5.85714 26.0855 5.87335 25.9237 5.88955 25.778C5.94354 25.4544 5.96511 25.1307 5.95432 24.807C5.95432 24.6452 5.88955 24.4186 5.72759 24.4025C5.45226 24.095 5.16067 23.7551 5.09588 23.3505C5.06349 23.1725 5.09593 22.9783 5.06354 22.7841C5.04734 22.509 4.95012 22.2339 4.93392 21.9588C4.93392 21.7646 4.96636 21.5704 4.98256 21.3762C5.01495 21.1173 5.01497 20.8422 4.99877 20.567C4.99877 20.5347 4.99875 20.4861 4.98256 20.4538C4.97176 20.4322 4.95552 20.416 4.93392 20.4052C4.73957 20.2596 4.48047 20.3081 4.23753 20.2596C4.14035 20.2434 4.02699 20.1949 3.92982 20.1463C3.80025 20.0924 3.6707 20.033 3.54113 19.9683C3.33058 19.855 3.05522 19.6932 3.10381 19.4019C2.82847 19.1268 2.87703 18.5927 2.5855 18.3014C2.47213 18.2043 2.3264 18.1396 2.21303 18.0587C1.84052 17.7674 1.80811 17.2172 1.79192 16.7478C1.79192 16.5051 1.77577 16.2623 1.67859 16.0196C1.43565 15.4046 0.706815 15.0486 0.609639 14.3851C0.577247 14.1909 0.593396 13.9805 0.641984 13.7863C0.690572 13.3979 0.771583 13.0095 0.917347 12.6535C1.06311 12.2813 1.28984 11.9414 1.62996 11.7472C1.95388 11.6663 2.08344 11.2779 2.11584 10.9542C2.13203 10.6144 2.06728 10.2746 2.14826 9.9509C2.26163 9.51395 2.63411 9.1741 2.76367 8.73716C2.81226 8.57533 2.82846 8.41346 2.92563 8.30018C3.03901 8.17071 3.21715 8.13838 3.3953 8.17075C3.52487 8.20311 3.63826 8.26782 3.73543 8.34874C3.62206 8.65622 3.4115 8.94751 3.3953 9.27117C3.36291 9.54629 3.47628 9.82141 3.63824 10.048C3.8002 10.2745 4.01077 10.4687 4.22131 10.6467C4.70719 11.0675 5.24171 11.4559 5.72759 11.8767C6.21347 12.2974 6.60216 12.9286 7.33098 12.7344C7.88164 12.6049 8.31895 12.346 8.88581 12.3136C9.46886 12.2974 10.0519 12.3945 10.6349 12.3622C11.3476 12.346 12.1412 12.2004 12.5623 11.5692C12.6756 11.375 12.7566 11.1646 12.8862 11.0028C13.1129 10.7277 13.4855 10.5982 13.8256 10.5011C14.4896 10.3393 15.2022 10.2422 15.8177 10.5011C16.1902 10.6468 16.4979 10.9219 16.8542 11.1161C17.1943 11.3265 17.6316 11.4397 18.0041 11.2779C18.2147 11.1808 18.3766 10.9866 18.5872 10.8733C19.1702 10.5335 19.9314 10.8248 20.5631 10.6144C21.2109 10.3878 21.5511 9.7243 21.8426 9.10934C21.9938 8.79646 22.1449 8.48362 22.2961 8.17075C22.5552 7.62052 22.8143 7.07029 22.9601 6.47151C23.0249 6.26113 23.0573 6.01836 23.1868 5.84034C23.284 5.71088 23.4136 5.6138 23.5432 5.50052C24.2234 4.91792 24.6445 4.04402 24.7092 3.13776C24.7416 2.49043 24.6121 1.77835 24.9684 1.26049C25.4705 0.516065 26.5556 0.580829 27.4626 0.645562C28.1104 0.694111 28.7582 0.694096 29.4061 0.629363C29.9567 0.580813 30.6046 0.516073 31.0095 0.904469C31.1228 1.00157 31.2038 1.13104 31.3496 1.19577C31.463 1.24432 31.5926 1.22813 31.7059 1.22813C32.2242 1.19577 32.7425 1.16342 33.2608 1.13106C33.0772 1.20658 32.8936 1.2875 32.7101 1.37381C32.5481 1.45472 32.37 1.53561 32.2566 1.66507C31.9651 2.05347 32.2728 2.65228 32.0461 3.07304C31.9165 3.33197 31.6087 3.46143 31.3496 3.5909C31.0743 3.72036 30.799 3.91457 30.7504 4.20586C30.718 4.4648 30.8799 4.70753 31.0419 4.91791C31.463 5.12829 31.8517 5.38723 32.208 5.69471C32.2728 5.75944 32.3375 5.82418 32.3861 5.9051C32.4347 6.0022 32.4509 6.11547 32.4995 6.21256C32.6129 6.42295 32.8559 6.53622 33.0016 6.73042C33.1798 6.97317 33.1959 7.31301 33.1959 7.62049C33.1959 8.10599 33.1959 8.58612 33.1959 9.06082C33.1959 9.20647 33.196 9.35211 33.2446 9.49776C33.3093 9.62723 33.4065 9.74049 33.5037 9.83758C33.6981 10.0426 33.8924 10.2476 34.0867 10.4526C34.2325 10.6144 34.3945 10.7762 34.5888 10.8895C34.7346 10.9704 34.8965 11.019 35.0585 11.0837C35.2204 11.1646 35.3662 11.2617 35.512 11.375C35.8143 11.58 36.1167 11.785 36.419 11.99C36.581 12.1032 36.759 12.2489 36.759 12.4431Z" fill="#F1F1F1" stroke="#BABABA" stroke-width="1.18548" stroke-linecap="round" stroke-linejoin="round"/>
</svg>
