<svg width="61" height="53" viewBox="0 0 61 53" fill="none" xmlns="http://www.w3.org/2000/svg">
<path d="M60.4046 9.01594C60.1778 9.2425 59.7567 9.11305 59.5461 8.8703C59.3194 8.64374 59.1737 8.32006 58.9307 8.12586C58.3477 7.67273 57.4893 7.9964 56.971 8.49808C56.4527 8.99976 56.0802 9.67945 55.4648 10.0678C54.8008 10.4886 53.9423 10.521 53.1487 10.521C52.2417 10.5318 51.3348 10.5426 50.4278 10.5533C49.9581 10.5533 49.4884 10.5534 49.0187 10.4886C48.6138 10.4239 48.2414 10.2944 47.8365 10.2944C47.1238 10.2782 46.4598 10.6181 45.8282 10.9579C45.6662 11.0388 45.4881 11.1359 45.4233 11.3139C45.2937 11.67 45.7148 11.9451 45.9577 12.2364C46.4922 12.8352 46.2978 13.7576 46.2492 14.5668C46.1844 15.6834 46.4922 16.8162 47.1076 17.7549C47.5287 18.4346 48.1766 19.0172 48.9702 19.1143C49.5532 19.1952 50.363 19.1143 50.5088 19.6807C50.6384 20.1176 50.1363 20.506 49.6828 20.5869C49.2293 20.6678 48.7434 20.6031 48.3223 20.8297C47.885 21.0724 47.6583 21.5903 47.6421 22.092C47.6259 22.5936 47.7717 23.0792 47.9174 23.5647C48.0308 23.9369 48.128 24.3252 47.9984 24.6813C47.7231 25.5066 46.4922 25.5875 46.0549 26.332C45.7634 26.8174 45.8767 27.481 45.5366 27.9341C45.2451 28.274 44.7754 28.3872 44.4029 28.63C43.091 29.4877 43.3501 31.8828 41.8763 32.433C41.5848 32.5463 41.2609 32.5625 40.9532 32.6596C40.0786 32.9833 39.7223 33.9866 39.4145 34.8605C39.0906 35.7344 38.5399 36.7054 37.6168 36.7863C37.2767 36.8025 36.9203 36.6892 36.564 36.7216C36.1267 36.7539 35.738 37.0291 35.3331 37.2233C34.9282 37.4013 34.41 37.4822 34.0861 37.1747C33.8755 36.9805 33.8107 36.673 33.584 36.495C33.2439 36.2037 32.677 36.3817 32.4016 36.754C32.2559 36.9482 32.2235 37.1747 32.1587 37.4013C32.1101 37.6278 31.9805 37.8382 31.851 38.0324C31.3165 38.8739 30.4419 39.3756 29.9884 40.2819C29.9237 40.4113 29.9398 40.5893 29.9722 40.735C30.0046 40.8645 30.0856 40.9939 30.1828 41.1072C30.5553 41.5603 31.1222 41.8678 31.7052 41.9649C31.9806 41.9973 32.2721 41.9973 32.4988 42.1268C32.9523 42.3695 33.0333 43.0168 32.839 43.4861C32.7418 43.7289 32.5636 43.9555 32.5636 44.2306C32.5474 44.6675 32.9685 44.9912 33.3248 45.2501C34.2156 45.9136 34.993 46.7713 35.2846 47.8232C35.4141 48.3411 35.4303 48.8751 35.4465 49.393C35.4465 49.6196 35.4465 49.8461 35.3818 50.0565C35.3008 50.2669 35.1226 50.4449 34.8959 50.4611C34.3776 50.4935 34.1833 49.7005 33.6812 49.5872C33.4058 49.5225 33.1305 49.6843 32.9037 49.8461C32.5636 50.0889 32.2235 50.3478 31.851 50.5258C31.4785 50.6877 31.025 50.7686 30.6363 50.6229C30.2962 50.4935 30.0371 50.2022 29.6969 50.0727C29.1949 49.8947 28.6442 50.0727 28.2069 50.3478C27.7696 50.6391 27.3971 51.0275 26.976 51.3512C26.3605 51.8205 25.6156 52.128 24.8381 52.2898C24.6924 52.1765 24.5304 52.1118 24.3361 52.0794C24.1255 52.0471 23.915 52.0794 23.7044 52.0471C23.2671 51.9985 22.8946 51.691 22.6679 51.3188C22.4412 50.9466 22.3116 50.5097 22.1658 50.0889C22.02 49.6196 21.8257 49.1503 21.5989 48.7133C21.518 48.5191 21.4045 48.3411 21.2264 48.2116C21.0644 48.1145 20.8377 48.0822 20.692 47.9527C20.5138 47.7909 20.4976 47.5158 20.4005 47.3054C20.2709 46.9817 20.0117 46.739 19.7688 46.5124C19.6716 45.9945 19.0562 45.7194 18.5379 45.8003C18.0196 45.8813 17.5824 46.2049 17.1613 46.48C16.724 46.7713 16.238 47.0303 15.736 46.9979C15.2987 46.9655 14.91 46.7228 14.4889 46.6257C14.0678 46.5124 13.6467 46.5448 13.2256 46.5609C10.8394 46.6796 8.45855 46.8037 6.08314 46.9332C5.56487 46.9493 5.04666 46.9817 4.52839 47.0788C3.89674 47.2083 3.24886 47.451 2.61721 47.5643C2.63341 46.9817 2.76299 46.4153 2.79538 45.8327C2.81158 45.5576 2.79537 45.2987 2.86015 45.0235C2.89254 44.8132 2.97356 44.619 3.05453 44.4086C3.23269 43.9231 3.427 43.4376 3.73472 43.0168C4.13962 42.4666 4.72267 42.062 5.35432 41.8031C6.00216 41.5604 6.68245 41.4471 7.36269 41.4147C7.62182 41.3985 7.89711 41.3823 8.12385 41.2529C8.46396 41.0587 8.60973 40.6379 8.60973 40.2495C8.60973 40.1039 8.59353 39.942 8.52875 39.8126C8.43157 39.6184 8.26966 39.4889 8.0915 39.3918C7.63802 39.1167 7.0549 38.971 6.81196 38.5017C6.68239 38.2428 6.68244 37.9353 6.69863 37.644C6.70943 37.4498 6.71485 37.2556 6.71485 37.0614L6.7634 36.3979C6.7796 35.7182 6.05081 35.4269 5.50015 35.1842C4.36643 34.6825 3.37845 33.8733 2.64964 32.87C2.34191 32.433 2.06658 31.9475 1.67788 31.5591C1.45113 31.3164 1.17582 31.106 0.965268 30.8471C0.770916 30.6043 0.657496 30.313 0.592712 30.0055C1.53208 29.9732 2.82781 30.0379 3.39467 30.3778C3.68619 30.5558 3.96146 30.7985 4.30158 30.8794C4.43115 30.8956 4.57691 30.8956 4.70648 30.8956C6.81196 30.8848 8.9121 30.8687 11.0068 30.8471C11.2173 30.8471 11.4278 30.8471 11.606 30.7662C11.7518 30.7176 11.8813 30.6205 12.0109 30.5558C12.3672 30.3778 12.7721 30.3939 13.177 30.4263C13.6629 30.4479 14.1488 30.4749 14.6347 30.5072C14.8938 30.5234 15.1691 30.5558 15.4283 30.5396C15.7198 30.5234 15.9789 30.4425 16.2381 30.3616C16.7887 30.1836 17.3394 29.9894 17.9062 29.9732C18.0844 29.9732 18.2626 29.9732 18.4245 29.9246C18.6027 29.8761 18.7484 29.7628 18.8132 29.601C18.8456 29.5039 18.8294 29.3906 18.8294 29.2935C18.7484 28.1283 18.8133 26.9469 19.0238 25.7979C19.04 25.6361 19.0723 25.4743 19.1371 25.3286C19.2181 25.1506 19.3477 25.005 19.4773 24.8593C19.9631 24.3414 20.5138 23.9207 21.1454 23.597C21.3722 23.4675 21.6313 23.3543 21.9067 23.4028C21.939 23.4028 21.966 23.4082 21.9876 23.419C22.5059 23.5646 23.0566 23.4675 23.4453 23.0953C23.6072 22.9335 23.7692 22.7231 23.9149 22.4642C24.336 21.7359 25.5508 21.8978 26.3768 22.0596C27.1218 22.2053 27.8668 22.7069 28.5794 22.1243C28.8062 21.9463 28.9519 21.7036 29.0491 21.4284C29.4216 20.4898 29.292 19.4865 29.454 18.4993C29.5998 17.6578 30.0209 16.7839 30.8307 16.4926C31.0574 16.4116 31.3165 16.3955 31.5433 16.3146C31.8672 16.2175 32.1587 16.0395 32.4503 15.8614C32.6284 15.732 32.8389 15.6025 32.8875 15.3921C32.9361 15.1979 32.8227 15.0037 32.7255 14.8257C32.5312 14.5236 32.3045 14.2431 32.0454 13.9842C31.8186 13.7576 31.5271 13.4825 31.6405 13.1427C31.6891 12.9485 31.8834 12.8028 32.0939 12.7704C32.4502 12.6895 32.7904 12.8675 33.1143 13.0132C33.9079 13.353 34.8958 13.5149 35.5598 12.8513C35.6732 12.7381 35.7704 12.6248 35.8028 12.4792C35.819 12.3335 35.7866 12.1717 35.7704 12.026C35.6085 10.6019 37.1956 9.64709 37.5034 8.33625C37.6329 7.78602 37.552 7.20343 37.2766 6.71793C37.0499 6.29717 36.6936 5.95733 36.4506 5.55275C36.1915 5.13199 36.0943 4.58173 36.3696 4.19334C36.5154 4.01532 36.726 3.90204 36.9365 3.78876C37.9407 3.24932 38.9502 2.70451 39.9652 2.15428C40.2567 2.00863 40.5482 1.8468 40.856 1.7497C41.3256 1.60405 41.8439 1.58785 42.3298 1.57167C43.5607 1.5393 44.7916 1.50696 46.0225 1.47459C46.5731 1.47459 47.1562 1.44222 47.6421 1.15093C47.8688 1.02146 48.0794 0.811072 48.3385 0.69779C48.5815 0.584508 48.873 0.584492 49.1483 0.600675C49.1483 0.611464 49.1483 0.616874 49.1483 0.616874C49.0998 0.778706 49.0674 0.956721 49.2941 1.10237C49.4723 1.23184 49.6828 1.24801 49.8933 1.21564C50.8327 1.00526 51.7883 1.50694 52.3713 2.26755C52.8896 2.96343 53.1163 3.83732 53.1811 4.69503C53.1973 4.9216 53.2135 5.14815 53.3593 5.2938C53.5375 5.488 53.8128 5.488 54.0557 5.53655C54.4768 5.60128 54.8007 5.76311 55.0922 6.0544C55.4161 6.39425 55.7077 6.81502 56.1612 6.99304C56.5499 7.15487 57.0034 7.10631 57.4083 7.10631C57.716 7.12249 58.0399 7.12249 58.3638 7.10631C58.9631 7.05776 59.5947 7.02542 60.1454 6.76649C60.167 7.5217 60.2534 8.27151 60.4046 9.01594Z" fill="#F1F1F1" stroke="#BABABA" stroke-width="1.18548" stroke-linecap="round" stroke-linejoin="round"/>
</svg>
