<svg width="94" height="77" viewBox="0 0 94 77" fill="none" xmlns="http://www.w3.org/2000/svg">
<path d="M92.9538 6.18485C92.8729 6.4276 92.6137 6.55705 92.387 6.63797C92.1494 6.73507 91.9118 6.83217 91.6743 6.92927C91.4961 7.01019 91.318 7.07491 91.1561 7.20438C91.0589 7.2853 90.9779 7.38239 90.8807 7.44713C90.7511 7.56041 90.6054 7.62514 90.4596 7.68988C90.1033 7.85171 89.7632 7.99736 89.3907 8.0621C88.921 8.12683 88.4189 8.04592 87.9492 8.11065C87.9006 8.12684 87.8683 8.12682 87.8359 8.15919C87.7873 8.19156 87.7711 8.24011 87.7549 8.30484C87.7225 8.43431 87.6902 8.56378 87.6902 8.70942C87.7063 8.83889 87.7549 8.98453 87.8682 9.06545C88.0302 9.17873 88.257 9.14637 88.4513 9.13018C88.6457 9.114 88.84 9.13019 89.0182 9.17874C89.1153 9.25966 89.2126 9.34057 89.2126 9.34057C89.3583 9.45385 89.3583 9.71278 89.5203 9.76133C89.5689 9.77751 89.6174 9.77751 89.666 9.76133C90.0385 9.71278 90.3462 9.43766 90.7025 9.30819C91.156 9.14636 91.6905 9.22729 92.0792 9.51858C92.1008 9.54016 92.1225 9.56174 92.1441 9.58332C92.0793 9.87462 92.009 10.1605 91.9335 10.441C91.8687 10.6999 91.7877 10.9589 91.6257 11.1693C91.4638 11.3635 91.1723 11.4929 90.9294 11.3958C90.6216 11.2825 90.5083 10.8618 90.2005 10.7161C89.828 10.5705 89.4393 10.9103 89.2773 11.2664C89.0992 11.6224 89.0182 12.027 88.7267 12.2859C88.176 12.739 87.1718 12.4801 86.8155 13.0951C86.6374 13.3702 86.686 13.7748 86.443 14.0013C86.2325 14.1955 85.9248 14.1793 85.6494 14.1955C85.0502 14.2603 84.5157 14.5839 83.9812 14.9076C84.127 14.6972 84.4509 14.5354 84.6615 14.3412C85.0016 14.0499 85.0826 13.5644 85.2931 13.176C85.4713 12.8685 85.7466 12.6257 85.9086 12.3021C86.1677 11.8328 86.1191 11.2178 85.8437 10.7485C85.5684 10.2792 85.0502 9.95552 84.5157 9.87461C84.0946 9.80987 83.6573 9.87461 83.2524 9.77751C82.6855 9.66423 82.1997 9.24347 81.9891 8.70942C81.9081 8.49904 81.8595 8.27247 81.7138 8.09445C81.3413 7.62514 80.5639 7.86789 80.0942 8.25629C79.6407 8.64468 79.2197 9.17874 78.6204 9.24348C78.3289 9.25966 78.0373 9.17874 77.762 9.114C77.0007 8.93599 76.0938 8.98454 75.6079 9.58332C75.4298 9.80988 75.3326 10.085 75.1544 10.3116C74.9115 10.6352 74.539 10.8456 74.2798 11.1693C73.6158 11.9946 73.9236 13.2084 73.8426 14.2603C73.8264 14.5192 73.7777 14.7943 73.6158 15.0047C73.1947 15.5387 72.2553 15.4093 71.7857 15.9271C71.5427 16.1861 71.4779 16.6068 71.2026 16.8496C70.9273 17.0923 70.5062 17.1085 70.1661 17.0114C69.8097 16.8981 69.502 16.6877 69.1943 16.4935C68.6436 16.1699 68.0282 15.9109 67.3965 15.7977C67.2022 15.7653 66.9916 15.7329 66.8135 15.8138C66.5705 15.9109 66.4248 16.1537 66.2466 16.3479C65.5826 17.0761 64.3841 17.1571 63.4609 16.7687C63.4069 16.7471 63.3475 16.7201 63.2828 16.6877C62.149 16.1375 61.4526 15.0532 60.5619 14.1955C60.2703 13.9204 59.9464 13.6453 59.6711 13.3378C59.3958 12.9818 58.9909 12.6419 58.5374 12.6743C57.8733 12.7229 57.5332 13.4835 56.9987 13.8719C56.88 13.9582 56.7503 14.0229 56.61 14.0661C56.0431 14.2926 55.3467 14.2117 54.6989 14.2117C54.4559 14.2117 54.1483 14.2603 54.0835 14.503C53.9863 14.8267 54.4074 15.0209 54.6341 15.2636C54.8771 15.5549 54.8284 16.0566 54.5207 16.2832C54.375 16.3964 54.213 16.445 54.0673 16.5421C53.8243 16.7363 53.7595 17.0923 53.7757 17.3998C53.8081 17.8206 53.9539 18.2899 53.6624 18.5973C53.4032 18.8563 52.9659 18.7754 52.6582 18.5973C52.3504 18.4193 52.0913 18.1442 51.7512 18.0148C51.0709 17.7396 50.2612 18.128 49.5809 17.8691C49.3056 17.772 49.0788 17.594 48.8359 17.4483C48.4472 17.2541 47.9937 17.1732 47.5564 17.238C47.4593 17.2541 47.3459 17.2703 47.2649 17.3512C47.1354 17.4645 47.103 17.6587 47.0868 17.8367C47.0544 18.128 47.022 18.4139 46.9896 18.6944C46.9896 18.8563 46.9734 19.0019 46.9896 19.1638C47.022 19.3418 47.1192 19.5198 47.1192 19.6978C47.1192 20.0377 46.8438 20.3128 46.5685 20.507C46.2607 20.7174 45.8883 20.8792 45.5481 20.7659C44.9975 20.5555 44.8517 19.6816 44.2687 19.6169C43.9286 19.5845 43.637 19.8435 43.4589 20.1348C43.2807 20.426 43.1673 20.7497 42.9244 20.9925C42.649 21.2676 42.2279 21.3809 41.9526 21.656C41.6611 21.9635 41.5154 22.4004 41.4344 22.8212C41.2724 23.695 40.414 23.5494 40.2035 24.1482C40.0739 24.5366 40.4788 24.8764 40.7056 25.2163C41.1105 25.8636 40.9485 26.8022 40.333 27.2715C39.7823 27.6923 38.8916 27.7894 38.6486 28.4529C38.6001 28.5986 38.5838 28.7766 38.4705 28.8899C38.3895 29.0031 38.2599 29.0517 38.1466 29.1326C37.8388 29.3915 37.9037 29.877 37.8065 30.2654C37.6931 30.7509 37.3206 31.1393 36.8671 31.3659C36.4298 31.5763 35.9277 31.6572 35.4257 31.6896C35.1341 31.7219 34.8102 31.7543 34.5996 31.9647C34.3567 32.1912 34.3729 32.5796 34.4377 32.9033C34.5187 33.227 34.6482 33.5506 34.5996 33.8905C34.5673 34.2303 34.3405 34.5054 34.211 34.8129C33.7575 35.8163 34.049 37.03 33.5469 38.001C33.2068 38.6645 32.559 39.0853 32.0083 39.5708C31.7815 39.7488 31.5548 39.9753 31.4576 40.2505C31.3767 40.5418 31.49 40.8978 31.7653 40.9949C31.8787 41.0434 32.0083 41.0434 32.1379 41.0596C32.397 41.1082 32.6237 41.2862 32.8181 41.4642C33.0772 41.6746 33.3526 41.9335 33.3526 42.2734C33.3526 42.4028 33.2878 42.5323 33.2392 42.6456C32.4132 44.1991 30.1458 43.7298 28.7205 43.7298C28.6234 43.7298 28.51 43.7298 28.4128 43.7784C28.1861 43.8917 28.1861 44.2153 28.1537 44.4581C28.0889 44.7818 27.8946 45.0892 27.603 45.2673C27.3439 45.4453 27.0037 45.5262 26.8094 45.8013C26.7284 45.9307 26.6799 46.1088 26.6313 46.2544C26.4693 46.659 26.1453 46.9665 25.9348 47.3387C25.708 47.7109 25.6271 48.2126 25.9186 48.5362C25.9834 48.601 26.0644 48.6657 26.1454 48.7305C26.4855 49.0703 26.4693 49.6205 26.3397 50.0736C26.2101 50.5268 25.9834 50.9475 25.9348 51.4169C25.8538 52.2584 26.3883 53.019 26.4045 53.8605C26.4368 54.8315 25.7728 55.8834 26.2749 56.7249C26.5179 57.1133 26.9228 57.3237 27.3277 57.5179C27.7326 57.7121 28.1537 57.9063 28.4128 58.2623C28.6882 58.6022 28.7367 59.1848 28.3804 59.4599C28.267 59.557 28.1051 59.6056 28.0079 59.735C27.9269 59.8483 27.8945 59.9778 27.7973 60.0749C27.6354 60.2367 27.3438 60.1396 27.1333 60.2205C26.8741 60.3014 26.7608 60.5927 26.6636 60.8516C26.5502 61.2239 26.4369 61.6608 26.6636 61.9845C26.7608 62.1139 26.9066 62.1949 27.02 62.3243C27.4734 62.7451 27.4896 63.4086 27.4086 63.9912C27.3601 64.2987 27.2952 64.59 27.2143 64.8974C27.1495 65.2211 27.1009 65.561 26.9065 65.8361C26.7608 65.9979 26.5179 66.0464 26.3073 66.1112C26.0482 66.2083 25.8053 66.3863 25.5785 66.5643C25.1898 66.9042 24.8173 67.2926 24.5906 67.7619C24.3476 68.2312 24.2666 68.7814 24.4286 69.2669C24.5258 69.6068 24.7525 69.9466 24.7039 70.2865C24.6553 70.5616 24.461 70.7719 24.2666 70.9661C24.1371 71.0956 24.0075 71.2251 23.8293 71.2574C23.5054 71.3222 23.2301 71.0471 22.9872 70.8367C22.5499 70.4483 21.9668 70.2055 21.3837 70.1732C21.3729 70.1624 21.3567 70.1462 21.3351 70.1246C21.0274 69.7848 20.995 69.2831 20.995 68.83C21.0112 68.6358 21.0113 68.4416 20.9627 68.2474C20.8979 68.0532 20.7521 67.8913 20.5578 67.859C20.3634 67.8428 20.1691 67.9723 20.0719 68.1503C19.9909 68.3121 19.9585 68.5225 19.9585 68.7167C19.9585 69.0242 20.007 69.3478 19.9261 69.6391C19.8613 69.8981 19.6831 70.157 19.4402 70.2541C18.9381 70.9014 17.9826 70.7234 17.3186 71.128C16.9785 71.3384 16.7355 71.6944 16.4601 71.9857C16.1362 72.3741 15.7475 72.7139 15.3102 72.989C14.9863 73.1994 14.6462 73.3613 14.3547 73.6364C14.1927 73.7982 14.0469 73.9924 13.885 74.1704C13.2857 74.8825 12.4597 75.3518 11.6175 75.7726C11.2126 75.9668 10.7754 76.161 10.3219 76.2419C9.86838 76.3228 9.36634 76.2904 8.97763 76.0315C8.76709 75.902 8.58887 75.724 8.34593 75.6431C8.07059 75.5622 7.76287 75.6593 7.45515 75.6593C6.79111 75.6754 6.2243 75.19 5.72222 74.7368C5.60345 74.6397 5.49007 74.5372 5.38209 74.4293C4.99339 74.0895 4.57226 73.7173 4.05399 73.6687C3.89203 73.6526 3.73008 73.6525 3.58432 73.6364C3.22801 73.5716 2.92033 73.2803 2.82316 72.9405C2.54782 72.3417 2.74218 71.5973 3.22806 71.1603C3.27664 71.1118 3.32523 71.0794 3.39002 71.0633C3.471 71.0309 3.56812 71.0471 3.6653 71.0309C3.87585 70.9985 4.0216 70.8205 4.13497 70.6425C4.23214 70.4645 4.31312 70.2541 4.45889 70.1084C4.55606 70.0113 4.66948 69.9466 4.75046 69.8495C4.88003 69.7039 4.92862 69.4935 4.91242 69.2993C4.89623 69.1051 4.84766 68.9271 4.76668 68.7491C4.75048 68.7005 4.73428 68.6358 4.6857 68.6196C4.62091 68.6034 4.55611 68.6519 4.50752 68.6843C4.216 68.9271 3.85967 69.0889 3.51955 69.2507C3.05527 69.4773 2.58555 69.7039 2.11047 69.9304C1.91612 70.0275 1.72181 70.1246 1.51127 70.1246C1.31691 70.1246 1.12251 70.0113 1.05773 69.8657C1.13871 69.2507 1.51123 68.6843 2.0457 68.3768C2.20766 68.2797 2.28867 68.1017 2.24009 67.9237C2.15911 67.6162 1.75417 67.7457 1.55982 67.5515C1.41406 67.3897 1.51125 67.1146 1.65701 66.9527C1.80278 66.7909 2.01336 66.6614 2.09434 66.451C2.15912 66.273 2.15906 66.0141 2.35341 65.9493C2.49917 65.9008 2.64495 66.0303 2.69354 66.1597C2.74213 66.3054 2.72598 66.4672 2.74218 66.6291C2.75837 67.0175 3.16324 67.4544 3.51955 67.2602C3.76249 67.1146 3.7787 66.7585 3.7787 66.4834C3.76251 66.2892 3.74633 66.0788 3.63296 65.917C3.50339 65.7066 3.21186 65.5933 3.14708 65.3506C3.11468 65.2211 3.16326 65.1078 3.13086 64.9784C3.06608 64.768 2.8069 64.6709 2.59635 64.6871C2.36961 64.7033 2.17525 64.8165 1.94851 64.8651C1.67318 64.9298 1.3655 64.9136 1.10637 64.7518C0.863426 64.6062 0.717678 64.2987 0.798658 64.0074C0.944422 63.4895 1.7218 63.3601 1.89995 62.8422C2.14289 62.1139 0.976798 61.499 1.18735 60.7546C1.30072 60.3338 1.83514 60.1072 1.86753 59.6703C1.89992 59.0553 0.911966 58.6507 1.13871 58.0843C1.1873 57.971 1.26831 57.8901 1.33309 57.7768C1.46266 57.5503 1.44647 57.2752 1.41407 57.0001C1.41407 56.8059 1.38165 56.5793 1.21969 56.466C1.13871 56.4175 1.04158 56.3851 0.944406 56.3527C0.60429 56.1909 0.474738 55.6892 0.717678 55.3817C0.928226 55.1228 1.34931 54.961 1.34931 54.6535C1.91617 54.0547 2.74213 53.7149 3.58432 53.731C3.85965 53.731 4.15123 53.7796 4.44276 53.7472C4.53993 53.7472 4.65326 53.7149 4.71804 53.6339C4.81522 53.5368 4.79904 53.375 4.73425 53.2617C4.68566 53.1323 4.60468 53.019 4.57229 52.8895C4.47512 52.5659 4.70189 52.2422 4.92864 51.9995C5.23636 51.7082 5.60884 51.4654 6.02993 51.3683C6.28907 51.3198 6.54817 51.3036 6.80731 51.3036C7.14742 51.3036 7.50378 51.3036 7.8277 51.4169C8.18401 51.5301 8.50793 51.7891 8.88044 51.7891C8.99381 51.7891 9.1072 51.7567 9.22057 51.7891C9.36634 51.8052 9.47969 51.8862 9.60926 51.9509C9.72263 51.9994 9.90077 52.0156 9.99795 51.9185C10.0627 51.8376 10.0627 51.7082 10.0627 51.5949C10.0627 51.4492 10.0465 51.2874 9.96553 51.1741C9.88455 51.0608 9.77117 50.9961 9.64161 50.9475C9.50124 50.8828 9.35552 50.8235 9.20436 50.7695C8.92903 50.4297 8.34599 50.4782 8.16783 50.0736C8.07066 49.8471 8.13539 49.6043 8.28116 49.4263C8.5079 49.135 8.89661 49.0379 9.25292 48.9732C9.38249 48.957 9.4959 48.9408 9.62547 48.9732C9.78743 49.0218 9.91694 49.1188 10.0465 49.2321C10.3596 49.5019 10.6944 49.7446 11.0507 49.9604C11.2774 50.106 11.5366 50.2355 11.7957 50.2031C12.0387 50.1708 12.233 49.9927 12.3788 49.7985C12.8971 49.0703 12.7513 48.0346 13.3019 47.3387C13.4963 47.1121 13.7393 46.9179 13.8364 46.6428C13.9012 46.4163 13.8526 46.1897 13.8202 45.9469C13.7878 45.7042 13.7878 45.4453 13.885 45.2187C13.9984 44.9921 14.2575 44.8303 14.5004 44.895C14.6624 44.9436 14.7758 45.1054 14.9377 45.2025C15.1159 45.332 15.375 45.3643 15.5208 45.5424C15.6342 45.688 15.6503 45.9146 15.6341 46.1088C15.6341 46.3839 15.6179 46.7076 15.4074 46.8694C15.3588 46.9179 15.294 46.9503 15.2616 46.9988C15.1321 47.1445 15.294 47.4034 15.4884 47.4358C15.6827 47.4682 15.8771 47.3711 16.039 47.2578C16.1686 47.1769 16.3144 47.0636 16.3792 46.9179C16.4601 46.8046 16.4764 46.6752 16.5088 46.5457C16.5897 46.2221 16.7679 45.9469 16.946 45.6557C16.9946 45.5747 17.0432 45.4938 17.1242 45.4291C17.3023 45.2673 17.61 45.1378 17.7396 45.0245C17.9555 44.8411 18.1715 44.6631 18.3874 44.4904C18.4684 44.4257 18.5494 44.3448 18.6304 44.2639C18.7599 44.102 18.8247 43.9079 18.8895 43.7137L19.1163 43.0663C19.2134 42.7589 19.3268 42.4352 19.5536 42.2086C19.7965 41.9659 20.1367 41.8526 20.3958 41.626C20.5254 41.4966 20.6225 41.3347 20.7521 41.2053C21.0598 40.8978 21.5133 40.7521 21.9506 40.7683C22.3879 40.8007 22.809 40.9625 23.1815 41.1891C23.2948 41.27 23.4082 41.3509 23.5378 41.3833C23.6674 41.4157 23.8131 41.4156 23.9103 41.3186C23.9589 41.27 23.9751 41.2053 24.0075 41.1405C24.1047 40.914 24.1532 40.655 24.1532 40.4123C24.1532 40.3476 24.1371 40.2828 24.1047 40.2181C24.0561 40.1695 23.9751 40.1372 23.9103 40.121C23.6188 40.0077 23.4082 39.7488 23.1653 39.5384C22.9385 39.3118 22.6471 39.1176 22.3393 39.1338C22.1126 39.15 21.902 39.2795 21.6753 39.2957C21.5133 39.3118 21.3514 39.2795 21.2056 39.328C21.076 39.3604 20.9951 39.4575 20.8817 39.506C20.7683 39.5708 20.6225 39.6031 20.5253 39.5222C20.3958 39.4251 20.4282 39.2471 20.4768 39.1015C20.493 39.0205 20.5254 38.9396 20.5578 38.8749C20.6711 38.7131 20.8655 38.6483 21.0112 38.5188C21.1084 38.4217 21.1893 38.2761 21.3027 38.179C21.4485 38.0495 21.6591 38.0172 21.821 38.0981C22.3879 38.1305 22.9871 38.1952 23.5216 38.001C23.9103 37.8715 24.2504 37.5964 24.6715 37.5317C24.8821 37.4993 25.1088 37.5317 25.3356 37.4993C25.5623 37.467 25.789 37.3375 25.8538 37.1271C25.8862 36.9976 25.8538 36.852 25.87 36.7225C25.951 36.3665 26.3883 36.2532 26.5664 35.9457C26.7122 35.6868 26.6474 35.3793 26.6798 35.1042C26.696 34.91 26.7608 34.732 26.8256 34.554C26.9065 34.3112 27.0362 34.0523 27.2791 33.9876C27.4411 33.9552 27.6192 34.0361 27.7973 34.0199C27.8783 34.0038 27.9431 33.9714 27.9917 33.9228C28.0727 33.8257 28.0565 33.6801 27.9755 33.583C27.9107 33.4859 27.8135 33.4212 27.7001 33.3564C27.4194 33.1838 27.1387 33.0112 26.858 32.8386C26.8094 32.8062 26.7446 32.7738 26.7122 32.7091C26.6637 32.6282 26.6636 32.5311 26.6636 32.434C26.696 32.1427 26.7122 31.819 26.8742 31.5601C27.02 31.285 27.3276 31.0908 27.6192 31.1555C27.8135 31.204 27.9593 31.3497 28.1375 31.4144C28.2832 31.463 28.4452 31.463 28.5909 31.463H29.4656C29.6437 31.463 29.838 31.463 30 31.3821C30.162 31.285 30.2753 31.0908 30.2105 30.9289C30.0971 30.6862 29.7571 30.7024 29.5141 30.5891C29.2226 30.4434 29.1092 30.0712 29.1902 29.7476C29.255 29.4401 29.4655 29.165 29.6761 28.9384C29.8542 28.7442 30.0486 28.5015 30.0162 28.2587C30.6425 27.7624 31.2741 27.2661 31.9111 26.7699C31.9921 26.7213 32.0569 26.6566 32.1055 26.5757C32.1541 26.4948 32.1703 26.3977 32.2027 26.3167C32.2998 26.0254 32.5266 25.7827 32.6238 25.4914C32.64 25.4267 32.6562 25.3619 32.7048 25.2972C32.7857 25.1677 32.9477 25.103 33.0934 25.0868C33.3364 25.0706 33.5631 25.103 33.7898 25.0868C34.0166 25.0706 34.2595 24.9897 34.3729 24.7955C34.5025 24.5851 34.4539 24.3262 34.4215 24.0996C34.3891 23.8569 34.3891 23.5818 34.5673 23.4361C34.6807 23.339 34.8264 23.3067 34.9398 23.2257C35.037 23.161 35.0855 23.0639 35.1665 22.9992C35.3123 22.8859 35.4904 22.8697 35.6686 22.8697C35.9439 22.8535 36.203 22.8373 36.4622 22.9021C36.6565 22.9506 36.8347 23.0315 37.029 23.0315C37.2234 23.0315 37.434 22.9183 37.4502 22.7241C37.4502 22.5137 37.2396 22.368 37.0615 22.2709C36.8347 22.1577 36.6241 22.0444 36.3812 22.0444C36.2516 22.0282 36.1221 22.0606 35.9925 22.0282C35.8629 21.9958 35.7496 21.8987 35.7496 21.7692C35.7496 21.7369 35.7496 21.6722 35.7334 21.6398C35.8953 21.3809 36.0573 21.0896 36.3326 20.9439C36.4784 20.863 36.6242 20.8145 36.7538 20.7335C37.0777 20.5393 37.2072 20.1509 37.4339 19.8596C37.8065 19.4227 38.4705 19.2609 39.005 19.4712C39.1508 19.5198 39.2965 19.6007 39.4422 19.6169C39.7338 19.6654 40.0577 19.4874 40.2845 19.6493C40.3978 19.7464 40.4464 19.892 40.5598 19.9891C40.6732 20.0862 40.8513 20.1186 40.9971 20.0377C41.2724 19.9244 41.321 19.5522 41.2886 19.2447C41.2562 18.9372 41.2238 18.5974 41.4344 18.387C41.6125 18.1928 41.9041 18.1766 42.147 18.1119C42.3899 18.0471 42.6652 17.8367 42.6004 17.594C42.5681 17.4483 42.4223 17.3512 42.2927 17.3189C42.147 17.2865 42.0012 17.3027 41.8716 17.3351C41.6449 17.3674 41.4181 17.3998 41.2238 17.4807C41.0294 17.5778 40.8351 17.7396 40.7703 17.95C40.7541 17.9986 40.7542 18.0795 40.7056 18.0957C40.657 18.128 40.6245 18.1119 40.576 18.1119C40.0577 18.0795 39.5556 18.3384 39.0373 18.4517C38.4219 18.5812 37.7903 18.5164 37.1587 18.5488C36.8185 18.5812 36.4784 18.6297 36.1869 18.7916C35.9116 18.921 35.6686 19.1476 35.3932 19.2932C34.6806 19.6493 33.806 19.4227 33.0448 19.6816C32.8829 19.7464 32.7209 19.8273 32.5589 19.8758C32.235 19.9729 31.8625 19.9406 31.5872 19.7302C31.328 19.536 31.1823 19.1476 31.3119 18.8401C31.4091 18.6135 31.6196 18.4517 31.8463 18.3708C32.0731 18.2899 32.316 18.2737 32.5589 18.2413C32.8073 18.2197 33.0556 18.1982 33.304 18.1766C33.5631 18.1604 33.8546 18.128 34.049 17.95C34.1624 17.8529 34.2433 17.7235 34.3405 17.6264C34.4863 17.5131 34.6482 17.4645 34.8264 17.4322C35.1503 17.3512 35.5067 17.3189 35.8468 17.3189C36.0087 17.3189 36.1869 17.3351 36.3489 17.2865C36.5108 17.238 36.6566 17.0923 36.6728 16.9305C36.689 16.7201 36.4946 16.5583 36.284 16.5097C36.0897 16.4773 35.8791 16.5259 35.6686 16.5583C35.4095 16.5906 35.1341 16.5906 34.875 16.5583C34.6159 16.5259 34.3081 16.4126 34.2757 16.1537C34.2595 16.0242 34.3082 15.8948 34.3891 15.7653C34.6969 15.2636 35.2799 14.9238 35.8791 14.9076C36.1544 14.8752 36.4136 14.8267 36.6728 14.8267C36.9643 14.8267 37.2558 14.8752 37.5149 15.0209C37.6121 15.0694 37.6931 15.1342 37.7903 15.1665C37.8875 15.2151 38.0008 15.2151 38.098 15.1665C38.179 15.1018 38.2275 14.9885 38.2275 14.8752C38.2275 14.7619 38.1789 14.6648 38.1466 14.5515C38.0494 14.2279 38.0332 13.8395 38.26 13.5806C38.3409 13.4996 38.4381 13.4349 38.5353 13.3702C38.8592 13.1436 39.1184 12.8523 39.5071 12.7229C39.669 12.6743 39.831 12.6743 39.9767 12.7067C40.0577 12.739 40.1549 12.7714 40.1873 12.8523C40.2035 12.8847 40.2197 12.9494 40.2197 12.998C40.2035 13.1598 40.2034 13.3055 40.1711 13.4673C40.1549 13.5482 40.1225 13.6129 40.0739 13.6777C39.9768 13.8233 39.7986 13.8881 39.7014 14.0175C39.6042 14.147 39.6042 14.325 39.6042 14.4868C39.615 14.6486 39.6366 14.8051 39.669 14.9561C39.7014 15.1018 39.7338 15.2312 39.8148 15.3445C39.912 15.4578 40.0415 15.5387 40.1873 15.5064C40.3654 15.4578 40.4464 15.2636 40.4788 15.0856C40.5274 14.9076 40.5274 14.7134 40.6408 14.5839C40.7056 14.503 40.8028 14.4383 40.8837 14.3897C40.9971 14.325 41.159 14.2603 41.24 14.3735C41.4667 14.4706 41.6287 14.681 41.6773 14.9238C41.7421 15.1665 41.6773 15.474 41.8716 15.652C42.0174 15.7977 42.2603 15.7815 42.4547 15.7653C42.5681 15.7653 42.6977 15.7491 42.7948 15.7006C42.9082 15.652 42.9892 15.5873 43.0702 15.5225C43.2969 15.3607 43.556 15.2798 43.8314 15.2474C43.9933 15.2474 44.1715 15.2636 44.3172 15.1827C44.4306 15.1341 44.5116 15.0371 44.5764 14.94C44.7491 14.7242 44.9219 14.5084 45.0947 14.2926C45.1433 14.2279 45.1918 14.1793 45.2242 14.0984C45.3214 13.8233 44.9975 13.5482 44.7059 13.5644C44.4144 13.5806 44.1715 13.7748 43.961 13.969C43.8314 14.0822 43.7018 14.2117 43.5561 14.2926C43.3941 14.3574 43.1997 14.3897 43.0378 14.3088C42.9406 14.2441 42.8596 14.147 42.7948 14.0499C42.6977 13.9042 42.6167 13.7262 42.6491 13.5482C42.6815 13.3216 42.9244 13.1598 42.9244 12.9332C42.9244 12.8361 42.8758 12.739 42.8596 12.6581C42.73 12.1726 43.0864 11.6709 43.5237 11.3958C43.9447 11.1369 44.4468 11.0074 44.8679 10.7161C45.1432 10.5381 45.4186 10.2954 45.7425 10.2954C46.0341 10.2954 46.2769 10.4734 46.4875 10.6352C46.9518 10.9913 47.4107 11.3473 47.8641 11.7033C48.0423 11.8328 48.2043 11.9623 48.4149 11.9946C48.4959 11.9946 48.593 11.9946 48.6416 11.9299C48.674 11.8975 48.674 11.849 48.6902 11.8004C48.7225 11.5577 48.674 11.2987 48.5768 11.0883C48.512 10.9589 48.4148 10.8294 48.35 10.7C48.269 10.5381 48.2367 10.3439 48.2367 10.1659C48.2529 9.92316 48.3338 9.68041 48.5282 9.53476C48.7064 9.37293 48.9979 9.35676 49.1922 9.48622C49.4352 9.68042 49.4352 10.0203 49.4514 10.3116C49.4514 10.6029 49.5323 10.9589 49.8239 11.056C50.083 11.1531 50.3745 10.9265 50.4555 10.6514C50.5365 10.3763 50.4717 10.085 50.3907 9.80989C50.2936 9.48622 50.1478 9.09781 49.8077 9.06545C49.5485 8.88204 49.311 8.67706 49.0951 8.4505C49.0141 8.3534 48.9331 8.27247 48.8845 8.15919C48.8198 7.98118 48.8683 7.78697 48.9331 7.60896C48.9979 7.36621 49.1275 7.10729 49.3704 7.07493C49.8077 6.99401 50.1316 7.67369 50.5527 7.52804C50.7956 7.44713 50.8928 7.1073 51.152 7.05875C51.3463 7.0102 51.5244 7.17202 51.6702 7.31767C51.816 7.44714 52.0104 7.59278 52.2047 7.52804C52.3991 7.44713 52.4477 7.18821 52.4477 6.97783C52.4639 6.76745 52.48 6.50852 52.6744 6.41142C52.8201 6.34669 52.9821 6.39522 53.1117 6.47614C53.5166 6.71888 53.7433 7.20438 53.7109 7.6737C53.6623 8.14301 53.3708 8.57995 52.9659 8.8227C52.8363 8.9198 52.6582 9.01691 52.6744 9.17874C52.6906 9.38912 52.9659 9.43767 53.1603 9.42149C53.3222 9.42149 53.5004 9.42149 53.6461 9.34057C53.8243 9.24347 53.9539 9.08165 54.0673 8.91981C54.1644 8.7418 54.2778 8.57996 54.4559 8.46668C54.6179 8.35339 54.8608 8.33721 54.9904 8.48286C55.1199 8.61232 55.12 8.82271 55.1038 9.00073C55.0822 9.35676 55.0606 9.71818 55.039 10.085C55.0228 10.2792 55.0066 10.4572 55.0552 10.6352C55.1038 10.7971 55.2333 10.9589 55.4115 11.0074C55.5896 11.056 55.784 10.9751 55.8974 10.8456C56.0269 10.6999 56.0917 10.5219 56.1241 10.3439C56.1673 10.1821 56.1835 10.0095 56.1727 9.82607C56.1727 9.71279 56.1727 9.58331 56.2213 9.47003C56.3185 9.27583 56.5776 9.17873 56.6424 8.96835C56.7072 8.79034 56.5777 8.59614 56.4319 8.48286C56.2699 8.36957 56.0755 8.32102 55.9136 8.24011C55.5411 8.02973 55.2657 7.62514 55.2657 7.20438C55.2657 6.78362 55.5735 6.36287 55.9784 6.26577C56.3833 6.15248 56.8692 6.39522 56.9987 6.7998C57.0473 6.92927 57.0473 7.07491 57.0959 7.20438C57.1444 7.35003 57.2579 7.46332 57.3712 7.5766C57.6304 7.8679 57.9381 8.17538 58.3268 8.20775C58.4725 8.22393 58.6345 8.19156 58.7803 8.22393C58.9747 8.25629 59.1204 8.36957 59.2823 8.48286C59.4443 8.59614 59.6225 8.69323 59.8168 8.66087C60.0112 8.64468 60.1731 8.4343 60.1083 8.25629C60.0759 8.19155 60.0274 8.1592 59.9626 8.11065C59.5091 7.70607 59.0556 7.30148 58.5049 7.04255C58.3916 6.97781 58.2782 6.92928 58.181 6.83218C58.0838 6.75126 58.0191 6.60562 58.0515 6.49233C58.1163 6.31432 58.3268 6.24958 58.5049 6.20103C58.6831 6.15248 58.8127 6.03921 58.9098 5.92592C59.1366 5.74791 59.3958 5.6508 59.6711 5.56988C59.9464 5.47278 60.2379 5.47279 60.5132 5.60226C60.7238 5.69936 60.8857 5.89354 61.0639 6.07156C61.2258 6.26575 61.404 6.44378 61.6307 6.52469C61.8737 6.60561 62.1652 6.55706 62.2948 6.34668C62.3434 6.28195 62.3596 6.18485 62.3596 6.10393C62.3758 5.86119 62.2624 5.61844 62.0843 5.44043C61.9061 5.2786 61.6793 5.16531 61.4688 5.06821C61.2096 4.95492 60.9344 4.87402 60.7886 4.63127C60.7076 4.5018 60.6914 4.33995 60.7562 4.21049C60.8695 3.98392 61.1125 4.00011 61.323 3.95156C61.6146 3.87065 61.8251 3.66026 62.0681 3.48225C62.2948 3.32041 62.6025 3.17478 62.8779 3.2557C63.0722 3.30425 63.218 3.46606 63.4285 3.48225C63.6391 3.51461 63.8334 3.36897 64.0116 3.22332C64.3841 2.93202 64.8214 2.64072 65.291 2.73782C65.3396 2.73782 65.3721 2.75401 65.4044 2.78638C65.4368 2.81875 65.4368 2.86728 65.4368 2.91583C65.453 3.40133 65.1939 3.87065 64.7728 4.11339C64.4975 4.27523 64.1898 4.32378 63.882 4.35614C63.7201 4.37232 63.5581 4.37232 63.4123 4.43706C63.2665 4.50179 63.137 4.61507 63.1208 4.7769C63.1046 4.874 63.1532 4.98729 63.2018 5.08439C63.4285 5.4566 63.8658 5.69935 63.963 6.12011C63.9792 6.21721 63.9792 6.31432 63.9954 6.41142C64.0278 6.63798 64.1573 6.81599 64.2383 7.02637C64.3031 7.1882 64.3355 7.35004 64.4003 7.49568C64.4812 7.64133 64.6108 7.78699 64.789 7.78699C64.9347 7.78699 65.0805 7.68988 65.1939 7.59278C65.3396 7.44713 65.4693 7.2853 65.5016 7.0911C65.5826 6.71889 65.3235 6.39523 65.0805 6.10393C64.8376 5.82882 64.5947 5.47279 64.6918 5.11676C64.6918 5.11676 64.7404 4.98729 64.7566 4.89019C65.0643 4.56653 65.5988 4.45324 65.9227 4.12957C66.036 4.01629 66.1333 3.87066 66.2305 3.74119C66.522 3.40135 66.9592 3.22331 67.3965 3.2395C67.5099 3.25568 67.6395 3.27188 67.7204 3.35279C67.8338 3.44989 67.8501 3.6279 67.931 3.77355C68.012 3.90302 68.174 3.98394 68.3359 3.98394C68.4979 3.98394 68.6599 3.90302 68.7408 3.75737C68.8704 3.53081 68.8056 3.25568 68.757 2.99675C68.7084 2.754 68.7084 2.43035 68.9351 2.30088C69.0323 2.23615 69.1457 2.21996 69.2429 2.15523C69.2914 2.12287 69.3401 2.05813 69.3725 2.02576C69.5344 1.83156 69.6963 1.65355 69.8907 1.5079C70.0203 1.42699 70.1985 1.34606 70.3442 1.37843C70.6682 1.2166 71.0083 1.42699 71.2512 1.65356C71.4618 1.86394 71.6884 2.12287 71.9962 2.15523C72.1581 2.17142 72.3202 2.13905 72.4659 2.0905C72.5955 2.04195 72.7251 1.99341 72.7898 1.88013C72.8384 1.79921 72.8384 1.71828 72.8384 1.62118C72.8546 1.23278 73.0004 0.812035 73.3567 0.666387C73.5672 0.569288 73.794 0.585463 74.0045 0.617829C74.458 0.682562 74.9438 0.844402 75.1544 1.2328C75.2678 1.45936 75.284 1.73447 75.1868 1.97722C75.1058 2.20379 74.9115 2.39797 74.6685 2.51125C74.5389 2.5598 74.377 2.59219 74.2636 2.68929C74.0207 2.88348 74.0207 3.2395 73.8749 3.48225C73.632 3.88683 73.1137 4.00012 72.7736 4.3076C72.5955 4.46944 72.4659 4.69598 72.4173 4.93873C72.3687 5.11675 72.3687 5.32713 72.2553 5.48897C72.2067 5.53751 72.1419 5.58607 72.0772 5.63462C71.818 5.87737 71.737 6.24958 71.6722 6.60561C71.6561 6.71889 71.6399 6.86453 71.6885 6.96163C71.8018 7.17201 72.1095 7.17202 72.3201 7.0911C72.7412 6.92927 73.0975 6.55706 73.2271 6.12011C73.2433 6.0392 73.2595 5.95828 73.3081 5.89355C73.3567 5.82881 73.4214 5.78027 73.4862 5.71553C73.6806 5.50515 73.6806 5.14913 73.8264 4.89019C74.0045 4.5989 74.3608 4.46942 74.5552 4.19431C74.6362 4.11339 74.6848 4.00012 74.7334 3.90302C74.9277 3.61173 75.1868 3.36897 75.4622 3.1424C75.6565 2.88347 75.8832 2.64073 76.1424 2.4789C76.4339 2.30088 76.7902 2.20378 77.0979 2.31706C77.4056 2.43035 77.6486 2.78638 77.5514 3.09386C77.5029 3.2557 77.3895 3.38516 77.2761 3.51462C77.0817 3.77355 76.9036 4.08104 76.9036 4.4047C76.8874 4.74455 77.0979 5.10056 77.4218 5.18148C77.573 4.95492 77.7242 4.73375 77.8754 4.51797C77.9725 4.37232 78.0697 4.22667 78.2155 4.12957C78.3613 4.01629 78.5555 3.98392 78.7175 3.88683C79.009 3.70881 79.1872 3.3528 79.1548 3.01295C79.1224 2.59219 78.7824 2.17141 78.9443 1.78301C79.0739 1.44316 79.4949 1.32989 79.8512 1.28134C80.3155 1.19503 80.7798 1.10872 81.2441 1.02241C81.6166 0.957676 82.0053 0.892947 82.3778 0.925314C82.6046 0.925314 82.8313 0.973863 83.0094 1.08715C83.2686 1.24898 83.4468 1.54027 83.4792 1.83157C83.4954 2.13905 83.382 2.44653 83.1553 2.64073C82.8314 2.93203 82.2969 3.02913 82.1673 3.43371C82.1511 3.48226 82.1349 3.54699 82.1673 3.59554C82.1835 3.64409 82.232 3.67644 82.2806 3.72499C82.4426 3.83828 82.556 4.03249 82.5884 4.24287C82.5884 4.35615 82.5884 4.46943 82.637 4.56653C82.7179 4.76073 82.9933 4.80928 83.1876 4.71218C83.382 4.5989 83.4792 4.40469 83.544 4.21049C83.6087 4.00011 83.6411 3.78974 83.7059 3.59554C83.7869 3.38516 83.9165 3.19096 84.0461 3.01295C84.0946 2.93203 84.1594 2.86729 84.2241 2.80256C84.3051 2.75401 84.3861 2.72165 84.4671 2.70546C85.3255 2.4789 86.2972 2.68929 86.9127 3.33661C87.0747 3.49844 87.35 3.49844 87.593 3.51462C87.9709 3.51462 88.3488 3.52001 88.7267 3.5308C88.8886 3.5308 89.0668 3.53081 89.2288 3.57936C89.4393 3.64409 89.6175 3.77354 89.7794 3.88683C90.2815 4.22667 90.7998 4.56652 91.399 4.67981C91.6096 4.71217 91.8363 4.72837 92.0469 4.7931C92.468 4.92256 92.7757 5.29477 92.9214 5.71553C92.97 5.87737 93.0186 6.0392 92.9538 6.18485Z" fill="#F1F1F1" stroke="#BABABA" stroke-width="1.18548" stroke-linecap="round" stroke-linejoin="round"/>
</svg>
