<svg width="17" height="22" viewBox="0 0 17 22" fill="none" xmlns="http://www.w3.org/2000/svg">
<path d="M16.2764 16.9764C16.2656 17.3 16.2171 17.6237 16.1307 17.9474C15.823 19.1773 14.9808 20.2615 14.5273 21.4105C14.4139 21.3134 14.3006 21.2002 14.2034 21.0869C13.6689 20.4396 13.5394 19.4039 13.4746 18.5623C13.4584 18.1254 13.3288 17.5428 13.1507 17.1382C13.0535 16.8793 12.9077 16.6365 12.8915 16.3614C12.8915 16.1996 12.9239 16.0216 12.9401 15.8435C12.9725 15.3742 12.7134 14.8725 12.2599 14.7431C12.1141 14.6945 11.9522 14.6945 11.8064 14.6945C11.5635 14.7107 11.3043 14.7754 11.1747 14.9696C11.0127 15.1962 11.0776 15.5037 11.2071 15.7464C11.2395 15.795 11.2719 15.8597 11.2719 15.9245C11.2557 15.9892 11.2233 16.0377 11.1909 16.0701C11.0829 16.2427 10.9696 16.4153 10.8508 16.5879C10.786 16.685 10.7051 16.7822 10.5917 16.8145C10.4783 16.8307 10.365 16.766 10.2678 16.6851C10.0734 16.5718 9.89529 16.4261 9.78192 16.2319C9.71713 16.0863 9.68471 15.8921 9.34459 15.9083C9.3122 15.9244 9.2636 15.9244 9.2474 15.9406C9.10164 16.0377 8.98825 16.2319 9.06923 16.3776C9.11782 16.5071 8.93973 16.6042 8.81016 16.6203C8.04895 16.7013 7.27151 16.4747 6.5103 16.4747C5.57093 16.4747 4.64772 16.8631 3.96749 17.5104C3.72455 17.737 3.44927 18.0283 3.12535 18.0283C3.25492 17.4133 3.44925 16.7983 3.35208 16.1834C3.30349 15.8597 3.19015 15.536 3.06058 15.2124C2.46133 13.5617 2.20216 11.7816 2.29934 10.0176C2.31553 9.6292 2.34796 9.20842 2.08882 8.91713C1.89447 8.72293 1.61907 8.65821 1.37613 8.52875C0.760686 8.17272 0.485354 7.33117 0.728294 6.65148C0.98743 5.97179 1.68392 5.51865 2.41274 5.4701C2.5585 5.4701 2.72043 5.47011 2.8662 5.40538C3.14153 5.27592 3.19013 4.85516 3.04437 4.56386C2.8986 4.28875 2.60709 4.11073 2.33176 3.94889C2.01864 3.76548 1.70547 3.57668 1.39235 3.38248C1.11701 3.22065 0.80929 3.02644 0.663526 2.71896C0.533958 2.41147 0.598726 2.05544 0.728294 1.74796C0.938842 1.27865 1.31135 0.874071 1.78103 0.696056C2.26691 0.501858 2.85003 0.582797 3.22254 0.922644C3.61124 1.26249 3.77319 1.84506 4.25907 2.07163C4.61538 2.23346 5.02028 2.12019 5.39279 2.00691C5.61953 1.92599 5.84628 1.84507 6.04063 1.71561C6.02443 2.55713 6.10536 3.38248 6.31591 4.19164C6.3807 4.43439 6.46172 4.67713 6.60749 4.87133C6.9638 5.34064 7.64403 5.40537 8.22709 5.43774C10.1382 5.54563 12.0439 5.64811 13.9442 5.7452C14.3006 5.76139 14.7055 5.80995 14.9322 6.08507C15.0942 6.27927 15.1265 6.58674 15.078 6.84567C14.9322 7.89758 13.9767 8.60965 13.1669 9.28935C12.1303 10.1632 11.1586 11.3284 11.2233 12.6878C11.2395 13.2057 11.5634 13.8206 12.0817 13.8044C12.6324 13.7883 12.9077 13.1409 13.0049 12.5907C13.1183 12.0405 13.2802 11.377 13.8147 11.2475C14.3654 11.118 14.835 11.6521 14.9808 12.1861C15.1265 12.7202 15.078 13.3028 15.2723 13.8206C15.3695 14.0796 15.5477 14.3223 15.6772 14.565C16.0983 15.2933 16.3088 16.1348 16.2764 16.9764Z" fill="#F1F1F1" stroke="#BABABA" stroke-width="1.18548" stroke-linecap="round" stroke-linejoin="round"/>
</svg>
