<svg width="21" height="18" viewBox="0 0 21 18" fill="none" xmlns="http://www.w3.org/2000/svg">
<path d="M19.4673 6.15981C19.4025 6.38638 19.2406 6.59675 19.0786 6.79094C18.6683 7.30881 18.258 7.83205 17.8477 8.36071C17.1837 9.20223 16.4548 10.0923 15.4183 10.3998C14.9486 10.5455 14.4303 10.5616 13.9607 10.7235C13.491 10.8853 13.0375 11.2899 13.0537 11.7915C13.0699 12.1476 13.3128 12.4389 13.572 12.6978C13.8311 12.9406 14.1226 13.1509 14.2846 13.4746C14.4465 13.7821 14.4466 14.219 14.155 14.4294C13.9283 14.6074 13.6044 14.5589 13.3615 14.4456C13.1185 14.3161 12.9079 14.1219 12.6812 13.9439C12.2439 13.6202 11.7094 13.426 11.1588 13.3775C10.7539 13.3451 10.268 13.4584 10.0898 13.8306C9.94406 14.1381 10.0899 14.5265 9.96029 14.8502C9.74974 15.368 9.05332 15.4004 8.50265 15.4004C8.35689 15.3842 8.19488 15.3842 8.04912 15.4651C7.93575 15.5461 7.87096 15.6593 7.80618 15.7888C7.80618 15.7996 7.80084 15.8158 7.79004 15.8373C7.44993 15.8535 7.09357 15.9506 6.76965 16.0477C6.80204 16.1772 6.83448 16.2905 6.81829 16.4199C6.80209 16.5332 6.72106 16.6627 6.60769 16.6789C6.39714 16.7113 6.26761 16.4847 6.23521 16.2743C6.21902 16.0801 6.219 15.8374 6.05704 15.7079C5.95987 15.627 5.79792 15.6108 5.66835 15.5784C5.27965 15.4651 5.02051 15.0282 5.10149 14.6398C5.11769 14.4941 5.18244 14.3647 5.23103 14.2352C5.31201 13.9439 5.26345 13.6041 5.10149 13.3289C5.0691 13.2804 5.03668 13.2318 4.98809 13.2157C4.89091 13.1995 4.79372 13.2966 4.72894 13.3775C4.38882 13.7821 3.77338 13.9439 3.2713 13.7821C3.19032 13.7497 3.10937 13.7173 3.06078 13.6526C3.0122 13.5879 2.99601 13.4908 2.99601 13.3937C2.99601 12.8596 3.22277 12.3094 3.09321 11.7915C2.99603 11.3546 2.67208 11.0147 2.33196 10.7073C2.34816 10.3512 2.31574 9.97903 2.21856 9.623C2.02421 8.84621 1.61936 8.15033 1.29544 7.43827C1.0255 6.82331 0.81497 6.18676 0.663808 5.52865C0.599024 5.30208 0.55042 5.04317 0.647596 4.8166C0.825752 4.44439 1.31163 4.34729 1.61936 4.08836C2.05665 3.73233 2.15379 3.11737 2.39673 2.63187C3.04457 1.33722 4.69656 0.916429 6.12181 1.02971C7.56325 1.14299 8.95616 1.64469 10.3814 1.61232C10.5002 1.61232 10.6189 1.60691 10.7377 1.59612C11.175 1.8065 11.6123 2.01691 11.9848 2.30821C12.2763 2.55096 12.5354 2.84224 12.8594 3.02025C13.1833 3.19827 13.6368 3.24682 13.9121 2.98789C14.3332 2.58331 14.0416 1.8389 14.2846 1.30486C14.4303 1.01356 14.7543 0.81933 15.0944 0.786964C15.4183 0.754597 15.7584 0.884087 16.0176 1.09447C16.2443 1.27248 16.4549 1.5314 16.7464 1.56376C16.9893 1.59613 17.2161 1.46667 17.3942 1.32102C17.5724 1.15919 17.7182 0.98117 17.9125 0.835521C18.1069 0.706056 18.3336 0.641323 18.5765 0.592773C18.4793 0.819338 18.4469 1.06209 18.4146 1.28866C18.366 1.79034 18.3012 2.30821 18.4632 2.7937C18.5766 3.14973 18.8033 3.45719 18.9814 3.78085C19.2891 4.33108 19.4673 4.94606 19.5159 5.5772C19.5159 5.7714 19.5321 5.96562 19.4673 6.15981Z" fill="#F1F1F1" stroke="#BABABA" stroke-width="1.18548" stroke-linecap="round" stroke-linejoin="round"/>
</svg>
