<svg width="38" height="25" viewBox="0 0 38 25" fill="none" xmlns="http://www.w3.org/2000/svg">
<path d="M37.17 9.41261C36.6193 9.60681 36.0686 9.84959 35.5342 10.0923C35.3722 10.1571 35.2103 10.2218 35.0969 10.3674C34.9836 10.4807 34.9349 10.6588 34.8863 10.8206C34.7352 11.2845 34.5894 11.7484 34.4491 12.2123C34.3843 12.3903 34.3195 12.5845 34.2061 12.7302C33.8336 13.248 33.0239 13.2157 32.6028 13.6688C32.376 13.9277 32.2788 14.2676 32.0682 14.5265C31.7929 14.8502 31.3719 14.9635 30.9832 15.0767C30.1896 15.3033 29.3959 15.5137 28.5861 15.5784C28.084 15.6108 27.582 15.5784 27.0961 15.6431C26.3997 15.7402 25.7518 16.0316 25.1202 16.3067C24.6883 16.5009 24.2618 16.6951 23.8407 16.8893C23.6464 16.9702 23.452 17.0511 23.3062 17.1967C23.1118 17.3748 23.0147 17.6013 22.8689 17.7955C22.5288 18.281 21.9781 18.6209 21.3789 18.7018C20.812 19.2682 19.8565 18.8474 19.0629 18.9607C18.0911 19.1225 17.4433 20.1097 16.5363 20.4819C15.5969 20.8865 14.447 20.6114 13.5563 21.1131C13.3943 21.2102 13.2485 21.3396 13.0704 21.4044C12.9084 21.4691 12.7302 21.4853 12.5521 21.5015C12.077 21.5446 11.6074 21.5878 11.1431 21.6309C10.9811 21.6471 10.803 21.6633 10.6572 21.728C10.3981 21.8575 10.2361 22.1002 10.0579 22.3268C9.60442 22.9256 8.89182 23.4273 8.14681 23.3464C7.83908 23.3302 7.53131 23.2007 7.20739 23.2492C6.72151 23.314 6.38141 23.7671 5.92793 23.9775C5.49063 24.1555 4.97235 24.0908 4.53505 23.8804C4.09776 23.67 3.74143 23.3464 3.38512 23.0389C3.14218 22.8123 2.88308 22.5857 2.76971 22.2783C2.64014 21.9708 2.65632 21.6148 2.67251 21.2749C2.7211 19.867 2.47819 18.3781 1.6522 17.2453C1.34447 16.8407 0.971983 16.4685 0.777631 16.0154C0.583279 15.5461 0.583263 15.012 0.599459 14.4942C0.610256 13.9763 0.621006 13.4531 0.631803 12.9244C0.793763 12.2447 0.901737 11.5542 0.955723 10.8529C0.988115 10.4807 1.00434 10.0599 0.907167 9.70392C1.11771 9.44499 1.2959 9.16988 1.42547 8.8624C1.7008 8.26362 1.78172 7.56773 2.08944 6.98514C2.41336 6.38636 3.09361 5.88469 3.72525 6.11126C4.04917 6.22454 4.27595 6.51585 4.56748 6.69387C4.95618 6.9528 5.42588 7.01752 5.87937 6.92042C6.25188 6.8395 6.64053 6.90425 6.96445 7.09845C7.9686 7.71341 9.2643 7.7943 10.4628 7.92377C11.8881 8.06942 13.5076 8.45783 14.1879 9.72012C14.3822 10.0761 14.4794 10.4969 14.7385 10.8206C14.9815 11.1442 15.4674 11.3708 15.8237 11.1442C16.018 11.0148 16.1152 10.772 16.1962 10.5616C16.925 8.65202 17.6053 6.58056 19.2411 5.36682C20.9093 4.13689 23.1443 4.12071 25.1364 3.58666C26.1405 3.31155 27.1123 2.90698 28.0679 2.5024C29.7415 1.8227 31.4312 1.18616 33.1372 0.592773C33.283 0.770789 33.3801 0.965019 33.4449 1.19158C33.5259 1.40196 33.5421 1.62851 33.5906 1.85507C33.6878 2.4053 33.9308 2.92317 34.1737 3.44103C35.1131 5.46393 36.1334 7.43826 37.17 9.41261Z" fill="#F1F1F1" stroke="#BABABA" stroke-width="1.18548" stroke-linecap="round" stroke-linejoin="round"/>
</svg>
