<svg width="14" height="17" viewBox="0 0 14 17" fill="none" xmlns="http://www.w3.org/2000/svg">
<path d="M13.1486 10.5616C12.9867 11.1766 11.9501 11.1766 11.772 11.7753C11.7234 11.9857 11.7881 12.2123 11.7233 12.4227C11.6262 12.7463 11.2537 12.9243 10.8974 12.9405C10.5573 12.9567 10.2171 12.892 9.8608 12.9244C9.24535 13.0053 8.74333 13.4746 8.37082 13.9601C7.99831 14.4617 7.69057 15.012 7.22089 15.4328C6.7674 15.8373 6.07096 16.0962 5.5041 15.8211C5.34214 15.7402 5.2126 15.6269 5.05064 15.5298C4.32182 15.0443 3.44725 14.9472 2.55647 14.9634C2.57807 14.6829 2.60506 14.4024 2.63745 14.1219C2.65365 13.7497 2.68604 13.3613 2.55647 13.0214C2.36212 12.4874 1.82764 12.1476 1.5685 11.6297C1.45513 11.387 1.40649 11.128 1.27692 10.8853C1.13116 10.6101 0.888268 10.3998 0.7587 10.1247C0.548152 9.72008 0.580497 9.25077 0.629085 8.79764C0.742457 7.4868 0.969232 6.17595 1.30935 4.89748C1.42272 4.71946 1.53606 4.52526 1.68182 4.36343C1.89237 4.15304 2.15157 3.99124 2.31353 3.7485C2.57267 3.34392 2.49162 2.80984 2.49162 2.34053C2.49162 1.74175 2.63739 1.17537 2.73456 0.592773H4.24084C4.43519 0.592773 4.64576 0.592773 4.82391 0.673689C5.03446 0.754605 5.18016 0.932613 5.32592 1.11063C5.8334 1.70401 6.34094 2.30277 6.84841 2.90694C7.04276 3.14969 7.25326 3.39246 7.52859 3.53811C7.75534 3.65139 8.01449 3.69991 8.27363 3.7161C8.72711 3.74846 9.18057 3.71611 9.61786 3.65138C9.60167 4.13688 9.74743 4.62236 10.0228 5.01075C10.3467 5.46388 10.8326 5.8361 10.946 6.38632C10.9784 6.56434 10.9621 6.77472 11.0107 6.95274C11.0431 7.13075 11.1242 7.27642 11.2213 7.42207C11.3833 7.66482 11.5776 7.90758 11.6262 8.19887C11.6748 8.53872 11.5452 8.94329 11.7558 9.20222C11.8853 9.36406 12.0797 9.4288 12.2741 9.49353C12.7599 9.65536 13.2944 10.0761 13.1486 10.5616Z" fill="#F1F1F1" stroke="#BABABA" stroke-width="1.18548" stroke-linecap="round" stroke-linejoin="round"/>
</svg>
