<svg width="30" height="36" viewBox="0 0 30 36" fill="none" xmlns="http://www.w3.org/2000/svg">
<path d="M28.3688 5.41669C28.2879 5.52997 28.1745 5.59472 28.0611 5.67563C27.64 5.95075 27.2675 6.29058 26.9112 6.63043C26.5711 6.93791 26.2472 7.26157 25.9394 7.60142V20.3861C26.3605 20.8393 26.8302 21.26 27.2999 21.6646C27.4618 21.8102 27.6401 21.9559 27.7696 22.1339C27.883 22.3119 27.9639 22.5223 28.0449 22.7165C28.0989 22.8783 28.1529 23.0402 28.2069 23.202C28.0773 23.2667 27.9316 23.2829 27.7696 23.3153C27.4349 23.3693 27.0948 23.4232 26.7492 23.4771C26.6197 23.4933 26.4739 23.5095 26.3606 23.5904C26.1338 23.7361 26.0528 24.0112 25.9719 24.2701C25.7127 25.0954 25.2106 25.8237 24.7085 26.5357C24.5952 26.6976 24.4656 26.8594 24.3198 27.005C24.1903 27.1507 24.0122 27.2478 23.8826 27.3935C23.5263 27.7333 23.3805 28.235 23.1538 28.6719C23.1214 29.1898 22.9594 29.6915 22.7002 30.1446C22.263 30.8567 21.5503 31.4069 21.3884 32.2322C21.2912 32.7015 21.4045 33.2356 21.1454 33.6402C20.8701 34.0447 20.3194 34.1904 20.0927 34.6273C19.9955 34.8054 19.9793 34.9996 19.9469 35.1938C18.8618 33.9962 17.5986 32.9929 16.1895 32.2161C15.6388 31.9086 15.0234 31.5849 14.7804 31.0023C14.6509 30.6625 14.667 30.274 14.6022 29.918C14.4889 29.2545 14.084 28.6396 13.501 28.3321C13.258 28.2026 12.9989 28.1379 12.7721 28.0246C11.9947 27.6847 11.444 26.9727 10.699 26.5681C10.035 26.1959 9.2738 26.0826 8.56117 25.8399C7.86475 25.5971 7.21687 25.2411 6.58523 24.8689C5.9158 24.4913 5.24638 24.1083 4.57694 23.7199C3.37844 23.0402 2.16376 22.3443 1.11102 21.4542C1.09482 21.2115 1.07859 20.9849 1.07859 20.7422C1.09479 20.4023 1.17578 20.0463 1.41872 19.8035C1.61308 19.6093 1.88841 19.5122 2.14754 19.4151C2.40668 19.318 2.6658 19.2048 2.86015 18.9944C3.03831 18.784 3.08694 18.4441 2.90879 18.2338C2.69824 17.991 2.30952 18.0558 2.0018 18.169C1.71027 18.2823 1.37012 18.428 1.07859 18.3147C0.80326 18.1852 0.706084 17.9101 0.592712 17.635C0.711483 17.4624 0.8357 17.2898 0.965268 17.1171C1.6455 16.2109 2.33108 15.3046 3.02211 14.3984C3.20027 14.1556 3.37844 13.9128 3.60518 13.7348C3.9291 13.5083 4.35017 13.3626 4.54452 13.0228C4.6093 12.8933 4.64174 12.7315 4.67413 12.5858C4.72812 12.2838 4.78211 11.9817 4.83609 11.6796C4.93327 11.1941 5.01425 10.6924 4.91707 10.2069C4.62555 8.94464 3.10314 8.23256 2.90879 6.95409C2.8602 6.56569 2.92497 6.17728 2.89258 5.80507C2.84399 5.36812 2.66578 4.94739 2.35806 4.62373C2.22849 4.49426 2.08274 4.36478 1.96937 4.20295C1.88839 4.0573 1.83979 3.89546 1.7912 3.74981C1.67243 3.33984 1.5807 2.92989 1.51592 2.51991C1.52671 2.50912 1.53213 2.4983 1.53213 2.48751C1.87224 1.7269 2.60103 1.19287 3.36224 0.917752C3.58899 0.853019 3.79955 0.820669 4.02629 0.772119C4.44739 0.691203 4.85226 0.577905 5.28955 0.594088C5.62967 0.610271 6.00221 0.691211 6.21275 0.982509C6.30993 1.11197 6.35852 1.25762 6.45569 1.38709C6.58526 1.5651 6.79578 1.67835 6.99013 1.75927C7.08731 1.80243 7.18453 1.84559 7.2817 1.88874C7.84856 2.11531 8.46401 2.22861 9.06326 2.22861C9.84067 2.24479 10.6342 2.09915 11.363 2.35808C11.7518 2.50373 12.0919 2.76264 12.432 3.02157C13.1446 3.5718 13.8519 4.11665 14.5537 4.65609C14.8452 4.88265 15.1367 5.10919 15.4768 5.23866C15.7683 5.35194 16.0761 5.38432 16.3838 5.41669C17.7119 5.56234 19.0561 5.72417 20.4166 5.74035C20.7081 5.75653 21.0321 5.74035 21.2912 5.57852C21.7447 5.3034 21.8419 4.70462 22.182 4.31622C22.6679 3.74981 23.5262 3.71745 24.1579 3.31287C24.4818 3.10249 24.7734 2.79501 25.1621 2.74646C25.6803 2.69791 26.0852 3.15106 26.3768 3.57182C26.4577 3.6851 26.5387 3.81455 26.6521 3.87928C26.7654 3.9602 26.895 3.99255 27.0246 4.02492C27.057 4.02492 27.0947 4.03033 27.1379 4.04112C27.5428 4.10585 27.9802 4.08966 28.3851 3.99256C28.4066 4.26228 28.4282 4.532 28.4498 4.80172C28.466 5.0121 28.4822 5.23867 28.3688 5.41669Z" fill="#F1F1F1" stroke="#BABABA" stroke-width="1.18548" stroke-linecap="round" stroke-linejoin="round"/>
</svg>
