<svg width="28" height="17" viewBox="0 0 28 17" fill="none" xmlns="http://www.w3.org/2000/svg">
<path d="M27.2735 13.4908C27.1116 13.4261 26.9335 13.3452 26.7553 13.2481C26.2532 12.9891 25.492 12.8111 25.1033 13.2481C24.585 13.8307 23.2894 13.4261 22.8683 13.1671C21.6536 12.4065 20.6494 13.2319 19.4185 13.9601C18.1876 14.6883 16.568 16.0154 15.4019 15.19C15.2237 15.0606 15.0456 14.656 14.9808 14.4456C14.835 13.9925 15.2885 13.3452 15.4667 12.9244C15.904 11.8725 15.6448 10.6749 15.3209 9.60684C15.2399 9.34791 15.1428 9.07277 14.9322 8.89476C14.5111 8.53873 13.8957 8.74912 13.4098 8.99187C11.191 10.0761 9.18262 11.5812 7.53063 13.3937C6.17017 13.2319 4.74495 13.5717 3.59504 14.3485C3.27112 14.5589 2.8824 14.8178 2.52609 14.6398C2.33173 14.5427 2.21839 14.3162 2.07263 14.1381C2.05104 14.1058 2.02404 14.0734 1.99165 14.041C2.16981 13.0377 2.67185 12.0829 3.41687 11.387C3.65981 11.1442 3.95132 10.9177 4.04849 10.5778C4.32383 9.63921 2.91482 8.91096 3.04439 7.93997C3.10917 7.45447 3.54643 6.87186 3.17393 6.5482C3.01197 6.40255 2.76904 6.41872 2.5423 6.41872C1.79728 6.41872 0.971287 6.12742 0.679759 5.44773C0.339643 4.65475 1.05222 3.61905 1.9268 3.68378C2.23453 3.69996 2.52605 3.82941 2.81758 3.91033C3.88652 4.20162 5.23083 3.69996 5.53856 2.63187C5.63573 2.29202 5.61952 1.91981 5.6843 1.57996C5.74909 1.22393 5.94347 0.851712 6.28359 0.722247C6.54272 0.641331 6.83425 0.689873 7.09339 0.592773C7.4497 1.06209 7.54683 1.75799 7.53063 2.35676C7.53063 2.90699 7.53063 3.53811 7.93553 3.91033C8.29184 4.25017 8.84252 4.25017 9.3284 4.15308C9.81428 4.05598 10.3002 3.87799 10.786 3.94273C11.2719 3.99128 11.7092 4.28254 12.1627 4.47674C12.6 4.67094 13.1669 4.78424 13.5718 4.49294C13.8957 4.26637 14.0576 3.82942 14.4464 3.71614C14.9484 3.55431 15.3857 4.056 15.8068 4.37966C16.4061 4.83279 17.2321 4.96223 17.9447 4.71949C18.2362 4.63857 18.5115 4.47675 18.8193 4.49294C19.3052 4.5253 19.6938 4.96224 20.1797 4.92988C20.4712 4.89751 20.7304 4.68713 21.0219 4.60621C21.4916 4.47675 21.9612 4.68715 22.4147 4.8328C22.7063 4.9299 23.014 4.99461 23.3217 5.01079C23.3217 5.81995 23.3703 6.61292 23.5809 7.38971C23.5971 7.48681 23.6295 7.58393 23.6943 7.64866C23.7915 7.72958 23.9372 7.74578 24.0668 7.74578C24.6174 7.74578 25.1681 7.75115 25.7188 7.76193C25.9293 7.76193 26.1723 7.76194 26.3504 7.89141C26.5124 8.02087 26.6095 8.21506 26.6743 8.40926C27.306 10.0114 27.5003 11.7916 27.2735 13.4908Z" fill="#F1F1F1" stroke="#BABABA" stroke-width="1.18548" stroke-linecap="round" stroke-linejoin="round"/>
</svg>
