<svg width="60" height="57" viewBox="0 0 60 57" fill="none" xmlns="http://www.w3.org/2000/svg">
<path d="M58.7364 22.4725C58.7256 22.6451 58.7093 22.8177 58.6877 22.9903C58.3476 25.7091 57.9589 28.4279 57.9427 31.1628C57.9427 31.972 57.9589 32.8135 57.7807 33.6065C57.6026 34.4156 57.1977 35.2086 56.4851 35.6294C55.821 36.034 54.9789 36.0663 54.1853 36.0825C52.5225 36.1041 50.8597 36.1311 49.1969 36.1634C49.1321 36.1634 49.0673 36.1635 49.0026 36.1796C48.9378 36.1958 48.8892 36.2282 48.8406 36.2606C48.1604 36.7299 47.6421 37.3286 46.8971 37.7008C46.7513 37.7818 46.5893 37.8465 46.4436 37.8303C46.1844 37.7818 46.0387 37.539 45.9577 37.3125C45.8605 37.0373 45.8119 36.7299 45.65 36.4871C45.488 36.2444 45.1641 36.0825 44.905 36.2282C44.4515 36.5195 44.8402 37.3772 44.4191 37.717C44.3057 37.798 44.1761 37.8141 44.0466 37.798C43.8684 37.798 43.6741 37.717 43.5121 37.6199C42.6375 37.183 41.5686 36.7299 40.7588 37.2801C40.3215 37.5876 40.0785 38.1216 39.6251 38.3967C39.3497 38.5586 39.0258 38.6071 38.7181 38.688C37.7949 38.9308 36.9689 39.4325 36.3211 40.1122C36.1915 40.2578 36.0619 40.4196 35.9 40.5167C35.3979 40.8242 34.7339 40.5815 34.167 40.7433C33.6811 40.8889 33.3248 41.3259 33.0819 41.7628C32.839 42.216 32.6932 42.7176 32.4341 43.1546C32.1749 43.6239 31.689 44.0609 31.1708 43.9152C30.7982 43.8181 30.5553 43.4621 30.199 43.3002C29.7779 43.0899 29.211 43.2517 28.9519 43.6401C28.6604 44.077 28.7414 44.6758 28.547 45.1613C28.4012 45.5012 28.1097 45.7763 27.9478 46.1161C27.7372 46.6178 27.8182 47.2004 27.5914 47.6859C27.1865 48.5112 26.0852 48.6407 25.1782 48.6245C24.8705 48.6083 24.4656 48.6892 24.4656 48.9967C24.4494 49.0938 24.498 49.1747 24.5466 49.2718C24.7086 49.5523 24.8651 49.8382 25.0163 50.1295L25.1782 50.615C25.2754 51.052 24.8867 51.408 24.6438 51.7802C24.498 52.023 24.4008 52.3143 24.3037 52.5894C24.1903 52.913 24.0931 53.2529 24.0769 53.6089C24.0769 53.7869 24.1093 53.965 24.1255 54.143C24.1417 54.2724 24.1579 54.4181 24.1579 54.5476C24.1741 54.8712 24.0769 55.2273 23.8178 55.4053C23.3805 55.6966 22.7974 55.3729 22.4411 54.9845C22.0686 54.5799 21.7771 54.0944 21.356 53.7546C20.9349 53.4147 20.287 53.2205 19.8336 53.528C19.4287 53.7869 19.2505 54.3372 18.797 54.4828C18.295 54.6446 17.7929 54.1753 17.2746 54.0782C16.9021 54.0135 16.5458 54.1268 16.1895 54.2401C15.8817 54.3533 15.5578 54.4666 15.2987 54.6608C14.6185 53.4633 13.6305 52.379 13.7277 51.0358C13.7439 50.6798 13.7925 50.2428 13.4847 50.0972C13.3876 50.0486 13.2742 50.0486 13.1608 50.0001C12.8207 49.8544 12.9017 49.3527 12.9503 48.9805C13.0636 48.0257 12.4968 47.0224 11.6222 46.6178C11.3631 46.5045 11.0877 46.4236 10.8124 46.5045C10.4075 46.6502 10.197 47.1033 9.97022 47.4755C9.74347 47.8477 9.30616 48.2199 8.90127 48.0257C8.7717 47.961 8.65833 47.8477 8.54496 47.7506C8.12387 47.4108 7.44363 47.4431 7.03873 47.7992C6.77959 48.0419 6.60145 48.4303 6.24514 48.4627C5.69447 48.5112 5.40295 47.7021 4.86848 47.6697C4.52836 47.6373 4.26922 47.9286 4.01008 48.139C3.75095 48.3494 3.34603 48.5112 3.10309 48.2847C2.82776 48.0257 3.02211 47.5726 2.94113 47.2166C3.4918 46.5207 3.76715 45.5497 3.9777 44.6435C4.04248 44.3522 4.10725 44.0123 3.96149 43.7372C3.60518 43.0899 2.52003 43.4621 1.92078 43.0413C1.35392 42.6367 1.46732 41.7952 1.38634 41.1155C1.30536 40.5815 1.07861 40.0798 0.851864 39.5781C0.770884 39.4001 0.689888 39.2383 0.592712 39.0603C0.625104 39.0495 0.657512 39.0333 0.689904 39.0117C1.1272 38.7851 1.56448 38.51 1.77503 38.0731C1.95318 37.7009 1.96936 37.2639 2.00176 36.8593C2.03415 36.4386 2.11514 36.0016 2.42287 35.7265C2.74679 35.419 3.24886 35.3705 3.66995 35.5161C4.09105 35.6456 4.43119 35.9693 4.70652 36.3091C4.81989 36.4548 4.93325 36.6166 5.09521 36.6975C5.25717 36.7946 5.50012 36.7784 5.5973 36.6166C5.64589 36.5357 5.64589 36.4224 5.67828 36.3253C5.79165 35.8721 6.35849 35.6618 6.82817 35.7265C7.29785 35.7751 7.71897 36.0016 8.18866 36.1149C8.52877 36.1958 8.88507 36.1958 9.22518 36.1958C9.38715 36.1958 9.53292 36.1958 9.67868 36.1473C9.82444 36.0664 9.9378 35.9369 10.0674 35.8236C10.4399 35.5485 10.9419 35.5647 11.3954 35.597L24.1579 35.6941C24.1579 35.5539 24.1633 35.4136 24.1741 35.2734C24.2065 34.9011 24.3198 34.5451 24.5628 34.2538C24.6438 34.1405 24.7571 34.0434 24.8381 33.9302C25.1458 33.5256 25.1297 32.943 24.8705 32.4899C24.6114 32.0691 24.1903 31.7778 23.7368 31.5512L20.7243 0.803163L26.4415 0.592773L47.5125 15.0929C47.5449 15.1792 47.5881 15.2656 47.6421 15.3519C47.8041 15.6108 48.0146 15.8212 48.1765 16.0801C48.4195 16.4523 48.549 16.9054 48.792 17.2777C49.0997 17.7793 49.5856 18.1354 50.0715 18.4752C50.2497 18.6047 50.4278 18.7342 50.6222 18.8313C50.8327 18.9122 51.0595 18.9607 51.27 19.0093C51.5777 19.0902 51.853 19.1873 52.1446 19.2844C52.3173 19.3383 52.4847 19.3977 52.6467 19.4624C53.3053 19.6997 53.9693 19.9317 54.6387 20.1583C54.7521 20.2068 54.8817 20.2554 54.9789 20.3363C55.1408 20.5143 55.157 20.7732 55.1246 21.016C55.076 21.4206 54.9465 21.8251 54.7683 22.1973C54.7036 22.3106 54.6387 22.4401 54.6225 22.5696C54.5901 22.9903 55.0598 23.2493 55.4485 23.3949C55.902 23.5567 56.4689 23.7024 56.8252 23.3787C57.0195 23.2007 57.0844 22.9256 57.2787 22.7152C57.635 22.343 58.2019 22.4401 58.7364 22.4725Z" fill="#F1F1F1" stroke="#BABABA" stroke-width="1.18548" stroke-linecap="round" stroke-linejoin="round"/>
</svg>
