<svg width="27" height="21" viewBox="0 0 27 21" fill="none" xmlns="http://www.w3.org/2000/svg">
<path d="M26.0691 15.546C25.8423 15.9668 26.2148 16.5009 26.0367 16.954C25.9881 17.0835 25.9071 17.1806 25.8099 17.2777C25.2377 17.9358 24.6708 18.5939 24.1093 19.252C24.077 19.1064 24.0122 18.9769 23.9312 18.8474C23.7207 18.5885 23.3157 18.459 23.0566 18.6694C22.9594 18.7503 22.8947 18.8798 22.8299 18.9769C22.506 19.5109 21.9229 19.867 21.2913 19.8993C21.0807 19.9155 20.8378 19.8831 20.6758 19.7375C20.4167 19.5109 20.4167 19.1387 20.4167 18.7989C20.4167 17.7793 20.2223 16.7598 19.8498 15.805C19.7688 15.5784 19.6717 15.3518 19.4773 15.2224C18.9267 14.834 18.133 15.4166 17.4852 15.449C17.2747 15.4651 17.0965 15.4166 16.9345 15.2709C16.4486 14.834 16.8698 14.0248 16.724 13.3937C16.5944 12.8596 16.0924 12.536 15.7522 12.099C15.2016 11.4032 15.0234 10.3351 14.1974 9.99522C13.8249 9.84958 13.4038 9.88192 13.0151 9.93047C12.2701 10.0168 11.5251 10.0977 10.78 10.1732C10.3427 10.2218 9.87309 10.2865 9.51678 10.5454C9.07949 10.8691 8.90132 11.4193 8.60979 11.8725C8.18869 12.5683 7.52466 13.1024 6.99019 13.7174C6.9416 13.4908 6.90919 13.248 6.893 13.0376C6.81202 12.2285 6.42332 11.4193 5.88886 10.8205C5.77548 10.7073 5.6621 10.594 5.51634 10.5131C5.37058 10.4483 5.19244 10.4322 5.04667 10.5131C4.9495 10.5778 4.86853 10.6911 4.73896 10.6911C4.5932 10.6749 4.51221 10.5131 4.44743 10.3674C4.1721 9.78481 3.54044 9.46118 3.05456 9.02423C2.63346 8.65202 2.30955 8.16651 2.13139 7.63246C2.03422 7.32498 1.96942 7.01749 1.83986 6.72619C1.71029 6.43489 1.48355 6.17599 1.15963 6.11126C1.15963 6.11126 1.06247 6.07888 0.932905 6.0627C0.814134 6.0627 0.700747 6.05192 0.592773 6.03034C0.625165 6.01955 0.662948 6.00336 0.706137 5.98178C1.33778 5.73904 1.71031 5.07553 2.22858 4.65477C2.61729 4.33111 3.10317 4.15306 3.60524 4.13688C3.99395 4.10451 4.39882 4.18543 4.78752 4.13688C5.03046 4.08833 5.322 3.95889 5.37059 3.71614C5.43538 3.39247 5.09526 3.1497 4.96569 2.84222C4.86852 2.56711 4.94949 2.25963 5.07906 2.0007C5.20862 1.74177 5.40297 1.51523 5.51634 1.2563C5.59732 1.07829 5.66212 0.884079 5.77549 0.722247C5.81868 0.679092 5.86188 0.635929 5.90507 0.592773C5.99145 0.592773 6.0778 0.592773 6.16418 0.592773C6.71484 0.608957 7.29791 0.641323 7.71901 0.997353C7.89717 1.143 8.02673 1.35339 8.23727 1.45049C8.5288 1.56377 8.86893 1.43428 9.17665 1.46665C9.43579 1.49902 9.66253 1.64469 9.90547 1.69324C10.4885 1.80652 11.0392 1.46666 11.5898 1.27246C12.1567 1.07826 12.9341 1.15919 13.0961 1.7256C13.1771 2.08163 12.9827 2.53477 13.258 2.7937C13.501 3.02027 13.9059 2.85841 14.165 2.64803C14.4242 2.43765 14.6833 2.14637 15.0234 2.17873C15.5579 2.2111 15.8494 3.02024 16.4001 2.97169C16.7564 2.93933 16.9345 2.55096 17.1937 2.30821C17.5986 1.95218 18.2788 1.9198 18.6999 2.25965C18.8133 2.35675 18.9266 2.47002 19.0562 2.53476C19.4611 2.72896 19.8984 2.35676 20.1252 1.98454C20.3519 1.61233 20.5624 1.1592 20.9673 1.01355C21.2427 0.932636 21.518 1.01354 21.7771 1.12683C22.6517 1.53141 23.2186 2.53474 23.1052 3.48955C23.0566 3.86176 22.9756 4.36345 23.3158 4.5091C23.4291 4.55765 23.5425 4.55766 23.6397 4.60621C23.9474 4.75186 23.8988 5.18882 23.8826 5.54485C23.7854 6.88805 24.7734 7.97231 25.4536 9.16987C25.3672 9.22381 25.2917 9.28853 25.2269 9.36406C24.822 9.801 24.7248 10.4484 24.741 11.0471C24.7572 11.3384 24.7896 11.6621 25.0001 11.8725C25.2755 12.1314 25.7613 12.1314 25.9719 12.4551C26.2148 12.8596 25.7937 13.3613 25.8261 13.8306C25.8747 14.3485 26.4416 14.8178 26.231 15.2871C26.1825 15.368 26.1177 15.4489 26.0691 15.546Z" fill="#F1F1F1" stroke="#BABABA" stroke-width="1.18548" stroke-linecap="round" stroke-linejoin="round"/>
</svg>
