<svg width="20" height="21" viewBox="0 0 20 21" fill="none" xmlns="http://www.w3.org/2000/svg">
<path d="M12.2876 0.962298C12.0447 0.881382 11.8504 0.719551 11.6074 0.638635C11.3645 0.557719 11.073 0.57391 10.9272 0.768108C10.7166 1.04322 10.9272 1.48017 10.6842 1.7391C10.5871 1.8362 10.4413 1.86855 10.3279 1.78764C10.1983 1.67435 10.2632 1.48017 10.1984 1.33452C10.1012 1.05941 9.72865 1.04321 9.43712 1.07557C9.16719 1.10794 8.89726 1.14032 8.62732 1.17269C8.41678 1.20505 8.07666 1.17268 7.8985 1.28596C7.86611 1.29675 7.83912 1.31833 7.81752 1.3507C7.74194 1.41543 7.67179 1.47477 7.60701 1.52871C7.44505 1.70673 7.33165 1.88475 7.25067 2.14368C7.15349 2.46734 7.1211 2.82337 6.92674 3.11467C6.76479 3.35742 6.52187 3.53543 6.34371 3.762C6.16556 3.98856 6.06837 4.34459 6.24652 4.57116C6.42468 4.78154 6.7486 4.78152 7.02394 4.79771C7.08872 4.8085 7.1535 4.82469 7.21828 4.84626C7.50981 4.92718 7.526 5.33177 7.25067 5.46123C6.57043 5.80108 5.84165 6.07618 5.09663 5.91435C4.48118 5.78489 3.97909 5.36413 3.37984 5.13757C2.79678 4.91101 2.00317 4.95954 1.71164 5.52595C1.54968 5.84962 1.63068 6.27039 1.48491 6.62642C1.35535 6.9339 1.06381 7.14428 0.869459 7.4194C0.675107 7.69451 0.577939 8.11527 0.837075 8.34183C1.09621 8.58458 1.56588 8.42275 1.8736 8.55222C2.14893 8.6655 2.18133 9.07007 1.9222 9.23191C1.53349 9.47465 0.999011 9.65267 0.934227 10.1058C0.869443 10.5913 1.4363 10.915 1.90599 11.0606C2.39187 11.1901 2.97493 11.3681 3.0883 11.8536C3.12069 12.0478 3.07212 12.2582 3.02353 12.4524C2.92636 12.8516 2.82376 13.2507 2.71579 13.6499C2.60241 14.1354 2.45667 14.6371 2.08416 14.9608C1.67926 15.3006 1.07999 15.3815 0.772267 15.8185C0.561719 16.126 0.561751 16.5305 0.642731 16.9027C0.885671 18.0841 1.77645 19.1037 2.91017 19.4921C4.54597 20.0585 6.34372 19.3464 7.93093 18.6505C8.51398 18.3916 9.10242 18.1327 9.69628 17.8737C9.84204 17.809 9.9878 17.7443 10.1336 17.7443C10.6356 17.7604 11.1377 18.424 11.5264 18.0517C11.6398 17.9385 11.7046 17.7766 11.7046 17.6148C11.7046 16.8866 12.4658 16.5791 13.1136 16.5305C13.6805 16.4982 14.2798 16.5953 14.8142 16.3687C14.9762 16.304 15.1381 16.2069 15.2191 16.0612C15.3649 15.8347 15.2839 15.5272 15.2839 15.2521C15.3001 14.2163 16.3366 13.4557 16.4824 12.4362C16.531 12.0154 16.4338 11.5946 16.3366 11.1901C16.0451 10.0572 15.7698 8.90825 15.1219 7.92107C15.0086 7.74306 14.9762 7.5165 15.0733 7.33848C15.3487 6.80443 16.0451 7.30611 16.5634 7.17665C17.1626 7.031 17.2274 6.14092 17.7295 5.81726C17.9886 5.65542 18.2154 5.44504 18.3449 5.18611C18.685 4.45786 18.0372 4.13421 17.6161 3.77818C17.0978 3.34123 16.7901 2.69389 16.45 2.12748C16.0937 1.54489 15.6078 0.978474 14.9438 0.832825C14.0692 0.65481 13.1298 1.28596 12.2876 0.962298Z" fill="#F1F1F1" stroke="#BABABA" stroke-width="1.18548" stroke-linecap="round" stroke-linejoin="round"/>
</svg>
