<svg width="215" height="138" viewBox="0 0 215 138" fill="none" xmlns="http://www.w3.org/2000/svg">
<path d="M213.878 28.0315C213.7 28.5493 213.197 28.873 212.825 29.2452C212.42 29.6498 212.064 30.0867 211.837 30.6046C211.562 31.1872 211.481 31.8345 211.432 32.4657C211.4 33.0644 211.27 33.6794 211.092 34.2458C210.768 35.3463 210.217 36.382 209.489 37.2721C209.246 37.5634 208.986 37.8547 208.857 38.2107C208.776 38.4858 208.76 38.7933 208.63 39.0522C208.339 39.5701 207.626 39.6834 207.059 39.5215C206.492 39.3597 206.006 38.9875 205.472 38.7286C204.954 38.4858 204.273 38.3563 203.788 38.6962C203.48 38.9066 203.269 39.2788 202.929 39.4406C202.395 39.6672 201.698 39.2788 201.277 39.8937C201.164 40.0718 201.099 40.2821 201.099 40.4925C201.083 41.0427 201.374 41.5121 201.569 41.9976C202.184 43.535 201.974 45.2828 201.747 46.9173C201.698 47.3218 201.634 47.7264 201.407 48.0339C201.245 48.2605 201.002 48.4223 200.775 48.5679L199.658 49.3286C199.512 49.4257 199.35 49.4904 199.172 49.4904C198.621 49.4904 198.572 48.9078 198.249 48.6327C197.925 48.3576 197.423 48.4708 197.099 48.7459C196.775 49.0049 196.597 49.3933 196.37 49.7493C195.414 51.2867 193.698 52.3386 191.884 52.4519C191.689 52.4681 191.511 52.5005 191.349 52.5975C190.507 53.0183 190.944 53.7627 190.863 54.3939C190.782 55.025 190.199 55.4943 189.584 55.5429C188.952 55.6076 188.353 55.3001 187.916 54.8632C187.64 54.5881 187.413 54.2644 187.122 54.0217C186.814 53.7789 186.393 53.6495 186.053 53.8275C185.875 53.9246 185.745 54.0864 185.632 54.2482C185.34 54.6204 185.049 55.025 184.757 55.3973C184.466 55.7856 184.174 56.1902 183.802 56.4977C183.688 56.5948 183.575 56.6757 183.462 56.7728C182.814 57.2745 182.101 57.7114 181.372 58.0675C180.498 58.5044 179.591 58.8443 178.765 59.3298C178.619 59.4107 178.473 59.5078 178.344 59.6049C177.89 59.9609 177.599 60.4788 177.437 61.029C177.383 61.2448 177.345 61.4659 177.323 61.6925C176.497 61.5468 175.639 61.5307 174.813 61.6601C174.57 61.7087 174.327 61.7572 174.1 61.8705C173.825 62.0162 173.598 62.2266 173.372 62.4369C172.286 63.3756 170.926 63.9582 169.582 64.5084C169.339 64.7673 168.999 64.913 168.707 65.1395C168.594 65.2204 168.497 65.3176 168.399 65.3985C168.237 65.5279 168.059 65.6412 167.897 65.7545C167.671 65.8947 167.444 66.0404 167.217 66.1914C167.104 66.2562 167.007 66.3209 166.877 66.3533C166.553 66.4827 166.181 66.3856 165.84 66.2885C165.759 66.0782 165.84 65.8192 165.986 65.625C166.148 65.4308 166.375 65.3013 166.585 65.1233C166.828 64.8968 167.039 64.5893 167.023 64.2494C167.007 63.8611 166.699 63.5536 166.666 63.1652C166.602 62.6635 167.007 62.2266 167.379 61.8705C167.962 61.3203 168.54 60.7701 169.112 60.2198C169.404 59.9447 169.711 59.6373 169.776 59.2489C169.841 58.8928 169.695 58.5206 169.452 58.2617C169.209 58.0027 168.885 57.8247 168.545 57.6953C168.059 57.5011 167.509 57.3878 166.974 57.4687C165.954 57.6467 165.209 58.5206 164.577 59.3298C164.237 59.7505 163.897 60.1875 163.395 60.3817C163.055 60.495 162.698 60.495 162.342 60.5435C162.002 60.5921 161.629 60.7215 161.435 61.0128C161.338 61.1585 161.289 61.3527 161.225 61.5145C161.046 62.1133 160.69 62.6473 160.334 63.1652C160.042 63.5859 159.751 64.0067 159.346 64.298C158.504 64.8968 157.386 64.832 156.366 64.7349C156.074 64.7997 155.783 64.7673 155.491 64.7673C155.2 64.7673 154.908 64.8158 154.714 65.01C154.536 65.1881 154.471 65.4794 154.26 65.6088C154.228 65.6412 154.179 65.6574 154.163 65.6897C154.131 65.7221 154.114 65.7869 154.114 65.8354C154.082 66.2076 154.147 66.596 154.195 66.9682C154.217 67.0761 154.233 67.1894 154.244 67.3081C154.26 67.4052 154.276 67.5023 154.325 67.5832C154.374 67.6641 154.455 67.7126 154.519 67.7612C154.768 67.9446 155.016 68.128 155.264 68.3114C155.362 68.3762 155.443 68.4409 155.556 68.4894C155.702 68.538 155.847 68.5542 156.009 68.5542C156.722 68.5866 157.44 68.6189 158.163 68.6513C158.617 68.6674 159.135 68.716 159.394 69.0882C159.573 69.3471 159.573 69.687 159.556 70.0107C159.54 70.4314 159.524 70.8684 159.33 71.2406C159.297 71.3215 159.232 71.4186 159.249 71.5157C159.249 71.6128 159.313 71.6937 159.378 71.7584C159.54 71.9688 159.735 72.1954 159.994 72.2601C160.107 72.2925 160.237 72.2925 160.35 72.2925C160.48 72.2817 160.609 72.2763 160.739 72.2763C161.111 72.4543 161.451 72.1954 161.743 71.9527C162.423 71.3701 163.103 70.7821 163.784 70.1887C163.913 70.0754 164.059 69.9621 164.221 69.8812C164.367 69.8165 164.529 69.7841 164.691 69.7679C165.597 69.7194 166.472 70.1563 167.201 70.7065C167.379 70.8522 167.557 70.9979 167.768 71.0626C167.978 71.1273 168.205 71.1273 168.416 71.1111C168.783 71.1003 169.15 71.0895 169.517 71.0788C169.922 71.0626 170.327 71.0626 170.699 71.1759C171.072 71.2891 171.428 71.5805 171.525 71.9527C171.59 72.2278 171.525 72.5029 171.477 72.778C171.423 72.983 171.374 73.1934 171.331 73.4091C171.282 73.5548 171.25 73.7166 171.153 73.8299C171.056 73.9432 170.91 74.0079 170.764 74.0726C170.618 74.1212 170.472 74.1859 170.31 74.1698C170.116 74.1374 169.97 73.9756 169.792 73.927C169.549 73.8623 169.306 73.9594 169.096 74.0403C168.739 74.1805 168.389 74.3208 168.043 74.4611C167.266 74.4287 166.488 74.8171 166.019 75.4321C165.662 75.9175 165.468 76.5487 164.982 76.9371C164.269 77.5035 163.087 77.3255 162.504 78.0375C162.358 78.1993 162.277 78.4097 162.148 78.6039C161.953 78.879 161.678 79.0895 161.419 79.316C160.706 79.931 160.01 80.7078 159.945 81.6626C159.929 81.8244 159.945 82.0024 160.026 82.1481C160.091 82.2614 160.204 82.3423 160.318 82.4232C160.771 82.763 161.241 83.119 161.791 83.2971C162.358 83.4751 163.038 83.5075 163.427 83.9606C163.719 84.2843 163.767 84.7697 163.881 85.1905C164.107 85.9835 164.626 86.6632 165.047 87.3752C165.468 88.0873 165.889 89.0098 165.776 89.8351C165.759 90.094 165.97 90.4662 166.148 90.6766C166.326 90.8708 166.553 91.0488 166.715 91.2592C166.909 91.5343 167.007 91.9065 167.298 92.0845C167.411 92.1655 167.573 92.214 167.671 92.3273C167.719 92.4082 167.735 92.4891 167.768 92.5862C167.816 92.7319 167.93 92.8775 168.059 92.9908C168.286 93.185 168.626 93.2497 168.804 93.5248C168.853 93.6058 168.885 93.7352 168.901 93.8485C168.934 94.2369 168.691 94.6415 168.335 94.8033C168.221 94.8681 168.075 94.9004 167.994 94.9975C167.881 95.1108 167.881 95.2888 167.913 95.4345C167.962 95.5801 168.075 95.6934 168.173 95.7905C168.367 95.9685 168.577 96.098 168.772 96.276C168.95 96.454 169.112 96.6806 169.128 96.9233C169.144 97.1499 168.999 97.3926 168.804 97.4574C168.27 97.8781 167.525 97.9105 166.99 98.3313C166.585 98.6387 166.342 99.1404 165.889 99.367C165.549 99.545 165.144 99.5288 164.804 99.6906C164.593 99.8039 164.399 99.9658 164.286 100.176C164.253 100.225 164.237 100.273 164.237 100.322C164.253 100.467 164.448 100.516 164.577 100.516C164.815 100.516 165.047 100.505 165.274 100.484C165.419 100.484 165.549 100.467 165.678 100.419C165.808 100.354 165.905 100.257 166.019 100.192C166.359 99.9658 166.812 99.9657 167.233 99.9981C167.395 99.9981 167.557 100.014 167.703 100.079C167.849 100.16 167.962 100.306 168.092 100.403C168.302 100.565 168.561 100.645 168.804 100.759C169.047 100.872 169.274 101.05 169.323 101.309C169.371 101.487 169.306 101.681 169.242 101.875C169.177 102.053 169.112 102.248 169.161 102.442C169.193 102.62 169.355 102.83 169.598 102.927C169.776 103.057 169.873 103.283 169.873 103.494C169.857 103.72 169.711 103.931 169.533 104.028C169.323 104.141 169.063 104.141 168.853 104.222C168.626 104.319 168.432 104.578 168.561 104.772C168.594 104.837 168.642 104.869 168.691 104.918C168.853 105.112 168.853 105.403 168.788 105.646C168.723 105.873 168.594 106.099 168.529 106.342C168.351 106.973 168.642 107.701 168.367 108.3C168.173 108.721 167.687 108.996 167.217 108.947C166.99 108.931 166.78 108.834 166.553 108.802C166.326 108.753 166.083 108.769 165.921 108.931C165.678 109.174 165.776 109.595 165.598 109.87C165.436 110.113 165.128 110.194 164.95 110.42C164.772 110.614 164.739 110.889 164.691 111.148C164.529 111.779 164.124 112.314 163.751 112.831C163.265 113.155 162.763 113.446 162.229 113.689C162.067 113.77 161.905 113.835 161.808 113.98C161.629 114.207 161.694 114.514 161.759 114.79C161.824 115.065 161.905 115.356 161.775 115.615C161.727 115.712 161.662 115.793 161.629 115.89C161.581 115.987 161.581 116.084 161.581 116.181C161.592 116.462 161.586 116.742 161.565 117.023C161.548 117.427 161.516 117.848 161.289 118.156C161.063 118.463 160.706 118.625 160.431 118.852C159.961 119.24 159.67 119.806 159.232 120.227C158.844 120.583 158.374 120.842 158.083 121.279C157.742 121.684 157.257 121.975 156.738 122.023C156.512 122.056 156.252 122.056 156.107 122.234C155.928 122.444 156.074 122.768 156.009 123.043C155.961 123.334 155.702 123.528 155.459 123.69C155.027 124.003 154.595 124.311 154.163 124.613C153.677 124.953 153.191 125.292 152.624 125.503C152.382 125.584 152.122 125.648 151.928 125.794C151.653 125.988 151.507 126.312 151.313 126.603C151.118 126.895 150.875 127.154 150.632 127.412C150.373 127.688 150.098 127.963 149.725 128.108C149.304 128.286 148.835 128.238 148.381 128.205C148.138 128.481 147.782 128.626 147.426 128.691C147.069 128.756 146.713 128.739 146.357 128.723C146.097 128.707 145.838 128.691 145.595 128.772C145.434 128.82 145.271 128.901 145.126 128.966C144.98 129.015 144.834 129.047 144.705 129.144C144.543 129.257 144.446 129.452 144.284 129.565C144.122 129.678 143.943 129.727 143.765 129.808C143.296 130.002 142.972 130.439 142.664 130.859C142.518 131.054 142.372 131.28 142.178 131.426C142 131.555 141.757 131.636 141.546 131.588C141.125 131.733 140.753 131.41 140.461 131.102C140.218 130.827 139.927 130.503 139.554 130.487C139.198 130.471 138.874 130.714 138.631 130.973C138.253 131.361 137.924 131.782 137.643 132.235C137.546 132.397 137.465 132.543 137.319 132.672C137.157 132.834 136.914 132.915 136.671 132.899C136.412 132.866 136.169 132.737 135.943 132.623C135.7 132.526 135.408 132.445 135.181 132.559C134.987 132.64 134.874 132.801 134.728 132.931C134.598 133.028 134.453 133.109 134.323 133.174C134.118 133.282 133.913 133.389 133.708 133.497C133.497 133.594 133.27 133.724 133.027 133.74C132.606 133.756 132.169 133.497 131.78 133.659C131.327 133.497 130.825 133.514 130.371 133.659C129.934 133.789 129.545 134.015 129.173 134.29C128.962 134.436 128.752 134.598 128.622 134.808C128.492 135.035 128.444 135.326 128.557 135.553C128.703 135.812 129.027 135.925 129.173 136.168C129.302 136.378 129.27 136.653 129.238 136.896C129.238 136.944 129.221 137.009 129.189 137.058C129.14 137.155 129.011 137.203 128.914 137.219C128.622 137.3 128.33 137.381 128.039 137.3C127.861 137.252 127.699 137.122 127.537 137.009C127.343 136.869 127.154 136.734 126.97 136.605C126.76 136.459 126.565 136.313 126.387 136.135C126.193 135.941 126.031 135.714 125.901 135.472C125.853 135.358 125.804 135.229 125.804 135.099C125.804 134.905 125.933 134.727 126.047 134.565C126.23 134.296 126.414 134.031 126.598 133.772C126.711 133.627 126.808 133.449 126.743 133.287C126.711 133.206 126.646 133.141 126.565 133.093C126.241 132.882 125.788 132.899 125.464 133.109C125.302 133.206 125.156 133.368 124.994 133.465C124.735 133.594 124.395 133.594 124.152 133.449C123.941 133.319 123.747 133.093 123.488 133.287C123.52 132.915 123.148 132.866 122.872 132.866C122.532 132.85 122.192 132.85 121.868 132.931C121.561 133.012 121.269 133.157 120.994 133.319C120.994 133.319 120.988 133.319 120.978 133.319C120.022 133.044 118.985 132.963 118.03 132.64C116.702 132.203 115.406 131.037 115.649 129.678C115.73 129.241 115.957 128.804 115.568 128.383C115.438 128.238 115.26 128.141 115.082 128.076C114.596 127.93 114.094 128.011 113.608 127.979C112.734 127.93 111.892 127.461 111.389 126.733C111.195 126.458 111.033 126.118 110.644 126.085C110.402 126.069 110.175 126.183 110.029 126.361C109.689 126.733 109.656 127.251 109.576 127.736C109.559 127.849 109.511 127.947 109.446 128.027C109.219 128.303 108.879 128.157 108.588 128.092C107.567 127.849 106.612 128.691 105.575 128.82C104.782 128.917 103.875 128.61 103.227 129.063C102.984 129.225 102.789 129.484 102.498 129.5C102.044 129.549 101.753 128.982 101.299 128.95C100.846 128.934 100.554 129.419 100.149 129.581C100.074 129.603 100.004 129.619 99.9389 129.63C99.3073 129.727 98.5623 129.274 98.0602 129.71C97.8173 129.905 97.7363 130.245 97.8011 130.552C97.9306 131.264 98.5461 131.717 98.789 132.348C98.9996 132.915 98.8538 133.643 98.3679 134.015C97.8821 134.387 97.0723 134.306 96.7483 133.789C96.6188 133.594 96.5702 133.336 96.4082 133.157C96.2624 133.012 96.0681 132.931 95.8576 132.899C95.7712 132.877 95.6848 132.866 95.5984 132.866C95.0477 132.882 94.5133 133.093 93.9788 133.206C93.4281 133.319 92.8127 133.303 92.4078 132.915C91.9057 132.429 91.8895 131.458 91.2255 131.232C90.8368 131.086 90.3671 131.313 89.9784 131.135C89.2981 130.843 89.5087 129.808 89.8003 129.176C89.946 128.869 90.027 128.513 89.9946 128.173C89.9136 127.332 89.4439 127.38 89.0552 127.234C88.3264 126.943 88.051 126.037 88.0349 125.244C88.0025 124.354 88.0349 123.221 86.8688 123.108C86.4639 123.075 86.0752 123.205 85.7513 123.431C85.1844 123.852 83.9697 124.192 83.5648 123.464C83.4676 123.318 83.4352 123.14 83.419 122.962C83.3056 121.408 84.3584 120.033 85.4111 118.884C85.9618 118.253 86.5448 117.638 86.9983 116.942C87.2413 116.586 87.4518 116.197 87.5976 115.777C87.7434 115.34 87.8081 114.854 87.8891 114.401C88.0673 113.398 88.0996 112.362 87.9539 111.343C87.9053 111.084 87.8405 110.825 87.6624 110.63C87.4518 110.42 87.1441 110.355 86.885 110.226C85.5083 109.562 85.4111 107.378 84.0021 106.795C83.8887 106.763 83.7592 106.73 83.6458 106.747C83.3705 106.827 83.3218 107.2 83.176 107.442C83.1005 107.55 83.0195 107.631 82.9331 107.685C82.5282 107.944 81.8966 107.831 81.4431 107.604C81.1516 107.475 80.8601 107.329 80.5686 107.232C80.0989 107.086 79.8073 106.649 79.8073 106.18C79.8235 105.581 79.7101 104.983 79.451 104.448C79.2404 103.995 78.9327 103.591 78.4792 103.364C78.0419 103.154 77.4589 103.17 77.1026 103.51C76.6815 103.898 76.6167 104.627 76.0984 104.885C75.3048 105.29 74.576 104.173 73.7176 103.931C72.924 103.72 72.1466 104.287 71.5636 104.885C70.9967 105.468 70.3974 106.148 69.5714 106.245C69.3447 106.261 69.1018 106.245 68.9074 106.358C68.6159 106.536 68.5673 106.941 68.3729 107.216C67.968 107.782 66.9963 107.766 66.721 108.397C66.64 108.591 66.6399 108.802 66.5752 109.012C66.2998 109.967 64.988 110.032 64 109.918C63.7085 109.87 63.4008 109.838 63.1902 109.643C63.1794 109.633 63.1687 109.627 63.1579 109.627C62.9959 109.465 62.8987 109.255 62.7368 109.077C61.927 108.203 60.3883 109.19 59.3194 108.689C59.0441 108.559 58.8335 108.349 58.5744 108.187C57.8941 107.734 56.9385 107.685 56.2097 108.09C55.5943 108.43 55.1246 109.045 54.4444 109.19C54.0719 109.271 53.6994 109.19 53.3269 109.142C53.2729 109.131 53.2189 109.125 53.1649 109.125C52.4361 109.045 51.7073 109.045 50.9785 109.158C50.5142 109.223 50.0553 109.33 49.6018 109.481C49.0349 109.659 48.4195 109.902 47.8688 109.692C47.4801 109.546 47.2048 109.19 46.8323 109.012C46.8215 109.012 46.8107 109.007 46.7999 108.996C46.2816 108.753 45.6661 108.85 45.1155 108.85C44.8401 108.85 44.5487 108.834 44.2895 108.753C43.998 108.64 43.7388 108.413 43.5121 108.203C43.2691 108.009 42.9776 107.847 42.6861 107.718C42.4053 107.588 42.1084 107.491 41.7953 107.426C41.4552 107.345 41.0989 107.313 40.7912 107.151C40.5968 107.054 40.4186 106.908 40.2567 106.763C39.4145 106.051 38.4266 105.403 37.3253 105.339C36.726 105.306 36.1106 105.436 35.5437 105.241C35.2036 105.128 34.9283 104.902 34.6529 104.691C34.3128 104.416 33.9565 104.125 33.6325 103.817C32.7579 102.976 32.0777 101.892 30.9926 101.358C30.6525 101.196 30.2799 101.082 29.9722 100.856C29.4863 100.467 29.1949 99.7554 28.5794 99.6097C28.0612 99.4803 27.5429 99.8525 27.0246 100.014C26.7979 100.095 26.5711 100.128 26.3443 100.128C26.069 100.128 25.8099 100.079 25.5507 100.014C25.3564 99.9604 25.162 99.8956 24.9677 99.8201C24.8597 99.777 24.7517 99.7338 24.6438 99.6906C24.2712 99.5126 23.8988 99.3508 23.5425 99.1566C22.7812 98.7196 22.1334 98.1532 21.4855 97.5868C20.8215 97.0366 20.1575 96.4864 19.3801 96.1141C18.6836 95.7905 17.8253 95.4992 17.6309 94.7548C17.4852 94.1398 17.8739 93.4439 17.5662 92.9099C17.4366 92.6672 17.1774 92.5053 16.9831 92.2949C16.7887 92.0845 16.6753 91.7447 16.8697 91.5343C16.9669 91.4372 17.1126 91.3887 17.2584 91.3887C17.6795 91.3725 18.1006 91.5829 18.3273 91.9389C18.4083 92.0684 18.4893 92.214 18.6189 92.2626C18.7809 92.3435 18.959 92.2464 19.1209 92.1655C19.6878 91.8418 20.2871 91.4696 20.5462 90.8708C20.611 90.7575 20.6434 90.6281 20.611 90.4986C20.5786 90.272 20.3518 90.1102 20.1736 89.9807C19.5096 89.479 19.0562 88.7346 18.9266 87.9255C18.8618 87.5047 18.878 87.0354 18.635 86.6794C18.3759 86.291 17.8576 86.0482 17.8414 85.5465C17.8414 85.3847 17.9062 85.2229 18.0196 85.0934C18.3111 84.8021 18.7808 84.8668 19.1695 85.0125C19.5097 85.1581 19.8498 85.3362 20.2223 85.3038C20.6758 85.2714 21.0321 84.9316 21.275 84.5594C21.518 84.171 21.6961 83.7502 21.9876 83.4103C22.1982 83.1514 22.4573 82.9572 22.684 82.7306C23.3967 82.0348 23.8016 81.0476 23.8016 80.0604C23.7854 79.8662 23.753 79.672 23.6558 79.5102C23.2671 78.8629 22.5707 79.2674 22.0524 79.0571C21.5989 78.8791 21.4208 78.3612 21.0969 78.0214C20.6758 77.5844 20.0441 77.4549 19.4287 77.4549C18.4407 77.4711 17.4689 77.811 16.6915 78.4259C16.319 78.7172 15.9951 79.0732 15.574 79.2998C15.5308 79.3214 15.4877 79.3376 15.4445 79.3484C14.8938 79.6073 14.2622 79.6396 13.6629 79.6882C13.339 79.7044 13.0151 79.7044 12.7074 79.6882C12.3025 79.6882 11.8489 79.7368 11.4602 79.5749C11.0068 79.3969 10.7152 78.9761 10.3913 78.6363C10.0998 78.345 9.77586 78.1832 9.35476 78.1184C9.11182 78.0699 8.83652 78.0699 8.65836 77.8757C8.5126 77.73 8.49639 77.5035 8.48019 77.2769C8.41541 76.4192 8.18866 75.5453 7.67039 74.8494C7.08734 74.0888 6.13173 73.5872 5.19236 73.7975C4.98181 73.8299 4.77131 73.8137 4.59315 73.6843C4.36641 73.5386 4.39882 73.3606 4.44741 73.1988C4.44741 73.1988 4.44741 73.1934 4.44741 73.1826C4.49059 72.9668 4.52292 72.7456 4.54452 72.5191C4.77126 70.8198 4.57696 69.0397 3.94531 67.4375C3.88053 67.2433 3.78335 67.0491 3.62139 66.9197C3.44324 66.7902 3.20031 66.7902 2.98977 66.7902C2.4391 66.7794 1.88841 66.774 1.33774 66.774C1.20818 66.774 1.06244 66.7578 0.965268 66.6769C0.900484 66.6122 0.86806 66.5151 0.851864 66.418C0.641316 65.6412 0.592712 64.8482 0.592712 64.0391C0.592712 63.7262 0.592712 63.4079 0.592712 63.0843C0.608908 62.5664 0.625136 62 0.949056 61.5954C1.12721 61.385 1.37017 61.2394 1.61311 61.0937L3.42701 60.0256C4.01007 59.6858 4.59312 59.3621 5.20857 59.087C5.71065 58.8605 6.29373 58.6824 6.77961 58.9252C6.95777 59.0061 7.10353 59.1518 7.26549 59.2489C7.79996 59.5887 8.49634 59.6372 9.0794 59.4268C9.67865 59.2165 10.1646 58.7634 10.4885 58.2293C10.6828 57.8895 10.8286 57.5334 10.9906 57.1774C11.023 57.0965 11.0715 56.9994 11.1363 56.9508C11.2011 56.9023 11.2659 56.8861 11.3307 56.8699C11.9138 56.7405 12.4968 56.8214 13.096 56.8375C13.6035 56.8483 14.1056 56.8483 14.6022 56.8375C15.1043 56.8214 15.6388 56.789 16.0599 56.5139C16.3676 56.3035 16.5944 55.9798 16.8373 55.6724C17.9063 54.313 19.5582 53.4229 21.275 53.2449C21.7285 53.1963 22.2306 53.1802 22.5707 52.8889C22.9918 52.5166 23.008 51.8531 22.9432 51.3029C22.9216 51.1626 22.9 51.017 22.8784 50.866C22.8298 50.4452 22.8136 50.0082 23.0242 49.636C23.4776 48.8269 24.8057 48.6165 24.9191 47.694C24.9515 47.4837 24.9029 47.2733 24.8544 47.0467C24.6924 46.3994 24.5304 45.7197 24.1579 45.1695C23.9959 44.9105 23.7692 44.684 23.7044 44.3927C23.6396 44.1823 23.672 43.9719 23.672 43.7615C23.7044 43.1466 23.672 42.5154 23.5587 41.9166C23.4453 41.2855 23.2023 40.622 22.5707 40.3792C22.3602 40.2983 22.2468 40.0718 22.3278 39.8614C22.4735 39.5215 22.9756 39.7805 23.3157 39.6834C23.4777 39.6348 23.5911 39.4892 23.7206 39.3921C24.3037 38.9389 25.1458 39.1493 25.8585 39.0037C26.4091 38.8742 26.895 38.5505 27.4457 38.4373C27.8992 38.3563 28.1745 38.4858 28.4822 38.8418C28.628 39.0037 28.8224 39.1008 29.0491 39.1008H29.1948C29.7347 39.0792 30.28 39.0576 30.8307 39.036C31.025 39.036 31.2518 39.0037 31.3327 38.8095C31.3651 38.6962 31.3489 38.5667 31.2841 38.4696C31.0898 38.1945 30.7658 38.146 30.5553 37.9356C30.1504 37.5634 30.3285 36.8999 30.5391 36.3982C30.9278 35.4434 31.3651 34.4886 31.8024 33.5337C32.2127 32.6275 32.6284 31.7158 33.0495 30.7988C33.1304 30.6208 33.2115 30.4428 33.3572 30.3133C33.6812 30.0058 34.1994 30.0867 34.6043 30.2809C34.993 30.4751 35.3331 30.7826 35.7542 30.9444C36.6774 31.2843 37.7625 30.7988 38.6857 31.1548C38.8963 31.2519 39.0906 31.3652 39.3173 31.3976C39.949 31.4947 40.4024 30.8473 40.9855 30.5561C41.2608 30.4104 41.5848 30.3619 41.8277 30.1515C42.346 29.7307 42.2488 28.9215 41.9897 28.3066C41.6334 27.4812 41.0665 26.6235 41.7792 25.6849C41.8871 25.5339 42.0221 25.4044 42.1841 25.2965C43.0748 24.6654 44.1599 24.6815 45.1317 24.277C45.407 24.1637 45.6823 23.9857 45.8443 23.7267C46.1844 23.128 45.731 22.3026 46.0549 21.7038C46.2816 21.3154 46.7513 21.1536 47.14 20.9594C47.3991 21.0889 47.6907 21.2022 47.966 21.2669C48.3061 21.3478 48.6462 21.364 48.9702 21.2993C49.0997 21.2831 49.2455 21.2507 49.3751 21.2183C49.3103 22.076 49.7962 22.9661 50.363 23.6458C50.6384 24.0018 50.9461 24.3093 51.2538 24.633C51.9826 25.426 52.7924 26.2513 53.8613 26.4455C54.5253 26.575 55.238 26.4293 55.8858 26.6397C56.3879 26.8177 56.7928 27.1738 57.1977 27.5298C57.797 28.08 58.4286 28.6464 58.7525 29.3909C59.0117 29.9734 59.0927 30.6693 59.5785 31.1063C59.9834 31.4785 60.6799 31.6727 60.7123 32.2229C60.7447 32.8541 59.7891 33.291 59.9834 33.8898C60.0644 34.1973 60.4045 34.3429 60.5503 34.618C60.8742 35.2006 60.1778 35.7994 59.8215 36.3658C59.2546 37.2559 59.6109 38.5991 60.5503 39.1008C61.0362 39.3597 61.603 39.3921 62.1537 39.4244C63.2766 39.4784 64.3942 39.5377 65.5063 39.6024C66.6238 39.651 67.7737 39.7157 68.8265 40.0879C70.6566 40.7191 72.1143 42.1756 73.9282 42.8391C74.8838 43.1789 76.0175 43.3569 76.6005 44.1985C76.9892 44.7487 77.0378 45.4608 77.1997 46.1243C77.2645 46.4479 77.4103 46.7392 77.6533 46.9658C77.9934 47.3056 78.2849 47.6779 78.5764 48.0663C79.1918 48.9563 80.0503 49.4256 81.0382 49.458C82.0424 49.4904 83.0627 49.2314 84.0345 49.458C84.4718 49.5551 84.8929 49.7655 85.3302 49.8788C85.816 50.0082 86.3019 50.0406 86.7878 50.0568C89.8434 50.1647 92.8937 50.197 95.9385 50.1539C96.5702 50.1539 97.218 50.1377 97.8173 50.3643C98.9996 50.8012 99.7446 52.0959 100.959 52.4519C101.947 52.7432 103.259 52.4519 103.842 53.2934C103.939 53.4553 104.004 53.6333 104.166 53.7466C104.279 53.8437 104.441 53.8598 104.603 53.876C105.203 53.9246 105.802 53.8275 106.369 53.6171C106.693 53.5038 107.033 53.342 107.357 53.4714C107.681 53.6171 107.794 54.0217 108.021 54.2968C108.523 54.8794 109.462 54.8147 110.126 54.4263C110.774 54.0217 111.228 53.3905 111.762 52.8565C112.377 52.2415 113.301 52.3063 113.981 51.8531C114.127 51.756 114.272 51.6427 114.434 51.5618C115.228 51.0763 116.248 50.8336 117.155 50.6717C118.111 50.5099 119.099 50.4776 120.054 50.5747C120.945 50.6718 121.836 50.8821 122.727 50.8983C123.553 50.9145 124.362 50.7688 125.156 50.607C126.905 50.2833 128.849 49.8302 129.772 48.309C130.015 47.9044 130.177 47.4351 130.517 47.1114C131.035 46.6259 131.813 46.5774 132.493 46.4479C133.189 46.3023 133.967 45.9301 134.08 45.2342C134.291 43.7777 131.489 43.098 131.91 41.6901C131.991 41.4311 132.153 41.2369 132.331 41.0266C133.124 40.1203 134.129 39.1169 135.327 39.2788C135.943 39.3759 136.461 39.7643 137.012 40.0394C138.696 40.8809 140.899 40.5411 142.259 39.2141C142.761 38.7286 143.198 38.0974 143.895 37.9841C144.446 37.887 144.996 38.1622 145.547 38.2431C147.426 38.5505 148.964 36.7057 149.596 34.9255C149.693 34.6666 149.774 34.3915 149.985 34.2134C150.146 34.0678 150.341 33.9869 150.551 33.9221C151.923 33.469 153.299 33.0159 154.681 32.5628C154.994 32.4549 155.308 32.347 155.621 32.2391C156.414 31.9802 157.257 31.7051 158.083 31.8669C158.892 32.0125 159.573 32.5628 160.382 32.757C161.192 32.9512 162.277 32.4818 162.212 31.6565C162.18 31.349 161.986 31.0739 161.791 30.815C161.03 29.8116 160.188 28.8568 159.281 27.9667C158.617 27.3032 157.888 26.6721 157.014 26.3646C156.139 26.0409 155.07 26.1057 154.374 26.7368C153.888 27.1737 153.434 27.902 152.819 27.7078C152.608 27.6431 152.446 27.4651 152.268 27.3194C151.248 26.5426 149.758 27.0119 148.689 27.724C148.494 27.8535 148.3 27.9829 148.073 27.9991C147.83 27.9991 147.62 27.8534 147.426 27.6916C147.021 27.4003 146.583 27.0767 146.389 26.6073C146.195 26.138 146.324 25.4907 146.794 25.2965C146.972 25.2156 147.199 25.2156 147.361 25.1023C147.604 24.9405 147.652 24.6168 147.685 24.3255C148.009 21.9951 149.337 19.9399 150.746 18.0141C150.956 18.273 151.167 18.4996 151.442 18.6614C152.09 19.0336 152.932 18.888 153.58 19.244C153.807 19.3735 154.017 19.5515 154.26 19.6162C154.908 19.8104 155.475 19.2116 155.961 18.7423C156.819 17.9008 157.953 17.3506 159.135 17.1564C159.281 17.124 159.459 17.1078 159.573 16.9945C159.686 16.8812 159.718 16.687 159.718 16.5252C159.735 15.9912 159.573 15.4733 159.67 14.9393C159.799 14.3081 160.285 13.8064 160.69 13.2886C161.354 12.447 161.872 11.4761 162.196 10.4403C162.294 10.1167 162.374 9.77682 162.569 9.5017C162.909 9.03239 163.508 8.82202 164.026 8.56309C164.545 8.28798 165.079 7.83485 165.031 7.25226C165.014 6.83149 164.707 6.49163 164.626 6.08705C164.577 5.90904 164.577 5.68249 164.431 5.55302C164.302 5.42356 164.091 5.42355 163.913 5.42355C163.622 5.42355 163.33 5.40736 163.071 5.27789C162.796 5.14843 162.601 4.85714 162.634 4.58203C162.666 4.4202 162.747 4.27454 162.844 4.14507C163.33 3.41683 163.848 2.65621 164.61 2.21927C165.209 1.86324 165.938 1.74996 166.585 1.55576C166.845 1.49103 167.104 1.4263 167.363 1.36157C168.092 1.19974 168.837 0.956987 169.598 0.892254C170.116 0.843704 170.618 0.956995 171.136 0.940812C171.379 0.940812 171.639 0.892258 171.882 0.876075C172.151 0.854497 172.421 0.832916 172.691 0.811338C173.231 0.757394 173.766 0.708841 174.295 0.665685C174.446 0.644108 174.597 0.627937 174.748 0.617148C175.153 0.584781 175.59 0.552399 175.947 0.762781C176.271 0.956979 176.449 1.3292 176.692 1.6205C177.226 2.28401 178.149 2.59149 178.975 2.42966C179.429 2.33256 179.866 2.08981 180.336 2.10599C180.951 2.13836 181.453 2.59149 181.891 3.01225C183.3 4.35545 184.79 5.82814 185.162 7.73775C185.259 8.22325 185.276 8.7411 185.535 9.16186C185.761 9.55026 186.15 9.84156 186.312 10.2623C186.539 10.8287 186.28 11.4922 186.442 12.0587C186.652 12.7383 187.365 13.1106 187.835 13.6284C188.693 14.5994 188.677 16.0235 188.92 17.2696C189.179 18.5319 190.102 19.9399 191.365 19.7457C191.965 19.6648 192.58 19.244 193.098 19.5515C193.325 19.6809 193.455 19.9237 193.665 20.0693C194.151 20.393 194.799 20.1017 195.382 20.1664C196.499 20.3121 196.985 21.7038 197.973 22.2541C198.427 22.4968 198.961 22.5615 199.382 22.8528C200.629 23.7267 199.949 25.8144 200.791 27.0928C201.569 28.2419 203.221 28.2742 204.597 28.1609C205.164 28.1286 205.796 28.0638 206.185 27.6431C206.363 27.4489 206.476 27.2061 206.654 27.0119C207.043 26.5912 207.658 26.5264 208.209 26.3808C210.136 25.8953 211.983 24.2446 213.862 24.9081C213.894 25.631 213.932 26.3538 213.975 27.0767C213.975 27.4003 213.991 27.724 213.878 28.0315Z" fill="#F1F1F1" stroke="#BABABA" stroke-width="1.18548" stroke-linecap="round" stroke-linejoin="round"/>
</svg>
