<svg width="42" height="40" viewBox="0 0 42 40" fill="none" xmlns="http://www.w3.org/2000/svg">
<path d="M41.3964 33.3863C41.2344 33.807 40.8457 34.1954 40.4408 34.422C39.7606 34.778 38.9831 34.8751 38.3029 35.2312C37.4931 35.6519 36.91 36.4125 36.1812 36.9466C35.4362 37.4968 34.3835 37.8205 33.6223 37.3026C33.3631 37.1084 33.1526 36.8333 32.8287 36.7848C32.2942 36.72 31.9703 37.3511 31.7273 37.8528C31.5654 38.2089 31.3386 38.5487 31.0147 38.7753C30.6908 39.0018 30.2211 39.0666 29.881 38.8724C29.5895 38.6782 29.3789 38.3059 29.0226 38.2898C28.6339 38.2736 28.4072 38.7267 28.0509 38.9047C27.5974 39.1475 27.0305 38.8724 26.6094 38.5649C26.1883 38.2574 25.7348 37.8852 25.2166 37.9499C24.7631 38.0147 24.4067 38.4031 23.9532 38.5164C23.1272 38.7429 22.3661 38.0147 21.5563 37.7072C21.5239 37.5615 21.4591 37.4159 21.3781 37.3026C21.1999 37.0113 20.957 36.7847 20.8274 36.4773C20.7465 36.2831 20.7141 36.0889 20.6817 35.8947C20.5737 35.2474 20.4927 34.5946 20.4388 33.9365C20.4226 33.7099 20.4226 33.4834 20.3578 33.273C20.4549 33.014 20.4711 32.7389 20.4063 32.4638C20.3739 32.3343 20.3091 32.1887 20.2282 32.0754C20.0338 31.8651 19.7423 31.7841 19.4832 31.6709C19.2889 31.5738 19.0945 31.4605 18.8839 31.3957C18.6572 31.3148 18.4143 31.2987 18.1713 31.2825C17.3291 31.2177 16.4977 31.099 15.6771 30.9264C15.6663 30.9264 15.6501 30.9264 15.6285 30.9264C15.4504 30.894 15.2398 30.8455 15.0779 30.7484C14.8997 30.6675 14.7702 30.5542 14.6082 30.4571C14.4462 30.36 14.2681 30.3115 14.1061 30.2306C13.685 30.0202 13.3449 29.7612 12.8914 29.648C12.4541 29.5347 11.9844 29.4861 11.5633 29.3243C11.288 29.211 11.0451 29.0492 10.8669 28.8064C10.5592 28.4504 10.3 28.0296 9.86272 27.8354C9.32825 27.6089 8.63189 27.7869 8.22699 27.3661C8.14601 27.2852 8.14601 26.7511 8.14601 26.3142C8.14601 26.0391 8.1622 25.7963 8.14601 25.7478C8.01644 24.534 6.57498 23.7734 6.42922 22.5597C6.36443 21.9771 6.55874 21.2812 6.13764 20.8928C5.95949 20.731 5.73277 20.6663 5.52223 20.5854C4.92297 20.3426 4.42088 19.8895 4.12936 19.3231C3.91881 18.9185 3.82165 18.4654 3.74067 18.0123C3.64349 17.3649 3.60567 16.7122 3.62726 16.0541C3.62726 15.7142 3.65966 15.3744 3.78922 15.0669C3.8864 14.8241 4.04839 14.63 4.14557 14.4034C4.25894 14.1606 4.29135 13.8855 4.16178 13.6751C4.0646 13.5133 3.9026 13.4324 3.78922 13.2867H3.77309C3.77309 13.2867 3.75683 13.2058 3.70824 13.0602C3.71904 13.0062 3.74603 12.9523 3.78922 12.8983C4.11314 12.5207 4.43173 12.1431 4.74485 11.7655C4.85282 11.6468 4.9608 11.5282 5.06877 11.4095C5.78139 10.5572 6.49938 9.71027 7.22281 8.86875C7.43335 8.626 7.64387 8.30231 7.5143 8.02719C7.38473 7.76826 7.07706 7.71974 6.83412 7.57409C6.57498 7.42844 6.3806 7.16951 6.31581 6.87821C6.26723 6.61928 6.31583 6.34414 6.25105 6.08521C6.05669 5.4217 4.98777 5.29224 4.64766 5.89102C4.50189 6.14995 4.50191 6.45743 4.33995 6.70018C4.03223 7.18567 3.33577 7.16949 2.76891 7.10476C2.33701 7.05081 1.89971 6.99687 1.45702 6.94292C1.18168 6.91056 0.874008 6.86202 0.695852 6.63546C0.42052 6.26325 0.74444 5.72918 1.10075 5.43788C1.45706 5.1304 1.9105 4.82294 1.9429 4.36981C1.97529 4.01378 1.74853 3.64156 1.92668 3.35026C2.02386 3.18843 2.23446 3.10752 2.38022 2.99424C2.80132 2.67058 2.86612 2.08797 2.80133 1.57011C2.79053 1.50538 2.7797 1.44065 2.76891 1.37592C3.02804 1.47302 3.28718 1.61866 3.49773 1.81286C3.70828 1.99088 3.88643 2.21745 4.14557 2.266C4.50188 2.34691 4.84203 2.10417 5.06877 1.82906C5.27932 1.53776 5.44128 1.19791 5.71661 0.971342C6.1701 0.566762 6.8503 0.582937 7.46575 0.59912C8.63186 0.653064 9.79798 0.701598 10.9641 0.744753C11.3528 0.760936 11.7577 0.777135 12.1464 0.841868C12.2435 1.16553 12.2274 1.55393 12.114 1.89378C11.9521 2.39545 11.6281 2.8162 11.3366 3.25315C11.0612 3.70628 10.8021 4.19177 10.7859 4.70964C10.7859 5.01712 10.9155 5.37315 11.207 5.48644C11.531 5.59972 11.8711 5.34079 12.114 5.08186C12.357 4.82293 12.6485 4.51544 13.0048 4.5478C13.2801 4.58017 13.5069 4.80675 13.6526 5.0495C13.7984 5.29225 13.928 5.56737 14.1385 5.74538C14.2195 5.81012 14.3166 5.85866 14.4138 5.85866C14.6729 5.85866 14.8187 5.53501 15.0617 5.47028C15.3532 5.38936 15.6123 5.64828 15.8229 5.85866C16.0334 6.05286 16.3897 6.23087 16.5841 6.02049C16.6974 5.92339 16.7137 5.76156 16.6975 5.61591C16.6975 5.40553 16.6326 5.17897 16.5031 5.01714C16.2439 4.72584 15.8067 4.72582 15.4342 4.62872C15.0617 4.53162 14.6568 4.20799 14.7864 3.85196C14.8512 3.62539 15.094 3.52829 15.3046 3.44738C15.8876 3.22081 16.5193 3.04278 16.989 2.62202C17.3777 2.28217 17.6369 1.7805 18.1065 1.53775C18.2685 1.45684 18.479 1.3921 18.56 1.21409C18.6086 1.13317 18.6086 1.03608 18.6086 0.938983C18.5978 0.831095 18.587 0.723207 18.5762 0.615319C19.629 1.50539 20.8436 2.20127 22.0421 2.88097C22.7116 3.26936 23.381 3.65234 24.0504 4.02995C24.6821 4.40216 25.3299 4.75819 26.0264 5.00094C26.739 5.24369 27.5002 5.35697 28.1642 5.72919C28.9092 6.13376 29.4599 6.84583 30.2373 7.18567C30.4641 7.29895 30.7232 7.36371 30.9661 7.49318C31.5492 7.80066 31.9541 8.41559 32.0674 9.0791C32.1322 9.43513 32.116 9.82356 32.2456 10.1634C32.4886 10.746 33.104 11.0697 33.6547 11.3771C35.0637 12.1539 36.327 13.1573 37.4121 14.3548C37.4013 14.4411 37.3906 14.5328 37.3798 14.6299C37.1854 15.5038 36.2784 16.0541 36.0192 16.8956C35.9869 17.0574 35.9707 17.2031 36.0031 17.3487C36.0517 17.5915 36.2298 17.7695 36.3756 17.9637C36.5214 18.1579 36.651 18.4006 36.57 18.6434C36.5538 18.9509 36.6185 19.2907 36.8777 19.4687C37.072 19.582 37.315 19.582 37.4608 19.76C37.6389 19.9866 37.4931 20.3103 37.5579 20.5854C37.6388 20.8767 37.9142 21.0385 38.1247 21.2489C38.4001 21.4755 38.5782 21.8315 38.562 22.1875C38.562 22.3008 38.5297 22.4141 38.5135 22.5273C38.4325 22.8186 38.3677 23.1261 38.1734 23.3689C38.0438 23.5307 37.8656 23.6925 37.898 23.9029C37.7684 24.2266 37.8008 24.6311 37.9952 24.9386C38.0762 25.0519 38.1571 25.149 38.2219 25.2623C38.3353 25.505 38.2543 25.7963 38.1409 26.0391C38.0276 26.2657 37.8656 26.4922 37.7685 26.735C37.5903 27.1719 37.6551 27.6736 37.898 28.062C38.0276 28.2238 38.1733 28.3695 38.2867 28.5637C38.3677 28.6932 38.4163 28.8388 38.4811 29.0006C38.5567 29.1948 38.6592 29.3836 38.7888 29.567C38.9345 29.7612 39.0965 29.9393 39.1451 30.182C39.1775 30.2791 39.1613 30.3924 39.1613 30.5057C39.1613 30.7808 39.1451 31.1368 39.1451 31.4119C39.1289 31.6061 39.2747 31.8651 39.4528 31.9622C39.631 32.0431 39.8253 32.0754 40.0197 32.1402C40.6189 32.3343 41.04 32.8522 41.3964 33.3863Z" fill="#F1F1F1" stroke="#BABABA" stroke-width="1.18548" stroke-linecap="round" stroke-linejoin="round"/>
</svg>
