<svg width="16" height="11" viewBox="0 0 16 11" fill="none" xmlns="http://www.w3.org/2000/svg">
<path d="M14.9748 9.90307C14.273 9.94622 13.5658 9.98397 12.8532 10.0163C12.4969 10.0325 12.1406 10.0487 11.8004 9.98398C11.1526 9.8707 10.6019 9.4661 10.0836 9.07771C9.92168 8.96443 9.77589 8.83498 9.64632 8.68933C9.3224 8.30093 9.20907 7.68595 8.7232 7.5403C8.33449 7.42702 7.96195 7.70215 7.55705 7.79925C7.08737 7.92872 6.55288 7.79924 6.16418 7.50795C5.75928 7.21665 5.484 6.77969 5.32204 6.32657C5.27345 6.21328 5.24106 6.1 5.16008 6.0029C5.01431 5.85725 4.77136 5.85726 4.577 5.79253C3.89677 5.54978 3.79958 4.46551 3.10315 4.27131C2.71445 4.15803 2.24477 4.38459 1.88845 4.17421C1.77508 4.10948 1.71028 4.02856 1.6293 3.93146C1.17581 3.39742 0.738537 2.75009 0.592773 2.08658C0.884301 1.92474 1.15963 1.682 1.48355 1.56872C1.75889 1.47162 2.06661 1.4878 2.37433 1.43925C2.69825 1.3907 3.00601 1.26124 3.29754 1.09941C3.30833 1.11019 3.3245 1.11558 3.34609 1.11558C3.55664 1.26123 3.73477 1.42307 3.96151 1.52016C4.15586 1.61726 4.38267 1.64963 4.59322 1.682C5.08989 1.74673 5.59194 1.77909 6.09941 1.77909C6.24518 1.77909 6.40717 1.77909 6.53674 1.69818C6.65011 1.63344 6.73107 1.52016 6.84444 1.43925C7.05499 1.26123 7.34647 1.21268 7.60561 1.11558C7.97812 0.953753 8.3183 0.662463 8.7232 0.59773C9.04712 0.565364 9.3872 0.694818 9.66253 0.889016C9.93786 1.08321 10.1484 1.34216 10.3914 1.56872C10.5047 1.69819 10.6505 1.82765 10.8125 1.89239C11.1364 2.00567 11.5089 1.86002 11.8328 1.9733C11.9785 2.00567 12.0919 2.10276 12.2215 2.16749C12.4158 2.26459 12.6426 2.31314 12.8693 2.3455C12.8045 2.5397 12.7721 2.7501 12.8045 2.94429C12.8855 3.41361 13.2742 3.73725 13.5334 4.14183C13.9868 4.87008 13.9383 5.88963 13.42 6.58551C13.2905 6.73116 13.1446 6.89299 13.1122 7.07101C12.9827 7.57269 13.5658 7.91253 13.9545 8.23619C14.4565 8.65695 14.7157 9.28811 14.9748 9.90307Z" fill="#77B341" stroke="#BABABA" stroke-width="1.18548" stroke-linecap="round" stroke-linejoin="round"/>
</svg>
