<svg width="17" height="17" viewBox="0 0 17 17" fill="none" xmlns="http://www.w3.org/2000/svg">
<path d="M16.0761 15.0965C14.9261 15.5658 13.5981 15.5496 12.4158 15.1936C11.0877 14.8052 9.92161 14.0607 8.85267 13.1868C8.62593 13.0088 8.39916 12.8147 8.14002 12.6528C7.92947 12.5234 7.68656 12.4262 7.47601 12.2968C7.21687 12.1349 6.99011 11.9246 6.81196 11.6656C6.73098 11.52 6.65 11.3582 6.48804 11.2773C6.35847 11.1963 6.1965 11.2125 6.03454 11.1963C5.48388 11.1316 4.98183 10.7594 4.77129 10.2577C4.13964 9.88549 3.57278 9.41619 3.10309 8.84977C2.74678 8.42901 2.42287 7.95968 1.93699 7.70075C1.77503 7.61984 1.59687 7.55509 1.45111 7.4418C1.25676 7.29616 1.14337 7.08579 1.03 6.89159C0.889631 6.6866 0.743875 6.49239 0.592712 6.30898C0.592712 6.27661 0.598087 6.24427 0.608885 6.21191C0.641277 6.08244 0.673677 5.93679 0.738461 5.80733C0.851833 5.64549 1.01381 5.5322 1.15957 5.38655C1.38632 5.17617 1.53206 4.88486 1.71022 4.60975C2.00175 4.14043 2.39048 3.70352 2.82777 3.34749C3.13549 3.10474 3.49179 2.87816 3.78332 2.60305C4.07484 2.32793 4.31778 1.97192 4.35018 1.56734C4.36637 1.35696 4.33399 1.16275 4.31779 0.952369C4.96563 0.920003 5.75924 0.337384 6.30991 0.725781C6.50426 0.855246 6.6014 1.08183 6.68238 1.30839C7.05489 2.2632 7.24924 3.28274 7.24924 4.30228C7.24924 4.64213 7.24926 5.01435 7.50839 5.24091C7.67035 5.38656 7.9133 5.41893 8.12385 5.40275C8.75549 5.37038 9.33855 5.01436 9.66247 4.48031C9.72725 4.38321 9.79202 4.25372 9.8892 4.17281C10.1483 3.96243 10.5533 4.09191 10.7638 4.35084C10.8448 4.4803 10.9095 4.60977 10.9419 4.75542C10.9905 4.93343 11.0067 5.12762 11.0229 5.30563C11.0661 5.70482 11.1039 6.09862 11.1363 6.48701C11.1525 6.69739 11.1849 6.92397 11.0715 7.10198C11.0067 7.24763 10.8772 7.34474 10.7962 7.4742C10.4885 7.9597 10.9581 8.60703 11.4764 8.84977C12.0109 9.1087 12.6425 9.20577 13.0312 9.62654C13.177 9.77218 13.2904 9.96641 13.4523 10.0959C13.7276 10.3224 14.1649 10.3548 14.3917 10.6299C14.6346 10.905 14.586 11.3258 14.6184 11.698C14.6832 12.9279 15.6712 13.9636 16.0761 15.0965Z" fill="#F1F1F1" stroke="#BABABA" stroke-width="1.18548" stroke-linecap="round" stroke-linejoin="round"/>
</svg>
