<svg width="68" height="28" viewBox="0 0 68 28" fill="none" xmlns="http://www.w3.org/2000/svg">
<path d="M67.17 21.278C67.0188 21.4291 66.8461 21.5477 66.6517 21.634C66.0686 21.9092 65.3074 21.8606 64.8864 21.3913C64.7568 21.2456 64.6596 21.0676 64.4977 20.9705C64.1414 20.744 63.6879 20.9705 63.2668 20.9705C62.5703 20.9705 62.0359 20.307 61.3557 20.2908C60.5297 20.2585 59.8332 21.1647 59.0882 21.2942C58.9263 21.3104 58.7643 21.3104 58.6023 21.2457C58.4242 21.1809 58.2784 21.0676 58.1165 21.0353C57.8087 20.9705 57.5171 21.1647 57.2418 21.3266C56.5616 21.6826 55.768 21.8283 55.023 21.7312C54.5533 21.6664 54.1161 21.5208 53.6626 21.5208C52.7718 21.5208 51.9943 22.071 51.2007 22.4756C49.8565 23.1391 48.3341 23.4627 46.844 23.3818C46.5363 23.3657 46.2286 23.3333 45.937 23.22C45.6941 23.1229 45.4674 22.9773 45.2244 22.864C44.8843 22.7183 44.4956 22.6698 44.1231 22.6859C43.4914 22.6859 42.8598 22.8316 42.2929 23.1229C41.888 23.3009 41.4993 23.5598 41.0782 23.5437C40.2037 23.4951 39.491 22.3785 38.7136 22.7345C38.2115 23.2524 38.5355 24.1263 38.3087 24.806C38.1791 25.2429 37.839 25.5827 37.4827 25.8417C36.8834 26.2948 36.187 26.6023 35.4582 26.7479C35.5716 25.518 35.9765 24.3204 36.6243 23.2847C36.6891 23.1714 36.7701 23.042 36.7863 22.9125C36.8025 22.783 36.7377 22.6212 36.6081 22.5888C36.5433 22.5727 36.4786 22.5889 36.4138 22.605C36.0089 22.7183 35.766 23.1391 35.4421 23.4304C34.8914 23.8997 34.0492 24.013 33.4176 23.6731C33.0127 23.4466 32.6725 23.0743 32.2352 22.9287C31.7817 22.7992 31.2473 22.961 30.9557 23.3171C30.7452 23.576 30.648 23.9159 30.4537 24.1748C30.1459 24.5956 29.6439 24.8221 29.158 24.9516C28.6559 25.0811 28.1539 25.1458 27.668 25.3076C26.9716 25.5504 26.3723 26.0359 25.6111 26.1491C25.4167 26.1653 25.2224 26.1653 25.0442 26.1168C24.9308 26.1006 24.8013 26.0682 24.7041 25.9873C24.5907 25.9226 24.5098 25.8417 24.4288 25.7446C24.0941 25.3777 23.7647 25.011 23.4408 24.6441C23.3274 24.5308 23.2302 24.4175 23.0845 24.3366C22.8577 24.2233 22.5824 24.2557 22.3719 24.1424C22.1937 24.0453 22.0804 23.8835 21.9184 23.7702C21.7888 23.6731 21.6268 23.5922 21.4649 23.5275C21.0762 23.3548 20.6821 23.1822 20.2826 23.0096C19.9263 22.5403 19.246 22.5888 18.7116 22.7992C18.582 22.8478 18.4525 22.9125 18.3553 23.0096C18.2743 23.1067 18.2419 23.22 18.1933 23.3171C17.9018 24.013 17.4321 24.6603 16.7843 25.0163C15.9259 25.4856 14.8731 25.4209 13.9175 25.2753C13.3993 25.1943 12.8649 25.0973 12.4438 24.806C12.136 24.5794 11.9093 24.2881 11.6825 23.9806C11.5313 23.7972 11.3856 23.6084 11.2452 23.4142C11.1804 23.3171 11.0994 23.22 11.0022 23.1552C10.8889 23.0905 10.7756 23.0744 10.646 23.0582C10.3761 23.0258 10.1061 23.0258 9.83618 23.0582C9.56085 23.1067 9.28549 23.1714 8.99396 23.1552C8.71863 23.1229 8.42709 22.9773 8.32991 22.7021C8.23273 22.3785 8.42715 21.9092 7.98986 21.7959C7.74692 21.634 7.43916 21.6664 7.14763 21.6664C6.8723 21.6664 6.54841 21.6179 6.37026 21.3913C6.14351 21.1 6.28923 20.6145 5.9977 20.3556C5.85194 20.2261 5.64144 20.2099 5.47948 20.0804C5.26893 19.9186 5.23647 19.5788 5.00973 19.4331C4.83157 19.3198 4.58865 19.3522 4.3781 19.3198C4.03799 19.2551 3.73026 18.8991 3.81124 18.5592C3.82744 18.4945 3.85986 18.446 3.92465 18.4136C3.95704 18.3812 3.98938 18.3812 4.03797 18.365C4.28091 18.3327 4.54005 18.3812 4.76679 18.3165C5.00973 18.2518 5.22031 18.009 5.12313 17.7824C5.07455 17.653 4.92878 17.5883 4.79921 17.5559C4.66965 17.5397 4.54008 17.5721 4.39431 17.5882C3.98941 17.653 3.56829 17.6692 3.14719 17.6206C3.0986 17.6206 3.05005 17.6206 3.01765 17.5882C2.98526 17.5559 2.96907 17.5073 2.93667 17.475C2.8395 17.297 2.61279 17.2646 2.40224 17.2484C1.90016 17.2322 1.31708 17.1998 0.993155 16.8114C0.539667 16.4392 0.458672 15.6948 0.814983 15.2255C1.34945 15.5006 2.02967 15.5006 2.58033 15.2417C2.6937 15.177 2.80711 15.1122 2.93667 15.1122C3.19581 15.096 3.39016 15.3388 3.58451 15.5168C3.77887 15.6786 4.16759 15.7434 4.24857 15.4844C4.32955 15.2093 3.92461 15.0475 3.81124 14.7724C3.63309 14.3031 4.44289 13.769 4.13516 13.3806C3.61689 13.5424 3.13101 13.8661 2.59654 13.947C2.24023 13.9956 1.88393 13.9308 1.56002 13.7852C1.13892 13.591 0.782607 13.0246 1.07414 12.6524C1.13892 12.5553 1.25232 12.4743 1.3495 12.3934C1.57624 12.1345 1.57624 11.7461 1.51146 11.4224C1.44667 11.0826 1.31709 10.759 1.33329 10.4029C1.34948 9.96598 1.59244 9.5614 1.83538 9.18919C2.28887 8.50949 2.90425 7.73268 3.71405 7.79742C4.08656 7.8136 4.42669 8.02396 4.783 8.10488C5.80335 8.34763 6.85612 7.60323 7.89266 7.76506C8.34615 7.82979 8.76726 8.07254 9.20456 8.16964C9.65804 8.26674 10.1277 8.21817 10.5812 8.15344C10.7918 8.13725 11.0185 8.10488 11.1319 7.94305C11.2614 7.78122 11.229 7.52229 11.3424 7.34428C11.5043 7.06916 11.974 6.98824 11.9902 6.64839C12.0064 6.43801 11.7635 6.2762 11.553 6.22765C11.3262 6.19529 11.0833 6.22764 10.8727 6.13054C10.6622 6.04962 10.5164 5.85545 10.3383 5.7098C9.72283 5.24049 8.86441 5.38612 8.11939 5.54795C7.22861 5.74215 6.30541 5.93635 5.57659 6.50276C5.36604 6.66459 5.15554 6.87497 4.89641 6.98826C4.70205 7.08536 4.47531 7.11773 4.24857 7.11773C3.56833 7.1501 2.87189 6.97208 2.28883 6.63223C2.07829 6.50277 1.88397 6.3571 1.67342 6.24381C1.80299 6.11435 1.93795 5.99031 2.07832 5.87163C2.32126 5.67743 2.59654 5.46704 2.67752 5.17575C2.72611 5.0301 2.70996 4.88444 2.72616 4.73879C2.75855 4.54459 2.8233 4.36659 2.93667 4.20476C3.06624 4.02674 3.22823 3.88108 3.374 3.70306C3.50357 3.52505 3.60074 3.28231 3.53596 3.07193C3.43878 2.78063 3.0986 2.65116 2.98523 2.37605C2.93664 2.24658 2.93666 2.11711 2.92046 2.00383C2.93126 1.97146 2.93667 1.9391 2.93667 1.90673C3.42255 1.5507 3.95701 1.25941 4.54006 1.06521C4.83159 0.968113 5.13933 0.887197 5.44705 0.90338C5.93293 0.919564 6.37024 1.14612 6.83993 1.27558C7.3582 1.42123 7.90884 1.45361 8.44331 1.3727C8.54049 1.48598 8.65386 1.59926 8.76723 1.71254C9.2855 2.21422 9.81997 2.73208 10.4678 3.07193C10.9375 3.31468 11.4558 3.46033 11.8607 3.80018C12.055 3.96201 12.2008 4.17239 12.4275 4.28567C12.9296 4.56079 13.5289 4.31803 14.0634 4.14002C14.8893 3.8649 15.7801 3.80016 16.6385 3.94581C17.7074 4.12382 18.8087 4.59314 19.8291 4.26947C20.2502 4.12382 20.6227 3.8649 20.979 3.58979C21.4487 3.24994 21.9184 2.82917 22.3881 2.48932C23.5056 1.69634 24.8822 1.38888 26.2265 1.21086C28.1592 0.951934 30.1027 0.752329 32.057 0.612075C32.5915 0.563525 33.207 0.579717 33.5309 0.984296C33.6929 1.19468 33.7577 1.4698 33.9034 1.69636C34.4703 2.48934 35.8469 1.95528 36.6243 2.53788C37.0454 2.84536 37.2398 3.46031 37.7419 3.62214C38.1629 3.76779 38.6327 3.52505 39.07 3.54123C39.734 3.54123 40.2684 4.09146 40.8839 4.35039C41.6937 4.65787 42.6331 4.46368 43.4429 4.80353C43.7992 4.94917 44.1069 5.22429 44.4794 5.35376C45.9856 5.87162 47.589 4.04292 49.079 4.60933C49.4192 4.7388 49.7269 4.99772 50.0832 5.06245C50.3748 5.12719 50.6663 5.06245 50.9578 4.98154C52.6908 4.57696 54.4723 4.1562 55.9138 3.10429C56.4429 3.34164 56.9773 3.57361 57.5172 3.80018C58.0516 4.02674 58.6833 4.26949 59.1853 3.96201C59.3959 3.84873 59.5579 3.65451 59.7684 3.54123C60.2867 3.2823 60.886 3.62216 61.3395 3.96201C61.7174 4.23173 62.0898 4.50684 62.457 4.78735C62.4678 4.78735 62.4732 4.78735 62.4732 4.78735C62.6351 4.90602 62.7971 5.02469 62.959 5.14337C63.1372 5.28902 63.3153 5.41849 63.4125 5.61268C63.5583 5.8878 63.5583 6.21148 63.5583 6.51896C63.5744 7.4414 63.7688 8.36383 64.1251 9.22154C64.2061 9.39956 64.3033 9.59375 64.4652 9.7394C64.6272 9.88505 64.854 9.9498 65.0483 10.0793C65.6962 10.5162 65.6314 11.5034 65.356 12.2316C65.3344 12.2963 65.3129 12.3665 65.2913 12.442C65.2805 12.442 65.275 12.442 65.275 12.442C65.0159 13.1055 64.692 13.8014 64.8539 14.4972C65.0321 15.2093 65.7123 15.7434 65.8257 16.4716C65.9553 17.3941 65.1455 18.2841 65.4208 19.1742C65.5504 19.6273 65.9553 19.951 66.3116 20.2747C66.6355 20.5822 66.9109 20.922 67.17 21.278Z" fill="#77B341" fill-opacity="0.8" stroke="#BABABA" stroke-width="1.18548" stroke-linecap="round" stroke-linejoin="round"/>
</svg>
