<svg width="57" height="54" viewBox="0 0 57 54" fill="none" xmlns="http://www.w3.org/2000/svg">
<path d="M56.1897 7.06605C56.1249 7.22788 55.9629 7.37353 55.801 7.47063C55.6228 7.6001 55.4284 7.681 55.2665 7.82665C55.0073 8.03703 54.8292 8.36072 54.7968 8.70057C54.7644 9.04042 54.8777 9.38025 55.0883 9.65536C55.2664 9.88193 55.5256 10.06 55.639 10.3189C55.6876 10.4322 55.72 10.5616 55.72 10.6911C55.7362 10.8529 55.7362 10.9986 55.6876 11.1442C55.5256 11.8239 54.732 12.1476 54.4405 12.7949C54.2299 13.2804 54.3757 13.8792 54.6834 14.2999C54.8777 14.5427 55.1045 14.7531 55.3637 14.9149V51.3433H51.7196V52.6379L24.073 38.0245C23.1876 38.4021 22.3022 38.7797 21.4168 39.1573C21.1253 39.2868 20.8176 39.4163 20.5423 39.5781C20.3803 39.6752 20.2292 39.7831 20.0888 39.9018C19.943 40.0312 19.7972 40.1931 19.6353 40.3225C19.3437 40.5653 19.0036 40.7109 18.6635 40.8728C18.372 41.0022 18.0805 41.1317 17.7727 41.2288C17.3192 41.3744 16.8172 41.245 16.4933 40.9051C16.3151 40.7271 16.1369 40.5167 16.0559 40.3225C15.9588 40.096 15.894 39.8208 15.7159 39.6428C15.5215 39.4486 15.23 39.4001 14.9546 39.3515C13.5618 39.0818 12.169 38.8175 10.7761 38.5586C10.436 38.4938 10.0959 38.4129 9.78814 38.2511C9.74495 38.2295 9.70713 38.2079 9.67474 38.1863C8.57341 37.4581 8.52485 35.6294 7.35874 34.9497C6.19263 34.27 4.49205 35.0954 3.4717 34.2215C2.61331 33.477 2.88866 32.1015 2.43517 31.0657C2.14364 30.4346 1.59297 29.9653 1.20426 29.3989C0.815557 28.8324 0.604994 28.0233 1.02609 27.4892C1.44719 26.939 2.38657 26.7934 2.49994 26.1137C2.62951 25.4016 1.6577 24.9323 1.56053 24.2041C1.41476 23.1845 3.00199 22.4725 2.71046 21.4853C2.51611 20.8218 1.51197 20.4981 1.59295 19.8022C1.64154 19.3653 2.12745 19.1064 2.27321 18.7018C2.37039 18.4752 2.35416 18.2001 2.32177 17.9573C2.1922 16.7598 2.04644 15.4975 1.26903 14.5751C1.00989 14.2676 0.685958 13.9763 0.604978 13.5879C0.523998 13.07 0.88031 12.6816 1.3338 12.3741C1.56054 12.2123 1.80353 12.0667 2.03027 11.9372C2.85627 11.4517 3.61748 10.5778 3.40693 9.6392C3.30976 9.23462 3.0506 8.89478 2.90484 8.50638C2.74288 8.11798 2.7429 7.6163 3.08301 7.37356C3.30976 7.19554 3.63361 7.21172 3.90895 7.08225C4.39482 6.87187 4.57298 6.27308 4.96169 5.90087C5.56094 5.30209 6.5651 5.35064 7.24534 4.84896C7.86078 4.37965 8.07135 3.52194 8.07135 2.74515C8.08754 2.0169 7.95801 1.30483 8.02279 0.592773C8.24954 0.641323 8.47623 0.673689 8.70298 0.754605C9.51278 1.02972 10.0473 1.83889 10.8247 2.17873C11.5211 2.47003 12.3147 2.37293 13.0597 2.25965C13.2378 2.24347 13.416 2.21109 13.578 2.13018C13.7076 2.06544 13.8048 1.98452 13.9343 1.91979C14.1125 1.83887 14.323 1.82271 14.5173 1.82271C15.1004 1.79035 15.7159 1.77414 16.2018 2.08162C16.4285 2.22727 16.639 2.42148 16.8982 2.5024C17.0925 2.56713 17.3192 2.53477 17.5298 2.55096C18.129 2.63187 18.5987 3.14972 19.1656 3.34392C19.7487 3.5543 20.4289 3.42484 20.9796 3.71614C21.5464 4.00744 21.8217 4.65476 22.0485 5.25354C22.1942 5.65812 22.3562 6.06269 22.3562 6.49964C22.3724 6.88804 22.2914 7.35737 22.583 7.6163C22.7611 7.77814 23.1013 7.93994 22.9231 8.15032C23.3442 8.53871 23.992 8.53872 24.5751 8.44162C25.1581 8.36071 25.7736 8.23124 26.3243 8.44162C26.5348 8.53872 26.7129 8.6682 26.9235 8.73293C27.1016 8.78148 27.296 8.78149 27.4903 8.78149C28.2515 8.78149 29.0451 8.7491 29.7578 9.00803C30.5838 9.29933 31.2154 9.94666 31.9604 10.3836C32.6407 10.7882 33.4181 11.0148 34.0174 11.5326C34.1307 11.6297 34.2279 11.743 34.3736 11.7915C34.4708 11.8239 34.568 11.8239 34.6652 11.8239C34.9459 11.8239 35.232 11.8239 35.5236 11.8239C35.6693 11.8239 35.8313 11.8077 35.9447 11.7106C36.0095 11.6459 36.0419 11.565 36.1066 11.5164C36.1876 11.4517 36.2847 11.4355 36.3819 11.4032C36.6411 11.3061 36.8678 11.0957 36.9812 10.8367C37.2079 10.5454 37.4347 10.2488 37.6615 9.94667C37.8882 9.67155 38.1149 9.36407 38.1149 9.00803C38.1149 8.50636 37.6452 8.11796 37.4671 7.63246C37.3537 7.34117 37.3699 7.01749 37.3861 6.69383C37.4023 6.41872 37.4347 6.1436 37.4995 5.88467C37.6777 5.10788 38.1473 4.4282 38.6494 3.79705C38.8599 3.52194 39.0705 3.24681 39.362 3.05261C40.0261 2.59948 40.933 2.64804 41.678 2.29201C41.921 2.17873 42.1639 2.01691 42.4231 1.90363C42.6498 1.80653 42.8927 1.75799 43.1357 1.70944C43.4758 1.6447 43.7997 1.57997 44.1399 1.54761C44.9497 1.48287 45.7594 1.61233 46.553 1.7418C46.9094 1.79574 47.2657 1.85505 47.622 1.91979C48.2213 2.14635 48.95 2.40529 49.2092 3.02025C49.2578 3.1659 49.2902 3.32774 49.3711 3.47339C49.5655 3.81324 49.9866 3.91032 50.3753 4.0236C50.71 4.10991 51.0447 4.2178 51.3794 4.34727C51.5738 4.412 51.7681 4.49293 51.9463 4.60621C52.092 4.7195 52.2379 4.84895 52.3998 4.96224C52.9019 5.33445 53.5497 5.43156 54.1327 5.65812C54.8616 5.90087 55.5094 6.33783 56.0277 6.88806C56.0817 6.95279 56.1357 7.01211 56.1897 7.06605Z" fill="#F1F1F1" stroke="#BABABA" stroke-width="1.18548" stroke-linecap="round" stroke-linejoin="round"/>
</svg>
