<svg width="35" height="22" viewBox="0 0 35 22" fill="none" xmlns="http://www.w3.org/2000/svg">
<path d="M33.503 15.6755C33.0495 16.0639 32.3369 15.9021 31.8024 16.161C31.4623 16.3228 31.2194 16.6465 30.9926 16.9378C30.8145 17.1967 30.62 17.4557 30.5229 17.747C30.4743 17.9412 30.4581 18.1353 30.4419 18.3457C30.4095 18.7989 30.3772 19.252 30.4905 19.7051C30.5553 19.9641 30.6848 20.223 30.6848 20.4981C30.6848 20.5305 30.6848 20.5628 30.6848 20.5952C29.1624 20.8379 27.7372 19.786 26.2634 19.3167C24.3198 18.7018 22.101 19.1225 20.53 20.401C20.3194 20.5628 20.1251 20.757 19.8822 20.8541C19.3639 21.0483 18.797 20.8218 18.2463 20.7085C17.2422 20.4981 16.1895 20.6599 15.1691 20.7085C13.7439 20.7894 12.3024 20.6276 10.8934 20.4819C10.5695 20.4496 10.2455 20.4172 9.95396 20.2715C9.30612 19.9479 9.04702 19.252 8.93365 18.4914C8.88506 18.1353 8.86885 17.7793 8.83646 17.4395C8.82026 17.132 8.78787 16.8083 8.59352 16.5818C8.38297 16.3552 7.96189 16.3066 7.79993 16.5494C7.71895 16.695 7.71896 16.8731 7.5732 16.9702C7.47602 17.0349 7.34643 17.0187 7.21686 16.9863C6.49344 16.8353 5.77003 16.6843 5.04661 16.5332C4.83606 16.4847 4.60932 16.4361 4.47975 16.2743C4.15583 15.8697 4.64173 15.3033 4.57694 14.8016C4.46357 13.9924 3.16788 14.041 2.69819 13.3775C2.56862 13.1671 2.52007 12.892 2.4067 12.6654C2.17995 12.2285 1.69402 11.9696 1.3863 11.5812C1.01379 11.128 0.851848 10.4807 0.592712 9.96284C1.47809 9.8118 2.34729 9.60142 3.20028 9.3317C3.44322 9.25078 3.70233 9.15367 3.89668 8.97565C4.04244 8.83001 4.13963 8.61964 4.23681 8.42544C4.73889 7.34117 5.11141 6.20833 5.71066 5.1726C6.30991 4.13688 7.15209 3.18208 8.28581 2.79368C8.7069 2.64803 9.27378 2.45383 9.27378 2.0007C9.27378 1.88742 9.22516 1.75796 9.16038 1.66086C10.6504 1.59613 12.2215 2.04926 13.7439 2.03308C14.3593 2.0169 15.0395 1.95216 15.5416 2.30819C15.7845 2.4862 15.9627 2.76132 16.2056 2.95552C16.4324 3.1659 16.7725 3.31155 17.0641 3.18208C17.2908 3.0688 17.4041 2.79369 17.5823 2.61567C18.1006 2.03308 19.04 2.22728 19.8174 2.13018C21.0159 1.96834 21.9552 0.997357 23.1214 0.738426C23.3805 0.673693 23.6396 0.641323 23.8987 0.592773C24.0121 1.0459 24.1902 1.49902 24.3684 1.93597C24.5466 2.37291 24.7247 2.80986 24.9677 3.21444C25.8585 4.62238 27.5753 5.4639 28.1583 7.03367C28.7738 8.73291 27.7858 10.6102 27.883 12.4227C27.8992 12.7625 27.9477 13.1024 28.1259 13.3937C28.2231 13.5771 28.3526 13.7281 28.5146 13.8468C28.9033 14.1543 29.4054 14.3323 29.8912 14.4456C30.037 14.4779 30.1666 14.4941 30.3124 14.4779C30.5229 14.4456 30.6848 14.2999 30.863 14.1705C31.689 13.5717 32.8551 13.5231 33.7621 13.9763C33.7837 14.0518 33.7999 14.1273 33.8107 14.2028C33.9079 14.7207 33.9079 15.3195 33.503 15.6755Z" fill="#F1F1F1" stroke="#BABABA" stroke-width="1.18548" stroke-linecap="round" stroke-linejoin="round"/>
</svg>
