<svg width="54" height="42" viewBox="0 0 54 42" fill="none" xmlns="http://www.w3.org/2000/svg">
<path d="M52.965 26.2163C52.4305 26.7341 51.637 27.4624 50.8272 28.0773C50.6004 28.2553 50.568 28.6113 50.3574 28.8217C50.1955 28.9836 49.9688 29.0645 49.7744 29.1939C49.2724 29.5014 48.9484 30.0355 48.5273 30.4724C48.0414 30.9903 47.426 31.3787 46.8592 31.8156C45.4987 32.8675 44.3488 34.2107 43.5228 35.7158C43.4256 35.8938 43.3122 36.1042 43.1179 36.2175C42.9559 36.2984 42.7616 36.2984 42.5672 36.3146C41.034 36.3146 39.5007 36.32 37.9675 36.3307C37.8217 36.3307 37.6922 36.3307 37.5788 36.3955C37.4654 36.4602 37.3844 36.5735 37.3197 36.6706C36.9795 37.1399 36.5585 37.5445 36.0888 37.8843C35.7163 38.1271 35.3114 38.3536 34.8741 38.4507C34.6798 38.4993 34.4692 38.5478 34.2586 38.5316C34.0319 38.5155 33.8213 38.4345 33.5946 38.4184C33.5136 38.4184 33.4326 38.4184 33.3679 38.4507C33.2545 38.4993 33.1735 38.6126 33.0764 38.6935C32.9576 38.7798 32.8442 38.8607 32.7362 38.9362C32.4771 39.0981 32.218 39.2275 31.9264 39.3408C31.7753 39.3947 31.6133 39.4379 31.4405 39.4703C31.0357 39.5674 30.5983 39.5836 30.1934 39.5188C30.1502 39.508 30.1125 39.5026 30.0801 39.5026C29.9505 39.4703 29.8209 39.4379 29.7075 39.357C29.5942 39.2923 29.5132 39.1628 29.4323 39.0495C29.1407 38.6288 28.7358 38.1756 28.2176 38.2242C27.8289 38.2727 27.5373 38.5802 27.2134 38.7906C26.5817 39.1952 25.7234 39.2275 25.2375 39.7939C24.8974 40.1823 24.8002 40.7811 24.3467 41.0562C24.0876 41.2181 23.7636 41.2342 23.4721 41.2181C22.1116 41.2019 20.7674 41.0401 19.4393 40.8944C19.1316 40.862 18.8238 40.8297 18.5323 40.7164C18.1922 40.5869 17.9007 40.3604 17.6092 40.1338C16.9074 39.5944 16.2001 39.0495 15.4875 38.4993C15.1474 38.2403 14.8073 37.9814 14.4185 37.8358C13.6897 37.5769 12.8962 37.7225 12.1188 37.7063C11.5195 37.7063 10.9041 37.593 10.3372 37.3665C10.3372 36.8971 10.402 36.4278 10.5477 35.9909C10.6125 35.7158 10.7097 35.4407 10.6611 35.1817C10.6125 34.8581 10.3534 34.6153 10.0618 34.4697C9.78651 34.324 9.46259 34.2593 9.17106 34.146C8.65279 33.9842 8.16688 33.6929 7.92394 33.2236C7.681 32.7866 7.72962 32.2526 7.63244 31.7509C7.43809 30.8123 6.75789 30.0355 6.04527 29.3881C5.31645 28.757 4.50662 28.1906 3.90737 27.43C3.64823 27.1063 3.40529 26.7341 3.01659 26.5399C2.41733 26.2324 1.62375 26.5237 1.0083 26.2163C0.813947 26.1192 0.635791 25.9573 0.603399 25.7469C0.571007 25.6013 0.619563 25.4556 0.651955 25.31C0.765327 24.8892 0.894895 24.4685 1.13784 24.1124C1.33219 23.8373 1.60752 23.6108 1.78567 23.3356C1.88285 23.19 2.09343 23.1576 2.223 23.2871L2.38496 23.4813C2.74127 23.7888 3.32431 23.9506 3.74541 23.6593C4.1665 23.368 4.37702 22.8663 4.52278 22.3808C4.89529 21.1671 5.04105 19.8886 4.92768 18.6263C4.8629 18.0114 4.74959 17.3802 4.83057 16.7652C4.91155 16.1341 5.25162 15.503 5.83467 15.2764C5.7375 15.7457 6.36914 16.1179 6.80643 15.9237C7.24372 15.7457 7.45426 15.2279 7.51904 14.7585C7.56763 14.2892 7.50284 13.7876 7.60002 13.3183C7.82676 12.2502 8.81472 11.5219 9.3006 10.5347C9.54354 10.0492 9.65694 9.53138 9.89988 9.06207C10.1428 8.59276 10.5801 8.15582 11.0984 8.13964C11.3575 8.12346 11.6329 8.20436 11.8434 8.04252C11.9568 7.94542 12.0053 7.79979 12.0539 7.65414C12.475 6.21384 12.7503 4.72496 12.8637 3.21992C12.8745 3.02573 12.8853 2.82614 12.8961 2.62115C13.6628 2.50248 14.4294 2.38381 15.196 2.26513C15.5037 2.21658 15.8276 2.16802 16.0868 2.32985C16.4755 2.5726 16.5888 3.17137 17.0261 3.25228C17.3824 3.30083 17.674 2.91245 17.7064 2.54024C17.7388 2.18421 17.6092 1.81199 17.6092 1.43977C17.6092 1.08374 17.7873 0.646805 18.1598 0.598255C18.6295 0.533522 18.921 1.08377 19.2611 1.42361C19.7956 1.97384 20.654 2.00618 21.4152 2.00618C22.2358 2.00618 23.0511 2.00618 23.8609 2.00618C25.0594 2.00618 26.3226 2.02238 27.2944 2.70207C28.007 3.20375 28.4767 3.98055 29.1407 4.53078C29.5618 4.87063 30.0477 5.11336 30.4526 5.48557C30.8899 5.90633 31.1814 6.4404 31.5215 6.9259C32.1046 7.71888 32.8334 8.39856 33.5622 9.06207C33.6756 9.15917 33.789 9.25626 33.9024 9.33718C33.8916 9.40191 33.8753 9.46127 33.8537 9.51521C33.7566 9.79032 33.5785 10.033 33.4165 10.2596C33.1736 10.5995 32.9306 10.9231 32.6067 11.182C32.4609 11.2953 32.2989 11.4086 32.1532 11.5219C31.6835 11.9103 31.4244 12.5415 31.473 13.1402C31.5216 13.7552 31.8616 14.3216 32.3799 14.6453C32.4771 14.71 32.5904 14.7747 32.7038 14.7909C32.8334 14.8233 32.9792 14.8233 33.1249 14.8233C33.5946 14.7747 34.0643 14.6291 34.4692 14.354C34.7284 14.176 34.9713 13.9494 35.279 13.8361C35.603 13.6905 35.943 13.6743 36.2993 13.6743C36.2508 13.9008 36.267 14.1436 36.1698 14.354C36.0402 14.5967 35.7811 14.7262 35.5705 14.9042C35.1332 15.2764 34.9065 15.8914 35.0199 16.4578C35.1656 17.1698 35.7811 17.6877 36.2508 18.2703C36.8986 19.0956 37.2873 20.1152 38.0485 20.8434C38.7611 21.5231 39.7005 21.863 40.6075 22.2028C42.0004 22.6883 43.377 23.19 44.786 23.5784C45.1909 23.6917 45.5959 23.7888 45.9684 23.9506C46.4543 24.1772 46.9077 24.5332 47.4422 24.5979C47.7985 24.6303 48.2034 24.5494 48.4949 24.7436C48.6731 24.8569 48.7865 25.0834 48.9646 25.2129C49.2076 25.4233 49.5639 25.4395 49.8878 25.4557L52.7059 25.5204C53.046 25.5366 53.2241 25.9573 52.965 26.2163Z" fill="#F1F1F1" stroke="#BABABA" stroke-width="1.18548" stroke-linecap="round" stroke-linejoin="round"/>
</svg>
