<svg width="13" height="41" viewBox="0 0 13 41" fill="none" xmlns="http://www.w3.org/2000/svg">
<path d="M11.4534 26.9583C11.34 26.1815 10.4816 25.8578 10.0443 25.2429C9.60704 24.6117 9.67186 23.7217 9.26696 23.0582C9.16978 22.8801 9.04023 22.7183 8.95925 22.5403C8.81349 22.2328 8.82965 21.893 8.68389 21.6017C8.6353 21.4884 8.55429 21.3913 8.4895 21.2942C8.45711 21.2403 8.43012 21.1917 8.40852 21.1485C8.31135 20.9382 8.29515 20.6954 8.24656 20.4688C8.14939 19.9024 7.90646 19.3846 7.77689 18.8505C7.50156 17.7662 7.64737 16.6011 7.17769 15.5815C6.85377 15.3711 6.85372 14.9504 6.88612 14.5944C6.90231 14.2707 6.88613 13.8985 6.65939 13.6719C6.57841 13.591 6.44881 13.5263 6.38402 13.413C6.28685 13.2835 6.28685 13.1055 6.22206 12.976C6.15728 12.8628 6.06012 12.7818 5.99534 12.6847C5.76859 12.3934 5.81716 11.9727 5.89814 11.6166C5.93054 11.5034 5.96296 11.4063 6.01155 11.293C6.06014 11.2121 6.12492 11.115 6.17351 11.0341C6.30307 10.856 6.38404 10.6618 6.48122 10.4676C6.61078 10.2087 6.74037 9.94978 6.82135 9.65848C6.88613 9.33482 6.88612 9.01115 6.88612 8.68749C6.87532 8.43935 6.8699 8.1966 6.8699 7.95924C6.8699 7.78123 6.85374 7.58702 6.74037 7.44137C6.72417 7.06916 6.65936 6.69695 6.465 6.37328C6.38402 6.22763 6.27068 6.09817 6.17351 5.95252C5.96296 5.67741 5.78479 5.38611 5.59044 5.09481C5.49326 4.93298 5.39607 4.77115 5.33128 4.59313C5.16932 4.10764 5.36369 3.57359 5.42848 3.07191C5.46087 2.8885 5.47711 2.7105 5.47711 2.53787C5.46091 2.21421 5.41231 1.89055 5.21796 1.63162C5.10459 1.50215 4.97497 1.40504 4.8454 1.29176C4.73203 1.17847 4.65107 1.03284 4.5377 0.919556C4.24617 0.612075 3.74408 0.482602 3.38776 0.709166C3.17722 0.822449 3.04766 1.04902 2.9181 1.24322C2.85331 1.3565 2.78854 1.4536 2.77235 1.58306C2.72376 1.84199 2.90188 2.06856 2.98286 2.31131C3.01526 2.44077 3.0477 2.57025 3.11248 2.68353C3.20966 2.82918 3.3716 2.8939 3.50117 2.97481C3.64693 3.07191 3.79268 3.1852 3.80888 3.36321C3.82507 3.54123 3.66314 3.68687 3.51738 3.80015C3.37162 3.91343 3.20964 4.02673 3.17725 4.22093C3.14486 4.31803 3.17726 4.41511 3.19346 4.5284C3.19346 4.62549 3.16102 4.75498 3.06384 4.78734C2.95047 4.85208 2.80474 4.75496 2.69137 4.69023C2.41604 4.5284 2.04351 4.54458 1.78438 4.75496C1.44426 4.78733 1.26615 5.15954 1.18517 5.48321C1.10959 5.73135 1.0556 5.9849 1.02321 6.24383C0.974625 6.48658 0.958381 6.76168 1.13654 6.95587C1.21752 7.05297 1.3471 7.10154 1.39569 7.231C1.44428 7.3281 1.4281 7.44139 1.4119 7.53849C1.37951 7.84597 1.37952 8.16962 1.42811 8.4771C1.41192 8.63893 1.37948 8.8655 1.37948 8.8655C1.33089 9.30245 1.0232 9.65848 0.845041 10.0469C0.440141 10.9208 0.602117 11.9403 0.780273 12.8789C0.812665 12.9922 0.828798 13.1055 0.877385 13.2026C0.990757 13.3968 1.20131 13.5263 1.20131 13.769C1.55762 13.8337 1.78439 14.1412 1.96255 14.4487C2.20549 14.8209 2.46466 15.2093 2.48085 15.6463C2.49705 15.8243 2.48082 16.0023 2.44843 16.1803C2.41604 16.4284 2.38363 16.6712 2.35124 16.9085C2.31884 17.1837 2.27024 17.475 2.09208 17.6853C1.96252 17.8472 1.76818 17.9443 1.62242 18.1061C1.31469 18.4136 1.28235 18.9314 1.50909 19.3037C1.4767 19.6597 1.62243 20.0157 1.88157 20.2585C1.99494 20.3556 2.12449 20.4365 2.18928 20.5821C2.25406 20.6792 2.25406 20.8087 2.27026 20.9382C2.30265 21.5855 2.32964 22.2274 2.35124 22.864C2.36743 23.1714 2.38363 23.4789 2.27026 23.7702C2.17308 24.0291 1.99492 24.2395 1.86536 24.4823C1.59003 25.1134 1.83301 25.9226 1.50909 26.5375C1.21756 26.8288 1.12036 27.282 1.15275 27.6866C1.18514 28.0911 1.33087 28.4795 1.52523 28.8517C1.60621 29.0298 1.71961 29.2078 1.88157 29.3372C1.94635 29.402 2.0435 29.4505 2.09208 29.5314C2.14067 29.6285 2.14072 29.7256 2.14072 29.8227C2.14072 30.114 2.14072 30.4107 2.14072 30.7128C2.14072 30.907 2.12451 31.1012 2.04353 31.263C1.96255 31.4087 1.833 31.5058 1.73582 31.6352C1.63864 31.7485 1.55768 31.8942 1.59007 32.0398C1.37952 32.2988 1.21753 32.6062 1.15275 32.9299C1.08797 33.2374 1.13655 33.5772 1.31471 33.8362C1.37949 33.9333 1.47665 34.0142 1.54144 34.1275C1.7034 34.3864 1.68725 34.7101 1.59007 35.0175C1.50909 35.3088 1.36327 35.584 1.28229 35.8753C1.10413 36.5064 1.24993 37.1861 1.15275 37.8334C1.10416 38.2218 0.958429 38.594 0.942233 38.9662C0.926037 39.3546 1.0718 39.7754 1.42811 39.9372C1.52529 39.9858 1.65481 40.0182 1.78438 39.9858C2.02732 39.9211 2.18932 39.6621 2.31889 39.4356C2.61042 38.8745 2.90735 38.3135 3.20967 37.7525C3.40402 37.3803 3.61452 36.9919 3.97084 36.7653C4.26236 36.5873 4.61866 36.5388 4.92638 36.652C5.2827 36.7815 5.52568 37.0728 5.70384 37.3965C5.88199 37.7201 5.99534 38.06 6.1573 38.3836C6.27067 38.5778 6.49744 38.853 6.6756 39.0633C6.82136 39.2252 7.09669 39.1766 7.16148 38.9824C7.33963 38.5131 7.61493 37.7525 7.69591 37.2994C7.7445 36.9919 7.77689 36.6682 7.61493 36.4255C7.29101 35.94 6.41642 36.0209 6.14108 35.503C5.96293 35.1308 6.17349 34.6453 5.99534 34.2731C5.91436 34.1113 5.75241 33.998 5.60665 33.8847C5.18555 33.5287 4.79685 33.1079 4.47293 32.6548C4.24618 32.3473 4.05182 32.0237 3.97084 31.6514C3.82507 30.9556 4.08426 30.2435 4.26241 29.5638C4.7321 28.5281 5.08838 27.46 5.36371 26.3595C5.50947 25.7769 5.72005 25.0811 6.28691 24.903C6.44887 24.8545 6.61083 24.8545 6.77279 24.8545C7.33965 24.8545 7.93889 24.8545 8.45716 25.1134C9.31555 25.5504 9.67181 26.5699 10.352 27.2496C10.595 27.5085 11.0161 27.7351 11.3077 27.46C11.4372 27.3305 11.4696 27.1363 11.4534 26.9583Z" fill="#F1F1F1" stroke="#BABABA" stroke-width="1.18548" stroke-linecap="round" stroke-linejoin="round"/>
</svg>
