<svg width="12" height="7" viewBox="0 0 12 7" fill="none" xmlns="http://www.w3.org/2000/svg">
<path d="M11.2011 4.89752C11.1795 5.14566 11.1418 5.38841 11.0878 5.62576C10.6991 5.56103 10.3103 5.52866 9.90541 5.54485C8.49636 5.62576 7.08732 6.4511 5.71066 6.0627C5.37055 5.9656 5.04666 5.78759 4.69035 5.80377C4.28545 5.81996 3.91291 6.0627 3.5242 6.07888C3.03832 6.09506 2.61724 5.78759 2.24474 5.49629C1.94241 5.25893 1.64007 5.02697 1.33774 4.8004C1.06241 4.59002 0.770868 4.34728 0.592712 4.05598C0.608908 3.89415 0.689873 3.74851 0.81944 3.68378C0.90042 3.23065 1.2244 2.90697 1.53213 2.59949C1.71028 2.40529 1.90462 2.22729 2.16376 2.16255C2.48768 2.09782 2.8116 2.29201 3.13551 2.37292C3.28128 2.42147 3.41085 2.42149 3.54041 2.48622C3.70237 2.56713 3.83191 2.72896 3.99387 2.82606C4.18822 2.95553 4.43119 2.98789 4.67413 3.00407C4.94947 3.00407 5.25721 2.98789 5.50015 2.84224C5.74309 2.68041 5.90503 2.37293 5.80785 2.114C5.66209 1.69323 5.04663 1.6285 4.81988 1.2401C4.70651 1.0459 4.72269 0.819338 4.80367 0.592773C4.93324 0.673689 5.04664 0.754605 5.16001 0.835521C5.46774 1.07827 5.79163 1.3534 6.18033 1.41813C6.37468 1.4505 6.58526 1.41813 6.77961 1.41813C7.13593 1.41813 7.50843 1.49903 7.83235 1.64468C7.88094 1.66086 7.94571 1.69323 7.9781 1.7256C8.04288 1.79033 8.07525 1.87125 8.10764 1.93599C8.30199 2.25965 8.73931 2.34057 9.11182 2.32439C9.48433 2.29202 9.87302 2.2111 10.2293 2.35675C10.5371 2.47003 10.78 2.74515 10.9258 3.05263C11.2173 3.61904 11.2659 4.26637 11.2011 4.89752Z" fill="#F1F1F1" stroke="#BABABA" stroke-width="1.18548" stroke-linecap="round" stroke-linejoin="round"/>
</svg>
