<svg width="13" height="12" viewBox="0 0 13 12" fill="none" xmlns="http://www.w3.org/2000/svg">
<path d="M11.4764 9.94667C11.3793 10.0222 11.2875 10.0923 11.2011 10.157C10.8448 10.4159 10.4561 10.6587 10.0188 10.6587C9.63009 10.6587 9.25763 10.4645 8.93371 10.2541C8.19949 9.801 7.50308 9.30473 6.84444 8.76529C6.50433 8.50635 6.16418 8.21506 5.75928 8.11796C5.30579 8.02086 4.83612 8.18267 4.39883 8.29595C4.06411 8.38226 3.73478 8.45239 3.41086 8.50634C3.43245 8.43082 3.45403 8.36068 3.47563 8.29595C3.75096 7.56771 3.81576 6.58056 3.16792 6.14362C2.97357 6.01415 2.74681 5.9494 2.58485 5.80375C2.42289 5.6581 2.3257 5.46391 2.24472 5.2859C1.88841 4.42819 1.69405 3.50576 1.67786 2.58331C1.67786 2.27583 1.67787 1.95215 1.53211 1.67704C1.43493 1.48284 1.25681 1.35337 1.07865 1.20772C0.916693 1.08905 0.754733 0.970377 0.592773 0.851701C2.06661 0.754601 3.55664 0.754601 5.04667 0.851701C5.50016 0.867884 6.067 0.851705 6.40712 0.592773C6.55288 0.786972 6.69861 0.981158 6.86057 1.12681C7.33026 1.54757 8.05908 1.69324 8.31821 2.25965C8.49637 2.64805 8.39921 3.11735 8.57737 3.50575C8.67454 3.71613 8.85273 3.89415 8.93371 4.12072C9.09567 4.54148 8.90129 5.01076 8.98227 5.46389C9.16042 6.43488 10.4885 6.67763 11.0554 7.48679C11.4279 8.02084 11.4117 8.7329 11.4441 9.39641C11.4441 9.57982 11.4548 9.76326 11.4764 9.94667Z" fill="#F1F1F1" stroke="#BABABA" stroke-width="1.18548" stroke-linecap="round" stroke-linejoin="round"/>
</svg>
