<svg width="34" height="51" viewBox="0 0 34 51" fill="none" xmlns="http://www.w3.org/2000/svg">
<path d="M32.376 34.4594C32.2465 34.427 32.1223 34.3839 32.0035 34.3299C31.3557 34.0386 30.7888 33.4237 30.0924 33.5046C29.7361 33.537 29.4283 33.7635 29.1206 33.9739C27.2419 35.2524 25.0716 36.1101 22.8204 36.4661C22.5613 36.5147 22.2698 36.5632 22.124 36.7898C21.9458 37.0973 22.1887 37.4857 22.4803 37.6961C22.7718 37.9064 23.1281 38.0359 23.3225 38.3434C23.6626 38.8451 23.371 39.5571 23.6302 40.1235C23.7436 40.3825 23.9703 40.5605 24.197 40.7547C24.7963 41.2564 25.4118 41.758 26.092 42.1464C26.6427 42.4377 27.2257 42.6805 27.7116 43.0689C28.1813 43.4411 28.5214 43.9589 28.7967 44.5092C28.6779 44.4876 28.5592 44.4768 28.4404 44.4768C28.0679 44.493 27.6954 44.6063 27.3715 44.7843C26.9666 44.9785 26.5779 45.2536 26.254 45.5611C25.93 45.8524 25.5899 46.1599 25.4442 46.5644C25.1526 47.3089 25.347 48.1342 25.347 48.8948C25.3308 48.9757 25.3307 49.0566 25.2983 49.1376C25.185 49.3156 24.9097 49.2994 24.7477 49.1861C24.5695 49.0728 24.44 48.8948 24.2618 48.7977C23.533 48.3931 22.7394 49.5098 21.8972 49.3641C21.3141 49.267 20.7959 48.555 20.2776 48.8301C20.0184 48.9596 19.9213 49.2509 19.7756 49.4774C19.4517 49.9467 18.8038 50.1409 18.2855 49.9467C17.9454 49.8334 17.67 49.5745 17.3623 49.3803C17.0384 49.1861 16.6335 49.089 16.3258 49.2832C16.0828 49.445 15.9856 49.7687 15.7427 49.9467C15.435 50.1895 14.9653 50.0924 14.609 49.9144C14.2527 49.7363 13.945 49.4774 13.5725 49.3479C13.5617 49.3479 13.5562 49.3479 13.5562 49.3479C12.9894 49.1538 12.3578 49.3156 11.8071 49.089C11.548 48.9757 11.3212 48.7654 11.0621 48.6359C10.8029 48.4902 10.479 48.4255 10.2361 48.5873C9.96074 48.7654 9.89597 49.1699 9.60444 49.3156C9.41009 49.4127 9.16715 49.3641 8.9566 49.3156C8.24398 49.1699 7.49895 49.0728 6.75393 49.1538C6.51639 49.1861 6.27886 49.2401 6.04132 49.3156C5.92795 47.5516 6.51101 45.7391 7.66092 44.3959C7.93625 44.0722 8.26022 43.6191 8.03348 43.2631C7.9525 43.1336 7.8067 43.0527 7.67713 42.9879C6.49483 42.4539 4.95619 42.8423 3.93584 42.0493C3.41757 41.6448 3.14222 41.0298 2.86689 40.4148C2.60776 39.7999 2.34865 39.1687 1.84658 38.748C1.45787 38.4243 0.874784 38.0845 1.00435 37.5828C1.03674 37.4048 1.18257 37.2429 1.31214 37.0973C1.83041 36.4014 1.87895 35.3819 1.42546 34.6536C1.16633 34.249 0.777624 33.9254 0.696644 33.4561C0.664252 33.2619 0.696629 33.0515 0.761413 32.8573C0.89098 32.3718 1.18256 31.8863 1.05299 31.4008C0.955812 30.9638 0.534669 30.624 0.599453 30.187C0.648041 29.8634 0.95578 29.6368 1.2635 29.5397C1.58742 29.4588 1.91134 29.4588 2.23526 29.4264C3.46616 29.2484 4.50275 28.0671 4.38938 26.8371C4.37318 26.6106 4.30838 26.384 4.37317 26.1736C4.56752 25.5101 5.6526 25.3321 5.62021 24.6524C5.60401 24.2802 5.23157 24.0374 5.03722 23.7138C4.58373 22.9532 5.21533 22.0469 5.47446 21.2054C5.58783 20.8655 5.63641 20.5095 5.62021 20.1535C5.72818 20.1535 5.83082 20.1535 5.928 20.1535C6.62443 20.1697 7.337 20.1858 7.98484 20.4448C8.24398 20.5581 8.51929 20.6875 8.77843 20.5904C8.908 20.5257 8.98898 20.4124 9.10235 20.3153C9.32909 20.0887 9.62065 19.9107 9.94457 19.8136C10.2037 19.7327 10.4952 19.7003 10.7544 19.6032C10.9973 19.49 11.2403 19.2796 11.2565 18.9883C11.2889 18.6161 10.9001 18.3409 10.56 18.1467C10.2361 17.9526 9.86356 17.6613 9.91215 17.2729C9.94454 17.0463 10.1389 16.8683 10.3333 16.7388C10.56 16.577 10.8192 16.4475 10.9325 16.1886C10.9811 16.0429 10.9811 15.8811 10.9001 15.7678C10.7706 15.5898 10.5762 15.606 10.398 15.5898C9.92834 15.5413 9.5721 15.1852 9.24818 14.8454C9.151 14.7321 9.03763 14.6026 9.00524 14.457C8.97285 14.3113 9.02142 14.1657 9.07 14.02C9.18878 13.6316 9.31291 13.2379 9.44248 12.8387C9.53966 12.5312 9.62067 12.1428 9.39392 11.9162C9.1024 11.6411 8.58411 11.8515 8.24399 11.6249C8.00105 11.4469 7.96863 11.0909 7.96863 10.7834C7.96863 10.3788 7.95248 9.95806 7.93629 9.55348C7.92009 8.11317 8.19539 6.65668 8.79464 5.36203C8.85943 5.18401 8.95663 5.02218 9.07 4.87653C9.21577 4.68233 9.41009 4.5367 9.60444 4.40724C9.89597 4.19146 10.1875 3.98107 10.479 3.77609C10.6572 3.64662 10.8515 3.51714 11.0459 3.58188C11.2564 3.64661 11.3698 3.88937 11.3698 4.09975C11.386 4.32632 11.3212 4.53669 11.3374 4.76326C11.3374 4.97364 11.467 5.21638 11.6776 5.26493C11.7424 5.28112 11.8233 5.26494 11.8881 5.24875C12.1796 5.15165 12.3254 4.81181 12.3578 4.50433C12.3902 4.19685 12.3578 3.88936 12.4387 3.58188C12.4549 3.51714 12.4711 3.4686 12.5197 3.42005C12.5683 3.35531 12.6493 3.33913 12.7141 3.32295C12.8923 3.2744 13.0866 3.20967 13.2 3.0802C13.2972 2.9831 13.3619 2.85364 13.4267 2.74036C13.5887 2.49761 13.8154 2.28723 14.026 2.09303C14.4039 1.74779 14.7871 1.40254 15.1758 1.0573C15.4998 0.766006 15.8885 0.442338 16.3582 0.668903C16.4878 0.733636 16.5849 0.830743 16.6659 0.960208C17.0384 1.47807 16.9736 2.15776 16.8926 2.77272C16.8764 2.93455 16.8603 3.08021 16.7793 3.22586C16.6497 3.48479 16.3905 3.63044 16.2286 3.857C16.018 4.16448 16.0019 4.55288 16.0505 4.92509C16.1315 5.54005 16.4716 6.21975 17.087 6.34922C17.2976 6.39777 17.5405 6.38157 17.7349 6.47867C18.075 6.6405 18.1884 7.09363 18.237 7.46584C18.2531 7.85424 18.2693 8.35592 17.9292 8.58249C17.7672 8.69577 17.5405 8.72814 17.4109 8.87379C17.3138 9.00326 17.2975 9.18126 17.2166 9.32691C17.0222 9.66676 16.5687 9.7315 16.1638 9.78005C15.7427 9.81241 15.2245 9.97425 15.1921 10.4274C15.1759 10.6054 15.2569 10.7834 15.3702 10.929C15.516 11.1071 15.7266 11.2527 15.9695 11.3175C16.3096 11.4145 16.6983 11.3498 17.0384 11.4955C17.5729 11.722 17.751 12.4017 17.8644 12.9843C17.9454 13.3889 17.9778 13.8906 17.6377 14.1172C17.4595 14.2466 17.2004 14.2304 16.9898 14.1981C15.9857 14.0362 15.0787 13.486 14.4795 12.6768C14.4147 12.5959 14.3499 12.4988 14.2365 12.4503C14.0098 12.3694 13.783 12.6283 13.7344 12.8549C13.6696 13.1623 13.7344 13.486 13.9126 13.7449C14.1555 14.0686 14.5604 14.2466 14.7709 14.5864C15.0949 15.1043 14.852 15.8002 14.9978 16.4152C15.014 16.4799 15.0301 16.5608 15.0787 16.6093C15.1597 16.7388 15.3054 16.8036 15.435 16.8683C15.9209 17.0625 16.4553 17.1758 16.9736 17.2081C17.1842 17.2243 17.3947 17.2243 17.5729 17.3214C17.8482 17.4509 17.9778 17.7745 18.156 18.0335C18.7552 18.9721 20.067 19.3767 21.0874 18.9397C21.2817 18.8426 21.4761 18.7293 21.5895 18.5513C21.6705 18.4057 21.7029 18.2277 21.7676 18.0658C21.8486 17.8393 22.0106 17.6451 22.1725 17.4671C22.4803 17.1272 22.8366 16.8035 23.2577 16.6093C23.6788 16.4313 24.197 16.3828 24.6019 16.5932C24.9906 16.7874 25.3632 17.192 25.7681 17.0463C26.0434 16.9654 26.1892 16.6417 26.4159 16.4637C26.6751 16.2533 27.0314 16.221 27.3715 16.2371C27.6144 16.2533 27.8735 16.3019 28.0679 16.4475C28.2622 16.5932 28.408 16.8359 28.3432 17.0787C28.3108 17.2567 28.1812 17.4023 28.0679 17.548C27.9383 17.7745 27.8897 18.0982 28.246 18.1953C28.5862 18.5513 29.0073 18.8426 29.477 18.9721C29.6497 19.0153 29.8224 19.0368 29.9952 19.0368C29.9628 19.6842 29.925 20.3261 29.8819 20.9626C29.8657 21.3834 29.8333 21.8203 30.0276 22.1925C30.0924 22.3058 30.1734 22.4353 30.222 22.5648C30.2544 22.7104 30.2382 22.8723 30.222 23.0179C30.1572 23.5681 30.0924 24.1184 30.0276 24.6686C30.0114 24.8304 29.9952 24.9923 30.0762 25.1379C30.1409 25.2836 30.3029 25.3645 30.4163 25.4777C30.9508 25.9147 30.9832 26.7239 30.9346 27.4035C30.9346 27.5492 30.9184 27.6948 31.0156 27.7919C31.0804 27.8567 31.1613 27.8729 31.2423 27.9052C31.631 28.0832 31.7606 28.6011 31.6796 29.038C31.5824 29.4588 31.3557 29.8472 31.2423 30.2518C31.1613 30.5269 31.1289 30.802 31.1451 31.0771C31.1451 31.158 31.1613 31.2551 31.2261 31.3037C31.2747 31.3522 31.3557 31.3684 31.4205 31.3846C32.0521 31.5626 32.3761 32.2747 32.4084 32.922C32.457 33.4399 32.376 33.9577 32.376 34.4594Z" fill="#F1F1F1" stroke="#BABABA" stroke-width="1.18548" stroke-linecap="round" stroke-linejoin="round"/>
</svg>
