<svg width="10" height="8" viewBox="0 0 10 8" fill="none" xmlns="http://www.w3.org/2000/svg">
<path d="M8.6558 5.17262C8.6558 5.36682 8.62339 5.5772 8.47763 5.69048C8.41284 5.72285 8.34804 5.73903 8.29946 5.75522C7.88916 5.83074 7.47343 5.8631 7.05233 5.85231C6.67982 5.83613 6.29114 5.78758 5.93482 5.93323C5.49753 6.12742 5.2384 6.59676 4.8011 6.82332C4.46099 7.00134 4.05609 6.98514 3.66739 6.96896C3.2031 6.94738 2.7388 6.92582 2.27451 6.90424C2.12875 6.90424 1.98305 6.88803 1.85348 6.9204C1.56195 6.46727 1.07601 6.12744 0.816875 5.64194C0.411975 4.88133 0.638751 3.94269 0.849298 3.10117C0.96267 2.64804 1.04365 2.14637 1.01126 1.67706C1.72388 1.64469 2.46891 1.7256 3.13295 1.45049C3.7322 1.22393 4.23425 0.689869 4.88208 0.608953C5.02785 0.592769 5.17364 0.592773 5.31941 0.592773C5.99964 0.608957 6.69602 0.608957 7.37625 0.592773C7.61919 1.17537 8.08888 1.64469 8.59095 2.0169C8.66653 2.06006 8.74218 2.10861 8.81776 2.16255C8.62341 3.14973 8.6558 4.16927 8.6558 5.17262Z" fill="#F1F1F1" stroke="#BABABA" stroke-width="1.18548" stroke-linecap="round" stroke-linejoin="round"/>
</svg>
