<svg width="33" height="70" viewBox="0 0 33 70" fill="none" xmlns="http://www.w3.org/2000/svg">
<path d="M31.6243 26.7489C31.3166 27.3638 30.9117 27.9464 30.4258 28.4481C29.8104 29.0792 29.0653 29.6133 28.709 30.4224C28.6874 30.4656 28.6712 30.5034 28.6604 30.5357C28.5956 30.6814 28.5471 30.827 28.4499 30.9403C28.1584 31.2802 27.6401 31.264 27.219 31.3611C25.9719 31.6524 25.2107 32.9632 24.0122 33.3516C23.2834 33.5943 22.4735 33.4649 21.7123 33.5296C20.9511 33.5944 20.0928 33.9666 19.8984 34.7272C19.6879 35.6496 20.611 36.6044 20.2871 37.4945C20.1252 37.9476 19.6555 38.2875 19.6393 38.773C19.6393 39.1776 19.9632 39.5174 20.1414 39.8896C20.3519 40.3427 20.3033 40.893 20.5463 41.3461C20.7082 41.6536 20.9835 41.8802 21.2427 42.1391C21.8095 42.7217 22.2144 43.4661 22.3764 44.2753C22.4412 44.5666 22.5059 44.9064 22.7489 45.0682C22.8622 45.1329 22.9918 45.1653 23.1214 45.2139C23.5425 45.3919 23.753 45.8612 23.915 46.282C23.996 46.4762 24.0608 46.6704 24.0284 46.8808C23.9798 47.1235 23.7692 47.3015 23.6396 47.5119C23.3481 48.0459 23.5911 48.7742 23.2672 49.2758C23.089 49.551 22.7813 49.7128 22.4898 49.8585C22.1983 50.0041 21.8905 50.1821 21.7448 50.4734C21.599 50.7647 21.6962 51.1693 21.9067 51.3473L22.3602 51.9623C22.9918 52.9171 23.7045 53.8072 24.5143 54.6001C24.7734 54.8591 25.0487 55.118 25.1945 55.4417C25.4536 55.9919 25.3402 56.623 25.3402 57.2218C25.324 58.4679 25.7776 59.6655 26.2149 60.8145C26.4092 61.3 26.5874 61.8179 26.5226 62.3357C26.4902 62.6432 26.3606 62.9345 26.2472 63.2258C26.0529 63.6951 25.8586 64.1644 25.567 64.569C24.9516 65.4752 23.9312 66.1549 23.7368 67.2392C23.672 67.5467 23.7045 67.8865 23.5911 68.1778C23.4615 68.5015 23.1862 68.7443 22.8623 68.8899C22.8731 68.8575 22.8785 68.8197 22.8785 68.7766C22.8461 68.2911 22.425 67.9027 22.3926 67.4172C22.3764 67.1907 22.4574 66.9641 22.4736 66.7375C22.506 66.4301 22.4574 66.1064 22.5383 65.7989C22.5869 65.6209 22.6841 65.4752 22.7813 65.3134C22.9594 65.0059 23.1376 64.6984 23.3644 64.4071C23.4453 64.2939 23.5263 64.1806 23.5749 64.0511C23.6073 63.9055 23.5749 63.7436 23.4453 63.6789C23.3806 63.6465 23.3157 63.6304 23.2509 63.6304C22.9162 63.5872 22.5761 63.5494 22.2306 63.5171C22.0849 63.4847 21.8257 63.42 21.8257 63.42C21.5666 63.3553 21.437 63.0316 21.4694 62.7727C21.518 62.5137 21.6799 62.2872 21.8743 62.093C22.0255 61.9203 22.1928 61.7585 22.3764 61.6075C22.5707 61.4618 22.7651 61.3162 22.8947 61.1058C23.17 60.685 23.1052 60.1348 23.0242 59.6493C22.7975 58.3546 22.5545 56.9952 21.6961 55.9919C21.518 55.7977 21.3236 55.6035 21.2102 55.3769C20.9187 54.762 21.2913 53.9852 21.0159 53.354C20.9026 53.0466 20.6272 52.8038 20.5948 52.4801C20.5786 52.3668 20.5948 52.2536 20.5624 52.1403C20.4814 51.9785 20.2709 51.9137 20.1414 51.7842C19.8984 51.5415 19.9631 51.1531 20.0765 50.8295C20.1737 50.5705 20.3033 50.2792 20.2547 50.0041C19.6716 48.0837 19.094 46.1687 18.5218 44.2591C18.4408 43.9678 18.3274 43.6603 18.0682 43.5308C17.7119 43.3204 17.2584 43.5794 17.0317 43.9192C16.8212 44.2591 16.7726 44.6798 16.643 45.0682C16.5134 45.4566 16.2705 45.8612 15.8656 45.9583C15.574 46.023 15.2502 45.9098 14.9586 45.9907C14.4728 46.1525 14.3108 46.8322 13.8087 47.0264C13.6953 47.0588 13.5495 47.0749 13.4362 47.1397C13.258 47.2368 13.1771 47.4472 13.0637 47.6252C12.6102 48.321 11.7032 48.5314 10.8934 48.6933C10.6829 48.7418 10.4723 48.7742 10.2779 48.6933C10.0998 48.6124 9.98648 48.4343 9.85691 48.2887C9.58158 48.0136 9.14423 47.8841 8.73933 47.9488C8.39921 48.0298 8.05914 48.2402 7.73522 47.9327C7.57326 47.7547 7.49228 47.5281 7.49228 47.2853C7.52467 46.5571 7.49225 45.7803 7.78378 45.1168C7.99433 44.6151 8.36687 44.1943 8.54502 43.6926C8.65839 43.3852 8.707 43.0615 8.72319 42.7541C8.80417 41.5565 8.49642 40.3751 7.88097 39.3556C7.50846 38.595 7.2169 37.8181 7.03875 36.9766C6.70403 37.1385 6.37477 37.3003 6.05085 37.4621C5.79172 37.5916 5.41921 37.6887 5.32203 37.3488C5.27345 37.1708 5.3382 37.009 5.45157 36.8795C5.82408 36.475 5.46774 36.038 5.50013 35.5849C5.51632 35.2936 5.72692 35.0346 5.87268 34.7595C6.00225 34.4844 6.05079 34.1122 5.82405 33.9018C5.71068 33.8047 5.56491 33.7724 5.41915 33.74C4.75511 33.562 4.13966 33.2059 3.55661 32.8499C3.24888 32.6719 2.94122 32.4777 2.73068 32.2026C2.53632 31.9598 2.4391 31.6685 2.27714 31.3934C2.018 30.9888 1.61312 30.6976 1.32159 30.3092C1.19203 30.1473 1.07868 29.9531 0.949117 29.7751C0.835745 29.6456 0.722341 29.5324 0.592773 29.4191C1.04626 28.2701 1.88844 27.1858 2.19616 25.9559C2.28254 25.6322 2.33111 25.3086 2.34191 24.9849C2.89257 25.1144 3.47566 25.082 3.99393 24.8392C4.1073 24.7907 4.23686 24.726 4.30164 24.6127C4.60936 24.1595 3.92916 23.7064 3.7672 23.2047C3.47568 22.3147 4.77134 21.635 4.80373 20.7125C4.81993 20.4374 4.70657 20.1785 4.65798 19.9196C4.5932 19.6121 4.57702 19.3046 4.59321 18.9971C4.62561 18.6087 4.72277 18.1879 4.9819 17.8805C5.24104 17.573 5.69454 17.4112 6.05085 17.5892C6.32619 17.7187 6.47193 17.9776 6.68248 18.2041C6.87683 18.4145 7.20072 18.5925 7.45986 18.4631C7.7028 18.3336 7.75139 18.0099 7.78378 17.7348C7.86476 16.8609 8.07532 15.8576 8.85273 15.4692C9.04708 15.3883 9.25764 15.3235 9.35482 15.1455C9.452 14.9837 9.40342 14.7733 9.37103 14.5791C9.16048 13.4463 9.58153 12.2163 10.4561 11.4557C10.6991 11.2615 10.9744 11.0673 11.0392 10.776C11.1526 10.3067 10.6829 9.90215 10.5857 9.43284C10.44 8.83406 10.942 8.26767 11.4926 7.96019C12.0271 7.65271 12.6588 7.49088 13.1285 7.07011C13.6305 6.6008 13.8735 5.87255 14.4566 5.48415C14.91 5.16049 15.5417 5.12812 16.0437 5.40324C16.3029 5.54889 16.5134 5.75927 16.7726 5.88873C17.0317 6.03438 17.388 6.06676 17.5986 5.85637C18.133 5.3547 17.0965 4.44843 17.4204 3.78492C17.5985 3.4127 18.1006 3.34795 18.4084 3.07283C18.8133 2.7168 18.8132 2.08569 18.6999 1.56783C18.6999 1.55704 18.6999 1.54622 18.6999 1.53543C18.7862 1.48149 18.8672 1.40057 18.9428 1.29268C19.0886 1.04993 19.1372 0.677753 19.4125 0.596837C19.5259 0.580653 19.6554 0.612988 19.7688 0.645355C21.1779 1.22795 21.2751 3.41271 22.6517 4.07622C22.9109 4.20569 23.2186 4.27042 23.4291 4.4808C23.6073 4.675 23.672 4.93392 23.7206 5.19285C23.8664 6.21239 23.834 7.2481 23.6558 8.25146C23.5749 8.70458 23.5101 9.19008 23.3644 9.62703C23.2186 10.0478 23.008 10.4362 22.7651 10.7922C22.3116 11.4881 21.7286 12.1031 21.1779 12.7342C20.1252 13.8832 19.0724 15.2588 19.1857 16.8124C19.2019 16.9904 19.2344 17.1684 19.3316 17.314C19.7365 18.0423 20.9512 17.7024 21.518 17.2817C21.8419 17.0551 22.2306 16.9257 22.6355 16.958C23.8016 17.0713 23.7692 18.2041 23.8016 19.0942C23.8178 19.8872 24.0932 20.7934 24.822 21.0847C25.2107 21.2304 25.6803 21.1818 25.7613 22.0234C25.7937 22.3632 25.7128 22.7192 25.567 23.0267C25.2755 23.6579 25.0649 24.6936 25.7451 24.9849C26.1338 25.1629 26.6035 24.9363 26.9922 25.082C27.6563 25.3085 27.6724 26.2796 28.1745 26.7651C28.5794 27.1534 29.1949 27.1696 29.7456 27.0564C30.28 26.9431 30.8145 26.7327 31.3652 26.7165C31.4515 26.7165 31.5379 26.7273 31.6243 26.7489Z" fill="#F1F1F1" stroke="#BABABA" stroke-width="1.18548" stroke-linecap="round" stroke-linejoin="round"/>
</svg>
