<svg width="52" height="37" viewBox="0 0 52 37" fill="none" xmlns="http://www.w3.org/2000/svg">
<path d="M50.8622 5.3784C50.8406 5.60496 50.8083 5.82611 50.7651 6.04189C50.4898 6.0257 50.1982 6.02572 49.9553 6.139C49.6962 6.25228 49.4856 6.46267 49.2588 6.59214C48.7729 6.88344 48.1899 6.9158 47.6392 6.9158C46.4083 6.94817 45.1775 6.98051 43.9466 7.01288C43.4607 7.02906 42.9424 7.04526 42.4727 7.19091C42.165 7.28801 41.8735 7.44984 41.5819 7.59549C40.567 8.14572 39.5574 8.69053 38.5532 9.22997C38.3427 9.34325 38.1322 9.45653 37.9864 9.63455C37.7111 10.0229 37.8082 10.5732 38.0674 10.994C38.3103 11.3985 38.6666 11.7384 38.8934 12.1591C39.1687 12.6446 39.2497 13.2272 39.1201 13.7775C38.8124 15.0883 37.2252 16.0431 37.3872 17.4672C37.4034 17.6129 37.4357 17.7747 37.4195 17.9204C37.3871 18.066 37.29 18.1793 37.1766 18.2926C36.5126 18.9561 35.5247 18.7942 34.7311 18.4544C34.4071 18.3087 34.067 18.1307 33.7107 18.2116C33.5001 18.244 33.3058 18.3897 33.2572 18.5839C33.1438 18.9237 33.4354 19.1988 33.6621 19.4254C33.9212 19.6843 34.1479 19.9648 34.3423 20.2669C34.4395 20.445 34.5528 20.6391 34.5042 20.8333C34.4557 21.0437 34.2452 21.1732 34.067 21.3026C33.7755 21.4807 33.4839 21.6587 33.16 21.7558C32.9333 21.8367 32.6741 21.8529 32.4474 21.9338C31.6376 22.2251 31.2165 23.099 31.0707 23.9405C30.9088 24.9277 31.0384 25.931 30.6658 26.8696C30.5687 27.1448 30.4229 27.3875 30.1962 27.5655C29.4836 28.1481 28.7385 27.6465 27.9935 27.5008C27.1675 27.339 25.9528 27.1772 25.5317 27.9054C25.3859 28.1643 25.224 28.3747 25.062 28.5365C24.6733 28.9087 24.1227 29.0058 23.6044 28.8602C23.5828 28.8494 23.5558 28.844 23.5234 28.844C23.2481 28.7955 22.9889 28.9088 22.7622 29.0382C22.1305 29.3619 21.5799 29.7827 21.094 30.3005C20.9644 30.4462 20.8348 30.5918 20.7539 30.7698C20.6891 30.9155 20.6567 31.0773 20.6405 31.2391C20.43 32.3881 20.3652 33.5695 20.4462 34.7347C20.4462 34.8318 20.4623 34.9451 20.4299 35.0422C20.3652 35.204 20.2194 35.3173 20.0413 35.3658C19.8793 35.4144 19.7011 35.4144 19.523 35.4144C18.9561 35.4306 18.4055 35.6248 17.8548 35.8028C17.5957 35.8837 17.3365 35.9646 17.045 35.9808C16.7859 35.997 16.5105 35.9646 16.2514 35.9484C15.7655 35.9161 15.2797 35.8891 14.7938 35.8675C14.3889 35.8352 13.9839 35.819 13.6276 35.997C13.4981 36.0617 13.3685 36.1588 13.2227 36.2074C13.0446 36.2883 12.8341 36.2883 12.6235 36.2883C10.5288 36.3099 8.4287 36.326 6.32322 36.3368C6.19366 36.3368 6.04789 36.3368 5.91832 36.3207C5.57821 36.2397 5.30294 35.997 5.01141 35.819C4.44455 35.4791 3.14882 35.4144 2.20946 35.4467C2.09609 34.8803 2.24185 34.2492 2.61436 33.8123C2.92208 33.4239 3.39176 33.1649 3.6671 32.7604C3.82906 32.5176 3.92623 32.2587 4.072 31.9998C4.28254 31.5952 4.6065 31.2553 4.83324 30.8507C5.04379 30.4461 5.17334 29.9445 4.97899 29.5237C4.5417 28.5527 2.98686 28.9087 2.12848 28.2452C1.6426 27.8892 1.46446 27.2581 1.41587 26.6755C1.35109 26.0767 1.43207 25.4779 1.33489 24.8953C1.20532 24.07 0.80039 23.3093 0.654626 22.5002C0.573646 22.0471 0.589874 21.5778 0.60607 21.1085C0.60607 20.925 0.60607 20.747 0.60607 20.5744C0.627665 19.7868 0.649243 18.9992 0.670838 18.2116C0.670838 17.8394 0.703278 17.4348 0.962413 17.1597C1.07579 17.0303 1.23775 16.9494 1.36731 16.8361C1.59406 16.6419 1.72363 16.3668 1.85319 16.1078C2.46864 14.7323 2.88974 13.2758 3.06789 11.7869C3.89929 12.2616 4.73066 12.7309 5.56206 13.1948C5.86978 13.3729 6.17749 13.5347 6.51761 13.5671C6.77674 13.5833 7.03591 13.5023 7.27885 13.4376C8.25061 13.1463 9.33568 12.7903 9.80536 11.9002C9.91873 11.706 9.99971 11.4794 10.1293 11.3014C10.3236 11.0587 10.6152 10.913 10.9067 10.7836C11.8245 10.3736 12.7369 9.9636 13.6438 9.55363C13.9516 9.40798 14.2593 9.26235 14.4536 9.00342C15.0529 8.21044 14.2431 6.93198 14.81 6.10664C15.5226 5.0871 17.5957 5.83152 18.0977 4.68251C18.1949 4.45595 18.2111 4.18082 18.4054 4.01899C18.6484 3.82479 19.0047 3.95428 19.2315 4.16466C19.4582 4.37504 19.6201 4.65015 19.8631 4.84435C20.3814 5.23274 21.1102 5.05473 21.7581 4.97382C21.7904 4.97382 21.8174 4.97382 21.839 4.97382C22.8108 4.86054 23.7988 4.98999 24.6895 5.3622C25.0135 5.50785 25.3374 5.66968 25.5803 5.92861C25.6127 5.96098 25.6397 5.99336 25.6613 6.02573C25.8071 6.20374 25.9204 6.43028 26.1148 6.52738C26.4711 6.7054 26.8598 6.44646 27.1837 6.23608C28.3336 5.45928 29.7588 5.11945 31.1193 5.28128C32.7713 3.46877 34.7796 1.96374 36.9985 0.879463C37.4844 0.636715 38.0998 0.426318 38.5209 0.782348C38.7314 0.960363 38.8286 1.2355 38.9096 1.49443C39.2335 2.56252 39.4926 3.76008 39.0553 4.81199C38.8772 5.23275 38.4237 5.88006 38.5695 6.33319C38.6342 6.54357 38.8124 6.94817 38.9906 7.07763C40.1567 7.90298 41.7762 6.57594 43.0071 5.84769C44.238 5.11945 45.2422 4.29412 46.4569 5.05473C46.878 5.31367 48.1737 5.71825 48.692 5.13565C49.0807 4.6987 49.8419 4.87672 50.344 5.13565C50.5221 5.23275 50.7002 5.31367 50.8622 5.3784Z" fill="#F1F1F1" stroke="#BABABA" stroke-width="1.18548" stroke-linecap="round" stroke-linejoin="round"/>
</svg>
