<svg width="30" height="17" viewBox="0 0 30 17" fill="none" xmlns="http://www.w3.org/2000/svg">
<path d="M29.1727 10.3133C29.0755 11.1872 28.3306 11.9155 28.4116 12.7894C28.4925 13.6633 29.3833 14.5048 28.8002 15.2654C28.5897 15.5567 28.2333 15.7185 27.877 15.7347C26.8243 15.7671 25.7716 15.848 24.7188 15.7833C23.8604 15.7185 23.0182 15.5729 22.1922 15.3463C21.9979 15.2816 21.7874 15.2169 21.593 15.1198C21.4473 15.0389 21.3014 14.9255 21.1395 14.8446C20.5402 14.5371 19.8277 14.5857 19.1636 14.4077C17.463 13.9707 16.2807 12.1259 14.5316 11.9802C13.4626 11.8993 12.2965 12.4657 11.3571 11.9479C11.0332 11.786 10.7902 11.4947 10.4501 11.3652C9.94805 11.171 9.36506 11.3005 8.89538 11.074C8.52287 10.9121 8.24748 10.5399 7.85877 10.4267C7.53485 10.3457 7.17859 10.459 6.85467 10.3619C6.54694 10.281 6.32017 10.0382 6.09342 9.82784C5.23504 9.0025 4.1661 8.45228 3.09716 7.90206C2.82183 7.75641 2.54653 7.61077 2.23881 7.54603C1.67195 7.41657 0.943097 7.51364 0.667766 6.99578C0.57059 6.80158 0.570574 6.55884 0.651554 6.34845C0.845906 5.83059 1.36424 5.53929 1.60718 5.0538C1.75294 4.77868 1.80147 4.45503 1.78527 4.13137C1.78527 3.77533 1.94726 3.45169 2.2226 3.22513C2.38456 3.07948 2.51414 2.90145 2.64371 2.72344C3.01082 2.15163 3.38331 1.58522 3.76122 1.0242C4.02035 1.08893 4.27947 1.13747 4.5548 1.13747C4.78155 1.13747 5.00832 1.10512 5.23507 1.0242C5.75334 0.862368 6.27163 0.490155 6.7899 0.61962C7.40535 0.765269 7.69681 1.47732 8.18269 1.86572C8.49042 2.09228 8.86297 2.20558 9.20309 2.36741C10.2882 2.90146 10.9684 3.98572 11.843 4.82725C12.1669 5.13473 12.5233 5.42601 12.8634 5.70113C13.1387 5.91151 13.4141 6.1381 13.7542 6.25138C14.321 6.44558 14.9365 6.31609 15.5357 6.34845C16.6371 6.41319 17.625 7.06052 18.4671 7.77258C18.6291 7.91823 18.8073 8.0639 19.0017 8.161C19.3094 8.32284 19.6657 8.35519 20.0058 8.43611C20.3189 8.50084 20.6158 8.59795 20.8965 8.72742C21.1881 8.85688 21.4796 9.01871 21.7226 9.21291C21.9493 9.42329 22.2085 9.64984 22.5 9.76312C22.7591 9.84404 23.0506 9.86024 23.3259 9.86024C23.8766 9.86024 24.4921 9.76312 25.0104 10.0059C25.0212 10.0167 25.0319 10.0221 25.0427 10.0221C25.4152 10.2001 25.6906 10.5561 26.0793 10.7018C26.6299 10.9121 27.2454 10.6694 27.8123 10.4914C28.2658 10.3403 28.7246 10.2324 29.1889 10.1677C29.1889 10.2216 29.1835 10.2702 29.1727 10.3133Z" fill="#F1F1F1" stroke="#BABABA" stroke-width="1.18548" stroke-linecap="round" stroke-linejoin="round"/>
</svg>
