<svg width="16" height="30" viewBox="0 0 16 30" fill="none" xmlns="http://www.w3.org/2000/svg">
<path d="M14.8487 19.0684C14.8487 19.8452 14.6381 20.7029 14.0227 21.1722C13.3424 21.6739 12.3383 21.6254 11.739 22.2241C11.3503 22.5964 11.1721 23.1951 10.6863 23.4055C10.4109 23.535 10.0871 23.5188 9.86033 23.6968C9.52022 23.9396 9.5202 24.4413 9.68216 24.8297C9.82792 25.2181 10.0871 25.5579 10.1843 25.9625C10.3948 26.9011 9.63359 27.775 8.80759 28.2605C8.58085 28.39 8.33786 28.5356 8.11112 28.6974C7.33371 27.0953 6.73449 25.4122 6.36198 23.6806C6.15143 22.742 5.9409 21.7063 5.16349 21.1722C4.95295 21.0266 4.70999 20.9295 4.49944 20.8C3.94878 20.4764 3.5277 19.9585 3.30095 19.3597C3.23617 19.1655 3.18754 18.9551 3.09036 18.7771C2.84742 18.2916 2.31297 18.0327 1.89187 17.6929C0.822936 16.8351 0.337025 15.3139 0.725728 13.9869C0.790512 13.7442 0.903884 13.5014 1.04965 13.3072C1.50314 12.7246 2.32916 12.5789 2.86363 12.0935C3.56006 11.4623 3.68961 10.4266 3.65722 9.48798C3.64102 8.74356 3.56004 7.99912 3.41428 7.2547C3.3495 6.93103 3.26852 6.57499 3.41428 6.26751C3.49526 6.07331 3.67346 5.9115 3.70585 5.68493C3.75444 5.29654 3.31713 5.0214 3.20376 4.64919C3.07419 4.26079 3.31709 3.85623 3.56003 3.5002C3.87315 3.04707 4.18632 2.59392 4.49944 2.14079C4.69379 2.04369 4.87193 1.93041 5.05009 1.81713C5.53597 1.47728 5.98943 1.04034 6.55629 0.813778C7.3013 0.506297 8.14352 0.571038 8.93713 0.700503C9.11528 0.73287 9.30964 0.765244 9.42301 0.910893C9.53638 1.02417 9.55254 1.18601 9.63352 1.31547C9.86027 1.6715 10.3624 1.70385 10.7511 1.57438C11.156 1.4611 11.5123 1.21837 11.9172 1.15364C12.5488 1.05654 13.2452 1.47731 13.4396 2.09227C13.6501 2.70723 13.3263 3.50021 12.7594 3.79151C12.2087 3.92097 11.9982 4.68156 11.5123 4.94049C11.4151 4.98904 11.3017 5.03761 11.2531 5.11852C11.2045 5.18326 11.2046 5.26416 11.1884 5.34507C11.1722 5.604 11.156 5.89532 11.2855 6.13807C11.3665 6.33227 11.5285 6.4617 11.6904 6.59117C12.1439 6.97957 12.5974 7.36799 13.0509 7.75639C13.1805 7.88586 13.3263 8.0153 13.4235 8.17713C13.5044 8.33896 13.5206 8.53317 13.5368 8.71118C13.553 9.00248 13.5692 9.30995 13.4558 9.58506C13.391 9.73071 13.2938 9.86017 13.1966 9.98964C12.9267 10.3241 12.6622 10.6639 12.4031 11.0092C12.2087 11.2519 12.0144 11.4785 11.8039 11.6889C11.5447 11.9316 11.2531 12.1258 11.0264 12.3848C10.7511 12.6922 10.5892 13.0806 10.4272 13.469C10.2166 13.9545 10.0223 14.5371 10.3462 14.9579C10.5568 15.2168 10.9454 15.2977 11.3018 15.2977C11.6419 15.2977 11.9982 15.2168 12.3383 15.2816C12.7756 15.3625 13.2129 15.6052 13.4072 16.0098C13.6988 16.4629 14.1684 16.738 14.6867 16.8837C14.7191 16.8945 14.7569 16.9053 14.8001 16.9161C14.7353 17.6281 14.8649 18.3402 14.8487 19.0684Z" fill="#F1F1F1" stroke="#BABABA" stroke-width="1.18548" stroke-linecap="round" stroke-linejoin="round"/>
</svg>
