<svg width="40" height="63" viewBox="0 0 40 63" fill="none" xmlns="http://www.w3.org/2000/svg">
<path d="M38.56 16.873C38.4628 17.0025 38.3171 17.0834 38.2361 17.2291C38.1065 17.5042 38.317 17.8278 38.2847 18.1191C38.2361 18.459 37.9284 18.6694 37.6692 18.8798C36.8109 19.5595 36.3249 20.6114 35.5313 21.372C35.1912 21.6956 34.7864 22.0193 34.7054 22.4724C34.673 22.6505 34.7054 22.8447 34.6082 22.9903C34.5434 23.1036 34.4462 23.1683 34.3491 23.233C33.9766 23.4596 33.6202 23.7833 33.2639 24.0098C31.5309 25.4663 28.891 25.4178 27.1743 26.8905C26.6236 27.3598 26.1701 27.9909 25.4898 28.2498C25.1497 28.3793 24.7286 28.444 24.5505 28.7677C24.4857 28.8972 24.4695 29.059 24.4209 29.2046C24.2428 29.9814 23.4654 30.4184 22.7851 30.823C21.3437 31.6807 20.0318 32.7488 18.7361 33.8168C17.7644 34.6098 16.744 35.4675 16.3877 36.6651C16.3067 36.924 16.2743 37.2315 16.4363 37.4419C16.5334 37.5876 16.7116 37.6685 16.8736 37.7494C17.2515 37.922 17.6348 38.1 18.0235 38.2834C18.1531 38.3482 18.2988 38.4129 18.3798 38.5262C18.4932 38.688 18.5094 38.8822 18.5094 39.0602C18.5742 40.8889 18.5904 42.75 19.1248 44.4978C19.4811 45.6791 20.0642 46.99 19.465 48.0743C19.3678 48.2523 19.2382 48.4141 19.1572 48.6083C19.0115 48.9805 19.0601 49.3851 19.0763 49.7897C19.1087 50.4047 19.0439 51.0358 18.8981 51.6508C18.8171 51.9421 18.7199 52.2334 18.5418 52.4599C17.9587 53.1882 16.7116 53.172 16.3067 54.062C15.6751 54.062 15.1244 54.4666 14.4928 54.5637C14.0555 54.6285 13.5858 54.5313 13.1485 54.6608C12.3711 54.9197 12.031 55.8746 11.3022 56.263C11.0754 56.3924 10.8001 56.4571 10.5572 56.5704C10.0551 56.8455 9.76352 57.3796 9.472 57.8813C9.4396 57.9622 9.391 58.0431 9.3748 58.1402C9.3748 58.4639 9.77977 58.5771 10.0065 58.7875C10.3142 59.0465 10.3304 59.4996 10.3304 59.888C10.3304 60.2656 10.3304 60.6432 10.3304 61.0208C10.2441 61.0748 10.1631 61.1395 10.0875 61.215C9.97412 61.3283 9.8769 61.4739 9.71494 61.5387C9.60156 61.6034 9.4558 61.6034 9.31004 61.6196C9.07249 61.6196 8.83497 61.6196 8.59743 61.6196C8.40308 61.6196 8.20874 61.6196 8.04678 61.5387C7.83623 61.4254 7.72284 61.1988 7.62567 60.9885C7.4961 60.7133 7.36652 60.422 7.28554 60.1307C7.20456 59.7747 7.18841 59.4187 7.17221 59.0626C7.11823 57.7788 7.05882 56.4895 6.99404 55.1949C6.97784 54.5799 6.94544 53.9811 6.89685 53.3662C6.86446 52.8159 6.84828 52.2333 6.67012 51.7155C6.47577 51.1652 6.11942 50.6797 5.8279 50.1781C5.52017 49.6602 5.24484 49.1262 5.0181 48.576C4.597 47.6211 4.30546 46.5854 4.51601 45.5659C4.58079 45.3231 4.66179 45.0804 4.77516 44.8538C5.32582 43.6724 6.50813 42.8309 7.52848 41.957C7.72283 41.7952 7.91718 41.6334 8.01436 41.4068C8.09534 41.245 8.11158 41.0507 8.14397 40.8727C8.20876 40.3009 8.27349 39.7345 8.33828 39.1735C8.40306 38.6718 8.46788 38.1539 8.7756 37.7494C9.1967 37.2153 10.0227 36.9726 10.2008 36.3091C10.3304 35.775 9.95789 35.2571 9.89311 34.7069C9.84452 34.3994 9.90927 34.1082 9.86068 33.8007C9.7797 33.2828 9.39106 32.8135 9.43965 32.2794C9.48824 31.8101 9.82832 31.4541 10.0551 31.0495C10.379 30.4022 10.379 29.6254 10.3466 28.8972C10.3142 28.2067 10.2602 27.5162 10.1846 26.8257C10.1738 26.707 10.1631 26.5884 10.1523 26.4697C10.0713 25.8385 9.94168 25.1588 9.71494 24.5601C9.55298 24.1069 9.2453 23.7347 8.79181 23.5405C8.22495 23.2816 7.57705 23.2492 6.94541 23.1845C6.32996 23.1036 5.66597 22.9579 5.21248 22.5372C4.96954 22.3268 4.79134 22.0355 4.51601 21.8737C3.91675 21.5176 3.13936 21.8737 2.42674 21.7928C1.7789 21.7118 1.22828 21.2263 0.936754 20.6437C0.850376 20.4819 0.78556 20.3147 0.742371 20.142C0.612803 19.6889 0.580427 19.2034 0.596623 18.718C0.612819 18.3781 0.645211 18.0221 0.839563 17.7308C1.30925 17.0025 2.37815 17.0672 3.23654 16.873C4.71037 16.5494 5.86029 15.2385 7.36652 15.012C7.8524 14.9472 8.33828 14.9958 8.82416 14.8825C9.29384 14.7854 9.77974 14.4779 9.89311 14.0086C10.0011 14.0194 10.1091 14.0302 10.217 14.041C10.5733 14.0734 10.9782 14.1381 11.1726 14.4456C11.2536 14.5588 11.3022 14.7045 11.3507 14.8501C11.5613 15.4166 12.0634 15.8697 12.6626 16.0153C12.8246 16.0477 13.0027 16.0639 13.1809 16.0315C13.3266 15.9992 13.4562 15.9182 13.602 15.8697C13.8449 15.7888 14.1203 15.7726 14.3794 15.7726C14.8005 15.751 15.2216 15.7349 15.6427 15.7241C15.7884 15.7241 15.9342 15.7079 16.0638 15.7564C16.3391 15.8535 16.501 16.1448 16.582 16.4199C16.6792 16.7112 16.7116 17.0349 16.663 17.3424C16.5982 17.6175 16.4686 17.8602 16.3391 18.103C15.9828 18.7503 15.6265 19.3976 15.2702 20.045C15.1082 20.3524 14.93 20.6761 14.8814 21.0321C14.8491 21.4691 14.9948 21.8898 15.1568 22.2944C15.2702 22.5695 15.3997 22.8609 15.6103 23.0874C15.8208 23.2978 16.0962 23.4434 16.3229 23.6538C16.5659 23.8804 16.7278 24.1879 16.9222 24.463C17.1651 24.819 17.5052 25.1103 17.8777 25.3369C18.1854 25.5149 18.6228 25.612 18.8333 25.3207C18.9791 25.1265 18.9143 24.8352 18.7847 24.641C18.6551 24.4306 18.477 24.2526 18.3636 24.026C18.234 23.7509 18.2503 23.4111 18.2665 23.0874C18.2665 22.958 18.2826 22.8123 18.3636 22.699C18.4446 22.5533 18.6227 22.5048 18.7847 22.4724C19.0762 22.4077 19.384 22.3915 19.6917 22.3106C19.9832 22.2297 20.2747 22.0679 20.4205 21.8089C20.5825 21.5176 20.5501 21.1778 20.5177 20.8541C20.4529 19.9802 20.4691 19.1063 20.5825 18.2486C20.6149 17.9088 20.6796 17.5689 20.6472 17.2453C20.6148 16.695 20.3558 16.1934 20.048 15.7564C19.5136 14.9958 18.7361 14.397 17.8777 14.041C17.8885 14.0302 17.8993 14.014 17.9101 13.9924C18.0721 13.7335 17.9264 13.3613 17.6996 13.1509C17.4729 12.9405 17.1813 12.8111 16.9222 12.6331C16.3229 12.1961 15.9828 11.4193 16.08 10.6749C16.1934 9.89808 16.744 9.2022 16.7602 8.40923C16.7602 7.93991 16.5659 7.48678 16.4525 7.03365C16.3391 6.56434 16.3229 6.04649 16.5982 5.67428C16.663 5.59337 16.744 5.52863 16.7926 5.43153C16.8898 5.28588 16.8898 5.09169 16.8574 4.91368C17.6672 5.22116 18.4284 5.9494 19.2544 5.72284C19.7078 5.60956 20.0642 5.22116 20.5177 5.15643C21.036 5.09169 21.4895 5.46392 21.9106 5.7714C22.3317 6.07888 22.8985 6.35397 23.352 6.11122C23.7083 5.9332 23.9351 5.48007 24.3238 5.49625C24.6801 5.51243 24.8906 5.88466 25.1821 6.07886C25.5222 6.27306 25.9919 6.20831 26.3158 5.98175C26.6398 5.75518 26.8665 5.41534 27.0284 5.05931C27.2714 4.55763 27.5953 3.92651 28.1298 3.99124C28.4537 4.03979 28.6643 4.3149 28.9234 4.5091C29.6846 5.02696 30.7373 4.70331 31.4823 4.15308C32.2112 3.61903 32.7942 2.85841 33.604 2.43764C34.2843 2.08161 35.0617 1.98451 35.7419 1.62848C36.1468 1.40192 36.5355 1.01354 36.6975 0.592773C36.7515 0.668295 36.8 0.743801 36.8432 0.819322C36.908 0.916422 36.9566 0.99733 36.989 1.09443C37.0862 1.38573 36.908 1.69322 36.908 2.0007C36.908 2.1949 36.9728 2.37292 37.0052 2.56712C37.0376 2.74513 37.0376 2.93931 37.0376 3.11733C37.0376 3.61361 37.0322 4.1153 37.0214 4.62237C36.827 5.18879 37.07 5.80375 37.1186 6.40252C37.151 6.96894 37.0052 7.58391 37.2968 8.0694C37.3939 8.23123 37.5235 8.36071 37.6045 8.52254C37.734 8.71674 37.7826 8.97566 37.7502 9.20223C37.9284 9.801 37.1185 10.3512 37.3129 10.9176C37.3939 11.1442 37.6044 11.2899 37.734 11.4679C38.0741 11.9534 37.9121 12.6169 37.7178 13.1671C37.5234 13.7173 37.2967 14.3485 37.5558 14.8825C37.7178 15.2385 38.0742 15.4813 38.3495 15.7726C38.6248 16.0801 38.803 16.5494 38.56 16.873Z" fill="#F1F1F1" stroke="#BABABA" stroke-width="1.18548" stroke-linecap="round" stroke-linejoin="round"/>
</svg>
