<svg width="41" height="37" viewBox="0 0 41 37" fill="none" xmlns="http://www.w3.org/2000/svg">
<path d="M31.2594 12.5745C30.8707 13.4483 30.2714 14.209 29.5264 14.8077C29.2672 15.0181 28.9919 15.2123 28.7976 15.4874C28.6842 15.6654 28.6032 15.8758 28.5061 16.07C28.2955 16.4423 27.9716 16.7659 27.9068 17.1867C27.8744 17.3647 27.8906 17.5427 27.8582 17.7045C27.761 18.1091 27.3885 18.3842 27.0484 18.627C26.7893 18.805 26.4491 18.983 26.19 18.7888C25.9794 18.6432 25.9633 18.3195 25.7527 18.1739C25.4936 17.9797 25.1373 18.19 24.9105 18.4328C24.7162 18.627 24.5218 18.8697 24.2465 18.9183C24.1493 18.9668 24.0522 19.0154 24.0522 19.0154C23.7444 19.1934 23.631 19.6142 23.3395 19.7922C23.1289 19.9216 22.886 19.9054 22.6431 19.9054C22.4163 19.8947 22.1842 19.8839 21.9467 19.8731C21.7523 19.8569 21.5418 19.8569 21.3636 19.9702C21.2826 20.0349 21.2178 20.1158 21.153 20.2129C20.9479 20.5042 20.7752 20.8171 20.6348 21.1515C20.5862 21.2648 20.5538 21.3619 20.489 21.459C20.4081 21.5723 20.3108 21.6694 20.1975 21.7503C19.8735 22.0254 19.5335 22.3167 19.1124 22.4138C19.1124 22.4138 19.0961 22.4139 19.0637 22.43C18.8532 22.4948 18.6265 22.5757 18.4645 22.7375C18.3026 22.8832 18.2054 23.1421 18.3026 23.3525C18.3674 23.4496 18.4645 23.5305 18.5293 23.6276C18.6427 23.7894 18.6913 24.016 18.6265 24.194C18.6265 24.2425 18.6103 24.2749 18.5779 24.2911C18.5455 24.3073 18.5131 24.3073 18.4645 24.3073C18.092 24.2425 17.8005 23.9189 17.5738 23.5952C17.3632 23.2716 17.1526 22.9155 16.8125 22.7213C16.7639 22.6889 16.6991 22.6728 16.6343 22.6889C16.5696 22.7375 16.5696 22.8184 16.5696 22.8831C16.5858 23.2554 16.7153 23.6276 16.9745 23.9027C17.0878 24.0322 17.2174 24.1616 17.2498 24.3235C17.2822 24.4529 17.2498 24.5824 17.2174 24.7118C17.1526 24.9708 17.1202 25.2297 17.1364 25.4886C16.9097 25.5857 16.6992 25.3592 16.602 25.1326C16.4238 24.7928 16.3428 24.4044 16.0675 24.1293C15.7112 23.7894 15.1443 23.7894 14.6746 23.9189C14.1887 24.0645 13.7676 24.3235 13.298 24.4691C13.1198 24.5176 12.9255 24.55 12.7797 24.6633C12.7149 24.7118 12.6663 24.7766 12.6016 24.8251C12.2452 25.1326 11.727 25.1164 11.2573 25.0841C10.7229 25.0355 10.1398 25.0517 9.6053 25.0032C9.03843 24.9384 8.40679 25.0032 7.82374 25.0194C7.51601 25.0194 7.19212 25.0355 6.8844 25.1164C6.57668 25.2135 6.28513 25.3916 6.13937 25.6667C6.026 25.8609 5.99359 26.0874 5.9612 26.314C5.9288 26.4111 5.91259 26.492 5.864 26.5729C5.83161 26.6538 5.76684 26.7186 5.71826 26.7833C5.58869 26.9128 5.45914 27.0476 5.32957 27.1879C5.31337 27.2041 5.29714 27.2041 5.29714 27.2041C4.84366 27.3983 4.60072 27.8676 4.24441 28.1912C3.98527 28.4178 3.69379 28.5958 3.40226 28.7576C3.28889 28.8224 3.15927 28.8871 3.02971 28.9357C2.77057 29.0004 2.47903 28.9357 2.20369 28.9518C1.7826 28.9842 1.41009 29.1946 1.06997 29.4212C0.956602 29.4859 0.843246 29.5668 0.762266 29.6639C0.551718 29.9067 0.551718 30.2627 0.681286 30.5378C0.82705 30.8129 1.08623 31.0071 1.37776 31.1204C1.65309 31.2337 1.97695 31.2661 2.28467 31.2822C2.61939 31.3038 2.95414 31.3092 3.28886 31.2984C3.54799 31.2822 3.82331 31.266 4.08244 31.3793C4.45495 31.5411 4.68173 31.9619 5.08663 32.0428C5.29718 32.0914 5.52394 32.0267 5.6697 31.881C5.83166 31.7354 5.89641 31.525 5.88022 31.3146C5.83163 31.088 5.68583 30.8615 5.76681 30.6511C5.8154 30.4892 5.97741 30.3922 6.13937 30.3922C6.30133 30.376 6.46326 30.4569 6.59282 30.554C6.65761 30.6187 6.72244 30.6835 6.80342 30.7158C6.93299 30.7644 7.09495 30.7158 7.20832 30.6349C7.32169 30.554 7.40266 30.4569 7.51603 30.376C8.00191 30.0361 8.68214 30.2789 9.21661 30.0685C9.47574 29.8905 9.79968 29.8096 10.1236 29.8258C10.3989 29.8419 10.6905 29.9714 10.7714 30.2303C10.8524 30.4893 10.6743 30.7644 10.4475 30.9262C10.237 31.0719 9.96164 31.1366 9.7187 31.266C9.68631 31.2822 9.63769 31.2984 9.6053 31.347C9.55671 31.3955 9.55671 31.4926 9.52431 31.5573C9.44334 31.7192 9.20043 31.7677 9.07086 31.6383C8.98988 31.5735 8.95749 31.4441 8.9089 31.3308C8.86031 31.1851 8.77931 31.0395 8.64975 30.9424C8.52018 30.8615 8.34199 30.8291 8.21242 30.91C8.05046 30.9909 7.98571 31.1851 7.92093 31.347C7.75897 31.6544 7.48362 31.8972 7.1759 32.0752C6.86817 32.2532 6.52806 32.3827 6.20414 32.5283C6.07457 32.5931 5.94503 32.6578 5.83166 32.7549C5.63731 32.9653 5.60492 33.2728 5.58872 33.5479C5.58872 33.6935 5.5887 33.8392 5.65349 33.9686C5.78306 34.2276 6.12319 34.2761 6.31754 34.5027C6.57668 34.8102 6.44711 35.328 6.72244 35.6355C6.78722 35.7164 6.88438 35.7812 6.94917 35.8459C7.04634 35.9592 7.09488 36.121 7.22445 36.2019C7.35402 36.299 7.53222 36.299 7.67799 36.2505C7.82375 36.2019 7.96953 36.121 8.0991 36.0401C8.29345 35.9268 8.48779 35.8297 8.64975 35.6841C8.81171 35.5222 8.94129 35.3119 8.9089 35.0853C9.10325 34.6807 9.3138 34.2599 9.63772 33.9686C9.97783 33.645 10.4961 33.4669 10.9172 33.645C11.063 33.6935 11.1763 33.7906 11.3221 33.8392C11.6136 33.9201 11.9213 33.7906 12.1804 33.645C12.7959 33.3213 13.3141 32.8358 13.7029 32.2532C13.8162 32.0752 13.9134 31.881 13.9782 31.6868C14.043 31.5088 14.0592 31.3308 14.124 31.1528C14.1887 30.9586 14.3021 30.7482 14.2697 30.5216C14.2373 30.2465 13.9782 30.0361 13.7191 29.9067C13.4761 29.7772 13.1846 29.6639 13.0227 29.4212C12.8931 29.227 12.8769 28.9519 12.974 28.7415C13.0712 28.5149 13.2818 28.3693 13.5248 28.3369C13.8973 28.3045 14.2698 28.2884 14.6585 28.256C14.9986 28.2236 15.3711 28.2074 15.695 28.3531C16.0027 28.4825 16.2618 28.8386 16.1647 29.1784C16.0513 29.5668 15.5654 29.6963 15.3225 30.0199C15.0795 30.3274 15.0957 30.7482 15.1119 31.1366C15.1119 31.2822 15.1119 31.4441 15.1929 31.5735C15.2577 31.7192 15.4035 31.8163 15.533 31.9134C15.8138 32.1184 16.0945 32.3234 16.3752 32.5283C16.5048 32.6254 16.6506 32.7387 16.7315 32.9006C16.7639 32.9815 16.7963 33.0948 16.8287 33.1919C16.9259 33.3861 17.1526 33.5155 17.3794 33.5317C17.6061 33.5479 17.8166 33.467 17.9948 33.3051C18.1082 33.208 18.1892 33.0947 18.3026 32.9976C18.5617 32.7873 18.918 32.674 19.08 32.3827C19.2095 32.1723 19.1933 31.881 19.3391 31.6868C19.4525 31.5412 19.6468 31.4602 19.7602 31.3146C19.8412 31.2337 19.8897 31.1204 19.9545 31.0233C20.1651 30.732 20.57 30.6511 20.9263 30.554C21.2826 30.4569 21.6713 30.2951 21.7685 29.939C21.8657 29.6154 21.6713 29.3079 21.4931 29.0166C21.3312 28.7415 21.153 28.4016 21.2664 28.0942C21.3474 27.8676 21.6228 27.7057 21.8657 27.7381C22.1248 27.7866 22.4649 28.0942 22.4487 28.3369C22.6106 28.8062 23.2099 28.9195 23.6958 28.9195C24.3437 28.9195 24.9753 28.8709 25.6069 28.7576C26.028 28.6767 26.4491 28.5797 26.7893 28.3369C27.0808 28.1103 27.3237 27.7867 27.6638 27.641C28.0849 27.4468 28.587 27.5763 29.0405 27.463C29.413 27.3659 29.7045 27.107 29.996 26.848C30.2714 26.5891 30.5629 26.3302 30.9355 26.2331C31.2918 26.1198 31.7452 26.2007 31.9396 26.5406C32.1663 26.9451 31.9072 27.4792 32.0692 27.9323C32.879 27.7867 33.6402 27.3983 34.2394 26.848C34.4338 26.67 34.6119 26.4596 34.6929 26.2169C34.7739 25.958 34.7577 25.6505 34.9035 25.4239C35.0168 25.2783 35.1788 25.1974 35.3407 25.1326C35.5189 25.0517 35.7133 24.987 35.859 24.8737C36.2801 24.5662 36.2963 23.9513 36.1992 23.4334C36.1344 23.1421 36.0372 22.8184 35.778 22.6404C35.6161 22.5433 35.4217 22.511 35.2435 22.43C35.0816 22.3491 34.9035 22.2844 34.9682 22.1064C34.6767 21.6532 34.7415 21.1192 35.1302 20.747C35.4217 20.488 35.8104 20.3747 36.1667 20.2129C36.523 20.0349 36.8632 19.7274 36.847 19.339C36.8308 18.983 36.5393 18.7241 36.3449 18.4328C36.021 17.8987 36.0696 17.2191 36.102 16.6041C36.1559 15.9783 36.2045 15.358 36.2477 14.743C36.2639 14.5488 36.2963 14.3222 36.4744 14.2413C36.5716 14.209 36.6688 14.2251 36.766 14.2413C37.1385 14.2899 37.5272 14.3061 37.9159 14.2413C38.0292 14.2251 38.1588 14.209 38.256 14.1281C38.3694 14.0148 38.3856 13.8367 38.3856 13.6749C38.4018 12.8658 38.2236 12.008 38.5961 11.2798C38.8715 10.7296 39.406 10.3573 39.7623 9.85567C40.2481 9.17597 40.3777 8.26975 40.1833 7.46059C40.0051 6.63524 39.5355 5.89079 38.9525 5.29202C38.6447 4.96835 38.2884 4.66087 38.1265 4.24011C37.9807 3.88408 38.0131 3.4957 38.0131 3.12348C38.0131 2.6272 37.9861 2.13629 37.9321 1.6508C37.8835 1.34332 37.8188 1.00348 37.5758 0.793099C37.2357 0.501802 36.7336 0.582722 36.2963 0.696004C36.1829 0.712187 36.0533 0.760737 35.9886 0.857836C35.8266 1.10058 36.1667 1.35951 36.2963 1.61844C36.442 1.87737 36.3449 2.23341 36.102 2.39524C35.859 2.57325 35.4865 2.50851 35.2922 2.28195C35.2922 1.90973 34.952 1.60226 34.5957 1.58608C34.2394 1.58608 33.8993 1.87736 33.8345 2.21721C33.7697 2.50851 33.8669 2.84837 33.6563 3.05875C33.462 3.26913 33.1219 3.20439 32.879 3.33385C32.7332 3.41477 32.6198 3.56042 32.4902 3.65752C32.2959 3.7708 32.0529 3.78699 31.9396 3.965C31.8748 4.0621 31.8586 4.19158 31.8586 4.30486C31.8424 4.53143 31.8748 4.77416 32.0367 4.93599C32.1177 5.00073 32.2473 5.04928 32.3607 5.01691C32.555 5.14637 32.7656 5.3082 32.8303 5.53476C32.8465 5.63186 32.8465 5.74514 32.8303 5.85843C32.7979 6.05263 32.7332 6.24682 32.6198 6.42484C32.4417 6.76469 32.1177 7.07217 32.1825 7.44439C32.2149 7.73569 32.474 7.94607 32.7331 8.09172C32.8141 8.15645 32.9113 8.20499 32.9761 8.28591C33.0571 8.38301 33.0733 8.49629 33.0895 8.60957C33.1543 9.17598 32.9761 9.7586 32.6198 10.2117C32.6198 10.2117 32.4093 10.4868 32.2149 10.7134C31.7452 11.2151 31.5509 11.9433 31.2594 12.5745Z" fill="#F1F1F1" stroke="#BABABA" stroke-width="1.18548" stroke-linecap="round" stroke-linejoin="round"/>
</svg>
