<svg width="41" height="40" viewBox="0 0 41 40" fill="none" xmlns="http://www.w3.org/2000/svg">
<path d="M39.3847 30.9008C39.3199 30.9979 39.2228 31.0788 39.1418 31.1597C38.8017 31.5319 38.6883 32.1307 38.8988 32.6C38.8665 32.9237 38.9474 33.1988 39.0932 33.4739C38.8664 33.7652 38.6073 34.0565 38.3643 34.3316C38.2348 34.4934 38.0728 34.6553 37.8785 34.7362C37.6841 34.8171 37.4574 34.8009 37.2306 34.8009C37.1496 34.7848 37.0687 34.7848 36.9877 34.8009C36.68 34.8819 36.599 35.2541 36.4856 35.5292C36.3236 35.9338 36.0321 36.2412 35.692 36.5002C35.3519 36.7429 34.9632 36.9371 34.5907 37.1475C34.3208 37.2985 34.0508 37.4657 33.7809 37.6492C33.538 37.811 33.2788 37.989 33.1331 38.2318C32.9549 38.5069 32.8901 38.8791 32.631 39.0571C32.3718 39.2513 31.9993 39.2027 31.7402 39.0247C31.4649 38.8467 31.2867 38.5878 31.1086 38.3127C30.925 38.0538 30.7415 37.7894 30.5579 37.5197H1.61564V9.28001C1.61564 8.94016 1.48609 8.6165 1.22695 8.38993C1.11898 8.29283 1.02175 8.18494 0.935374 8.06627C0.62765 7.6455 0.481886 7.04676 0.692434 6.56126C0.983962 5.91393 1.7776 5.59024 1.93956 4.91054C1.98815 4.7649 1.98818 4.61928 1.97198 4.45745C1.97198 4.32798 1.93959 4.19851 1.891 4.08523C1.77763 3.82629 1.51843 3.64826 1.34027 3.4217C1.12973 3.14658 1.01639 2.80675 1.04878 2.46691C1.08117 2.12706 1.25931 1.80337 1.51845 1.59299C1.68041 1.44734 1.8748 1.36643 2.05296 1.23697C2.21492 1.13987 2.37687 0.994219 2.44165 0.832387C2.49564 0.875543 2.54962 0.907925 2.60361 0.929502C2.73318 1.01042 2.87896 1.02658 3.02472 1.02658C3.60778 1.01039 4.17459 0.735312 4.75764 0.654396C5.3407 0.557297 5.93997 0.638213 6.47444 0.897144C8.06164 0.751495 9.38975 1.90047 10.8798 2.40215C12.1107 2.80673 13.4387 2.74203 14.6696 3.16279C15.0745 3.29226 15.4794 3.48645 15.9167 3.48645C16.1758 3.48645 16.4188 3.42171 16.6779 3.35698C17.9574 2.96859 19.1721 2.386 20.2572 1.62539C20.8889 1.18844 21.5205 0.686754 22.2817 0.605838C23.3993 0.476373 24.4358 1.33408 25.5533 1.33408C25.8124 1.33408 26.104 1.3017 26.2821 1.47972C26.5898 1.80338 26.2335 2.41833 26.5413 2.72581C26.768 2.93619 27.0758 2.82292 27.3835 2.69345C27.3673 2.87147 27.3511 3.04949 27.3511 3.22751C27.3673 3.53499 27.4645 3.84249 27.5454 4.13378C27.729 4.78111 27.864 5.43381 27.9503 6.09193C28.0259 6.599 28.0637 7.11147 28.0637 7.62933C27.9665 7.61315 27.8694 7.66169 27.7884 7.7426C27.7074 7.85589 27.675 8.01773 27.675 8.16338C27.675 8.82689 28.1284 9.3933 28.3066 10.0245C28.4686 10.5909 28.3876 11.1897 28.582 11.7399C28.7763 12.371 29.2946 12.8403 29.7805 13.2934C30.0234 13.52 30.2826 13.7628 30.4769 14.0379C30.7199 14.3777 30.8818 14.8147 31.2543 14.9765C31.5458 15.2031 31.7402 15.5267 31.8536 15.8828C32.0317 16.4977 31.8697 17.1774 32.1289 17.76C32.2099 17.9704 32.3557 18.1646 32.5014 18.3588C32.8469 18.8227 33.1924 19.292 33.538 19.7667C33.6513 19.9124 33.7809 20.0742 33.8457 20.2522C33.9104 20.4302 33.9105 20.6245 33.9429 20.8025C34.0238 21.2556 34.2182 21.6925 34.3963 22.1133C34.6716 22.7606 34.9956 23.4565 35.5948 23.8287C36.437 24.379 36.9877 25.3823 36.9715 26.3857C36.9553 26.7255 36.8905 27.0654 37.0201 27.389C37.1011 27.6318 37.2954 27.826 37.4736 28.0202C37.9486 28.5057 38.4238 28.9911 38.8988 29.4766C39.0932 29.6708 39.2875 29.8812 39.4009 30.124C39.5142 30.3667 39.5305 30.6742 39.3847 30.9008Z" fill="#F1F1F1" stroke="#BABABA" stroke-width="1.18548" stroke-linecap="round" stroke-linejoin="round"/>
</svg>
