<svg width="40" height="18" viewBox="0 0 40 18" fill="none" xmlns="http://www.w3.org/2000/svg">
<path d="M38.799 6.25838C38.4589 6.54968 37.9569 6.56585 37.5034 6.6144C35.7866 6.79242 34.1346 7.68249 33.0657 9.04188C32.8227 9.34936 32.5959 9.67302 32.2882 9.8834C31.8671 10.1585 31.3327 10.1909 30.8306 10.2071C30.3339 10.2179 29.8319 10.2179 29.3244 10.2071C28.7251 10.1909 28.1421 10.11 27.559 10.2394C27.4943 10.2556 27.4294 10.2718 27.3647 10.3204C27.2999 10.3689 27.2513 10.466 27.2189 10.5469C27.0569 10.903 26.9112 11.259 26.7168 11.5988C26.3929 12.1329 25.907 12.586 25.3077 12.7964C24.7247 13.0068 24.0283 12.9582 23.4938 12.6184C23.3319 12.5213 23.1861 12.3756 23.008 12.2947C22.5221 12.052 21.939 12.23 21.4369 12.4565C20.8215 12.7317 20.2384 13.0553 19.6553 13.3951L17.8414 14.4632C17.5985 14.6089 17.3555 14.7546 17.1774 14.9649C16.8535 15.3695 16.8372 15.9359 16.8211 16.4538C16.8211 16.7775 16.8211 17.0957 16.8211 17.4086C16.5133 17.3924 16.2056 17.3277 15.9141 17.2306C15.4606 17.0849 14.991 16.8745 14.5213 17.004C14.2297 17.0849 13.9706 17.2953 13.679 17.3277C13.1932 17.36 12.8045 16.9231 12.3186 16.8907C12.0109 16.8745 11.7356 17.0364 11.444 17.1173C10.7314 17.36 9.90538 17.2306 9.30612 16.7775C8.88503 16.4538 8.44775 15.9521 7.94568 16.1139C7.55697 16.2272 7.39503 16.6642 7.07111 16.8907C6.66621 17.182 6.09932 17.0687 5.66203 16.8745C5.20854 16.6803 4.77125 16.3891 4.28537 16.3405C3.79949 16.2758 3.31361 16.4538 2.82773 16.5509C2.34185 16.648 1.79117 16.648 1.43486 16.3081C1.02996 15.9359 1.02996 15.3048 1.02996 14.7546C1.04615 14.1558 0.949024 13.4599 0.592712 12.9906C0.60351 12.9906 0.619674 12.9852 0.641269 12.9744C1.01378 12.7964 1.09479 12.2947 1.15957 11.8901C1.22436 11.4856 1.45107 10.9839 1.85597 10.9839C2.30946 10.9677 2.60095 11.5341 3.03824 11.5503C3.47554 11.5665 3.7347 11.0971 4.04243 10.7735C4.43113 10.3527 5.09514 10.1747 5.6296 10.4013C6.16407 10.6278 6.52038 11.2752 6.35842 11.8254C6.19646 12.3594 5.66199 12.6993 5.14372 12.8773C4.836 12.9744 4.4959 13.0553 4.26916 13.2819C4.02622 13.5084 3.96146 13.9454 4.2206 14.1234C4.33397 14.2205 4.47973 14.2367 4.6255 14.2367C4.99801 14.2529 5.40289 14.2043 5.66203 13.9454C5.7754 13.8321 5.85636 13.6703 5.96973 13.557C6.35844 13.1362 7.02246 13.1362 7.57312 13.2981C8.12379 13.4599 8.62586 13.7674 9.19272 13.8321C9.75958 13.913 10.4236 13.6703 10.5694 13.12C10.618 12.9258 10.618 12.7155 10.7476 12.5698C10.9257 12.3594 11.2334 12.4242 11.4926 12.4565C11.9299 12.5051 12.3834 12.4565 12.8045 12.2947C13.2418 12.1329 13.6953 11.7445 13.6305 11.2752C13.5981 11.0162 13.4037 10.7896 13.177 10.644C12.3348 10.0776 11.0553 10.2556 10.4236 9.46264C10.1969 9.18753 10.0674 8.78295 9.74345 8.6373C9.38714 8.49165 8.98224 8.68585 8.69071 8.94479C8.39918 9.18753 8.1238 9.49502 7.75129 9.57593C6.84432 9.78631 6.19653 8.60493 5.28955 8.41073C4.93324 8.346 4.4473 8.31364 4.4149 7.97379C4.39871 7.69868 4.70648 7.55302 4.94942 7.43974C6.09933 6.87333 6.82814 5.61104 6.87673 4.34875C6.87673 4.34875 6.87673 4.34336 6.87673 4.33258C7.3788 3.5396 8.20477 2.95701 9.11174 2.69808C10.0673 2.42296 10.9743 2.60097 11.8813 2.98936C12.7882 3.39394 13.7763 3.62052 14.7642 3.66907C15.0881 3.68525 15.4444 3.65289 15.655 3.42632C15.8493 3.19976 15.8493 2.87608 15.8817 2.58478C15.9465 1.96982 16.2056 1.37104 16.6753 0.982643C17.1612 0.594247 17.8576 0.464781 18.3921 0.739895C18.7322 0.91791 18.9751 1.20922 19.2667 1.43578C19.7201 1.79181 20.2708 1.96983 20.8215 2.16402C21.7771 2.4715 22.8298 2.77899 23.753 2.37441C24.0121 2.26113 24.2388 2.08312 24.5141 1.96983C24.9676 1.79182 25.4697 1.82417 25.9718 1.85654C28.2824 1.98601 30.5931 2.12086 32.9037 2.26112C33.5516 2.30967 34.2156 2.34204 34.8148 2.5686C35.8838 2.97318 36.7097 3.92799 37.8111 4.2031C38.2484 4.3002 38.6695 4.30021 39.1068 4.23548C39.1283 4.38652 39.1499 4.53216 39.1715 4.67242C39.2363 5.22265 39.2201 5.88617 38.799 6.25838Z" fill="#77B341" fill-opacity="0.8" stroke="#BABABA" stroke-width="1.18548" stroke-linecap="round" stroke-linejoin="round"/>
</svg>
