<svg width="17" height="23" viewBox="0 0 17 23" fill="none" xmlns="http://www.w3.org/2000/svg">
<path d="M8.49585 19.8892C8.72259 19.9216 8.94929 19.8245 9.09505 19.6626C9.15984 19.5979 9.2246 19.5008 9.32178 19.4523C9.45135 19.3875 9.61332 19.4199 9.74289 19.4847C9.85626 19.5656 9.96968 19.6465 10.1154 19.7112C10.5851 19.9216 11.1358 19.5655 11.6541 19.6141C12.1723 19.6788 12.5448 20.0996 12.8688 20.5042C13.1279 20.817 13.387 21.1299 13.6461 21.4428C13.8405 21.6855 14.0348 21.9283 14.2778 22.0901C14.5369 22.2681 14.8446 22.3652 15.1523 22.2843C15.4277 22.2196 15.6382 22.0092 15.8164 21.7988C15.9622 21.6208 16.0917 21.4266 16.1403 21.2001C16.1889 21.0059 16.0917 20.7793 15.9946 20.6013C15.8812 20.4233 15.7354 20.2129 15.5572 20.0834C15.3953 19.954 15.2172 19.8568 15.0228 19.7436C14.6827 19.5332 14.3102 19.2257 14.3264 18.8211C14.3264 18.6593 14.3911 18.4975 14.4235 18.3356C14.4559 18.1738 14.456 17.9796 14.4074 17.8178C14.3912 17.753 14.375 17.6883 14.3264 17.6398C14.2616 17.5588 14.1644 17.5427 14.0835 17.5427C13.4842 17.4618 12.8849 17.6559 12.2857 17.6074C12.2371 17.6074 12.1885 17.5912 12.1399 17.575C12.0914 17.5427 12.0427 17.4941 12.0265 17.4456C11.8484 17.1057 11.8808 16.6688 11.6379 16.4099C11.4111 16.1671 11.0386 16.1509 10.7147 16.1995C10.245 16.2642 9.77533 16.4746 9.46761 16.8306C9.32184 16.9924 9.19226 17.1866 9.0465 17.3484C8.88454 17.5103 8.65776 17.6236 8.44721 17.5912C8.26906 17.5588 8.0747 17.3485 7.96133 17.2028C7.91274 17.1381 7.89656 17.0572 7.89656 16.9763C7.92896 16.7659 7.92897 16.5231 7.91278 16.3127C7.89658 15.8596 7.91274 15.3255 8.28525 15.0828C8.52819 14.921 8.86836 14.9048 8.98173 14.5973C9.03032 14.4517 8.99792 14.2898 8.90075 14.1604C8.72259 13.8853 8.39867 13.8043 8.09095 13.7881C7.78322 13.7558 7.44308 13.772 7.24872 13.5454C7.15155 13.4321 7.10295 13.3027 7.07055 13.157C6.90859 12.4611 7.03819 11.7005 7.4269 11.1179C7.99376 10.2602 9.03025 9.79093 9.48374 8.88467C9.85625 8.15642 9.80772 7.28252 9.62957 6.48955C9.46761 5.69657 9.19223 4.90357 9.17603 4.07823C9.17603 3.7222 9.20842 3.3338 9.01407 3.02632C8.9007 2.83212 8.72256 2.70269 8.5444 2.57322C7.7562 1.99063 6.96798 1.41339 6.17977 0.841589C6.0664 0.760673 5.95301 0.679765 5.83964 0.647398C5.69388 0.598849 5.53195 0.582658 5.38619 0.598841C4.64117 0.631207 3.81517 1.00345 3.68561 1.76406C3.68561 1.90971 3.7018 2.03915 3.68561 2.1848C3.65321 2.70266 3.2969 3.10724 3.03777 3.56037C2.94059 3.70602 2.87584 3.86788 2.82725 4.02971C2.73007 4.35337 2.74622 4.69321 2.77861 5.03306C2.8272 6.00405 2.84343 6.95884 2.89202 7.92983C2.89202 8.41533 2.85961 8.90082 2.63287 9.33776C2.42232 9.75853 1.88788 10.0822 1.45059 9.90418C1.30483 9.83944 1.17524 9.74238 1.02948 9.69383C0.883715 9.64528 0.689364 9.66145 0.62458 9.8071C0.559796 9.9042 0.608399 10.0336 0.640791 10.1469C0.899927 10.9399 1.09428 11.7491 1.20765 12.5744C1.27244 13.0437 1.30481 13.5131 1.51536 13.9338C1.64493 14.1766 1.83923 14.4031 1.9526 14.6621C2.06598 14.9048 2.11458 15.1799 2.29274 15.3903C2.51948 15.6492 2.95676 15.6978 3.24828 15.5036C3.41024 15.3903 3.52361 15.1961 3.65318 15.0181C3.87993 14.7106 4.17149 14.4355 4.57639 14.4193C4.81933 14.4193 5.06228 14.5326 5.15946 14.7591C5.33761 15.1313 5.01371 15.5359 4.68979 15.7787C4.38207 16.0052 4.00953 16.2318 3.92855 16.6202C3.84757 16.9924 4.09051 17.3646 4.33345 17.6721C4.57639 17.9472 4.98129 18.368 5.22423 18.6431C5.41858 18.8697 5.93687 19.0153 6.2122 18.9182C6.48753 18.805 6.74667 18.6269 7.022 18.5784C7.4107 18.4975 7.7994 18.6269 8.15572 18.7564C8.18811 18.7726 8.23671 18.7887 8.25291 18.8049C8.2691 18.8535 8.26904 18.902 8.26904 18.9344C8.22045 19.1124 8.10708 19.2581 8.10708 19.4361C8.09088 19.6465 8.2853 19.8407 8.49585 19.8892Z" fill="#F1F1F1" stroke="#BABABA" stroke-width="1.18548" stroke-linecap="round" stroke-linejoin="round"/>
</svg>
