<svg width="32" height="48" viewBox="0 0 32 48" fill="none" xmlns="http://www.w3.org/2000/svg">
<path d="M31.2311 34.5636C31.0853 34.0943 30.8262 33.6411 30.4051 33.3984C30.1298 33.2366 29.8058 33.1718 29.4981 33.1556C28.3158 33.0747 27.0849 33.4631 26.1779 34.2399C25.9998 34.3856 25.7892 34.5636 25.5787 34.6607C25.271 34.8063 24.9147 34.5312 24.9794 34.1914C25.1414 33.2204 26.4209 32.3303 26.0969 31.3431C25.9836 30.9871 25.6758 30.7282 25.4491 30.4369C24.7527 29.5468 24.7365 28.3169 24.2992 27.2812C23.8781 26.2616 23.0035 25.4201 21.967 25.0479C21.1572 24.7404 20.1692 24.6271 19.7319 23.8989C19.4242 23.3972 19.489 22.766 19.4728 22.1835C19.4566 20.9859 19.0679 19.7883 18.3715 18.8173C18.2257 18.607 18.0637 18.4128 17.8532 18.2833C17.3349 17.9758 16.6871 18.1538 16.0878 18.2186C15.4076 18.2995 14.5168 18.0567 14.5978 17.2314C14.614 16.9886 14.7435 16.7621 14.9055 16.5679C16.104 15.257 17.1567 13.8167 18.0313 12.2632C18.5496 11.3731 19.0031 10.2726 18.0799 9.39873C17.675 9.02652 17.1406 8.84849 16.5899 8.81612C14.6626 8.75139 12.7029 8.96178 10.8403 9.44727C10.6298 9.512 10.4192 9.31781 10.484 9.10743C10.727 8.28209 11.391 7.5862 12.217 7.34346C12.7029 7.19781 13.2697 7.19782 13.707 6.90652C13.9338 6.76087 14.0957 6.46957 14.1119 6.19445C14.1281 6.06499 14.1119 5.93551 14.0471 5.82223C13.95 5.67658 13.8204 5.61187 13.7718 5.43385C13.7556 5.35294 13.7394 5.27202 13.707 5.1911C13.6422 5.06164 13.5451 4.98072 13.4317 4.88362C13.3345 4.8027 13.2535 4.68941 13.1564 4.59231C13.0916 4.5114 13.0268 4.43048 13.0268 4.34957C13.0106 4.13918 13.2535 4.00972 13.4479 4.0259C13.788 4.0259 14.1281 4.25246 14.452 3.79933C14.614 3.58895 14.6626 3.33002 14.6788 3.07109C14.6788 2.84452 14.7274 2.53704 14.5654 2.34285C14.4844 2.24575 14.371 2.1972 14.2739 2.1001C14.0471 1.88972 14.0471 1.5337 13.9985 1.22622C13.95 0.918741 13.7394 0.562707 13.4317 0.595073C13.1564 0.62744 13.0106 0.951107 12.9782 1.22622C12.962 1.50134 12.9944 1.79263 12.8648 2.03538C12.6705 2.40759 12.1846 2.47232 11.8445 2.71507C11.4234 3.00636 11.2452 3.60515 11.4234 4.07446C11.4558 4.18774 11.5044 4.30102 11.4882 4.39812C11.4558 4.52759 11.3424 4.6085 11.229 4.64087C10.7107 4.85125 10.0953 4.65705 9.60942 4.88362C9.23691 5.06163 8.9454 5.45003 8.5405 5.45003C8.1356 5.45003 7.84407 5.02926 7.43917 4.8998C7.11525 4.78652 6.74274 4.91599 6.46741 5.12637C6.20827 5.33675 6.0139 5.64423 5.83574 5.93553C5.75476 6.08118 5.67378 6.22681 5.51182 6.30773C5.34986 6.38864 5.12313 6.3401 4.96117 6.45338C4.81541 6.56666 4.7992 6.79324 4.86398 6.98743C4.92877 7.16545 5.07453 7.3111 5.1879 7.45675C5.44704 7.81278 5.57662 8.39536 5.20411 8.63811C4.76682 8.94559 4.00561 8.4601 3.66549 8.86468C3.60071 8.9456 3.56833 9.05889 3.55213 9.15599C3.45495 9.60911 3.53593 10.1108 3.79507 10.5154C3.89225 10.6772 4.03802 10.839 4.08661 11.0332C4.13519 11.2274 4.03802 11.4702 3.84367 11.5025C3.73029 11.5349 3.60071 11.4702 3.50353 11.3893C2.98526 10.9685 2.82331 10.1917 2.25645 9.83567C1.88394 9.62529 1.38185 9.64148 1.02554 9.90041C0.669227 10.1432 0.507283 10.6286 0.636851 11.0494C0.717831 11.3407 0.912183 11.5834 1.12273 11.81C1.62481 12.3926 2.19167 13.0076 2.95289 13.0723C3.19583 13.1047 3.48735 13.1047 3.60073 13.3151C3.68171 13.4931 3.55211 13.7196 3.37396 13.8167C3.212 13.93 3.00144 13.9624 2.83948 14.0757C2.17545 14.4479 2.20787 15.4189 2.22407 16.1148C2.22407 16.3251 2.30505 16.5355 2.46701 16.6973C2.77473 16.9886 3.08242 16.7783 3.40634 16.7459C3.63309 16.7297 3.92462 16.8915 3.85984 17.1181C3.84364 17.1828 3.79506 17.2314 3.74647 17.2799C3.53593 17.4741 3.27678 17.6036 3.05004 17.7654C2.88808 17.8787 2.72612 18.0244 2.56416 18.17C2.46698 18.2563 2.36442 18.3426 2.25645 18.4289C2.01351 18.6555 1.75437 18.8821 1.56001 19.1572C1.41425 19.3352 1.54381 19.578 1.75436 19.6103C2.07828 19.6427 2.4832 19.4647 2.79093 19.2867C3.32539 19.0277 4.19996 18.9468 4.15137 19.7236C4.15137 19.8854 4.0704 20.0311 3.95703 20.1606C3.61691 20.549 3.40637 21.2286 3.79507 21.6818C3.95703 21.876 4.21614 21.9569 4.45908 21.8921C4.92877 21.7465 4.84781 21.1639 5.17173 20.8888C5.51185 20.6137 6.20825 20.6946 6.24064 20.2738C6.25684 19.8854 5.64142 19.7236 5.7062 19.2867C5.7386 19.0763 5.94913 18.9306 6.17587 18.9468C6.56458 18.9468 6.80753 19.2543 7.00188 19.5456C7.37439 20.0958 7.64969 20.7593 7.45534 21.3905C7.2286 22.0864 6.4512 22.5233 6.25685 23.2192C6.0625 23.9312 6.54839 24.6433 7.27721 24.7566C8.08701 24.8698 8.67007 24.0283 9.43128 24.0607C9.78759 24.0607 10.1439 24.2711 10.484 24.1416C10.8889 23.996 10.9861 23.4781 11.2452 23.1221C11.7635 22.3938 13.124 22.4747 13.4317 23.4134C13.4965 23.5914 13.4965 23.7856 13.4317 23.9636C13.1887 24.4977 12.4275 24.4167 12.055 24.8213C11.5853 25.3553 12.1522 26.1645 12.719 26.5853C13.3021 27.006 14.0147 27.5401 13.8852 28.236C13.7718 28.7376 13.2211 29.126 13.3021 29.6277C13.3345 29.8705 13.4802 30.0808 13.6098 30.2912C13.7718 30.5502 13.5774 30.8738 13.2697 30.8738L9.73899 30.7929C9.35029 30.7767 8.9454 30.7929 8.65387 31.0195C8.32995 31.2784 8.24895 31.7153 8.23276 32.1199C8.20036 32.6863 8.29755 33.3013 8.68625 33.6897C9.2855 34.2723 10.322 34.159 10.8565 34.9196C11.0185 35.1624 11.0509 35.5022 10.8727 35.745C10.6622 36.0686 10.3059 36.0363 9.98193 36.0039C9.13974 35.9068 8.29755 35.8097 7.47155 36.0201C6.62936 36.2305 5.81955 36.8292 5.67378 37.7031C5.57661 38.3181 5.88435 38.933 6.41881 39.2243C7.01806 39.548 7.48776 39.192 8.00603 39.0787C8.63767 38.9492 9.28551 39.2082 9.86857 39.4509C10.3706 39.6613 10.9375 39.985 10.9051 40.519C10.8727 40.7779 10.727 40.9883 10.5164 41.1178C9.91716 41.5224 9.13974 41.2958 8.52429 41.6195C7.35818 42.2182 7.69831 44.0955 6.75894 45.0018C6.25687 45.4711 5.52803 45.5681 4.91258 45.8756C4.60485 46.0213 4.54009 46.4097 4.76683 46.6524C5.00977 46.8952 5.39845 47.0408 5.75476 46.9923C6.32162 46.9275 6.79134 46.5553 7.24482 46.1831C7.68212 45.8271 8.15178 45.4549 8.71864 45.3901C9.94953 45.2445 11.2776 46.5877 12.2656 45.8433C13.043 45.2607 12.962 43.6747 14.1605 43.8366C14.4034 43.8689 14.6464 43.9822 14.8407 44.1279C15.9097 44.9208 17.5941 44.1764 17.8532 42.9303C17.918 42.6228 17.9342 42.2668 18.2743 42.1211C18.4848 42.0402 18.744 42.1211 18.9059 42.3153C19.2946 42.7361 19.1974 43.3187 19.4404 43.8042C19.7481 44.4353 20.5417 44.6781 21.2381 44.5648C21.9346 44.4677 22.55 44.0793 23.1655 43.7556C23.3922 43.6262 23.619 43.4967 23.8781 43.4644C24.3964 43.3673 24.9146 43.6424 25.4329 43.7395C27.0687 44.0308 28.5587 42.7037 29.741 41.6356C29.9516 41.4253 30.065 41.134 29.984 40.8588C29.8058 40.1468 28.8341 40.4057 28.1214 40.2762C27.6518 40.1953 27.506 39.5804 27.8785 39.2729C28.2348 38.9978 28.8017 38.8359 29.2552 38.6579C30.7938 38.043 31.717 36.1495 31.2311 34.5636Z" fill="#77B341" stroke="#BABABA" stroke-width="1.18548" stroke-linecap="round" stroke-linejoin="round"/>
</svg>
