<svg width="35" height="25" viewBox="0 0 35 25" fill="none" xmlns="http://www.w3.org/2000/svg">
<path d="M33.1593 14.5965C32.8354 14.904 32.3981 15.0982 31.9932 15.2924C31.7826 15.3895 31.5558 15.4866 31.3291 15.4381C31.1347 15.3895 30.989 15.2601 30.8271 15.1468C30.487 14.904 30.0496 14.7746 29.6609 14.904C29.1427 15.0659 28.9483 15.5675 29.1751 16.0369C29.2722 16.2311 29.3694 16.4414 29.5152 16.6194C29.661 16.7975 29.8715 16.9107 30.0011 17.1049C30.163 17.3801 30.1468 17.7199 30.0658 18.0436C30.0173 18.1892 29.9687 18.351 29.9849 18.5129C30.0173 18.6262 30.0658 18.7394 30.1144 18.8365C30.2926 19.1278 30.4546 19.4191 30.6489 19.6943C30.8109 19.9208 30.989 20.115 31.151 20.3416C30.9027 20.32 30.6597 20.2607 30.4222 20.1636C30.0011 20.0179 29.5152 19.9532 29.0779 19.937C28.6244 19.9208 28.1547 19.9855 27.766 20.2121C27.2153 20.5358 26.8752 21.1669 26.7457 21.7981C26.6161 22.413 26.6647 23.0765 26.7132 23.7077C26.4865 23.9504 26.0816 23.8371 25.8387 23.6106C25.5957 23.4002 25.4176 23.1089 25.1099 22.9794C24.3001 22.6072 23.3607 23.6753 22.5509 23.3193C22.0488 23.0927 21.8059 22.3483 21.239 22.3159C20.7046 22.2997 20.3159 22.9794 19.7976 22.8985C19.3927 22.85 19.1821 22.3968 18.7934 22.2836C18.3399 22.1379 17.9026 22.5263 17.4815 22.7529C16.8985 23.0442 16.1697 23.028 15.6029 22.7043C15.2303 22.4778 14.9388 22.1541 14.5501 21.9599C13.6755 21.5391 12.5741 21.9599 11.651 21.6362C11.3594 21.5391 11.0842 21.3611 10.8088 21.2155C9.64271 20.6005 8.266 20.6167 6.95413 20.6491C6.11194 20.6653 5.22116 20.6976 4.52473 21.1669C4.2494 21.3449 4.02267 21.5877 3.73114 21.7495C3.24526 22.0408 2.58121 22.1217 2.25729 22.5911C2.2033 22.6666 2.16556 22.7421 2.14397 22.8176C2.04679 22.7529 1.95498 22.6828 1.8686 22.6072C1.60947 22.3321 1.47992 21.9275 1.64188 21.5877C1.70666 21.4744 1.80382 21.3773 1.8686 21.264C2.11154 20.8756 2.04676 20.3254 1.70664 20.0179C1.36653 19.6943 0.751127 19.6133 0.62156 19.144C0.524384 18.8527 0.70254 18.5291 0.945479 18.3187C1.18842 18.1245 1.47993 17.995 1.73907 17.8332C2.16016 17.5581 2.46786 17.1535 2.75938 16.7489C2.87276 16.6194 2.96995 16.4738 3.01853 16.312C3.06712 16.1501 3.03473 15.9721 3.01853 15.8103C2.82418 14.5642 2.32211 13.3666 1.5609 12.3633C1.43133 12.1852 1.30176 11.9749 1.39894 11.7968C1.44752 11.6997 1.57712 11.635 1.6743 11.5703C1.85246 11.4408 1.94963 11.2466 1.99822 11.0362C2.20337 11.1226 2.4139 11.2089 2.62985 11.2952C3.43965 11.6188 4.39518 11.8939 5.18878 11.4894C5.60988 11.279 5.93383 10.923 6.27394 10.6155C6.63026 10.308 7.08371 10.0329 7.5372 10.1138C8.00688 10.1785 8.5414 10.5508 8.88152 10.2271C9.04348 10.0653 9.05961 9.80632 9.05961 9.57976C9.04341 8.68968 9.01108 7.75105 9.44838 6.95807C9.95045 6.05181 10.5173 5.82526 11.4405 5.71197C11.732 5.66342 12.0559 5.51778 12.2988 5.37213C12.7037 5.14557 12.9791 4.61151 12.6389 4.20693C12.558 4.10983 12.4608 4.0451 12.396 3.948C12.2664 3.70525 12.3636 3.43014 12.5417 3.20358C12.6227 3.10648 12.7037 3.00939 12.7847 2.92847C13.3515 2.39443 13.9832 1.82801 14.7606 1.82801C15.1493 1.82801 15.5542 1.98985 15.9429 1.87657C16.526 1.69855 16.7689 0.970295 17.3196 0.711364C17.5625 0.598081 17.8379 0.581906 18.097 0.598089C18.2158 0.608878 18.3345 0.625049 18.4533 0.646627C19.4142 0.776093 20.3698 0.905562 21.32 1.03503C21.5144 1.05121 21.7249 1.08358 21.8869 1.19686C22.1946 1.40724 22.2432 1.81183 22.389 2.13549C22.5347 2.45916 22.9234 2.78281 23.2311 2.57243C23.3121 2.07075 23.9437 1.89274 24.462 1.90892C25.5633 1.95747 26.7294 2.39442 27.2801 3.34923C27.4745 3.70526 27.5717 4.09366 27.6689 4.48206C27.847 5.24267 28.0413 6.01945 27.9442 6.79624C27.9118 7.05517 27.847 7.31411 27.8632 7.58922C27.8794 8.25273 28.3977 8.78678 28.8836 9.2561C29.5962 9.95737 30.3142 10.6586 31.0376 11.3599C31.232 11.5541 31.4425 11.7645 31.6854 11.9101C32.3657 12.3633 33.3699 12.5575 33.5804 13.3504C33.6938 13.8036 33.4832 14.2729 33.1593 14.5965Z" fill="#F1F1F1" stroke="#BABABA" stroke-width="1.18548" stroke-linecap="round" stroke-linejoin="round"/>
</svg>
