<svg width="61" height="38" viewBox="0 0 61 38" fill="none" xmlns="http://www.w3.org/2000/svg">
<path d="M59.3842 22.2944C58.9631 22.4563 58.5096 22.5048 58.0723 22.4563C57.8131 22.4239 57.5054 22.3592 57.3272 22.5696C57.1977 22.7152 57.1977 22.9256 57.1491 23.1198C57.0033 23.67 56.3393 23.9128 55.7724 23.8319C55.2055 23.7671 54.7035 23.4596 54.1528 23.2978C53.6021 23.136 52.9381 23.1359 52.5494 23.5567C52.4361 23.67 52.3551 23.8318 52.2417 23.9451C51.9826 24.2041 51.5777 24.2526 51.2052 24.2364C51.0594 24.2364 50.9137 24.2202 50.8003 24.1231C50.5411 23.9451 50.6059 23.5082 50.8488 23.2816C51.0756 23.055 51.4157 22.9741 51.7234 22.877C52.2417 22.699 52.7761 22.3592 52.9381 21.8251C53.1001 21.2749 52.7438 20.6275 52.2093 20.401C51.6748 20.1744 51.0108 20.3524 50.6221 20.7732C50.3144 21.0969 50.0552 21.5662 49.6179 21.55C49.1806 21.5338 48.8891 20.9674 48.4357 20.9836C48.0308 20.9836 47.804 21.4853 47.7393 21.8899C47.6745 22.2944 47.5935 22.7961 47.221 22.9741C47.1994 22.9849 47.1832 22.9903 47.1724 22.9903C46.9133 23.0874 46.6217 23.0389 46.3626 23.1198C46.0225 23.2492 45.8281 23.6215 45.7633 23.9775C45.6985 24.3173 45.7147 24.6895 45.6176 25.0294C45.3098 26.0975 43.9655 26.5991 42.8966 26.3078C42.6051 26.2269 42.3135 26.0975 42.0058 26.0813C41.1312 26.0166 40.4187 27.0523 40.7588 27.8453C41.0503 28.5249 41.8763 28.8162 42.6213 28.8162C42.8481 28.8162 43.091 28.8001 43.2529 28.9457C43.6254 29.2694 43.1882 29.852 43.1234 30.3375C42.9938 31.3085 44.4028 32.0367 44.1275 32.9754C44.0303 33.3152 43.7388 33.5418 43.4959 33.7845C42.7509 34.4804 42.2488 35.4352 42.0707 36.4385C41.8277 36.1796 41.5038 36.0178 41.1799 35.8721C40.2891 35.4999 39.3011 35.3705 38.3294 35.4837C38.378 35.1277 38.3941 34.7879 38.3779 34.4318C38.3293 33.7845 38.1188 33.1372 37.6653 32.6679C37.147 32.1338 36.3859 31.9396 35.657 31.8101C35.2845 31.7616 34.9282 31.7131 34.5557 31.6321C33.7944 31.4541 33.0819 31.0819 32.4826 30.5802C32.0453 30.1918 31.689 29.7549 31.2355 29.3827C30.4743 28.7677 29.5349 28.444 28.6765 27.9747C27.6562 27.4245 26.7654 26.6639 25.8908 25.9195C25.5993 25.6713 25.3078 25.4232 25.0162 25.175C24.3522 24.5762 23.7044 23.9451 23.1699 23.2169C22.6354 22.4886 22.2143 21.6147 21.9228 20.7732C21.777 20.3848 21.7446 19.9641 21.6151 19.5757C21.4693 19.074 21.1292 18.5885 20.611 18.5076C20.0765 18.4266 19.623 18.8151 19.2181 19.1711C18.797 19.5109 18.2788 19.867 17.7767 19.6728C17.5337 19.5918 17.3394 19.3976 17.1288 19.2682C16.643 18.9931 16.0112 19.0416 15.6063 18.6694C15.1691 18.281 15.2177 17.6175 15.1853 17.0349C15.1205 16.0963 14.667 15.0606 13.76 14.8016C13.4361 14.7045 13.0798 14.7207 12.7559 14.6398C11.7518 14.3485 11.2011 13.0862 10.1646 12.9082C9.1928 12.7463 8.36679 13.5555 7.79993 14.3323C7.57318 14.6236 7.36264 14.9149 7.07111 15.1091C6.61762 15.3842 6.06691 15.3842 5.56483 15.5299C4.94939 15.6917 4.41498 16.0963 4.09106 16.6141C3.88051 16.9216 3.75092 17.3262 3.89668 17.666C4.07483 18.0706 4.57689 18.3295 4.52831 18.7503C4.46352 19.1873 3.89665 19.3005 3.45936 19.3005C2.49839 19.3005 1.54288 19.3005 0.592712 19.3005V3.263C1.19196 3.21445 1.80741 3.11736 2.37427 2.90698C2.69819 2.77751 3.02211 2.61566 3.34603 2.4862C3.63756 2.3891 3.94528 2.32437 4.23681 2.22727C4.56073 2.11399 4.85221 1.96835 5.15993 1.85507C5.61342 1.67706 6.06691 1.54758 6.53659 1.41811C7.76749 1.06208 9.03082 0.706056 10.3103 0.592773C10.0674 1.41812 9.56524 2.14636 9.20893 2.93934C8.80403 3.79705 8.5449 4.81659 8.96599 5.6743C9.3385 6.46728 10.2131 6.90421 11.0553 7.17932C12.3834 7.60009 13.8896 7.71337 15.1529 7.09841C15.3634 7.00131 15.5578 6.87186 15.6873 6.71003C15.8817 6.48346 15.9627 6.20833 16.1247 5.96559C16.3838 5.62574 16.7887 5.43156 17.0316 5.09171C17.145 4.91369 17.2098 4.73567 17.2908 4.54148C18.878 5.78758 19.7687 7.8752 21.2102 9.36406C21.5017 9.67154 21.858 9.96283 22.2791 9.93047C22.5059 9.91428 22.7164 9.8172 22.927 9.70392C24.3846 8.99186 26.0852 8.74909 27.6886 9.04039C28.7413 9.23459 29.8427 9.63917 30.863 9.26696C31.4946 9.0404 32.2235 8.52253 32.7418 8.95948C32.9037 9.10512 33.0008 9.31551 33.098 9.50971C33.5353 10.416 34.329 11.1604 35.2683 11.5488C35.5761 11.6621 35.9 11.7592 36.1267 12.0019C36.5802 12.5036 36.3373 13.2966 36.4021 13.9601C36.5964 15.6755 38.961 16.5979 39.0096 18.3134C39.0096 18.5723 38.961 18.8312 39.042 19.074C39.2525 19.6404 40.0138 19.7375 40.613 19.6404C41.2123 19.5433 41.8763 19.3491 42.3784 19.6889C42.8481 19.9964 42.9614 20.6275 43.2044 21.1292C43.4473 21.6471 44.1113 22.1003 44.5486 21.728C44.7268 21.5662 44.7916 21.3073 44.8725 21.0807C45.326 19.7375 46.5893 18.8474 47.8202 18.1839C49.0673 17.5042 50.4116 16.9216 51.3347 15.8535C51.5291 15.627 51.7072 15.368 51.9988 15.2386C52.2741 15.1253 52.598 15.1738 52.8571 15.0444C53.1325 14.8987 53.2945 14.6074 53.4564 14.3485C53.4078 15.6108 52.679 16.8731 51.5291 17.4395C51.2862 17.5528 50.9784 17.6984 50.9946 17.9735C51.027 18.3134 51.5129 18.3457 51.8692 18.4105C52.7762 18.6047 53.424 19.786 54.331 19.5757C54.7035 19.4947 54.9789 19.1873 55.2704 18.9445C55.5619 18.6856 55.9668 18.4914 56.3231 18.637C56.6471 18.7827 56.7766 19.1873 57.0033 19.4624C57.635 20.2553 58.9144 20.0773 59.7566 20.6437C59.9834 20.7894 60.1778 21.016 60.2102 21.2749C60.275 21.7442 59.8215 22.1326 59.3842 22.2944Z" fill="#77B341" fill-opacity="0.8" stroke="#BABABA" stroke-width="1.18548" stroke-linecap="round" stroke-linejoin="round"/>
</svg>
