<svg width="15" height="13" viewBox="0 0 15 13" fill="none" xmlns="http://www.w3.org/2000/svg">
<path d="M13.7569 5.60705C13.4978 6.33529 13.4815 7.16062 13.7245 7.90505C13.7245 7.93742 13.7299 7.96439 13.7407 7.98597C13.3952 7.99676 13.0443 8.01295 12.688 8.03453C12.5422 8.05071 12.3964 8.06688 12.2831 8.1478C12.1373 8.22872 12.0725 8.37437 11.9916 8.52002C11.7648 8.85987 11.4571 9.15117 11.0846 9.313C10.8902 9.4101 10.6635 9.47483 10.5339 9.65284C10.3882 9.84704 10.3881 10.106 10.4367 10.3487C10.4691 10.5753 10.5501 10.818 10.5177 11.0446C10.5015 11.2873 10.3233 11.5301 10.0804 11.5463C9.83745 11.5463 9.65929 11.3197 9.51353 11.1417C8.84949 10.3649 7.86155 9.96032 7.10034 9.28062C6.03141 8.342 5.39975 6.88552 4.08787 6.31911C3.84493 6.20583 3.56958 6.1249 3.42382 5.89833C3.35903 5.78505 3.32667 5.6556 3.29428 5.50995C3.08373 4.66843 2.51686 3.9078 1.73945 3.47085C1.44792 3.30902 1.10782 3.17956 0.864883 2.953C0.621943 2.71025 0.492359 2.30568 0.686711 2.03057C0.751495 1.93347 0.832507 1.86873 0.881095 1.78782C1.01066 1.57744 0.913503 1.26996 1.05927 1.05957C1.17264 0.881558 1.43171 0.849176 1.64226 0.881543C1.85281 0.930092 2.04721 1.0272 2.25775 1.07575C2.90559 1.2214 3.55343 0.865363 4.20127 0.703532C5.48076 0.379868 6.8088 0.865375 8.13687 0.897742C8.49318 0.897742 8.86574 0.881555 9.23825 0.913921C9.91848 0.994837 10.5501 1.28614 11.2303 1.38324C11.6514 1.43179 12.0887 1.4156 12.4774 1.56125C12.7204 1.64216 12.9309 1.77163 13.1738 1.86873C13.3034 2.35423 13.3682 2.83971 13.1576 3.29284C12.9957 3.64887 12.6717 4.0049 12.8337 4.36093C13.0281 4.79787 13.8055 4.83025 13.8217 5.29956C13.8217 5.39666 13.7893 5.49376 13.7569 5.60705Z" fill="#F1F1F1" stroke="#BABABA" stroke-width="1.18548" stroke-linecap="round" stroke-linejoin="round"/>
</svg>
