<svg width="44" height="40" viewBox="0 0 44 40" fill="none" xmlns="http://www.w3.org/2000/svg">
<path d="M42.3469 31.1901C42.1526 31.5299 41.8934 31.9021 41.4885 31.9345C41.2617 31.9506 41.0188 31.8212 40.8569 31.6432C40.7111 31.4651 40.6139 31.2386 40.5491 31.012C40.5329 30.8987 40.5005 30.7854 40.452 30.6722C40.371 30.5103 40.2252 30.3647 40.0795 30.2514C39.545 29.7821 38.9619 29.3128 38.2655 29.1672C38.0819 29.124 37.8984 29.1024 37.7148 29.1024C37.4719 29.1024 37.2451 29.1348 37.0346 29.2481C36.824 29.3452 36.6459 29.5232 36.5973 29.7497C36.5649 29.863 36.5649 30.0087 36.4839 30.0896C36.4192 30.1543 36.3058 30.1705 36.2248 30.2352C36.1114 30.3323 36.0952 30.4942 36.0952 30.656C36.0844 30.9689 36.0736 31.2871 36.0628 31.6108C36.0466 31.7241 36.0466 31.8374 36.079 31.9507C36.16 32.1287 36.3544 32.242 36.5164 32.3552C36.7755 32.5333 36.986 32.776 37.148 33.0511C37.2614 33.4557 37.6662 33.7632 37.6824 34.1839C37.6986 34.4267 37.5691 34.6694 37.3747 34.8151C36.986 35.1064 36.3867 35.0093 35.9818 35.3006C35.7065 35.4948 35.5607 35.8346 35.496 36.1744C35.4312 36.5143 35.415 36.8542 35.3179 37.1778C35.2693 37.3073 35.2207 37.4206 35.1397 37.5177C35.0263 37.6633 34.832 37.7604 34.67 37.8575C34.3623 38.0517 34.1032 38.3268 33.925 38.6505C33.844 38.7799 33.7792 38.9256 33.6496 39.0065C33.5525 39.0551 33.4391 39.0551 33.3257 39.0551C32.9532 39.0712 32.5645 39.0713 32.2568 38.8771C32.2082 38.8447 32.1596 38.8123 32.1272 38.7638C32.0948 38.7152 32.0949 38.6505 32.0787 38.6019C32.0463 38.3592 32.0787 38.1002 32.1597 37.8737C32.2082 37.728 32.2892 37.5824 32.3377 37.4367C32.4187 37.2264 32.4511 37.016 32.5159 36.8056C32.6131 36.5629 32.7589 36.3363 32.937 36.1583C33.3419 35.9641 33.6173 35.5757 33.6983 35.1549C33.7954 34.5885 33.5363 34.0221 33.2447 33.5366C32.9532 33.0349 32.6131 32.5494 32.4997 31.983C32.4673 31.805 32.4674 31.627 32.4026 31.4652C32.273 31.0768 31.9005 30.8017 31.5118 30.7855C31.1555 30.7693 30.7667 30.9473 30.4752 30.7531C30.2809 30.6236 30.2161 30.3809 30.1513 30.1543C30.0865 29.8792 30.0217 29.5879 29.8274 29.3775C29.714 29.248 29.552 29.151 29.4225 29.0377C29.1957 28.8597 29.0176 28.6169 28.7746 28.5036C28.224 28.2447 27.5114 28.6007 27.0255 28.2447C26.7502 28.0181 26.6854 27.6297 26.5396 27.2899C26.3777 26.9177 26.0861 26.6102 25.7298 26.416C25.2763 25.9305 24.6771 25.5907 24.0292 25.4288C23.6729 25.3479 23.3004 25.2994 22.9765 25.1537C22.7983 25.0566 22.6201 24.9271 22.4582 24.7977C21.8589 24.3931 21.1788 24.1342 20.5633 23.7619C19.5592 23.1794 18.7331 22.3216 17.9233 21.4963C17.5994 21.1565 17.2755 20.8166 17.0487 20.4282C16.9678 20.2826 16.903 20.1369 16.7735 20.056C16.6277 19.9751 16.4495 19.9913 16.2876 19.9751C15.6397 19.9104 15.1862 19.3116 14.8623 18.729C14.4898 18.0655 14.1659 17.3696 13.8905 16.6413C13.8581 16.5442 13.7933 16.4148 13.7124 16.3339C13.5342 16.1397 13.3723 15.8969 13.3237 15.6218C13.2103 15.1525 12.935 14.6994 12.6758 14.2948C12.5948 14.1653 12.5139 14.052 12.4005 13.9711C12.2386 13.8417 12.028 13.8255 11.8498 13.7446C11.3315 13.5666 10.9753 13.0972 10.457 12.9192C10.2627 12.8545 10.0359 12.8383 9.84153 12.7412C9.67957 12.6603 9.55003 12.5308 9.38807 12.4337C9.04796 12.1748 8.62681 12.0615 8.20572 12.1101C7.78462 12.1586 7.39595 12.4013 7.1854 12.7574C7.13681 12.8221 7.10445 12.903 7.05587 12.9516C7.00728 13.0163 6.94248 13.0487 6.87769 13.081C6.61856 13.2105 6.36479 13.3454 6.11645 13.4856C6.11645 13.6475 6.00306 13.7769 5.8573 13.874C5.74393 13.9711 5.59819 14.0359 5.48482 14.133C5.29047 14.2948 5.19328 14.5537 4.98273 14.667C4.78838 14.7803 4.56164 14.7479 4.33489 14.7317C4.05416 14.6994 3.76806 14.6832 3.47654 14.6832C3.39016 14.6832 3.30376 14.6886 3.21738 14.6994C3.26057 14.3973 3.30373 14.0952 3.34692 13.7931C3.36312 13.6636 3.37931 13.5504 3.34692 13.4371C3.26594 13.0972 2.87724 12.9354 2.53712 12.8869C2.197 12.8383 1.8245 12.8221 1.56536 12.5955C1.25764 12.3042 1.25764 11.8349 1.32242 11.4304C1.37101 11.0096 1.452 10.5727 1.25765 10.2166C1.0633 9.87678 0.642189 9.65021 0.593601 9.26181C0.577405 8.95433 0.820345 8.67922 1.07948 8.51739C1.33862 8.33938 1.64637 8.20991 1.84072 7.95098C2.11606 7.59495 2.05129 7.01236 1.69498 6.72106C1.45204 6.51068 1.07953 6.3974 1.04714 6.07373C1.03094 5.84717 1.24144 5.65297 1.32242 5.42641C1.33322 5.40483 1.34405 5.38325 1.35484 5.36167C2.06747 5.28615 2.78546 5.24298 3.50888 5.2322C4.10813 5.2322 4.80456 5.21602 5.20946 4.77908C5.37142 4.58488 5.46866 4.35831 5.59823 4.14793C5.72779 3.92137 5.92215 3.72716 6.16509 3.67861C6.5214 3.63006 6.82906 3.92137 7.072 4.19649C7.25555 4.40147 7.43917 4.61184 7.62273 4.82762C7.75229 4.97326 7.91419 5.1351 8.12474 5.1351C8.30289 5.1351 8.44869 4.98945 8.56206 4.82762C8.72402 4.61723 8.85356 4.3583 8.93454 4.09937C9.01552 3.84044 9.06412 3.54914 9.27467 3.37113C9.55 3.09601 10.0035 3.16076 10.376 3.30641C10.7324 3.45206 11.0724 3.67861 11.4773 3.67861C11.8175 3.6948 12.1576 3.51679 12.4329 3.32259C13.1617 2.77236 13.6314 1.99557 14.0039 1.15404L14.2307 1.2026C15.1376 1.55863 16.0932 0.911284 17.0325 0.700903C17.5346 0.571437 18.0691 0.587624 18.5874 0.603807C18.9113 0.603807 19.2514 0.619995 19.5591 0.74946C19.964 0.927475 20.2393 1.29969 20.5147 1.63954C20.9844 2.17358 21.5512 2.67526 22.2477 2.8371C22.7336 2.95038 23.2356 2.88563 23.7215 2.88563C23.9915 2.89642 24.256 2.918 24.5151 2.95037C24.4287 3.3064 24.3693 3.66243 24.3369 4.01846C24.3207 4.2612 24.3046 4.48778 24.2236 4.71434C24.0779 5.10274 23.7539 5.39404 23.5758 5.75007C23.5326 5.84717 23.4948 5.94426 23.4624 6.04136C23.2194 6.12227 23.0251 6.3003 22.8307 6.46213C22.3017 6.89369 21.778 7.33063 21.2597 7.77297C21.1787 7.8377 21.0978 7.90244 21.0492 7.99954C20.9358 8.29083 21.2921 8.53358 21.4379 8.8087C21.5836 9.09999 21.4864 9.43984 21.3407 9.71495C21.1787 9.99007 20.952 10.2328 20.8062 10.5079C20.7577 10.5888 20.7253 10.6536 20.7253 10.7507C20.7415 10.8478 20.8062 10.9287 20.871 11.0096C21.1949 11.4951 21.1625 12.191 20.79 12.6441C20.7253 12.7088 20.6605 12.7736 20.6281 12.8545C20.5795 13.0649 20.7577 13.2591 20.9682 13.3076C21.1626 13.3562 21.3731 13.3238 21.5836 13.34C21.8751 13.3562 22.1505 13.4856 22.4096 13.6313C23.5595 14.2462 24.6285 15.0716 25.5516 15.994C26.1509 16.609 26.7826 17.2725 27.3818 17.8875C27.56 18.0655 27.7381 18.2597 27.8515 18.4862C27.9649 18.7128 27.9973 18.9879 27.9325 19.2307C27.8839 19.4572 27.7705 19.7 27.8677 19.8942C27.9649 20.1207 28.2402 20.1855 28.4346 20.3149C28.6451 20.4606 28.7585 20.7033 28.9042 20.8814C29.1634 21.1726 29.5035 21.3668 29.8436 21.5287C30.0379 21.9494 30.5562 21.9818 30.9935 21.9656C31.5226 21.9548 32.0463 21.9387 32.5646 21.9171C32.8237 21.9171 33.0666 21.9009 33.3095 21.998C33.5039 22.0789 33.682 22.2246 33.9088 22.2569C34.0384 22.2731 34.1841 22.2407 34.2975 22.3055C34.427 22.4026 34.4433 22.5968 34.3947 22.7424C34.3299 22.8881 34.2327 23.0014 34.1355 23.1308C34.0707 23.2765 34.006 23.4383 34.0707 23.5839C34.1355 23.7296 34.3137 23.7943 34.4594 23.8591C34.751 23.9885 35.0209 24.1449 35.2692 24.3284C35.5122 24.5064 35.7228 24.7168 35.9657 24.8948C36.3382 25.1375 36.7431 25.3155 37.1318 25.5097C37.731 25.8172 38.2979 26.1732 38.8324 26.5778C39.4802 26.9986 40.1442 27.4355 40.5977 28.0505C40.8406 28.3742 41.0188 28.7464 41.3265 29.0215C41.5533 29.2319 41.861 29.3775 42.1202 29.5717C42.3793 29.7498 42.6222 30.0249 42.6546 30.3323C42.6708 30.6398 42.5089 30.9311 42.3469 31.1901Z" fill="#77B341" stroke="#BABABA" stroke-width="1.18548" stroke-linecap="round" stroke-linejoin="round"/>
</svg>
