<svg width="27" height="52" viewBox="0 0 27 52" fill="none" xmlns="http://www.w3.org/2000/svg">
<path d="M0.895556 40.4078C1.08991 40.602 1.33285 40.7638 1.46242 40.9904C1.5272 41.1199 1.55954 41.2655 1.65672 41.3788C1.85107 41.6539 2.2884 41.7024 2.41796 42.0099C2.56373 42.3821 2.17499 42.7058 1.89966 42.9971C1.42998 43.4988 1.26802 44.2109 1.25182 44.8744C1.23562 45.0686 1.23561 45.2466 1.31659 45.4084C1.38137 45.5864 1.52717 45.7159 1.67293 45.8454C2.06164 46.1852 2.45037 46.5412 2.67712 46.9943C2.83908 47.318 2.90384 47.6902 3.0658 48.0139C3.26016 48.4185 3.55165 48.7259 3.84318 49.0496C4.02134 49.2276 4.19951 49.4057 4.42625 49.4866C4.60441 49.5351 4.79874 49.5189 4.9769 49.5351C5.67333 49.5998 6.22401 50.1177 6.77467 50.5546C7.30914 50.9754 8.03793 51.3638 8.68577 51.0887C8.99349 50.9592 9.22026 50.7003 9.44701 50.4899C10.3054 49.6808 11.4553 49.1953 12.6214 49.1144C12.9939 49.0982 13.3827 49.1143 13.7552 49.0496C14.1277 48.9687 14.5001 48.7907 14.6945 48.467C14.8888 48.1757 14.8888 47.8035 14.9212 47.4475C14.986 46.6545 15.148 45.8615 15.5043 45.1495C15.974 44.2918 16.3627 43.434 16.8 42.544C17.0591 42.0099 17.302 41.4759 17.4478 40.8933C17.6584 40.0194 17.626 39.1131 17.9014 38.2554C17.9985 37.8994 18.1604 37.5757 18.2414 37.2197C18.3872 36.6857 18.3548 36.1354 18.452 35.5852C18.5168 35.1806 18.6463 34.776 18.7759 34.3715C19.1862 33.0876 19.5965 31.7983 20.0068 30.5037C20.1688 29.9858 20.3307 29.4518 20.606 28.9824C20.7842 28.6911 20.9786 28.4161 21.1405 28.1248C21.3511 27.7526 21.4807 27.3156 21.6264 26.911C21.9989 25.8915 22.582 24.7748 22.3228 23.7229C22.3714 22.8167 22.501 21.8619 22.6467 20.9556C22.6791 20.7506 22.7115 20.551 22.7439 20.3568C22.7763 20.1626 22.8249 19.9522 22.9221 19.7742C23.0193 19.6448 23.1326 19.5315 23.2298 19.3858C23.5213 18.9651 23.5376 18.3339 23.9748 18.075C24.072 18.0103 24.1691 17.9779 24.2501 17.9132C24.3797 17.7999 24.4121 17.6219 24.3959 17.46C24.3473 17.1525 24.1368 16.8774 23.9262 16.6509C23.7535 16.4351 23.5753 16.2247 23.3918 16.0197C23.3594 15.5342 23.3755 15.0325 23.4403 14.547C23.4889 14.2719 23.6185 13.9483 23.8939 13.9483C24.0558 13.9483 24.2016 14.1101 24.2663 14.2719C24.3311 14.4176 24.3797 14.5956 24.4769 14.7412C24.6874 15.0487 25.2219 15.0649 25.4648 14.7736C25.5944 14.6118 25.643 14.3852 25.724 14.1748C25.9345 13.6731 26.4852 13.2524 26.4042 12.7022C26.3395 12.2814 25.9021 12.0063 25.724 11.6179C25.6268 11.4075 25.5944 11.1486 25.4325 10.9706C25.3353 10.8735 25.2057 10.8249 25.1086 10.744C24.8656 10.5336 24.817 10.1776 24.8494 9.85392C24.8818 9.53026 25.0113 9.22277 25.0437 8.91529C25.0761 8.51071 24.9789 8.10613 24.8818 7.70155C24.6874 6.89239 24.4931 6.07786 24.2988 5.25791C24.234 5.01516 24.1692 4.77239 24.0558 4.54583C23.9101 4.30308 23.7157 4.1089 23.5537 3.88234C23.1488 3.25119 23.1164 2.45819 22.9869 1.71377C22.9383 1.43865 22.8735 1.17973 22.7115 0.953164C22.5657 0.726599 22.3067 0.564775 22.0313 0.597142C21.8046 0.629508 21.6102 0.79134 21.432 0.920806C21.0919 1.14737 20.7032 1.3254 20.3955 1.58433C20.0716 1.84326 19.8286 2.24782 19.8934 2.6524C19.9258 2.89515 20.0716 3.10554 20.1526 3.34828C20.3145 3.83378 20.1687 4.41637 19.78 4.75621C19.5857 4.91805 19.3265 5.0637 19.3751 5.37118C19.2456 5.38737 19.2456 5.58158 19.2132 5.71105C19.1808 5.84051 19.0998 5.95379 18.9864 6.03471C18.6301 6.30982 18.1443 6.26126 17.707 6.26126C17.2535 6.24508 16.7352 6.32598 16.5085 6.6982C16.3141 7.02186 16.4437 7.47499 16.7514 7.66919C16.881 7.73392 17.0267 7.76629 17.1401 7.83102C17.2535 7.87957 17.3507 7.96051 17.4155 8.05761C17.4803 8.13853 17.545 8.26798 17.4802 8.36507C17.4478 8.39744 17.3992 8.42981 17.3506 8.44599C17.1563 8.54309 16.9458 8.67256 16.7352 8.7373C16.4437 8.8344 16.0874 9.10952 16.1198 9.43318C16.1522 9.87013 16.8486 10.0319 16.8972 10.4689C16.5894 10.4365 16.2655 10.4041 15.9416 10.4527C15.6339 10.5174 15.31 10.6793 15.148 10.9544C15.0509 11.1324 15.0023 11.3428 14.9051 11.537C14.5974 12.071 13.8361 12.1358 13.3178 12.4918C13.0101 12.686 12.7996 12.9935 12.508 13.2038C12.2651 13.398 11.9736 13.5275 11.7144 13.7055C11.4229 13.8997 11.1962 14.1587 10.9209 14.3691C10.2244 14.8869 9.34986 15.0811 8.50767 15.2591C7.61689 15.0487 6.74229 15.6637 5.81912 15.6799C5.5114 15.6961 5.17125 15.6313 4.89592 15.8093C4.5882 16.0035 4.52341 16.4243 4.49102 16.7803C4.44783 17.2335 4.39926 17.692 4.34527 18.1559C4.34527 18.2854 4.32906 18.431 4.24808 18.5443C4.08612 18.787 3.74605 18.8194 3.48692 18.9327C3.163 19.0945 2.95238 19.4344 2.85521 19.7904C2.75803 20.1465 2.77424 20.5186 2.79044 20.8909C2.80124 21.29 2.81207 21.6946 2.82286 22.1046C2.83906 22.3473 2.85524 22.6225 2.96861 22.8328C3.17916 23.1889 3.63263 23.3507 3.7622 23.7391C3.82698 23.9171 3.8108 24.1113 3.77841 24.3055C3.71363 24.7101 3.64884 25.1309 3.69743 25.5355C3.74602 25.94 3.90798 26.3446 4.26429 26.555C4.6368 26.7653 4.75017 27.2347 4.75017 27.6554C4.76637 28.0924 4.66916 28.5293 4.71775 28.9501C4.73394 29.2252 4.81496 29.4841 4.83115 29.7592C4.86354 30.2609 4.66922 30.7464 4.37769 31.151C4.10236 31.5718 3.72981 31.9116 3.3573 32.2515C3.11436 32.478 2.85521 32.7208 2.69325 33.0282C2.53129 33.3195 2.45037 33.6756 2.27222 33.9507C2.01308 34.3229 1.55958 34.5333 1.36522 34.9541C1.21946 35.2777 1.26803 35.6823 1.18705 36.0383C1.10607 36.3782 0.911736 36.6695 0.798364 37.0093C0.539229 37.8185 0.879329 38.7895 0.620193 39.6148C0.523017 39.8738 0.701204 40.2136 0.895556 40.4078Z" fill="#F1F1F1" stroke="#BABABA" stroke-width="1.18548" stroke-linecap="round" stroke-linejoin="round"/>
</svg>
