<svg width="8" height="14" viewBox="0 0 8 14" fill="none" xmlns="http://www.w3.org/2000/svg">
<path d="M5.67824 10.3875C5.26794 10.9377 4.85229 11.4933 4.43119 12.0544C4.31782 12.2162 4.18824 12.378 4.01008 12.5075C3.84812 12.6369 3.63756 12.7179 3.42701 12.7826C3.0491 12.9229 2.6712 13.0577 2.29329 13.1872C2.20691 13.0901 2.13676 12.9822 2.08278 12.8635C2.12596 12.8204 2.15829 12.7772 2.17989 12.734C2.34185 12.5075 2.47145 12.2809 2.53623 12.022C2.84396 10.9053 1.88836 10.7759 1.53205 10.1933C1.28911 9.80489 1.33771 9.33556 1.3863 8.88243C1.51587 7.86829 1.64008 6.84874 1.75886 5.82381C1.79125 5.48396 1.83982 5.14412 1.74264 4.82046C1.62927 4.49679 1.40253 4.25405 1.17578 3.99512C0.981432 3.77934 0.787064 3.56357 0.592712 3.34779C0.689888 3.22911 0.792447 3.10503 0.90042 2.97557C0.949008 2.92702 0.997644 2.86229 1.03004 2.79756C1.06243 2.71664 1.0624 2.63573 1.07859 2.55481C1.08939 2.32824 1.10022 2.10708 1.11102 1.8913C1.11102 1.63237 1.1272 1.37344 1.25676 1.16306C1.41872 0.839395 1.775 0.677559 2.11512 0.612826C2.47143 0.564277 2.82776 0.612818 3.18407 0.645185C3.4756 0.677551 3.77253 0.693742 4.07485 0.693742C4.25301 1.06596 4.6903 1.29251 4.96563 1.61618C5.24096 1.92366 5.35433 2.29588 5.37053 2.70046C5.40292 3.16977 5.32194 3.67144 5.20857 4.12457C4.99802 4.9661 4.77125 5.90473 5.17615 6.66534C5.43528 7.15084 5.92123 7.49067 6.21275 7.9438C6.29373 8.07327 6.37467 8.21893 6.40706 8.36458C6.60141 9.09282 6.13173 9.7887 5.67824 10.3875Z" fill="#F1F1F1" stroke="#BABABA" stroke-width="1.18548" stroke-linecap="round" stroke-linejoin="round"/>
</svg>
