<svg width="12" height="13" viewBox="0 0 12 13" fill="none" xmlns="http://www.w3.org/2000/svg">
<path d="M11.1202 6.76719C11.0878 7.17177 10.8448 7.52779 10.5533 7.8029C10.2618 8.07802 9.90549 8.3046 9.59776 8.54734C9.16047 8.90337 8.77174 9.34029 8.48021 9.8096C8.30206 10.0847 8.15631 10.376 7.92957 10.5864C7.7838 10.7321 7.62183 10.8453 7.50845 11.0072C7.44367 11.1366 7.41127 11.2823 7.37888 11.4118C7.36808 11.4441 7.36271 11.4765 7.36271 11.5088C7.31952 11.4549 7.27632 11.4064 7.23313 11.3632C7.15215 11.2823 7.07116 11.2014 6.97398 11.169C6.84441 11.1043 6.69867 11.1205 6.55291 11.1205C6.03464 11.0881 5.56496 10.7806 5.14386 10.4893C4.75516 10.2196 4.36642 9.94989 3.97772 9.68017C3.73478 9.51834 3.41088 9.46976 3.18413 9.29175C3.00598 9.16228 2.87639 8.95191 2.68204 8.85481C2.40671 8.69298 2.00183 8.77389 1.77509 8.53115C1.53215 8.27221 1.69411 7.85144 1.69411 7.5116C1.67791 6.94518 1.20823 6.49208 1.12725 5.95803C1.11105 5.7962 1.11103 5.63435 1.06244 5.4887C1.01385 5.37541 0.949093 5.29451 0.884309 5.18123C0.754741 4.95467 0.657557 4.69574 0.592773 4.42063C1.12724 3.80567 1.79128 3.2716 2.21237 2.57572C2.5039 2.12259 2.68207 1.57237 3.11936 1.24871C3.47568 0.989777 3.94533 0.925037 4.38262 0.876487C5.12764 0.800966 5.87266 0.72005 6.61767 0.633739C7.00638 0.58519 7.42748 0.552847 7.79999 0.698496C8.62599 1.03834 8.80416 2.10643 9.35482 2.80231C9.69494 3.23926 10.197 3.56292 10.3266 4.09697C10.4723 4.72811 10.0512 5.53725 10.5371 5.97419C10.6991 6.11984 10.8772 6.16841 11.0878 6.15222C11.104 6.36261 11.1364 6.55681 11.1202 6.76719Z" fill="#F1F1F1" stroke="#BABABA" stroke-width="1.18548" stroke-linecap="round" stroke-linejoin="round"/>
</svg>
