<svg width="10" height="13" viewBox="0 0 10 13" fill="none" xmlns="http://www.w3.org/2000/svg">
<path d="M0.611988 3.36343C0.611988 3.58999 0.741556 3.7842 0.854928 3.9784C0.935908 4.14023 1.00069 4.33439 0.935908 4.51241C0.871124 4.70661 0.676804 4.83608 0.644412 5.04646C0.628216 5.20829 0.725376 5.35394 0.87114 5.45104C1.21126 5.69379 1.69714 5.62905 2.08584 5.4834C2.49074 5.32157 2.86323 5.09504 3.28433 5.0303C3.51107 4.98175 3.77021 5.01412 3.93217 5.19214C3.96456 5.23529 3.99155 5.28382 4.01315 5.33777C4.09413 5.51578 4.06173 5.72617 3.93217 5.87182C3.81879 6.03365 3.62451 6.14691 3.43015 6.13073C3.20341 6.17928 2.96042 6.21167 2.73368 6.2764C2.49074 6.32495 2.26401 6.40587 2.10205 6.60007C1.95629 6.77808 1.90771 7.05319 2.03728 7.24739C2.15065 7.40922 2.34499 7.47394 2.50695 7.55486C2.68511 7.63577 2.86325 7.74908 2.89564 7.94328C2.94423 8.16984 2.71751 8.38022 2.60414 8.59061C2.45838 8.8819 2.50692 9.25409 2.71747 9.49684C2.79845 9.56157 2.87949 9.62633 2.94427 9.72343C3.02525 9.80435 3.07378 9.90141 3.04139 10.0147C3.02519 10.1118 2.92806 10.1927 2.84708 10.2574C2.72831 10.3761 2.62034 10.5056 2.52316 10.6459C2.44218 10.7591 2.37741 10.8886 2.37741 11.0342C2.37741 11.277 2.5717 11.4874 2.79845 11.5683C3.00899 11.6654 3.26818 11.6492 3.49492 11.6492C3.66768 11.6492 3.83505 11.6492 3.99701 11.6492C4.0618 11.6492 4.12653 11.633 4.19132 11.6654C4.46665 11.7463 4.53147 12.1347 4.7906 12.2318C4.98495 12.3289 5.22791 12.1833 5.37367 12.0214C5.51944 11.8434 5.61655 11.633 5.7947 11.4874C6.07004 11.2608 6.49113 11.2446 6.76646 11.0019C6.87984 10.921 6.96088 10.8077 7.07425 10.7106C7.2848 10.5326 7.64105 10.4678 7.73822 10.1927C7.8192 9.96616 7.6735 9.70723 7.64111 9.46448C7.60872 9.31883 7.62485 9.17317 7.57626 9.0437C7.52768 8.9466 7.44674 8.8657 7.38196 8.7686C7.25239 8.52585 7.25241 8.23456 7.39817 8.008C7.47915 7.89471 7.5763 7.79761 7.68967 7.71669C7.78684 7.65196 7.98116 7.49014 7.98116 7.49014C8.28889 7.23121 8.32134 6.76189 8.45091 6.38968C8.56428 6.0822 8.75863 5.80707 8.85581 5.4834C8.8882 5.35394 8.90978 5.21908 8.92058 5.07882C8.93678 4.64188 8.82342 4.18877 8.69385 3.76801C8.67766 3.67091 8.64525 3.57382 8.59666 3.4929C8.53188 3.3958 8.45085 3.33104 8.38606 3.26631C8.15932 3.03975 7.98123 2.74847 7.88405 2.44099C7.80307 2.21443 7.77063 1.9555 7.59248 1.79367C7.33334 1.5671 6.92847 1.66418 6.65314 1.85838C6.57216 1.90693 6.49118 1.95547 6.4102 1.97166C6.19965 2.02021 6.02151 1.82602 5.85955 1.66419C5.58422 1.38908 5.22791 1.1787 4.88779 0.984506C4.53148 0.774124 4.14276 0.563719 3.73786 0.596086C3.62449 0.596086 3.52727 0.628468 3.44629 0.6932C3.30052 0.806483 3.28433 1.00069 3.20335 1.14634C3.05758 1.40527 2.7823 1.55089 2.52316 1.68035C1.94011 1.95547 1.40565 2.3115 0.919775 2.73226C0.725423 2.89409 0.531008 3.13686 0.611988 3.36343Z" fill="#F1F1F1" stroke="#BABABA" stroke-width="1.18548" stroke-linecap="round" stroke-linejoin="round"/>
</svg>
