<svg width="38" height="51" viewBox="0 0 38 51" fill="none" xmlns="http://www.w3.org/2000/svg">
<path d="M36.9042 2.1596C36.9042 2.36998 36.8394 2.58034 36.6774 2.70981C36.5641 2.80691 36.4183 2.85547 36.3211 2.96876C36.1429 3.22769 36.3373 3.59991 36.2239 3.90739C36.3049 4.61945 36.3535 5.36388 36.2563 6.09212C36.1753 6.57762 36.0295 7.0469 35.8838 7.51621C35.4951 8.74613 35.1064 9.97606 34.41 11.0442C34.0375 11.6106 33.584 12.1284 33.3248 12.7596C33.1953 13.0833 33.1305 13.4231 33.0009 13.7467C32.5474 14.8796 31.4623 15.6887 31.1384 16.8701C31.0412 17.1776 31.0088 17.5174 30.9116 17.8411C30.8145 18.1971 30.6363 18.5208 30.4258 18.8283C30.0533 19.4109 29.5998 19.9773 29.0329 20.398C28.2231 21.1425 28.8709 22.777 28.0611 23.5052C27.8506 23.6994 27.5753 23.7965 27.3323 23.926C26.2958 24.4277 25.5022 25.4148 25.2268 26.5315C25.1459 26.8713 25.1135 27.2273 25.0001 27.551C24.7572 28.1498 24.2388 28.6029 23.8987 29.1693C23.51 29.8005 23.3967 30.5611 23.1214 31.257C23.0404 31.435 22.9594 31.613 22.8136 31.7425C22.3602 32.1309 21.6475 31.7748 21.0806 31.969C20.8377 32.0499 20.6434 32.228 20.449 32.3898C19.6824 33.0911 18.9104 33.7924 18.133 34.4936C17.8091 34.7849 17.5013 35.0762 17.2584 35.4161C17.0802 35.7074 16.9507 36.031 16.7564 36.3061C16.3515 36.9049 15.6388 37.2933 14.9262 37.3418C14.2783 37.9406 13.5009 38.41 12.6587 38.7013C12.1728 38.8631 11.5898 39.0411 11.4278 39.5428C11.4116 39.6237 11.3954 39.7046 11.3468 39.7855C11.2821 39.915 11.1201 39.9959 10.9744 40.0606C10.2617 40.4652 9.93783 41.3229 9.37097 41.9217C8.65835 42.6985 7.57323 43.0707 6.87681 43.8799C6.68245 44.1064 6.52043 44.3492 6.32608 44.5919C5.96977 45.0289 5.46775 45.4335 5.01427 45.7733C4.67415 45.9837 4.33397 46.3235 4.13962 46.6795C3.71852 47.4563 3.76714 48.4273 3.36224 49.2041C3.24887 49.4307 3.10311 49.6411 2.87636 49.7543C2.87636 49.7543 2.87095 49.7543 2.86015 49.7543C2.80616 49.5925 2.75218 49.4307 2.69819 49.2688C2.61721 49.0746 2.53628 48.8643 2.42291 48.6863C2.29334 48.5083 2.11512 48.3626 1.95316 48.2169C1.48348 47.8124 1.01381 47.3916 0.592712 46.9385V34.1538C0.900436 33.8139 1.22436 33.4902 1.56447 33.1828C1.92078 32.8429 2.29331 32.5031 2.7144 32.228C2.82778 32.1471 2.94113 32.0823 3.02211 31.969C3.13548 31.791 3.11929 31.5644 3.10309 31.3541C3.0815 31.0843 3.05992 30.8146 3.03832 30.5449C3.21108 30.5125 3.37304 30.4694 3.5242 30.4154C3.81573 30.3021 4.07487 30.1727 4.334 30.0108C4.44198 29.9353 4.55536 29.8544 4.67413 29.7681C4.77131 29.6872 4.85226 29.5739 4.96563 29.5254C5.03042 29.493 5.11138 29.493 5.19236 29.493C5.4191 29.5092 5.62967 29.5901 5.85641 29.6063C6.06696 29.6225 6.27755 29.5739 6.47191 29.5254C6.9092 29.4283 7.3141 29.2017 7.68661 28.9589C8.15629 28.6191 8.57732 28.2145 8.91744 27.7452C8.98222 27.6481 9.06322 27.5348 9.17659 27.4701C9.28996 27.4054 9.41951 27.4054 9.56528 27.4054C11.0985 27.3946 12.6318 27.3892 14.165 27.3892C14.3594 27.373 14.5537 27.373 14.7157 27.2921C14.91 27.1788 15.0234 26.9684 15.1206 26.7904C15.9465 25.2854 17.0965 23.9422 18.4569 22.8902C19.0238 22.4533 19.6392 22.0649 20.1251 21.5471C20.5462 21.1101 20.8701 20.5761 21.3722 20.2686C21.5666 20.1391 21.7933 20.0582 21.9552 19.8964C22.1658 19.686 22.1982 19.33 22.425 19.152C23.2348 18.537 24.0283 17.8087 24.5628 17.2909C24.8219 17.032 24.6437 16.6112 24.3036 16.595L21.4855 16.5303C21.1616 16.5141 20.8054 16.4979 20.5624 16.2875C20.3843 16.1581 20.2708 15.9315 20.0927 15.8182C19.8011 15.624 19.3962 15.7049 19.0399 15.6726C18.5055 15.6078 18.052 15.2518 17.5662 15.0252C17.1937 14.8634 16.7887 14.7663 16.3838 14.653C14.9748 14.2646 13.5981 13.7629 12.2053 13.2774C11.2983 12.9376 10.3589 12.5978 9.64626 11.9181C8.88505 11.1898 8.49641 10.1703 7.84857 9.34492C7.37888 8.76232 6.76342 8.24447 6.61765 7.53241C6.50428 6.966 6.73101 6.35102 7.1683 5.97881C7.37885 5.80079 7.63802 5.67134 7.76759 5.42859C7.86476 5.21821 7.84853 4.97547 7.89712 4.74891C7.9943 4.36051 8.3344 4.06921 8.52875 3.72936C8.59353 3.72936 8.65835 3.73477 8.72313 3.74556C9.32238 3.77792 9.88921 4.03686 10.3103 4.4738C10.9096 5.08876 11.1849 6.04357 11.9299 6.4967C12.6101 6.91746 13.5009 6.78798 14.2136 6.39959C14.91 6.02737 15.4768 5.42859 16.0599 4.89454C16.238 4.73271 16.4324 4.58706 16.643 4.48996C17.388 4.23103 18.133 4.87838 18.8942 5.12113C19.5906 5.33151 20.4004 5.15349 20.9349 4.66799C21.3236 4.31196 21.6151 3.81029 22.1172 3.66464C22.3925 3.58373 22.6841 3.63228 22.9594 3.66464C23.564 3.74016 24.1741 3.74553 24.7895 3.6808C24.9191 3.6808 25.0811 3.64845 25.1621 3.53517C25.2107 3.45425 25.2268 3.34095 25.2916 3.27622C25.3726 3.17912 25.5346 3.19532 25.6479 3.2115C26.1554 3.28703 26.6629 3.36253 27.1704 3.43805C27.2027 3.43805 27.5428 3.42189 27.5428 3.42189C27.8991 3.38953 28.2555 3.3086 28.5956 3.16295C28.7575 3.08203 28.9195 2.98495 29.0977 2.9364C29.3244 2.85548 29.5836 2.83928 29.7941 2.70981C29.9399 2.62889 30.037 2.48327 30.1666 2.36999C30.5067 2.07869 30.944 1.9492 31.3813 1.90065C31.8186 1.8521 32.2721 1.86828 32.7094 1.85209C32.92 1.83591 33.1305 1.80354 33.3086 1.69026C33.422 1.62553 33.503 1.52845 33.6002 1.43135C33.8917 1.09151 34.248 0.800201 34.6691 0.654553C35.0902 0.525087 35.6085 0.589836 35.9162 0.9135C36.1105 1.12388 36.2239 1.43133 36.4506 1.60935C36.5964 1.70644 36.7745 1.75503 36.8555 1.88449C36.9041 1.96541 36.9042 2.0625 36.9042 2.1596Z" fill="#F1F1F1" stroke="#BABABA" stroke-width="1.18548" stroke-linecap="round" stroke-linejoin="round"/>
</svg>
