<svg width="8" height="7" viewBox="0 0 8 7" fill="none" xmlns="http://www.w3.org/2000/svg">
<path d="M7.09817 5.10791C7.08198 5.14027 7.04959 5.18882 7.01719 5.22118C6.96861 5.26973 6.88759 5.2859 6.82281 5.2859C6.25595 5.39918 5.65673 5.41539 5.07367 5.43157C4.1775 5.45315 3.27589 5.46393 2.36891 5.46393C1.86684 5.44775 1.33237 5.44772 0.830292 5.39917C0.927468 5.31826 1.00848 5.23735 1.02468 5.12407C1.08946 4.88132 0.895092 4.65476 0.765524 4.44438C0.506388 4.00744 0.538796 3.40866 0.862716 2.98789C1.10566 2.5995 1.57529 2.34056 1.70486 1.88743C1.76964 1.70941 1.75345 1.49906 1.78584 1.30486C3.1463 1.27249 4.5068 1.24552 5.86726 1.22394C6.14259 1.20776 6.43412 1.20773 6.67706 1.07827C6.92 0.964987 7.08193 0.754605 7.29248 0.592773C7.17911 1.66086 7.27628 2.76132 7.29248 3.82941C7.29248 4.26636 7.29253 4.71951 7.09817 5.10791Z" fill="#F1F1F1" stroke="#BABABA" stroke-width="1.18548" stroke-linecap="round" stroke-linejoin="round"/>
</svg>
