<svg width="26" height="25" viewBox="0 0 26 25" fill="none" xmlns="http://www.w3.org/2000/svg">
<path d="M24.7572 3.08497C24.6114 3.26298 24.4494 3.40865 24.3198 3.58666C24.2065 3.7485 24.1417 3.9265 24.1093 4.1207C24.0931 4.26635 24.1093 4.41201 24.0607 4.55766C23.9797 4.84895 23.7044 5.05934 23.4615 5.25354C23.3211 5.37222 23.1862 5.49626 23.0566 5.62572C22.927 5.56099 22.7974 5.49627 22.6517 5.48009C22.0848 5.35062 21.518 5.65809 20.9511 5.62572C20.3195 5.59336 19.623 5.15643 19.0886 5.52865C18.8132 5.72285 18.6674 6.12742 18.3273 6.20833C17.9224 6.32162 17.5823 5.88468 17.1774 5.7714C16.6753 5.64193 16.1894 5.99797 15.8817 6.38636C15.5578 6.79094 15.3149 7.26023 14.8776 7.53535C14.6185 7.71336 14.2946 7.79429 14.0678 7.98848C13.9058 8.13413 13.7763 8.34451 13.5657 8.39306C13.2418 8.49016 12.9664 8.16649 12.7235 7.93993C12.3186 7.53535 11.5574 7.37354 11.2335 7.84285C10.9906 8.21507 11.2011 8.71674 11.4764 9.08895C11.7356 9.44498 12.0433 9.78481 12.3996 10.0437C12.4968 10.1247 12.594 10.1894 12.6911 10.2703C12.7883 10.3836 12.8692 10.5293 12.9502 10.6749C13.177 11.128 13.4092 11.5757 13.6467 12.0181C13.841 12.3903 14.0354 12.7625 14.2945 13.07C14.6832 13.5231 15.2177 13.863 15.8007 14.0086C15.9789 14.041 16.1894 14.0734 16.3514 14.1705C16.983 14.5103 16.9831 15.4975 17.5337 15.8859C17.7119 16.0639 17.9548 16.2095 18.0844 16.4361C18.1816 16.5818 18.2139 16.776 18.1329 16.9216C18.0034 17.1643 17.6795 17.1967 17.4041 17.2291C17.1288 17.2615 16.8373 17.3424 16.5782 17.4557C16.481 17.5042 16.3676 17.5528 16.319 17.666C16.2704 17.7308 16.2705 17.8279 16.2543 17.9088C16.2219 18.1192 16.1409 18.3295 16.0113 18.4914C15.9303 18.6208 15.7845 18.7503 15.6388 18.7179C15.4444 18.6856 15.3796 18.4428 15.2339 18.3295C15.0557 18.1677 14.7642 18.2001 14.5537 18.3134C14.3593 18.4428 14.1973 18.6208 14.0192 18.7827C13.6143 19.1387 13.0798 19.3329 12.5453 19.3005C12.2862 19.3005 11.9461 19.2844 11.8651 19.5271C11.8489 19.5918 11.8489 19.6404 11.8651 19.7051C11.9299 20.1744 12.3024 20.5143 12.6263 20.8541C12.9502 21.194 13.2742 21.6309 13.177 22.0841C13.1122 22.3592 12.9179 22.6019 12.8531 22.877C12.8045 23.1036 12.853 23.3787 12.6263 23.5243C12.5129 23.6053 12.351 23.6053 12.2214 23.5405C11.9461 23.4434 11.7841 23.2007 11.5898 23.0227C11.2821 22.7314 10.8448 22.5857 10.4237 22.6181C10.197 22.6504 9.93782 22.7152 9.75966 22.5696C9.64629 22.4563 9.59765 22.2782 9.46808 22.1811C9.33852 22.0679 9.14423 22.0841 8.96607 22.0841C8.52878 22.0679 8.09144 21.9708 7.70274 21.7604C7.58937 21.7118 7.47601 21.6309 7.39503 21.5177C7.29785 21.3558 7.31403 21.1616 7.29784 20.9836C7.28704 20.811 7.25463 20.6491 7.20065 20.4981C7.15746 20.3902 7.13046 20.2769 7.11967 20.1582C7.05488 19.6727 6.84438 19.1872 6.52046 18.815C6.39089 18.6532 6.22893 18.5075 6.11556 18.3295C5.84023 17.8926 5.90501 17.3424 5.9536 16.8245C5.9698 16.7274 5.98599 16.6465 6.03458 16.5656C6.14795 16.4199 6.37465 16.4361 6.55281 16.4847C6.86053 16.5656 7.15207 16.6951 7.4598 16.7436C7.8323 16.7922 8.22101 16.7436 8.59352 16.6951C9.64086 16.5548 10.6828 16.4092 11.7194 16.2581C11.8814 16.2419 12.0595 16.2095 12.1566 16.0801C12.2862 15.9182 12.2376 15.6755 12.1081 15.4975C11.8004 15.0929 11.2173 15.0444 10.699 15.0444C9.95398 15.0228 9.209 15.0066 8.46398 14.9958C8.09147 14.9796 7.73511 14.9796 7.36261 14.9149C6.69857 14.7854 6.08317 14.4294 5.62968 13.9439C5.46772 13.7659 5.32193 13.5879 5.11138 13.4908C4.96561 13.4422 4.80369 13.4422 4.65792 13.4099C3.76714 13.2318 3.32985 12.2123 2.55244 11.7268C2.09896 11.4517 1.54829 11.3546 1.0948 11.0795C0.900452 10.95 0.72228 10.7882 0.592712 10.594C0.970619 10.4645 1.34853 10.3297 1.72643 10.1894C1.93698 10.1247 2.14754 10.0437 2.3095 9.91427C2.48766 9.7848 2.61724 9.623 2.73061 9.46117C3.15171 8.90015 3.56736 8.34452 3.97766 7.79429C4.43115 7.19552 4.90083 6.49964 4.70648 5.7714C4.67409 5.62575 4.59315 5.48008 4.51217 5.35062C4.64174 5.31825 4.78744 5.33446 4.93321 5.33446C5.39749 5.35603 5.86179 5.3776 6.32608 5.39917C6.71478 5.41536 7.11968 5.43156 7.4598 5.25354C7.89709 5.02698 8.15622 4.55764 8.59352 4.36345C8.94983 4.2178 9.33852 4.26635 9.71102 4.28253C10.1321 4.29332 10.5478 4.26096 10.9581 4.18543C11.0067 4.16925 11.0715 4.15306 11.1363 4.1207C11.2821 4.00742 11.3145 3.79704 11.3145 3.60284C11.3145 2.59949 11.2821 1.57995 11.4764 0.592773C11.9461 0.900254 12.432 1.17536 12.8692 1.51521C13.3389 1.87124 13.76 2.292 14.2621 2.58329C14.8938 2.93932 15.655 3.0526 16.3676 2.92314C16.8859 2.80985 17.4042 2.58331 17.9224 2.69659C18.1978 2.76132 18.4245 2.92315 18.6675 3.05261C19.4611 3.50574 20.368 3.76467 21.2912 3.78085C21.5827 3.78085 21.8905 3.76467 22.1496 3.61902C22.4897 3.42482 22.7002 3.06879 22.9108 2.74513C23.2833 2.1949 23.7692 1.69322 24.3198 1.28864C24.3198 1.32101 24.3144 1.35337 24.3036 1.38573C24.3198 1.49902 24.3198 1.62849 24.3684 1.75796C24.4818 2.03307 24.8219 2.16254 24.9191 2.45384C24.9839 2.66422 24.8867 2.90695 24.7572 3.08497Z" fill="#F1F1F1" stroke="#BABABA" stroke-width="1.18548" stroke-linecap="round" stroke-linejoin="round"/>
</svg>
