<svg width="47" height="32" viewBox="0 0 47 32" fill="none" xmlns="http://www.w3.org/2000/svg">
<path d="M45.743 20.5467C45.5001 20.6438 45.2733 20.7732 45.0628 20.9189C44.5445 21.2749 44.0424 21.7118 43.427 21.7766C42.9249 21.8089 42.4228 21.5985 41.9693 21.372C41.4402 21.1238 40.9166 20.8757 40.3983 20.6276C40.285 20.579 40.1554 20.5143 40.0258 20.5305C39.8962 20.5305 39.7667 20.579 39.6533 20.6437C39.1512 20.935 38.6977 21.3073 38.3252 21.7442C38.2118 21.8737 38.0823 22.0031 37.9365 22.0841C37.1753 22.5048 36.9162 22.0355 36.5599 21.7442C36.074 21.3396 35.3614 21.2263 34.7783 21.4691C34.2276 21.6957 33.8389 22.1811 33.4016 22.5857C32.9644 22.9903 32.3813 23.3302 31.7983 23.1683C31.361 23.0389 31.0046 22.6181 30.5511 22.6343C29.9195 22.6343 29.5308 23.4273 29.3851 23.9451C29.3743 23.9775 29.3634 24.0045 29.3527 24.026C29.3527 24.0584 29.3472 24.0854 29.3364 24.107C29.3148 24.1609 29.2879 24.2148 29.2555 24.2688C29.2447 24.3012 29.2285 24.3335 29.2069 24.3659C29.1961 24.3767 29.1799 24.3928 29.1583 24.4144C29.1475 24.436 29.1367 24.4576 29.1259 24.4792C29.0611 24.5655 28.9856 24.641 28.8992 24.7057C28.1056 25.3692 27.1338 24.8028 26.3564 24.4953C25.7733 24.2688 25.1579 24.1393 24.5263 24.107C23.6355 24.0746 22.6799 24.2526 21.9025 23.8157C20.9145 23.2492 20.5906 21.8575 19.5379 21.4044C18.7281 21.0483 17.6591 21.5176 17.3676 22.3592C17.2704 22.6666 17.2381 23.0227 16.9951 23.233C16.9628 23.2546 16.9303 23.2762 16.898 23.2978C16.8548 23.3194 16.8169 23.3356 16.7845 23.3464C16.763 23.3571 16.7414 23.3625 16.7198 23.3625C16.709 23.3733 16.6928 23.3787 16.6712 23.3787C16.5093 23.4273 16.3311 23.4273 16.1691 23.4273C16.072 23.4381 15.9747 23.4434 15.8776 23.4434C15.6994 23.4596 15.5375 23.5082 15.4241 23.6053C15.4133 23.6161 15.4025 23.6268 15.3917 23.6376C15.3701 23.6592 15.3485 23.6808 15.3269 23.7024C15.3269 23.7132 15.3215 23.7239 15.3107 23.7347C15.2891 23.7671 15.2729 23.8049 15.2621 23.848C15.2405 23.8912 15.2297 23.9343 15.2297 23.9775C15.2189 23.9883 15.2136 24.0045 15.2136 24.026C15.2136 24.0476 15.2136 24.0746 15.2136 24.107C15.2136 24.1501 15.2189 24.1933 15.2297 24.2364C15.3269 25.0132 15.2783 25.8062 15.084 26.5668C15.0354 26.7286 14.9868 26.9066 14.8897 27.0361C14.8789 27.0361 14.8735 27.0361 14.8735 27.0361C14.8195 27.1008 14.7601 27.1494 14.6953 27.1818C14.6413 27.2141 14.5873 27.2357 14.5333 27.2465C14.4469 27.2681 14.366 27.2788 14.2904 27.2788H14.2742C14.1662 27.2896 14.0528 27.2788 13.934 27.2465C13.8693 27.2357 13.8099 27.2249 13.7559 27.2141C13.6102 27.1818 13.4644 27.1332 13.3348 27.0847C13.0649 26.9983 12.7841 26.9228 12.4926 26.8581C12.3414 26.8257 12.1849 26.7988 12.0229 26.7772C11.7422 26.7448 11.4669 26.7232 11.1969 26.7124C11.1106 26.7016 11.0188 26.6963 10.9216 26.6963C10.7489 26.7071 10.5761 26.7178 10.4033 26.7286C10.3925 26.7286 10.3764 26.7286 10.3548 26.7286C10.1388 26.7394 9.91748 26.7664 9.69074 26.8095C9.47479 26.8419 9.25884 26.8851 9.0429 26.939C8.81615 26.9876 8.57317 27.0685 8.4274 27.2627C8.31403 27.4245 8.29785 27.6349 8.28165 27.8291C8.19528 28.6598 8.1143 29.4906 8.03871 30.3213C8.03871 30.3537 8.0387 30.4022 8.0225 30.4508C8.00631 30.4993 7.99013 30.5317 7.95774 30.564C7.93614 30.5856 7.90915 30.6018 7.87675 30.6126C7.85516 30.6126 7.839 30.6126 7.8282 30.6126C7.8174 30.6126 7.80657 30.618 7.79577 30.6288C7.77418 30.6288 7.75802 30.6288 7.74722 30.6288C7.65004 30.6288 7.55282 30.6288 7.45564 30.6288C7.2127 30.6288 6.9698 30.5641 6.75925 30.4184C6.50011 30.2566 6.30579 29.9976 6.22481 29.674C6.17622 29.415 6.03041 29.1561 5.85226 28.9457C5.47975 28.525 4.96151 28.266 4.50802 27.9424C3.55246 27.2465 2.82361 26.1622 2.77502 24.997C2.75882 24.7705 2.77503 24.5277 2.71025 24.3173C2.48351 23.6377 1.56033 23.4273 1.25261 22.7799C1.07445 22.3915 1.13924 21.9546 1.17163 21.5176C1.20402 20.8703 1.10682 20.223 0.896267 19.608C0.750503 19.1711 0.539987 18.7179 0.604771 18.2648C0.669555 17.844 0.961051 17.5042 1.22019 17.1967C1.71686 16.6034 2.21357 16.0153 2.71025 15.4328C2.9208 15.2062 3.11515 14.9472 3.19613 14.656C3.29331 14.2676 3.16372 13.8306 3.34188 13.4746C3.55243 13.0053 4.20025 12.8111 4.62135 12.5036C4.70772 12.5791 4.80495 12.6492 4.91292 12.714C5.67413 13.1024 6.58111 12.5845 7.26134 12.0505C7.47189 11.8886 7.68245 11.7106 7.92539 11.6459C8.18453 11.565 8.49223 11.6297 8.638 11.8563C8.84855 12.1961 8.57321 12.7625 8.88094 13.0215C9.70693 12.5522 10.2252 11.6135 11.116 11.2575C11.8448 10.9662 12.6708 11.128 13.432 10.9986C14.42 10.8206 15.246 10.157 16.0234 9.52589C16.3959 9.21841 16.8007 8.71673 16.5254 8.31215C16.4606 8.23123 16.3635 8.1665 16.3311 8.0694C16.1691 7.74574 16.6064 7.45445 16.9465 7.38971C18.3556 7.09842 19.878 7.42208 21.2222 6.90422C22.113 6.56437 22.8257 5.88469 23.5059 5.22118C24.6882 4.08836 25.8705 2.92317 26.8099 1.57996C26.988 1.30485 27.1824 1.01354 27.4577 0.835521C27.7978 0.62514 28.2027 0.608972 28.6076 0.608972C29.0719 0.598184 29.5362 0.592773 30.0005 0.592773C30.0113 0.62514 30.0275 0.662893 30.049 0.706048C30.2596 1.24009 30.5998 1.7094 31.0047 2.11398C31.3448 2.47001 31.7334 2.76131 32.0898 3.08497C32.4623 3.40863 32.5918 3.99123 32.6566 4.46054C32.7376 4.99459 32.7052 5.561 32.5594 6.07886C32.4461 6.40252 32.3004 6.71003 32.2194 7.03369C32.1546 7.35736 32.1869 7.72958 32.4137 7.97232C32.8834 8.474 33.8227 8.08558 34.341 8.5549C34.6973 8.87856 34.6488 9.46115 34.9565 9.84955C35.2642 10.2218 35.7987 10.2703 36.2684 10.3836C36.9 10.5293 37.5154 10.8367 38.0175 11.2575C38.1795 11.4031 38.3576 11.5812 38.4386 11.7915C38.5682 12.1152 38.471 12.4874 38.5358 12.8434C38.6654 13.6526 39.5723 14.0734 40.3497 14.3485C41.1271 14.6236 42.0341 15.012 42.2285 15.8212C42.2933 16.0801 42.2609 16.3552 42.3094 16.6141C42.4876 17.6822 43.6861 18.1839 44.4959 18.8798C45.0304 19.3491 45.4353 19.9155 45.743 20.5467Z" fill="#F1F1F1" stroke="#BABABA" stroke-width="1.18548" stroke-linecap="round" stroke-linejoin="round"/>
</svg>
