<svg width="45" height="50" viewBox="0 0 45 50" fill="none" xmlns="http://www.w3.org/2000/svg">
<path d="M36.5154 30.8739V43.0113C36.6773 43.1839 36.8501 43.3349 37.0337 43.4644C37.3414 43.7072 37.6977 43.9013 38.0055 44.1603C38.3456 44.4516 38.6209 44.8076 38.88 45.1798C39.15 45.5466 39.4253 45.908 39.706 46.2641C39.949 46.5716 40.1919 46.8952 40.4024 47.2189C40.4996 47.3969 40.613 47.5587 40.7588 47.6882C40.1757 48.0604 39.4793 48.3032 38.7828 48.3355C38.5399 48.3517 38.297 48.3355 38.0702 48.4164C37.8921 48.4812 37.7463 48.5945 37.5843 48.6754C37.0499 48.9343 36.4182 48.821 35.819 48.8696C35.3007 48.9343 34.8149 49.1285 34.3128 49.2418C33.8107 49.3713 33.26 49.4198 32.7903 49.1932C32.6607 49.1447 32.5312 49.0638 32.4016 48.9991C32.1263 48.8858 31.8348 48.8858 31.5271 48.8858C29.8319 48.8966 28.1367 48.8588 26.4415 48.7725C26.2148 48.7563 25.988 48.7401 25.7775 48.6592C25.5507 48.5621 25.3564 48.3679 25.1944 48.1899C24.8489 47.8231 24.525 47.4347 24.2226 47.0247H7.9781C7.72976 46.755 7.50299 46.4583 7.29784 46.1346C7.23305 46.0375 7.1683 45.9404 7.08732 45.8433C6.99014 45.7624 6.87677 45.6815 6.7634 45.6329C6.00219 45.2607 5.11138 45.4226 4.30158 45.6006C4.10723 45.6329 3.88048 45.6977 3.8157 45.8919C3.73472 46.1023 3.84809 46.4259 3.65374 46.5068C3.60515 46.523 3.57279 46.5392 3.5242 46.5392C3.24887 46.5392 2.95731 46.523 2.68198 46.4421C2.52002 46.3936 2.37427 46.3126 2.21231 46.2641C1.72643 46.1022 1.22439 46.0699 0.706116 46.1022C0.754704 44.6458 0.72228 43.1893 0.592712 41.7652C0.592712 41.2959 0.803244 40.8103 0.9814 40.3572C1.02999 40.2116 1.09479 40.0821 1.15957 39.9526C1.25675 39.7908 1.37012 39.6775 1.48349 39.548C1.69944 39.2891 1.92621 39.0302 2.16376 38.7713C2.34191 38.5447 2.5524 38.3182 2.66577 38.043C2.81153 37.687 2.81153 37.2824 2.74675 36.894C2.68196 36.5865 2.56859 36.2629 2.58479 35.9392C2.60098 35.6803 2.68196 35.4375 2.74675 35.1786C2.84392 34.6607 2.81155 34.1267 2.76296 33.5927C3.0221 33.064 3.28128 32.5354 3.54041 32.0067C3.63759 31.7801 3.75095 31.5536 3.9291 31.3755C4.04247 31.2623 4.18821 31.1652 4.30158 31.0195C4.54452 30.7768 4.6255 30.4208 4.78746 30.1133C4.98181 29.7087 5.28952 29.3688 5.66203 29.1261C5.85638 29.0128 6.08317 28.9157 6.27752 28.7862C6.55285 28.6082 6.77958 28.3655 7.07111 28.1875C7.36264 27.9933 7.75134 27.8638 7.88091 27.524C7.97808 27.2165 7.83234 26.909 7.73516 26.6015C7.5732 26.0513 7.65416 25.4525 7.79993 24.8861C7.76754 23.9313 7.54076 22.9765 7.11967 22.1188C6.94151 21.7465 6.73102 21.3905 6.53667 21.0183C6.06699 20.1606 5.71063 19.2543 5.35432 18.3643C5.09518 17.7331 4.85223 17.0049 5.17615 16.4061C5.53246 15.7911 6.39085 15.5646 6.63379 14.9011C6.81194 14.3994 6.55281 13.8653 6.30987 13.396C6.1803 13.1533 6.05073 12.9105 5.82399 12.7487C5.71061 12.6678 5.54872 12.6192 5.48393 12.4736C5.41915 12.3441 5.46769 12.1661 5.4353 12.0205C5.40291 11.9072 5.33811 11.7939 5.25713 11.6968C4.99799 11.3192 4.73347 10.9416 4.46354 10.564C4.59311 10.1108 4.3988 9.62533 4.10727 9.25312C3.84814 8.89709 3.49179 8.62197 3.18407 8.28213C2.48764 7.50533 2.08274 6.46962 2.05035 5.41771C2.03416 4.54382 2.24474 3.60519 1.83984 2.8284C1.78585 2.70972 1.72103 2.60184 1.64545 2.50474C2.14213 2.04082 2.655 1.5877 3.18407 1.14536C3.57277 0.821699 4.07485 0.481821 4.56073 0.62747C4.83606 0.708386 5.03041 0.902584 5.20857 1.11297C4.94943 1.71174 4.49593 2.2458 4.05864 2.74748C3.89668 2.9255 3.73477 3.11969 3.62139 3.34625C3.44324 3.73465 3.42704 4.17159 3.37845 4.59235C3.36226 4.738 3.34605 4.89986 3.28126 5.02933C3.16789 5.20734 2.97349 5.32062 2.82773 5.46627C2.79534 5.50942 2.76301 5.55259 2.73061 5.59574C2.61724 5.78994 2.76294 6.03268 2.98969 6.03268H3.16786C3.28663 6.04347 3.3946 6.02187 3.49178 5.96792C3.92907 5.77373 4.43118 5.78992 4.90086 5.69282C5.41913 5.57953 5.88877 5.32062 6.39085 5.22352C6.63379 5.19115 6.87673 5.17496 7.11967 5.17496C10.3913 5.15878 13.6629 5.1426 16.9345 5.22352C17.0532 5.35299 17.145 5.49863 17.2098 5.66046C17.307 5.90321 17.3394 6.16215 17.4203 6.4049C17.5985 7.00368 17.971 7.5377 18.1654 8.1203C18.6674 9.12365 19.1534 10.1108 19.6554 11.1142C20.0117 11.5835 20.1899 12.2146 20.5948 12.6839C20.8377 12.9429 21.1454 13.1371 21.4693 13.2989C22.1172 13.6226 22.846 13.8006 23.5263 13.6064C23.8502 13.5255 24.1417 13.3475 24.4656 13.3151C25.324 13.218 26.2957 14.0595 26.976 13.2666C27.0408 13.1695 27.1056 13.0724 27.1541 12.9591L27.883 11.4702C28.0449 11.1465 28.1907 10.8229 28.2554 10.4669C28.304 10.1756 28.2878 9.83572 28.5146 9.62534C28.6765 9.47969 28.9357 9.46349 29.1786 9.44731C29.5565 9.43652 29.9399 9.43115 30.3286 9.43115C30.7497 9.41497 31.2518 9.44733 31.4785 9.78717C31.5595 9.91664 31.5918 10.0785 31.6728 10.208C31.9643 10.742 32.6932 10.7743 33.3086 10.742L35.3493 10.6449C35.6247 10.6287 35.8838 10.7258 36.0781 10.92C36.6126 11.454 35.981 12.1823 35.9 12.862C35.8352 13.3313 36.0457 13.8006 36.1429 14.2537C36.3697 15.1762 36.2077 16.1472 36.2077 17.0534C36.1861 17.3987 36.1699 17.7493 36.1591 18.1053C36.0781 18.6717 36.2401 19.2381 36.6126 19.6427C36.726 19.756 36.888 19.9826 36.9851 20.1282C37.2281 20.4519 37.5358 20.9212 37.6168 21.1154C37.6708 21.2449 37.7193 21.369 37.7625 21.4876C37.9083 21.876 38.054 22.2968 37.892 22.669C37.6815 23.0898 37.0823 23.3163 37.1309 23.818C37.1633 24.0607 37.3414 24.2711 37.5843 24.3358C38.0864 24.4977 38.54 24.2711 39.0096 24.1255C39.5279 23.9637 40.0948 23.9313 40.6292 24.0122C41.0341 24.0769 41.5038 24.1902 41.7953 23.9151C41.8439 23.8504 41.8925 23.7856 41.9573 23.7371C42.0706 23.6562 42.2326 23.64 42.3784 23.64C42.7509 23.64 43.1234 23.6238 43.4959 23.6885V30.8739H36.5154Z" fill="#F1F1F1" stroke="#BABABA" stroke-width="1.18548" stroke-linecap="round" stroke-linejoin="round"/>
</svg>
