<svg width="13" height="7" viewBox="0 0 13 7" fill="none" xmlns="http://www.w3.org/2000/svg">
<path d="M11.8651 0.665164C11.822 0.708319 11.7788 0.751482 11.7356 0.794638C11.6222 0.95647 11.5574 1.15068 11.4764 1.32869C11.363 1.58762 11.1687 1.81416 11.0391 2.07309C10.9096 2.33203 10.8286 2.6395 10.9258 2.91461C11.0553 3.22209 11.3954 3.46486 11.3307 3.78853C11.2821 4.03128 10.9905 4.16072 10.7476 4.20927C10.3589 4.25782 9.95402 4.1769 9.56532 4.20927C9.06324 4.22545 8.57736 4.4035 8.18866 4.72716C7.67039 5.14792 7.29785 5.81143 6.66621 6.05418C6.62302 6.07575 6.58524 6.09194 6.55285 6.10273C6.27751 6.038 6.03459 5.90851 5.84024 5.71431C5.35436 5.19645 5.32193 4.40347 4.99801 3.77233C4.83606 3.46485 4.60933 3.20591 4.334 2.99553C4.26922 2.94698 4.20444 2.91464 4.13966 2.89845C4.04248 2.88227 3.94528 2.89845 3.83191 2.93081C3.4918 3.04409 3.13551 3.17356 2.763 3.17356C2.39049 3.15738 2.00176 2.99553 1.8398 2.67186C1.72642 2.4453 1.71024 2.13783 1.48349 2.04074C1.28914 1.95982 1.0786 2.07309 0.884248 1.99218C0.657504 1.89508 0.608908 1.60378 0.592712 1.34485C0.592712 1.23696 0.592712 1.12907 0.592712 1.02119C1.40251 1.08592 2.21231 1.10212 3.02211 1.03739C3.94528 0.972653 4.88464 0.778462 5.80781 0.681363C6.95773 0.568081 8.10765 0.58424 9.25757 0.616607C10.1322 0.627396 11.0014 0.643587 11.8651 0.665164Z" fill="#F1F1F1" stroke="#BABABA" stroke-width="1.18548" stroke-linecap="round" stroke-linejoin="round"/>
</svg>
