<svg width="29" height="13" viewBox="0 0 29 13" fill="none" xmlns="http://www.w3.org/2000/svg">
<path d="M27.479 4.94884C27.4682 5.00279 27.4574 5.05673 27.4466 5.11067C27.317 5.67708 26.9608 6.19494 26.4587 6.50242C26.2157 6.64807 25.9242 6.77754 25.8432 7.05266C25.7946 7.21449 25.8432 7.40868 25.7622 7.57051C25.665 7.81326 25.3573 7.87799 25.1791 8.07219C24.8876 8.37967 25.001 8.88135 24.8714 9.28592C24.7904 9.56104 24.5799 9.78761 24.3855 9.98181L24.3532 10.0142C23.8997 10.4673 23.43 10.9366 22.8146 11.1146C22.1991 11.3088 21.5189 11.1632 20.8711 11.0985C20.2232 11.0337 19.4781 11.0823 19.0247 11.5516C18.8627 11.7134 18.7494 11.9076 18.5874 12.0532C18.3121 12.2798 17.9558 12.3284 17.5994 12.3284C16.6601 12.3607 15.7207 12.1342 14.7651 12.0371C14.506 12.0047 14.2415 11.9831 13.9716 11.9723C13.4857 11.9723 12.9836 12.0371 12.4977 11.9238C11.8013 11.762 11.2344 11.2603 10.7647 10.7262C10.4894 10.3864 10.2141 10.0142 9.80915 9.83616C9.50143 9.70669 9.16131 9.69051 8.83739 9.69051C8.31912 9.67432 7.78464 9.65813 7.28256 9.7876C6.3432 9.99798 5.38766 10.6453 4.48069 10.2893L4.25396 10.2407L3.89762 10.176C3.34695 10.0357 2.80167 9.90089 2.26181 9.77142C2.15383 9.74984 2.05127 9.72287 1.9541 9.69051C1.64637 9.60959 1.32244 9.54486 1.04711 9.35066C0.78797 9.17265 0.577453 8.88135 0.593649 8.55768C0.609845 8.20165 0.901405 7.92653 1.03097 7.60287C1.07956 7.48959 1.11191 7.36013 1.1443 7.24685C1.51681 7.37631 1.82451 7.63524 2.18083 7.81326C2.53714 7.99127 3.00682 8.08837 3.31454 7.84562C3.55748 7.6676 3.65468 7.34394 3.89762 7.18211C4.20534 6.98791 4.61022 7.08501 4.93414 7.27921C5.24187 7.4734 5.51723 7.73233 5.85735 7.84562C6.37562 8.03982 7.02349 7.84563 7.34741 7.37632C7.49317 7.14976 7.59029 6.85846 7.84942 6.72899C8.36769 6.45388 8.88597 7.16593 9.46902 7.26303C10.3112 7.40867 11.1048 6.29203 11.8337 6.69661C12.0118 6.79371 12.1414 6.97173 12.3195 7.08501C12.4815 7.1983 12.7568 7.21447 12.8702 7.03646C12.9026 6.95554 12.9026 6.87463 12.9188 6.79371C12.9188 6.0331 12.7245 5.20777 13.016 4.46335C13.1618 4.05877 13.5019 3.75127 13.8258 3.45998C14.1497 3.1525 14.5384 2.87739 14.9433 2.68319C15.2672 2.50518 15.6398 2.39189 16.0123 2.37571C16.131 2.37571 16.2498 2.38649 16.3685 2.40807C17.0326 2.50517 17.6804 2.81265 18.3283 2.65082C18.9761 2.48898 19.3972 1.89021 19.7859 1.35616C20.0126 1.04868 20.2879 0.741199 20.6443 0.627917C21.3569 0.433719 21.9723 1.09723 22.604 1.45326C23.3652 1.90639 24.2884 1.95494 25.1791 1.98731C25.6812 2.00349 26.1833 2.01968 26.6692 1.89021C26.8959 1.82548 27.1227 1.72838 27.3008 1.58273C27.236 1.87403 27.1227 2.14914 27.0255 2.40807C26.7664 3.08776 26.5396 3.89693 26.9607 4.47952C27.0903 4.67372 27.2846 4.81938 27.479 4.94884Z" fill="#F1F1F1" stroke="#BABABA" stroke-width="1.18548" stroke-linecap="round" stroke-linejoin="round"/>
</svg>
