<svg width="11" height="9" viewBox="0 0 11 9" fill="none" xmlns="http://www.w3.org/2000/svg">
<path d="M9.24144 6.64934C9.04708 6.94064 8.75551 7.15103 8.46398 7.34522C7.76755 7.79835 6.84441 8.12199 6.14799 7.68505C5.95363 7.57176 5.79169 7.39375 5.59734 7.28047C5.20863 7.03772 4.72272 7.02154 4.26923 7.03772C3.76716 7.0539 3.26511 7.11865 2.76304 7.21575C2.78463 7.1726 2.80621 7.12402 2.82781 7.07008C2.89259 6.82733 2.87636 6.56841 2.87636 6.30948C2.86017 6.13146 2.86017 5.95346 2.79538 5.77544C2.7144 5.58124 2.55246 5.41942 2.4067 5.27377C2.0018 4.86919 1.61308 4.48079 1.17578 4.14094C0.981432 3.99529 0.754672 3.83346 0.592712 3.65545C0.646699 3.59071 0.69535 3.52058 0.73854 3.44506C0.932892 3.18613 1.111 2.89483 1.33774 2.65208C1.45112 2.52261 1.58067 2.40934 1.72643 2.29606C2.00176 2.06949 2.27714 1.84292 2.58487 1.68109C3.15173 1.38979 3.79957 1.32506 4.36643 1.03376C4.57697 0.93666 4.75508 0.80719 4.96563 0.726274C5.19237 0.629175 5.41915 0.59682 5.64589 0.59682C5.89423 0.586032 6.13717 0.596813 6.37471 0.629179C6.37471 1.24414 6.37471 1.85371 6.37471 2.45789C6.37471 2.6359 6.3747 2.81391 6.43948 2.97574C6.50427 3.12139 6.61769 3.25086 6.73106 3.38032C7.28172 3.94673 7.9781 4.35132 8.62594 4.78827C8.96606 4.99865 9.30617 5.25757 9.43574 5.64597C9.53292 5.98582 9.43579 6.35804 9.24144 6.64934Z" fill="#F1F1F1" stroke="#BABABA" stroke-width="1.18548" stroke-linecap="round" stroke-linejoin="round"/>
</svg>
