<svg width="115" height="49" viewBox="0 0 115 49" fill="none" xmlns="http://www.w3.org/2000/svg">
<path d="M113.436 24.5772C113.501 25.4025 112.416 25.8719 111.606 25.6777C110.796 25.4835 110.116 24.9332 109.306 24.7876C108.48 24.6258 107.638 24.9009 106.844 25.1598C106.531 25.2677 106.218 25.3756 105.905 25.4835C104.523 25.9366 103.146 26.3897 101.775 26.8428C101.564 26.9076 101.37 26.9885 101.208 27.1342C100.997 27.3122 100.917 27.5873 100.819 27.8462C100.188 29.6264 98.6491 31.4713 96.7704 31.1638C96.2197 31.0829 95.6691 30.8077 95.1184 30.9048C94.422 31.0181 93.9847 31.6493 93.4826 32.1348C92.1221 33.4618 89.9195 33.8016 88.2351 32.9601C87.6844 32.685 87.1661 32.2966 86.5507 32.1995C85.3522 32.0376 84.348 33.041 83.5544 33.9473C83.3763 34.1577 83.2144 34.3518 83.1334 34.6108C82.7123 36.0187 85.5142 36.6984 85.3036 38.1549C85.1902 38.8508 84.4128 39.223 83.7164 39.3686C83.0361 39.4981 82.2588 39.5466 81.7405 40.0321C81.4004 40.3558 81.2384 40.8251 80.9955 41.2297C80.0723 42.7509 78.1288 43.204 76.3796 43.5277C75.586 43.6895 74.7762 43.8352 73.9502 43.819C73.0594 43.8028 72.1687 43.5925 71.2779 43.4954C70.3223 43.3983 69.3344 43.4306 68.3788 43.5924C67.4718 43.7543 66.4514 43.997 65.6578 44.4825C65.4959 44.5634 65.3502 44.6767 65.2044 44.7738C64.5242 45.227 63.601 45.1622 62.9855 45.7772C62.451 46.3112 61.9976 46.9424 61.3498 47.347C60.6857 47.7354 59.7464 47.8001 59.2443 47.2175C59.0175 46.9424 58.9042 46.5378 58.5802 46.3921C58.2563 46.2627 57.9162 46.4245 57.5923 46.5378C57.0254 46.7482 56.4262 46.8453 55.8269 46.7967C55.665 46.7805 55.503 46.7644 55.3896 46.6673C55.2276 46.554 55.1629 46.376 55.0657 46.2141C54.4826 45.3726 53.1708 45.6639 52.1828 45.3726C50.9681 45.0166 50.2231 43.7219 49.0408 43.285C48.4416 43.0584 47.7937 43.0746 47.1621 43.0746C44.1172 43.1177 41.067 43.0854 38.0113 42.9775C37.5254 42.9613 37.0396 42.9289 36.5537 42.7995C36.1164 42.6862 35.6953 42.4758 35.258 42.3787C34.2863 42.1521 33.2659 42.4111 32.2618 42.3787C31.2738 42.3463 30.4154 41.877 29.7999 40.987C29.5084 40.5986 29.2169 40.2263 28.8768 39.8865C28.6339 39.6599 28.4881 39.3686 28.4233 39.045C28.2613 38.3815 28.2128 37.6694 27.8241 37.1192C27.241 36.2776 26.1073 36.0996 25.1517 35.7598C23.3378 35.0963 21.8801 33.6398 20.05 33.0086C18.9973 32.6364 17.8473 32.5717 16.7298 32.5231C15.6177 32.4584 14.5001 32.3991 13.3772 32.3451C12.8265 32.3128 12.2597 32.2804 11.7738 32.0215C10.8345 31.5198 10.4781 30.1766 11.045 29.2865C11.4013 28.7201 12.0977 28.1213 11.7738 27.5387C11.6281 27.2636 11.2879 27.118 11.207 26.8105C11.0126 26.2117 11.9682 25.7748 11.9358 25.1436C11.9034 24.5934 11.207 24.3992 10.8021 24.027C10.3162 23.59 10.2352 22.8941 9.97605 22.3116C9.65213 21.5671 9.02047 21.0007 8.42122 20.4505C8.01632 20.0945 7.61141 19.7384 7.10933 19.5604C6.46149 19.35 5.74887 19.4957 5.08483 19.3662C4.0159 19.172 3.20616 18.3467 2.47734 17.5537C2.16962 17.23 1.86189 16.9226 1.58656 16.5665C1.0197 15.8868 0.533805 14.9968 0.598589 14.139C0.776745 14.0905 0.954917 14.0258 1.10068 13.9449C1.18166 13.8963 1.26264 13.8478 1.34362 13.783C1.68374 13.5079 1.95902 13.1519 2.34772 12.9253C2.68784 12.7311 3.06038 12.6826 3.43289 12.6178C4.40465 12.4236 5.53833 12.634 6.31574 12.019C6.63966 11.7601 6.85019 11.3879 7.10933 11.0642C8.0325 9.86668 9.5226 9.25171 10.9802 8.81477C12.4379 8.37782 13.9603 8.03799 15.2397 7.22883C15.8228 6.84043 16.5516 6.35492 17.1508 6.71095C17.2966 6.80805 17.41 6.93753 17.5557 7.05081C17.9768 7.37448 18.5599 7.42302 19.0944 7.47157C19.8286 7.52552 20.5521 7.6226 21.2647 7.76286C22.0421 7.89232 22.8357 8.10271 23.4025 8.63676C23.7588 8.9766 23.9856 9.41356 24.3419 9.73722C24.9736 10.3036 25.8643 10.4493 26.7065 10.5626C27.3057 10.6597 27.9374 10.7406 28.5205 10.5787C28.9739 10.4655 29.3789 10.2065 29.8486 10.1418C30.1077 10.1094 30.3506 10.1903 30.5612 10.336C30.7393 10.4655 30.8689 10.692 31.0471 10.8053C31.1442 10.87 31.2576 10.8862 31.371 10.9024C31.4681 10.9186 31.5653 10.9348 31.6625 10.9186C31.7434 10.9024 31.8083 10.87 31.8731 10.8539C32.3104 10.7406 32.78 10.7891 33.1525 10.9995C33.2983 11.0804 33.4278 11.1775 33.5898 11.2261C33.9461 11.307 34.3024 11.0642 34.594 10.8539C34.9719 10.5841 35.3713 10.3522 35.7924 10.158C36.6022 9.7534 37.5902 9.33263 37.4283 8.23218C37.3959 8.03798 37.3311 7.84378 37.2339 7.66576C37.0395 7.26118 36.7966 6.84042 36.4565 6.53294C36.3107 6.40348 36.1488 6.29019 36.0354 6.12836C35.8248 5.82088 35.8734 5.40013 35.9544 5.02792C36.0678 4.42914 36.246 3.81417 36.6509 3.34486C37.2339 2.68135 38.1571 2.40623 38.7564 1.74272C38.9669 1.51616 39.1288 1.24105 39.3394 0.998297C39.5499 0.771733 39.8414 0.577534 40.1654 0.593717C40.5379 0.609901 40.8456 0.917385 41.1533 1.14395C41.3963 1.32197 41.6716 1.46761 41.9631 1.56471C42.2709 1.67799 42.5786 1.72654 42.8863 1.82364C43.3074 1.9531 43.7285 2.01783 44.1658 2.09874C44.6085 2.18505 45.0458 2.26597 45.4777 2.34149C45.8988 2.42241 46.3199 2.48715 46.6762 2.69753C46.9191 2.84318 47.1134 3.02119 47.3564 3.13447C47.8908 3.42577 48.5549 3.37722 49.1541 3.45813C49.8992 3.53905 50.5956 4.25111 50.709 4.97936C50.7198 5.02251 50.7306 5.06027 50.7414 5.09263C50.8224 5.57813 51.0167 6.01507 51.2273 6.4682C51.4216 6.8566 51.5836 7.2612 51.8589 7.61723C52.3772 8.28074 53.1221 8.75005 53.9157 9.00898C53.9589 9.01977 53.9968 9.03055 54.0292 9.04134C55.2439 9.38118 56.5557 9.23555 57.7542 8.83097C58.7422 8.47494 59.6978 7.94087 60.7667 7.84378C62.3053 7.69813 63.7953 8.50729 65.3501 8.63676C65.9494 8.68531 66.5972 8.63676 67.1479 8.92806C67.8605 9.30027 68.2654 10.2065 69.059 10.3684C69.5125 10.4493 69.9984 10.2551 70.4195 10.4331C71.2617 10.7568 71.1483 12.0838 71.8285 12.6664C72.444 13.2004 73.3671 12.9415 74.1769 12.9091C75.6508 12.8768 76.9789 13.7345 78.4203 14.0258C79.6512 14.2847 80.9469 14.1229 82.0644 13.5726C82.3398 13.4432 82.5989 13.2813 82.8742 13.168C83.1658 13.0548 83.4735 12.99 83.7812 12.9415C85.1741 12.6826 86.5993 12.5531 88.0083 12.5693C88.2189 12.5693 88.4295 12.5693 88.6238 12.4722C89.0125 12.278 89.0125 11.7278 89.223 11.3394C89.385 11.0481 89.6279 10.8215 89.9033 10.6435C90.0328 10.5626 90.1786 10.4978 90.3082 10.4331C90.5187 10.3198 90.6969 10.1742 90.875 10.0447C91.0694 9.91524 91.2799 9.81813 91.4904 9.7534C91.6686 9.68867 91.8468 9.65631 91.9925 9.55921C92.1383 9.44593 92.2355 9.30027 92.3651 9.17081C92.5594 8.99279 92.8347 8.92806 93.11 8.86332C93.5635 8.76622 94.0332 8.68531 94.4867 8.76623C94.7458 8.81478 94.9888 8.91188 95.2317 9.00898C95.4909 9.12226 95.7662 9.21936 95.9768 9.41356C96.3655 9.7534 96.5112 10.3198 96.9161 10.6111C97.2562 10.8539 97.7097 10.87 98.1308 10.87C98.3413 10.87 98.5682 10.87 98.7625 10.7891C98.9569 10.7082 99.135 10.5787 99.2969 10.4655C99.4805 10.3468 99.6586 10.2173 99.8314 10.0771C99.9447 9.96378 100.074 9.86668 100.236 9.83432C100.382 9.80195 100.544 9.81812 100.69 9.86667C100.998 9.94759 101.273 10.1418 101.5 10.3684C101.662 10.5464 101.807 10.7406 101.969 10.9348C100.56 12.8606 99.2322 14.9158 98.9083 17.2462C98.8759 17.5375 98.8273 17.8612 98.5843 18.023C98.4224 18.1363 98.1956 18.1363 98.0175 18.2172C97.5478 18.4114 97.4182 19.0587 97.6126 19.5281C97.8069 19.9974 98.2442 20.321 98.6491 20.6123C98.8435 20.7742 99.054 20.9198 99.2969 20.9198C99.5237 20.9036 99.718 20.7742 99.9124 20.6447C100.981 19.9326 102.471 19.4633 103.492 20.2401C103.67 20.3858 103.832 20.5638 104.042 20.6285C104.658 20.8227 105.111 20.0945 105.597 19.6575C106.294 19.0264 107.363 18.9616 108.237 19.2853C109.112 19.5928 109.841 20.2239 110.505 20.8874C111.412 21.7775 112.254 22.7323 113.015 23.7357C113.209 23.9946 113.404 24.2697 113.436 24.5772Z" fill="#F1F1F1" stroke="#BABABA" stroke-width="1.18548" stroke-linecap="round" stroke-linejoin="round"/>
</svg>
