<svg width="16" height="14" viewBox="0 0 16 14" fill="none" xmlns="http://www.w3.org/2000/svg">
<path d="M15.0233 5.09171C15.0557 5.7714 13.9706 5.94942 13.7763 6.61293C13.7115 6.82331 13.7763 7.04988 13.7925 7.27644C13.9059 8.50636 12.8693 9.68774 11.6384 9.86575C11.3145 9.89812 10.9906 9.89811 10.6666 9.97903C10.3589 10.0761 10.0512 10.3027 10.0026 10.6264C9.9378 11.0633 10.3589 11.4031 10.4561 11.8401C10.5857 12.3256 10.2941 12.8111 10.1645 13.2966C9.9378 13.2642 9.71105 13.2157 9.5167 13.1186C9.38713 13.0538 9.27378 12.9567 9.12801 12.9244C8.80409 12.8111 8.43162 12.9567 8.1077 12.8435C7.94574 12.7787 7.79996 12.6493 7.68659 12.5198C7.44365 12.2932 7.2331 12.0343 6.95777 11.8401C6.68243 11.6459 6.34235 11.5164 6.01843 11.5488C5.61353 11.6135 5.27335 11.9048 4.90084 12.0667C4.64171 12.1638 4.35023 12.2123 4.13968 12.3903C4.02631 12.4712 3.94534 12.5845 3.83197 12.6493C3.7024 12.7302 3.54041 12.7302 3.39465 12.7302C2.88717 12.7302 2.38513 12.6978 1.88845 12.6331C1.6779 12.6007 1.4511 12.5683 1.25675 12.4712C1.03 12.3741 0.851878 12.2123 0.64133 12.0667C0.619735 12.0667 0.603571 12.0613 0.592773 12.0505C0.916693 11.8563 1.22437 11.6297 1.5159 11.4032C1.85061 11.1442 2.18536 10.8853 2.52008 10.6264C2.90878 10.3351 3.31368 10.0276 3.49184 9.57445C3.58902 9.3317 3.62141 9.05659 3.6538 8.79766C3.75098 8.1827 3.94531 7.56773 4.12347 6.96896C4.28543 6.41873 4.46357 5.85231 4.7551 5.38299C4.98184 5.02696 5.35439 4.80042 5.77549 4.75187C6.27757 4.68713 6.76343 4.60621 7.21692 4.39582C7.78378 4.13689 8.28582 3.65139 8.39919 3.03643C8.44778 2.74513 8.4316 2.38911 8.65835 2.19491C8.8365 2.04926 9.09567 2.06546 9.33861 2.08164C10.3967 2.16795 11.4602 2.18412 12.5292 2.13018C12.7883 2.11399 13.0637 2.09782 13.2742 1.93599C13.5657 1.70942 13.6143 1.28865 13.8411 1.01353C14.1164 0.673685 14.5699 0.592773 15.0233 0.592773C15.0395 0.948804 14.991 1.30483 14.8776 1.64468C14.6185 2.48621 13.9869 3.39247 14.4403 4.15308C14.6347 4.47674 15.0071 4.7195 15.0233 5.09171Z" fill="#F1F1F1" stroke="#BABABA" stroke-width="1.18548" stroke-linecap="round" stroke-linejoin="round"/>
</svg>
