<svg width="32" height="26" viewBox="0 0 32 26" fill="none" xmlns="http://www.w3.org/2000/svg">
<path d="M30.4257 0.592773V7.09841H18.7161V16.517C18.5217 16.5656 18.3435 16.6141 18.1816 16.7274C18.052 16.8407 17.9548 16.9863 17.8091 17.0996C17.7281 17.1805 17.6147 17.2291 17.5175 17.2776C16.6591 17.6984 15.8008 18.103 15.072 18.7017C15.0504 18.7125 15.0287 18.7233 15.0071 18.7341C14.7804 18.9283 14.5698 19.1549 14.4727 19.43C14.3269 19.8669 14.5375 20.401 14.9586 20.6114C14.9801 20.6222 14.9964 20.6329 15.0071 20.6437V24.8352H0.592712C0.96522 23.7186 1.4025 22.6343 1.92078 21.5986C2.13132 21.1454 2.39046 20.6761 2.81156 20.4172C3.0221 20.3039 3.26507 20.223 3.44322 20.0612C4.17204 19.4138 3.31366 17.9897 4.01008 17.2938C4.22063 17.0673 4.57692 16.9378 4.6741 16.6465C4.72268 16.5008 4.69032 16.339 4.70652 16.1934C4.72271 15.8373 4.99805 15.5298 5.27338 15.3356C5.986 14.4779 6.66622 13.5393 7.36265 12.6816C7.557 12.4389 7.76756 12.1961 8.0267 12.0181C8.12387 11.9372 8.25343 11.8724 8.33441 11.7753C8.49637 11.6135 8.56117 11.3546 8.59356 11.1118C8.64215 10.7396 8.69073 10.335 8.91748 10.0437C8.99846 9.96283 9.07942 9.88193 9.14421 9.78483C9.30617 9.54209 9.27376 9.23459 9.28995 8.95948C9.32235 8.47398 9.53293 8.02085 9.72728 7.5839C9.77586 7.45444 9.84063 7.32498 9.95401 7.22788C10.0188 7.19552 10.0998 7.16316 10.1483 7.11461C10.3103 6.98514 10.3589 6.77475 10.4075 6.58055C10.4885 6.32162 10.6342 6.11123 10.7962 5.91703C11.4764 5.25352 12.5616 5.04316 13.1122 4.28255C13.4523 3.82942 13.5495 3.24682 13.6467 2.69659C13.6791 2.43766 13.7277 2.16252 13.7924 1.90359C13.8896 1.54756 14.0516 1.20773 14.2136 0.86788C14.246 0.770781 14.2891 0.679084 14.3431 0.592773H30.4257Z" fill="#F1F1F1" stroke="#BABABA" stroke-width="1.18548" stroke-linecap="round" stroke-linejoin="round"/>
</svg>
