<svg width="19" height="17" viewBox="0 0 19 17" fill="none" xmlns="http://www.w3.org/2000/svg">
<path d="M17.5337 8.19885C17.145 8.65198 16.481 8.83 16.1409 9.33168C15.736 9.89809 15.9141 10.7234 15.6226 11.3546C15.3148 12.0181 14.5375 12.3741 14.1488 12.9891C13.8573 13.4746 13.8086 14.0572 13.7762 14.6074C13.76 15.0444 13.7601 15.4813 13.8087 15.9183C12.3672 15.0929 11.0553 14.0734 9.92162 12.8758C9.66249 12.6007 9.40332 12.3094 9.0794 12.1314C8.46395 11.8077 7.70277 11.921 7.08732 12.2123C6.56905 12.455 6.11552 12.8273 5.66203 13.1671C5.64043 12.9837 5.62968 12.8003 5.62968 12.6169C5.59729 11.9534 5.6135 11.2413 5.24099 10.7072C4.67414 9.89809 3.34602 9.65534 3.16786 8.68435C3.08688 8.23122 3.28126 7.76194 3.1193 7.34118C3.03832 7.11461 2.86014 6.93659 2.76296 6.72621C2.5848 6.33781 2.68196 5.86851 2.50381 5.48011C2.24467 4.9137 1.51585 4.76803 1.04617 4.34727C0.884209 4.20162 0.738476 4.00743 0.592712 3.81323C0.706084 3.73232 0.803276 3.61902 0.851864 3.45719C0.916648 3.26299 0.900468 3.02026 1.03004 2.84224C1.14341 2.72896 1.30532 2.68039 1.46728 2.66421C1.88838 2.59948 2.34191 2.66423 2.73062 2.84224C3.29748 3.08499 3.73472 3.53812 4.2206 3.89415C4.72268 4.26636 5.32193 4.55765 5.92118 4.42818C5.98596 4.412 6.05076 4.39582 6.09935 4.34727C6.18033 4.26635 6.18035 4.15308 6.19654 4.05598C6.22893 3.66758 6.24511 3.23064 6.01837 2.92316C5.82402 2.66423 5.48392 2.55094 5.22478 2.35675C4.94945 2.17873 4.72268 1.83887 4.86844 1.53139C4.91703 1.43429 5.01425 1.35338 5.07903 1.25628C5.2248 1.06208 5.25717 0.835521 5.22478 0.592773C6.53666 1.32102 7.58938 2.64803 8.93365 3.39245C9.25757 3.57047 9.63009 3.71613 10.0026 3.68376C10.3913 3.63521 10.7314 3.39247 11.0716 3.1659C11.8975 2.56713 12.7883 2.03307 13.7115 1.59612C14.1326 1.9036 14.6508 2.19491 14.667 2.76132C15.3634 3.03644 15.2501 4.0236 15.5902 4.68711C16.0437 5.62573 17.4204 5.91702 17.7605 6.9042C17.9224 7.34114 17.8253 7.84282 17.5337 8.19885Z" fill="#F1F1F1" stroke="#BABABA" stroke-width="1.18548" stroke-linecap="round" stroke-linejoin="round"/>
</svg>
