<svg width="21" height="10" viewBox="0 0 21 10" fill="none" xmlns="http://www.w3.org/2000/svg">
<path d="M20.3912 3.32772C20.2832 3.45718 20.1752 3.59204 20.0673 3.7323C19.8081 4.07214 19.5652 4.42818 19.3222 4.76802C19.2089 4.91367 19.0955 5.07551 19.0307 5.23734C18.9336 5.43154 18.885 5.65811 18.8526 5.86849C18.8202 5.99795 18.7932 6.12742 18.7716 6.25689C18.1561 6.11124 17.5406 6.03031 16.9414 5.83611C16.3097 5.60955 15.7267 5.26971 15.0951 5.05933C14.4634 4.84895 13.7022 4.83276 13.1678 5.23734C12.6657 5.60955 12.4551 6.27307 11.9368 6.61291C11.208 7.09841 10.2201 6.75856 9.39412 7.01749C9.00541 7.13077 8.66528 7.37352 8.32517 7.5839C7.51537 8.08558 6.62454 8.47398 5.68517 8.71673C5.19929 8.84619 4.69726 8.9271 4.19519 8.89474C3.12625 8.79764 2.20306 8.11796 1.34468 7.47063C1.15032 7.34116 0.955941 7.19551 0.826373 7.00131C0.405277 6.41872 0.632084 5.60955 0.89122 4.92986C0.988396 4.67093 1.10172 4.39582 1.1665 4.10452C1.39325 3.94269 1.57142 3.7485 1.6686 3.50575C1.92773 3.47338 2.2031 3.60283 2.34886 3.81321C2.42984 3.92649 2.49456 4.05596 2.60793 4.1207C2.67272 4.15306 2.75376 4.15306 2.83474 4.13688C3.33682 4.10451 3.7417 3.71612 4.03323 3.31154C4.34095 2.90696 4.58384 2.45382 4.95635 2.11398C5.5718 1.59612 6.54359 1.3372 6.77033 0.592773C6.85671 0.635929 6.94311 0.679072 7.02949 0.722227C7.53156 0.981158 8.08219 1.19154 8.61666 1.06207C9.03776 0.964971 9.47505 0.673674 9.83136 0.900238C9.94473 0.964971 10.0257 1.07827 10.1067 1.17536C10.6412 1.75796 11.5643 1.74177 12.3255 1.51521C12.7466 1.36956 13.1678 1.17536 13.6051 1.28864C13.8156 1.33719 13.9937 1.45047 14.1881 1.53139C14.6739 1.74177 15.2408 1.75796 15.7267 1.57994C15.921 1.49903 16.0831 1.41811 16.2774 1.35338C16.7633 1.22391 17.2815 1.36956 17.7512 1.57994C18.7229 1.98452 19.63 2.58329 20.3912 3.32772Z" fill="#F1F1F1" stroke="#BABABA" stroke-width="1.18548" stroke-linecap="round" stroke-linejoin="round"/>
</svg>
