<svg width="13" height="12" viewBox="0 0 13 12" fill="none" xmlns="http://www.w3.org/2000/svg">
<path d="M12.0399 8.44162C12.2181 8.81384 11.878 9.21841 11.7322 9.6068C11.6512 9.81718 11.6188 10.0276 11.6026 10.2541C11.581 10.4699 11.5594 10.6911 11.5378 10.9176C10.3069 11.0794 9.02743 10.1247 8.86547 8.91092C8.81689 8.52252 8.84928 8.10177 8.62253 7.79429C8.47677 7.61628 8.28245 7.50297 8.0881 7.40587C7.41866 7.07142 6.74921 6.73157 6.07977 6.38632C5.90162 6.28923 5.70729 6.19213 5.49674 6.14358C4.8327 5.98174 4.15245 6.33777 3.48841 6.22449C2.90536 6.12739 2.45187 5.70664 2.03077 5.30206L1.12382 4.42818C0.92947 4.23398 0.735118 4.02359 0.637942 3.76466C0.28163 2.68038 2.17655 1.82267 1.51251 0.608933C1.51251 0.608933 1.51251 0.603562 1.51251 0.592773C3.02414 0.679084 4.53576 0.824725 6.04739 1.02971C6.12837 1.02971 6.20933 1.04588 6.27412 1.09443C6.54945 1.24008 6.48469 1.62849 6.58186 1.91979C6.69524 2.22727 7.05155 2.42145 7.39166 2.38908C7.71558 2.34053 8.0071 2.08162 8.10427 1.75796C8.15286 1.59612 8.15287 1.43427 8.20146 1.28862C8.25005 1.07824 8.3796 0.900238 8.50917 0.738406C8.58475 1.00813 8.67652 1.26707 8.7845 1.51521C9.44853 3.18208 10.7766 4.46053 12.0723 5.70664C12.0939 5.71743 12.1101 5.73362 12.1209 5.7552C11.9697 6.02492 11.8186 6.30005 11.6674 6.58055C11.4406 6.98513 11.2301 7.48681 11.4893 7.87521C11.635 8.08559 11.9265 8.19887 12.0399 8.44162Z" fill="#F1F1F1" stroke="#BABABA" stroke-width="1.18548" stroke-linecap="round" stroke-linejoin="round"/>
</svg>
