<svg width="25" height="13" viewBox="0 0 25 13" fill="none" xmlns="http://www.w3.org/2000/svg">
<path d="M23.8786 7.20279C23.8786 7.22437 23.8731 7.24595 23.8623 7.26753C23.6356 8.01196 22.6638 8.27087 22.0484 8.78874C21.6758 9.12858 21.433 9.58172 21.1252 9.9863C20.8337 10.3909 20.4288 10.7793 19.9267 10.8116C19.8458 10.8278 19.7647 10.8278 19.6999 10.7955C19.5866 10.7307 19.5218 10.6013 19.4409 10.488C19.2951 10.2776 19.0197 10.1481 18.7606 10.1805C18.6634 10.4233 18.4853 10.6174 18.2585 10.7793C18.0804 10.9249 17.8536 11.022 17.6269 11.0868C17.141 11.2162 16.6389 11.2 16.1368 11.1839C15.246 11.1515 14.3229 11.1029 13.5617 10.6498C12.93 10.2938 12.3146 9.63027 11.6019 9.82446C11.2456 9.93775 10.9703 10.2452 10.7436 10.5527C10.3549 11.0868 9.93379 11.6855 9.28595 11.8474C8.63811 12.0092 7.99025 11.7017 7.32621 11.6046C7.05088 11.0544 6.71081 10.5365 6.24113 10.1643C5.75525 9.77591 5.17219 9.53317 4.62153 9.24187C3.9413 8.85348 3.32582 8.3518 2.72657 7.85012C2.49982 7.65592 2.27308 7.4779 2.15971 7.21897C1.90057 6.65256 2.19212 5.9405 1.852 5.43882C1.65765 5.13134 1.3013 5.00188 1.00978 4.79149C0.718248 4.58111 0.475356 4.19272 0.653512 3.88524C0.799276 3.65868 1.09077 3.61013 1.34991 3.56158C3.60115 3.20555 5.7714 2.34783 7.65013 1.06936C7.95786 0.858979 8.26558 0.632411 8.62189 0.600044C9.31832 0.519129 9.88523 1.13409 10.5331 1.42538C10.6518 1.47933 10.776 1.52249 10.9055 1.55486C11.1647 1.63577 11.44 1.66814 11.6991 1.71669C13.1082 1.92707 14.5659 2.28311 15.6348 3.22173C15.9101 3.4483 16.1369 3.7234 16.4446 3.90142C16.9305 4.19272 17.5297 4.2089 18.0803 4.06325C18.3719 3.98234 18.6634 3.85286 18.9711 3.85286C19.8619 3.86905 20.3316 4.96951 21.1576 5.27699C21.4167 5.37409 21.692 5.39028 21.9674 5.42264C22.4695 5.47119 22.9715 5.60066 23.3603 5.90814C23.749 6.21562 24.0081 6.73348 23.8786 7.20279Z" fill="#F1F1F1" stroke="#BABABA" stroke-width="1.18548" stroke-linecap="round" stroke-linejoin="round"/>
</svg>
