<svg width="23" height="23" viewBox="0 0 23 23" fill="none" xmlns="http://www.w3.org/2000/svg">
<path d="M21.4868 9.06443C21.3572 9.25863 21.1305 9.37193 20.9847 9.56613C20.8227 9.74414 20.7418 10.0031 20.6608 10.2297C20.4232 10.9849 20.1803 11.7347 19.932 12.4791C19.6242 13.4339 19.3165 14.3725 19.2679 15.3597C19.2193 16.3469 19.4299 17.3988 20.0939 18.1432C20.2883 18.3536 20.515 18.564 20.5636 18.8553C20.6284 19.1789 20.434 19.4864 20.2883 19.7777C20.2019 19.9504 20.1371 20.1283 20.0939 20.3117C19.8186 20.1337 19.5271 20.0205 19.1869 20.0043C18.7011 19.9881 18.199 20.2308 17.7131 20.1176C17.292 19.9881 17.0005 19.5997 16.6118 19.3893C15.964 19.0333 15.1703 19.1789 14.4415 19.3246C13.0486 19.6267 11.6612 19.9287 10.2791 20.2308C9.95522 20.2956 9.59893 20.4089 9.48555 20.7002C9.42077 20.862 9.43695 21.0724 9.30738 21.1695C9.17781 21.2504 9.01586 21.2018 8.8701 21.1857C7.94693 21.0238 7.15331 21.7359 6.31112 22.1567C6.20315 22.2106 6.08976 22.2591 5.97099 22.3023C5.56609 21.1695 4.57814 20.1337 4.51335 18.9038C4.48096 18.5316 4.52956 18.1109 4.28662 17.8358C4.05988 17.5606 3.62258 17.5283 3.34725 17.3017C3.18529 17.1722 3.07194 16.978 2.92618 16.8324C2.53747 16.4116 1.90581 16.3145 1.37134 16.0556C0.853072 15.8129 0.383396 15.1655 0.69112 14.68C0.7721 14.5506 0.90166 14.4535 0.966444 14.3078C1.07982 14.1298 1.04741 13.9032 1.03121 13.6928C0.998821 13.3044 0.961038 12.9106 0.917848 12.5115C0.901652 12.3334 0.885456 12.1393 0.836868 11.9612C1.39833 11.3031 1.96519 10.645 2.53745 9.9869C2.63462 9.88981 2.71563 9.79271 2.76422 9.66324C2.94237 9.21011 2.56986 8.67603 2.7966 8.25527C2.84519 8.15817 2.90997 8.07728 2.95856 7.99636C3.16911 7.52705 2.60225 7.05774 2.55366 6.53988C2.52127 6.07056 2.94235 5.56888 2.69941 5.16431C2.48886 4.84064 2.00298 4.84063 1.72765 4.58169C1.5171 4.37131 1.48473 4.04767 1.46854 3.75638C1.45234 3.1576 1.54952 2.51025 1.95442 2.0733C2.0192 1.99778 2.09477 1.93305 2.18114 1.87911C2.44028 1.68491 2.7642 1.57161 3.07192 1.45833C3.42824 1.34505 3.78454 1.23177 4.15705 1.2965C4.67532 1.3936 5.17742 1.86291 5.67949 1.70108C6.13298 1.55543 6.31112 1.00522 6.71602 0.746286C7.16951 0.438806 7.81733 0.632988 8.23843 0.972835C8.65953 1.31268 8.95109 1.79819 9.32359 2.20277C9.6799 2.59117 10.263 2.91485 10.7003 2.62355C10.9594 2.44554 11.0565 2.0895 11.0403 1.76584C11.0403 1.63637 11.0242 1.49072 11.008 1.36126C11.2995 1.63637 11.6072 1.8953 11.9473 2.0895C12.3522 2.31606 12.8057 2.51024 13.0001 2.91482C13.0649 3.0281 13.0972 3.17378 13.1782 3.27088C13.405 3.57836 13.8585 3.56215 14.1824 3.77254C14.3929 3.902 14.5387 4.14476 14.7654 4.27423C15.0731 4.43606 15.5105 4.35514 15.721 4.06384C15.8182 3.93437 15.8668 3.78873 15.9477 3.65926C16.2231 3.17376 16.8223 2.97955 17.3568 2.8339C17.5673 2.76917 17.7941 2.70445 18.0208 2.76919C18.2152 2.81773 18.3771 2.96338 18.5391 3.09285C19.0088 3.46506 19.5594 3.69163 20.1425 3.78873C20.1425 3.84268 20.1371 3.89121 20.1263 3.93437C20.0939 4.3875 20.2721 4.84062 20.434 5.26138C20.7579 6.05975 21.0765 6.85813 21.3896 7.6565C21.5678 8.10963 21.7459 8.65985 21.4868 9.06443Z" fill="#F1F1F1" stroke="#BABABA" stroke-width="1.18548" stroke-linecap="round" stroke-linejoin="round"/>
</svg>
