<svg width="17" height="25" viewBox="0 0 17 25" fill="none" xmlns="http://www.w3.org/2000/svg">
<path d="M16.1313 19.1211C16.1097 19.1319 16.0936 19.1373 16.0828 19.1373C15.8074 19.3153 15.5645 19.5742 15.2892 19.7523C14.7709 20.0759 14.123 20.1407 13.5076 20.1245C13.3456 20.1245 13.1351 20.1407 13.0541 20.2863C13.0055 20.3672 13.0217 20.4805 13.0055 20.5776C12.9731 20.8204 12.6978 20.966 12.4549 20.9822C12.1957 20.9984 11.9528 20.9337 11.7099 20.9175C10.6733 20.8527 9.81493 21.7428 8.79458 21.9532C7.85521 22.1474 6.77007 21.7428 5.94407 22.2931C5.21525 23.0213 4.25967 23.7495 3.25552 23.4906C2.55909 23.3288 2.02466 22.73 1.4254 22.3416C1.46859 22.1582 1.53337 21.9802 1.61975 21.8076C1.76551 21.5163 1.95986 21.2087 1.89507 20.8851C1.84648 20.5938 1.61976 20.3834 1.4254 20.173C0.761368 19.4286 0.550804 18.3767 0.599392 17.3895C0.64798 16.4024 0.95572 15.4637 1.26344 14.5089C1.51178 13.7645 1.75472 13.0147 1.99226 12.2595C2.07324 12.0329 2.15422 11.774 2.31618 11.5959C2.46195 11.4017 2.68867 11.2884 2.81824 11.0943C3.07737 10.6897 2.89924 10.1395 2.72108 9.68632C2.40796 8.88795 2.08942 8.08957 1.7655 7.2912C1.60354 6.87044 1.4254 6.41732 1.45779 5.96419C1.46859 5.92103 1.47396 5.8725 1.47396 5.81855C1.57114 5.31687 1.86267 4.84757 1.84648 4.32971C1.81408 3.82803 1.49018 3.39107 1.29583 2.93794C1.10148 2.46862 1.11766 1.80513 1.57115 1.57856C1.73311 1.49765 1.94366 1.48145 2.13801 1.48145C4.15711 1.43829 6.18161 1.39513 8.21151 1.35198C8.74598 1.35198 9.29665 1.33581 9.79872 1.12543C10.2684 0.915046 10.7219 0.510474 11.2402 0.607573C11.4669 0.656123 11.6613 0.785572 11.8556 0.915038C11.726 1.15779 11.6127 1.41672 11.5479 1.69184C11.4183 2.19352 11.4345 2.75992 11.726 3.18069C12.1795 3.82801 13.1351 4.05458 13.4266 4.799C13.6857 5.43015 13.2971 6.1422 12.876 6.69243C12.4549 7.25884 11.969 7.84146 11.9852 8.53734C12.0014 8.73154 12.05 8.94189 12.1471 9.11991C12.4387 9.63777 13.0379 9.92908 13.3618 10.4308C13.54 10.7059 13.621 11.0457 13.6858 11.3856C13.8477 12.3404 13.7829 13.3437 13.5238 14.2824C13.2971 15.043 12.9407 15.8845 13.2809 16.6127C13.3942 16.8878 13.621 17.1144 13.8477 17.3086C14.5765 17.9398 15.5159 18.3929 16.1313 19.1211Z" fill="#F1F1F1" stroke="#BABABA" stroke-width="1.18548" stroke-linecap="round" stroke-linejoin="round"/>
</svg>
