<svg width="22" height="19" viewBox="0 0 22 19" fill="none" xmlns="http://www.w3.org/2000/svg">
<path d="M20.6758 6.14828C20.6596 5.90554 20.53 5.67896 20.3357 5.53331C20.2223 5.43622 20.0766 5.37147 19.947 5.40384C19.704 5.43621 19.5745 5.67897 19.4611 5.90554C19.2506 6.29393 18.9752 6.64995 18.6513 6.94124C18.6675 7.10308 18.5379 7.26491 18.3759 7.32965C18.214 7.39438 18.0358 7.39439 17.8576 7.3782C17.6471 7.3782 17.4042 7.36202 17.226 7.23255C17.1126 7.15163 17.0155 7.03835 16.9345 6.92507C16.6754 6.61758 16.3676 6.35867 16.0275 6.14828C15.9303 6.08355 15.8007 6.03499 15.6712 6.03499C15.5578 6.05117 15.4445 6.11591 15.3311 6.18064C14.9262 6.39102 14.4241 6.42339 14.0192 6.24538C13.7763 6.14828 13.582 5.97025 13.3876 5.80842C12.6912 5.22583 12.0109 4.62706 11.3955 3.96355C11.0715 3.60752 10.78 3.2353 10.4561 2.87927C9.97024 2.32904 9.38715 1.84355 8.8041 1.4066C8.62594 1.2124 8.39918 1.08294 8.22102 0.904926C8.10765 0.791644 8.01052 0.694533 7.86476 0.6298C7.63802 0.548884 7.39509 0.613624 7.15215 0.678357C7.05498 0.710724 6.95778 0.743098 6.893 0.807831C6.81202 0.872563 6.77964 0.969659 6.74725 1.06676C6.66627 1.34187 6.61764 1.63316 6.61764 1.92446C6.63383 2.03774 6.63382 2.15102 6.6824 2.24812C6.73099 2.34522 6.81202 2.42615 6.893 2.50707C7.16293 2.75521 7.41662 3.01952 7.65416 3.30003C7.71895 3.38094 7.78373 3.46186 7.81612 3.54277C7.84852 3.65606 7.84853 3.76935 7.83234 3.88264C7.83234 4.14157 7.84853 4.41667 7.91332 4.6756C7.94571 5.11254 7.6542 5.51713 7.36267 5.85698C7.26549 5.97026 7.15209 6.09973 7.0873 6.2292C6.79578 6.76325 7.00632 7.50767 6.60142 7.92844C6.45566 8.07408 6.26134 8.17118 6.14797 8.33301C5.96981 8.59195 6.03458 8.93179 6.13176 9.23927C6.3423 9.4982 6.27757 9.91896 6.01843 10.1293C5.95365 10.1779 5.87264 10.2264 5.82405 10.3074C5.79166 10.3559 5.79167 10.4045 5.75928 10.453C5.6783 10.5501 5.53252 10.5663 5.41915 10.5015C5.30578 10.4368 5.22476 10.3397 5.14378 10.2426C4.70649 9.75712 3.99387 9.54675 3.36223 9.70859C3.23266 9.74095 3.10315 9.7895 3.02217 9.8866C2.9088 10.0161 2.87635 10.1941 2.87635 10.3721C2.86555 10.5987 2.86555 10.8306 2.87635 11.068C2.90874 11.2945 2.92493 11.5211 2.79537 11.6991C2.68199 11.8609 2.48764 11.9095 2.30949 11.9419C2.13133 11.9742 1.93699 11.9742 1.75884 12.0551C1.62927 12.1199 1.49975 12.2332 1.40257 12.3464C1.22982 12.5298 1.06244 12.724 0.900482 12.929C0.803306 13.0585 0.722326 13.188 0.657542 13.3336C0.592758 13.4954 0.592773 13.6735 0.592773 13.8515C0.592773 14.1751 0.608922 14.4826 0.706098 14.7739C0.803274 15.049 0.981477 15.308 1.24061 15.4536C1.37018 15.6155 1.54832 15.6964 1.71028 15.7935C1.83985 15.8744 1.93698 15.9715 1.98557 16.1009C2.01796 16.1819 2.00178 16.279 2.00178 16.3599C1.96939 16.5703 1.90465 16.7645 1.80747 16.9425C1.72649 17.1043 1.62927 17.2338 1.59688 17.3956C1.54829 17.6383 1.66165 17.8973 1.82361 18.0915C1.90459 18.1724 1.9856 18.2533 2.09897 18.2857C2.35811 18.3828 2.64963 18.2209 2.82779 18.0106C3.00594 17.784 3.1193 17.5251 3.29746 17.3147C3.65377 16.9101 4.18827 16.7644 4.70654 16.7321C4.90089 16.7159 5.0952 16.7159 5.22476 16.5702C5.33814 16.4731 5.35436 16.2789 5.25719 16.1495C5.37056 15.8096 5.11139 15.5022 4.81986 15.3565C4.56073 15.2432 4.26926 15.1947 3.99393 15.13C3.7348 15.0544 3.48644 14.9519 3.2489 14.8225C3.13553 14.7577 3.02214 14.6768 2.98975 14.5635C2.95736 14.4503 2.98972 14.3208 3.03831 14.2237C3.08689 14.0942 3.13553 13.9809 3.2489 13.9C3.41086 13.7706 3.63762 13.7867 3.83197 13.8029C3.94534 13.8191 4.05865 13.8353 4.17202 13.8677C4.23681 13.9 4.31785 13.9486 4.39883 13.9809C4.49601 14.0133 4.59315 14.0133 4.69033 14.0133C4.94946 14.0349 5.20857 14.0511 5.4677 14.0618C5.79162 14.078 6.148 14.0942 6.42333 13.9C6.52051 13.8353 6.60144 13.7382 6.69862 13.6411C6.94156 13.4145 7.2817 13.2689 7.62182 13.2365C7.76758 13.2365 7.89714 13.2527 8.01051 13.3012C8.10768 13.3498 8.18868 13.4307 8.26966 13.5116C8.37763 13.6195 8.47478 13.7382 8.56116 13.8677C8.56116 13.8677 8.57738 13.8838 8.59358 13.9C8.9013 14.2884 9.33858 14.5797 9.79207 14.7739C9.95403 14.8548 10.1322 14.9034 10.3104 14.9681C10.4885 15.0329 10.6829 15.0976 10.8772 15.13C10.9744 15.1461 11.0878 15.1623 11.1849 15.1785C11.4765 15.2594 11.7032 15.4536 11.93 15.6478C12.1405 15.842 12.3672 16.0524 12.6264 16.1657C12.9017 16.2789 13.258 16.2789 13.4686 16.0686C13.6467 15.8906 13.6791 15.6155 13.7115 15.3727C13.7601 14.9196 13.8249 14.4664 13.9868 14.0457C14.1488 13.6411 14.3918 13.2365 14.7643 12.9938C14.7967 12.7672 14.9424 12.573 15.1367 12.4597C15.2123 12.4058 15.2987 12.3572 15.3959 12.3141C15.6388 12.2332 15.9141 12.217 16.1733 12.2008C16.7563 12.1576 17.3394 12.1145 17.9225 12.0713C18.3274 12.0551 18.7646 12.0066 19.1048 11.78C19.4125 11.5858 19.6069 11.246 19.947 11.1003C20.1737 11.0032 20.4491 10.9871 20.5948 10.7767C20.773 10.5501 20.6434 10.2102 20.5138 9.93513C20.3195 9.56832 20.1305 9.19612 19.947 8.81851C19.8498 8.6405 19.7526 8.4463 19.7364 8.2521C19.704 8.00935 19.785 7.7666 19.866 7.54003C19.9308 7.32965 20.0117 7.13545 20.1575 6.9898C20.2385 6.92507 20.3357 6.87653 20.4167 6.79561C20.611 6.64996 20.7082 6.39103 20.6758 6.14828Z" fill="#F1F1F1" stroke="#BABABA" stroke-width="1.18548" stroke-linecap="round" stroke-linejoin="round"/>
</svg>
