<svg width="28" height="21" viewBox="0 0 28 21" fill="none" xmlns="http://www.w3.org/2000/svg">
<path d="M27.3994 0.864457C27.2536 1.33377 27.0269 1.77073 26.6705 2.0944C26.0389 2.62844 25.1481 2.72552 24.4192 3.1301C23.1883 3.8098 22.6215 5.46051 23.1722 6.75516C23.3503 7.17593 23.6256 7.56431 23.6256 8.00126C23.6256 8.42202 23.3989 8.77805 23.2532 9.16644C22.9616 9.92705 23.0102 10.801 22.6215 11.5292C22.0871 12.5487 20.8562 12.9695 19.771 13.4064C17.5522 14.2965 15.5114 15.5912 13.4869 16.8697C12.8067 17.2904 12.1265 17.7274 11.4949 18.2452C11.1062 18.5851 10.7498 18.9411 10.3449 19.2486C9.63231 19.7826 8.7901 20.1387 7.89932 20.3005C7.46203 20.3652 7.00857 20.3976 6.55509 20.3652C6.29595 20.349 6.0368 20.3005 5.81006 20.1872C5.53472 20.0416 5.32422 19.7988 5.12987 19.556C4.6224 18.9519 4.11486 18.3531 3.60738 17.7597C3.46162 17.5817 3.31592 17.4037 3.10537 17.3228C2.92722 17.2419 2.71665 17.2419 2.5223 17.2419H1.01603C1.03762 17.1232 1.05386 16.9991 1.06466 16.8697C1.09705 16.5945 1.09701 16.2871 1.01603 16.0119C0.935045 15.753 0.773149 15.5264 0.675973 15.2675C0.578797 15.0248 0.546342 14.7173 0.692106 14.4907C0.789282 14.3613 0.918881 14.2803 1.04845 14.2156C1.32378 14.0861 1.61529 13.9729 1.92302 13.9243C2.13356 13.8758 2.37654 13.8596 2.5223 13.6977C2.66806 13.5683 2.70042 13.3579 2.8138 13.1961C2.95956 13.0019 3.21871 12.9048 3.39687 12.7267C3.57502 12.5649 3.65599 12.306 3.6236 12.0633C4.04469 11.5292 4.15806 10.8171 4.10948 10.1536C4.06089 9.50631 3.89894 8.87514 3.80177 8.22781C3.70459 7.59666 3.70456 6.94937 3.76934 6.31822C4.49816 6.17258 5.19459 5.86508 5.79384 5.41195C6.15016 5.15302 6.49029 4.81319 6.61985 4.37624C6.8466 3.69655 6.52268 2.82265 7.02476 2.30478C7.80216 1.94875 8.5148 3.06539 9.38939 3.11394C9.81048 3.13013 10.1992 2.87118 10.6041 2.69317C11.1709 2.40187 11.8026 2.25623 12.4342 2.25623C12.8067 2.24004 13.1955 2.28861 13.5356 2.43426C13.7785 2.54754 14.0052 2.69318 14.2482 2.79028C14.5397 2.90356 14.8475 2.93593 15.1552 2.95211C16.6452 3.03303 18.1676 2.70935 19.5119 2.04584C20.3055 1.64126 21.0829 1.09105 21.9737 1.09105C22.4272 1.09105 22.8645 1.2367 23.3342 1.30143C24.0792 1.39853 24.8727 1.25289 25.553 0.896855C25.8283 0.735023 26.1199 0.540817 26.4276 0.60555C26.5896 0.637916 26.7353 0.751206 26.9135 0.815939C27.0754 0.880672 27.2374 0.88064 27.3994 0.864457Z" fill="#F1F1F1" stroke="#BABABA" stroke-width="1.18548" stroke-linecap="round" stroke-linejoin="round"/>
</svg>
