<svg width="29" height="26" viewBox="0 0 29 26" fill="none" xmlns="http://www.w3.org/2000/svg">
<path d="M27.2352 15.1576C27.3 15.7079 27.6725 16.2258 27.5429 16.7598C27.3647 17.4233 26.5388 17.6661 26.1177 18.2001C25.8099 18.6047 25.7451 19.1225 25.6804 19.6242C25.6156 20.1852 25.5508 20.7517 25.486 21.3235C25.4537 21.5015 25.4374 21.6957 25.3564 21.8575C25.2593 22.0841 25.0649 22.2459 24.8706 22.4077C23.8502 23.2816 22.6679 24.1232 22.1172 25.3045C21.0807 25.1913 20.028 24.7867 19.04 25.078C18.7647 25.1589 18.5055 25.2722 18.214 25.256C17.7929 25.2398 17.469 24.8999 17.0965 24.7219C16.481 24.4468 15.7522 24.6086 15.0882 24.463C14.7157 24.3821 14.3755 24.2202 14.084 23.9775C13.9328 23.848 13.7979 23.7078 13.6791 23.5567C13.4038 23.2007 13.1608 22.9418 12.7073 22.7961C12.3186 22.6829 11.8976 22.6505 11.5089 22.5696C10.5533 22.3754 9.67873 21.8899 9.01469 21.194C8.88512 21.0645 8.75559 20.9027 8.72319 20.7247C8.6908 20.5629 8.73936 20.4172 8.77175 20.2554C8.88512 19.8993 9.03092 19.5595 9.04711 19.1873C9.04711 18.8151 8.8527 18.4105 8.49639 18.3134C8.36682 18.281 8.22105 18.2972 8.09149 18.2487C7.84855 18.1516 7.73517 17.8926 7.68659 17.6499C7.638 17.391 7.63806 17.132 7.50849 16.9054C7.39512 16.7112 7.20075 16.5656 7.0064 16.4199C6.68248 16.1934 6.34237 15.9506 5.95366 15.8859C5.72692 15.8535 5.51637 15.8859 5.30582 15.8374C4.70657 15.7565 4.26923 15.2548 3.88053 14.7855C3.41084 14.2191 2.92501 13.6041 2.87642 12.8758C2.82784 12.4713 2.94121 12.0181 2.71446 11.6621C2.61729 11.4841 2.43912 11.3546 2.29335 11.2252C1.66171 10.6749 1.27302 9.91432 0.932905 9.15371C0.814134 8.8732 0.700747 8.58729 0.592773 8.29599C1.88845 8.68439 3.45948 8.40926 4.577 9.21842C4.73896 9.33171 4.88474 9.47737 5.0791 9.55829C5.51639 9.75249 6.06702 9.55829 6.42333 9.23462C6.77964 8.89478 7.0064 8.45783 7.24934 8.02088C7.80001 7.09844 8.48021 6.2569 9.16044 5.41537C9.38718 5.14026 9.61396 4.86515 9.92168 4.73569C10.4076 4.54149 10.9582 4.70333 11.4765 4.62241C12.4159 4.47676 12.9989 3.52196 13.2094 2.59951C13.2742 2.34058 13.3067 2.06546 13.42 1.82271C13.6468 1.32103 14.1488 0.964995 14.6833 0.803163C15.2178 0.641331 15.7846 0.625156 16.3353 0.608972C16.9184 0.608972 17.5014 0.603562 18.0844 0.592773C18.1276 0.765394 18.1925 0.932636 18.2788 1.09447C18.5704 1.67706 19.121 2.16257 19.7688 2.24349C20.4814 2.32441 21.2588 1.96838 21.8581 2.32441C22.1334 2.48624 22.3116 2.77751 22.5546 2.98789C23.008 3.40866 23.672 3.55431 24.2875 3.63522C24.9191 3.69995 25.567 3.73231 26.1339 3.99124C26.5874 4.18544 26.8951 4.55766 27.057 5.01079C27.2838 5.60957 27.4134 6.28927 27.4943 6.92042C27.5051 7.03909 27.5159 7.15776 27.5267 7.27644C27.6023 7.96692 27.6562 8.65741 27.6886 9.3479C27.721 10.0761 27.7211 10.8529 27.3971 11.5003C27.1704 11.9049 26.8303 12.2609 26.7817 12.7302C26.7331 13.2642 27.1218 13.7336 27.2028 14.2514C27.2513 14.5589 27.1866 14.8502 27.2352 15.1576Z" fill="#F1F1F1" stroke="#BABABA" stroke-width="1.18548" stroke-linecap="round" stroke-linejoin="round"/>
</svg>
