<svg width="13" height="24" viewBox="0 0 13 24" fill="none" xmlns="http://www.w3.org/2000/svg">
<path d="M11.9816 4.10523C11.9006 4.44508 11.5605 4.65547 11.2366 4.78494C10.9126 4.89822 10.5563 4.97914 10.281 5.18952C9.69792 5.64265 9.73031 6.53271 9.7465 7.27713C9.7789 8.28049 9.66553 9.30002 9.42259 10.3034C9.374 10.5138 9.30922 10.7565 9.14726 10.9184C8.82334 11.3067 8.17549 11.3067 7.88397 11.7275C7.56005 12.2292 7.98115 12.8927 8.41844 13.3135C8.83954 13.7504 9.32543 14.333 9.08249 14.8832C8.96912 15.1098 8.75857 15.2716 8.59661 15.4496C8.20791 15.9351 8.12694 16.631 8.40227 17.1812C8.59662 17.5373 8.92054 17.8933 8.80717 18.2655C8.70999 18.6216 8.30506 18.7672 8.04593 19.0261C7.64103 19.4631 7.70583 20.159 7.8192 20.7577C7.90558 21.1569 7.99735 21.5561 8.09452 21.9553C7.49527 22.2628 6.99321 22.813 6.32917 22.8778C5.89188 22.9263 5.47079 22.7483 5.03349 22.6997C4.66099 22.6674 4.28848 22.7321 3.89977 22.6997C3.52727 22.6674 3.13854 22.5217 2.94419 22.1819C2.74983 21.8097 2.89563 21.3565 2.97661 20.9358C3.18716 19.8839 2.9928 18.751 2.44213 17.8448C2.36115 17.7315 2.28017 17.602 2.1506 17.5373C1.7295 17.3269 1.16264 17.8448 0.806323 17.5373C0.482403 16.8576 1.40557 16.0808 1.16263 15.3687C1.03306 15.0127 0.644355 14.7861 0.595767 14.4139C0.579571 14.2521 0.628159 14.0902 0.676747 13.9446C0.919687 13.2811 1.32462 12.6823 1.84289 12.213C2.6203 11.1935 2.44212 9.7208 2.99278 8.53943C3.12235 8.24813 3.31672 7.97303 3.41389 7.66555C3.49487 7.39044 3.52727 7.11529 3.54347 6.824C3.59206 6.17667 3.64061 5.51318 3.51105 4.88203C3.26811 3.74921 2.44213 2.64874 2.76605 1.5321C2.84703 1.25699 2.99279 0.98188 3.04138 0.690582C3.04138 0.679793 3.04138 0.669012 3.04138 0.658224C3.3653 0.642041 3.67303 0.593487 3.98075 0.593487C4.56381 0.577304 5.22784 0.836239 5.3898 1.38647C5.45458 1.6454 5.42218 1.93669 5.58414 2.14707C5.69751 2.29272 5.90805 2.35745 6.10241 2.406C7.46287 2.71348 8.90433 2.64875 10.2486 2.21181C10.6859 2.08234 11.2851 1.95288 11.4957 2.35746C11.5605 2.48692 11.5605 2.64875 11.5929 2.7944C11.69 3.24753 12.0787 3.6521 11.9816 4.10523Z" fill="#77B341" stroke="#BABABA" stroke-width="1.18548" stroke-linecap="round" stroke-linejoin="round"/>
</svg>
