<svg width="28" height="30" viewBox="0 0 28 30" fill="none" xmlns="http://www.w3.org/2000/svg">
<path d="M26.897 6.5886C26.5893 6.86371 26.0872 6.92847 25.909 7.30068C25.5851 7.96419 26.6217 8.87046 26.0872 9.37214C25.8766 9.58252 25.5203 9.55014 25.2612 9.4045C25.002 9.27503 24.7915 9.06465 24.5324 8.919C24.0303 8.64389 23.3987 8.67625 22.9452 8.99992C22.3621 9.38831 22.1192 10.1166 21.6171 10.5859C21.1474 11.0066 20.5157 11.1685 19.9813 11.476C19.4306 11.7834 18.9286 12.3498 19.0744 12.9486C19.1715 13.4179 19.6412 13.8225 19.5278 14.2918C19.463 14.5831 19.1877 14.7773 18.9447 14.9715C18.0702 15.7321 17.6491 16.962 17.8597 18.0949C17.8921 18.2891 17.9406 18.4994 17.8435 18.6613C17.7463 18.8393 17.5357 18.904 17.3414 18.9849C16.564 19.3733 16.3534 20.3767 16.2724 21.2506C16.24 21.5257 16.1914 21.8494 15.9485 21.9788C15.6894 22.1083 15.3655 21.9303 15.1711 21.7199C14.9606 21.4933 14.8148 21.2344 14.5395 21.1049C14.1832 20.9269 13.7297 21.0887 13.4705 21.3962C13.2114 21.7037 13.1142 22.1245 13.0818 22.5129C13.0656 22.8204 13.0818 23.1278 13.1466 23.4353C13.1952 23.6942 13.3086 23.9532 13.2924 24.2283C13.26 25.1507 11.9643 25.8304 12.2558 26.7205C12.4178 27.2222 13.098 27.6753 12.7903 28.1284C12.7255 28.2417 12.5959 28.3064 12.4826 28.355C11.9643 28.5977 11.3812 28.6301 10.8305 28.5007C10.8629 27.6591 10.6524 26.8176 10.2313 26.0893C10.1018 25.8466 9.92361 25.6039 9.82644 25.3449C9.63208 24.8271 9.68062 24.2445 9.53486 23.7104C9.3891 23.1764 8.91946 22.6423 8.3688 22.7718C7.83433 22.9013 7.67237 23.5648 7.559 24.115C7.46182 24.6652 7.18646 25.3126 6.63579 25.3287C6.11752 25.3449 5.79363 24.73 5.77744 24.2121C5.71265 22.8527 6.68441 21.6875 7.72096 20.8136C8.53076 20.134 9.48629 19.4219 9.63205 18.37C9.68064 18.111 9.64826 17.8036 9.4863 17.6094C9.25956 17.3343 8.85464 17.2857 8.49833 17.2695C6.598 17.1724 4.69231 17.0699 2.78118 16.962C2.19812 16.9297 1.51789 16.8649 1.16158 16.3956C1.01582 16.2014 0.934788 15.9587 0.870004 15.7159C0.659456 14.9068 0.578523 14.0814 0.594719 13.2399C0.934835 13.0457 1.19392 12.7706 1.19392 12.4145C1.21012 12.1394 1.08057 11.8967 0.886216 11.7025C1.01578 11.5083 1.14 11.3195 1.25877 11.1361C1.32355 11.039 1.38831 10.9419 1.46929 10.861C1.58266 10.7801 1.72842 10.7315 1.87419 10.683C2.13332 10.602 2.40864 10.5373 2.66777 10.5859C2.92691 10.6182 3.16988 10.7477 3.42902 10.8124C3.65576 10.8772 3.89867 10.8771 4.12541 10.8771C5.71262 10.8664 7.29981 10.8556 8.88702 10.8448C8.9518 10.8448 9.01659 10.8448 9.04898 10.7962C9.08137 10.7639 9.0814 10.7153 9.0814 10.683C9.04901 9.87379 8.51451 9.17792 7.91526 8.62769C7.7533 8.46586 7.5914 8.3202 7.49423 8.126C7.36466 7.88325 7.36463 7.59195 7.38082 7.31684C7.39162 7.20895 7.40245 7.10106 7.41325 6.99318C7.42405 6.99318 7.4348 6.99859 7.44559 7.00938C7.65614 7.20357 7.96386 7.23593 8.25539 7.28448C9.24335 7.39776 10.5552 7.33306 10.8305 6.37825C10.8953 6.16787 10.8954 5.95748 10.9764 5.76328C11.2517 5.13213 12.2234 5.14831 12.6283 4.5819C12.8227 4.30678 12.8713 3.90219 13.1628 3.72418C13.3572 3.6109 13.6001 3.62709 13.8268 3.6109C14.6528 3.51381 15.2521 2.83413 15.819 2.25153C16.402 1.65275 17.1794 1.08632 17.973 1.2967C18.8314 1.53945 19.5602 2.65611 20.3538 2.25153C20.8721 1.9926 20.9368 1.26436 21.3579 0.875961C21.7142 0.536114 22.2973 0.519907 22.7346 0.730289C23.1881 0.956854 23.4958 1.36143 23.7064 1.81455C23.9655 2.3486 24.0789 2.94741 24.0627 3.54619C24.0627 4.0155 24.3543 4.45245 24.8239 4.5981C25.1155 4.69519 25.407 4.84081 25.6985 4.97028C26.152 5.19684 26.7836 5.31012 27.1885 5.05119C27.1885 5.06198 27.1885 5.0728 27.1885 5.08359C27.3019 5.60145 27.3019 6.23257 26.897 6.5886Z" fill="#F1F1F1" stroke="#BABABA" stroke-width="1.18548" stroke-linecap="round" stroke-linejoin="round"/>
</svg>
