<svg width="22" height="15" viewBox="0 0 22 15" fill="none" xmlns="http://www.w3.org/2000/svg">
<path d="M20.3357 7.42855C20.0928 7.5742 19.7689 7.71984 19.4774 7.76839C18.5542 7.88167 17.9874 8.10823 17.4853 9.01449C17.048 9.80747 17.0803 10.7461 17.0965 11.6362C17.0965 11.8627 17.0804 12.1217 16.9184 12.2835C16.5783 12.6072 16.0438 12.2349 15.5741 12.1702C15.1206 12.0893 14.6672 12.3644 14.3109 12.6719C13.9708 12.9794 13.6468 13.3354 13.2257 13.5458C12.4321 13.9504 11.4766 13.6753 10.6668 13.3516C10.4508 13.2653 10.2403 13.179 10.0351 13.0927C10.0567 12.9632 10.0567 12.8283 10.0351 12.6881C9.95417 12.2026 9.58164 11.7818 9.12815 11.5391C8.69086 11.3125 8.17261 11.2154 7.68673 11.1183C7.41679 11.0644 7.14686 11.0158 6.87693 10.9727C6.93091 10.7353 6.96866 10.4926 6.99025 10.2444C7.05504 9.61328 7.00649 8.96595 6.71497 8.39954C6.5692 8.09206 6.32622 7.81694 6.01849 7.70365C5.66218 7.55801 5.27349 7.63893 4.90098 7.6713C4.52848 7.68748 4.09115 7.60656 3.8968 7.2829C3.86441 7.21816 3.83205 7.13724 3.76726 7.07251C3.73487 7.04014 3.6701 7.00777 3.62152 6.99159C3.2976 6.84594 2.92509 6.76504 2.56878 6.76504C2.37443 6.76504 2.16385 6.79741 1.96949 6.76504C1.58079 6.70031 1.2569 6.42518 0.949178 6.18243C0.835806 6.10151 0.722402 6.0206 0.592834 5.93968C0.614429 5.88574 0.641422 5.8264 0.673814 5.76167C0.819578 5.50274 1.03014 5.29236 1.17591 5.04961C1.43504 4.66121 1.53219 4.15955 1.4674 3.69023C1.45121 3.5284 1.40262 3.36657 1.30544 3.22092C1.22446 3.10764 1.12733 3.01053 1.03016 2.91343C1.33788 2.44412 1.69418 2.03955 2.22865 1.92626C2.39061 1.8939 2.58499 1.8939 2.74695 1.82917C2.97369 1.76443 3.15182 1.58641 3.36237 1.45695C3.75107 1.2142 4.22077 1.10091 4.67426 0.98763C5.18173 0.868953 5.68377 0.744894 6.18045 0.615428C6.27763 0.599245 6.35864 0.583046 6.45582 0.599229C6.5368 0.631596 6.60153 0.696332 6.65012 0.744882C7.03882 1.13328 7.42756 1.51628 7.81626 1.89388C8.64226 2.71923 9.64641 3.60931 10.8125 3.49602C11.0393 3.46366 11.2498 3.39893 11.4118 3.25328C11.5414 3.13999 11.6223 2.99435 11.7195 2.8487C12.4159 1.73206 13.8897 1.18182 15.153 1.57022C15.7847 1.76442 16.3516 2.169 16.9832 2.37938C17.3233 2.47648 17.6958 2.52504 17.9873 2.7516C18.1817 2.89725 18.3113 3.09144 18.4571 3.26946C19.0401 4.06243 19.7527 4.72595 20.5787 5.26C20.4005 5.48656 20.3034 5.76167 20.4329 6.00442C20.4977 6.10152 20.5949 6.16625 20.6759 6.26335C21.016 6.66793 20.7406 7.20198 20.3357 7.42855Z" fill="#F1F1F1" stroke="#BABABA" stroke-width="1.18548" stroke-linecap="round" stroke-linejoin="round"/>
</svg>
