<svg width="47" height="41" viewBox="0 0 47 41" fill="none" xmlns="http://www.w3.org/2000/svg">
<path d="M45.6623 12.3916C44.5124 13.7348 43.9293 15.5473 44.0427 17.3113C43.4435 17.4893 42.8928 17.7806 42.4231 18.2014C42.2288 18.3632 42.0668 18.5412 41.8887 18.7192C41.338 19.3018 40.8197 19.9006 40.3014 20.5155C39.5888 21.3571 38.6171 22.0368 38.2284 23.121C38.196 23.2181 38.1636 23.3152 38.1959 23.4123C38.2445 23.558 38.4227 23.6227 38.5685 23.6065C38.7143 23.5742 38.8438 23.4932 38.9572 23.4123C39.605 22.9592 40.3177 22.4899 41.0951 22.5546C41.2085 22.5708 41.338 22.6032 41.419 22.6841C41.6134 22.9107 41.3704 23.3152 41.5648 23.558C41.6133 23.6227 41.6943 23.6713 41.7753 23.7198C42.0182 23.8978 42.1154 24.2539 42.0344 24.5452C42.0236 24.5667 42.0128 24.5883 42.002 24.6099C41.921 24.8365 41.7105 25.0307 41.7267 25.2572C41.7591 25.5809 42.1316 25.6942 42.3746 25.9045C42.7309 26.1958 42.7956 26.7784 42.5203 27.1345C42.326 27.3934 42.0182 27.5229 41.7591 27.7009C41.4999 27.8627 41.257 28.1378 41.2732 28.4453C41.3218 28.8337 41.7429 29.0603 41.9372 29.4001C42.1316 29.7561 42.0506 30.1931 42.002 30.6139C41.9372 31.0184 41.9372 31.4877 42.2449 31.779C42.5041 32.0056 42.8766 32.0218 43.2167 32.0703C43.5568 32.1189 43.9455 32.2807 44.0265 32.6206C44.0589 32.7339 44.0427 32.8471 44.0265 32.9766C43.9833 33.2787 43.9402 33.5808 43.897 33.8829C43.7026 33.899 43.4921 33.9314 43.3139 34.0447C43.1357 34.158 43.0062 34.336 42.8767 34.514C42.7471 34.7244 42.6013 34.9186 42.4718 35.1451C42.4232 35.2584 42.3745 35.3717 42.2774 35.4526C42.1802 35.5497 42.0344 35.5983 41.9372 35.6954C41.8725 35.7601 41.8401 35.8572 41.7753 35.9381C41.6133 36.1485 41.3218 36.2132 41.0789 36.2942C40.7874 36.4074 40.5282 36.5531 40.3014 36.7635C40.269 36.7797 40.2204 36.812 40.2204 36.812C39.4916 37.3461 38.3903 37.2813 37.7263 36.6664C37.6615 36.6016 37.5967 36.5369 37.4995 36.5369C37.4672 36.5369 37.4186 36.5693 37.37 36.5855C37.1109 36.6987 36.8031 36.634 36.5278 36.5693C36.4468 36.5531 36.3658 36.5207 36.3011 36.4884C36.2201 36.4236 36.1553 36.3427 36.0905 36.2618C35.9933 36.1647 35.8799 36.0838 35.7665 36.0029C35.3455 35.7277 34.892 35.4364 34.3899 35.485C34.1955 35.5174 34.0174 35.5821 33.8392 35.6145C33.6449 35.6468 33.4344 35.6145 33.3048 35.4688C33.1105 35.2584 33.2238 34.8862 33.0942 34.6273C33.0294 34.5302 32.9323 34.4493 32.8351 34.3683C32.7218 34.2551 32.576 34.158 32.414 34.1418C32.1063 34.1418 31.9281 34.4655 31.8147 34.7406C31.75 34.8862 31.7014 35.048 31.5718 35.1451C31.507 35.2099 31.4099 35.2422 31.3451 35.3232C31.2965 35.4041 31.2965 35.485 31.2641 35.5821C31.1669 35.7763 30.9563 35.8734 30.7458 35.9543C30.5676 36.019 30.3571 36.0676 30.1628 36.1161C29.9522 36.1809 29.7093 36.197 29.515 36.3103C29.0453 36.5369 28.7699 37.0709 28.7537 37.605C28.7537 38.1228 28.948 38.6245 29.2234 39.0777C29.245 39.1208 29.2666 39.164 29.2882 39.2071C28.7915 39.4121 28.2948 39.6225 27.7982 39.8383C27.5552 39.9354 27.3123 40.0325 27.0531 40.0325C26.7616 40.0163 26.4863 39.8545 26.2271 39.725C25.7089 39.4984 25.1258 39.369 24.559 39.369C24.0569 39.3851 23.49 39.4661 23.0689 39.1748C22.8584 39.0129 22.7126 38.7702 22.5345 38.576C22.1296 38.1228 21.4817 37.9125 20.8824 38.0419C20.5585 38.1067 20.2508 38.2685 19.9269 38.3332C19.5544 38.4303 19.1495 38.4142 18.7608 38.3818C17.4813 38.3009 16.1856 38.22 15.0033 37.7345C13.6591 37.168 12.5739 36.1485 11.5212 35.129C11.4996 35.1074 11.478 35.0858 11.4564 35.0642C11.6507 34.9186 11.8127 34.7244 11.9099 34.514C12.0232 34.3198 12.1528 34.0447 12.3472 34.0123C12.8978 33.4297 12.6549 32.5558 12.7521 31.779C12.8006 31.4392 12.9302 31.0993 13.0112 30.7757C13.1084 30.3873 13.157 29.9989 13.1893 29.6105C13.2541 28.6719 13.2379 27.6847 13.6428 26.8432C13.7238 26.649 13.8372 26.4548 13.8372 26.2444C13.821 25.7751 13.2542 25.4676 13.2218 24.9983C13.1894 24.529 13.7076 24.1406 13.6428 23.6713C13.5943 23.38 13.3351 23.1858 13.0922 23.0239C12.5847 22.6787 12.0826 22.3389 11.586 22.0044C11.2944 21.8102 11.0191 21.616 10.8248 21.3409C10.5494 20.9363 10.5008 20.4184 10.5332 19.9491C10.5494 19.7711 10.5656 19.5931 10.5008 19.4313C10.4522 19.3018 10.3713 19.2209 10.2903 19.1238C10.0419 18.8325 9.78821 18.5466 9.52907 18.2661C9.22135 17.7644 8.62208 17.554 8.05522 17.4731C7.52075 17.4084 6.97011 17.4407 6.45183 17.3113C6.32227 17.2789 6.17651 17.2303 6.09553 17.1332C5.93357 16.9714 5.96593 16.7125 5.90115 16.5021C5.77158 16.0328 5.25331 15.7739 4.76743 15.7253C4.28155 15.693 3.79567 15.8224 3.30979 15.8386C2.82391 15.8548 2.27324 15.7253 2.01411 15.3207C1.80356 15.0294 1.78738 14.6572 1.62542 14.3497C1.44726 13.9937 1.10714 13.7833 0.848003 13.4758C0.605063 13.1684 0.475503 12.6991 0.734639 12.4239C0.815619 12.343 0.912803 12.2783 1.02618 12.2459C1.83597 11.8575 2.71056 11.6471 3.61753 11.631C4.1682 11.6148 4.84842 11.5986 5.10756 11.1131C5.15615 11.016 5.18852 10.9027 5.25331 10.8056C5.35048 10.6762 5.51247 10.5952 5.69063 10.5629C6.06314 10.4981 6.45182 10.66 6.75954 10.8865C7.06727 11.1131 7.31021 11.4206 7.56934 11.6957C7.71511 11.8413 7.90947 11.987 8.10382 11.9546C8.26578 11.9223 8.37915 11.809 8.50872 11.7119C8.9622 11.4368 9.54527 11.6633 10.015 11.9223C10.4684 12.1974 10.9705 12.5049 11.4888 12.3916C12.0394 12.2621 12.3796 11.6795 12.4444 11.1131C12.5415 10.3039 12.2176 9.44625 11.6022 8.89602C11.3268 8.65327 10.9705 8.44288 10.9543 8.0383C10.9381 7.69845 11.1649 7.40716 11.4726 7.2777C11.9585 7.0835 12.4767 7.2615 12.914 7.50425C13.1732 7.6499 13.4161 7.79556 13.6105 8.02212C13.7562 8.20014 13.8858 8.4267 14.064 8.57235C14.4365 8.86365 14.9385 8.84747 15.4082 8.8151C15.8833 8.77195 16.353 8.73417 16.8173 8.70181C17.0116 8.68562 17.2221 8.66945 17.4003 8.57235C17.627 8.4267 17.7566 8.18394 17.9186 7.97356C18.1454 7.6499 18.4368 7.39098 18.777 7.21296C19.7001 6.598 20.6557 5.86974 21.8219 5.80501C21.9676 5.80501 22.1296 5.78884 22.2753 5.75647C23.3281 5.43281 23.069 4.65601 23.0366 3.9925C22.988 2.97296 23.5386 2.00197 24.2188 1.22518C24.478 0.917699 24.8019 0.610214 25.1906 0.594031C25.4983 0.577848 25.7737 0.723489 26.0814 0.707306C26.2109 0.691122 26.3567 0.642581 26.4863 0.594031C26.632 1.25754 27.0693 1.90487 27.5228 2.43892C27.6038 2.53602 27.6686 2.61693 27.782 2.68167C28.1383 2.89205 28.608 2.66548 28.9967 2.77876C29.6931 2.97296 29.7903 4.05724 30.4705 4.29999C30.6649 4.36472 30.9078 4.36471 31.0536 4.51036C31.1346 4.60745 31.1669 4.72074 31.2155 4.83402C31.3775 5.28715 31.6528 5.7241 32.0577 6.0154C32.4464 6.3067 32.9809 6.43617 33.4506 6.30671C33.8555 6.20961 34.228 5.93448 34.6167 6.04776C35.1026 6.19341 35.2159 6.80838 35.5398 7.19678C35.6694 7.34243 35.8152 7.47188 35.9771 7.58516C36.4954 7.97356 37.0461 8.37815 37.6939 8.49144C38.034 8.55617 38.3904 8.53998 38.7467 8.5238C39.4593 8.49143 40.1665 8.45368 40.8683 8.41052C41.1436 9.02548 41.419 9.64044 41.9372 10.045C42.9576 10.838 44.4962 10.4496 45.6785 10.9836C45.8081 11.0484 45.9539 11.1293 46.0349 11.2588C46.2616 11.6148 45.9376 12.0679 45.6623 12.3916Z" fill="#77B341" stroke="#BABABA" stroke-width="1.18548" stroke-linecap="round" stroke-linejoin="round"/>
</svg>
