<svg width="19" height="13" viewBox="0 0 19 13" fill="none" xmlns="http://www.w3.org/2000/svg">
<path d="M17.5432 2.82606C17.608 3.16591 17.3489 3.48957 17.0735 3.73232C16.7604 4.01283 16.4149 4.26096 16.037 4.47674C15.8265 4.59002 15.5997 4.70331 15.4054 4.86514C15.0005 5.20499 14.8061 5.73903 14.6441 6.24071C14.4984 6.67766 14.3689 7.14696 14.5308 7.56773C14.6442 7.87521 14.9033 8.10177 15.1462 8.31215C15.5026 8.63581 15.8589 8.95949 16.0532 9.38026C16.2638 9.80102 16.2476 10.3674 15.9075 10.6911C15.6807 10.9177 15.3568 10.9824 15.0815 11.1442C14.9195 11.2413 14.7899 11.3708 14.6441 11.4679C14.6118 11.5002 14.5793 11.5272 14.547 11.5488C14.0611 11.8725 13.4619 11.921 12.8788 11.9696C12.1986 12.0181 11.4697 12.0505 10.9191 11.6621C10.6599 11.4841 10.4656 11.2251 10.1903 11.0795C10.0283 10.9986 9.86633 10.95 9.70437 10.8691C9.38045 10.7073 9.13754 10.4322 8.84601 10.2056C8.32774 9.75247 7.64748 9.50971 6.95105 9.49353C5.9307 9.47735 4.99135 9.96284 4.05199 10.416C3.93861 9.94665 4.10057 9.44499 4.45688 9.13751C4.65124 8.99186 4.89418 8.86238 4.94276 8.63581C5.00755 8.32833 4.68363 8.08559 4.3759 8.03704C4.08438 7.97231 3.76044 8.03704 3.46891 7.97231C2.96684 7.82666 2.64297 7.34117 2.38383 6.88804C2.13549 6.46728 1.88714 6.04112 1.6388 5.60956C1.57401 5.51246 1.50925 5.39919 1.41207 5.33446C1.2825 5.25354 1.12053 5.25354 0.990958 5.1888C0.602254 5.01079 0.569878 4.47674 0.60227 4.05598C0.60227 3.92652 0.618466 3.79704 0.68325 3.68376C0.893798 3.32773 1.493 3.52193 1.84931 3.27918C1.9141 3.23063 1.97891 3.1659 2.0437 3.10117C2.35142 2.89079 2.85347 2.95552 3.06401 2.63185C3.1126 2.55094 3.14504 2.45384 3.19363 2.35675C3.2908 2.16255 3.48514 2.04926 3.6633 1.95217C4.23016 1.66087 4.81318 1.40193 5.41243 1.19154C5.57439 1.04589 5.84972 1.06209 6.06027 1.14301C6.30321 1.24011 6.51381 1.41811 6.75675 1.49903C7.25882 1.67704 7.80944 1.46666 8.32771 1.35338C10.7247 0.81933 13.2027 2.4053 15.6321 2.0169C16.118 1.95217 16.6039 1.77414 16.9278 1.41811C17.1545 1.17536 17.3003 0.835525 17.5919 0.65751C17.635 0.635933 17.6782 0.614351 17.7214 0.592773C17.635 0.830127 17.5486 1.07287 17.4622 1.32102C17.3489 1.66086 17.2518 2.03308 17.3651 2.37292C17.4137 2.53476 17.5108 2.66423 17.5432 2.82606Z" fill="#F1F1F1" stroke="#BABABA" stroke-width="1.18548" stroke-linecap="round" stroke-linejoin="round"/>
</svg>
