<svg width="45" height="49" viewBox="0 0 45 49" fill="none" xmlns="http://www.w3.org/2000/svg">
<path d="M42.7126 41.601C42.9718 42.0541 42.9879 42.6367 42.6802 43.0412C42.5992 43.1545 42.4859 43.2516 42.4049 43.3649C42.162 43.6562 42.0486 44.0122 42.0162 44.3845C42.0054 44.5247 42 44.665 42 44.8052L29.2375 44.7081C28.7841 44.6758 28.282 44.6596 27.9095 44.9347C27.7799 45.048 27.6666 45.1775 27.5208 45.2584C27.375 45.3069 27.2293 45.3069 27.0673 45.3069C26.7272 45.3069 26.3709 45.3069 26.0308 45.226C25.5611 45.1127 25.14 44.8862 24.6703 44.8376C24.2006 44.7729 23.6338 44.9832 23.5204 45.4364C23.488 45.5335 23.488 45.6468 23.4394 45.7277C23.3422 45.8895 23.0993 45.9057 22.9373 45.8086C22.7754 45.7277 22.662 45.5659 22.5486 45.4202C22.2733 45.0804 21.9332 44.7567 21.5121 44.6272C21.091 44.4816 20.5889 44.5301 20.265 44.8376C19.9573 45.1127 19.8763 45.5497 19.8439 45.9704C19.8115 46.375 19.7953 46.8119 19.6171 47.1842C19.4066 47.6211 18.9693 47.8962 18.532 48.1228C18.4996 48.1444 18.4672 48.1606 18.4348 48.1714C18.4132 48.1498 18.397 48.1282 18.3862 48.1066C18.0947 47.6373 17.6898 47.2489 17.3011 46.8443C16.6209 46.1484 16.0216 45.3555 15.5195 44.5139C15.3252 44.2065 15.147 43.8828 14.9203 43.6077C14.4992 43.0736 13.9161 42.6691 13.2521 42.491C12.9768 42.4101 12.6691 42.3778 12.4261 42.2159C12.248 42.0865 12.1184 41.9246 11.9726 41.779C11.503 41.2449 10.8713 40.8727 10.1911 40.6947C8.16658 40.1768 6.04491 41.4715 3.95563 41.164C3.77747 41.1317 3.59931 41.0993 3.42115 41.1155C3.42115 40.7109 3.50212 40.3225 3.69648 39.9664C3.69648 39.9664 3.76127 39.837 3.82605 39.7075C4.60346 38.7042 4.86258 37.3771 5.02454 36.0987C5.05693 35.8236 5.08935 35.5646 5.08935 35.2895C5.10554 34.9173 5.07313 34.5451 4.99215 34.1729C4.97596 34.0434 4.94357 33.914 4.87879 33.8007C4.8302 33.6874 4.73302 33.5903 4.66823 33.477C4.45769 33.1533 4.3929 32.765 4.26333 32.3927C4.23094 32.2633 4.18235 32.1338 4.10137 32.0205C4.0042 31.8911 3.89084 31.8101 3.79367 31.6969C3.43736 31.3408 3.2106 30.7744 3.45354 30.3374C3.24299 29.771 3.68027 29.2694 4.05278 28.8324C4.39289 28.444 4.71685 27.91 4.4901 27.4569C4.27955 26.9876 3.64789 26.8904 3.29158 26.5344C3.09722 26.3564 2.98387 26.1298 2.82191 25.9356C2.65995 25.7576 2.41701 25.5958 2.17407 25.6605C1.76917 25.7576 1.63959 26.3564 1.23469 26.4373C0.95936 26.4859 0.700217 26.2431 0.619237 25.9842C0.554453 25.7091 0.61926 25.4178 0.684044 25.1588C0.835207 24.5978 1.00254 24.0422 1.1861 23.492H15.6005V19.3005C15.5897 19.2897 15.5735 19.2789 15.5519 19.2682C15.1308 19.0578 14.9203 18.5237 15.0661 18.0868C15.1632 17.8117 15.3738 17.5851 15.6005 17.3909C15.6221 17.3801 15.6437 17.3693 15.6653 17.3585C16.3942 16.7598 17.2525 16.3552 18.1109 15.9344C18.2081 15.8859 18.3215 15.8373 18.4024 15.7564C18.5482 15.6431 18.6454 15.4975 18.775 15.3842C18.9369 15.2709 19.1151 15.2224 19.3094 15.1738V5.7552H31.0191V0.592773L44.2836 9.70388L38.5665 9.91427L41.5789 40.6623C42.0324 40.8889 42.4535 41.1802 42.7126 41.601Z" fill="#F1F1F1" stroke="#BABABA" stroke-width="1.18548" stroke-linecap="round" stroke-linejoin="round"/>
</svg>
