<svg width="26" height="12" viewBox="0 0 26 12" fill="none" xmlns="http://www.w3.org/2000/svg">
<path d="M24.4171 10.6517C24.4009 10.7488 24.4009 10.8621 24.3199 10.943C24.2713 10.9916 24.2065 11.0078 24.1417 11.0239C23.5425 11.1534 22.9432 10.8621 22.4412 10.4899C21.9553 10.1339 21.518 9.68075 20.9512 9.43801C20.5625 9.25999 20.1089 9.19524 19.6878 9.25997C19.5259 9.27616 19.364 9.32472 19.2506 9.43801C19.121 9.61602 19.1372 9.85876 19.0724 10.053C19.0238 10.2148 18.9266 10.3281 18.8133 10.409C18.4732 10.6679 17.9063 10.6841 17.4528 10.6679C15.9628 10.5708 14.4728 10.5708 12.9989 10.6679C12.9989 10.6679 12.9935 10.6679 12.9827 10.6679C12.6156 10.3874 12.2431 10.1123 11.8652 9.84259C11.4117 9.50274 10.8124 9.16288 10.2942 9.42181C10.0836 9.53509 9.92163 9.7293 9.71109 9.84259C9.20901 10.1501 8.5774 9.90732 8.04293 9.68075C7.50306 9.45419 6.96861 9.22222 6.43954 8.98487C6.45034 8.97408 6.46109 8.96869 6.47189 8.96869C6.66624 8.82304 6.87685 8.64503 6.94164 8.40228C7.16838 7.59312 5.74313 7.15617 5.72694 6.31464C5.71074 5.66731 6.52048 5.14945 6.30993 4.55067C6.05079 3.87098 4.91707 4.21082 4.36641 3.74151C4.12347 3.54731 4.02629 3.25602 3.88053 2.98091C3.23269 1.79954 1.67791 1.52442 0.592773 0.731441C1.54834 0.553426 2.56865 0.5858 3.55661 0.618166C4.51217 0.650533 5.59737 0.763803 6.13184 1.55678C6.2614 1.73479 6.35858 1.96137 6.53674 2.09083C6.76348 2.26885 7.05501 2.26884 7.34653 2.26884C8.16713 2.24727 8.98768 2.23108 9.80828 2.22029C10.4723 2.22029 11.1526 2.2041 11.768 2.46303C12.9017 2.96471 13.5819 4.34029 14.8128 4.53449C15.2177 4.61541 15.6226 4.53449 16.0275 4.46975C16.9993 4.30792 18.0035 4.19464 18.9752 4.38884C19.947 4.58304 20.8863 5.14946 21.3074 6.03954C21.3884 6.21755 21.4532 6.41175 21.5828 6.52503C21.761 6.68686 22.0039 6.70303 22.2306 6.75158C22.6679 6.8325 23.0728 6.99434 23.4453 7.18854C23.4777 7.43129 23.4454 7.65785 23.2996 7.85205C23.2348 7.94914 23.1376 8.03005 23.089 8.12715C22.9432 8.43463 23.17 8.7745 23.4453 8.95251C23.7045 9.14671 24.0446 9.25999 24.2389 9.51892C24.4657 9.8264 24.4495 10.2633 24.4171 10.6517Z" fill="#77B341" fill-opacity="0.8" stroke="#BABABA" stroke-width="1.18548" stroke-linecap="round" stroke-linejoin="round"/>
</svg>
