<svg width="13" height="8" viewBox="0 0 13 8" fill="none" xmlns="http://www.w3.org/2000/svg">
<path d="M11.8166 2.45384C11.6222 2.66422 11.4279 2.89079 11.2336 3.10117C10.7963 3.53811 10.2456 3.92652 9.63011 3.89415C9.51673 3.89415 9.40343 3.87796 9.29005 3.91033C9.20907 3.94269 9.12805 4.00743 9.07946 4.07216C8.86891 4.33109 8.78795 4.65476 8.85273 4.96224C8.88512 5.20498 8.99851 5.52864 8.78796 5.6581C8.70698 5.70665 8.60977 5.70665 8.5126 5.72284C8.0915 5.77139 7.73517 6.12741 7.68659 6.54818C7.65419 6.71001 7.67041 6.88803 7.54084 7.00131C7.49225 7.04986 7.4113 7.06605 7.33032 7.08223C6.94162 7.14696 6.4881 7.1146 6.16418 6.83948C6.00222 6.69383 5.88888 6.48346 5.71072 6.33781C5.51637 6.20834 5.20862 6.19215 5.11144 6.38634C5.06285 6.46726 5.06285 6.58055 5.03046 6.66147C4.96568 6.95277 4.67415 7.14697 4.38262 7.14697C4.09109 7.13078 3.81581 6.96895 3.62146 6.75857C3.52428 6.64528 3.44324 6.49964 3.31367 6.41872C3.23269 6.35399 3.13556 6.32163 3.03838 6.32163C2.77925 6.28926 2.55246 6.43491 2.34191 6.56438C2.11517 6.71542 1.89388 6.86645 1.67794 7.01749C1.63475 6.79093 1.59693 6.56437 1.56453 6.33781C1.54834 6.19216 1.51598 6.04651 1.435 5.93323C1.28923 5.69048 0.949085 5.62574 0.673753 5.70666C0.652159 5.71745 0.625165 5.72823 0.592773 5.73902C0.625165 5.64192 0.662988 5.54483 0.706177 5.44773C0.884333 5.0917 1.20825 4.8004 1.35402 4.412C1.435 4.18544 1.45115 3.95887 1.46734 3.71612C1.49973 3.36009 1.55913 3.00406 1.64551 2.64803C2.60108 2.74513 3.54044 2.9717 4.47981 2.93934C4.83612 2.93934 5.19245 2.89077 5.46778 2.66421C5.62974 2.51856 5.74307 2.32437 5.90503 2.16254C6.35852 1.69322 7.10359 1.64468 7.75143 1.70942C8.39927 1.77415 9.07951 1.9198 9.69495 1.7256C10.3104 1.54758 10.7801 1.07826 11.2336 0.625132L11.2659 0.592773C11.3415 0.765394 11.3955 0.938007 11.4279 1.11063C11.5251 1.53139 11.5251 1.98453 11.7518 2.35675C11.7734 2.38911 11.795 2.42147 11.8166 2.45384Z" fill="#F1F1F1" stroke="#BABABA" stroke-width="1.18548" stroke-linecap="round" stroke-linejoin="round"/>
</svg>
