<svg width="22" height="24" viewBox="0 0 22 24" fill="none" xmlns="http://www.w3.org/2000/svg">
<path d="M20.7174 15.6025C20.6634 15.6996 20.6094 15.7913 20.5554 15.8776C20.5014 15.9639 20.4528 16.0448 20.4096 16.1203C20.3664 16.1958 20.3286 16.2714 20.2963 16.3469C20.2153 16.5411 20.1829 16.7353 20.1343 16.9295C20.1235 16.9834 20.1127 17.0374 20.1019 17.0913C20.0695 17.237 20.0371 17.3664 19.9723 17.5121C19.9507 17.5552 19.9292 17.5984 19.9076 17.6416C19.8752 17.6847 19.8428 17.7278 19.8104 17.771C19.7996 17.7926 19.7833 17.8088 19.7617 17.8196C19.616 17.9814 19.4379 18.0785 19.2597 18.0947C19.2057 18.0947 19.1571 18.0893 19.1139 18.0785C19.0923 18.0677 19.0707 18.0569 19.0491 18.0461C18.8872 17.9976 18.79 17.8843 18.6929 17.7548C18.6605 17.7009 18.6281 17.6415 18.5957 17.5768C18.5525 17.4905 18.5039 17.4042 18.4499 17.3179C18.4175 17.2747 18.3797 17.2262 18.3365 17.1722C18.2825 17.1183 18.2286 17.0697 18.1746 17.0266C18.0936 16.9942 18.0288 16.9619 17.9478 16.9457C17.9262 16.9349 17.8993 16.9295 17.8669 16.9295C17.8021 16.9457 17.7373 16.9618 17.6725 17.0104C17.6509 17.0212 17.6347 17.0374 17.6239 17.059C17.5753 17.1237 17.5429 17.1884 17.5105 17.2693C17.4889 17.3341 17.4673 17.3934 17.4457 17.4473C17.4349 17.4689 17.4241 17.4905 17.4133 17.5121C17.4025 17.5445 17.3864 17.5714 17.3648 17.593C17.2352 17.771 17.0084 17.8357 16.7817 17.8196C16.5226 17.8196 16.231 17.7063 16.0367 17.5282C15.8423 17.334 15.6965 17.1237 15.5508 16.8971C15.5184 16.8432 15.4861 16.7838 15.4537 16.7191C15.3997 16.6328 15.3457 16.5519 15.2917 16.4763C15.2485 16.4224 15.2053 16.3685 15.1621 16.3145C15.1513 16.2929 15.1351 16.266 15.1135 16.2336C15.0272 16.1473 14.9354 16.0718 14.8382 16.007C14.5952 15.8452 14.3199 15.7481 14.0608 15.7967C13.9312 15.8128 13.8178 15.8614 13.7045 15.9585C13.6235 16.0394 13.5749 16.1365 13.5263 16.2336C13.4291 16.4763 13.3806 16.7515 13.2672 16.978C13.1376 17.2531 12.9271 17.4473 12.6679 17.5768C12.6679 17.5768 12.6625 17.5822 12.6517 17.593C12.5977 17.6146 12.5383 17.6361 12.4735 17.6577C12.4196 17.6793 12.3656 17.7009 12.3116 17.7225C12.101 17.7872 11.8581 17.8357 11.6314 17.8681C11.4586 17.8897 11.2859 17.9112 11.1131 17.9328C11.0915 17.9328 11.0645 17.9328 11.0321 17.9328C10.8378 17.9652 10.6435 18.0138 10.5139 18.1432C10.3681 18.305 10.3681 18.5154 10.4329 18.7258C10.4437 18.7582 10.449 18.7852 10.449 18.8067C10.5138 18.9686 10.611 19.1304 10.692 19.276C10.7136 19.2976 10.7298 19.3192 10.7406 19.3408C10.881 19.5566 11.0051 19.7831 11.1131 20.0205C11.1995 20.2039 11.2697 20.3819 11.3237 20.5545C11.3777 20.7056 11.4208 20.8566 11.4532 21.0076C11.4856 21.1695 11.4965 21.3259 11.4857 21.477C11.4749 21.5741 11.4532 21.6712 11.4208 21.7683C11.41 21.8222 11.3884 21.8762 11.356 21.9301C11.2265 22.1567 11.0321 22.3347 10.8054 22.4156C10.7622 22.4264 10.719 22.4318 10.6759 22.4318C10.6651 22.4318 10.6542 22.4318 10.6434 22.4318C10.6002 22.4318 10.5517 22.4318 10.4977 22.4318C10.3519 22.3994 10.2224 22.3347 10.0928 22.2699C10.0388 22.2484 9.9794 22.2268 9.91461 22.2052C9.81744 22.1728 9.72029 22.1621 9.62312 22.1729C9.60152 22.1729 9.57453 22.1729 9.54214 22.1729C9.283 22.2214 9.04006 22.3508 8.81332 22.545C7.42046 21.0076 5.76844 19.6806 4.327 18.1918C4.00308 17.8519 3.69538 17.4959 3.54962 17.0428C3.46864 16.7515 3.4524 16.4278 3.33902 16.1527C3.24185 15.8937 3.06371 15.6996 2.86936 15.4892C2.50225 15.0792 2.13517 14.6692 1.76806 14.2592C1.46034 13.6119 0.699093 13.2074 0.601917 12.4953C0.553329 12.1393 0.699077 11.7994 0.828645 11.4757C0.877233 11.3786 0.909625 11.2815 0.990605 11.2168C1.08778 11.1359 1.23359 11.1197 1.36316 11.0712C1.80045 10.9417 2.15675 10.5533 2.23773 10.1002C2.31871 9.67941 2.2215 9.16154 2.52922 8.87024C2.6264 8.78932 2.75595 8.74079 2.83693 8.64369C3.17705 8.33621 3.01515 7.7698 2.8208 7.34904C2.62645 6.94446 2.44824 6.39423 2.77216 6.05438C2.91793 5.90873 3.16087 5.8278 3.33902 5.71452C3.8411 5.76307 4.37557 5.76309 4.87764 5.77927C5.78462 5.77927 6.68623 5.76849 7.58241 5.74692C8.16546 5.73073 8.76468 5.71453 9.33154 5.60124C9.39632 5.60124 9.47734 5.58508 9.52592 5.53653C9.55832 5.50416 9.59071 5.45562 9.6069 5.42325C9.80126 5.03485 9.80121 4.5817 9.80121 4.14476C9.78501 3.07666 9.68784 1.97621 9.80121 0.908117C10.2871 0.56827 10.9187 0.584469 11.518 0.600652C12.2306 0.633019 12.9433 0.665393 13.6397 0.811042C14.3199 0.940507 14.9677 1.18325 15.6318 1.3289C15.9125 1.39363 16.1987 1.44216 16.4902 1.47453C16.4362 1.64715 16.3876 1.82517 16.3445 2.00858C16.2581 2.32146 16.1771 2.62893 16.1015 2.93102C16.0799 3.01733 16.0583 3.10902 16.0367 3.20612C16.0151 3.26007 15.9989 3.31942 15.9881 3.38415C15.9665 3.50283 15.9557 3.6215 15.9557 3.74018C15.9557 3.79412 15.9557 3.85347 15.9557 3.91821C15.9557 3.96136 15.9611 4.00452 15.9719 4.04768C15.9935 4.16636 16.0367 4.28503 16.1015 4.4037C16.1339 4.46844 16.1825 4.53316 16.2473 4.59789C16.2797 4.63026 16.3121 4.66264 16.3445 4.69501C16.3768 4.7058 16.4092 4.72195 16.4416 4.74353C16.5549 4.80826 16.6683 4.82446 16.7979 4.84064C16.8951 4.84064 16.9976 4.82445 17.1056 4.79208C17.138 4.78129 17.165 4.77051 17.1866 4.75972C17.273 4.73815 17.354 4.70577 17.4295 4.66261C17.4943 4.63024 17.5537 4.5979 17.6077 4.56553C17.7265 4.5008 17.8453 4.43608 17.9641 4.37134C18.0828 4.29582 18.2015 4.23106 18.3203 4.17711C18.5471 4.06383 18.7738 3.96674 19.0006 3.98292C19.087 3.98292 19.1734 3.99911 19.2597 4.03148C19.2921 4.04227 19.3245 4.05305 19.3568 4.06384C19.3892 4.08542 19.4271 4.11239 19.4702 4.14476C19.535 4.19331 19.5998 4.25805 19.6646 4.32279C19.697 4.35515 19.724 4.39291 19.7456 4.43606C19.9724 4.67881 20.1991 4.9701 20.361 5.27758C20.4042 5.36389 20.442 5.45022 20.4744 5.53653C20.5878 5.86019 20.6201 6.18384 20.4906 6.49132C20.3124 6.92826 19.9075 7.18719 19.5188 7.49467C19.4108 7.58098 19.3083 7.67272 19.2111 7.76981C19.1463 7.84534 19.0869 7.92084 19.0329 7.99636C19.0005 8.02873 18.9735 8.06648 18.9519 8.10964C18.9034 8.22292 18.871 8.32002 18.8386 8.4333C18.817 8.50882 18.8062 8.58974 18.8062 8.67605C18.7954 8.74078 18.79 8.80014 18.79 8.85408C18.7576 9.53377 18.9844 10.2297 19.4865 10.6828C19.5674 10.7637 19.6646 10.8284 19.7617 10.9093C19.8481 10.9633 19.9291 11.0172 20.0047 11.0712C20.0695 11.1143 20.1343 11.1629 20.1991 11.2168C20.2531 11.2492 20.3016 11.2816 20.3448 11.3139C20.4312 11.4002 20.5122 11.4866 20.5878 11.5729C20.7659 11.8318 20.8469 12.1555 20.9117 12.4629C20.9225 12.5708 20.9333 12.6787 20.9441 12.7866C21.0575 13.7414 21.1709 14.7609 20.7174 15.6025Z" fill="#F1F1F1" stroke="#BABABA" stroke-width="1.18548" stroke-linecap="round" stroke-linejoin="round"/>
</svg>
