<svg width="44" height="33" viewBox="0 0 44 33" fill="none" xmlns="http://www.w3.org/2000/svg">
<path d="M43.3339 14.2681C43.3663 14.7374 43.01 15.1743 42.5727 15.3847C42.1516 15.6112 41.6657 15.6436 41.1798 15.676C40.8073 15.7084 40.4025 15.7245 40.0623 15.5627C39.787 15.4494 39.5765 15.2229 39.3335 15.0772C38.3618 14.5432 37.1309 15.2552 36.4992 16.1615C36.1429 16.6632 35.819 17.2943 35.2197 17.4076C34.831 17.4885 34.3937 17.3428 34.0698 17.5694C33.3248 18.0873 34.4423 19.4143 33.8755 20.1264C33.7621 20.272 33.5839 20.3691 33.4058 20.45C31.8995 21.0812 29.9399 21.1621 29.0977 22.57C28.7899 23.0879 28.6766 23.7514 28.2069 24.1236C27.2027 24.9166 25.5345 23.8323 24.5466 24.6253C24.2874 24.8357 24.1093 25.1593 23.8178 25.305C23.3481 25.5154 22.8136 25.224 22.3115 25.2402C21.7447 25.2726 21.275 25.661 20.8377 26.0332C19.5744 27.0528 18.1653 27.9105 16.6753 28.574V32.1828H0.592712C0.6413 32.0696 0.722249 31.9725 0.803229 31.8915C0.948993 31.7297 1.14337 31.6326 1.35392 31.5355C2.35807 31.0662 3.44319 30.7587 4.54452 30.6616C4.80365 30.6454 5.04659 30.6292 5.30572 30.5807C6.00215 30.4512 6.63379 30.0305 7.03869 29.4479C7.44898 29.0379 7.88088 28.6495 8.33437 28.2827C8.46393 28.1856 8.57731 28.0723 8.73927 28.0076C8.88503 27.9428 9.06318 27.9105 9.22515 27.8619C9.58146 27.7487 9.88918 27.5221 10.1969 27.2955C10.3427 27.1822 10.4885 27.0689 10.5856 26.9071C10.6504 26.7938 10.6666 26.6644 10.7476 26.5673C10.8934 26.3731 11.1849 26.3083 11.2982 26.0979C11.363 26.0008 11.3792 25.8714 11.4602 25.7743C11.525 25.7096 11.606 25.6772 11.687 25.6448C11.9623 25.4992 12.1242 25.2402 12.2376 24.9651C12.3672 24.69 12.4482 24.3987 12.6101 24.1398C12.7397 23.9618 12.9178 23.7999 13.0474 23.6219C13.1608 23.4601 13.2418 23.2659 13.2418 23.0717C13.5333 22.5215 13.1932 21.9713 12.8692 21.5019C12.7559 21.3239 12.6263 21.1297 12.5777 20.9355C12.5292 20.7575 12.5129 20.5957 12.5129 20.4177C12.4644 19.4305 12.3996 18.4433 12.5129 17.4561C12.5453 17.1325 12.6101 16.7926 12.8369 16.5661C12.9988 16.4042 13.2094 16.3233 13.3713 16.1776C13.6305 15.9834 13.7924 15.6598 14.0354 15.4332C14.165 15.32 14.3107 15.2229 14.4079 15.0772C14.5212 14.8992 14.5374 14.6564 14.5374 14.446C14.748 13.9282 14.9585 13.3618 15.3958 12.9896C15.574 12.8277 15.8169 12.7145 16.0113 12.5526C16.7077 12.0024 16.9345 10.9667 17.7119 10.4974C17.8576 10.4003 18.0196 10.3355 18.1654 10.2223C18.2949 10.1252 18.4083 9.97949 18.5055 9.83384C18.7214 9.55333 18.9536 9.28361 19.2019 9.02468C19.3639 8.86285 19.542 8.70102 19.7525 8.6201C20.125 8.47445 20.5462 8.58773 20.9349 8.49063C21.2912 8.42589 21.5989 8.21552 21.858 7.97277C22.1981 7.69766 22.5059 7.39018 22.8298 7.0827C23.3588 6.55405 23.8933 6.02539 24.4332 5.49674C25.3888 4.29918 25.9232 2.76179 25.9232 1.22439C25.9232 1.03019 25.9232 0.803643 26.069 0.674178C26.1824 0.593262 26.3281 0.593262 26.4739 0.593262C26.9274 0.593262 27.3863 0.593262 27.8505 0.593262C28.0449 0.609445 28.2555 0.609421 28.4498 0.690337C28.6442 0.787436 28.7737 0.965459 28.9033 1.14347C29.3082 1.64515 29.7293 2.14682 30.2476 2.50285C30.782 2.87506 31.4299 3.10164 32.0615 3.00454C32.4664 2.93981 32.8227 2.76179 33.1952 2.63232C34.1022 2.34102 35.0578 2.34103 36.0133 2.35721C36.483 2.35721 36.9527 2.37339 37.39 2.5514C37.7463 2.69705 38.0378 2.92363 38.3779 3.08546C38.6371 3.21492 38.9124 3.27964 39.2039 3.31201C39.5117 3.78132 39.9004 4.2021 40.3539 4.54194C40.613 4.75233 40.9207 4.94653 41.0827 5.23783C41.2285 5.51294 41.2284 5.83658 41.2284 6.14406C41.1799 8.53918 41.0341 11.1932 42.5889 13.0219C42.8966 13.4103 43.3015 13.7664 43.3339 14.2681Z" fill="#F1F1F1" stroke="#BABABA" stroke-width="1.18548" stroke-linecap="round" stroke-linejoin="round"/>
</svg>
