<svg width="13" height="29" viewBox="0 0 13 29" fill="none" xmlns="http://www.w3.org/2000/svg">
<path d="M11.4207 20.7085C11.3074 21.5662 11.2912 22.4401 11.356 23.314C11.3884 23.6377 11.4207 23.9775 11.2588 24.2688C11.113 24.5277 10.8215 24.6896 10.53 24.7705C10.2222 24.8514 9.91449 24.8676 9.62296 24.9323C9.461 24.9647 9.28283 25.0132 9.20185 25.1589C9.12087 25.2721 9.10474 25.4178 9.10474 25.5473C9.08854 25.871 9.07228 26.2108 9.20185 26.4859C9.31522 26.7124 9.49339 26.8905 9.62296 27.1008C9.75253 27.295 9.81736 27.5863 9.6716 27.7805C9.46105 28.0718 9.02369 27.9747 8.71597 27.7967C8.34346 27.5702 8.00336 27.2789 7.76042 26.9229C7.56607 26.6477 7.40416 26.3403 7.16122 26.1137C6.93447 25.9033 6.65908 25.7577 6.44853 25.5473C6.23798 25.3207 6.10845 25.0294 5.99507 24.7543C5.83311 24.3497 5.68732 23.9289 5.71971 23.492C5.7683 23.136 5.94652 22.8123 6.10848 22.5048C6.46479 21.8575 6.82104 21.2102 7.17735 20.5629C7.30692 20.3201 7.43649 20.0774 7.50127 19.8023C7.54986 19.4948 7.51747 19.1711 7.42029 18.8798C7.33931 18.6047 7.1774 18.3134 6.90207 18.2163C6.7725 18.1677 6.62672 18.1839 6.48095 18.1839C6.05986 18.1947 5.63879 18.2109 5.2177 18.2325C4.95856 18.2325 4.68318 18.2487 4.44024 18.3296C4.29448 18.3781 4.1649 18.459 4.01913 18.4914C3.84098 18.5238 3.66287 18.5076 3.50091 18.4752C2.90166 18.3296 2.39956 17.8764 2.18902 17.31C2.14043 17.1644 2.09182 17.0187 2.01084 16.9054C1.81649 16.598 1.41161 16.5332 1.0553 16.5009C0.947323 16.4901 0.83935 16.4793 0.731377 16.4685C0.828553 15.9992 0.537057 15.5137 0.60184 15.0444C0.666624 14.5912 1.02292 14.2514 1.15249 13.8145C1.37923 13.151 1.08767 12.2123 1.68692 11.8239C1.84888 11.7106 2.05948 11.6783 2.22144 11.5812C2.67493 11.3384 2.78825 10.6264 2.41574 10.2542C2.28618 10.1085 2.10807 10.0276 1.9785 9.86575C1.76795 9.60682 1.76792 9.2508 1.78412 8.91096C1.8327 7.76195 1.88126 6.59675 2.31855 5.54485C2.64247 4.73569 3.19314 3.89417 2.88541 3.08501C2.77204 2.82608 2.59392 2.61567 2.43196 2.37292C2.09184 1.83888 1.92991 1.22392 1.81654 0.592773C2.63714 0.765394 3.46852 0.884102 4.31071 0.948835C4.55365 0.965018 4.79657 0.981194 5.02331 1.06211C5.23386 1.12684 5.42825 1.24012 5.6226 1.33722C5.88173 1.4505 6.1732 1.53141 6.36755 1.7418C6.44853 1.85508 6.51333 2.00071 6.54572 2.13018C6.61051 2.40529 6.59434 2.68041 6.49717 2.93934C6.49717 2.91776 6.49717 2.90161 6.49717 2.89082C6.39999 2.55097 6.20559 2.25967 5.96265 2.00074C5.83308 1.85509 5.68733 1.7256 5.49298 1.69324C5.29863 1.66087 5.07189 1.74181 5.0071 1.91983C4.90993 2.21112 5.23386 2.45386 5.42821 2.68043C5.76833 3.05264 5.83308 3.57049 5.80069 4.0398C5.80069 4.44438 5.68737 4.8166 5.68737 5.22118C5.68737 5.22118 5.68737 5.22659 5.68737 5.23738C5.68737 5.62578 5.78449 6.01417 5.80069 6.40256C5.83308 7.22791 5.75213 8.05322 5.50919 8.8462C5.33104 9.4288 5.10433 10.0761 5.37966 10.6102C5.47683 10.772 5.62257 10.9338 5.67115 11.128C5.81692 11.5974 5.33102 12.099 5.49298 12.5683C5.54157 12.7302 5.65497 12.8596 5.76835 12.9729C6.56195 13.8792 6.96683 15.1091 6.88585 16.3067C6.86966 16.5494 6.85346 16.8569 7.04781 17.0026C7.29075 17.1806 7.63084 16.9864 7.90617 16.8731C8.1977 16.776 8.53781 16.7274 8.71597 16.5009C9.57436 16.8569 10.3518 17.4557 10.8863 18.2163C11.194 18.6532 11.4531 19.1549 11.4855 19.7051C11.5179 20.0288 11.4531 20.3686 11.4207 20.7085Z" fill="#F1F1F1" stroke="#BABABA" stroke-width="1.18548" stroke-linecap="round" stroke-linejoin="round"/>
</svg>
