<svg width="23" height="11" viewBox="0 0 23 11" fill="none" xmlns="http://www.w3.org/2000/svg">
<path d="M21.336 5.40886C21.1417 4.90718 21.336 4.32457 21.1579 3.82289C21.0121 3.38595 20.591 3.07846 20.1537 2.96518C19.7002 2.83571 19.2306 2.86809 18.7771 2.93282C18.194 3.01374 17.611 3.12704 17.0279 3.07849C15.635 2.91666 14.5823 1.71909 13.2704 1.20122C12.4768 0.893744 11.5861 0.845187 10.7601 1.07175C10.177 1.23358 9.61013 1.5249 9.01088 1.54109C8.44402 1.57345 7.86097 1.33071 7.47226 0.89376C7.37509 0.796661 7.29408 0.683363 7.16452 0.634813C7.05114 0.586264 6.92161 0.586271 6.79204 0.602455C5.98224 0.683371 5.18863 0.926126 4.476 1.29834C4.26546 1.41162 4.05492 1.50869 3.87676 1.67052C3.74719 1.7838 3.50425 2.01038 3.55284 2.20458C3.56904 2.30167 3.64999 2.38261 3.73097 2.46352C3.89293 2.60917 4.07111 2.72243 4.28166 2.80335C4.49221 2.86808 4.70274 2.90046 4.91329 2.98138C5.44776 3.17557 5.85265 3.69342 5.91743 4.25983C5.93363 4.35693 5.93365 4.45404 5.98224 4.55114C6.09561 4.84244 6.51668 4.8748 6.72723 5.11755C6.92158 5.34412 6.9216 5.66779 6.82442 5.94291C6.79203 6.04001 6.75962 6.13708 6.67864 6.20182C6.59766 6.28273 6.46809 6.31513 6.35472 6.31513C5.78786 6.36368 5.25339 6.03999 4.8161 5.68396C4.36261 5.31175 3.95772 4.90717 3.40705 4.71297C3.13172 4.61587 2.84019 4.59968 2.54866 4.5835C2.28952 4.5835 2.04661 4.5997 1.80367 4.68061C1.56073 4.76153 1.35015 4.92334 1.25298 5.14991C1.1558 5.36029 1.15583 5.61924 1.04246 5.81344C0.993874 5.89435 0.929074 5.97525 0.86429 6.03998C0.588958 6.37983 0.475594 6.91388 0.750926 7.25372C0.848102 7.38319 0.977678 7.4803 1.12344 7.54503C1.46356 7.70686 1.83604 7.80397 2.19235 7.83634C2.43529 7.8687 2.67823 7.93342 2.92117 7.90105C3.16411 7.86869 3.37465 7.75543 3.6014 7.64214C3.63379 7.62596 3.66618 7.5936 3.68238 7.56123C3.77955 7.3994 3.89293 7.26994 4.05489 7.20521C4.39501 7.04337 4.81612 7.02717 5.20482 7.05953C5.7069 7.10808 6.20898 7.23754 6.71106 7.17281C7.06737 7.14044 7.40749 7.01099 7.7638 7.02718C8.31446 7.05954 8.78415 7.43177 9.14046 7.85253C9.49677 8.2733 9.77209 8.75878 10.177 9.13099C10.3389 9.27664 10.5333 9.40611 10.7438 9.4223C11.1811 9.47085 11.5213 9.0339 11.6508 8.61314C11.7966 8.19237 11.8614 7.72306 12.1529 7.3994C12.574 6.94627 13.319 6.96244 13.8859 7.18901C14.1936 7.30229 14.4851 7.46411 14.8091 7.49647C15.3273 7.52884 15.7808 7.189 16.2505 6.97862C16.9145 6.67114 17.6433 6.6064 18.356 6.6064C18.7447 6.6064 19.1334 6.62259 19.5059 6.73587C20.0728 6.8977 20.5586 7.30228 21.174 7.22137C21.4494 7.189 21.6923 7.04337 21.7895 6.80063C22.0163 6.28276 21.5142 5.87817 21.336 5.40886Z" fill="#F1F1F1" stroke="#BABABA" stroke-width="1.18548" stroke-linecap="round" stroke-linejoin="round"/>
</svg>
