<svg width="27" height="14" viewBox="0 0 27 14" fill="none" xmlns="http://www.w3.org/2000/svg">
<path d="M26.0271 10.4487C25.768 10.4326 25.4926 10.4487 25.2497 10.562C24.699 10.8209 24.4561 11.5492 23.873 11.7272C23.4843 11.8405 23.0794 11.6787 22.6907 11.6787C21.9133 11.6787 21.2816 12.2451 20.7148 12.7791C20.6338 12.86 20.5528 12.9571 20.4718 13.0542C19.6458 12.5202 18.9333 11.8567 18.3502 11.0637C18.2045 10.8857 18.0748 10.6915 17.8805 10.5458C17.5889 10.3193 17.2165 10.2707 16.8764 10.1736C16.2447 9.96323 15.6778 9.55865 15.0462 9.36445C13.7829 8.97605 12.3091 9.52629 11.6127 10.6429C11.5155 10.7886 11.4345 10.9342 11.305 11.0475C11.143 11.1932 10.9324 11.2579 10.7057 11.2903C9.53957 11.4035 8.53542 10.5135 7.70943 9.68812C7.32072 9.31051 6.93199 8.92751 6.54328 8.53911C6.4947 8.49056 6.42996 8.42583 6.34898 8.39346C6.2518 8.37728 6.17079 8.39348 6.07362 8.40966C5.57694 8.53912 5.07489 8.66318 4.56742 8.78186C4.11393 8.89514 3.64423 9.00843 3.25553 9.25118C3.04498 9.38064 2.86686 9.55867 2.64011 9.6234C2.47815 9.68813 2.28377 9.68813 2.12181 9.72049C1.58734 9.83378 1.23105 10.2384 0.923322 10.7077C0.518423 10.1898 0.566979 9.44537 0.647959 8.79804C0.647959 8.15071 0.809935 7.5034 1.15005 6.95317C1.52256 6.35439 2.10558 5.83652 2.25135 5.14064C2.41331 4.49331 2.1704 3.73271 2.52671 3.1663C2.72106 2.875 3.045 2.69699 3.35272 2.51897C3.51468 2.43266 3.67123 2.35175 3.82239 2.27622C4.1787 2.08203 4.55121 1.88783 4.95611 1.85546C5.32862 1.8231 5.70111 1.95256 5.99264 2.19531C6.25177 2.42187 6.41373 2.72934 6.64048 2.97209C7.17494 3.5385 7.96856 3.78126 8.43825 4.39622C8.60021 4.6066 8.72979 4.86553 8.94034 5.04355C9.0861 5.15683 9.26427 5.22156 9.44243 5.30247C9.99309 5.49667 10.5761 5.70705 11.1591 5.62614C11.645 5.5614 12.0824 5.30248 12.5035 5.04355C12.6654 4.94645 12.8274 4.83316 12.8921 4.65515C12.9407 4.47713 12.8436 4.26676 12.7302 4.12111C12.6006 3.95928 12.4387 3.84599 12.3415 3.66797C12.1148 3.29576 12.1957 2.82644 12.2929 2.3895C12.3576 2.10899 12.4225 1.82849 12.4872 1.54798C12.4872 1.53719 12.4872 1.52639 12.4872 1.5156C13.4266 1.06247 14.366 0.576984 15.3863 0.593167C16.0827 0.60935 16.763 0.852102 17.2813 1.30523C17.5728 1.5318 17.8157 1.80691 18.1396 1.96874C18.3016 2.04965 18.4635 2.09821 18.6255 2.17913C18.9008 2.32478 19.0952 2.5837 19.3543 2.76172C19.905 3.15012 20.6338 3.11775 21.3141 3.0692C21.8971 3.02065 22.4963 2.97209 22.9822 2.64843C23.0146 2.62685 23.047 2.59988 23.0794 2.56751C23.3062 2.98827 23.6301 3.32813 24.0188 3.57088C24.2618 3.71653 24.5371 3.82981 24.7152 4.0402C25.0391 4.41241 25.0067 4.995 24.7638 5.41577C24.6828 5.54523 24.5856 5.6585 24.5208 5.80415C24.3427 6.144 24.3589 6.58095 24.5533 6.90461C24.6666 7.11499 24.8448 7.26065 24.9906 7.43867C25.7194 8.24783 26.0919 9.36446 26.0271 10.4487Z" fill="#F1F1F1" stroke="#BABABA" stroke-width="1.18548" stroke-linecap="round" stroke-linejoin="round"/>
</svg>
