<svg width="30" height="55" viewBox="0 0 30 55" fill="none" xmlns="http://www.w3.org/2000/svg">
<path d="M28.7413 19.5109C28.4498 19.9479 27.7858 20.1582 27.7372 20.6923C27.7048 21.0483 27.9801 21.3558 28.1582 21.6633C28.4174 22.1164 28.4822 22.7475 28.1097 23.1359C27.9153 23.3301 27.64 23.4272 27.3647 23.4596C27.2459 23.4704 27.1272 23.4758 27.0084 23.4758C25.5831 23.5082 24.1902 23.0065 22.7488 22.8932C21.3235 22.7799 19.6716 23.2007 19.0237 24.4953C18.7808 24.9808 18.6836 25.5958 18.2463 25.9518C17.9386 26.2108 17.4527 26.3079 17.2746 26.6801C17.1774 26.9066 17.226 27.1656 17.2908 27.3921C17.442 28.0502 17.6525 28.6868 17.9224 29.3017C18.2463 30.0138 18.6512 30.7097 18.8455 31.4865C18.9427 31.8425 18.9751 32.2147 18.959 32.5707C18.8942 32.5168 18.8294 32.4629 18.7646 32.4089C17.9548 31.74 17.1504 31.0657 16.3514 30.386C16.2218 30.2889 16.0598 30.1756 15.9303 30.0785C15.6711 29.8358 15.2338 29.852 14.8775 29.852C14.2297 29.8843 13.5873 29.879 12.9502 29.8358C12.8207 29.8358 12.6749 29.8196 12.5615 29.771C12.3672 29.6901 12.2376 29.5121 12.1728 29.3017C12.1081 29.1075 12.0919 28.8972 12.0919 28.703C12.0757 28.444 12.0756 28.1851 12.1404 27.9424C12.2214 27.6187 12.3996 27.295 12.3024 26.9714C12.2376 26.761 12.0595 26.5991 11.8651 26.4535C11.7356 26.3402 11.606 26.2431 11.444 26.1946C11.2335 26.146 11.0068 26.2108 10.8124 26.3079C10.3913 26.5344 10.0835 26.8743 9.77579 27.2303C9.69481 27.3112 9.61388 27.4083 9.58149 27.5216C9.5167 27.7805 9.72724 28.0556 9.64626 28.3146C9.63006 28.3793 9.58147 28.444 9.56528 28.5249C9.54908 28.5897 9.54906 28.6544 9.54906 28.7191C9.54906 29.0644 9.55448 29.4096 9.56528 29.7549C9.67865 30.1433 9.67863 30.5802 9.54906 30.9686C9.33852 31.6807 8.77164 32.2309 8.39913 32.8782C8.02663 33.4932 7.8485 34.2214 7.8647 34.9497C7.8647 35.1762 7.89707 35.419 7.84848 35.6455C7.7999 35.8559 7.70271 36.0501 7.58933 36.2282C7.39498 36.5842 7.20603 36.9348 7.02247 37.2801C6.89291 37.5066 6.76334 37.7494 6.69855 38.0083C6.61757 38.2996 6.63379 38.5909 6.63379 38.8984C6.65538 39.4486 6.67162 39.9988 6.68242 40.5491C7.05493 40.9213 7.50837 41.1964 8.01045 41.342C8.2048 41.4068 8.41534 41.4553 8.5773 41.5848C8.65828 41.6657 8.73925 41.779 8.80403 41.8761C9.06317 42.2968 9.32234 42.7176 9.4843 43.1869C9.64626 43.6562 9.71102 44.1579 9.95396 44.5787C10.4884 44.87 10.6828 45.5497 10.699 46.1485C10.7152 46.7472 10.6018 47.3622 10.7638 47.9448C11.0391 48.9481 12.1081 49.6117 13.1446 49.6602C13.9544 49.7088 14.8937 49.5145 15.4444 50.0971C15.8493 50.5341 15.8493 51.2461 16.2218 51.6993C16.3082 51.7964 16.4054 51.8827 16.5133 51.9582C16.4054 52.0769 16.3028 52.2063 16.2056 52.3466C16.0113 52.6541 15.8655 52.9939 15.6873 53.3014C15.6387 53.3823 15.5902 53.4633 15.5092 53.5118C15.4445 53.5604 15.3473 53.5927 15.2501 53.5927C14.9424 53.6413 14.6184 53.6736 14.3269 53.5603C14.1163 53.4794 13.9382 53.3338 13.76 53.2043C13.2957 52.8375 12.8314 52.4707 12.3672 52.1038C11.9137 51.7478 11.444 51.3756 10.9095 51.1491C10.1321 50.8092 9.25752 50.793 8.39913 50.9225C8.30196 50.793 8.2372 50.6474 8.18862 50.4855C8.09144 50.0971 8.25343 49.6602 8.14006 49.2718C8.04288 48.9319 7.75136 48.6892 7.49222 48.4465C6.97395 47.961 6.48807 47.4431 6.03458 46.8767C5.85643 46.6501 5.64586 46.375 5.53249 46.0837C5.41912 45.8733 5.19239 45.6306 4.98184 45.5173C4.77129 45.404 4.49595 45.404 4.31779 45.5658C4.15583 45.7277 4.12344 45.9866 3.99387 46.1808C3.89669 46.3427 3.71854 46.4398 3.58897 46.5854C3.54038 46.6663 3.49179 46.7472 3.42701 46.7958C3.28125 46.9414 3.00593 46.9252 2.87636 46.7634C2.82778 46.6987 2.79535 46.6339 2.76296 46.5692C2.50382 45.8895 2.35806 45.1613 2.35806 44.433C2.35806 44.1417 2.37429 43.8666 2.39048 43.5915C2.41208 43.3649 2.42824 43.1384 2.43904 42.9118C2.43904 42.8147 2.45522 42.7176 2.50381 42.6367C2.5524 42.5719 2.6172 42.5234 2.68198 42.4748C3.0221 42.1997 3.24886 41.7628 3.26505 41.3259C3.28125 41.0993 3.23266 40.8565 3.26505 40.6138C3.28125 40.4843 3.31359 40.3549 3.37838 40.2416C3.45936 40.0312 3.54035 39.8208 3.63753 39.6104C3.71851 39.4 3.8157 39.1735 3.8157 38.9469C4.13962 38.8013 4.41495 38.5585 4.54452 38.2349C4.65789 37.9436 4.62548 37.6037 4.69027 37.2962C4.88462 36.2119 5.90501 35.5323 6.52046 34.626C6.81199 34.2214 7.00629 33.7521 7.20065 33.2828C7.31402 32.9915 7.44362 32.7002 7.47601 32.3927C7.54079 31.8749 7.36265 31.357 7.1683 30.8715C6.73101 29.7225 6.27746 28.5249 6.29365 27.2788C6.29365 26.6801 6.40704 26.0489 6.14791 25.4987C6.00214 25.175 5.72686 24.9161 5.46772 24.6572C4.65792 23.8642 3.94525 22.9741 3.31361 22.0193L2.86015 21.4043C2.6496 21.2263 2.55243 20.8218 2.69819 20.5305C2.84396 20.2392 3.1517 20.0611 3.44322 19.9155C3.73475 19.7698 4.04244 19.608 4.2206 19.3329C4.54452 18.8312 4.30155 18.103 4.59307 17.5689C4.72264 17.3585 4.93325 17.1805 4.98184 16.9378C5.01423 16.7274 4.94942 16.5332 4.86844 16.339C4.70648 15.9182 4.49595 15.4489 4.07485 15.2709C3.94528 15.2224 3.81567 15.19 3.7023 15.1252C3.45936 14.9634 3.3946 14.6236 3.32982 14.3323C3.16786 13.5231 2.76296 12.7787 2.1961 12.1961C1.93696 11.9372 1.66166 11.7106 1.4997 11.4031C1.25676 10.95 1.30535 10.3998 1.0948 9.94663C0.916648 9.57441 0.592712 9.23458 0.592712 8.83C0.608908 8.34451 1.07859 8.00468 1.24055 7.55155C1.56447 6.66147 0.641316 5.70665 0.851864 4.7842C1.04622 4.02359 1.90456 3.6514 2.66577 3.58666C3.42698 3.52193 4.23681 3.65138 4.96563 3.40863C6.16413 3.02024 6.92531 1.70939 8.1724 1.41809C8.5935 1.32099 9.11179 1.3372 9.40332 0.997353C9.50049 0.884071 9.54905 0.738422 9.61383 0.592773C10.456 1.25628 10.9581 2.35674 10.8772 3.42483C10.861 3.6514 10.8448 3.92651 11.0229 4.07216C11.1687 4.20163 11.3792 4.16924 11.5736 4.16924C12.3186 4.15305 13.0474 4.62239 13.3389 5.2859C13.6628 5.99796 13.5171 6.82328 13.3228 7.56771C13.0636 8.5387 12.7235 9.47735 12.3024 10.3836C12.1404 10.7235 11.9785 11.0633 11.9785 11.4355C11.9947 11.8077 12.2538 12.2123 12.6263 12.2123C12.8692 12.2123 13.0798 12.0667 13.2741 11.921C13.922 11.4355 14.6022 10.9338 14.9909 10.2218C15.1043 10.0114 15.2015 9.76864 15.3796 9.6068C15.6873 9.36406 16.157 9.3964 16.5133 9.54205C16.8858 9.70388 17.1936 9.96284 17.5499 10.1409C18.5864 10.6264 19.9469 10.2865 20.611 9.34786C20.8215 9.05656 20.9834 8.70053 21.3074 8.5387C21.858 8.27977 22.4573 8.71673 22.8945 9.12131C23.3588 9.55286 23.8177 9.979 24.2712 10.3998C24.6923 10.8043 25.1297 11.2089 25.3888 11.7106C26.0852 13.0376 25.5345 14.8178 26.4091 16.0315C26.8626 16.6465 27.6076 16.9863 28.1907 17.488C28.7575 17.9897 29.1786 18.8798 28.7413 19.5109Z" fill="#F1F1F1" stroke="#BABABA" stroke-width="1.18548" stroke-linecap="round" stroke-linejoin="round"/>
</svg>
