<svg width="51" height="33" viewBox="0 0 51 33" fill="none" xmlns="http://www.w3.org/2000/svg">
<path d="M49.923 23.1894C49.9014 23.1894 49.8744 23.1894 49.842 23.1894C49.1942 23.2704 48.4653 23.4484 47.947 23.06C47.7041 22.8658 47.5422 22.5907 47.3154 22.3803C47.0887 22.1699 46.7323 22.0404 46.4894 22.2346C46.2951 22.3964 46.2789 22.6716 46.1817 22.8981C45.6796 24.0471 43.6066 23.3027 42.8939 24.3223C42.3271 25.1476 43.1368 26.4261 42.5376 27.219C42.3432 27.478 42.0355 27.6236 41.7278 27.7693C40.8208 28.1792 39.9085 28.5892 38.9907 28.9992C38.6992 29.1287 38.4076 29.2743 38.2132 29.517C38.0837 29.6951 38.0027 29.9216 37.8893 30.1158C37.4196 31.0059 36.3346 31.3619 35.3628 31.6532C35.1199 31.718 34.8607 31.7989 34.6016 31.7827C34.2614 31.7503 33.9537 31.5885 33.646 31.4105C32.8146 30.9466 31.9832 30.4773 31.1518 30.0025C31.249 29.2797 31.2868 28.5515 31.2652 27.8178C31.249 27.3809 31.2166 26.9116 30.9737 26.5394C30.7307 26.151 30.3582 26.1186 29.8237 26.1024H29.0949C28.3499 26.1024 27.5563 25.9891 26.9085 25.6007C26.3578 25.2609 26.0177 24.6944 25.5966 24.209C25.1593 23.6911 24.641 23.2542 24.0579 22.8981C22.8433 22.1699 21.4342 21.8624 20.0576 21.5873C19.7769 21.5226 19.4961 21.4632 19.2154 21.4093C18.7457 21.3122 18.276 21.2151 17.8711 20.9562C17.2557 20.5516 16.9155 19.8233 16.3001 19.4187C15.6199 18.9818 14.6643 19.0303 14.0489 19.532C13.7735 19.7424 13.5629 20.0337 13.2714 20.2117C12.3158 20.8105 11.0526 20.0337 9.98365 20.325C9.38439 20.4868 8.93089 20.9399 8.50979 21.3769C7.97533 21.9271 7.42471 22.5097 7.10079 23.2056C6.95503 23.5131 6.84165 23.8529 6.61491 24.1119C6.30719 24.4517 5.78887 24.565 5.35158 24.4355C5.36777 24.1442 5.27058 23.8367 5.1734 23.5616C4.55796 21.8948 4.1855 20.1146 4.41224 18.3668C4.44463 18.205 4.47704 18.027 4.59041 17.8975C4.68759 17.8004 4.84952 17.7681 4.96289 17.6872C5.49735 17.3797 5.4002 16.5381 4.9791 16.085C4.558 15.6319 3.9587 15.4053 3.47282 15.0331C3.11651 14.758 2.82503 14.2887 3.03558 13.9165C3.18134 13.6413 3.52146 13.5119 3.68342 13.2529C3.89397 12.9131 3.68339 12.4438 3.32708 12.2819C2.97076 12.1201 2.5335 12.2334 2.22578 12.46C2.04762 12.6056 1.85326 12.7998 1.64271 12.7351C1.49694 12.6865 1.416 12.5732 1.35121 12.4438C1.0111 11.9097 0.670965 11.3595 0.606181 10.7284C0.541397 10.2105 0.703373 9.61174 1.10827 9.30425C1.3836 9.27189 1.57796 9.06151 1.67513 8.81876C2.17721 8.72166 2.67925 8.65691 3.18133 8.64073C3.63482 8.62455 4.12073 8.64073 4.50943 8.88348C4.70378 8.99676 4.86573 9.17477 5.06008 9.28806C5.75651 9.725 6.67965 9.40136 7.37607 8.94823C7.6676 8.75403 7.95918 8.54364 8.15353 8.25235C8.34788 7.96105 8.44501 7.58882 8.34783 7.24898C8.21827 6.86058 7.87815 6.60166 7.53803 6.39128C6.89019 5.95433 6.19381 5.54974 5.64315 4.98333C5.52978 4.85386 5.41636 4.7244 5.35158 4.57875C5.28679 4.41692 5.28681 4.23891 5.28681 4.0609C5.28681 3.45672 5.28681 2.84715 5.28681 2.23219C6.08041 2.36165 6.79303 2.71768 7.39229 3.2841C8.07252 3.91524 8.57461 4.70823 9.0281 5.5012C9.36821 6.09998 9.75693 6.76349 10.421 6.95769C10.6477 7.02242 10.8906 7.02241 11.1336 7.02241C11.4791 7.02241 11.83 7.01702 12.1863 7.00623C13.1365 7.00623 14.092 7.00623 15.053 7.00623C15.4903 7.00623 16.0571 6.89294 16.1219 6.456C16.1705 6.03523 15.6684 5.77631 15.4903 5.37173C15.3445 5.03188 15.4741 4.6273 15.6847 4.31982C16.0086 3.80196 16.543 3.39739 17.1584 3.23556C17.6605 3.08991 18.2112 3.08989 18.6647 2.81478C18.9562 2.62058 19.1668 2.32929 19.3935 2.038C19.9604 1.2612 20.7864 0.452036 21.7582 0.613868C22.7947 0.791883 23.3454 2.05418 24.3495 2.34548C24.6734 2.4264 25.0297 2.41021 25.3536 2.50731C26.2606 2.76624 26.7141 3.80196 26.7789 4.74058C26.8113 5.32318 26.7627 5.98668 27.2 6.37508C27.6049 6.74729 28.2366 6.69876 28.7224 6.97387C28.933 7.10334 29.1273 7.29753 29.3703 7.37845C29.8724 7.57265 30.3906 7.21662 30.8117 6.87678C31.2166 6.52075 31.6701 6.13233 32.2046 6.21325C32.7229 6.29417 33.0629 6.77968 33.2087 7.28136C33.3383 7.66975 33.3706 8.0905 33.5164 8.4789C33.8079 9.32042 34.229 10.1943 34.7635 10.9226C35.298 11.6508 35.9458 12.2819 36.6098 12.8807C36.9014 13.1289 37.1929 13.377 37.4844 13.6252C38.359 14.3696 39.2498 15.1302 40.2702 15.6804C41.1285 16.1497 42.0679 16.4734 42.8291 17.0883C43.2826 17.4606 43.6389 17.8975 44.0762 18.2859C44.6755 18.7876 45.3881 19.1598 46.1493 19.3378C46.5218 19.4187 46.8781 19.4673 47.2506 19.5158C47.9795 19.6453 48.7407 19.8395 49.2589 20.3735C49.7124 20.8429 49.923 21.4902 49.9715 22.1375C49.9877 22.4936 49.9716 22.8334 49.923 23.1894Z" fill="#F1F1F1" stroke="#BABABA" stroke-width="1.18548" stroke-linecap="round" stroke-linejoin="round"/>
</svg>
