<svg width="8" height="20" viewBox="0 0 8 20" fill="none" xmlns="http://www.w3.org/2000/svg">
<path d="M6.92166 18.281C6.61933 18.3565 6.31158 18.4374 5.99846 18.5238C5.73932 18.6047 5.48017 18.6694 5.25342 18.7989C4.63798 18.0706 3.69863 17.6175 2.96981 16.9864C2.74307 16.7922 2.51633 16.5656 2.40295 16.2905C2.06284 15.5622 2.41915 14.7207 2.64589 13.9601C2.90503 13.0215 2.96981 12.0181 2.80785 11.0633C2.74307 10.7234 2.66209 10.3836 2.48393 10.1085C2.16001 9.60682 1.56076 9.31551 1.26923 8.79764C1.17206 8.61963 1.12347 8.40927 1.10727 8.21507C1.09108 7.5192 1.57696 6.93658 1.99805 6.37017C2.41915 5.81994 2.80784 5.10788 2.5487 4.47674C2.25717 3.73231 1.30161 3.50575 0.848122 2.85842C0.556594 2.43766 0.540422 1.87125 0.66999 1.36957C0.734774 1.09446 0.84813 0.835521 0.977698 0.592773C1.01009 0.603562 1.03708 0.619753 1.05868 0.641331C1.80369 1.06209 2.71065 1.06209 3.55285 1.04591C3.7472 1.04591 3.95776 1.04589 4.13592 0.981154C4.16831 1.321 4.13591 1.66087 3.92536 1.93599C3.79579 2.09782 3.60144 2.22728 3.52046 2.42148C3.42329 2.68041 3.53665 2.97169 3.71481 3.16589C3.90916 3.36008 4.15213 3.48956 4.39507 3.61902C4.92954 3.91032 5.48022 4.36347 5.545 4.97843C5.60978 5.46393 5.3506 6.07888 5.7393 6.41872C5.98224 6.6291 6.40336 6.61292 6.56532 6.90422C6.6139 7.00132 6.61387 7.13078 6.61387 7.26024C6.60308 7.91836 6.59233 8.58188 6.58153 9.25078C6.56533 9.54208 6.56533 9.84954 6.50055 10.1247C6.43576 10.3674 6.33856 10.594 6.30616 10.8205C6.20899 11.3384 6.41952 11.8563 6.45191 12.3903C6.45191 12.5845 6.45194 12.7949 6.48434 12.9891C6.56532 13.3937 6.82447 13.7335 6.82447 14.1381C6.82447 14.7045 6.29 15.1738 6.25761 15.7403C6.24141 16.1125 6.41955 16.4361 6.56532 16.7598C6.77586 17.2453 6.88927 17.7631 6.92166 18.281Z" fill="#F1F1F1" stroke="#BABABA" stroke-width="1.18548" stroke-linecap="round" stroke-linejoin="round"/>
</svg>
