<svg width="13" height="8" viewBox="0 0 13 8" fill="none" xmlns="http://www.w3.org/2000/svg">
<path d="M12.3887 6.09535C12.3887 6.12772 12.3887 6.17626 12.3563 6.20863C12.3239 6.25718 12.2591 6.25718 12.1944 6.25718C10.6071 6.26797 9.01996 6.27875 7.43275 6.28954C7.20601 6.28954 6.9631 6.28956 6.73635 6.22483C6.47722 6.16009 6.23425 6.03064 5.97511 5.99828C5.71597 5.94973 5.44066 6.01444 5.18152 6.09535C5.03576 6.1439 4.88999 6.19247 4.77662 6.27338C4.69564 6.3543 4.63089 6.45139 4.56611 6.54849C4.44734 6.7319 4.32312 6.9207 4.19355 7.1149C4.08018 6.96925 3.9182 6.85598 3.77244 6.75888C3.43232 6.56468 3.05985 6.40284 2.67114 6.30574C2.08809 6.14391 1.40787 6.11154 0.986776 5.65841C0.56568 5.20528 0.565633 4.50942 0.614221 3.89446C0.65741 3.22556 0.695232 2.56204 0.727624 1.90392C0.781611 1.90392 0.835597 1.90929 0.889584 1.92008C1.26209 1.96863 1.63458 2.04955 2.00709 1.96864C2.68732 1.82299 3.15699 1.20802 3.77244 0.868173C4.50126 0.463593 5.45684 0.512158 6.13707 0.965288C6.39621 1.12712 6.60677 1.33752 6.8821 1.46698C7.95104 1.96866 9.48967 0.981471 10.2995 1.85536C10.4614 2.03338 10.5586 2.24374 10.7206 2.40558C10.7098 2.51346 10.699 2.62135 10.6882 2.72924C10.672 3.00435 10.672 3.29565 10.8016 3.5384C10.8987 3.7326 11.0606 3.87826 11.2226 4.04009C11.8218 4.59032 12.3563 5.28619 12.3887 6.09535Z" fill="#F1F1F1" stroke="#BABABA" stroke-width="1.18548" stroke-linecap="round" stroke-linejoin="round"/>
</svg>
