<svg width="61" height="72" viewBox="0 0 61 72" fill="none" xmlns="http://www.w3.org/2000/svg">
<path d="M59.5401 19.2682C59.1514 19.9317 58.536 20.4657 57.8881 20.8703C56.9973 21.4205 56.0094 21.7928 55.07 22.2782C54.5518 22.5695 54.0011 22.9418 53.8229 23.5082C53.7257 23.7995 53.7419 24.107 53.7257 24.4145C53.6285 25.8871 52.7216 27.1656 52.2681 28.5573C51.7984 29.9976 51.8146 31.535 51.7336 33.0563C51.7228 33.2613 51.712 33.4608 51.7012 33.655C51.5878 35.1601 51.3125 36.649 50.8914 38.0893C50.8428 38.2349 50.7943 38.3805 50.6809 38.4776C50.4704 38.6395 50.195 38.5586 49.9359 38.5748C49.4176 38.5909 48.9803 39.0279 48.7374 39.4972C48.4944 39.9665 48.381 40.4843 48.1381 40.9698C47.6522 41.957 46.6643 42.6853 46.4375 43.7534C46.3403 44.2227 46.4051 44.7243 46.3565 45.1937C46.2918 45.663 46.0812 46.1808 45.6439 46.3588C45.2066 46.553 44.575 46.1808 44.6722 45.7115C44.0891 45.9381 43.7491 46.5692 43.6681 47.2004C43.5871 47.8153 43.7004 48.4465 43.7652 49.0614C43.8786 50.3237 43.7328 51.6022 43.3603 52.816C43.2145 53.3015 43.004 53.8031 42.5829 54.0944C42.1618 54.3857 41.5788 54.2239 41.2225 53.9164L41.0605 53.7222C40.9309 53.5927 40.7204 53.6251 40.6232 53.7708C40.445 54.0459 40.1697 54.2724 39.9753 54.5476C39.7324 54.9036 39.6028 55.3243 39.4895 55.7451C39.4571 55.8907 39.4085 56.0364 39.4409 56.182C39.4733 56.3924 39.6514 56.5543 39.8458 56.6514C40.4613 56.9588 41.2548 56.6675 41.8541 56.975C42.2428 57.1692 42.4857 57.5414 42.7449 57.8651C43.3441 58.6257 44.1539 59.1921 44.8828 59.8232C45.5954 60.4706 46.2756 61.2474 46.4699 62.186C46.5671 62.6877 46.5185 63.2218 46.7614 63.6587C47.0044 64.128 47.4903 64.4193 48.0086 64.5811C48.3001 64.6944 48.624 64.7591 48.8993 64.9048C49.1909 65.0504 49.45 65.2932 49.4986 65.6168C49.5472 65.8758 49.45 66.1509 49.3852 66.426C49.2395 66.8629 49.1747 67.3323 49.1747 67.8016C49.0775 67.7584 48.9803 67.7152 48.8831 67.6721C48.6888 67.5912 48.4783 67.4779 48.3487 67.2999C48.2515 67.1704 48.2029 67.0248 48.1058 66.8953C47.8952 66.604 47.5227 66.5231 47.1826 66.5069C46.7453 66.4907 46.3404 66.604 45.9193 66.6849C45.6926 66.7335 45.482 66.7658 45.2552 66.8306C44.494 67.1057 43.7652 67.6397 43.4251 68.4003C43.4251 68.4111 43.4197 68.422 43.4089 68.4327C43.3603 68.5622 43.3117 68.6916 43.2307 68.8049C43.004 69.0639 42.5991 69.1124 42.4047 69.3875C42.2266 69.6303 42.2752 69.9863 42.097 70.229C41.9351 70.4394 41.6435 70.5042 41.3682 70.5527C41.0281 70.6013 40.6394 70.6498 40.3317 70.4556C40.1535 70.3424 40.0239 70.132 39.8134 70.0511C39.3599 69.873 38.9226 70.3585 38.4367 70.4394C38.1938 70.488 37.9185 70.4233 37.7241 70.5689C37.546 70.7146 37.5136 70.9735 37.3516 71.1515C37.1411 71.378 36.7685 71.3619 36.477 71.2486C36.2017 71.1191 35.9587 70.9087 35.6672 70.7955C35.1813 70.6013 34.6307 70.666 34.1124 70.7469C33.5726 70.8224 33.0273 70.898 32.4766 70.9735C32.3147 70.9951 32.1527 71.0166 31.9907 71.0382C31.8774 71.0544 31.7478 71.0706 31.6344 71.0382C31.3753 70.9573 31.2781 70.666 31.1 70.4556C30.7113 69.9701 29.9338 70.0025 29.4479 69.6141C29.0754 69.3228 28.9135 68.8535 28.6868 68.4327C28.46 68.0282 28.1037 67.6074 27.634 67.6074C27.0186 67.6074 26.5489 68.3356 25.9335 68.2547C25.4638 68.2062 25.0426 67.6883 24.6054 67.8825C24.492 67.931 24.411 68.0282 24.33 68.1091C23.7793 68.6108 22.9534 68.7887 22.2569 68.5298C21.8844 68.3842 21.512 68.19 21.2366 67.8987C21.0855 67.7476 20.9558 67.5804 20.8479 67.397C20.7345 67.2028 20.6697 66.9924 20.5564 66.7982C20.4592 66.604 20.362 66.426 20.2972 66.2318C20.119 65.7787 19.9247 65.3256 19.698 64.9048C19.3903 64.2737 18.9853 63.7072 18.4509 63.2379C17.6411 62.542 16.4426 62.0404 16.2644 60.9723C16.2158 60.7133 16.2482 60.4382 16.1834 60.1793C15.9891 59.3702 15.0821 58.9817 14.3047 58.7066C13.5273 58.4315 12.6204 58.0107 12.4908 57.2016C12.426 56.8456 12.5232 56.4733 12.3936 56.1497C12.3126 55.9393 12.1344 55.7613 11.9725 55.6156C11.4704 55.1949 10.855 54.8874 10.2233 54.7417C9.75366 54.6285 9.21918 54.5799 8.91145 54.2077C8.60373 53.8193 8.65227 53.2367 8.29596 52.913C7.77769 52.4437 6.83833 52.8321 6.36865 52.3305C6.14191 52.0877 6.10956 51.7155 6.17435 51.3918C6.25533 51.0682 6.40103 50.7607 6.5144 50.437C6.66016 49.9191 6.69257 49.3527 6.61159 48.8187C6.54681 48.3494 6.41724 47.7668 6.04473 47.4431C5.68842 47.1194 5.29976 46.8281 4.95965 46.4721C4.55475 46.0675 4.21457 45.5982 4.00402 45.0642C3.98243 45.021 3.96626 44.9833 3.95546 44.9509C3.92307 44.87 3.92304 44.7891 3.92304 44.7082C3.95543 44.5463 4.10121 44.4169 4.18219 44.255C4.34415 43.9799 4.27935 43.6077 4.085 43.3488C3.90684 43.0737 3.61535 42.9118 3.30762 42.7824C3.09708 42.7015 2.85415 42.6205 2.75698 42.4263C2.676 42.2969 2.69221 42.135 2.69221 41.9894C2.7084 41.2773 2.59498 40.5653 2.48161 39.8532C2.41683 39.4001 2.31968 38.8984 1.94718 38.6395C1.52608 38.3644 0.829637 38.4291 0.635285 37.9598C0.521913 37.7009 0.651513 37.3772 0.829669 37.1506C1.02402 36.9241 1.25076 36.746 1.39653 36.4871C1.63947 36.034 1.55849 35.4999 1.55849 34.9821C1.55849 34.9713 1.55849 34.9551 1.55849 34.9335C1.55849 34.912 1.55849 34.8904 1.55849 34.8688C1.55849 34.8472 1.56382 34.8202 1.57462 34.7879C1.57462 34.7663 1.57462 34.7447 1.57462 34.7231C1.58542 34.6045 1.61241 34.4912 1.6556 34.3833C1.6664 34.3617 1.67181 34.3401 1.67181 34.3186C1.68261 34.2862 1.69885 34.2538 1.72045 34.2215C1.73125 34.1891 1.742 34.1621 1.75279 34.1405C1.75279 34.1405 1.75821 34.1352 1.769 34.1244C1.7798 34.1028 1.79063 34.0812 1.80143 34.0596C1.82302 34.038 1.8446 34.0111 1.8662 33.9787C1.87699 33.9571 1.89316 33.9356 1.91475 33.914C1.95794 33.8816 2.00118 33.8492 2.04437 33.8169C2.05517 33.8061 2.06592 33.8007 2.07671 33.8007C2.1307 33.7683 2.18469 33.7467 2.23867 33.736C2.24947 33.736 2.26571 33.7306 2.28731 33.7198C2.36289 33.709 2.45462 33.7036 2.56259 33.7036C2.72455 33.7198 2.88651 33.6712 2.96749 33.5256C2.98909 33.4932 3.00533 33.4662 3.01613 33.4446C3.01613 33.4339 3.01613 33.4285 3.01613 33.4285C3.01613 33.4177 3.02146 33.4015 3.03226 33.3799C3.03226 33.3799 3.03226 33.3745 3.03226 33.3637C3.03226 33.3314 3.02693 33.3044 3.01613 33.2828C3.01613 33.272 3.01613 33.2612 3.01613 33.2505C3.01613 33.2397 3.01071 33.2235 2.99992 33.2019C2.98912 33.1911 2.97829 33.175 2.96749 33.1534C2.9459 33.121 2.9189 33.0886 2.88651 33.0563C2.84332 33.0131 2.80017 32.9754 2.75698 32.943C2.73538 32.9106 2.70839 32.8837 2.676 32.8621C2.61121 32.7812 2.56258 32.7164 2.54638 32.6193C2.53018 32.506 2.57877 32.3927 2.62736 32.2795C2.90269 31.6321 3.21042 30.9525 3.76108 30.4832C3.89065 30.3861 4.03644 30.2889 4.11742 30.1433C4.31178 29.8682 4.23081 29.496 4.21462 29.1399C4.19842 28.8001 4.34417 28.3793 4.68428 28.3308C4.83005 28.3146 4.97584 28.3793 5.12161 28.3955C5.5589 28.4441 5.93139 28.1689 6.32009 27.9909C6.59543 27.8453 6.88692 27.7644 7.17845 27.732C7.61574 27.6673 7.92348 27.2789 7.92348 26.8581V12.2285H11.5676V4.63857H40.5099C40.6934 4.90829 40.8769 5.17264 41.0605 5.43157C41.2387 5.70669 41.4168 5.9656 41.6921 6.14362C41.9513 6.32163 42.3238 6.37017 42.5829 6.17597C42.842 5.99796 42.9068 5.62577 43.085 5.35066C43.2308 5.10791 43.4899 4.92988 43.7328 4.76804C44.0028 4.58463 44.2727 4.41743 44.5426 4.26639C44.9151 4.05601 45.3038 3.86181 45.6439 3.61906C45.984 3.36013 46.2756 3.05265 46.4375 2.64807C46.5509 2.37296 46.6319 2.00074 46.9396 1.91983C47.0206 1.90364 47.1016 1.90364 47.1826 1.91983C47.4093 1.91983 47.636 1.93599 47.8304 1.85507C48.0247 1.77415 48.1867 1.61232 48.3163 1.45049C48.5592 1.17538 48.8183 0.884071 49.0451 0.592773C49.288 1.0459 49.7415 1.41815 50.1626 1.75799C50.9076 2.34059 51.6527 2.92315 52.3977 3.50575C53.0131 3.97506 53.6609 4.52529 53.8067 5.2859C53.9039 5.73903 53.8067 6.22453 54.0011 6.62911C54.2602 7.13079 54.908 7.37356 55.1186 7.90761C55.1996 8.10181 55.1996 8.32835 55.1996 8.53874C55.1888 9.17527 55.151 9.80104 55.0862 10.416C54.6651 11.743 54.5679 13.1509 54.7947 14.5103C54.8918 14.9796 55.0052 15.449 55.2968 15.8212C55.4749 16.0477 55.7016 16.2257 55.9284 16.4199C56.9109 17.1859 57.8881 17.9519 58.8599 18.7179C59.1028 18.896 59.3296 19.0902 59.5401 19.2682Z" fill="#F1F1F1" stroke="#BABABA" stroke-width="1.18548" stroke-linecap="round" stroke-linejoin="round"/>
</svg>
