<svg width="8" height="8" viewBox="0 0 8 8" fill="none" xmlns="http://www.w3.org/2000/svg">
<path d="M7.14168 2.34057C7.12548 2.61568 6.88254 2.80988 6.6558 2.98789C6.33188 3.22525 6.00796 3.46262 5.68404 3.69998C5.39251 3.92654 5.06858 4.25021 5.18195 4.59005C5.29532 4.91372 5.70021 4.96225 6.05652 4.97843C5.86217 5.31828 5.52207 5.60959 5.42489 5.99798C5.06858 5.99798 4.72849 6.01417 4.40457 6.15982C4.09685 6.2731 3.85391 6.49965 3.59477 6.67767C3.18987 6.95278 2.72014 7.09842 2.25046 7.14697C2.1047 7.14697 1.95892 7.14697 1.82935 7.11461C1.71598 7.09842 1.6026 7.03371 1.50543 6.96898C0.987156 6.64531 0.647104 6.07889 0.598516 5.46393C0.549928 4.86515 0.809016 4.23401 1.2787 3.84561C1.42446 3.73233 1.58647 3.61903 1.73224 3.50575C2.05616 3.24682 2.29909 2.92316 2.54203 2.58331C2.70399 2.35675 2.8821 2.11403 2.97928 1.83891C3.00087 1.78497 3.01712 1.72561 3.02791 1.66088C3.20607 1.79035 3.38421 1.87125 3.57856 1.88743C3.95107 1.90361 4.29114 1.66088 4.58267 1.41813C4.91738 1.14841 5.25755 0.873282 5.60306 0.592773C5.97017 0.938015 6.34266 1.27787 6.72057 1.61232C6.93112 1.80652 7.15788 2.04927 7.14168 2.34057Z" fill="#F1F1F1" stroke="#BABABA" stroke-width="1.18548" stroke-linecap="round" stroke-linejoin="round"/>
</svg>
