<svg width="12" height="16" viewBox="0 0 12 16" fill="none" xmlns="http://www.w3.org/2000/svg">
<path d="M10.4075 10.2809C9.69488 10.3132 9.29001 9.2775 8.57739 9.29368C8.22107 9.30986 7.91335 9.60116 7.76759 9.94101C7.62182 10.2647 7.5894 10.6369 7.49222 10.9767C7.07113 12.3847 5.67825 13.4042 5.20857 14.7151C5.04661 14.5964 4.91706 14.4453 4.81988 14.2619C4.64173 13.9706 4.59314 13.6308 4.57694 13.2909C4.47977 11.4784 5.46775 9.60115 4.85231 7.90191C4.26925 6.33214 2.55244 5.49062 1.66166 4.08268C1.41872 3.6781 1.24054 3.24115 1.06238 2.80421C0.884224 2.36726 0.706084 1.91414 0.592712 1.46101C0.679091 1.43944 0.7709 1.41785 0.868076 1.39628C1.66168 1.13735 2.40668 0.376739 3.20028 0.651853C3.78334 0.862235 4.0587 1.54192 4.60937 1.83321C4.8847 1.99505 5.20856 2.02742 5.51628 2.05978C6.71478 2.20543 8.09144 2.56146 8.59352 3.6781C8.94983 4.48726 8.72312 5.52298 9.1928 6.28359C9.50053 6.73672 10.0026 7.01184 10.3913 7.40024C10.7962 7.80482 11.0716 8.32267 11.1687 8.8729C11.2821 9.47168 11.0068 10.2647 10.4075 10.2809Z" fill="#F1F1F1" stroke="#BABABA" stroke-width="1.18548" stroke-linecap="round" stroke-linejoin="round"/>
</svg>
