<svg width="18" height="18" viewBox="0 0 18 18" fill="none" xmlns="http://www.w3.org/2000/svg">
<path d="M16.714 9.32966C16.6816 8.96284 16.6492 8.60138 16.6168 8.24535C16.5682 7.56566 16.5196 6.86981 16.2119 6.25485C16.0823 5.97974 15.9203 5.73699 15.8555 5.44569C15.8069 5.13821 15.8879 4.81452 15.8717 4.49086C15.8394 3.53605 15.0134 2.824 14.6733 1.95011C14.5275 1.56171 14.4789 1.12476 14.1712 0.817282C14.0092 0.639267 13.7825 0.558343 13.5558 0.606893C13.0537 0.752541 13.0374 1.44843 13.1184 1.86919C13.1508 2.07957 13.1347 2.30612 13.0699 2.50032C12.8431 3.08291 12.3248 2.96964 11.8875 3.03437C11.2559 3.14765 10.7538 3.61699 10.3975 4.15104C10.0412 4.6689 9.76589 5.25146 9.34479 5.73696C9.06946 6.06062 8.71313 6.33574 8.27584 6.43284C7.85475 6.51376 7.36885 6.38429 7.12591 6.02826C6.83438 5.59132 6.88299 4.89543 6.4133 4.68505C5.91123 4.4423 5.34437 5.0411 5.1986 5.51041C5.06904 5.86644 4.84226 6.19009 4.51834 6.38428C3.4818 6.99925 3.40086 6.19012 1.97562 6.82126C1.78126 6.95073 1.61924 7.11256 1.50587 7.30676C1.26293 7.7437 1.23054 8.26155 1.18195 8.74705C1.13336 9.24873 1.06859 9.7666 0.793262 10.1712C0.67989 10.3492 0.51793 10.5596 0.631302 10.7376C0.67989 10.8023 0.77705 10.8509 0.85803 10.8671C1.44109 11.0127 1.94316 10.4625 2.23469 9.94459C2.54241 9.42673 2.83399 8.81178 3.41704 8.66613C3.78955 8.56903 4.17822 8.69849 4.51834 8.86032C4.85846 9.00597 5.19859 9.20018 5.58729 9.23254C5.9598 9.24873 6.39711 9.0707 6.49428 8.69849C6.54287 8.52047 6.5105 8.32627 6.59148 8.16444C6.68865 7.98642 6.93158 7.95408 7.14212 7.98644C7.33648 8.00263 7.4984 8.19682 7.67656 8.34247C7.98428 8.58522 8.17862 8.69851 8.30819 9.08691C8.42156 9.47531 8.47016 9.81513 8.24342 10.155C8.01668 10.511 7.74133 10.8347 7.66035 11.2392C7.48219 12.016 8.03292 12.7605 8.61597 13.3107C9.11805 13.7962 9.68488 14.2493 10.2841 14.6539C11.0777 15.1718 11.9523 15.6411 12.4544 16.4503C12.5516 16.6283 12.7136 16.8548 12.9079 16.7739C12.9565 16.7577 13.0051 16.7254 13.0374 16.693C13.6367 16.1428 13.8472 15.2689 13.8148 14.4597C13.7986 13.5211 13.5233 12.5987 13.4586 11.6762C13.4424 11.4173 13.5395 11.1422 13.7501 10.9803C13.8472 10.8994 13.9606 10.8671 14.0578 10.8671C14.3169 10.8509 14.5761 11.0451 14.738 11.2554C15.0458 11.6277 15.2239 12.097 15.4668 12.5015C15.645 12.7767 16.0823 12.7119 16.1632 12.3883L16.5681 10.9318C16.6329 10.6728 16.6977 10.4139 16.7301 10.1388C16.7463 9.8637 16.7302 9.60477 16.714 9.32966Z" fill="#F1F1F1" stroke="#BABABA" stroke-width="1.18548" stroke-linecap="round" stroke-linejoin="round"/>
</svg>
