<svg width="36" height="30" viewBox="0 0 36 30" fill="none" xmlns="http://www.w3.org/2000/svg">
<path d="M33.3223 22.9944C32.3181 23.7064 31.1034 24.3052 30.6175 25.4542C30.4717 25.8102 30.3583 26.1986 30.3583 26.6032C30.3421 27.0725 30.3745 27.4771 30.1154 27.8979C29.9858 28.1244 29.8401 28.3186 29.6782 28.529C28.9169 27.7846 28.0099 27.1858 27.0382 26.7812C26.5685 26.5708 26.0503 26.4252 25.5644 26.5547C25.37 26.6194 25.208 26.7003 25.0137 26.7812C24.5278 26.9592 23.9609 26.943 23.475 26.7327C23.2807 26.6517 23.1026 26.5385 22.8921 26.4899C22.4548 26.3766 22.0336 26.5708 21.6125 26.7165C20.8513 26.9431 19.9282 26.9592 19.3937 26.3766C19.3127 26.2795 19.2317 26.1663 19.1183 26.1015C18.762 25.875 18.3247 26.1663 17.9036 26.2633C17.3692 26.3928 16.8185 26.1824 16.3165 25.9235C16.2301 25.8804 16.1437 25.8372 16.0573 25.7941C16.0681 25.7725 16.0735 25.7509 16.0735 25.7293C16.2031 25.26 15.9439 24.7421 15.5552 24.4347C15.1665 24.1272 14.6644 23.9977 14.1623 23.9492C13.887 23.9168 13.6117 23.9006 13.3526 23.8035C12.5266 23.496 12.0569 22.3956 11.1661 22.3794C10.8584 22.3794 10.5668 22.5089 10.2753 22.5898C9.72465 22.7354 9.12546 22.7192 8.63958 22.4279C8.33186 22.2499 8.10511 21.9748 7.82978 21.7483C6.76084 20.8096 5.30316 20.4536 3.89411 20.2432C3.63497 20.1947 3.35965 20.1623 3.10052 20.0814C3.10052 19.5797 3.18153 19.0618 3.13294 18.544C3.10055 17.8966 2.77661 17.1846 2.14497 17.0066C2.08019 16.9904 1.99917 16.9742 1.95059 16.9257C1.8858 16.8771 1.86961 16.78 1.86961 16.6991C1.85341 16.424 1.88582 16.1489 1.9668 15.8737C2.08017 15.4692 2.30695 15.0808 2.40412 14.66C2.4851 14.2231 2.3555 13.7052 1.9668 13.5272C1.88582 13.4948 1.80485 13.4786 1.74007 13.4139C1.64289 13.3168 1.65909 13.1712 1.65909 13.0255C1.70768 12.3458 1.67525 11.5367 1.14079 11.0997C1.02742 10.9864 0.865439 10.9055 0.800655 10.7599C0.719675 10.6142 0.735903 10.4524 0.752099 10.2905C0.816883 9.74032 0.881699 9.1901 0.946483 8.63987C0.962679 8.49422 0.978875 8.33238 0.946483 8.18673C0.897895 8.05727 0.816883 7.92779 0.752099 7.81451C0.557747 7.4423 0.590155 7.00536 0.606351 6.58459C0.64954 5.94805 0.687284 5.30612 0.719675 4.65879C1.12458 4.67497 1.52954 4.59407 1.91824 4.52934C2.54449 4.42145 3.16533 4.31356 3.78078 4.20567C4.94689 3.99529 6.14535 3.78491 7.1333 3.13759C7.91071 2.65209 8.54236 1.90766 9.40074 1.60018C9.95141 1.40598 10.583 1.38979 11.0851 1.09849C11.2795 0.985206 11.4576 0.823382 11.6682 0.742466C11.8949 0.645367 12.1379 0.629192 12.3647 0.629192C13.0773 0.596825 13.7737 0.548264 14.4701 0.677729C15.1666 0.791012 15.8468 1.0985 16.3165 1.61636C16.6728 2.02094 16.8995 2.55498 17.3692 2.79772C17.9685 3.1052 18.6811 2.84627 19.2965 2.55498C19.4423 2.47406 19.6042 2.39316 19.6852 2.24751C19.8148 2.05331 19.7662 1.81055 19.75 1.58398C19.75 1.53004 19.7554 1.47071 19.7662 1.40597C19.9443 1.69727 20.2359 1.94001 20.5112 2.1504C20.8135 2.37696 21.1159 2.60893 21.4182 2.84628C21.7907 3.13758 22.2118 3.44505 22.6977 3.42887C23.0864 3.41269 23.4589 3.16995 23.8638 3.15377C24.2201 3.13758 24.544 3.31559 24.8841 3.41269C26.2608 3.80109 27.6698 2.97575 29.0789 2.89484C29.4838 2.87865 29.8725 2.91102 30.2612 2.97575C30.5312 3.01891 30.8011 3.06744 31.071 3.12139C31.5569 3.21849 32.0752 3.3156 32.5125 3.54217C32.9659 3.78491 33.3385 4.20567 33.4194 4.69117C33.441 4.83142 33.441 4.96628 33.4194 5.09575C33.3709 5.30613 33.2737 5.50032 33.0955 5.62978C32.9984 5.69451 32.8688 5.75925 32.8202 5.85635C32.723 6.03437 32.8526 6.24475 32.9821 6.42276C33.7433 7.42612 34.2454 8.62368 34.4398 9.86979C34.456 10.0316 34.4884 10.2096 34.4398 10.3715C34.3912 10.5333 34.294 10.6789 34.1806 10.8084C33.8891 11.213 33.5814 11.6176 33.1603 11.8927C32.9012 12.0545 32.6096 12.184 32.3667 12.3782C32.1238 12.5886 31.9456 12.9122 32.0428 13.2035C32.1724 13.6728 32.7878 13.7538 33.1279 14.0774C33.468 14.3849 33.5328 14.9351 33.2898 15.3235C33.225 15.4368 33.1279 15.5339 33.0631 15.6472C32.9011 15.987 33.0307 16.3916 33.2898 16.6667C33.3762 16.7423 33.468 16.8124 33.5652 16.8771C33.387 17.3626 33.6137 17.9614 33.9215 18.3983C34.294 18.9 34.7799 19.3531 34.9581 19.9357C35.3306 21.1333 34.3426 22.2985 33.3223 22.9944Z" fill="#F1F1F1" stroke="#BABABA" stroke-width="1.18548" stroke-linecap="round" stroke-linejoin="round"/>
</svg>
