<svg width="25" height="22" viewBox="0 0 25 22" fill="none" xmlns="http://www.w3.org/2000/svg">
<path d="M24.1741 20.0288C23.8286 20.3093 23.4884 20.5844 23.1537 20.8541C22.8622 21.0969 22.5221 21.3396 22.1496 21.3234C21.9552 21.3072 21.7771 21.2263 21.5989 21.0969C21.4856 21.016 21.3722 20.9189 21.2588 20.8218C20.53 20.1583 19.8012 19.4786 19.2181 18.6856C18.878 18.2001 18.5864 17.666 18.1492 17.2453C17.7443 16.873 17.2584 16.6303 16.8373 16.2905C16.1732 15.7402 15.7036 14.9634 14.9909 14.4618C14.0192 13.7821 12.7559 13.7659 11.5574 13.7659C10.7476 13.7659 9.93242 13.7659 9.11182 13.7659C8.35061 13.7659 7.49217 13.7335 6.95771 13.1833C6.61759 12.8435 6.32609 12.2932 5.85641 12.3579C5.4839 12.4065 5.30576 12.8434 5.30576 13.1995C5.30576 13.5717 5.43535 13.9439 5.40295 14.2999C5.37056 14.6721 5.079 15.0605 4.72269 15.012C4.2854 14.9311 4.17206 14.3323 3.78335 14.0895C3.52422 13.9277 3.2003 13.9763 2.89258 14.0248C2.12596 14.1435 1.35932 14.2622 0.592712 14.3808C0.673692 12.8596 0.657465 11.3222 1.12715 9.88191C1.58064 8.49016 2.48761 7.21171 2.58479 5.73904C2.60098 5.43156 2.5848 5.12406 2.68198 4.83276C2.86014 4.26635 3.41083 3.89412 3.9291 3.60282C4.86847 3.11733 5.85641 2.74512 6.74719 2.19489C7.39503 1.79031 8.01051 1.25628 8.39921 0.592773C8.65835 0.819338 8.90127 1.06206 9.11182 1.33718C9.66248 2.0816 9.92162 3.00405 10.1646 3.89413C10.1754 3.93728 10.1861 3.97504 10.1969 4.0074C10.3103 4.44435 10.3589 4.89751 10.2941 5.33446C10.1969 5.83614 10.4075 6.37017 10.4398 6.90422C10.456 7.19552 10.4236 7.48682 10.5208 7.76194C10.6018 7.9885 10.7476 8.18269 10.8934 8.36071C11.714 9.36406 12.5292 10.3674 13.339 11.3708C13.42 11.484 13.5009 11.5811 13.6143 11.6621C14.084 12.0019 14.7642 11.6944 15.3149 11.8563C15.655 11.9534 15.9142 12.2123 16.1733 12.4551C18.2788 14.478 20.9835 15.983 22.4573 18.4752C23.0296 18.9931 23.6018 19.5109 24.1741 20.0288Z" fill="#F1F1F1" stroke="#BABABA" stroke-width="1.18548" stroke-linecap="round" stroke-linejoin="round"/>
</svg>
