<svg width="46" height="34" viewBox="0 0 46 34" fill="none" xmlns="http://www.w3.org/2000/svg">
<path d="M44.7533 7.2669C44.6399 7.57438 44.2836 7.68767 43.9921 7.81714C43.7005 7.9466 43.3928 8.18934 43.4414 8.49682C43.4414 8.59392 43.49 8.67483 43.5224 8.75575C43.6358 9.06323 43.6196 9.41926 43.4576 9.72674C43.3119 10.018 42.9555 10.3579 42.6316 10.4388C41.8704 10.7787 41.0282 11.2318 40.2832 11.5716C40.0726 11.6687 39.8621 11.7658 39.6354 11.8144C39.3114 11.8953 38.9875 11.8791 38.6636 11.8953C38.3235 11.9115 37.9833 11.96 37.6756 12.1057C37.3841 12.2675 37.125 12.5426 37.0764 12.8825C37.0602 13.0119 37.0602 13.1414 37.0278 13.2547C36.9792 13.4812 36.8173 13.6592 36.6391 13.8049C36.299 14.08 35.8941 14.2581 35.5054 14.4846C35.1167 14.695 34.7442 14.9539 34.5336 15.3423C34.404 15.585 34.3393 15.8764 34.1611 16.0867C34.0315 16.2324 33.8696 16.3295 33.7238 16.459C33.5942 16.5722 33.4809 16.7179 33.4809 16.8797C33.2649 17.3113 33.049 17.7482 32.833 18.1906C32.6549 18.5628 32.4605 18.9512 32.4119 19.3881C32.3309 20.0031 32.5901 20.6504 33.0598 21.055C33.3189 21.2815 33.659 21.4596 33.7562 21.7994C33.8858 22.2525 33.4647 22.6733 33.0436 22.916C32.8061 23.0455 32.5631 23.1534 32.3148 23.2397C32.0556 23.3368 31.7641 23.4177 31.6021 23.6443C31.5211 23.7738 31.4726 23.9356 31.4078 24.0651C31.2458 24.4049 30.9219 24.6315 30.8409 24.9875C30.7437 25.3921 31.0029 25.8614 30.7762 26.2012C30.5656 26.5249 30.0797 26.4925 29.691 26.4925C29.1728 26.4925 28.6545 26.622 28.201 26.8486C27.9094 26.9942 27.6179 27.2046 27.5207 27.5121C27.456 27.6901 27.456 27.8681 27.3912 28.0299C27.294 28.2889 27.0511 28.4507 26.8729 28.6611C26.3222 29.2599 26.1603 30.2309 25.4315 30.5383C24.9132 30.7649 24.2978 30.5869 23.8443 31.0238C23.4232 31.2019 22.9373 31.2504 22.5324 31.0238C22.338 30.9267 22.1923 30.7487 21.9979 30.6193C21.1395 29.9881 19.941 30.247 18.9207 30.5383C18.2729 30.7325 17.6196 30.9213 16.961 31.1048C16.7018 31.1857 16.4265 31.2666 16.1998 31.4446C15.8758 31.7197 15.7301 32.1567 15.4547 32.4803C14.9365 33.0629 14.0781 33.1276 13.3169 33.1115C12.7338 33.1115 12.0698 33.0306 11.7297 32.5612C11.5677 32.3185 11.5029 32.0272 11.4381 31.7521C11.098 30.5383 10.2882 29.4864 9.2031 28.8715C8.70103 28.5964 8.10177 28.4021 7.53491 28.5316C7.38914 28.564 7.24336 28.6287 7.11379 28.6934C7.01662 28.2942 6.92485 27.8951 6.83847 27.4959C6.7251 26.8971 6.6603 26.2012 7.0652 25.7643C7.32433 25.5054 7.72927 25.3597 7.82644 25.0037C7.93981 24.6315 7.61589 24.2754 7.42154 23.9194C7.14621 23.3692 7.22718 22.6733 7.61589 22.1878C7.77785 22.0098 7.98839 21.848 8.10177 21.6214C8.34471 21.0712 7.85881 20.4886 7.43771 20.0516C7.00042 19.6309 6.57932 18.9673 6.90324 18.4657C7.19477 18.0449 7.84261 18.0449 8.16653 17.6565C8.32849 17.4947 8.39327 17.2519 8.44186 17.0415C8.6848 16.0382 8.79817 15.0186 8.76578 14.0153C8.74958 13.2709 8.7172 12.3808 9.30025 11.9277C9.57559 11.7173 9.93192 11.6364 10.2558 11.5231C10.5798 11.3936 10.9199 11.1832 11.0008 10.8434C11.098 10.3903 10.7093 9.98568 10.6121 9.53255C10.5798 9.3869 10.5797 9.22508 10.515 9.09561C10.3044 8.69103 9.70516 8.82049 9.26787 8.94996C7.9236 9.38691 6.48214 9.45163 5.12168 9.14415C4.92733 9.0956 4.71679 9.03087 4.60342 8.88522C4.44146 8.67484 4.47386 8.38355 4.40907 8.12462C4.24711 7.57439 3.58308 7.31546 3.00003 7.33164C2.6923 7.33164 2.38457 7.38019 2.06065 7.39638C2.12544 6.9918 1.94727 6.57103 1.76912 6.18264C1.57477 5.72951 1.38041 5.29255 1.0403 4.93652C0.943122 4.82324 0.829742 4.72614 0.748762 4.61286C0.489626 4.22446 0.603022 3.70659 0.73259 3.25346C0.764982 3.14018 0.81357 3.0269 0.89455 2.9298C1.18608 2.62232 1.72054 2.94599 2.14163 2.89744C2.40077 2.86507 2.61131 2.67088 2.82186 2.49286C3.17817 2.17999 3.5345 1.86171 3.89081 1.53805C4.21473 1.24675 4.53866 0.971645 4.91116 0.777447C5.29987 0.599432 5.75335 0.51852 6.15825 0.680351C6.46597 0.809817 6.70889 1.05256 7.03281 1.18203C7.21097 1.24676 7.42151 1.26294 7.63206 1.27912C8.31229 1.31149 9.02495 1.24676 9.68898 1.10111C11.4381 1.14966 13.2521 1.14965 14.8717 1.79698C15.1632 1.92644 15.4385 2.05592 15.7463 2.13684C16.135 2.23394 16.5399 2.23393 16.9448 2.23393C17.4738 2.22315 17.9975 2.21234 18.5158 2.20156C19.1312 2.20156 19.7413 2.19617 20.3459 2.18538C20.9614 2.16919 21.5768 2.16919 22.1923 2.12064C23.1478 2.05591 24.1682 1.89408 25.0266 2.33103C25.1399 2.39576 25.2533 2.46049 25.3667 2.50904C25.4962 2.55759 25.642 2.57378 25.7716 2.57378C26.1117 2.57378 26.4518 2.46049 26.7109 2.25011C26.7325 2.27169 26.7542 2.29327 26.7758 2.31485C27.8285 3.33439 28.9136 4.35393 30.2579 4.92034C31.4402 5.40584 32.7359 5.48675 34.0154 5.56767C34.4041 5.60003 34.8089 5.61621 35.1815 5.51911C35.5054 5.45438 35.8131 5.29256 36.137 5.22782C36.7363 5.09836 37.3841 5.30873 37.789 5.76186C37.9672 5.95606 38.1129 6.19882 38.3235 6.36065C38.7446 6.65195 39.3115 6.57102 39.8135 6.55484C40.3804 6.55484 40.9634 6.68432 41.4817 6.91088C41.7408 7.04035 42.0162 7.20216 42.3077 7.21835C42.5668 7.21835 42.8098 7.12125 43.0527 7.02416C43.5494 6.80838 44.046 6.59799 44.5427 6.39301C44.7209 6.66812 44.8829 6.97561 44.7533 7.2669Z" fill="#77B341" stroke="#BABABA" stroke-width="1.18548" stroke-linecap="round" stroke-linejoin="round"/>
</svg>
