<svg width="40" height="15" viewBox="0 0 40 15" fill="none" xmlns="http://www.w3.org/2000/svg">
<path d="M0.692958 5.98948C2.02103 6.70154 3.64063 5.69816 4.9849 5.03465C6.1618 4.45205 7.33872 3.87486 8.51563 3.30305C9.39021 2.86611 10.4429 2.42915 11.3013 2.88228C11.4795 2.97938 11.6415 3.10884 11.7224 3.28686C11.852 3.54579 11.7872 3.86947 11.8682 4.16077C12.014 4.74337 12.6942 5.01847 13.2934 5.11556C14.8321 5.34213 16.484 4.87283 17.9255 5.45543C19.4803 6.07039 20.5654 7.80199 22.2174 7.88291C22.6223 7.89909 23.0272 7.81818 23.3997 7.93146C24.4201 8.22276 24.7116 9.66306 25.7158 9.98672C26.0235 10.0838 26.3474 10.0676 26.6713 10.0838C27.1734 10.1323 27.6755 10.3104 27.9508 10.715C28.2423 11.1195 28.1938 11.7668 27.7565 12.0258C27.5945 12.1229 27.3677 12.1553 27.2382 12.3009C26.9952 12.5599 27.1734 12.9968 27.4811 13.1748C27.7888 13.3366 28.1452 13.3043 28.5015 13.2719C29.6352 13.1532 30.7689 13.0292 31.9026 12.8997C32.4857 12.8511 33.0849 12.7864 33.6356 12.9806C34.0243 13.1424 34.3644 13.4176 34.7531 13.5956C35.1418 13.7574 35.6277 13.8221 35.9516 13.547C36.1298 13.4014 36.227 13.1586 36.3727 12.9806C36.8748 12.3009 37.8304 12.2038 38.6726 12.1715C38.9155 11.9287 38.5592 11.5727 38.2514 11.427C36.999 10.8228 35.7411 10.2187 34.4778 9.6145C34.2619 9.5174 34.0459 9.40951 33.83 9.29084C33.4899 9.11282 33.1497 8.91862 32.8258 8.72442C31.7083 8.06091 30.607 7.38122 29.4894 6.70153C29.3383 6.60443 29.1871 6.50732 29.0359 6.41022C28.4421 6.05419 27.8537 5.69818 27.2706 5.34215C26.7523 5.01849 26.2502 4.71101 25.7158 4.45208C24.5497 3.86948 23.2702 3.51345 21.9745 3.40017C21.2619 3.35162 20.4359 3.28688 20.0472 2.70428C19.9176 2.47772 19.8528 2.21877 19.707 1.9922C19.124 1.15067 17.6988 1.73329 16.8242 1.16688C16.646 1.0536 16.5002 0.891759 16.3059 0.79466C16.0629 0.665194 15.7714 0.649027 15.4961 0.649027C12.4998 0.535745 9.37399 0.47098 6.66926 1.74945C6.21578 1.97602 5.76231 2.23495 5.27643 2.39678C4.85534 2.52625 4.41804 2.59099 4.06173 2.84992C3.73781 3.07648 3.54345 3.46489 3.28432 3.78855C2.66887 4.59771 1.74568 5.08321 0.838706 5.5687C0.838706 5.5687 0.40143 5.82765 0.692958 5.98948Z" fill="#F1F1F1" stroke="#BABABA" stroke-width="1.18548" stroke-linecap="round" stroke-linejoin="round"/>
</svg>
