<svg width="39" height="60" viewBox="0 0 39 60" fill="none" xmlns="http://www.w3.org/2000/svg">
<path d="M37.4562 15.2062V29.3989C36.9055 29.3341 36.3387 29.4312 35.8528 29.674C35.4641 29.852 35.0916 30.1271 34.6543 30.0785C34.5085 30.0624 34.3627 29.9976 34.217 30.0138C33.8769 30.0624 33.7311 30.4831 33.7473 30.823C33.7635 31.179 33.8445 31.5512 33.6501 31.8263C33.5691 31.972 33.4233 32.0691 33.2938 32.1662C32.7431 32.6355 32.4354 33.3152 32.16 33.9625C32.1115 34.0758 32.0629 34.1891 32.0791 34.3024C32.0953 34.3995 32.1439 34.4642 32.2087 34.5451C32.2411 34.5667 32.2681 34.5937 32.2897 34.626C32.3328 34.6584 32.376 34.6962 32.4192 34.7393C32.4516 34.7717 32.4786 34.8041 32.5002 34.8364C32.511 34.858 32.5218 34.8742 32.5326 34.8849C32.5434 34.9065 32.5488 34.9227 32.5488 34.9335C32.5488 34.9443 32.5488 34.9551 32.5488 34.9659C32.5596 34.9982 32.5649 35.0306 32.5649 35.063C32.5541 35.0846 32.5488 35.1007 32.5488 35.1115C32.5488 35.1115 32.5488 35.1169 32.5488 35.1277C32.4516 35.3381 32.0953 35.3381 31.82 35.4028C31.7984 35.4136 31.7822 35.419 31.7714 35.419C31.7174 35.4298 31.6634 35.4514 31.6094 35.4838C31.5986 35.4838 31.5878 35.4891 31.5771 35.4999C31.5339 35.5323 31.4906 35.5647 31.4474 35.597C31.4258 35.6186 31.4097 35.6402 31.3989 35.6617C31.3773 35.6941 31.3557 35.7211 31.3341 35.7427C31.3233 35.7642 31.3125 35.7858 31.3017 35.8074C31.2909 35.8182 31.2855 35.8236 31.2855 35.8236C31.2747 35.8452 31.2639 35.8721 31.2531 35.9045C31.2315 35.9369 31.2153 35.9692 31.2045 36.0016C31.2045 36.0232 31.1991 36.0448 31.1883 36.0663C31.1451 36.1742 31.1181 36.2875 31.1073 36.4062C31.1073 36.4278 31.1073 36.4493 31.1073 36.4709C31.0965 36.5033 31.0912 36.5302 31.0912 36.5518C31.0912 36.5734 31.0912 36.595 31.0912 36.6166C31.0912 36.6382 31.0912 36.6543 31.0912 36.6651C31.0912 37.183 31.1722 37.717 30.9292 38.1701C30.7834 38.4291 30.5567 38.6071 30.3624 38.8337C30.1842 39.0602 30.0546 39.3839 30.168 39.6428C30.3623 40.1121 31.0588 40.0474 31.4799 40.3225C31.8524 40.5814 31.9495 41.0831 32.0143 41.5363C32.1277 42.2483 32.2411 42.9604 32.2249 43.6724C32.2249 43.8181 32.2087 43.9799 32.2897 44.1094C32.3868 44.3036 32.6298 44.3845 32.8403 44.4654C33.148 44.5949 33.4395 44.7567 33.6177 45.0318C33.812 45.2908 33.8768 45.663 33.7149 45.9381C33.6339 46.0999 33.4881 46.2294 33.4557 46.3912C33.4557 46.4721 33.4558 46.553 33.4881 46.634C33.0239 46.634 32.5596 46.6394 32.0953 46.6502C31.6904 46.6502 31.2855 46.6663 30.9453 46.8767C30.67 47.0547 30.4757 47.346 30.2975 47.6212C29.3581 48.9644 28.1758 50.1295 26.9935 51.2624C26.3133 51.9259 25.6007 52.6056 24.7099 52.9454C23.3656 53.4633 21.8432 53.1396 20.4342 53.4309C20.094 53.4956 19.6568 53.7869 19.8187 54.1106C19.8511 54.2077 19.9483 54.2724 20.0131 54.3533C20.2884 54.7579 19.8835 55.2596 19.511 55.5671C18.7336 56.1982 17.9076 56.8617 16.9197 57.0398C16.1585 57.1692 15.3324 57.0074 14.6036 57.2987C13.7128 57.6547 13.1946 58.5933 12.3686 59.0627C12.0609 58.8037 12.3362 58.2373 12.1256 57.8975C11.9799 57.6709 11.6722 57.6062 11.413 57.6871C11.1701 57.7518 10.9595 57.9298 10.749 58.0917C10.0688 58.6257 9.16178 59.1436 8.40057 58.7552C8.2926 58.6904 8.19537 58.6203 8.10899 58.5448C7.76888 58.2211 7.60695 57.7356 7.49358 57.2825C7.3964 56.8779 7.31542 56.4572 7.16966 56.0526C7.08868 55.8584 7.00767 55.6804 6.8943 55.5347C6.73234 55.3243 6.50565 55.2111 6.3113 55.0492C5.9064 54.6932 5.51764 54.321 5.11274 53.965C4.68084 53.6089 4.24361 53.2583 3.80092 52.913C3.33124 52.557 2.82915 52.1848 2.57001 51.6508C2.31088 51.1167 2.39187 50.3561 2.91014 50.0648C3.16928 49.9353 3.46076 49.9353 3.75229 49.9192C4.40013 49.9192 5.05338 49.9137 5.71202 49.903C6.13312 49.903 6.57038 49.903 6.97528 50.0162C7.15343 50.081 7.34778 50.1619 7.54214 50.1619C7.73649 50.1457 7.94705 50.0324 7.96325 49.8382C7.99564 49.5955 7.73655 49.4337 7.526 49.3042C7.00773 48.9805 6.66755 48.4303 6.40842 47.8801C6.14928 47.346 5.93876 46.7473 6.03594 46.1647C6.08453 45.9057 6.19792 45.663 6.29509 45.404C6.45705 44.8862 6.52183 44.3521 6.45705 43.8181C6.34368 43.1384 6.21411 42.4587 5.89019 41.8437C5.63106 41.3582 5.22612 40.9536 4.96699 40.4681C4.72405 40.0312 4.57832 39.5619 4.27059 39.1897C4.20581 39.125 4.14098 39.0602 4.06 39.0117C3.93043 38.9307 3.7685 38.9469 3.60654 38.9469C3.33661 38.9577 3.06667 38.9847 2.79674 39.0279C2.80754 39.0171 2.81295 39.0063 2.81295 38.9955C2.89393 38.5262 2.63477 38.0731 2.29465 37.7332C1.97073 37.3934 1.54963 37.1344 1.24191 36.7784C1.14473 36.6597 1.053 36.5302 0.966625 36.39C0.658902 35.8398 0.545498 35.1924 0.610282 34.5613C0.707458 33.7683 1.04761 33.0239 1.53349 32.3766L2.10034 31.5512C3.0883 30.2242 4.17343 28.9619 5.33954 27.7805C6.21413 26.9066 7.18589 25.968 7.36404 24.7381C7.44502 24.1879 7.364 23.6053 7.47737 23.0551C7.55835 22.7314 7.72034 22.4077 7.83371 22.0841C7.91469 21.8089 7.97943 21.5338 8.02801 21.2587C8.30335 19.6404 8.44913 18.0059 8.44913 16.3714C8.44913 15.805 8.43296 15.2224 8.56253 14.6722C8.6921 14.2352 8.90266 13.8306 8.98364 13.3937C9.09701 12.7787 8.95123 12.1152 8.56253 11.6297C8.41677 11.4355 8.23858 11.2575 8.12521 11.0471C7.86607 10.594 7.73649 10.2541 7.70409 9.73628C7.6879 9.47735 7.60694 9.28316 7.47737 9.10515C7.3478 8.92713 7.18585 8.74909 7.0077 8.50634C6.82954 8.24741 6.7324 7.95614 6.7162 7.64866C6.69461 7.21711 6.66761 6.79093 6.63522 6.37017C6.61903 6.17597 6.6028 5.98179 6.52182 5.81995C6.44084 5.60957 6.29511 5.44772 6.23032 5.23734C6.18174 5.09169 6.1817 4.94604 6.1979 4.7842C6.21949 3.91031 6.24649 3.03106 6.27888 2.14638C6.55421 1.98454 6.86192 1.85506 7.15345 1.7256C8.03883 1.34799 8.92419 0.970381 9.80957 0.592773L37.4562 15.2062Z" fill="#F1F1F1" stroke="#BABABA" stroke-width="1.18548" stroke-linecap="round" stroke-linejoin="round"/>
</svg>
