<svg width="25" height="14" viewBox="0 0 25 14" fill="none" xmlns="http://www.w3.org/2000/svg">
<path d="M23.5425 3.68353C23.5425 4.13666 22.9756 4.33086 22.5546 4.47651C21.4208 4.8649 20.5787 5.8197 19.9794 6.85543C19.3802 7.89115 19.0076 9.02399 18.5056 10.1083C18.4084 10.3025 18.3112 10.5128 18.1654 10.6585C17.9711 10.8365 17.712 10.9336 17.469 11.0145C16.616 11.2842 15.7468 11.4946 14.8615 11.6457C14.3 11.7428 13.7386 11.8075 13.1771 11.8399C12.7722 11.8722 12.3672 11.8884 11.9947 12.0179C11.3955 12.2444 10.9258 12.7785 10.3104 12.9403C10.0674 13.0212 9.79213 13.0212 9.53299 13.0212C9.27386 13.0212 9.01469 13.0051 8.77175 13.0374C8.48022 13.0698 8.20494 13.1669 7.92961 13.2316C6.7311 13.5067 5.4516 13.2802 4.43126 12.6005C3.65385 12.0826 3.0384 11.322 2.2448 10.8365C1.85609 10.5938 1.41875 10.3996 1.14342 10.0435C1.12183 10.0112 1.10025 9.9788 1.07865 9.94643C0.851909 9.57422 0.851909 9.12108 0.754733 8.70032C0.722341 8.5277 0.668355 8.35508 0.592773 8.18246C0.787125 7.98826 0.997673 7.76169 1.07865 7.48658C1.20822 7.082 1.09483 6.58032 1.38636 6.27284C1.56452 6.07864 1.87226 6.01391 1.96943 5.77116C2.05041 5.60933 2.00182 5.41514 2.05041 5.25331C2.13139 4.97819 2.42297 4.84872 2.66591 4.70308C3.16798 4.3956 3.52423 3.87774 3.6538 3.31133C3.6646 3.25738 3.67543 3.20344 3.68622 3.14949C4.54461 3.79682 5.4678 4.4765 6.53673 4.5736C7.03881 4.60597 7.54084 4.52506 8.02672 4.39559C8.96609 4.15284 9.85691 3.76445 10.6667 3.26277C11.0068 3.05239 11.347 2.80964 11.7357 2.69636C12.5617 2.43742 13.5496 2.77727 14.2784 2.29178C14.7967 1.95193 15.0072 1.28842 15.5093 0.916205C16.0438 0.511625 16.805 0.527812 17.4366 0.738193C18.0682 0.948575 18.6513 1.28841 19.2829 1.51497C19.8822 1.70917 20.4977 1.7901 21.1131 1.93575C21.3723 2.00049 21.6152 2.06522 21.8743 2.1785C22.3926 2.38888 22.8785 2.71253 23.2672 3.13329C23.3158 3.19803 23.3805 3.26277 23.4291 3.34368C23.4939 3.44078 23.5425 3.57024 23.5425 3.68353Z" fill="#F1F1F1" stroke="#BABABA" stroke-width="1.18548" stroke-linecap="round" stroke-linejoin="round"/>
</svg>
