<svg width="40" height="20" viewBox="0 0 40 20" fill="none" xmlns="http://www.w3.org/2000/svg">
<path d="M0.75832 7.19882C0.871692 7.32828 1.01747 7.42537 1.17943 7.4901C2.16739 7.89468 3.30108 8.00798 4.27284 7.6034C4.93688 7.32828 5.51996 6.77805 6.20019 6.56767C6.89662 6.35729 7.75499 6.47057 8.1275 7.06934C8.28946 7.34446 8.33804 7.68431 8.15988 7.94324C8.04651 8.12126 7.85216 8.25072 7.83596 8.44492C7.81976 8.89804 8.67816 9.20554 8.37044 9.5292C8.32185 9.59393 8.24086 9.61011 8.15988 9.64248C6.39452 10.128 4.27286 8.8495 2.75044 9.88522C2.31314 10.1927 1.95681 10.7429 2.28073 11.2608C2.44269 11.5035 2.68566 11.6492 2.96099 11.7139C3.56024 11.8596 4.1109 11.6492 4.69395 11.5521C6.45932 11.2284 8.37044 12.0052 9.42318 13.4779C9.63372 13.7854 9.84428 14.1576 9.47177 14.5945C9.22883 14.8858 8.87252 15.0315 8.50001 15.0477C7.81978 15.0638 6.62127 15.2419 6.66986 16.0672C6.66986 16.3261 6.79942 16.5365 6.99378 16.6983C8.5 17.9283 10.5407 16.0187 12.3385 16.4556C13.0511 16.6174 13.6179 17.1515 14.2334 17.5561C15.0108 18.0739 15.9016 18.3976 16.8247 18.608C17.9585 18.8831 19.1408 18.9478 20.3069 18.8507C22.1208 18.6727 23.87 18.0739 25.5868 17.459C25.9863 17.3187 26.3858 17.1784 26.7853 17.0382C27.3845 16.8278 27.9838 16.6174 28.4858 16.2452C28.9555 15.9054 29.3443 15.4199 29.8787 15.1933C30.3484 14.9829 30.899 14.9991 31.3525 14.7402C31.725 14.5136 32.0004 14.1252 32.4053 13.9634C32.9559 13.7206 33.5876 13.9796 34.1868 13.931C34.9156 13.8663 35.5635 13.2999 35.7093 12.5878C35.7579 12.3612 35.8065 12.0538 36.0332 11.989C36.1952 11.9405 36.3733 12.0376 36.5515 12.0538C37.1345 12.1185 37.3289 11.2932 37.7662 10.8724C37.9767 10.6782 38.2682 10.5649 38.4788 10.3545C39.1428 9.73958 38.8351 8.63911 38.4626 7.79759C38.1225 7.00461 37.6852 6.13071 36.8592 5.87178C36.6162 5.80705 36.3409 5.79087 36.0656 5.77469C35.6769 5.75851 35.3691 5.45102 35.3205 5.06262C35.2558 4.57713 34.9157 4.12401 34.446 3.96218C34.3326 3.92981 34.203 3.89745 34.1059 3.80035C34.1059 3.80035 34.1005 3.79496 34.0897 3.78417C33.7496 3.02356 34.8995 2.975 34.8347 2.2953C34.8185 2.03637 34.6079 1.84218 34.365 1.77745C33.8143 1.66417 33.3932 1.98783 32.956 2.24676C32.5996 2.44096 32.1624 2.60279 31.7899 2.42478C31.5145 2.29531 31.3526 2.004 31.1744 1.72889C30.6885 1.03301 29.8949 0.48278 29.0689 0.612246C28.2267 0.741712 27.6113 1.82599 28.1458 2.47331C28.3239 2.68369 28.5669 2.82936 28.5507 3.13684C28.5183 3.3634 28.2915 3.57377 28.0648 3.60614C27.6275 3.68705 27.2549 3.41195 26.8986 3.1692C26.5909 2.975 26.2508 2.7808 25.8945 2.86171C25.522 2.94263 25.2953 3.2663 25.1495 3.63851C24.9713 4.04309 24.4369 4.17256 24.1129 3.86508C24.0805 3.82193 24.0482 3.77877 24.0158 3.73561C23.9024 3.54141 23.8538 3.31486 23.7242 3.13684C23.4327 2.71608 22.8173 2.71607 22.3152 2.74844C22.1694 2.74844 22.0075 2.76462 21.8941 2.84553C21.4406 3.12065 21.8293 3.81652 22.2504 4.15637C22.4124 4.26965 22.5743 4.44767 22.7039 4.60951C23.0116 5.04645 22.4772 5.59667 22.0237 5.30537C21.9103 5.22446 21.7969 5.12737 21.6997 4.99791C21.4406 4.69043 21.2786 4.30203 21.0519 3.96218C20.7118 3.4605 20.1935 3.05591 19.5943 3.02355C18.995 2.99118 18.3634 3.4605 18.3472 4.04309C18.331 4.48004 18.5901 4.96553 18.2824 5.27301C18.088 5.46721 17.7803 5.46722 17.5536 5.32157C16.9867 4.93317 17.0353 4.18874 16.6304 3.71943C16.2579 3.29867 15.5291 3.23392 15.0918 3.60614C14.946 3.71942 14.8488 3.88126 14.8326 4.07545C14.8326 4.36675 15.0918 4.57714 15.2213 4.85225C15.4481 5.27302 15.3185 5.77469 15.108 6.24401C14.9946 6.48675 14.7031 6.55149 14.4763 6.40584C14.12 6.14691 13.6989 5.98508 13.3588 6.22783C13.1321 6.37347 13.0349 6.64858 12.8729 6.84278C12.5166 7.24736 11.8202 7.29592 11.4153 6.95607C11.0104 6.60004 10.9294 5.92035 11.2695 5.49958C11.3829 5.35393 11.5448 5.24065 11.642 5.095C11.8688 4.72279 11.7068 4.2211 11.4153 3.91362C11.1076 3.60614 10.6864 3.46049 10.2977 3.26629C10.179 3.21235 10.071 3.14762 9.97382 3.0721C9.53653 2.76462 9.14785 2.3924 8.74295 2.05255C7.96554 1.42141 6.99376 0.903559 5.92483 1.19486C5.60091 1.29196 5.358 1.61561 5.39039 1.97164C5.42278 2.32767 5.76288 2.47333 6.02202 2.65134C6.37833 2.89409 6.65365 3.23394 6.81561 3.63851C6.92898 3.91363 6.60507 4.17255 6.34594 4.01072C5.90865 3.75179 5.43897 3.12066 4.93689 2.89409C4.71015 2.79699 4.451 2.82936 4.27284 2.97501C3.02575 3.91363 2.44269 4.64187 1.38995 5.53194C0.871676 5.9527 0.304832 6.61622 0.75832 7.19882Z" fill="#F1F1F1" stroke="#BABABA" stroke-width="1.18548" stroke-linecap="round" stroke-linejoin="round"/>
</svg>
