<svg width="60" height="51" viewBox="0 0 60 51" fill="none" xmlns="http://www.w3.org/2000/svg">
<path d="M58.8012 22.0517C58.9631 22.3916 58.9469 22.8123 58.7849 23.1522C58.6068 23.5082 58.2667 23.7671 58.0561 24.107C57.8942 24.3497 57.797 24.6572 57.6027 24.8838C57.4893 25.0294 57.3435 25.1265 57.1978 25.2236C56.7605 25.5149 56.3232 25.8548 55.9021 26.1461C55.2704 26.3888 54.7198 26.9067 54.3797 27.4893C54.2339 27.732 54.1205 28.0233 53.9424 28.2337C53.7156 28.525 53.3755 28.703 53.084 28.9134C52.7925 29.1237 52.5009 29.4151 52.4685 29.7711C52.4523 29.9653 52.5009 30.1433 52.5009 30.3375C52.4847 30.7906 52.1446 31.1952 51.8531 31.5512C51.6263 31.8102 51.4158 32.0691 51.3024 32.3927C51.1567 32.765 51.1567 33.2019 50.8975 33.5094C50.687 33.7845 50.3145 33.8978 50.0715 34.1567C49.699 34.529 49.6342 35.1925 49.1645 35.419C48.8892 35.5647 48.5491 35.5161 48.29 35.6779C48.128 35.7912 48.0308 35.9693 47.9498 36.1311C47.7231 36.5195 47.4478 36.9403 47.0267 37.1183C46.719 37.7332 45.8606 37.7009 45.4395 38.2025C45.2775 38.3967 45.1966 38.6557 45.067 38.8822C44.7917 39.3192 44.3057 39.5781 43.9818 39.9827C43.7389 40.3064 43.5769 40.7271 43.253 40.9698C42.9939 41.164 42.6538 41.2126 42.3622 41.3421C41.7306 41.6334 41.2771 42.2645 40.6293 42.5072C40.4673 42.5558 40.3215 42.5882 40.1758 42.6691C39.9328 42.8147 39.8033 43.1222 39.6413 43.3488C39.2526 43.8829 38.6371 44.1579 38.0541 44.4169C37.6492 44.9995 36.8718 45.1937 36.1754 45.1937C35.4628 45.2099 34.7663 45.0966 34.0861 45.2746C34.0051 45.2908 33.9079 45.3232 33.8431 45.3717C33.7621 45.4364 33.7136 45.5335 33.665 45.6306C33.3897 46.1161 32.8876 46.4236 32.3855 46.6502C31.1708 47.2004 29.7779 47.4431 28.5147 47.0547C28.0936 46.9253 27.6725 46.7311 27.2352 46.6178C26.7979 46.5045 26.2796 46.456 25.8909 46.6825C25.4051 46.99 24.7248 46.7635 24.1579 46.6664C23.5101 46.5693 22.8622 46.5854 22.1982 46.6016C21.8419 46.6178 21.4856 46.634 21.1779 46.812C20.8054 47.0386 20.611 47.4755 20.2385 47.7183C19.8984 47.961 19.4449 47.9772 19.0238 47.9772C18.4083 47.9772 17.7929 47.9826 17.1775 47.9934C16.4324 47.9934 15.5741 48.0581 15.1206 48.6407C15.0072 48.7864 14.9262 48.9643 14.7643 49.0614C14.6671 49.1424 14.5375 49.1585 14.4079 49.1909C13.8141 49.3312 13.2202 49.4714 12.6264 49.6117C12.4968 49.6279 12.3835 49.6602 12.2701 49.6441C12.1081 49.6117 11.9786 49.5146 11.8652 49.4337C11.239 48.9482 10.6127 48.4681 9.98645 47.9934C9.80829 47.8639 9.6463 47.7344 9.54913 47.5402C9.38717 47.2004 9.43579 46.6663 9.01469 46.634C8.86893 46.634 8.72316 46.6987 8.60979 46.7958C8.25348 47.1195 7.67045 46.99 7.42751 46.6178C7.71904 45.8734 6.84441 45.3393 6.56908 44.6435C6.39092 44.2227 6.47193 43.7534 6.35856 43.3002C6.22899 42.6853 5.77546 42.0056 6.14797 41.5039C6.27754 41.3421 6.45575 41.245 6.61771 41.1317C7.13599 40.7595 7.4761 40.1445 7.50849 39.4972C7.54089 38.947 7.3465 38.3967 7.15215 37.8789C7.07117 37.6199 6.97398 37.361 6.81202 37.1506C6.66625 36.9403 6.48815 36.7784 6.29379 36.6166C5.77552 36.1149 5.35438 35.5323 5.03046 34.9011C4.83611 34.5451 4.69038 34.1567 4.41504 33.8816C4.25308 33.7198 4.05868 33.6065 3.88053 33.4609C3.03834 32.7488 2.84402 31.5351 2.77923 30.4346C2.71445 29.3342 2.69824 28.1528 2.0342 27.2627C1.74267 26.8743 1.35402 26.583 1.11108 26.1622C0.868137 25.7415 0.787125 25.2236 0.592773 24.7705C0.706145 24.8029 0.835682 24.8028 0.96525 24.7866C1.22439 24.7866 1.49976 24.7705 1.7427 24.6896C1.98564 24.5925 2.21237 24.4145 2.29335 24.1555C2.34194 24.0261 2.34192 23.8642 2.4391 23.7509C2.48769 23.67 2.58485 23.6377 2.66583 23.6053C3.07073 23.492 3.52428 23.6376 3.78342 23.9775C4.13973 24.463 4.02636 25.2074 4.43126 25.6444C4.72278 25.9518 5.17624 26.0328 5.61353 26.0328C5.82408 26.0166 6.05082 26.0004 6.26137 26.0328C6.5691 26.0652 6.86062 26.1784 7.15215 26.2755C8.07532 26.583 9.06331 26.6963 10.0189 26.6154C10.5533 26.5668 11.1364 26.4212 11.3793 25.9519C11.4927 25.7253 11.5412 25.434 11.7518 25.3207C11.9138 25.2398 12.1243 25.2883 12.3024 25.2721C12.513 25.256 12.6912 25.1751 12.8855 25.0942C13.0043 25.0294 13.1285 24.9701 13.2581 24.9161V10.9824C13.7925 11.1928 14.2784 11.5974 14.6185 12.0667C15.2664 12.9891 15.5093 14.1381 15.9142 15.2062C15.9628 15.3519 16.0113 15.5137 16.0275 15.6593C16.0275 16.0639 15.6713 16.3552 15.4283 16.6951C15.1206 17.1482 15.0234 17.747 15.1692 18.281C15.2178 18.4105 15.2825 18.54 15.3959 18.5885C15.4769 18.6371 15.5741 18.6209 15.655 18.6209C16.4433 18.5561 17.2261 18.4914 18.0035 18.4267C18.3274 18.3943 18.6675 18.3619 18.959 18.2487C19.2667 18.1192 19.5259 17.925 19.785 17.7146C20.7028 16.9918 21.6152 16.2689 22.5221 15.5461C22.7327 15.3842 22.9594 15.2062 23.0728 14.9635C23.2347 14.6236 23.1538 14.219 23.1538 13.8468C23.1538 13.2804 23.3482 12.714 23.6883 12.2771C23.7531 12.1962 23.834 12.1152 23.9312 12.099C24.0284 12.0829 24.1255 12.1476 24.2065 12.2123C24.7356 12.5899 25.2484 12.9891 25.7451 13.4099C26.1338 13.7497 26.5225 14.1219 26.9598 14.397C28.5146 15.3842 30.7173 15.2062 32.094 13.9925C33.0981 13.0862 33.6002 11.7915 34.1347 10.5454C34.2157 10.3351 34.329 10.1085 34.5396 10.0276C34.7663 9.93048 35.0092 10.0276 35.236 10.0923C35.9486 10.2542 36.807 9.91432 37.0662 9.23462C37.1796 8.94333 37.1796 8.63583 37.2281 8.32835C37.3739 7.24407 38.0379 6.25691 38.9935 5.70668C39.8681 5.23737 40.9694 5.07553 41.5524 4.28255C41.9735 3.69995 42.1355 2.7937 42.8319 2.63187C43.253 2.53477 43.7065 2.77751 44.1276 2.66423C44.9374 2.48622 45.0022 1.30483 45.4233 0.592773C45.7148 0.835521 46.0549 0.997353 46.4274 1.07827C47.0915 1.22392 47.8203 1.0621 48.4357 1.33722C48.8082 1.51523 49.1321 1.85509 49.5532 1.87127C49.8448 1.88745 50.1039 1.77415 50.3792 1.69324C51.3672 1.40194 52.4199 1.80654 53.4565 1.91983C53.3431 2.14639 53.2621 2.38912 53.1973 2.63187C52.9868 3.65141 53.2783 4.68715 53.6994 5.64196C53.9262 6.19219 54.2015 6.72622 54.5092 7.24408C54.8007 7.74576 55.1571 8.23126 55.3514 8.78149C55.5296 9.29935 55.5458 9.88194 55.5782 10.4322C55.6268 11.0471 55.6592 11.6459 55.6754 12.2609C55.7401 13.5555 55.7995 14.8448 55.8535 16.1286C55.8697 16.4847 55.8859 16.8407 55.9669 17.1967C56.0478 17.488 56.1774 17.7794 56.307 18.0545C56.4042 18.2648 56.5176 18.4914 56.7281 18.6047C56.8901 18.6856 57.0844 18.6856 57.2787 18.6856C57.5163 18.6856 57.7538 18.6856 57.9914 18.6856C58.1371 18.6694 58.2829 18.6694 58.3963 18.6047C58.5582 18.5399 58.6554 18.3943 58.7688 18.281C58.8444 18.2055 58.9254 18.1408 59.0118 18.0868C59.0225 18.1623 59.0279 18.2379 59.0279 18.3134C59.0279 18.6209 59.0117 18.9445 58.8821 19.2358C58.785 19.4139 58.623 19.5757 58.5097 19.7537C58.1695 20.2554 58.1534 20.9512 58.4449 21.4691C58.5421 21.6633 58.704 21.8413 58.8012 22.0517Z" fill="#F1F1F1" stroke="#BABABA" stroke-width="1.18548" stroke-linecap="round" stroke-linejoin="round"/>
</svg>
