<svg width="18" height="10" viewBox="0 0 18 10" fill="none" xmlns="http://www.w3.org/2000/svg">
<path d="M17.093 4.44284C16.7205 5.28437 16.2507 6.06116 15.5219 6.61139C15.2466 6.80559 14.9065 6.9836 14.5664 6.96741C14.1615 6.96741 13.8214 6.74086 13.4651 6.59521C13.0926 6.44956 12.639 6.38481 12.3637 6.65993C12.1531 6.83794 12.1045 7.12924 12.0236 7.38817C11.9426 7.6471 11.813 7.90603 11.6511 8.11642C11.5377 8.27825 11.3919 8.4239 11.2138 8.4239C11.0032 8.4239 10.8413 8.26206 10.7118 8.11642C10.5282 7.90064 10.3446 7.69027 10.161 7.48529C9.91809 7.21017 9.61043 6.91886 9.25411 6.96741C9.01117 7.01596 8.81682 7.21017 8.68725 7.43673C8.55769 7.64711 8.46045 7.87368 8.29849 8.06788C7.89359 8.50482 7.19716 8.521 6.59791 8.521C5.87449 8.53179 5.1565 8.57495 4.44387 8.65047C4.52485 8.35917 4.42766 8.00315 4.18472 7.82513C4.10374 7.77658 4.02279 7.72803 3.9742 7.6633C3.77985 7.42055 4.02281 7.01597 3.82846 6.7894C3.74748 6.70849 3.61791 6.67611 3.50454 6.65993C2.72713 6.5952 2.01447 7.06452 1.36663 7.51765C1.25326 7.59856 1.12371 7.67947 0.977946 7.71184C0.832182 7.72802 0.653979 7.66329 0.605391 7.51765C0.572999 7.42055 0.605422 7.32344 0.637814 7.22634C1.02652 6.14207 1.99825 5.46238 2.71087 4.62085C3.22914 4.00589 3.74746 3.40711 4.29812 2.82452C4.47628 2.6465 4.63821 2.4685 4.83256 2.30667C5.30224 1.8859 5.85291 1.59461 6.45216 1.41659C6.6897 1.34107 6.92723 1.28712 7.16477 1.25476C7.90978 1.17384 8.65481 1.27094 9.36744 1.41659C9.57799 1.46514 9.82093 1.51369 10.0153 1.41659C10.3068 1.27094 10.3716 0.866362 10.6469 0.688346C10.8898 0.526515 11.2138 0.591235 11.4729 0.736884C11.7321 0.86635 11.9588 1.07674 12.2179 1.19002C12.7686 1.41659 13.4002 1.25475 13.9671 1.44895C13.9671 1.44895 13.9725 1.44895 13.9833 1.44895C13.9509 1.56223 13.9186 1.69169 13.87 1.80497C13.7404 2.12863 13.4488 2.40375 13.4326 2.75978C13.4165 3.08345 13.627 3.37475 13.8861 3.55276C14.1614 3.74696 14.4854 3.81169 14.7931 3.89261C14.8903 3.92497 14.9928 3.95195 15.1008 3.97352C15.6407 4.10299 16.186 4.23785 16.7366 4.3781L17.093 4.44284Z" fill="#F1F1F1" stroke="#BABABA" stroke-width="1.18548" stroke-linecap="round" stroke-linejoin="round"/>
</svg>
