<svg width="65" height="39" viewBox="0 0 65 39" fill="none" xmlns="http://www.w3.org/2000/svg">
<path d="M64.1135 15.2774C64.0325 15.3745 63.9029 15.4069 63.8058 15.4878C63.5466 15.682 63.5952 16.0704 63.579 16.3941C63.5304 17.2518 62.834 18.0286 62.8988 18.8863C62.9312 19.3394 63.158 19.744 63.2875 20.1648C63.4171 20.5855 63.4333 21.1034 63.1094 21.427C62.915 21.605 62.6397 21.686 62.3643 21.7345C60.9877 21.9611 59.4005 21.7831 58.3315 22.6893C57.6351 23.2719 57.3436 24.1782 57.1654 25.0844C56.8415 25.0197 56.5176 24.8579 56.1936 24.8902C56.1451 24.9064 56.0803 24.9226 56.0479 24.955C55.9831 24.9873 55.9669 25.0683 55.9184 25.1168C55.724 25.4405 55.2867 25.4728 54.9142 25.5214C54.5417 25.5699 54.0558 25.6832 54.0234 26.0554C53.91 26.3629 53.6023 26.5409 53.2946 26.6704C52.9869 26.816 52.6629 26.8646 52.339 26.9131C51.7884 26.9941 51.2215 27.0588 50.6708 27.075C50.3307 27.075 49.9906 27.075 49.6829 27.1883C49.2132 27.3663 48.8893 27.787 48.5005 28.0945C47.7393 28.7095 46.6704 28.9037 46.0874 29.6805C46.0226 29.7614 45.9578 29.8585 45.9578 29.9718C45.9416 30.1012 45.974 30.2145 46.0226 30.3278C46.2817 31.0884 46.7028 31.8652 47.4316 32.2212C47.9013 32.4478 48.4358 32.464 48.9541 32.464C49.278 32.4532 49.5965 32.437 49.9096 32.4154C50.0554 32.3992 50.2012 32.3831 50.3145 32.3183C50.5089 32.2212 50.6223 32.0108 50.8004 31.9137C51.1891 31.7034 51.6426 32.027 51.9017 32.3669C51.9665 32.4316 52.0151 32.4963 52.0637 32.5611C51.8369 32.9495 51.6102 33.4997 51.5616 34.2118C51.2862 34.1632 51.0919 34.4707 50.849 34.6002C50.6546 34.6973 50.4279 34.6973 50.2173 34.6973C49.6559 34.6865 49.0944 34.6811 48.533 34.6811C48.0147 34.6649 47.4154 34.6973 47.0591 35.0857C46.9296 35.2151 46.8324 35.4093 46.638 35.4741C46.5732 35.4902 46.4923 35.4902 46.4113 35.4902C46.0766 35.4902 45.7418 35.4902 45.4071 35.4902C45.0994 35.4902 44.7755 35.5064 44.5325 35.6359C44.4192 35.7006 44.322 35.7815 44.2572 35.8948C44.1925 36.0081 44.16 36.1214 44.1276 36.2347C43.9171 36.882 43.334 37.3999 42.67 37.5617C41.9898 37.7397 41.2609 37.5617 40.7103 37.1247C40.5969 37.0438 40.4998 36.9305 40.4512 36.8011C40.3864 36.6069 40.435 36.4127 40.4997 36.2185C40.5753 35.9488 40.6563 35.6736 40.7427 35.3931C41.1476 35.3122 41.18 34.7782 40.9371 34.5031C40.7265 34.2441 40.3863 34.147 40.0624 34.0499C39.366 33.8395 38.6696 33.5968 37.9732 33.3541C37.8598 33.3055 37.7303 33.2731 37.6169 33.1922C37.3577 32.998 37.2768 32.6096 37.3577 32.286C37.4387 31.9623 37.6817 31.6872 37.9246 31.4768C38.54 30.959 39.3336 30.6838 40.1434 30.7C40.3216 30.7 40.4998 30.7162 40.6779 30.6677C40.8561 30.6191 41.0342 30.4896 41.0504 30.3116C41.099 30.0527 40.8399 29.8423 40.5807 29.8099C40.3216 29.7938 40.0786 29.8909 39.8357 29.9718C38.9773 30.2469 38.0541 30.1983 37.1471 30.1498C36.969 30.1498 36.7909 30.1336 36.6289 30.0527C36.305 29.907 36.1107 29.5186 35.7543 29.4539C35.6572 29.4215 35.5437 29.4377 35.4466 29.4215C35.317 29.373 35.2198 29.2759 35.1226 29.1788C34.8473 28.8713 34.6692 28.4829 34.5882 28.0621C34.5396 27.8194 34.5072 27.5605 34.3453 27.3825C34.1347 27.1235 33.7622 27.1235 33.4383 27.1397C33.1791 27.1397 32.9362 27.1559 32.7095 27.2692C32.2722 27.4634 32.0454 27.9812 31.6567 28.2887C31.4462 28.4344 31.1871 28.5638 31.1223 28.8228C31.0899 28.9037 31.0898 29.0008 31.0736 29.0817C30.9927 29.373 30.6526 29.5024 30.4097 29.6805C30.2477 29.8099 30.1181 29.9718 29.9886 30.1336C29.4865 30.6838 28.8224 31.0722 28.1098 31.2826C27.7373 31.3797 27.2838 31.5254 27.381 31.9947C27.3162 32.3992 27.4295 32.82 27.5105 33.2246C26.6035 32.7715 25.4375 32.82 24.6115 33.4188C24.4333 33.5483 24.2714 33.6939 24.0608 33.7263C23.915 33.7424 23.7855 33.7263 23.6397 33.6939C23.1538 33.5806 22.6517 33.4026 22.263 33.0951C22.7327 31.7843 24.1256 30.7647 24.5467 29.3568C24.6439 29.017 24.6763 28.6448 24.8221 28.3211C24.9678 27.9812 25.2755 27.6899 25.6319 27.6738C26.3445 27.6576 26.7493 28.6933 27.462 28.6609C28.0612 28.6447 28.3366 27.8518 28.2232 27.253C28.126 26.7028 27.8507 26.1849 27.4458 25.7803C27.0571 25.3919 26.555 25.1168 26.2473 24.6637C25.7776 23.9031 26.0043 22.8673 25.648 22.0582C25.1459 20.9415 23.7693 20.5855 22.5707 20.4399C22.263 20.4075 21.9392 20.3751 21.6638 20.2133C21.1132 19.922 20.8378 19.2423 20.2548 19.0319C19.4611 18.7568 18.7161 19.5174 17.9225 19.7764C17.8254 19.7979 17.7336 19.8195 17.6472 19.8411C17.388 19.8896 17.1289 19.922 16.8698 19.9867C15.7037 20.2457 14.7643 21.2167 13.5658 21.3785C12.7884 21.4756 11.849 21.2814 11.3307 21.864C11.1526 22.042 11.0393 22.3171 10.8125 22.4304C10.521 22.5599 10.1808 22.4142 9.95409 22.2038C9.71115 22.0096 9.53297 21.7345 9.29003 21.5565C8.78796 21.2005 8.10779 21.2652 7.49234 21.2814C5.96992 21.2976 4.39886 20.8444 2.90883 20.9092C2.86024 20.8283 2.79546 20.7635 2.74687 20.6988C2.35817 20.278 1.87227 19.9544 1.354 19.744C1.09486 19.6307 0.85197 19.566 0.592834 19.5012C0.614429 19.3718 0.641422 19.2423 0.673814 19.1128C0.706206 18.9025 0.75481 18.6759 0.851986 18.4817C0.91677 18.3199 1.03011 18.158 1.14348 18.0124C1.38642 17.6725 1.62938 17.3165 1.88851 16.9767C1.99649 16.8364 2.10446 16.7015 2.21243 16.5721C2.37439 16.3617 2.52011 16.1675 2.64968 15.9409C2.90881 15.5202 2.87642 15.1156 2.89262 14.6463C2.89262 14.2417 3.00601 13.8533 3.15177 13.4973C3.63765 12.3483 4.85238 11.7495 5.85653 11.0374C6.87688 10.3415 7.86485 9.17636 7.49234 7.9788C7.31419 7.3962 6.82824 6.94308 6.45574 6.4414C6.14801 6.00445 5.92132 5.40567 6.09947 4.92017C6.12107 4.84465 6.15881 4.76914 6.2128 4.69362C6.53672 4.22431 7.20077 4.14338 7.68665 3.85208C7.97818 3.69025 8.2049 3.44751 8.48024 3.26949C9.17666 2.80018 10.0674 2.76782 10.9096 2.75164C12.2215 2.71927 13.5982 2.70309 14.7643 3.31805C15.0397 3.4637 15.3149 3.64171 15.6065 3.73881C16.5296 4.06247 17.631 3.64171 18.5056 4.06247C18.8943 4.25667 19.1858 4.58033 19.5584 4.8069C20.1252 5.13056 20.854 5.14675 21.437 4.85545C21.8581 4.62889 22.2954 4.24049 22.7489 4.38614C23.1376 4.49942 23.3482 4.95254 23.7531 5.00109C24.2714 5.082 24.6601 4.40231 25.1945 4.4185C25.7614 4.45086 26.0043 5.1953 26.5064 5.42187C27.3162 5.7779 28.2556 4.70979 29.0654 5.082C29.3731 5.21147 29.5512 5.50277 29.7942 5.71315C30.0371 5.93972 30.442 6.053 30.6687 5.81025C30.6202 5.1791 30.5716 4.5156 30.7012 3.90064C30.8307 3.2695 31.1708 2.63835 31.7215 2.31468C32.1102 2.08812 32.5799 2.02339 33.0334 2.03957C33.4707 2.05576 33.9566 2.12049 34.3777 2.26614C34.6152 2.36324 34.8582 2.42258 35.1065 2.44415C35.2577 2.45494 35.4034 2.45494 35.5438 2.44415C35.9972 2.42797 36.4669 2.13668 36.5317 1.69973C36.5479 1.60263 36.5479 1.50553 36.5803 1.40843C36.7098 0.97148 37.3415 0.955293 37.7626 1.10094C38.1999 1.26277 38.6858 1.50552 39.0745 1.26277C39.2689 1.16567 39.3823 0.955301 39.5604 0.825835C40.1111 0.372705 40.9208 0.664003 41.5363 0.987667C42.2327 1.32751 42.9939 1.74827 43.2531 2.47651C43.6256 3.52842 42.7833 4.87163 43.4636 5.76171C44.0952 6.58705 45.4557 6.26338 46.3627 6.78124C47.3183 7.31528 47.5126 8.59376 47.9013 9.6133C47.9661 9.79131 48.0471 9.95315 48.1928 10.0664C48.5168 10.2768 48.9541 10.0664 49.3428 10.0503C50.4441 9.98552 51.3834 11.4582 52.3876 10.9889C52.6467 10.8756 52.8411 10.649 53.1002 10.5034C53.6994 10.1635 54.4769 10.5034 55.0114 10.9403C55.5458 11.3935 56.0155 11.9599 56.6633 12.1864C57.3597 12.4454 58.1372 12.2673 58.8822 12.2835C60.7123 12.2997 62.3157 13.4164 63.7895 14.5006C64.0325 14.6786 64.324 15.0185 64.1135 15.2774Z" fill="#77B341" fill-opacity="0.8" stroke="#BABABA" stroke-width="1.18548" stroke-linecap="round" stroke-linejoin="round"/>
</svg>
