<svg width="74" height="72" viewBox="0 0 74 72" fill="none" xmlns="http://www.w3.org/2000/svg">
<path d="M73.2317 53.4803C69.6038 55.5517 56.9872 62.8989 51.2214 68.4012C49.9689 68.617 48.7326 68.8921 47.5125 69.2265C47.1724 69.3236 46.8161 69.4369 46.4598 69.4369C46.3626 69.4477 46.2601 69.4477 46.1521 69.4369C45.6176 69.4046 45.0508 69.3075 44.6945 69.6797C44.5001 69.8901 44.4353 70.1652 44.2409 70.3432C43.8846 70.6668 43.3177 70.5212 42.8643 70.3594C42.4756 70.2137 42.0059 69.9548 42.0382 69.534C42.0544 69.4045 42.1193 69.2751 42.1841 69.1618C42.3622 68.7896 42.4917 68.385 42.5403 67.9805C42.5727 67.7377 42.5565 67.4787 42.3946 67.3007C42.2974 67.2198 42.1678 67.1713 42.0545 67.1227C41.385 66.8962 40.721 66.6642 40.0624 66.4268C39.9004 66.3621 39.733 66.3028 39.5603 66.2488C39.2688 66.1517 38.9934 66.0546 38.6857 65.9737C38.4752 65.9252 38.2484 65.8766 38.0379 65.7957C37.8435 65.6986 37.6654 65.5691 37.4872 65.4397C37.0014 65.0998 36.5154 64.7438 36.2077 64.2421C35.9647 63.8699 35.8352 63.4168 35.5923 63.0446C35.4303 62.7856 35.2198 62.5753 35.0578 62.3163C35.0038 62.23 34.9606 62.1437 34.9282 62.0574L13.8573 47.5572L0.592712 38.4461V33.494C2.08274 32.8305 3.49183 31.9728 4.75511 30.9533C5.19241 30.5811 5.66207 30.1927 6.22893 30.1603C6.731 30.1441 7.26548 30.4354 7.73516 30.2251C8.02669 30.0794 8.20484 29.7557 8.46398 29.5454C9.45194 28.7524 11.1201 29.8366 12.1243 29.0437C12.594 28.6715 12.7073 28.0079 13.0151 27.4901C13.8573 26.0821 15.817 26.0012 17.3232 25.3701C17.5013 25.2892 17.6795 25.1921 17.7929 25.0464C18.3597 24.3344 17.2422 23.0073 17.9872 22.4895C18.3112 22.2629 18.7484 22.4086 19.1371 22.3276C19.7364 22.2144 20.0603 21.5832 20.4166 21.0816C21.0483 20.1753 22.2792 19.4632 23.2509 19.9973C23.4939 20.1429 23.7044 20.3695 23.9797 20.4828C24.3199 20.6446 24.7248 20.6284 25.0973 20.5961C25.5831 20.5637 26.069 20.5313 26.4901 20.3047C26.9274 20.0944 27.2837 19.6574 27.2513 19.1881C27.2189 18.6864 26.814 18.3304 26.5063 17.942C24.9515 16.1133 25.0973 13.4592 25.1459 11.0641C25.1459 10.7566 25.1459 10.433 25.0001 10.1579C24.8381 9.8666 24.5304 9.67239 24.2713 9.46201C23.8178 9.12216 23.4291 8.70138 23.1214 8.23207C23.3049 8.25365 23.4884 8.26447 23.672 8.26447C24.6762 8.24829 25.7937 7.92461 26.2472 7.03453C26.3606 6.79178 26.4253 6.53287 26.5711 6.32249C26.7007 6.12829 26.9112 5.98264 27.138 5.99882C27.7534 5.65898 28.4822 5.69133 29.1786 5.65896C29.8427 5.62659 30.5391 5.5133 30.9926 5.04399C31.1708 4.86597 31.2841 4.63942 31.4461 4.44522C31.7376 4.10537 32.1425 3.84646 32.5798 3.73317C33.1143 3.58753 33.6973 3.66843 34.2156 3.44187C34.41 3.34477 34.5881 3.21531 34.7663 3.08585C35.3169 2.746 35.9324 2.50324 36.564 2.42232C37.0013 2.35759 37.4386 2.35759 37.8597 2.3414C38.5237 2.30904 39.1877 2.22813 39.8518 2.14721C40.4672 2.07169 41.0881 1.99615 41.7143 1.92063C41.9411 1.90444 42.1841 1.85591 42.346 1.69408C42.4756 1.54843 42.5242 1.33803 42.6537 1.19238C42.8319 0.998183 43.1072 0.94965 43.3501 0.965833C43.6093 0.982016 43.8522 1.07912 44.0952 1.12766C44.6458 1.24095 45.2127 1.16004 45.7472 1.01439C46.6704 0.868742 47.7393 0.593619 48.6138 1.04675C48.9539 1.24095 49.2455 1.53223 49.618 1.67788C50.2011 1.88826 50.8651 1.69408 51.4319 1.41897C51.9988 1.16004 52.5495 0.820176 53.1811 0.755443C53.7156 0.706894 54.2338 0.852543 54.7683 0.836359C55.5457 0.803993 56.3394 0.415612 57.0682 0.690726C57.4569 0.836375 57.7808 1.17621 58.2019 1.24094C58.6716 1.33804 59.1736 1.06295 59.6433 1.14386C59.8053 1.16005 59.9672 1.22475 60.113 1.2733C60.5017 1.35421 60.9066 1.2733 61.2791 1.11147C60.966 1.5646 60.6528 2.01775 60.3397 2.47088C60.0968 2.82691 59.8539 3.23146 59.9835 3.61986C60.0968 3.99207 60.5341 4.26721 60.4855 4.65561C60.4532 4.88217 60.2749 5.04398 60.194 5.23818C60.0482 5.54566 60.1292 5.90171 60.194 6.22537C60.3397 6.9698 60.4207 7.71423 60.4369 8.45866C60.4693 9.39728 60.3397 10.433 59.6433 11.0641C59.1089 11.5496 58.2828 11.6953 57.8293 12.2779C57.6836 12.4721 57.5702 12.7148 57.5054 12.9576C57.1167 14.2846 57.6026 15.8058 58.6716 16.6635C59.0927 17.0034 59.6271 17.2623 59.87 17.7478C59.9672 17.9258 60.0159 18.1362 60.0806 18.3304C60.3074 18.9292 60.7285 19.447 61.2791 19.7707C61.4897 19.9002 61.7326 19.9973 61.9432 20.1429C62.7206 20.677 62.9311 21.7127 63.1417 22.6513C63.5142 24.3829 64.1134 26.066 64.8908 27.6681C64.4373 27.9756 64.081 28.364 64.162 28.8818C64.243 29.2702 64.5669 29.5616 64.826 29.869C65.6034 30.7915 65.7492 32.0537 65.8788 33.2513C65.9112 33.494 65.9274 33.7692 65.8302 33.9957C65.6845 34.4003 65.1985 34.6592 65.15 35.0962C65.069 35.792 66.0731 36.1157 66.2675 36.7792C66.559 37.7664 64.9718 38.4785 65.1175 39.498C65.2147 40.2263 66.1865 40.6956 66.0569 41.4076C65.9436 42.0873 65.0042 42.233 64.5831 42.7832C64.162 43.3172 64.3726 44.1264 64.7613 44.6928C65.15 45.2592 65.7007 45.7285 65.9922 46.3597C66.4457 47.3954 66.1703 48.771 67.0287 49.5154C68.0491 50.3893 69.7496 49.564 70.9157 50.2437C72.0819 50.9234 72.1304 52.7521 73.2317 53.4803Z" fill="#F1F1F1" stroke="#BABABA" stroke-width="1.18548" stroke-linecap="round" stroke-linejoin="round"/>
</svg>
