<svg width="28" height="33" viewBox="0 0 28 33" fill="none" xmlns="http://www.w3.org/2000/svg">
<path d="M26.636 28.9937C26.5064 29.1717 26.3444 29.3336 26.2311 29.5278C26.2095 29.5601 26.1932 29.5925 26.1824 29.6248C25.9395 29.6734 25.7128 29.7381 25.5185 29.8676C25.3241 30.0132 25.1783 30.1913 25.0002 30.3531C24.822 30.4987 24.5953 30.6282 24.3523 30.5958C24.0608 30.5635 23.8503 30.3046 23.6235 30.1265C23.3644 29.9162 23.0242 29.7867 22.7003 29.819C22.3602 29.8514 22.0363 30.0456 21.8905 30.3369C21.6476 30.871 21.9391 31.6154 21.518 32.02C21.2427 32.2789 20.7892 32.2303 20.4653 32.0523C20.1414 31.8743 19.8822 31.583 19.5907 31.3403C19.2182 31.049 18.7809 30.8386 18.3436 30.6282C18.6189 30.5958 18.8943 30.4987 19.0886 30.3045C19.4611 29.9161 19.3963 29.285 19.1372 28.8319C18.959 28.5244 18.6838 28.2169 18.7162 27.8609C18.7647 27.3268 19.4287 27.1165 19.7203 26.6795C20.1575 26.0484 19.7365 25.1583 19.1696 24.6566C18.5866 24.1549 17.8415 23.8151 17.3881 23.2001C16.5135 21.9864 17.0642 20.2062 16.3677 18.8792C16.1086 18.3775 15.6712 17.9729 15.2501 17.5684C14.7967 17.1476 14.3378 16.7215 13.8735 16.2899C13.4362 15.8853 12.837 15.4484 12.2863 15.7073C11.9624 15.8691 11.8005 16.2252 11.5899 16.5165C10.9259 17.4551 9.56535 17.7949 8.52881 17.3095C8.1725 17.1314 7.86479 16.8725 7.49228 16.7106C7.13597 16.565 6.66629 16.5327 6.35856 16.7754C6.18041 16.9372 6.08325 17.18 5.96987 17.3904C5.58117 18.1024 4.90092 18.6041 4.25308 19.0896C4.05873 19.2353 3.84818 19.3809 3.60524 19.3809C3.23274 19.3809 2.9736 18.9763 2.9574 18.6041C2.9574 18.2319 3.11936 17.892 3.28132 17.5522C3.70242 16.6459 4.04258 15.7073 4.30172 14.7363C4.49607 13.9919 4.64177 13.1666 4.31785 12.4545C4.02632 11.791 3.29752 11.3216 2.5525 11.3378C2.35815 11.3378 2.14762 11.3702 2.00186 11.2408C1.8237 11.0951 1.83991 10.82 1.85611 10.5934C1.93709 9.52534 1.43497 8.42488 0.592773 7.76137C0.603571 7.729 0.619814 7.69121 0.641409 7.64805C0.997721 6.83889 1.74275 6.30486 2.3582 5.67371C2.84408 5.17203 3.24896 4.58944 3.55669 3.97448C3.76724 4.00684 3.96157 4.08778 4.10734 4.23342C4.2693 4.41144 4.3179 4.67035 4.44747 4.86455C4.77139 5.38242 5.58119 5.46336 6.06707 5.09114C6.55295 4.71893 6.69873 3.99068 6.48818 3.42426C6.24524 2.79312 5.62977 2.33997 5.50021 1.62791C5.43542 1.32043 5.51642 0.980595 5.75936 0.786396C6.26143 0.34945 7.00639 0.802579 7.63803 0.70548C8.01054 1.49846 8.59366 2.19432 9.32248 2.71218C9.92173 3.13294 10.6991 3.53756 10.7639 4.28198C10.8287 4.79984 10.4561 5.33388 10.5695 5.85174C10.6181 6.14304 10.8124 6.38579 11.0392 6.57999C11.6384 7.08167 12.5293 7.22731 13.2743 6.93601C13.582 6.80654 13.8735 6.61234 14.1974 6.48287C14.5213 6.36959 14.8939 6.33723 15.1854 6.53143C15.8656 7.00074 15.4284 8.37632 16.1896 8.6838C16.5135 8.81327 16.8859 8.68381 17.1937 8.81328C17.5176 8.94274 17.6634 9.34731 17.5986 9.68715C17.5338 10.027 17.307 10.3183 17.0317 10.5287C16.7078 10.8038 16.3029 10.998 15.8819 11.0951C15.4122 11.2084 14.8938 11.2084 14.4403 11.4187C13.9869 11.6291 13.6468 12.1794 13.8897 12.6163C14.0193 12.8267 14.2622 12.94 14.489 13.0533C15.2988 13.4578 16.06 13.9595 16.7726 14.5421C17.793 15.3836 18.6675 16.4032 19.5421 17.4227C20.0927 18.0593 20.6434 18.7012 21.1941 19.3485C21.6638 19.8826 22.1496 20.4328 22.5383 21.0316C23.1376 21.9055 23.6235 22.9412 24.5791 23.3943L25.2593 23.7342C25.5508 23.8636 26.0367 23.9769 26.0367 24.2682C26.0529 24.5595 25.8747 24.8184 25.7128 25.0612C25.567 25.3039 25.4374 25.5952 25.5346 25.8703C25.6318 26.1616 25.9557 26.3073 26.2149 26.4853C26.9923 27.0355 27.1866 28.2331 26.636 28.9937Z" fill="#F1F1F1" stroke="#BABABA" stroke-width="1.18548" stroke-linecap="round" stroke-linejoin="round"/>
</svg>
