<svg width="25" height="22" viewBox="0 0 25 22" fill="none" xmlns="http://www.w3.org/2000/svg">
<path d="M24.1255 17.8279C23.8232 17.8279 23.5263 17.8117 23.2347 17.7793C22.8784 17.7469 22.5221 17.6984 22.1658 17.747C21.8257 17.8117 21.4694 17.9735 21.3074 18.2972C21.1779 18.5076 21.1617 18.7665 21.1617 19.0254C21.1509 19.2412 21.1401 19.4624 21.1293 19.6889C21.1131 19.7699 21.1131 19.8508 21.0807 19.9317C21.0483 19.9964 20.9997 20.0611 20.9511 20.1097C20.8431 20.2392 20.7406 20.3632 20.6434 20.4819C20.3519 20.1583 20.0603 19.8346 19.7688 19.5109C19.0238 18.6856 18.1168 17.7955 16.9993 17.8602C16.7563 17.8764 16.481 17.9412 16.2705 17.8117C16.1895 17.747 16.1247 17.6499 16.0437 17.5851C15.736 17.3586 15.2825 17.5204 14.8938 17.4071C14.4889 17.2938 14.2459 16.8892 13.9706 16.5494C13.7115 16.2095 13.3714 15.8859 12.9665 16.0477C12.4968 16.2257 12.0109 16.161 11.606 15.8859C11.185 15.6108 10.9096 15.1091 10.9096 14.6074C10.8934 14.4294 10.9258 14.2352 10.861 14.0572C10.6991 13.6688 10.197 13.6202 9.80828 13.5231C8.93369 13.3289 8.22107 12.7463 7.54084 12.1799C7.21692 11.9048 6.87676 11.6135 6.6824 11.2251C6.58523 11.0471 6.52046 10.8691 6.45568 10.6749C6.3585 10.4807 6.26136 10.2865 6.16418 10.0923C5.80787 9.42339 5.45695 8.75448 5.11144 8.08558C4.96568 7.81046 4.78747 7.51917 4.49594 7.43825C4.2854 7.3897 4.05867 7.47063 3.86432 7.55155C3.31365 7.76193 2.74681 8.00468 2.17995 7.87521C1.67787 7.76193 1.25676 7.35734 1.03002 6.87184C0.787078 6.40253 0.706098 5.8685 0.625118 5.35064C0.614321 5.2859 0.603571 5.22116 0.592773 5.15643C0.80872 5.00538 1.03 4.85435 1.25675 4.70331C1.46729 4.57384 1.69409 4.42819 1.95322 4.46056C2.0504 4.46056 2.14753 4.49292 2.22851 4.55766C2.35807 4.63857 2.43912 4.78422 2.53629 4.8975C2.73064 5.10788 3.00593 5.26972 3.29746 5.2859C3.58898 5.2859 3.88051 5.0917 3.9453 4.8004C3.97769 4.71949 3.97769 4.60619 4.02628 4.52528C4.12345 4.33108 4.43121 4.34727 4.62556 4.47674C4.80372 4.62239 4.91706 4.83277 5.07902 4.97841C5.40294 5.25353 5.85646 5.28589 6.24516 5.22116C6.32614 5.20498 6.40709 5.1888 6.45568 5.14025C6.58524 5.02696 6.56903 4.84894 6.60142 4.68711C6.65001 4.26635 7.00634 3.91032 7.42743 3.86177C7.52461 3.84559 7.62182 3.84558 7.7028 3.79703C7.91335 3.66757 7.79996 3.34392 7.76757 3.10117C7.70278 2.79369 7.78375 2.47002 7.99429 2.21109C8.04288 2.14636 8.12391 2.08163 8.20489 2.04926C8.31826 2.01689 8.43157 2.03308 8.54494 2.03308C9.16039 2.06545 9.71112 1.67705 10.1484 1.2401C10.3428 1.02972 10.5371 0.803155 10.7314 0.592773C11.0067 0.948804 11.4441 1.14301 11.8328 1.38575C12.6264 1.87125 13.2418 2.63184 14.0192 3.14971C15.0396 3.8294 16.3191 4.05597 17.5176 3.78085C17.7929 3.71612 18.0682 3.61903 18.3597 3.58666C18.6027 3.5543 18.8618 3.57048 19.121 3.57048C19.4665 4.70331 19.866 5.81994 20.3195 6.9204C20.4328 7.19551 20.5462 7.48682 20.6434 7.77811C20.4004 7.68102 20.1899 7.55155 19.947 7.47063C19.5583 7.32498 19.121 7.34117 18.6999 7.29262C18.0196 7.19552 17.388 6.90422 16.7078 6.8233C16.3353 6.79094 15.9627 6.80712 15.6064 6.80712C14.2783 6.77476 12.9503 6.28925 11.6708 6.61291C11.023 6.77474 10.3751 7.13078 9.7273 6.98513C9.51675 6.93658 9.32235 6.83947 9.1118 6.79092C8.90125 6.75856 8.64218 6.79094 8.52881 6.96896C8.38305 7.17934 8.48021 7.48682 8.35064 7.6972C8.30205 7.77811 8.22104 7.84285 8.15625 7.93995C7.9619 8.21506 8.09149 8.61963 8.33443 8.86238C8.57737 9.08895 8.91747 9.2184 9.20899 9.38023C9.9864 9.81718 10.5533 10.5778 10.7638 11.4193C10.7962 11.565 10.8286 11.6944 10.8934 11.8077C11.0391 12.0343 11.3145 12.1152 11.5574 12.2285C12.8693 12.7949 13.5009 14.2514 14.5699 15.19C15.3311 15.8697 16.319 16.2743 16.9831 17.0511C17.1288 17.2291 17.307 17.4557 17.5499 17.4557C17.7929 17.4395 17.9711 17.1967 17.9873 16.954C18.0196 16.7274 17.9387 16.4847 17.9063 16.2581C17.8577 16.0153 17.8577 15.7564 18.0035 15.5622C18.133 15.3842 18.3598 15.3195 18.5541 15.2224C18.9266 15.0606 19.2344 14.7692 19.4611 14.4294C19.5421 14.2838 19.6068 14.1381 19.7526 14.0572C19.866 13.9763 20.0117 13.9601 20.1575 13.9439C20.5138 13.9223 20.8647 13.9061 21.2102 13.8953C21.3236 14.2352 21.4855 14.5427 21.7447 14.7692C22.4573 15.4651 23.834 15.546 24.0445 16.517C24.1255 16.9054 23.9474 17.3424 24.077 17.7146C24.0878 17.7577 24.1039 17.7955 24.1255 17.8279Z" fill="#F1F1F1" stroke="#BABABA" stroke-width="1.18548" stroke-linecap="round" stroke-linejoin="round"/>
</svg>
