<svg width="25" height="14" viewBox="0 0 25 14" fill="none" xmlns="http://www.w3.org/2000/svg">
<path d="M23.4797 2.69659C23.4797 2.84224 23.4311 2.9717 23.3663 3.11735C23.1396 3.66758 22.6051 4.10453 22.0059 4.23399C21.8115 4.28254 21.601 4.28255 21.4228 4.36347C21.0341 4.54148 20.8397 4.97842 20.7425 5.38299C20.6454 5.78757 20.5968 6.22452 20.3701 6.58055C20.2405 6.79094 20.0299 6.96896 19.9327 7.2117C19.8518 7.38972 19.8518 7.60009 19.8518 7.81047C19.868 8.42544 19.9813 9.0404 20.1595 9.63918C20.2081 9.8172 20.2729 9.9952 20.3701 10.157C20.4133 10.2218 20.4618 10.2865 20.5158 10.3512C19.9813 10.4322 19.4307 10.3998 18.9124 10.2541C18.4427 10.1247 18.0054 9.89811 17.5196 9.88193C17.2118 9.86575 16.9041 9.94666 16.6126 10.0438C16.0295 10.238 15.4951 10.5293 15.0092 10.8853C14.4585 11.2899 13.9726 11.7915 13.6001 12.3418C13.3895 12.6654 13.179 13.0215 12.8389 13.2157C12.5798 13.3613 12.272 13.3775 11.9805 13.3775C11.0573 13.3613 10.1504 13.1024 9.35679 12.6493C9.11385 12.5198 8.88709 12.358 8.61176 12.2932C8.09349 12.1799 7.5752 12.4065 7.05693 12.5198C6.34431 12.6492 5.5831 12.536 4.95145 12.1799C4.44938 11.8886 4.02826 11.4679 3.55858 11.1118C3.12129 10.772 2.63547 10.4969 2.16579 10.1894C2.09021 10.1355 2.01456 10.0869 1.93898 10.0438C1.4369 9.67155 0.96722 9.20223 0.724281 8.61963C0.724281 8.59806 0.718945 8.58188 0.708148 8.5711C0.481404 7.95613 0.578532 7.19551 1.06441 6.77475C1.30735 6.54818 1.64748 6.4349 1.89042 6.20833C2.36011 5.78757 2.4411 5.01078 2.0686 4.5091C1.79326 4.1207 1.30734 3.91032 1.0482 3.52193C0.675693 2.9717 0.82152 2.22728 1.11305 1.64468C1.2912 1.27247 1.53411 0.948804 1.72846 0.592773C1.84184 1.35338 2.10094 2.04926 2.74878 2.37292C3.04031 2.51857 3.36428 2.55095 3.6882 2.58331C5.09725 2.72896 6.53867 2.89078 7.96392 2.80986C8.98427 2.76131 10.037 2.59948 11.0412 2.80986C11.5918 2.92315 12.1587 3.14971 12.677 2.95552C12.9199 2.85842 13.1143 2.66423 13.3248 2.5024C14.8958 1.22393 17.1147 0.803151 19.0582 1.41811C20.532 1.88742 21.9572 2.93934 23.4797 2.69659Z" fill="#F1F1F1" stroke="#BABABA" stroke-width="1.18548" stroke-linecap="round" stroke-linejoin="round"/>
</svg>
