<svg width="12" height="8" viewBox="0 0 12 8" fill="none" xmlns="http://www.w3.org/2000/svg">
<path d="M3.58922 4.115C4.11828 4.47103 4.64199 4.83245 5.16026 5.19927C5.48418 5.40965 5.80808 5.63621 6.19679 5.68476C6.47212 5.73331 6.76368 5.66859 7.03901 5.73332C7.4601 5.83042 7.76783 6.18645 8.09175 6.46156C8.38328 6.70431 8.70715 6.93087 9.09585 6.97942C9.53314 7.04415 9.98668 6.86614 10.3592 6.62339C10.6831 6.39683 10.9908 6.12172 11.0718 5.73332C11.1528 5.34492 10.9746 4.92417 10.6831 4.64905C10.4888 4.45485 10.2296 4.29301 10.1648 4.03408C10.1162 3.8237 10.2134 3.6295 10.3268 3.46767C10.4563 3.28966 10.6021 3.16021 10.7317 2.99837C11.0718 2.57761 11.169 1.99499 10.9908 1.47713C10.9422 1.36385 10.8936 1.25057 10.8126 1.15347C10.6993 1.024 10.5374 0.959293 10.3754 0.89456C9.67897 0.635629 8.88537 0.635629 8.18894 0.89456C7.86502 1.02403 7.57346 1.18586 7.26574 1.29914C6.40735 1.6228 5.40317 1.54187 4.56097 1.12111C4.26945 0.991643 3.99415 0.813628 3.70262 0.716529C3.28152 0.57088 2.82802 0.587071 2.39073 0.603255C1.87246 0.619438 1.27319 0.667995 0.916876 1.05639C0.706329 1.31532 0.625349 1.65514 0.592957 1.99499C0.592957 2.15682 0.592957 2.31867 0.673937 2.46432C0.754916 2.64234 0.933104 2.75562 1.11126 2.8689C1.59714 3.14402 2.01825 3.30585 2.58511 3.51623C2.69308 3.55938 2.80106 3.61333 2.90903 3.67806L3.58922 4.115Z" fill="#F1F1F1" stroke="#BABABA" stroke-width="1.18548" stroke-linecap="round" stroke-linejoin="round"/>
</svg>
