<svg width="22" height="25" viewBox="0 0 22 25" fill="none" xmlns="http://www.w3.org/2000/svg">
<path d="M20.8164 8.97567C20.7354 9.13751 20.5897 9.25076 20.4763 9.39641C20.201 9.75244 20.1686 10.2379 20.0714 10.6911C19.8608 11.7592 19.1806 12.6816 18.3708 13.4099C17.561 14.1381 16.6054 14.6721 15.6499 15.2224C15.1478 15.4975 14.6457 15.7888 14.095 15.9182C13.6901 16.0315 13.2529 16.0477 12.848 16.1124C11.3255 16.4037 10.0137 17.5204 9.4468 18.9445C9.0743 19.9155 9.02572 20.9836 8.65322 21.9546C8.2969 22.9094 7.43849 23.848 6.40195 23.7671C6.28858 23.7671 6.17522 23.7348 6.09424 23.67C5.94848 23.5891 5.88368 23.4272 5.83509 23.2816C5.65693 22.8123 5.49497 22.3106 5.18725 21.9222C4.87953 21.5176 4.39365 21.2101 3.89157 21.2911C3.42189 21.3558 2.98459 21.7442 2.51491 21.6471C2.02903 21.55 1.8023 20.8541 2.12622 20.4819C2.43395 20.1421 3.01701 20.1582 3.30854 19.8022C3.61626 19.4138 3.43811 18.8312 3.14658 18.4428C3.00081 18.2325 2.80645 18.0221 2.64449 17.8117C2.73086 17.7685 2.81184 17.72 2.88743 17.666C3.30852 17.4233 3.74581 17.1644 3.97255 16.7274C4.10212 16.4523 4.1345 16.1448 4.00493 15.8697C3.61623 15.0605 2.25577 15.4489 1.57553 14.834C1.52155 14.7908 1.47839 14.7423 1.446 14.6883C0.911531 14.041 0.636167 13.2318 0.603775 12.3903C0.555187 11.2251 0.652395 10.0761 1.20306 9.07275C1.57557 8.42542 2.11002 7.90758 2.48253 7.27644C3.35711 5.7714 3.30851 3.69996 4.65277 2.63187C5.54355 1.90363 6.9526 1.72561 7.40609 0.689888C7.41689 0.657522 7.42772 0.62514 7.43852 0.592773C7.74624 0.835521 8.08632 1.01354 8.45883 1.12683C8.66938 1.19156 8.91235 1.25628 9.05812 1.43429C9.20388 1.62849 9.20386 1.9036 9.28484 2.11398C9.54398 2.72894 10.3862 2.74513 11.0178 2.97169C12.524 3.47337 13.3986 5.54481 14.9858 5.43153C15.5851 5.39917 16.1196 5.02695 16.6702 4.7842C17.2209 4.54146 17.9335 4.44436 18.3708 4.86512C18.6947 5.1726 18.7757 5.67431 19.132 5.94943C19.3264 6.11126 19.5855 6.15978 19.8446 6.15978C19.8122 6.64527 19.9418 7.13077 20.2171 7.53535C20.5411 7.98848 21.0593 8.49018 20.8164 8.97567Z" fill="#F1F1F1" stroke="#BABABA" stroke-width="1.18548" stroke-linecap="round" stroke-linejoin="round"/>
</svg>
