<svg width="29" height="29" viewBox="0 0 29 29" fill="none" xmlns="http://www.w3.org/2000/svg">
<path d="M1.35568 26.0094C2.00352 26.5273 3.15339 26.3655 3.41253 25.5725C4.17914 26.1012 4.97277 26.5867 5.79337 27.029C6.8785 27.5954 8.0284 28.0971 9.2593 28.1456C10.474 28.1942 11.7859 27.7087 12.4499 26.6891C12.5957 26.4464 12.7252 26.1875 12.9034 25.9771C13.1625 25.6696 13.535 25.4916 13.8752 25.265C16.094 23.8409 16.7743 20.9603 17.6327 18.4681C17.9242 17.6589 18.3453 16.7689 19.1551 16.5261C19.398 16.4614 19.6409 16.4614 19.8515 16.3319C20.2564 16.0891 20.3212 15.4904 20.1106 15.0696C19.9972 14.8269 19.8029 14.6003 19.8515 14.3575C19.9486 13.8882 20.5965 13.9206 21.0824 13.9368C22.5076 13.9854 23.6413 12.7716 24.4025 11.5578C24.9694 10.6678 25.4553 9.6806 26.3136 9.04945C26.9129 8.59632 27.7066 8.32122 28.0791 7.64152C28.4192 7.01038 28.2572 6.21741 28.0952 5.50535C27.8469 4.51278 27.5986 3.51482 27.3503 2.51146C27.3341 2.39818 27.2854 2.28489 27.2044 2.22015C27.1072 2.1716 26.9777 2.20399 26.8644 2.23635C26.0384 2.54383 25.3581 3.20732 25.0342 4.03266C24.9046 4.38869 24.7589 4.82565 24.4025 4.89038C23.9329 4.98748 23.6413 4.37254 23.6737 3.90323C23.6899 3.28827 23.9167 2.68948 23.9329 2.07452C23.9491 1.47574 23.6576 0.763681 23.0583 0.618033C22.4429 0.472384 21.876 0.990238 21.4387 1.45955C20.7261 2.22016 19.981 3.06169 19.8515 4.09742C19.7705 4.6962 19.8677 5.39208 19.398 5.7643C19.2684 5.87758 19.0902 5.94229 18.9445 6.0232C17.9727 6.54107 17.6812 7.75483 17.2439 8.75819C15.9158 11.833 12.709 13.5969 9.71275 15.1181C9.21068 15.3771 8.69245 15.636 8.14179 15.8302C7.97983 15.895 7.78549 15.9273 7.59114 15.9597C7.29961 16.0083 7.02422 16.0568 6.79747 16.2348C6.55453 16.4452 6.3926 16.7527 6.26304 17.044C5.69618 18.2415 4.98357 19.4714 3.84985 20.1511C3.31538 20.4748 2.69989 20.6528 2.18161 21.0089C1.27464 21.6076 0.724023 22.6757 0.610651 23.76C0.529671 24.5692 0.707843 25.4916 1.35568 26.0094Z" fill="#F1F1F1" stroke="#BABABA" stroke-width="1.18548" stroke-linecap="round" stroke-linejoin="round"/>
</svg>
