<svg width="27" height="15" viewBox="0 0 27 15" fill="none" xmlns="http://www.w3.org/2000/svg">
<path d="M25.9606 4.58925C25.3614 4.07139 24.4544 4.20086 23.6932 4.00666C23.2235 3.90956 22.8186 3.66681 22.4137 3.40788C22.2194 3.27841 22.0251 3.13276 21.8145 3.0033C21.6364 2.9062 21.4581 2.85765 21.28 2.76055C21.118 2.67963 20.9884 2.53398 20.8589 2.40452C20.7293 2.27505 20.6052 2.14559 20.4864 2.01613C20.2165 1.74641 19.952 1.48208 19.6928 1.22315C19.5147 1.02895 19.3203 0.83475 19.0773 0.73765C18.8506 0.624368 18.5915 0.62437 18.3324 0.608187C17.4902 0.57582 16.5993 0.559639 15.8543 0.964219C15.2551 1.28788 14.8016 1.85429 14.1538 2.04849C13.344 2.29123 12.4046 1.87048 11.6434 2.22651C11.4976 2.29124 11.368 2.37215 11.2385 2.43689C10.6068 2.66345 9.8618 2.27506 9.27874 2.58254C8.85765 2.8091 8.67951 3.31078 8.3232 3.61826C8.06406 3.82864 7.75634 3.94192 7.5134 4.16849C7.27046 4.39505 7.14092 4.79963 7.38386 5.0262C7.57821 5.2204 7.95071 5.2204 8.01549 5.49551C8.08027 5.81918 7.57823 5.91627 7.31909 6.12665C7.18953 6.22375 7.10848 6.3694 7.01131 6.48268C6.73597 6.7578 6.33114 6.83872 5.94243 6.91963C5.14883 7.09765 4.37138 7.35658 3.62636 7.69642C3.36722 7.80971 3.09192 7.97154 3.01094 8.23047C2.89757 8.71596 3.48061 9.07199 3.96649 9.08817C4.45237 9.08817 4.98684 8.92635 5.42413 9.13673C5.66707 9.25001 5.86144 9.47657 6.08818 9.60604C6.67124 9.97825 7.49725 9.86498 7.96693 10.3505C8.12889 10.5123 8.22605 10.755 8.11268 10.9492C7.91833 11.2729 7.43242 11.1111 7.1085 10.9331C6.62262 10.6741 5.99101 10.4799 5.52132 10.7712C5.37556 10.8521 5.24596 10.9816 5.084 11.0302C4.56573 11.192 4.16084 10.5285 3.64257 10.4152C3.04332 10.2857 2.47648 10.8683 1.87722 10.7551C1.47232 10.6741 1.0188 10.3181 0.711081 10.5932C0.516729 10.7712 0.58156 11.1111 0.759716 11.3215C0.921676 11.5157 1.16457 11.6451 1.35892 11.8393C1.66664 12.163 1.82864 12.6323 2.20114 12.8589C2.81659 13.2311 3.70737 12.8103 4.30662 13.2311C4.56576 13.4091 4.71152 13.7004 4.95446 13.8946C5.29458 14.1697 5.8776 14.1211 6.2987 14.1373C6.89795 14.1697 7.4972 14.105 8.08026 13.9755C8.24222 13.9431 8.40422 13.8946 8.53379 13.7813C8.67956 13.6518 8.74429 13.4738 8.89006 13.3282C9.29496 12.875 10.0724 13.1178 10.6231 12.8427C10.7688 12.7779 10.8984 12.6647 10.9146 12.519C10.9793 12.2115 10.623 11.9688 10.6716 11.6613C10.704 11.4186 10.9632 11.2729 11.2061 11.2729C11.4491 11.2567 11.692 11.3376 11.9187 11.3215C12.8095 11.3215 13.3926 10.3019 14.2672 10.2048C14.8178 10.1239 15.4009 10.4314 15.903 10.1886C16.0811 10.1077 16.2431 9.96207 16.4374 9.88116C16.6156 9.81642 16.8099 9.8326 16.9881 9.76787C17.2472 9.68695 17.4416 9.46039 17.6845 9.31474C18.4619 8.79688 19.4985 9.12054 20.4378 9.23383C21.3772 9.34711 22.3166 9.23382 23.2559 9.12054C23.4665 9.10436 23.6932 9.072 23.8228 8.89398C23.9848 8.69979 23.9038 8.40848 23.758 8.1981C23.5961 8.0039 23.3855 7.85826 23.2073 7.68024C23.0453 7.51841 22.9158 7.30802 22.8348 7.09764C22.7538 6.88726 22.7214 6.6607 22.8024 6.45032C22.9806 5.86772 23.758 5.78681 24.3572 5.86772C24.9403 5.93246 25.6529 6.04573 26.074 5.60879C26.1712 5.51169 26.236 5.38223 26.2522 5.23658C26.2846 4.99383 26.1388 4.75108 25.9606 4.58925Z" fill="#F1F1F1" stroke="#BABABA" stroke-width="1.18548" stroke-linecap="round" stroke-linejoin="round"/>
</svg>
