<svg width="7" height="5" viewBox="0 0 7 5" fill="none" xmlns="http://www.w3.org/2000/svg">
<path d="M0.604917 1.61772C0.653505 1.81192 0.799285 1.97375 0.945049 2.10322C1.09081 2.23268 1.26894 2.34597 1.3985 2.5078C1.65764 2.78291 1.78721 3.18748 2.12732 3.34932C2.40266 3.47878 2.72658 3.39789 3.0181 3.41407C3.4392 3.44644 3.8279 3.62444 4.2328 3.72154C4.6377 3.81864 5.12362 3.80247 5.39895 3.49499C5.5771 3.31697 5.64187 3.05803 5.62568 2.7991C5.62568 2.55636 5.54468 2.31358 5.4475 2.08702C5.36652 1.89282 5.26938 1.69864 5.07503 1.61772C4.94546 1.56917 4.79968 1.58536 4.65392 1.58536C4.2976 1.61773 3.93594 1.6231 3.56883 1.60152C3.32589 1.60152 3.0829 1.56917 2.87236 1.45589C2.6942 1.34261 2.56468 1.19694 2.43511 1.03511C2.33794 0.905646 2.27315 0.711448 2.11119 0.630532C1.91684 0.549616 1.52809 0.614357 1.33374 0.67909C1.12319 0.760006 0.977472 0.938037 0.815512 1.09987C0.669748 1.24552 0.556329 1.40734 0.604917 1.61772Z" fill="#F1F1F1" stroke="#BABABA" stroke-width="1.18548" stroke-linecap="round" stroke-linejoin="round"/>
</svg>
