<svg width="19" height="7" viewBox="0 0 19 7" fill="none" xmlns="http://www.w3.org/2000/svg">
<path d="M17.8498 3.64569C17.8498 3.56477 17.8013 3.50004 17.7689 3.45149C17.5583 3.12782 17.2992 2.7718 16.9267 2.6747C16.6837 2.60996 16.4084 2.6747 16.1493 2.59378C15.8415 2.4805 15.631 2.15684 15.3395 1.97882C14.8374 1.68752 14.1572 1.84936 13.6713 1.52569C13.4931 1.41241 13.3474 1.23439 13.2016 1.08875C12.7157 0.667982 12.0355 0.5547 11.3876 0.603249C10.756 0.651799 10.1406 0.845995 9.50891 0.975461C9.05542 1.07256 8.58574 1.15348 8.21323 1.41241C7.79214 1.71989 7.4844 2.27012 6.96613 2.35103C6.52884 2.41577 6.12395 2.12447 5.70285 2.01119C5.16839 1.86554 4.60153 2.02737 4.06706 2.17302C3.67836 2.28091 3.29504 2.39419 2.91713 2.51286C2.60941 2.59378 2.31788 2.6747 2.02635 2.82035C1.45949 3.09546 0.989815 3.54859 0.698287 4.115C0.633503 4.26065 0.568723 4.43867 0.601115 4.6005C0.682095 4.94035 1.16797 5.08599 1.42711 5.23164C1.63226 5.33953 1.83741 5.40966 2.04256 5.44203C2.41507 5.49058 2.78758 5.40965 3.17628 5.23164C3.71075 4.98889 4.21282 4.63287 4.81207 4.6005C5.84862 4.53577 6.73939 5.47439 7.77593 5.47439C8.78008 5.4582 9.68706 4.55195 10.6588 4.81088C10.837 4.85943 11.0151 4.95653 11.1933 5.03745C11.9707 5.36111 12.8939 5.34493 13.6713 5.00508C13.8332 4.92416 13.9952 4.84324 14.1733 4.82706C14.4163 4.82706 14.643 4.95653 14.8536 5.03745C15.9387 5.49058 17.3316 4.94035 17.8013 3.87226C17.8336 3.79134 17.866 3.71042 17.8498 3.64569Z" fill="#F1F1F1" stroke="#BABABA" stroke-width="1.18548" stroke-linecap="round" stroke-linejoin="round"/>
</svg>
