<svg width="6" height="4" viewBox="0 0 6 4" fill="none" xmlns="http://www.w3.org/2000/svg">
<path d="M0.628234 1.98774C0.660626 2.14958 0.790179 2.27905 0.935943 2.35997C1.04931 2.4247 1.1627 2.48943 1.27607 2.5218C1.40564 2.53798 1.53518 2.53798 1.64855 2.60271C1.77812 2.66745 1.8429 2.7969 1.97247 2.87782C2.08584 2.95874 2.24782 2.95874 2.39358 2.95874C2.52315 2.95874 2.66893 2.95874 2.81469 2.92638C2.94426 2.87783 3.0576 2.79692 3.18717 2.73219C3.57587 2.47326 3.96461 2.21973 4.35331 1.97158C4.48288 1.89067 4.61245 1.79357 4.67723 1.64792C4.77441 1.45372 4.6772 1.19478 4.48285 1.11387C4.38567 1.06532 4.2723 1.06531 4.15893 1.06531L3.13861 1.04911C2.98745 1.03832 2.83624 1.01135 2.68508 0.968195C2.62029 0.952012 2.53936 0.919669 2.49077 0.87112C2.44219 0.82257 2.40975 0.757837 2.36116 0.709288C2.24779 0.612189 2.10202 0.596013 1.95626 0.596013C1.66473 0.585225 1.37322 0.601376 1.08169 0.644531C1.0331 0.644531 0.984531 0.660746 0.935943 0.676929C0.854963 0.725479 0.790163 0.822562 0.757771 0.903478L0.741559 0.919677C0.628187 1.13006 0.579615 1.3566 0.595811 1.58316C0.595811 1.76118 0.612038 1.92301 0.628234 1.98774Z" fill="#F1F1F1" stroke="#BABABA" stroke-width="1.18548" stroke-linecap="round" stroke-linejoin="round"/>
</svg>
