<svg width="28" height="15" viewBox="0 0 28 15" fill="none" xmlns="http://www.w3.org/2000/svg">
<path d="M21.9728 1.61448C21.406 1.43647 20.7258 1.6954 20.418 2.21326C20.3047 2.39128 20.2399 2.60166 20.0455 2.71494C19.673 2.9415 19.2195 2.48837 19.0738 2.06761C18.928 1.64685 18.8146 1.12899 18.3935 0.967155C17.7295 0.724407 17.0007 1.67922 16.4014 1.32319C16.1099 1.17754 15.9965 0.805319 15.7212 0.65967C15.4621 0.530205 15.1543 0.611119 14.879 0.708218C14.0368 0.999516 13.1892 1.29082 12.3362 1.58211C11.9637 1.6954 11.5102 1.98669 11.656 2.35891C11.737 2.58547 12.0123 2.65021 12.2552 2.71494C14.0692 3.20043 15.4297 4.67311 16.6606 6.09723C16.8711 6.33998 17.0817 6.72837 16.8387 6.93875C16.6768 7.10058 16.4014 7.01966 16.2071 6.93875C15.3325 6.56653 14.5389 6.00013 13.9073 5.30425C13.47 4.83494 13.0975 4.30089 12.6116 3.88013C12.1257 3.47555 11.4778 3.18425 10.8462 3.3299C10.5385 3.39463 10.2469 3.57265 9.98781 3.76685C9.58291 4.05814 9.14563 4.49509 9.2752 4.96441C9.35618 5.2557 9.6315 5.48226 9.64769 5.78974C9.66389 6.06486 9.38855 6.32379 9.09703 6.32379C8.8217 6.33997 8.54637 6.14577 8.433 5.88684C8.27104 5.49844 8.36821 5.02914 8.12527 4.68929C7.76896 4.18761 6.94297 4.36563 6.47328 3.96105C6.19795 3.73448 6.08457 3.34608 5.77685 3.16807C5.63108 3.07097 5.45293 3.0386 5.29097 2.97387C5.06422 2.86058 4.88608 2.66638 4.69172 2.48837C3.93051 1.79249 2.84537 1.45265 1.80883 1.61448C1.48491 1.66303 1.1448 1.76013 0.901858 1.98669C0.658918 2.21326 0.513158 2.58547 0.642726 2.89295C0.70751 3.05478 0.837086 3.18425 0.934262 3.3299C1.03144 3.44318 1.08001 3.58883 1.1448 3.7183C1.20958 3.86395 1.30676 3.99341 1.38774 4.13906C1.42013 4.18221 1.45252 4.22537 1.48491 4.26852C1.59828 4.41417 1.71165 4.51127 1.88981 4.59218C2.06797 4.6731 2.29471 4.7702 2.3595 4.98059C2.50526 5.53081 1.27437 5.66028 1.35535 6.22669C1.38775 6.43707 1.61449 6.56654 1.82504 6.5989C2.03559 6.63127 2.24612 6.58273 2.45667 6.58273C3.05592 6.59891 3.5742 7.00349 4.04388 7.39188C4.43259 7.71555 4.82128 8.03921 5.20999 8.36288C5.33956 8.49234 5.48533 8.60562 5.66348 8.67035C6.03599 8.816 6.55426 8.68653 6.8134 8.99401C7.02394 9.26913 6.87819 9.70608 7.08874 9.9812C7.18592 10.0945 7.31547 10.1754 7.46124 10.2401C7.97951 10.4991 8.56257 10.758 9.11324 10.6123C9.58292 10.4991 9.93923 10.143 10.4089 10.0621C10.83 9.96501 11.2673 10.1268 11.6884 10.2239C12.1095 10.321 12.6116 10.3372 12.9193 10.0136C13.0489 9.88409 13.1136 9.72226 13.2756 9.60897C13.7615 9.26913 14.3769 9.98119 14.9924 9.93264C15.5592 9.90027 15.9803 9.17203 16.5472 9.28531C16.8873 9.36623 17.0817 9.77081 17.0007 10.1107C16.9035 10.4505 16.5958 10.6933 16.2557 10.7742C15.9803 10.8551 15.6726 10.8227 15.3973 10.9198C15.1219 11.0007 14.8628 11.292 14.96 11.5671C15.0896 11.9232 15.6564 11.9555 15.7698 12.3116C15.8508 12.5543 15.6726 12.7971 15.6402 13.0398C15.5916 13.3958 15.8508 13.7195 16.1585 13.8813C16.4824 14.0432 16.8387 14.0594 17.195 14.0755C18.7498 14.1511 20.3047 14.2266 21.8595 14.3021C22.7017 14.3506 23.7382 14.2697 24.0945 13.5091C24.1593 13.3635 24.2079 13.2016 24.3213 13.0884C24.548 12.878 24.9529 12.9751 25.1635 12.7647C25.4712 12.4734 25.1797 11.9879 24.8719 11.7128C24.5642 11.4539 24.1917 11.0655 24.3861 10.6933C24.5804 10.2887 25.1959 10.4181 25.5522 10.6933C25.6979 10.8227 25.8437 10.9522 26.0218 11.0007C26.4267 11.0655 26.7183 10.58 26.7507 10.1754C26.7831 9.59279 26.5077 9.0102 26.0542 8.63798C25.9409 8.55707 25.8113 8.47616 25.7303 8.36288C25.617 8.20104 25.6007 7.99066 25.6169 7.78028C25.7141 6.95493 26.4429 6.14577 26.0542 5.40134C25.8437 4.98058 25.3578 4.7702 25.1797 4.33326C25.0177 3.91249 25.2282 3.37845 25.0339 2.95769C24.8881 2.60166 24.4832 2.42364 24.1107 2.34273C23.7382 2.26181 23.3495 2.26181 22.9932 2.11616C22.6369 1.98669 22.3454 1.72777 21.9728 1.61448Z" fill="#F1F1F1" stroke="#BABABA" stroke-width="1.18548" stroke-linecap="round" stroke-linejoin="round"/>
</svg>
