<svg width="51" height="30" viewBox="0 0 51 30" fill="none" xmlns="http://www.w3.org/2000/svg">
<path d="M36.055 9.8995C36.0766 9.8995 36.1036 9.89411 36.136 9.88332C36.7191 9.78622 37.3831 9.86713 37.8204 10.3041C38.1605 10.6439 38.3387 11.097 38.6464 11.4531C39.1646 12.0519 39.9583 12.2946 40.6385 12.6992C41.3026 13.12 41.918 13.8644 41.6913 14.6088C41.6265 14.8677 41.4483 15.1105 41.4645 15.3694C42.1933 15.2076 42.8736 14.803 43.6348 14.7545C44.3798 14.6897 45.2706 15.1914 45.2382 15.9358C45.222 16.2433 45.0438 16.5346 45.06 16.8421C45.0762 17.1658 45.303 17.4409 45.5783 17.6189C46.0804 17.9264 46.712 17.9102 47.3112 17.8454C48.0724 17.7807 48.8661 17.6674 49.5139 18.1853C49.8702 18.4604 50.016 18.9297 49.8378 19.3505C49.4815 20.2082 48.121 19.9169 47.3922 20.4995C46.8739 20.9041 46.7282 21.6809 46.1775 22.0045C45.5135 22.3767 44.6551 21.9398 43.9263 22.1825C43.3594 22.3929 43.0031 22.9755 42.3715 23.0726C42.1933 23.105 42.0151 23.0726 41.8694 22.9755C41.1405 22.49 42.0313 21.1792 41.3025 20.8393C41.1243 20.7584 40.93 20.7584 40.7519 20.8393C39.6829 21.2439 38.5816 21.8265 37.4317 21.697C36.8 21.6161 36.1036 21.2601 36.3142 20.4024C36.3466 20.2837 36.3951 20.1758 36.4599 20.0787C36.7838 19.4961 37.2697 19.0268 37.8366 18.7355C38.1443 18.5737 38.4682 18.4604 38.6626 18.1691C38.776 18.0073 38.8083 17.7969 38.7274 17.6189C38.5978 17.3438 38.2901 17.2952 37.9662 17.3276C37.7071 17.36 37.4155 17.2952 37.2049 17.1172C36.8162 16.7773 36.4599 16.4051 36.0874 16.0329C35.8715 15.8279 35.6555 15.6176 35.4396 15.4018C35.3316 15.3047 35.2237 15.2022 35.1157 15.0943C35.0671 15.0457 34.808 14.8677 34.808 14.803C34.5488 14.5441 34.2897 14.2851 34.2087 13.9291C34.1763 13.7511 34.1763 13.5731 34.2572 13.4274C34.4354 13.0876 34.7755 13.0714 35.0833 13.039C35.418 13.0067 35.7527 12.9473 36.0874 12.861C36.2494 12.8125 36.4275 12.7477 36.4761 12.5535C36.5247 12.3755 36.4275 12.1975 36.2817 12.0842C36.0064 11.89 35.6502 11.9871 35.3748 12.149C35.1319 12.2784 34.9051 12.4564 34.6298 12.5374C33.7876 12.8287 32.6701 12.1813 32.0384 12.8125C31.8765 12.9743 31.7955 13.1847 31.6821 13.3627C31.5525 13.5731 31.3906 13.7673 31.2772 13.9938C31.099 14.3661 31.0991 14.803 31.0829 15.2238C31.0667 15.9682 30.9209 16.8097 30.3379 17.279C30.0139 17.5218 29.6091 17.6512 29.3013 17.9264C28.7993 18.3957 28.7668 19.1725 28.6858 19.8683C28.6049 20.5642 28.3295 21.3572 27.6493 21.5352C27.3092 21.6323 26.9043 21.5352 26.5804 21.697C26.4022 21.7941 26.2726 21.9722 26.1593 22.134C25.8191 22.6518 25.5438 23.2021 25.3495 23.7847C25.2523 24.0922 25.1713 24.4158 24.9608 24.6424C24.8312 24.8042 24.6369 24.9175 24.5235 25.0955C24.4101 25.2735 24.3778 25.4839 24.3616 25.6943C24.3076 26.2122 24.2482 26.7354 24.1834 27.2641C24.1672 27.4906 24.1348 27.7496 24.0052 27.9438C23.8756 28.1541 23.6651 28.2836 23.4384 28.3645C22.418 28.7529 21.2681 28.2674 20.3611 27.6848C19.3894 27.0537 18.4986 26.2931 17.705 25.4354C17.6078 25.3383 17.3163 25.047 17.1057 24.8204C16.717 24.4158 16.1664 24.2054 15.5833 24.2216C14.8707 24.2378 14.1742 23.9465 13.7855 23.3477C13.2996 22.6195 12.1011 22.5386 11.5991 21.6647C11.5181 21.5514 11.4695 21.4057 11.4533 21.2763C11.3723 20.4024 12.3117 20.014 13.0891 20.0625C14.1743 20.1273 15.1622 20.7422 16.2474 20.8717C16.5227 20.9041 16.8789 20.8555 16.9275 20.5804C16.9599 20.4509 16.8952 20.3053 16.8142 20.2244C16.5389 19.9654 16.1501 20.014 15.8748 19.7712C15.7776 19.6903 15.7129 19.5609 15.729 19.4314C15.7614 18.9459 16.6684 18.9621 16.6846 18.4928C15.8586 18.4604 15.0489 18.7032 14.2391 18.9135C13.4293 19.1077 12.587 19.2696 11.7772 19.0592C10.9836 18.8488 10.2548 18.1691 10.2224 17.3438C10.2224 17.1658 10.2548 16.9715 10.3358 16.8259C10.5626 16.4213 11.097 16.3242 11.5667 16.2595C12.7112 16.13 13.8557 15.9682 15.0002 15.774C15.4861 15.6931 16.0044 15.596 16.4417 15.3694C17.0247 15.0619 17.4782 14.5279 18.1099 14.3499C18.9359 14.1233 19.8104 14.5764 20.6688 14.447C20.7174 14.4308 20.7984 14.4146 20.8308 14.3661C20.847 14.3175 20.847 14.269 20.8308 14.2204C20.685 13.5407 19.9562 13.039 19.2598 13.1523C18.6444 13.2494 18.0775 13.7673 17.462 13.6702C17.1219 13.6216 16.8304 13.3951 16.5875 13.1523C16.4903 13.0714 16.3769 12.9581 16.3607 12.8287C16.2959 12.5212 16.636 12.2946 16.879 12.1166C17.1381 11.9386 17.3648 11.5178 17.0895 11.356C17.0085 11.2913 16.879 11.2913 16.7818 11.3074C16.3769 11.356 16.0206 11.5664 15.7615 11.8577C15.6319 12.0195 15.5185 12.1975 15.3566 12.2784C14.8545 12.5535 14.158 11.9871 13.7045 12.3432C13.2511 12.683 13.6883 13.4598 13.4454 13.9777C13.332 14.2042 13.1377 14.3499 12.9272 14.4632C11.5829 15.2885 9.94709 15.6284 8.37608 15.3856C8.14934 15.3532 7.92258 15.3047 7.71203 15.1914C7.4529 15.0458 7.24233 14.803 7.04798 14.5764C6.87522 14.3715 6.6971 14.1665 6.51354 13.9615C5.83331 13.217 5.12607 12.4996 4.39185 11.8091C3.72782 11.1942 2.85322 10.741 2.35114 9.99659C2.17299 9.70529 2.25401 9.30072 2.56174 9.15507C2.7237 9.05797 2.91803 9.02561 3.11239 9.04179C3.42011 9.07416 3.744 9.25217 4.05172 9.15507C4.45662 9.00943 4.56999 8.47537 4.86152 8.16789C5.00729 8.00606 5.20164 7.90896 5.3474 7.76331C5.50936 7.56911 5.57419 7.26163 5.31506 7.11599C5.21788 7.05125 5.0883 7.05125 4.97493 7.08362C4.50524 7.21308 4.08418 7.55293 3.87363 8.00606C3.80885 8.13553 3.76026 8.28118 3.63069 8.34591C3.54971 8.39446 3.4525 8.37827 3.35533 8.37827C3.02061 8.35669 2.68052 8.32972 2.33501 8.29736C2.17305 8.28117 1.97863 8.26499 1.86526 8.13552C1.78428 8.05461 1.76812 7.92514 1.73573 7.81186C1.4442 6.64667 0.488635 5.64332 0.602007 4.46195C0.634399 4.04118 0.828783 3.6366 1.03933 3.26439C1.13651 3.10256 1.24988 2.92454 1.44423 2.84363C1.5576 2.81126 1.68711 2.81126 1.78428 2.89218C2.05961 3.08637 1.80049 3.58805 2.12441 3.76606C2.27018 3.84698 2.46451 3.81462 2.59408 3.70134C2.96659 3.41004 3.22574 2.98927 3.58205 2.69798C3.88978 2.45523 4.31091 2.29339 4.66722 2.42286C5.08831 2.55233 5.44459 3.02164 5.84949 2.87599C6.07624 2.79507 6.18966 2.55233 6.38401 2.40668C6.64314 2.21248 7.0156 2.22867 7.30713 2.32576C7.61486 2.43905 7.89019 2.60087 8.19791 2.71416C8.6514 2.87599 9.16972 2.85981 9.62321 2.6818C10.0443 2.51996 10.4168 2.21248 10.8379 2.05065C11.34 1.87263 12.0201 1.95355 12.1497 2.53614C12.1983 2.73034 12.1659 2.92454 12.0687 3.08638C11.8582 3.50714 11.4371 3.70133 11.0322 3.84698C10.6111 4.00881 10.1846 4.12749 9.75274 4.20301C9.67176 4.20301 9.59075 4.23538 9.55836 4.30012C9.52597 4.38103 9.60698 4.46194 9.67176 4.52667C10.352 5.08769 11.0322 5.64871 11.7125 6.20973C11.9392 6.38775 12.1659 6.58195 12.4736 6.56576C12.6518 6.56576 12.83 6.46866 12.8947 6.29065C13.0243 5.93462 12.5708 5.61095 12.5708 5.23874C12.587 5.09309 12.6518 4.96362 12.7166 4.83416C13.2025 4.05737 13.8827 3.39385 14.6763 2.94072C14.8707 2.82744 15.0813 2.73034 15.2918 2.73034C15.4862 2.73034 15.6643 2.82744 15.8262 2.90836C16.2797 3.16729 16.6522 3.50713 16.96 3.92789C17.3487 4.47812 17.5916 5.14164 17.8993 5.7566C18.6767 7.14836 19.0168 7.74714 20.1667 8.83141C20.2801 8.92851 20.4259 8.99324 20.5878 8.96087C20.7984 8.91232 20.8308 8.73431 20.847 8.58866C21.0252 6.74378 19.0493 5.38438 18.7739 3.55568C18.7577 3.42622 18.7415 3.28057 18.8063 3.1511C18.8711 3.02164 19.0169 2.92454 19.1626 2.84363C19.6323 2.50378 19.9238 1.92118 19.8914 1.33858C19.8914 1.16057 19.9238 0.966378 20.0372 0.820729C20.3935 0.31905 20.9928 0.739806 21.2681 1.17675C21.511 1.56515 21.7702 2.05064 22.2399 2.06683C22.4666 2.06683 22.6772 1.93737 22.9039 1.87264C23.4546 1.66226 24.0862 1.79171 24.6206 2.06683C25.2361 2.37431 25.722 2.876 26.2241 3.32912C26.3699 3.47477 26.467 3.66897 26.4346 3.87935C26.3374 4.44576 25.4466 4.23538 25.2685 4.78561C25.1875 5.06073 25.3495 5.35202 25.6248 5.4653C26.1269 5.6595 26.5965 5.33583 26.969 5.01217C27.0824 4.89889 27.2121 4.76942 27.3578 4.72088C27.7141 4.59141 28.1028 4.86653 28.3457 5.15782C28.7506 5.57859 29.0583 6.09644 29.2527 6.63049C29.4471 7.13217 29.5928 7.71476 30.0787 7.92515C30.4026 8.05461 30.7589 7.95752 31.1152 7.90897C31.4554 7.86042 31.8603 7.89278 32.0547 8.18408C32.1356 8.28118 32.168 8.41065 32.249 8.50775C32.4595 8.73431 32.832 8.70194 33.0912 8.55629C33.3503 8.41065 33.5447 8.1679 33.82 8.02225C34.2411 7.7795 34.7756 7.77949 35.2614 7.81186C35.4072 7.82804 35.553 7.82805 35.6663 7.90897C36.217 8.21645 35.7635 9.05797 35.7149 9.49492C35.6987 9.64057 35.7149 9.81858 35.8445 9.88332C35.9093 9.91568 35.9902 9.91568 36.055 9.8995Z" fill="#F1F1F1" stroke="#BABABA" stroke-width="1.18548" stroke-linecap="round" stroke-linejoin="round"/>
</svg>
