<svg width="22" height="22" viewBox="0 0 22 22" fill="none" xmlns="http://www.w3.org/2000/svg">
<path d="M20.3846 9.75244C20.3307 10.0545 20.2767 10.3566 20.2227 10.6587C20.1903 10.8044 20.1579 10.9662 20.0931 11.0956C19.8987 11.4355 19.4776 11.5811 19.1537 11.8077C18.927 11.9857 18.7488 12.2285 18.5707 12.4712C17.8796 13.3775 17.194 14.2837 16.5138 15.19C16.3842 15.3626 16.26 15.5352 16.1413 15.7079C16.0603 15.4651 15.9632 15.2062 15.785 15.0443C15.5421 14.8178 15.1371 14.8016 14.8618 15.012C14.6512 15.1738 14.5378 15.4489 14.3435 15.6431C14.0682 15.9183 13.6633 15.983 13.2746 16.0477C12.7779 16.134 12.2812 16.2149 11.7846 16.2905C11.3797 16.3552 10.9424 16.4361 10.6508 16.7112C10.4241 16.9054 10.2783 17.2129 9.97057 17.31C9.87339 17.3262 9.77627 17.3424 9.69529 17.3747C9.6305 17.3909 9.54949 17.4071 9.5009 17.4557C9.49011 17.4772 9.47394 17.5042 9.45235 17.5366C9.37137 17.6984 9.35514 17.9735 9.33894 18.1353C9.32275 18.3943 9.35515 18.6694 9.51711 18.8959C9.64668 19.0578 9.841 19.1711 9.97057 19.3167C10.0893 19.4462 10.1757 19.5918 10.2297 19.7537C9.84102 19.6889 9.43615 19.6727 9.04745 19.6565C7.88134 19.6134 6.71521 19.5649 5.5491 19.5109C4.93365 19.4947 4.25345 19.4786 3.79996 19.8831C3.52463 20.1097 3.36267 20.4496 3.15212 20.7408C2.92538 21.016 2.58523 21.2587 2.22892 21.1778C1.96978 21.1292 1.79163 20.9027 1.58108 20.7246C1.37053 20.5305 1.11139 20.3848 0.852258 20.2877C0.755082 19.8508 0.609303 19.4138 0.593107 18.9607C0.576911 18.0868 1.06284 17.31 1.45154 16.5494C1.95362 15.5622 2.29372 14.5103 2.81199 13.5393C3.31407 12.5683 4.01049 11.6459 4.99845 11.1442C5.64629 10.8044 6.3913 10.6749 6.94197 10.1894C7.49263 9.72006 7.63836 8.68435 6.99052 8.34451C6.53704 8.11794 5.92164 8.3607 5.50054 8.0694C4.98227 7.71337 5.16038 6.92039 5.37092 6.32161C5.74343 5.28588 5.9864 4.2178 6.13217 3.13353C6.68283 3.05801 7.22811 2.98246 7.76798 2.90694C8.28625 2.82602 8.83685 2.7613 9.32273 2.9555C9.61426 3.06878 9.8572 3.27917 10.1325 3.40863C10.4241 3.52192 10.7966 3.53808 11.0072 3.31152C11.1691 3.1335 11.2015 2.8746 11.3797 2.72895C11.574 2.5833 11.8493 2.64802 12.0923 2.59947C12.5781 2.51856 13.0154 2.03308 13.4689 2.21109C13.6795 2.29201 13.8091 2.50239 13.9872 2.61567C14.2949 2.80987 14.6836 2.7613 15.0238 2.71275C15.2991 2.6642 15.5906 2.59947 15.7526 2.38908C15.9307 2.14634 15.8821 1.79031 16.0603 1.54757C16.2546 1.27245 16.6595 1.22389 16.8863 0.964955C16.9673 0.851673 17.0159 0.722239 17.0645 0.592773C17.1292 1.00275 17.221 1.4127 17.3397 1.82267C17.3883 1.96832 17.4369 2.13016 17.5179 2.27581C17.6313 2.43764 17.777 2.56712 17.9066 2.69659C18.2143 3.02025 18.3925 3.44098 18.4411 3.87793C18.4735 4.25014 18.4087 4.63856 18.4573 5.02695C18.6517 6.30542 20.1741 7.0175 20.4656 8.27979C20.5628 8.76529 20.4818 9.26694 20.3846 9.75244Z" fill="#F1F1F1" stroke="#BABABA" stroke-width="1.18548" stroke-linecap="round" stroke-linejoin="round"/>
</svg>
