<svg width="46" height="67" viewBox="0 0 46 67" fill="none" xmlns="http://www.w3.org/2000/svg">
<path d="M44.8024 51.1035C44.4623 51.5728 43.944 51.8641 43.523 52.2525C43.1019 52.6409 42.7456 53.2235 42.9237 53.7737C42.9885 54.0165 43.1666 54.2107 43.2314 54.4534C43.5229 55.4406 42.2272 56.363 42.4864 57.334C42.6321 57.8357 43.118 58.1432 43.5391 58.4345C43.9602 58.7258 44.3975 59.1465 44.3328 59.6644C44.2356 60.4574 43.1343 60.603 42.5512 61.1694C42.1787 61.5093 42.0329 62.0272 41.8871 62.5127C41.8224 62.7392 41.763 62.9604 41.709 63.1761C41.5471 63.7372 41.3851 64.2982 41.2231 64.8592C41.1583 65.102 41.0773 65.3771 40.9154 65.5713C40.5753 65.9758 39.9922 66.0406 39.474 66.073C39.2256 66.0945 38.9719 66.1161 38.7128 66.1377C38.1621 65.2638 37.4657 64.4708 36.7206 63.7749C34.9391 62.1242 32.785 60.959 30.6309 59.8586C28.4769 58.7905 26.2904 57.7871 24.2659 56.5087C23.3805 55.9584 22.5276 55.3543 21.707 54.6962C20.7352 53.9194 19.7958 53.0616 19.1642 52.0097C18.2896 50.5532 18.0304 48.8217 17.5446 47.2033C17.0749 45.6983 16.4108 44.2742 15.682 42.8986C14.6941 41.0375 12.6696 37.9465 11.6654 36.4253C11.3253 35.9075 11.0662 35.3573 10.888 34.7585C10.6127 33.8199 10.143 32.9298 9.51137 32.1853C9.15506 31.7807 8.76634 31.4085 8.5234 30.9392C8.1347 30.211 8.18328 29.3047 7.74599 28.5927C7.43826 28.091 6.92002 27.7511 6.56371 27.2818C6.22359 26.7963 6.06163 26.2299 5.75391 25.7282C5.20325 24.8867 4.26387 24.385 3.43788 23.8024C2.82243 23.3817 2.26094 22.907 1.75347 22.3783C1.52672 22.1518 1.3162 21.909 1.25142 21.6177C1.17044 21.2455 1.3162 20.8733 1.3324 20.5011C1.38098 19.789 0.992273 19.1255 0.797921 18.4296C0.506393 17.491 0.587365 16.4715 0.668345 15.4843C0.684541 15.1282 0.716925 14.7722 0.862689 14.4486C1.12182 13.8822 1.7049 13.5261 2.25556 13.2186C2.76303 12.9165 3.27591 12.6144 3.79418 12.3124C3.95614 12.5227 4.15051 12.7331 4.29627 12.9435C4.5878 13.3319 4.76595 13.9145 4.45823 14.3029C4.1667 14.6589 3.58364 14.6427 3.27592 14.9826C2.952 15.3548 3.17872 16.0507 3.6646 16.1478C4.13429 16.2449 4.57158 15.8565 5.04126 15.7917C5.54334 15.7108 6.02922 16.0183 6.33694 16.4229C6.64467 16.8113 6.80663 17.313 6.98478 17.7823C7.03337 17.9279 7.09817 18.0898 7.24393 18.1707C7.32491 18.2354 7.43827 18.2678 7.55164 18.2678C8.58819 18.3487 9.4466 17.4101 9.80291 16.4553C10.1754 15.4843 10.224 14.4162 10.5965 13.4452C11.1634 12.0211 12.4752 10.9044 13.9977 10.6131C14.4026 10.5484 14.8398 10.5322 15.2447 10.4189C15.7954 10.2895 16.2975 9.99816 16.7996 9.72305C17.7551 9.17282 18.7107 8.63878 19.5205 7.91054C20.3303 7.18229 21.0105 6.25984 21.2211 5.19175C21.3183 4.73862 21.3507 4.25313 21.626 3.8971C21.7394 3.75145 21.8851 3.63819 21.9661 3.47636C22.209 2.99086 21.6908 2.48916 21.3668 2.03603C21.0915 1.63145 20.9619 1.14595 20.9943 0.660459C21.2535 0.660459 21.5288 0.611925 21.7879 0.595742C23.5857 0.514826 25.0919 2.10079 25.6426 3.80002C25.7397 4.1075 25.8369 4.44736 26.1123 4.57682C26.4524 4.75484 26.9059 4.54446 27.2298 4.73866C27.3755 4.83575 27.4727 4.9814 27.5537 5.14323C28.1799 6.25448 28.8062 7.3657 29.4324 8.47695C29.6106 8.78443 29.7887 9.09191 30.0965 9.28611C30.4042 9.46412 30.7767 9.4803 31.133 9.4803C31.9968 9.50188 32.8606 9.51807 33.7244 9.52886C33.9997 9.52886 34.275 9.52887 34.4856 9.38322C34.9391 9.09193 35.0848 8.25038 35.6031 8.34748C35.7327 8.36366 35.8461 8.46077 35.9594 8.52551C36.7692 9.011 37.8058 8.76827 38.7451 8.70354C39.7007 8.65499 40.883 9.01101 41.0126 9.94964C41.1421 10.7426 40.4457 11.3737 39.8465 11.9078C39.2472 12.4418 38.648 13.2186 38.9557 13.9469C39.5873 14.2382 40.4133 13.7689 40.9964 14.1573C41.1745 14.2705 41.3041 14.4486 41.4336 14.6104C41.5092 14.7291 41.5848 14.8423 41.6604 14.9502C41.6604 14.961 41.6604 14.961 41.6604 14.9502C41.2393 15.3386 40.5105 15.4196 39.895 15.371C39.1014 15.2901 38.2107 15.1121 37.579 15.6138C37.4495 15.6947 37.3523 15.8079 37.2227 15.8889C36.8016 16.1478 36.2671 15.986 35.7651 15.9374C34.437 15.808 33.1899 16.6495 32.3477 17.6852C31.3274 18.9475 30.7119 20.5172 29.562 21.6663C29.4648 21.7633 29.4 21.909 29.4162 22.0385C29.4648 22.4754 30.1775 22.346 30.2099 22.8476C30.2099 22.9933 30.1612 23.1389 30.0641 23.2522C29.8211 23.5111 29.4486 23.5759 29.1571 23.7215C28.9304 23.8348 28.7522 23.9967 28.5578 24.1585L27.8128 24.822C27.6995 24.9191 27.6023 25.0485 27.5699 25.1942C27.4727 25.5664 27.829 25.6312 27.9424 25.8577C28.0396 26.0681 27.91 26.327 27.7319 26.4888C27.5537 26.6507 27.3431 26.764 27.2298 26.9743C27.0354 27.3304 27.2298 27.7673 27.4889 28.0425C27.7643 28.3176 28.1206 28.5279 28.3797 28.8192C28.8818 29.3856 28.9628 30.211 29.3838 30.8421C29.6106 31.182 29.9021 31.4409 30.1289 31.7807C30.2908 32.0559 30.4042 32.3633 30.5338 32.6708C30.6957 33.0592 31.0358 33.3667 31.4407 33.48C32.0238 33.658 32.8822 33.9817 33.1251 34.451C33.5624 35.2278 34.2426 35.9075 35.1334 35.9722C36.0242 36.0531 36.915 35.6809 37.6114 35.1307C37.9029 34.9041 38.2106 34.629 38.5184 34.4024C39.069 34.014 39.8141 34.5157 39.6197 35.1631C39.312 36.2635 39.1338 37.4125 39.1014 38.5615C39.1014 38.691 39.1014 38.8366 39.1662 38.9337C39.2634 39.0632 39.4577 39.0956 39.6197 39.1117L41.8385 39.2898C41.9519 39.306 42.0815 39.3221 42.1787 39.3868C42.292 39.4516 42.3406 39.5325 42.3892 39.6134C42.5026 39.8562 42.4054 40.1475 42.454 40.4226C42.5188 40.7301 42.7779 40.9566 43.0047 41.167C44.106 42.1542 45.0454 43.5136 44.8996 44.9862C44.8186 45.7792 44.4299 46.5074 44.2032 47.2681C43.9602 48.0287 43.8955 48.935 44.4137 49.5661C44.6243 49.825 44.9482 50.0354 45.013 50.3753C45.0616 50.6342 44.9482 50.8931 44.8024 51.1035Z" fill="#F1F1F1"/>
<path d="M41.6604 14.9502C41.5848 14.8423 41.5092 14.7291 41.4336 14.6104C41.3041 14.4486 41.1745 14.2705 40.9964 14.1573C40.4133 13.7689 39.5873 14.2382 38.9557 13.9469C38.648 13.2186 39.2472 12.4418 39.8465 11.9078C40.4457 11.3737 41.1421 10.7426 41.0126 9.94964C40.883 9.01101 39.7007 8.65499 38.7451 8.70354C37.8058 8.76827 36.7692 9.011 35.9594 8.52551C35.8461 8.46077 35.7327 8.36366 35.6031 8.34748C35.0848 8.25038 34.9391 9.09193 34.4856 9.38322C34.275 9.52887 33.9997 9.52886 33.7244 9.52886C32.8606 9.51807 31.9968 9.50188 31.133 9.4803C30.7767 9.4803 30.4042 9.46412 30.0965 9.28611C29.7887 9.09191 29.6106 8.78443 29.4324 8.47695C28.8062 7.3657 28.1799 6.25448 27.5537 5.14323C27.4727 4.9814 27.3755 4.83575 27.2298 4.73866C26.9059 4.54446 26.4524 4.75484 26.1123 4.57682C25.8369 4.44736 25.7397 4.1075 25.6426 3.80002C25.0919 2.10079 23.5857 0.514826 21.7879 0.595742C21.5288 0.611925 21.2535 0.660459 20.9943 0.660459C20.9619 1.14595 21.0915 1.63145 21.3668 2.03603C21.6908 2.48916 22.209 2.99086 21.9661 3.47636C21.8851 3.63819 21.7394 3.75145 21.626 3.8971C21.3507 4.25313 21.3183 4.73862 21.2211 5.19175C21.0105 6.25984 20.3303 7.18229 19.5205 7.91054C18.7107 8.63878 17.7551 9.17282 16.7996 9.72305C16.2975 9.99816 15.7954 10.2895 15.2447 10.4189C14.8398 10.5322 14.4026 10.5484 13.9977 10.6131C12.4752 10.9044 11.1634 12.0211 10.5965 13.4452C10.224 14.4162 10.1754 15.4843 9.80291 16.4553C9.4466 17.4101 8.58819 18.3487 7.55164 18.2678C7.43827 18.2678 7.32491 18.2354 7.24393 18.1707C7.09817 18.0898 7.03337 17.9279 6.98478 17.7823C6.80663 17.313 6.64467 16.8113 6.33694 16.4229C6.02922 16.0183 5.54334 15.7108 5.04126 15.7917C4.57158 15.8565 4.13429 16.2449 3.6646 16.1478C3.17872 16.0507 2.952 15.3548 3.27592 14.9826C3.58364 14.6427 4.1667 14.6589 4.45823 14.3029C4.76595 13.9145 4.5878 13.3319 4.29627 12.9435C4.15051 12.7331 3.95614 12.5227 3.79418 12.3124C3.27591 12.6144 2.76303 12.9165 2.25556 13.2186C1.7049 13.5261 1.12182 13.8822 0.862689 14.4486C0.716925 14.7722 0.684541 15.1282 0.668345 15.4843C0.587365 16.4715 0.506393 17.491 0.797921 18.4296C0.992273 19.1255 1.38098 19.789 1.3324 20.5011C1.3162 20.8733 1.17044 21.2455 1.25142 21.6177C1.3162 21.909 1.52672 22.1518 1.75347 22.3783C2.26094 22.907 2.82243 23.3817 3.43788 23.8024C4.26387 24.385 5.20325 24.8867 5.75391 25.7282C6.06163 26.2299 6.22359 26.7963 6.56371 27.2818C6.92002 27.7511 7.43826 28.091 7.74599 28.5927C8.18328 29.3047 8.1347 30.211 8.5234 30.9392C8.76634 31.4085 9.15506 31.7807 9.51137 32.1853C10.143 32.9298 10.6127 33.8199 10.888 34.7585C11.0662 35.3573 11.3253 35.9075 11.6654 36.4253C12.6696 37.9465 14.6941 41.0375 15.682 42.8986C16.4108 44.2742 17.0749 45.6983 17.5446 47.2033C18.0304 48.8217 18.2896 50.5533 19.1642 52.0097C19.7958 53.0616 20.7352 53.9194 21.707 54.6962C22.5276 55.3543 23.3805 55.9584 24.2659 56.5087C26.2904 57.7871 28.4769 58.7905 30.6309 59.8586C32.785 60.959 34.9391 62.1242 36.7206 63.7749C37.4657 64.4708 38.1621 65.2638 38.7128 66.1377C38.9719 66.1161 39.2256 66.0945 39.474 66.073C39.9922 66.0406 40.5753 65.9758 40.9154 65.5713C41.0773 65.3771 41.1583 65.102 41.2231 64.8592C41.3851 64.2982 41.5471 63.7372 41.709 63.1761C41.763 62.9604 41.8224 62.7392 41.8871 62.5127C42.0329 62.0272 42.1787 61.5093 42.5512 61.1694C43.1342 60.603 44.2356 60.4574 44.3328 59.6644C44.3975 59.1465 43.9602 58.7258 43.5391 58.4345C43.118 58.1432 42.6321 57.8357 42.4864 57.334C42.2272 56.363 43.5229 55.4406 43.2314 54.4534C43.1666 54.2107 42.9885 54.0165 42.9237 53.7737C42.7456 53.2235 43.1019 52.6409 43.523 52.2525C43.944 51.8641 44.4623 51.5728 44.8024 51.1035C44.9482 50.8931 45.0616 50.6342 45.013 50.3753C44.9482 50.0354 44.6243 49.825 44.4137 49.5661C43.8955 48.935 43.9602 48.0287 44.2032 47.2681C44.4299 46.5074 44.8186 45.7792 44.8996 44.9862C45.0454 43.5136 44.106 42.1542 43.0047 41.167C42.7779 40.9566 42.5188 40.7301 42.454 40.4226C42.4054 40.1475 42.5026 39.8562 42.3892 39.6134C42.3406 39.5325 42.292 39.4516 42.1787 39.3868C42.0815 39.3221 41.9519 39.306 41.8385 39.2898L39.6197 39.1117C39.4577 39.0956 39.2634 39.0632 39.1662 38.9337C39.1014 38.8366 39.1014 38.691 39.1014 38.5615C39.1338 37.4125 39.312 36.2635 39.6197 35.1631C39.8141 34.5157 39.069 34.014 38.5184 34.4024C38.2106 34.629 37.9029 34.9041 37.6114 35.1307C36.915 35.6809 36.0242 36.0531 35.1334 35.9722C34.2426 35.9075 33.5624 35.2278 33.1251 34.451C32.8822 33.9817 32.0238 33.658 31.4407 33.48C31.0358 33.3667 30.6957 33.0592 30.5338 32.6708C30.4042 32.3633 30.2908 32.0559 30.1289 31.7807C29.9021 31.4409 29.6106 31.182 29.3838 30.8421C28.9628 30.211 28.8818 29.3856 28.3797 28.8192C28.1206 28.5279 27.7643 28.3176 27.4889 28.0425C27.2298 27.7673 27.0354 27.3304 27.2298 26.9743C27.3431 26.764 27.5537 26.6507 27.7319 26.4889C27.91 26.327 28.0396 26.0681 27.9424 25.8577C27.829 25.6312 27.4727 25.5664 27.5699 25.1942C27.6023 25.0485 27.6995 24.9191 27.8128 24.822L28.5578 24.1585C28.7522 23.9967 28.9304 23.8348 29.1571 23.7215C29.4486 23.5759 29.8211 23.5111 30.0641 23.2522C30.1612 23.1389 30.2099 22.9933 30.2099 22.8476C30.1775 22.346 29.4648 22.4754 29.4162 22.0385C29.4 21.909 29.4648 21.7634 29.562 21.6663C30.7119 20.5172 31.3274 18.9475 32.3477 17.6852C33.1899 16.6495 34.437 15.808 35.7651 15.9374C36.2671 15.986 36.8016 16.1478 37.2227 15.8889C37.3523 15.8079 37.4495 15.6947 37.579 15.6138C38.2107 15.1121 39.1014 15.2901 39.895 15.371C40.5105 15.4196 41.2393 15.3386 41.6604 14.9502ZM41.6604 14.9502C41.6604 14.961 41.6604 14.961 41.6604 14.9502Z" stroke="#BABABA" stroke-width="1.18548" stroke-linecap="round" stroke-linejoin="round"/>
</svg>
