<svg width="138" height="143" viewBox="0 0 138 143" fill="none" xmlns="http://www.w3.org/2000/svg">
<path d="M137.107 46.8626C136.799 48.0277 135.487 48.8855 135.665 50.1154C133.22 51.2644 132.928 54.5334 130.887 56.1679C130.142 56.7505 129.219 57.0903 128.474 57.6729C126.336 59.356 126.029 62.803 123.632 64.1139C123.356 64.2595 123.049 64.389 122.789 64.5993C122.336 64.9554 122.125 65.5541 121.98 66.1206C121.413 68.1273 121.17 70.2311 121.235 72.3187C121.348 75.7657 122.304 79.3746 120.975 82.5627C120.587 83.5013 119.987 84.4076 119.907 85.4271C119.842 86.2039 120.085 86.9969 119.826 87.7251C119.421 88.8418 117.979 89.3758 117.639 90.5086C117.461 91.0427 117.574 91.6253 117.445 92.1593C117.186 93.2274 116.117 93.8909 115.615 94.8781C115.21 95.6549 115.21 96.6097 114.789 97.3703C113.72 99.2799 110.529 98.7944 108.699 99.9758C107.047 101.578 104.034 101.125 101.945 102.112C101.152 102.5 100.455 103.067 99.6939 103.536C97.4427 104.912 94.6408 105.478 92.8106 107.372C91.9522 108.245 91.3854 109.33 90.5594 110.236C89.9763 110.867 89.2637 111.417 88.9398 112.21C88.6644 112.825 88.6807 113.521 88.6807 114.201C88.7022 116.175 88.7238 118.155 88.7454 120.14C88.7454 120.561 88.7454 121.014 88.5997 121.419C88.4215 121.953 88.0004 122.357 87.6117 122.746C86.5536 123.781 85.4954 124.812 84.4373 125.837C83.9838 126.273 83.5303 126.727 83.2388 127.261C82.8987 127.876 82.7691 128.588 82.5747 129.267C81.8621 131.743 80.113 133.912 77.8617 135.158C77.5702 135.304 77.2301 135.061 77.2786 134.737C77.311 134.543 77.4082 134.349 77.5216 134.187C77.7807 133.847 78.1694 133.621 78.5096 133.346C79.4651 132.585 80.0968 131.452 80.2587 130.238C80.2911 129.947 79.9996 129.737 79.7404 129.866C79.0926 130.19 78.6391 130.918 78.3152 131.598C77.9751 132.294 77.6026 133.038 77.0033 133.459C76.6632 133.685 76.4041 134.041 76.3069 134.446C76.1125 135.19 75.8534 136.339 75.7239 137.035C75.4971 138.298 75.2703 139.592 74.6063 140.693C74.25 141.308 73.7803 141.826 73.262 142.279C73.1757 141.944 73.0893 141.604 73.0029 141.259C72.9219 140.952 72.8409 140.628 72.9057 140.321C73.0515 139.689 73.7965 139.236 73.6994 138.589C73.667 138.298 73.4564 138.055 73.2459 137.844C72.5224 137.078 71.799 136.312 71.0756 135.546C70.8812 135.336 70.6707 135.11 70.3953 134.996C70.201 134.899 69.9743 134.883 69.7475 134.818C68.711 134.527 68.0307 133.378 66.9456 133.248C66.6541 133.216 66.314 133.265 66.071 133.087C65.8443 132.941 65.7633 132.65 65.5689 132.455C65.3746 132.261 65.0507 132.18 64.7753 132.277C64.4514 132.391 64.2085 132.731 63.8684 132.698C63.4473 132.666 63.2691 132.148 63.3177 131.727C63.3501 131.323 63.4959 130.886 63.3339 130.513C63.2367 130.287 63.0424 130.125 62.848 129.963C62.3622 129.559 61.8601 129.154 61.2608 128.96C60.6616 128.75 59.9327 128.83 59.4954 129.284C59.3821 129.397 59.3011 129.542 59.1553 129.623C59.0258 129.688 58.8962 129.704 58.7504 129.721C58.3617 129.753 57.9784 129.753 57.6005 129.721C57.8597 129.381 58.1674 129.106 58.5075 128.863C58.8476 128.636 59.2363 128.458 59.5279 128.183C59.9813 127.73 60.1433 127.083 60.5158 126.565C61.0989 125.739 62.103 125.302 62.7023 124.493C62.9614 124.137 63.1395 123.7 63.3825 123.328C63.7226 122.81 64.1923 122.373 64.6458 121.969C65.3692 121.321 66.0872 120.669 66.7999 120.011C67.5935 119.299 68.4194 118.554 69.456 118.263C70.1848 118.052 71.0756 118.036 71.5291 117.437C72.1769 116.596 71.4967 115.253 72.0635 114.363C72.1121 114.266 72.1931 114.185 72.2417 114.071C72.3389 113.845 72.2579 113.57 72.1445 113.343C71.6101 112.113 70.3468 111.272 69.0187 111.11C69.3426 109.605 70.039 108.148 69.9904 106.611C69.9743 106.125 69.8771 105.624 69.537 105.252C69.3912 105.106 69.213 104.993 69.0187 104.928C68.3223 104.734 67.9822 105.349 67.4639 105.559C66.6865 105.883 65.8281 105.203 65.4718 104.459C65.0831 103.666 65.0021 102.775 64.7916 101.918C64.5972 101.06 64.2247 100.186 63.4797 99.7169C62.7832 99.2799 61.8763 99.3123 61.0503 99.3608C60.4996 99.3932 59.8679 99.4741 59.5764 99.9434C59.4954 100.105 59.4469 100.267 59.3497 100.413C59.1068 100.753 58.5885 100.785 58.216 100.575C57.8597 100.38 57.6005 100.024 57.3738 99.6845C56.8879 98.9886 56.3858 98.1309 56.6611 97.3379C56.7583 97.079 56.9041 96.8686 57.0013 96.6259C57.1146 96.3184 57.1471 95.9947 57.1794 95.6872C57.2118 95.2125 57.2442 94.7432 57.2766 94.2793C57.309 93.8424 57.3576 93.3892 57.228 92.9685C57.1956 92.8821 57.1578 92.7959 57.1146 92.7096C56.7907 92.1108 56.6612 91.4311 56.645 90.7514C56.645 90.5248 56.6126 90.2982 56.5478 90.0717C56.6935 89.9584 56.7259 89.7804 56.7421 89.6185C56.8393 89.0359 56.9527 88.4534 57.2118 87.9355C57.3414 87.6766 57.5033 87.45 57.6329 87.1911C57.973 86.4305 57.9406 85.5242 58.3617 84.8121C58.4913 84.5856 58.6533 84.3428 58.6209 84.0839C58.5561 83.6955 58.0216 83.5499 57.8435 83.1938C57.6977 82.9187 57.7949 82.595 57.7139 82.3037C57.6167 81.883 57.1956 81.624 56.7907 81.4784C56.3858 81.3166 55.9323 81.2195 55.6246 80.912L55.5598 80.8635C55.2683 80.5722 55.0902 80.1838 55.074 79.763L55.0254 77.7563C55.0254 77.6915 55.0092 77.6106 54.9768 77.5621C54.9282 77.5135 54.8472 77.4974 54.7662 77.4974C53.0818 77.4326 51.3975 77.465 49.7131 77.5944C49.4863 77.6268 49.211 77.6268 49.049 77.4488C48.968 77.3355 48.9519 77.1899 48.9357 77.0604C48.8871 76.2836 49.1138 75.4582 48.7575 74.7624C48.6118 74.5034 48.4012 74.2931 48.2392 74.0503C48.0611 73.8076 47.9315 73.5163 47.9963 73.225C48.0611 72.9175 48.304 72.7071 48.466 72.4644C48.6765 72.1569 48.6765 71.9465 48.5146 71.6228C48.3526 71.283 48.2392 70.927 48.1745 70.5709C48.0935 70.2149 47.9639 69.8589 47.9639 69.4867C47.9477 69.0821 48.0449 68.6289 47.8019 68.2891C47.6724 68.0949 47.4618 67.9654 47.2351 67.8845C46.4577 67.6256 45.6155 67.7712 44.7895 67.8036C43.9635 67.8198 43.0403 67.6579 42.5706 66.9944C42.4087 66.7679 42.3277 66.4928 42.1333 66.2986C41.696 65.8455 40.9834 65.9425 40.3842 65.7969C38.9913 65.4732 38.1654 63.8387 36.7725 63.5798C35.8817 63.4018 34.9585 63.8064 34.1002 63.5474C33.2256 63.2723 32.7073 62.4146 32.1404 61.7025C31.3468 60.7477 30.3103 59.9386 29.9702 58.7572C29.711 57.8348 29.9378 56.8152 30.4884 56.0223C30.8124 55.5691 31.2496 55.1322 31.0877 54.4849C30.9743 54.0479 30.6504 53.7242 30.2455 53.5624C29.4033 53.2387 28.5449 53.53 27.7513 53.8213C26.1641 54.4039 24.5283 55.0189 23.3946 56.2488C22.9573 56.7181 22.52 57.3169 21.8884 57.3654C21.4673 57.3978 20.9814 57.1874 20.6575 57.4625C20.4469 57.6406 20.3983 57.9319 20.2526 58.1584C19.9934 58.5792 19.4104 58.6601 18.9407 58.563C18.4548 58.4659 18.0337 58.207 17.5478 58.0937C16.981 57.9642 16.3655 58.0452 15.8311 58.2879C15.7825 58.207 15.7339 58.126 15.6205 58.0613C15.5233 57.9966 15.3938 57.9804 15.2804 57.9642L13.0615 57.7862C12.8996 57.77 12.7052 57.7376 12.608 57.6082C12.5433 57.5111 12.5433 57.3655 12.5433 57.236C12.5757 56.087 12.7538 54.938 13.0615 53.8375C13.2559 53.1902 12.5109 52.6885 11.9602 53.0769C11.6525 53.3035 11.3448 53.5786 11.0532 53.8051C10.3568 54.3554 9.46603 54.7276 8.57525 54.6467C7.68448 54.582 7.00426 53.9022 6.56697 53.1254C6.32403 52.6561 5.46562 52.3325 4.88256 52.1545C4.47766 52.0412 4.13757 51.7337 3.97561 51.3453C3.84604 51.0378 3.73267 50.7303 3.57071 50.4552C3.34397 50.1154 3.05242 49.8564 2.82568 49.5166C2.40458 48.8854 2.32361 48.0601 1.82153 47.4937C1.5624 47.2024 1.20609 46.992 0.930754 46.7169C0.671618 46.4418 0.47725 46.0048 0.671602 45.6488C0.784974 45.4384 0.995538 45.3252 1.17369 45.1633C1.35185 45.0015 1.48143 44.7426 1.38425 44.5322C1.27088 44.3056 0.914558 44.2409 1.01173 43.8687C1.04413 43.723 1.1413 43.5935 1.25467 43.4964L1.99967 42.833C2.19402 42.6711 2.37221 42.5093 2.59895 42.396C2.89048 42.2503 3.26296 42.1856 3.5059 41.9267C3.60308 41.8134 3.65169 41.6677 3.65169 41.5221C3.6193 41.0204 2.90665 41.1499 2.85806 40.7129C2.84187 40.5835 2.90667 40.4378 3.00385 40.3407C4.15376 39.1917 4.7692 37.622 5.78955 36.3597C6.63174 35.324 7.87881 34.4824 9.20688 34.6119C9.70896 34.6604 10.2434 34.8223 10.6645 34.5633C10.7941 34.4824 10.8913 34.3691 11.0209 34.2882C11.6525 33.7865 12.5433 33.9646 13.3369 34.0455C13.9523 34.094 14.6812 34.0131 15.1022 33.6247C15.1022 33.6355 15.1022 33.6355 15.1022 33.6247C15.2318 33.5114 15.329 33.3658 15.3938 33.1878C15.5072 32.8641 15.5719 32.5242 15.5881 32.1682C15.5989 32.0495 15.6043 31.9363 15.6043 31.8284C15.7825 29.676 15.8473 27.5075 16.3979 25.4198C16.4951 25.0962 16.5761 24.7725 16.5275 24.4488C16.4951 24.1575 16.3493 23.8986 16.2198 23.6559C15.6799 22.7065 15.1454 21.7516 14.6164 20.7914C14.2439 20.1117 13.8552 19.3997 13.8066 18.6229C13.7742 17.8461 14.1791 16.9884 14.9403 16.778C15.5233 16.6162 16.1712 16.8751 16.7542 16.7133C16.8352 16.6971 16.9 16.6647 16.9486 16.6C17.0134 16.4867 16.981 16.341 16.9162 16.2278C16.6571 15.7746 16.1712 15.4672 15.6529 15.4024C15.1508 15.3377 14.6164 15.5157 14.2115 15.0464C13.839 14.6418 13.839 14.0107 14.1629 13.5575C14.6973 12.7969 15.6853 12.6837 16.5599 12.7322C17.0134 12.7484 17.4668 12.8131 17.8717 13.0235C18.0661 13.1206 18.2605 13.2662 18.471 13.2824C18.6006 13.2824 18.7301 13.2339 18.8111 13.153C18.9569 12.9911 18.8597 12.8293 18.8597 12.6837C18.8597 12.36 19.2484 12.182 19.5561 12.2305C19.8639 12.2791 20.1392 12.4571 20.4307 12.5704C21.4996 12.9264 22.5686 12.101 23.6537 11.7288C24.0262 13.9136 25.079 16.2116 27.1359 17.0208C27.3302 17.0855 27.5246 17.1502 27.7351 17.134C28.2048 17.0855 28.5125 16.6324 28.885 16.3249C29.0794 16.1792 29.3223 16.0821 29.5653 16.0983C30.0026 16.0983 30.4236 15.985 30.7476 15.6937C31.3306 15.1758 32.0433 14.7874 32.8045 14.5609C33.3551 14.4152 33.9868 14.3181 34.3593 13.8812C34.5536 13.6546 34.6508 13.3634 34.8614 13.1368C35.5416 12.3438 37.0154 12.7484 37.5661 11.745C37.6957 11.5185 37.7118 11.2271 37.5661 11.0006C37.2422 10.4342 36.3676 10.6769 35.8331 10.3209C35.5578 10.1267 35.3958 9.81921 35.2663 9.51173C34.6292 8.10919 33.9976 6.71206 33.3713 5.3203C33.2742 5.09374 33.1608 4.86715 33.3713 4.60822C33.5657 4.38165 33.8896 4.28455 34.1811 4.36547C35.4768 4.68913 36.7401 5.14229 37.9548 5.72488C38.554 6 39.2829 5.87052 39.7202 5.35266C39.8659 5.17464 40.0603 5.029 40.2708 4.91572C40.8377 4.62442 41.5017 4.57588 42.1333 4.47878C43.0403 4.34932 43.9149 4.10657 44.7409 3.75054C45.5669 3.41069 46.3605 2.95756 46.7816 2.13222C46.9112 1.87329 46.9921 1.58196 46.9921 1.29066C46.9921 1.09646 46.9597 0.91848 46.9112 0.756648C47.5428 0.611 48.2068 0.562426 48.8547 0.610976C48.9357 0.610976 49.0329 0.627159 49.0814 0.691892C49.1138 0.740441 49.1138 0.80519 49.1138 0.869923C49.1246 1.36621 49.13 1.86248 49.13 2.35877C49.13 2.63388 49.13 2.909 49.2272 3.16793C49.3892 3.57251 49.7617 3.83145 50.0856 4.10656C50.4095 4.38168 50.7496 4.73771 50.7658 5.15847C50.7658 5.25557 50.7658 5.35266 50.7172 5.43358C50.5715 5.67632 50.199 5.67632 50.0532 5.91907C49.9722 6.03235 49.9722 6.19418 49.9722 6.35601C49.956 7.69921 49.2434 8.97769 49.3729 10.3209C49.5187 11.6641 50.4743 12.7646 51.3974 13.7679C51.3974 13.7679 52.8875 15.3215 53.8916 14.8198C54.167 14.6742 54.3451 14.3829 54.5719 14.1563C54.912 13.8488 55.3655 13.7032 55.7866 13.5737C56.6828 13.2932 57.5789 13.0127 58.4751 12.7322C59.1716 12.5218 59.868 12.3114 60.5968 12.3114C60.9855 12.3114 61.3904 12.3923 61.7953 12.4247C62.2812 12.4733 62.7347 12.4894 63.172 12.3114C63.3177 12.2467 63.4635 12.1658 63.5444 12.0201C63.674 11.7774 63.5606 11.4861 63.6254 11.2272C63.6902 10.8873 64.0141 10.6608 64.3542 10.5475C64.6782 10.4504 65.0345 10.4342 65.3584 10.3371C65.8767 10.1753 66.3463 9.80305 66.8646 9.8516C67.7716 9.9487 68.1279 11.1139 68.9377 11.4861C69.0133 11.5292 69.0889 11.5562 69.1645 11.567C70.12 11.8259 71.1566 11.0653 72.1769 11.033C72.6304 11.033 73.0677 11.1624 73.5212 11.1463C74.2176 11.1301 74.8655 10.7579 75.3513 10.2562C75.821 9.7545 76.1773 9.13954 76.5174 8.52458C76.8738 7.88804 77.2301 7.2515 77.5864 6.61496C77.8779 6.08091 78.1856 5.54687 78.461 4.99664C78.7525 4.43562 79.0224 3.86921 79.2708 3.2974C79.5137 3.50778 79.7567 3.73436 79.9672 3.99329C81.2305 5.51451 81.3438 7.65068 81.4086 9.60885L81.7002 10.0943C81.7811 10.7093 82.2994 11.1624 82.8339 11.4699C83.3683 11.7774 83.9676 11.9716 84.4535 12.3276C84.9556 12.6998 85.3443 13.3148 85.1985 13.9136C85.1499 14.1725 84.988 14.399 84.8584 14.6418C84.2915 15.6775 84.1134 16.9884 83.174 17.6681C82.4938 18.1374 81.5868 18.1697 80.9227 18.6552C79.7566 19.4806 79.9024 21.6168 81.3439 22.1346C81.6192 22.2317 81.9431 22.1832 82.1698 22.0051C82.7367 21.5197 82.2184 20.6458 82.5423 20.0308C82.8177 19.5291 83.5465 19.432 83.8542 18.9465C83.9514 18.7685 83.9838 18.5743 84.081 18.3963C84.4049 17.7976 85.4415 17.7652 85.7978 18.3639C85.8949 18.5258 85.9435 18.7038 86.0407 18.8656C86.478 19.5939 87.6279 19.4968 88.3729 19.3997C88.6806 19.3511 88.9884 19.3673 89.2799 19.4644C90.446 19.8204 90.3164 20.9047 89.9277 21.6653C89.6524 22.1994 89.2475 22.6687 88.7778 23.0409C88.3081 23.3969 87.7737 23.672 87.4821 24.2061C87.3688 24.4165 87.3202 24.6592 87.3526 24.8858C87.4983 25.6302 88.3405 25.7111 88.8912 25.4036C89.3285 25.1609 89.6362 24.7078 89.9439 24.3032C90.6727 23.316 91.5473 22.4583 92.4219 21.6006C92.7134 21.3255 93.005 21.0504 93.3775 20.8885C93.75 20.7429 94.2035 20.759 94.495 21.0342C94.6732 21.2122 94.7541 21.4711 94.8675 21.6977C95.3858 22.6363 96.5681 22.9762 97.637 23.0085C98.7059 23.0571 99.8073 22.8791 100.828 23.2027C101.605 23.4455 102.253 23.931 102.885 24.4326C103.532 24.9505 104.18 25.5008 104.52 26.2452C104.828 26.9249 104.844 27.6693 104.909 28.4137C104.925 28.5432 104.941 28.6726 105.022 28.7697C105.103 28.8668 105.233 28.9154 105.363 28.9154C105.848 28.9478 106.302 28.4784 106.253 27.9929C107.824 27.2647 109.768 27.4103 111.209 28.3652C111.517 28.5594 111.792 28.8021 112.132 28.9154C112.521 29.0772 112.942 29.0772 113.347 29.061C114.708 29.0503 116.057 29.0395 117.396 29.0287C117.752 29.0287 118.093 29.0287 118.416 29.1258C118.789 29.239 119.097 29.4818 119.404 29.7246C121.931 31.7313 124.458 33.738 126.984 35.7447C127.551 36.1817 128.134 36.651 128.831 36.8452C129.754 37.1041 130.725 36.8775 131.681 36.8128C132.62 36.748 133.705 36.9261 134.24 37.719C134.548 38.156 134.612 38.7386 134.92 39.1917C135.228 39.6449 135.746 39.9362 135.973 40.4378C136.232 40.9881 136.038 41.6516 136.038 42.2665C136.07 43.8525 137.512 45.309 137.107 46.8626Z" fill="#F1F1F1"/>
<path d="M15.1022 33.6247C14.6812 34.0131 13.9523 34.094 13.3369 34.0455C12.5433 33.9646 11.6525 33.7865 11.0209 34.2882C10.8913 34.3691 10.7941 34.4824 10.6645 34.5633C10.2434 34.8223 9.70896 34.6604 9.20688 34.6119C7.87881 34.4824 6.63174 35.324 5.78955 36.3597C4.7692 37.622 4.15376 39.1917 3.00385 40.3407C2.90667 40.4378 2.84187 40.5835 2.85806 40.7129C2.90665 41.1499 3.6193 41.0204 3.65169 41.5221C3.65169 41.6677 3.60308 41.8134 3.5059 41.9267C3.26296 42.1856 2.89048 42.2503 2.59895 42.396C2.37221 42.5093 2.19402 42.6711 1.99967 42.833L1.25467 43.4964C1.1413 43.5935 1.04413 43.723 1.01173 43.8687C0.914558 44.2409 1.27088 44.3056 1.38425 44.5322C1.48143 44.7426 1.35185 45.0015 1.17369 45.1633C0.995538 45.3252 0.784974 45.4384 0.671602 45.6488C0.47725 46.0048 0.671618 46.4418 0.930754 46.7169C1.20609 46.992 1.5624 47.2024 1.82153 47.4937C2.32361 48.0601 2.40458 48.8854 2.82568 49.5166C3.05242 49.8564 3.34396 50.1154 3.57071 50.4552C3.73267 50.7303 3.84604 51.0378 3.97561 51.3453C4.13757 51.7337 4.47766 52.0412 4.88256 52.1545C5.46562 52.3325 6.32403 52.6561 6.56697 53.1254C7.00426 53.9022 7.68448 54.582 8.57525 54.6467C9.46603 54.7276 10.3568 54.3554 11.0532 53.8051C11.3448 53.5786 11.6525 53.3035 11.9602 53.0769C12.5109 52.6885 13.2559 53.1902 13.0615 53.8375C12.7538 54.938 12.5757 56.087 12.5433 57.236C12.5433 57.3655 12.5433 57.5111 12.608 57.6082C12.7052 57.7376 12.8996 57.77 13.0615 57.7862L15.2804 57.9642C15.3938 57.9804 15.5233 57.9966 15.6205 58.0613C15.7339 58.1261 15.7825 58.207 15.8311 58.2879C16.3655 58.0452 16.981 57.9642 17.5478 58.0937C18.0337 58.207 18.4548 58.4659 18.9407 58.563C19.4104 58.6601 19.9934 58.5792 20.2526 58.1584C20.3983 57.9319 20.4469 57.6406 20.6575 57.4625C20.9814 57.1874 21.4673 57.3978 21.8884 57.3654C22.52 57.3169 22.9573 56.7181 23.3946 56.2488C24.5283 55.0189 26.1641 54.4039 27.7513 53.8213C28.5449 53.53 29.4033 53.2387 30.2455 53.5624C30.6504 53.7242 30.9743 54.0479 31.0877 54.4849C31.2496 55.1322 30.8124 55.5691 30.4884 56.0223C29.9378 56.8152 29.711 57.8348 29.9702 58.7572C30.3103 59.9386 31.3468 60.7477 32.1404 61.7025C32.7073 62.4146 33.2256 63.2723 34.1002 63.5474C34.9585 63.8064 35.8817 63.4018 36.7725 63.5798C38.1654 63.8387 38.9913 65.4732 40.3842 65.7969C40.9834 65.9425 41.6961 65.8455 42.1333 66.2986C42.3277 66.4928 42.4087 66.7679 42.5706 66.9944C43.0403 67.6579 43.9635 67.8198 44.7895 67.8036C45.6155 67.7712 46.4577 67.6256 47.2351 67.8845C47.4618 67.9654 47.6724 68.0949 47.8019 68.2891C48.0449 68.6289 47.9477 69.0821 47.9639 69.4867C47.9639 69.8589 48.0935 70.2149 48.1745 70.5709C48.2392 70.927 48.3526 71.283 48.5146 71.6228C48.6765 71.9465 48.6765 72.1569 48.466 72.4644C48.304 72.7071 48.0611 72.9175 47.9963 73.225C47.9315 73.5163 48.0611 73.8076 48.2392 74.0503C48.4012 74.2931 48.6118 74.5034 48.7575 74.7624C49.1138 75.4582 48.8871 76.2836 48.9357 77.0604C48.9519 77.1899 48.968 77.3355 49.049 77.4488C49.211 77.6268 49.4863 77.6268 49.7131 77.5944C51.3975 77.465 53.0818 77.4326 54.7662 77.4974C54.8472 77.4974 54.9282 77.5135 54.9768 77.5621C55.0092 77.6106 55.0254 77.6915 55.0254 77.7563L55.074 79.763C55.0902 80.1838 55.2683 80.5722 55.5598 80.8635L55.6246 80.912C55.9323 81.2195 56.3858 81.3166 56.7907 81.4784C57.1956 81.624 57.6167 81.883 57.7139 82.3038C57.7949 82.595 57.6977 82.9187 57.8435 83.1938C58.0216 83.5499 58.5561 83.6955 58.6209 84.0839C58.6533 84.3428 58.4913 84.5856 58.3617 84.8121C57.9406 85.5242 57.973 86.4305 57.6329 87.1911C57.5033 87.45 57.3414 87.6766 57.2118 87.9355C56.9527 88.4534 56.8393 89.036 56.7421 89.6185C56.7259 89.7804 56.6935 89.9584 56.5478 90.0717C56.6126 90.2982 56.645 90.5248 56.645 90.7514C56.6612 91.4311 56.7907 92.1108 57.1146 92.7096C57.1578 92.7959 57.1956 92.8822 57.228 92.9685C57.3576 93.3892 57.309 93.8424 57.2766 94.2793C57.2442 94.7432 57.2118 95.2125 57.1794 95.6872C57.1471 95.9947 57.1146 96.3184 57.0013 96.6259C56.9041 96.8686 56.7583 97.079 56.6611 97.3379C56.3858 98.1309 56.8879 98.9886 57.3738 99.6845C57.6005 100.024 57.8597 100.38 58.216 100.575C58.5885 100.785 59.1068 100.753 59.3497 100.413C59.4469 100.267 59.4954 100.105 59.5764 99.9434C59.8679 99.4741 60.4996 99.3932 61.0503 99.3608C61.8763 99.3123 62.7832 99.2799 63.4797 99.7169C64.2247 100.186 64.5972 101.06 64.7916 101.918C65.0021 102.775 65.0831 103.666 65.4718 104.459C65.8281 105.203 66.6865 105.883 67.4639 105.559C67.9822 105.349 68.3223 104.734 69.0187 104.928C69.213 104.993 69.3912 105.106 69.537 105.252C69.8771 105.624 69.9743 106.125 69.9905 106.611C70.039 108.148 69.3426 109.605 69.0187 111.11C70.3468 111.272 71.6101 112.113 72.1445 113.343C72.2579 113.57 72.3389 113.845 72.2417 114.071C72.1931 114.185 72.1121 114.266 72.0635 114.363C71.4967 115.253 72.1769 116.596 71.5291 117.437C71.0756 118.036 70.1848 118.052 69.456 118.263C68.4194 118.554 67.5935 119.299 66.7998 120.011C66.0872 120.669 65.3692 121.321 64.6458 121.969C64.1923 122.373 63.7226 122.81 63.3825 123.328C63.1395 123.7 62.9614 124.137 62.7023 124.493C62.103 125.302 61.0989 125.739 60.5158 126.565C60.1433 127.083 59.9814 127.73 59.5279 128.183C59.2363 128.458 58.8476 128.636 58.5075 128.863C58.1674 129.106 57.8597 129.381 57.6005 129.721C57.9784 129.753 58.3617 129.753 58.7504 129.721C58.8962 129.704 59.0258 129.688 59.1553 129.623C59.3011 129.542 59.3821 129.397 59.4954 129.284C59.9327 128.83 60.6616 128.75 61.2608 128.96C61.8601 129.154 62.3622 129.559 62.848 129.963C63.0424 130.125 63.2367 130.287 63.3339 130.513C63.4959 130.886 63.3501 131.323 63.3177 131.727C63.2691 132.148 63.4473 132.666 63.8684 132.698C64.2085 132.731 64.4514 132.391 64.7753 132.277C65.0507 132.18 65.3746 132.261 65.5689 132.455C65.7633 132.65 65.8443 132.941 66.071 133.087C66.314 133.265 66.6541 133.216 66.9456 133.248C68.0307 133.378 68.711 134.527 69.7475 134.818C69.9743 134.883 70.201 134.899 70.3954 134.996C70.6707 135.11 70.8812 135.336 71.0756 135.546C71.799 136.312 72.5224 137.078 73.2459 137.844C73.4564 138.055 73.667 138.298 73.6994 138.589C73.7965 139.236 73.0515 139.689 72.9057 140.321C72.8409 140.628 72.9219 140.952 73.0029 141.259C73.0893 141.604 73.1757 141.944 73.262 142.279C73.7803 141.826 74.25 141.308 74.6063 140.693C75.2703 139.592 75.4971 138.298 75.7239 137.035C75.8534 136.339 76.1125 135.19 76.3069 134.446C76.4041 134.041 76.6632 133.685 77.0033 133.459C77.6026 133.038 77.9751 132.294 78.3152 131.598C78.6391 130.918 79.0926 130.19 79.7404 129.866C79.9996 129.737 80.2911 129.947 80.2587 130.238C80.0968 131.452 79.4651 132.585 78.5096 133.346C78.1694 133.621 77.7807 133.847 77.5216 134.187C77.4082 134.349 77.311 134.543 77.2786 134.737C77.2301 135.061 77.5702 135.304 77.8617 135.158C80.113 133.912 81.8621 131.743 82.5747 129.267C82.7691 128.588 82.8987 127.876 83.2388 127.261C83.5303 126.727 83.9838 126.273 84.4373 125.837C85.4954 124.812 86.5536 123.781 87.6117 122.746C88.0004 122.357 88.4215 121.953 88.5997 121.419C88.7454 121.014 88.7454 120.561 88.7454 120.14C88.7238 118.155 88.7022 116.175 88.6807 114.201C88.6807 113.521 88.6644 112.825 88.9398 112.21C89.2637 111.417 89.9763 110.867 90.5594 110.236C91.3854 109.33 91.9522 108.245 92.8106 107.372C94.6408 105.478 97.4427 104.912 99.6939 103.536C100.455 103.067 101.152 102.5 101.945 102.112C104.034 101.125 107.047 101.578 108.699 99.9758C110.529 98.7944 113.72 99.2799 114.789 97.3703C115.21 96.6097 115.21 95.6549 115.615 94.8781C116.117 93.8909 117.186 93.2274 117.445 92.1593C117.574 91.6253 117.461 91.0427 117.639 90.5086C117.979 89.3758 119.421 88.8418 119.826 87.7251C120.085 86.9969 119.842 86.2039 119.906 85.4271C119.987 84.4076 120.587 83.5013 120.975 82.5627C122.304 79.3746 121.348 75.7657 121.235 72.3187C121.17 70.2311 121.413 68.1273 121.98 66.1206C122.125 65.5541 122.336 64.9554 122.789 64.5994C123.049 64.389 123.356 64.2595 123.632 64.1139C126.029 62.803 126.336 59.356 128.474 57.6729C129.219 57.0903 130.142 56.7505 130.887 56.1679C132.928 54.5334 133.22 51.2644 135.665 50.1154C135.487 48.8855 136.799 48.0277 137.107 46.8626C137.512 45.309 136.07 43.8525 136.038 42.2665C136.038 41.6516 136.232 40.9881 135.973 40.4378C135.746 39.9362 135.228 39.6449 134.92 39.1917C134.612 38.7386 134.548 38.156 134.24 37.719C133.705 36.9261 132.62 36.748 131.681 36.8128C130.725 36.8775 129.754 37.1041 128.831 36.8452C128.134 36.651 127.551 36.1817 126.984 35.7447C124.458 33.738 121.931 31.7313 119.404 29.7246C119.097 29.4818 118.789 29.239 118.416 29.1258C118.093 29.0287 117.752 29.0287 117.396 29.0287C116.057 29.0395 114.708 29.0503 113.347 29.061C112.942 29.0772 112.521 29.0772 112.132 28.9154C111.792 28.8021 111.517 28.5594 111.209 28.3652C109.768 27.4103 107.824 27.2647 106.253 27.9929C106.302 28.4784 105.848 28.9478 105.363 28.9154C105.233 28.9154 105.103 28.8668 105.022 28.7697C104.941 28.6726 104.925 28.5432 104.909 28.4137C104.844 27.6693 104.828 26.9249 104.52 26.2452C104.18 25.5008 103.532 24.9505 102.885 24.4326C102.253 23.931 101.605 23.4455 100.828 23.2027C99.8073 22.8791 98.7059 23.0571 97.637 23.0085C96.5681 22.9762 95.3858 22.6363 94.8675 21.6977C94.7541 21.4711 94.6732 21.2122 94.495 21.0342C94.2035 20.759 93.75 20.7429 93.3775 20.8885C93.005 21.0504 92.7134 21.3255 92.4219 21.6006C91.5473 22.4583 90.6727 23.316 89.9439 24.3032C89.6362 24.7078 89.3285 25.1609 88.8912 25.4036C88.3405 25.7111 87.4983 25.6302 87.3526 24.8858C87.3202 24.6592 87.3688 24.4165 87.4821 24.2061C87.7737 23.672 88.3081 23.3969 88.7778 23.0409C89.2475 22.6687 89.6524 22.1994 89.9277 21.6653C90.3164 20.9047 90.446 19.8204 89.2799 19.4644C88.9884 19.3673 88.6806 19.3511 88.3729 19.3997C87.6279 19.4968 86.478 19.5939 86.0407 18.8656C85.9435 18.7038 85.8949 18.5258 85.7978 18.3639C85.4414 17.7652 84.4049 17.7976 84.081 18.3963C83.9838 18.5743 83.9514 18.7685 83.8542 18.9465C83.5465 19.432 82.8177 19.5291 82.5423 20.0308C82.2184 20.6458 82.7367 21.5197 82.1698 22.0052C81.9431 22.1832 81.6192 22.2317 81.3439 22.1346C79.9024 21.6168 79.7566 19.4806 80.9227 18.6552C81.5868 18.1697 82.4938 18.1374 83.174 17.6681C84.1134 16.9884 84.2915 15.6775 84.8584 14.6418C84.988 14.3991 85.1499 14.1725 85.1985 13.9136C85.3443 13.3148 84.9556 12.6998 84.4535 12.3276C83.9676 11.9716 83.3683 11.7774 82.8339 11.4699C82.2994 11.1624 81.7811 10.7093 81.7002 10.0943L81.4086 9.60885C81.3438 7.65068 81.2305 5.51451 79.9672 3.99329C79.7567 3.73436 79.5137 3.50778 79.2708 3.2974C79.0224 3.86921 78.7525 4.43562 78.461 4.99664C78.1856 5.54687 77.8779 6.08091 77.5864 6.61496C77.2301 7.2515 76.8738 7.88804 76.5174 8.52458C76.1773 9.13954 75.821 9.7545 75.3513 10.2562C74.8655 10.7579 74.2176 11.1301 73.5212 11.1463C73.0677 11.1624 72.6304 11.033 72.1769 11.033C71.1566 11.0653 70.12 11.8259 69.1645 11.567C69.0889 11.5562 69.0133 11.5292 68.9377 11.4861C68.1279 11.1139 67.7716 9.94869 66.8646 9.8516C66.3463 9.80305 65.8767 10.1753 65.3584 10.3371C65.0345 10.4342 64.6782 10.4504 64.3542 10.5475C64.0141 10.6608 63.6902 10.8873 63.6254 11.2272C63.5606 11.4861 63.674 11.7774 63.5444 12.0201C63.4635 12.1658 63.3177 12.2467 63.172 12.3114C62.7347 12.4894 62.2812 12.4733 61.7953 12.4247C61.3904 12.3923 60.9855 12.3114 60.5968 12.3114C59.868 12.3114 59.1716 12.5218 58.4751 12.7322C57.5789 13.0127 56.6828 13.2932 55.7866 13.5737C55.3655 13.7032 54.912 13.8488 54.5719 14.1563C54.3451 14.3829 54.167 14.6742 53.8916 14.8198C52.8875 15.3215 51.3974 13.7679 51.3974 13.7679C50.4743 12.7646 49.5187 11.6641 49.3729 10.3209C49.2434 8.97769 49.956 7.69921 49.9722 6.35601C49.9722 6.19418 49.9722 6.03235 50.0532 5.91907C50.199 5.67632 50.5715 5.67632 50.7172 5.43358C50.7658 5.35266 50.7658 5.25557 50.7658 5.15847C50.7496 4.73771 50.4095 4.38168 50.0856 4.10656C49.7617 3.83145 49.3892 3.57251 49.2272 3.16793C49.13 2.909 49.13 2.63388 49.13 2.35877C49.13 1.86248 49.1246 1.36621 49.1138 0.869923C49.1138 0.80519 49.1138 0.740441 49.0814 0.691892C49.0329 0.627159 48.9357 0.610976 48.8547 0.610976C48.2068 0.562426 47.5428 0.611 46.9112 0.756648C46.9597 0.91848 46.9921 1.09646 46.9921 1.29066C46.9921 1.58196 46.9112 1.87329 46.7816 2.13222C46.3605 2.95756 45.5669 3.41069 44.7409 3.75054C43.9149 4.10657 43.0403 4.34932 42.1333 4.47878C41.5017 4.57588 40.8377 4.62442 40.2708 4.91572C40.0603 5.029 39.8659 5.17464 39.7202 5.35266C39.2829 5.87052 38.554 6 37.9548 5.72488C36.7401 5.14229 35.4768 4.68913 34.1811 4.36547C33.8896 4.28455 33.5657 4.38165 33.3713 4.60822C33.1608 4.86715 33.2742 5.09374 33.3713 5.3203C33.9976 6.71206 34.6292 8.10919 35.2663 9.51173C35.3958 9.81921 35.5578 10.1267 35.8331 10.3209C36.3676 10.6769 37.2422 10.4342 37.5661 11.0006C37.7118 11.2271 37.6957 11.5185 37.5661 11.745C37.0154 12.7484 35.5416 12.3438 34.8614 13.1368C34.6508 13.3634 34.5536 13.6546 34.3593 13.8812C33.9868 14.3181 33.3551 14.4152 32.8045 14.5609C32.0433 14.7874 31.3306 15.1758 30.7476 15.6937C30.4236 15.985 30.0026 16.0983 29.5653 16.0983C29.3223 16.0821 29.0794 16.1792 28.885 16.3249C28.5125 16.6324 28.2048 17.0855 27.7351 17.134C27.5246 17.1502 27.3302 17.0855 27.1359 17.0208C25.079 16.2116 24.0262 13.9136 23.6537 11.7288C22.5686 12.101 21.4996 12.9264 20.4307 12.5704C20.1392 12.4571 19.8639 12.2791 19.5561 12.2305C19.2484 12.182 18.8597 12.36 18.8597 12.6837C18.8597 12.8293 18.9569 12.9911 18.8111 13.153C18.7301 13.2339 18.6006 13.2824 18.471 13.2824C18.2605 13.2662 18.0661 13.1206 17.8717 13.0235C17.4668 12.8131 17.0134 12.7484 16.5599 12.7322C15.6853 12.6837 14.6973 12.7969 14.1629 13.5575C13.839 14.0107 13.839 14.6418 14.2115 15.0464C14.6164 15.5157 15.1508 15.3377 15.6529 15.4024C16.1712 15.4672 16.6571 15.7746 16.9162 16.2278C16.981 16.341 17.0134 16.4867 16.9486 16.6C16.9 16.6647 16.8352 16.6971 16.7542 16.7133C16.1712 16.8751 15.5233 16.6162 14.9403 16.778C14.1791 16.9884 13.7742 17.8461 13.8066 18.6229C13.8552 19.3997 14.2439 20.1117 14.6164 20.7914C15.1454 21.7516 15.6799 22.7065 16.2198 23.6559C16.3493 23.8986 16.4951 24.1575 16.5275 24.4488C16.5761 24.7725 16.4951 25.0962 16.3979 25.4198C15.8473 27.5075 15.7825 29.676 15.6043 31.8284C15.6043 31.9363 15.5989 32.0495 15.5881 32.1682C15.5719 32.5242 15.5072 32.8641 15.3938 33.1878C15.329 33.3658 15.2318 33.5114 15.1022 33.6247ZM15.1022 33.6247C15.1022 33.6355 15.1022 33.6355 15.1022 33.6247Z" stroke="#BABABA" stroke-width="1.18548" stroke-linecap="round" stroke-linejoin="round"/>
</svg>
