<svg width="12" height="15" viewBox="0 0 12 15" fill="none" xmlns="http://www.w3.org/2000/svg">
<path d="M11.2494 5.38301C11.0011 5.95482 10.7312 6.52123 10.4396 7.08225C10.1643 7.63248 9.85661 8.16652 9.56508 8.70057C9.20877 9.33711 8.85244 9.97365 8.49613 10.6102C8.15601 11.2252 7.79971 11.8401 7.33002 12.3418C6.84414 12.8435 6.1963 13.2157 5.49987 13.2319C5.04638 13.248 4.60908 13.1186 4.15559 13.1186C3.13525 13.151 2.09873 13.9115 1.14316 13.6526C1.20795 13.2642 1.35369 12.8758 1.56423 12.5198C1.66141 12.3579 1.77477 12.2123 1.83956 12.0505C2.05011 11.4355 1.67761 10.8044 1.61283 10.1571C1.54805 9.55828 1.75859 8.97566 1.85577 8.39306C1.96914 7.79429 1.92057 7.11461 1.46708 6.71003C1.30512 6.56438 1.09457 6.48348 0.932606 6.32165C0.75445 6.12745 0.657251 5.85232 0.624859 5.5772C0.479095 4.60621 0.835415 3.57049 1.56423 2.90698C1.80717 2.68041 2.08252 2.5024 2.30927 2.25965C2.71417 1.8227 2.90851 1.19155 2.82753 0.592773C3.97744 0.964987 5.0464 1.59613 6.08294 2.21109C7.22746 2.88 8.36655 3.5543 9.50027 4.23399C10.0995 4.59002 10.715 4.94607 11.2494 5.38301Z" fill="#F1F1F1" stroke="#BABABA" stroke-width="1.18548" stroke-linecap="round" stroke-linejoin="round"/>
</svg>
