<svg width="27" height="13" viewBox="0 0 27 13" fill="none" xmlns="http://www.w3.org/2000/svg">
<path d="M25.9296 4.43895C25.8 4.13147 25.4761 4.00201 25.2817 3.74308C25.1198 3.51651 25.055 3.24139 24.9255 2.99865C24.6501 2.48078 24.0995 2.17331 23.565 1.93056C22.9172 1.62308 22.2531 1.34796 21.5567 1.29941C20.844 1.25086 20.0828 1.44507 19.6131 1.96293C19.4674 2.14094 19.3379 2.33513 19.1759 2.48078C18.69 2.88536 17.9449 2.80445 17.4267 3.16048C17.2971 3.25758 17.1837 3.38704 17.0218 3.45177C16.876 3.51651 16.6655 3.51651 16.5683 3.38705C16.4711 3.2414 16.5359 3.0472 16.6331 2.90155C16.8922 2.59407 17.281 2.44842 17.6373 2.23803C18.0422 1.99529 18.447 1.55835 18.1717 1.07285C18.0421 0.813921 17.7668 0.652081 17.4753 0.619715C15.7099 0.4417 14.0418 1.20231 12.2926 1.25086C11.4018 1.26705 10.4624 1.10522 9.62026 1.44506C9.23155 1.6069 8.89144 1.88201 8.48654 2.01148C7.69293 2.28659 6.76978 2.01148 5.99237 2.36751C5.8628 2.43224 5.71702 2.51315 5.65224 2.6588C5.58745 2.80445 5.61985 2.99865 5.57126 3.17667C5.44169 3.71071 4.71284 3.80781 4.16217 3.79163C4.16217 3.79163 3.78967 3.77544 3.6763 3.98583C3.46575 4.39041 2.96366 4.61697 2.52636 4.76262C2.21864 4.85972 1.89474 4.81116 1.57082 4.85971C1.44125 4.8759 1.29548 4.92445 1.16592 4.973C1.05254 5.00536 0.955384 5.03773 0.858209 5.11865C0.647661 5.24812 0.566665 5.52323 0.599057 5.76598C0.631449 6.07346 0.906828 6.52659 1.21455 6.62368C1.24694 6.63447 1.27927 6.63986 1.31166 6.63986C1.61939 6.68841 2.02434 6.59132 2.33206 6.57514C2.74236 6.56435 3.14726 6.55895 3.54676 6.55895C3.96785 6.55895 4.4051 6.59132 4.71282 6.86643C4.95576 7.07681 5.053 7.40048 5.18257 7.70796C5.76563 8.97025 7.27184 9.73085 8.6485 9.43955C8.77806 9.40719 8.92384 9.37483 9.06961 9.4072C9.31255 9.47193 9.44212 9.73086 9.63647 9.89269C10.1547 10.362 10.9645 10.0707 11.661 9.92505C12.8109 9.69849 14.0417 10.0222 14.9487 10.7666C15.305 11.0741 15.6452 11.4625 16.0987 11.6405C16.4388 11.7699 16.8112 11.7699 17.1837 11.7699C18.2311 11.7591 19.2838 11.7484 20.342 11.7376C20.7792 11.7376 21.2328 11.7214 21.6701 11.6243C22.0264 11.5434 22.3665 11.3977 22.7066 11.2521C23.4516 10.9284 24.2452 10.5562 24.6663 9.86032C24.7473 9.73086 24.8121 9.60139 24.8121 9.45574C24.8283 8.97025 24.2776 8.67894 23.808 8.54948C23.6136 8.50093 23.4193 8.4362 23.2411 8.3391C22.9334 8.19345 22.9657 7.7565 23.2897 7.6594C23.7108 7.51375 24.0832 7.1901 24.2452 6.78552C24.4881 6.20292 24.4396 5.39376 25.0227 5.1672C25.3304 5.05392 25.7676 5.13483 25.9296 4.84353C25.9944 4.71407 25.9944 4.56842 25.9296 4.43895Z" fill="#F1F1F1" stroke="#BABABA" stroke-width="1.18548" stroke-linecap="round" stroke-linejoin="round"/>
</svg>
