<svg width="19" height="15" viewBox="0 0 19 15" fill="none" xmlns="http://www.w3.org/2000/svg">
<path d="M6.59801 14.1735C7.76412 14.0441 8.96258 13.7689 9.95053 13.1216C10.8899 12.5228 11.6674 11.5842 12.7525 11.3091C13.1898 11.1958 13.7081 11.1796 13.9834 10.8236C14.1292 10.6132 14.1616 10.3381 14.2263 10.0792C14.3721 9.49657 14.7284 8.97871 15.1981 8.62267C15.3277 8.52558 15.4896 8.42848 15.6516 8.42848C15.7973 8.44467 15.9431 8.52557 16.0727 8.57412C16.6071 8.76832 17.2711 8.47703 17.4817 7.94299C17.5788 7.70024 17.5951 7.42514 17.6923 7.18239C17.8218 6.85872 18.1133 6.56743 18.081 6.2114C18.0648 5.90391 17.7732 5.66115 17.4817 5.54787C17.1901 5.43459 16.8825 5.41842 16.5748 5.32132C16.0727 5.15949 15.6516 4.80343 15.2467 4.4474C14.5988 3.89718 13.9564 3.34695 13.3193 2.79673C13.0278 2.5378 12.72 2.27889 12.3799 2.13324C12.0074 1.95522 11.5702 1.89049 11.2301 1.64774C11.0195 1.48591 10.8576 1.24315 10.6632 1.06513C10.2421 0.676736 9.64284 0.514912 9.09218 0.628194C8.995 0.660561 8.91402 0.676736 8.84924 0.741469C8.78445 0.822385 8.76827 0.95185 8.78447 1.06513C8.84925 1.40498 9.17313 1.63154 9.46465 1.82573C10.4364 2.45688 11.4406 3.02331 12.4933 3.50881C12.8173 3.67064 13.1574 3.81626 13.4165 4.04282C13.8214 4.41504 14.0319 4.9491 14.4044 5.35368C14.6636 5.66116 15.0361 5.88774 15.1981 6.25995C15.2953 6.45415 15.2952 6.69688 15.2142 6.89108C15.1333 7.08528 14.8741 7.0853 14.7608 6.90728C14.6636 6.74545 14.4369 6.63216 14.2263 6.61598C13.9024 6.59979 13.5622 6.69687 13.2707 6.55122C13.1573 6.48649 13.0602 6.38939 12.9468 6.30847C12.5905 6.04954 12.056 6.00102 11.6835 6.25995C11.3272 6.51888 11.1977 7.08526 11.4568 7.44129C11.6512 7.70023 11.9912 7.84591 11.6511 8.5256C11.6025 8.6227 11.5216 8.6874 11.4244 8.73595C11.1491 8.86542 10.8251 8.80071 10.5336 8.88162C9.98294 9.02727 9.72384 9.62603 9.43231 10.1115C9.33513 10.2734 9.23794 10.419 9.09218 10.5323C8.91402 10.6456 8.70346 10.678 8.50911 10.7103C7.08386 10.9261 5.65321 11.1365 4.21717 11.3415C3.99042 11.39 3.69894 11.4062 3.53698 11.212C3.456 11.0987 3.43979 10.9369 3.35881 10.8236C3.21305 10.597 2.88911 10.5647 2.61378 10.5647C2.25747 10.5647 1.88494 10.5647 1.54483 10.6618C1.38287 10.7103 1.20473 10.7912 1.07516 10.9045C0.961788 11.0016 0.799859 11.0987 0.702683 11.212C0.691886 11.2228 0.686471 11.2336 0.686471 11.2443C0.524511 11.5195 0.58928 11.9241 0.75124 12.1506C0.929396 12.4095 1.22094 12.539 1.49627 12.6685C2.21969 13.0029 2.9431 13.3374 3.66652 13.6718C4.12001 13.8822 4.57353 14.0926 5.0756 14.1897C5.57768 14.2706 6.09593 14.2382 6.59801 14.1735Z" fill="#F1F1F1" stroke="#BABABA" stroke-width="1.18548" stroke-linecap="round" stroke-linejoin="round"/>
</svg>
