<svg width="11" height="7" viewBox="0 0 11 7" fill="none" xmlns="http://www.w3.org/2000/svg">
<path d="M2.55504 2.5997C2.53345 2.61048 2.51187 2.62127 2.49027 2.63205C2.19874 2.69679 1.90723 2.71296 1.6157 2.74533C1.17841 2.81006 0.838249 2.92335 0.676289 3.3603C0.481937 3.92671 0.627701 4.62258 1.08119 5.01098C1.34032 5.23754 1.68047 5.36703 2.00439 5.48031C2.19874 5.54505 2.40926 5.62596 2.61981 5.64214C3.17047 5.72306 3.73736 5.49647 4.19085 5.17281C4.3852 5.02716 4.56331 4.86536 4.79006 4.80063C4.96821 4.75208 5.1302 4.76825 5.30836 4.75207C5.66467 4.73589 6.00476 4.55786 6.24769 4.29893C6.55542 3.95908 6.66884 3.48979 6.94417 3.10139C7.39766 2.45406 8.19126 2.16276 8.88769 1.75818C9.21161 1.58016 9.55168 1.30503 9.56787 0.932819C9.56787 0.868086 9.55172 0.819537 9.53553 0.770987C9.48694 0.722438 9.42216 0.690095 9.37357 0.673912C8.95247 0.528263 8.48279 0.592996 8.07789 0.754828C7.65679 0.91666 7.30048 1.19174 6.94417 1.45067C6.78221 1.58014 6.62022 1.7096 6.42587 1.77434C6.2963 1.83907 6.13439 1.85528 5.98862 1.88765C5.37317 1.96857 4.75766 1.92001 4.14222 2.00093C3.86688 2.03329 3.54301 2.08185 3.30007 2.21132C3.04094 2.35696 2.83037 2.51878 2.55504 2.5997Z" fill="#F1F1F1" stroke="#BABABA" stroke-width="1.18548" stroke-linecap="round" stroke-linejoin="round"/>
</svg>
