<svg width="8" height="12" viewBox="0 0 8 12" fill="none" xmlns="http://www.w3.org/2000/svg">
<path d="M0.60081 3.24543C0.617006 3.35872 0.633202 3.4882 0.68179 3.5853C0.746574 3.74713 0.859962 3.82805 1.02192 3.8766C1.16769 3.92515 1.36209 3.94131 1.47546 4.05459C1.73459 4.31352 1.55642 4.84759 1.62121 5.20362C1.70219 5.64056 1.78312 6.07751 1.73453 6.49827C1.65355 7.2427 1.18387 7.93858 1.24865 8.683C1.26485 8.89338 1.32969 9.10375 1.39448 9.31413C1.42687 9.41123 1.45921 9.50834 1.5078 9.60544C1.57259 9.68635 1.65361 9.76729 1.7184 9.83202C2.09091 10.1395 2.51195 10.3984 2.96544 10.5764C3.04642 10.6088 3.14361 10.6412 3.22459 10.625C3.38655 10.625 3.4837 10.4955 3.59707 10.3822C4.03436 9.88056 4.63366 9.52453 5.2653 9.33033C5.42726 9.28178 5.6054 9.24941 5.73497 9.1685C5.88074 9.0714 5.99414 8.9581 6.09132 8.82864C6.44763 8.40787 6.80392 7.95475 6.8849 7.4207C6.98208 6.67628 6.51235 5.94804 6.59333 5.20362C6.65811 4.78285 6.88492 4.39444 6.9821 3.97368C7.12786 3.3749 6.98203 2.72757 6.67431 2.19353C6.35039 1.65948 5.88075 1.23873 5.34628 0.91507C5.10334 0.769421 4.84416 0.639952 4.56883 0.607585C4.2773 0.559036 3.96959 0.623772 3.77524 0.834154C3.64567 0.963619 3.56471 1.12544 3.46753 1.27109C3.14361 1.69186 2.49576 1.86987 1.99368 1.65949C1.79933 1.56239 1.60503 1.41675 1.39448 1.38439C1.08675 1.33584 0.778966 1.59477 0.68179 1.86988C0.617006 2.0479 0.617006 2.29063 0.60081 2.48483C0.590013 2.70061 0.590013 2.91101 0.60081 3.116C0.60081 3.15915 0.60081 3.20228 0.60081 3.24543Z" fill="#F1F1F1" stroke="#BABABA" stroke-width="1.18548" stroke-linecap="round" stroke-linejoin="round"/>
</svg>
