<svg width="69" height="68" viewBox="0 0 69 68" fill="none" xmlns="http://www.w3.org/2000/svg">
<path d="M67.0223 13.7361C66.4716 14.2215 65.7266 14.351 65.0788 14.6909C64.0908 15.1926 63.3944 16.115 62.8923 17.086C62.374 18.057 62.0339 19.1089 61.5318 20.0961C61.1431 20.8567 60.6572 21.6335 60.6734 22.5074C60.6896 22.9605 60.8354 23.3974 60.9326 23.8344C60.9434 23.8991 60.9542 23.9638 60.965 24.0286C61.0298 24.5464 60.965 25.129 60.5439 25.4527C60.3981 25.566 60.1875 25.6469 60.0903 25.8087C59.9122 26.1 60.1389 26.4722 60.1066 26.8283C60.0742 27.2814 59.6207 27.5889 59.2644 27.8963C58.9081 28.1876 58.5842 28.7217 58.8595 29.0939C59.0377 29.3205 59.3453 29.369 59.6207 29.4014C60.0634 29.4553 60.5007 29.5093 60.9326 29.5632C61.4994 29.628 62.1959 29.6441 62.5036 29.1586C62.6656 28.9159 62.6656 28.6084 62.8113 28.3495C63.1514 27.7507 64.2204 27.8802 64.4147 28.5437C64.4795 28.8026 64.4309 29.0777 64.4795 29.3367C64.5443 29.628 64.7386 29.8869 64.9978 30.0326C65.2407 30.1782 65.5484 30.2267 65.678 30.4857C65.8075 30.7608 65.597 31.0845 65.3865 31.3272C64.663 32.1687 63.9451 33.0157 63.2324 33.868C63.1245 33.9866 63.0165 34.1053 62.9085 34.224C62.5954 34.6016 62.2768 34.9792 61.9529 35.3568C61.9097 35.4108 61.8827 35.4647 61.8719 35.5186C61.6937 34.9037 61.1431 33.3016 60.5601 33.7061C59.8313 34.1916 60.9002 36.7486 60.8354 37.6225C60.7706 38.4802 60.0418 40.4707 60.5601 41.3608C61.0784 42.2671 65.1759 48.4328 65.7428 48.9345C65.4675 49.0154 65.1759 49.0801 64.9491 49.0963C64.8196 49.1125 63.7345 49.1287 63.5564 49.1287C62.401 49.1179 61.2511 49.1125 60.1066 49.1125C59.9122 49.1125 59.7179 49.1125 59.5559 49.2096C59.313 49.3553 59.232 49.6466 59.151 49.9055C58.8919 50.747 58.5032 51.54 58.0011 52.2359C57.8715 52.4139 57.7419 52.5919 57.6772 52.8023C57.6124 53.1098 57.7095 53.4173 57.9201 53.6438C58.0011 53.7409 58.1144 53.8218 58.163 53.9513C58.2116 54.0322 58.2117 54.1131 58.2117 54.194C58.2603 54.9061 58.2117 55.6182 58.1307 56.314C58.0821 56.6377 58.0659 57.0099 57.9687 57.3174C57.8716 57.6411 57.7419 57.9486 57.5962 58.256C57.4828 58.4826 57.3532 58.7092 57.256 58.9357C56.8997 59.7125 56.6892 60.6673 57.1751 61.347C57.3208 61.5574 57.5152 61.7192 57.7096 61.8811L59.3777 63.2566C59.5235 63.3861 59.6855 63.4832 59.8798 63.5318C60.6896 63.7745 60.8678 63.0624 61.3375 62.755C61.6938 62.5284 62.1959 62.5607 62.5036 62.852C62.8113 63.1272 62.8923 63.6289 62.6979 64.0011C62.5198 64.3247 62.1634 64.5189 62.0339 64.8588C61.7909 65.409 62.1797 66.1696 61.7586 66.5742C61.629 66.7036 61.467 66.7684 61.305 66.8169C60.8084 66.968 60.3009 67.0813 59.7826 67.1568C59.6855 67.1568 59.5883 67.173 59.4911 67.1568C59.2644 67.1082 59.1186 66.914 58.989 66.736C58.5572 66.1642 58.1253 65.587 57.6934 65.0044C57.3694 64.5675 57.0456 64.1305 56.5921 63.8392C56.09 63.4994 55.4584 63.3861 54.8915 63.1919C54.3084 62.9815 53.7254 62.6417 53.5148 62.0591C53.3853 61.6869 53.4338 61.2337 52.7212 61.0557C52.6402 61.0395 52.5431 61.0395 52.4621 61.0557C52.1868 61.1205 51.96 61.3632 51.8466 61.6383C51.717 61.8972 51.6847 62.1886 51.6199 62.4799C51.6037 62.5446 51.5875 62.6093 51.5389 62.6417C51.4903 62.6902 51.4094 62.6902 51.3284 62.6902C50.6481 62.6255 50.0165 62.3666 49.3849 62.1076C49.1095 61.9944 48.8504 61.8811 48.6236 61.7031C48.4455 61.5574 48.2835 61.3794 48.073 61.2823C47.7005 61.1043 47.2307 61.2499 46.9068 61.0072C46.7772 60.9101 46.6963 60.7806 46.6153 60.6512C46.4318 60.3275 46.2428 59.9984 46.0485 59.664C45.9999 59.5992 45.8865 59.5345 45.7731 59.5021C45.4816 59.3888 45.1577 59.3889 44.85 59.4698C44.7096 59.5129 44.5746 59.5669 44.4451 59.6316C44.3317 59.6802 44.2183 59.7449 44.0887 59.7772C43.7162 59.9067 43.2789 59.7934 43.0036 59.5183C42.8578 59.3565 42.7606 59.1461 42.6149 58.9843C42.3557 58.6444 41.9508 58.4502 41.5459 58.3531C41.4919 58.3424 41.4434 58.3315 41.4002 58.3207C41.0277 58.256 40.6552 58.2722 40.2827 58.2722C40.1369 58.2722 39.9749 58.2884 39.8616 58.3693C39.7968 58.4179 39.7482 58.4826 39.6996 58.5473C39.4081 58.8225 38.9384 58.7091 38.5335 58.6444C37.9991 58.5635 37.4322 58.5959 36.9139 58.7577C36.4443 58.9034 35.9907 59.1299 35.4886 58.9681C35.2457 58.9033 35.0676 58.693 35.0352 58.4502C34.9866 57.9485 35.5858 57.722 35.7963 57.3012C35.9583 56.929 35.8126 56.5083 35.6668 56.1199C35.6236 56.0012 35.5751 55.8771 35.5211 55.7476C35.4401 55.5534 35.1324 55.0841 34.8894 54.7604C34.7923 54.6148 34.6303 54.3882 34.5169 54.275C34.1444 53.8704 33.9824 53.304 34.0634 52.7375C34.0742 52.3815 34.0904 52.0309 34.112 51.6856C34.112 50.7794 34.274 49.8084 34.0472 48.886C33.95 48.4328 33.7395 47.9635 33.8043 47.4942C33.8853 46.8145 34.5169 46.0863 33.9824 45.5522C33.7881 45.358 33.529 45.2609 33.2536 45.2771L31.2129 45.3742C30.5975 45.4066 29.8686 45.3742 29.5771 44.8402C29.4961 44.7107 29.4638 44.5489 29.3828 44.4194C29.1561 44.0796 28.654 44.0472 28.2329 44.0634C27.8442 44.0634 27.4608 44.0687 27.0829 44.0795C26.84 44.0957 26.5808 44.1119 26.4189 44.2576C26.1921 44.468 26.2083 44.8078 26.1597 45.0991C26.0949 45.4551 25.9492 45.7788 25.7873 46.1024L25.0584 47.5913C25.0098 47.7046 24.945 47.8017 24.8803 47.8988C24.2 48.6918 23.2283 47.8502 22.3699 47.9473C22.046 47.9797 21.7545 48.1577 21.4305 48.2387C20.7503 48.4328 20.0215 48.2548 19.3736 47.9311C19.0497 47.7693 18.742 47.5751 18.4991 47.3162C18.0942 46.8469 17.916 46.2157 17.5597 45.7464C17.0576 44.7431 16.5717 43.7559 16.0697 42.7525C15.8753 42.1699 15.5028 41.6359 15.3246 41.0371C15.2436 40.7944 15.2113 40.5354 15.1141 40.2927C15.0493 40.1309 14.9575 39.9852 14.8387 39.8557C11.5672 39.7748 8.29555 39.791 5.02396 39.8072C4.78102 39.8072 4.53808 39.8234 4.29514 39.8557C3.79306 39.9528 3.32342 40.2118 2.80515 40.325C2.33547 40.4221 1.83336 40.406 1.39607 40.6002C1.29889 40.6541 1.19092 40.6757 1.07215 40.6649H0.893977C0.667233 40.6649 0.521532 40.4222 0.634904 40.228C0.667296 40.1848 0.699625 40.1417 0.732017 40.0985C0.877781 39.9528 1.07218 39.8396 1.18555 39.6616C1.25034 39.5321 1.26655 39.3702 1.28274 39.2246C1.33133 38.8038 1.34753 38.3669 1.52568 37.9785C1.63906 37.7519 1.80097 37.5577 1.96293 37.3797C2.40022 36.878 2.85372 36.344 3.11286 35.7452C3.372 36.0689 3.61494 36.4411 4.00364 36.5544C4.40854 36.7 4.862 36.4896 5.18592 36.1983C5.50984 35.907 5.75284 35.5348 6.06056 35.2435C6.36829 34.9361 6.77312 34.6771 7.21041 34.758C7.38857 34.7742 7.56676 34.8713 7.72872 34.9684C7.85829 35.0493 7.98785 35.1464 8.05264 35.2921C8.11742 35.4377 8.10126 35.6158 8.08506 35.7776C8.05267 36.0365 8.0688 36.3278 8.18217 36.5544C8.29555 36.7971 8.55475 36.9751 8.81388 36.9428C9.00823 36.9104 9.15397 36.7809 9.26734 36.6353C9.47789 36.3763 9.62368 36.0527 9.86662 35.8261C10.1096 35.5834 10.5144 35.4539 10.7897 35.6481C10.8869 35.7129 10.9517 35.8261 11.0489 35.907C11.2756 36.1012 11.6158 36.1174 11.8749 35.9879C12.134 35.8747 12.3284 35.6319 12.4418 35.3568C12.5066 35.2112 12.539 35.0493 12.6199 34.8875C12.8143 34.4506 12.9438 34.0136 13.2354 33.6252C13.3973 33.3987 13.5593 33.1721 13.705 32.9293C13.9966 32.4223 14.2449 31.8882 14.4501 31.3272C14.5634 30.9712 14.6768 30.599 14.7092 30.2267C14.8064 29.3205 14.5149 28.4304 14.3853 27.5403C14.2395 26.6341 14.2881 25.6307 14.9035 24.9672C15.6323 24.1904 16.9442 24.1095 17.5111 23.2356C17.8512 22.7178 17.8512 22.0704 17.9484 21.4716C18.0942 20.5492 18.4829 19.6753 18.904 18.8338C19.8433 16.9241 20.896 14.9498 20.896 12.8136C20.896 12.1501 20.8475 11.3733 21.3334 10.9202C21.5925 10.6936 21.965 10.5965 22.2403 10.3861C22.7748 9.96538 22.8396 9.17241 22.791 8.49271C22.7478 8.01801 22.6722 7.55407 22.5643 7.10094C22.5643 7.10094 22.5697 7.10094 22.5805 7.10094C22.6777 6.97148 22.7262 6.79348 22.7748 6.63165C22.9691 5.87104 23.0177 5.07808 22.9205 4.30128C22.9097 4.25813 22.9044 4.21496 22.9044 4.17181C22.9044 4.13944 22.9044 4.11247 22.9044 4.09089C22.9044 4.06932 22.9097 4.05312 22.9205 4.04234C22.9205 3.99918 22.9314 3.95602 22.953 3.91286C22.9638 3.86971 22.9799 3.83195 23.0015 3.79959C23.0123 3.7888 23.0177 3.77802 23.0177 3.76723C23.0393 3.74565 23.0609 3.72405 23.0825 3.70247C23.0933 3.69168 23.1041 3.6809 23.1149 3.67011C23.2283 3.57302 23.3902 3.52447 23.5684 3.50828C23.6655 3.50828 23.7628 3.50291 23.8599 3.49212C24.0219 3.49212 24.2001 3.49212 24.362 3.44357C24.3836 3.44357 24.3998 3.43816 24.4106 3.42737C24.4322 3.42737 24.4538 3.422 24.4754 3.41121C24.5078 3.40042 24.5456 3.38423 24.5888 3.36265C24.6212 3.34107 24.6536 3.31947 24.686 3.29789C24.9289 3.08751 24.9613 2.7315 25.0584 2.42402C25.35 1.58249 26.4189 1.11319 27.2287 1.46922C28.2814 1.92235 28.6054 3.31409 29.5933 3.8805C30.3707 4.31745 31.3263 4.13944 32.2171 4.17181C32.8487 4.20418 33.4642 4.33363 34.0472 4.56019C34.8246 4.86767 35.7964 5.43409 36.59 4.77058C36.6764 4.70585 36.752 4.63034 36.8167 4.54403C36.8275 4.52245 36.8383 4.50085 36.8491 4.47927C36.8707 4.4577 36.8869 4.44151 36.8977 4.43072C36.9193 4.39835 36.9355 4.36601 36.9463 4.33364C36.9787 4.2797 37.0057 4.22575 37.0273 4.17181C37.0381 4.15023 37.0435 4.12326 37.0435 4.09089C37.0543 4.06932 37.0651 4.04234 37.0759 4.00998C37.2217 3.49212 37.6103 2.69912 38.242 2.69912C38.6954 2.68294 39.0518 3.10371 39.4891 3.23318C40.0721 3.39501 40.6552 3.05514 41.0925 2.65057C41.5298 2.24599 41.9185 1.76051 42.4691 1.53394C43.0522 1.29119 43.7648 1.40447 44.2507 1.80905C44.607 2.10034 44.8661 2.56967 45.6273 2.14891C45.7731 2.06799 45.9027 1.93851 46.016 1.80905C46.3885 1.3721 46.8421 0.999879 47.3441 0.708582C47.4575 0.643849 47.5871 0.595307 47.7166 0.595307C47.8462 0.579124 47.9758 0.643873 48.0892 0.692422C48.6074 0.940565 49.1311 1.18868 49.6601 1.43683C50.1136 1.66339 50.6157 1.87377 51.1178 1.84141C51.7332 1.77667 52.2353 1.33976 52.7536 0.983728C52.9641 0.838079 53.1909 0.708606 53.4339 0.611506C53.6606 1.03227 53.8549 1.48539 54.0331 1.93852C54.0978 2.13272 54.195 2.31073 54.2922 2.50493C54.4056 2.69913 54.4703 2.9095 54.5837 3.1037C54.6917 3.28711 54.8213 3.45435 54.9725 3.6054C55.2478 3.89669 55.6203 4.09088 55.9928 4.23653C56.6892 4.49546 57.5152 4.31747 58.0658 3.81579C58.1468 3.73487 58.2278 3.63775 58.3412 3.5892C58.7785 3.395 59.1996 3.91287 59.6693 3.96142C60.2848 4.04234 60.7544 3.31409 61.3699 3.31409C61.8396 3.31409 62.1959 3.73487 62.4226 4.13945C62.6494 4.56021 62.8113 5.02949 63.1838 5.32079C63.6697 5.70919 64.4471 5.67685 64.8358 6.16235C65.014 6.37273 65.1111 6.664 65.3703 6.74492C65.4836 6.77729 65.6132 6.7611 65.7266 6.74492C65.8886 6.72334 66.0505 6.70178 66.2125 6.6802C66.0667 7.76448 65.8237 8.83256 65.4512 9.86829C65.2407 10.4671 65.0626 11.26 65.5808 11.6161C66.0019 11.9074 66.6173 11.6646 67.0708 11.8912C67.7187 12.231 67.5729 13.2667 67.0223 13.7361Z" fill="#F1F1F1" stroke="#BABABA" stroke-width="1.18548" stroke-linecap="round" stroke-linejoin="round"/>
</svg>
