<svg width="7" height="9" viewBox="0 0 7 9" fill="none" xmlns="http://www.w3.org/2000/svg">
<path d="M0.853978 0.796438C0.708214 1.20102 0.708167 1.65415 0.643383 2.09109C0.594795 2.35002 0.546239 2.64132 0.675807 2.90025C0.724395 2.99735 0.805375 3.09447 0.837767 3.20776C0.886355 3.32104 0.870111 3.46667 0.870111 3.59614C0.870111 4.16255 1.21027 4.68041 1.56659 5.13354C1.71235 5.31156 1.85808 5.4734 2.02004 5.63524C2.23059 5.82943 2.47353 5.99124 2.66788 6.21781C2.91082 6.52529 3.02421 6.92989 3.25095 7.25355C3.4615 7.56104 3.76924 7.80379 4.07697 8.03036C4.20653 8.12746 4.33612 8.22455 4.49808 8.2731C4.74102 8.35402 5.01632 8.33783 5.27545 8.30546C5.55079 8.2731 5.87472 8.22453 6.02048 7.9656C6.08527 7.85232 6.08527 7.72284 6.10146 7.59338C6.11766 7.26971 6.13382 6.92988 5.98806 6.63859C5.85849 6.33111 5.56701 6.10452 5.30788 5.89414C5.00555 5.646 4.71937 5.3871 4.44944 5.11738C4.23889 4.92318 4.04457 4.71279 3.91501 4.45386C3.76924 4.16256 3.73687 3.80651 3.52632 3.54758C3.31577 3.28865 2.95943 3.17539 2.68409 2.96501C2.45735 2.80318 2.27919 2.5928 2.11723 2.36624C1.92288 2.10731 1.72853 1.83216 1.63135 1.52468C1.63135 1.52468 1.11311 0.0681939 0.853978 0.796438Z" fill="#F1F1F1" stroke="#BABABA" stroke-width="1.18548" stroke-linecap="round" stroke-linejoin="round"/>
</svg>
