<svg width="10" height="6" viewBox="0 0 10 6" fill="none" xmlns="http://www.w3.org/2000/svg">
<path d="M9.09567 4.46058C9.04168 4.51452 8.9877 4.58466 8.93371 4.67097C8.90132 4.7357 8.83652 4.78422 8.75554 4.8004C7.86476 5.02697 6.8768 5.31828 6.00222 4.97843C5.51634 4.78424 5.11146 4.41202 4.60939 4.25019C4.09112 4.07218 3.49185 4.12071 2.97358 3.91033C2.4715 3.71613 2.0828 3.26303 1.56453 3.13357C1.24061 3.05265 0.916693 3.10118 0.592773 3.11737C0.770929 2.9879 0.932905 2.84226 1.09487 2.68043C1.49976 2.24348 1.85605 1.74178 2.35812 1.40193C2.74682 1.143 3.2327 0.964987 3.49184 0.592773C4.01011 1.01354 4.52298 1.42894 5.03046 1.83891C5.2896 2.03311 5.54873 2.24346 5.84026 2.37292C6.22896 2.53476 6.66629 2.55096 7.08738 2.5186C7.57326 2.48623 8.12389 2.40531 8.5126 2.71279C8.73934 2.90699 8.85273 3.18209 8.93371 3.47339C9.01469 3.79705 9.06328 4.12073 9.09567 4.46058Z" fill="#F1F1F1" stroke="#BABABA" stroke-width="1.18548" stroke-linecap="round" stroke-linejoin="round"/>
</svg>
