<svg width="10" height="9" viewBox="0 0 10 9" fill="none" xmlns="http://www.w3.org/2000/svg">
<path d="M1.30976 3.63941C1.00204 4.17346 0.483718 4.67514 0.613286 5.30629C0.742854 5.95362 1.18015 6.48765 1.66603 6.90841C2.02234 7.23207 2.42727 7.52338 2.91315 7.60429C3.1237 7.63666 3.33423 7.62048 3.54478 7.60429C3.90109 7.5935 4.25742 7.57731 4.61373 7.55574C4.97004 7.53955 5.32635 7.52338 5.66647 7.44246C6.83258 7.19971 7.85291 6.21255 7.99868 5.03118C8.03107 4.75607 8.01486 4.44858 8.06344 4.17346C8.17682 3.5585 8.59793 3.05682 8.97044 2.55515C9.16479 2.26385 9.35915 1.94018 9.31057 1.58415C9.24578 1.16339 8.79231 0.888284 8.35502 0.823552C7.93392 0.758819 7.49663 0.855894 7.05934 0.839711C6.57346 0.823528 6.10371 0.694094 5.61783 0.629361C5.14815 0.564629 4.62992 0.564605 4.20883 0.807353C4.03067 0.904452 3.86871 1.05012 3.72295 1.19577C3.16149 1.71364 2.60004 2.23147 2.03858 2.74934C2.03858 2.74934 1.48792 3.34811 1.30976 3.63941Z" fill="#F1F1F1" stroke="#BABABA" stroke-width="1.18548" stroke-linecap="round" stroke-linejoin="round"/>
</svg>
