<svg width="8" height="6" viewBox="0 0 8 6" fill="none" xmlns="http://www.w3.org/2000/svg">
<path d="M6.36147 4.44911C6.42626 4.40056 6.4587 4.33584 6.49109 4.25492C6.58826 4.01217 6.55589 3.72089 6.42632 3.49432C6.28056 3.26776 6.02139 3.12212 5.74606 3.10594C5.68127 3.08976 5.60032 3.10592 5.53554 3.08974C5.26021 3.00882 5.21157 2.66896 5.082 2.42621C4.98483 2.23202 4.8229 2.08639 4.62855 2.00547C4.53137 1.97311 4.45038 1.94075 4.3694 1.8922C4.27222 1.82747 4.19124 1.73035 4.12646 1.63325C3.86732 1.30959 3.51102 1.06686 3.17091 0.840292C3.05754 0.759376 2.94412 0.678452 2.79835 0.629903C2.604 0.56517 2.37727 0.597536 2.16673 0.629903C1.77802 0.678452 1.32452 0.710803 0.935815 0.613704C0.790051 0.581337 0.692891 0.581329 0.628107 0.726978C0.482343 1.11537 0.82249 1.53615 1.06543 1.79508C1.38935 2.13493 1.74568 2.4424 2.13438 2.71752C2.26395 2.81462 2.3935 2.91173 2.44209 3.05738C2.50687 3.2354 2.42588 3.4134 2.42588 3.57524C2.42588 3.97982 2.73357 4.30347 3.04129 4.57859C3.15467 4.69187 3.2843 4.80514 3.43006 4.85369C3.72159 4.96698 4.0293 4.86988 4.30463 4.74042C4.56376 4.62714 4.83911 4.4653 5.13064 4.44911C5.47076 4.41675 5.82705 4.5786 6.16717 4.51387C6.23195 4.51387 6.29669 4.49766 6.36147 4.44911Z" fill="#F1F1F1" stroke="#BABABA" stroke-width="1.18548" stroke-linecap="round" stroke-linejoin="round"/>
</svg>
