<svg width="22" height="32" viewBox="0 0 22 32" fill="none" xmlns="http://www.w3.org/2000/svg">
<path d="M6.92554 22.8306C7.58958 23.1543 8.23745 23.5265 8.82051 23.9634C9.274 24.3033 9.72748 24.6755 9.87325 25.2419C9.93803 25.4685 9.93801 25.7274 9.85704 25.9378C9.48453 26.8926 8.12403 26.5042 7.63815 27.2486C7.47619 27.5237 7.47622 27.8636 7.50862 28.2034C7.52481 28.6242 7.55719 29.0611 7.73534 29.4657C8.17264 30.4529 9.45212 30.8575 10.4887 30.55C11.509 30.2425 12.2864 29.3524 12.7561 28.3976C12.9667 27.9607 13.1286 27.5076 13.4364 27.1353C13.7927 26.666 14.3271 26.3747 14.732 25.954C15.5095 25.1772 15.8009 24.0443 16.0601 22.9601C16.2112 22.3343 16.357 21.7032 16.4974 21.0666C16.5784 20.7592 16.6756 20.4193 16.9185 20.2413C17.2748 19.9824 17.7607 20.128 18.1332 20.3384C18.5543 20.5973 18.9592 20.9696 19.4774 20.9534C19.769 20.9372 20.0281 20.7754 20.1091 20.5164C20.2224 20.1928 19.9957 19.9985 19.8986 19.7558C19.6556 19.1894 20.1253 18.5906 20.5464 18.1375C20.7084 17.9433 20.9351 17.1341 20.9351 17.1341C21.2266 16.3897 21.4857 15.5967 21.34 14.7876C21.259 14.3992 21.0646 14.0269 20.7731 13.768C19.8338 12.975 18.5381 13.6547 17.9065 14.5772C17.7121 14.8361 17.5501 15.1274 17.2748 15.3054C16.7403 15.6614 15.9953 15.4349 15.4447 15.0789C14.9102 14.7228 14.4243 14.2535 13.7926 14.0755C13.5173 14.0108 13.2096 13.9784 12.999 13.8004C12.5294 13.412 12.8047 12.6676 12.6266 12.085C12.497 11.6642 12.1245 11.3567 11.8168 11.0331C11.5414 10.7256 11.2985 10.3858 10.9745 10.1592C10.764 10.0135 10.5049 9.93262 10.2619 9.9488C10.0352 9.96498 9.88941 10.1754 9.9218 10.4019C9.938 10.5152 9.938 10.6285 9.9218 10.7418C9.88941 10.9521 9.71124 11.1625 9.50069 11.1625C9.30634 11.1787 9.16059 11.0492 9.03102 10.9036C8.60993 10.4343 8.36697 9.81934 8.36697 9.1882C8.36697 8.8969 8.41561 8.5894 8.33463 8.31428C8.23745 8.05535 8.04312 7.86114 7.94594 7.6184C7.78398 7.18145 7.94589 6.71215 7.8973 6.25902C7.83252 5.6117 7.34669 5.09383 6.81222 4.72162C6.29395 4.33322 5.69465 4.05813 5.22497 3.605C5.06301 3.44316 4.91723 3.24897 4.72287 3.1195C4.52852 2.99003 4.31799 2.92527 4.09125 2.84435C3.37862 2.55306 2.76319 2.05141 2.3259 1.42027C2.06676 1.06424 1.80764 0.61109 1.37035 0.594907C0.933059 0.56254 0.592896 0.950921 0.592896 1.38787C0.609092 2.14848 1.20839 2.58546 1.77525 2.95767C1.77525 2.95767 2.08294 3.18423 2.06675 3.47552C2.03435 4.09048 2.00195 4.70543 2.29347 5.23947C2.585 5.77352 3.02231 6.21048 3.44341 6.63125C4.05885 7.24621 4.66895 7.86115 5.2736 8.47611C5.53274 8.73504 5.79184 9.01018 5.88902 9.35003C5.97 9.62514 5.93764 9.94878 6.0834 10.2077C6.31014 10.5961 6.84455 10.6609 7.23325 10.8874C7.89729 11.3082 8.05926 12.2144 8.05926 13.0074C8.04307 14.1402 7.8487 15.2731 7.47619 16.3412C7.34662 16.7134 7.20088 17.0856 7.16848 17.474C7.15229 17.7815 7.21707 18.1051 7.16848 18.4126C7.0875 19.238 6.24536 19.9176 5.43556 19.8205C5.16023 19.7882 4.88487 19.6911 4.67432 19.9338C4.54475 20.0795 4.49615 20.2737 4.49615 20.4517C4.49615 21.0666 4.90105 21.6169 5.38693 21.9891C5.85661 22.3451 6.40727 22.5717 6.92554 22.8306Z" fill="#F1F1F1" stroke="#BABABA" stroke-width="1.18548" stroke-linecap="round" stroke-linejoin="round"/>
</svg>
