<svg width="15" height="10" viewBox="0 0 15 10" fill="none" xmlns="http://www.w3.org/2000/svg">
<path d="M0.983314 9.02828C1.32343 9.19011 1.59876 8.97974 1.87409 8.80173C2.27899 8.52662 2.73251 8.30002 3.2022 8.122C3.67188 7.96017 4.15775 7.84692 4.56265 7.58799C4.83798 7.40998 5.06474 7.16723 5.30768 6.94066C5.99871 6.25018 6.73294 5.60285 7.51035 4.99868C7.85047 4.73975 8.1906 4.48079 8.5793 4.31895C9.09757 4.12476 9.6806 4.0924 10.1665 3.84966C10.6524 3.60691 11.0411 3.20232 11.5431 3.07286C11.9156 2.99194 12.3367 3.05668 12.6769 2.87867C12.855 2.79775 13.0008 2.6521 13.1952 2.555C13.5191 2.37699 13.9726 2.42554 14.1507 1.95623C14.1993 1.7944 14.2155 1.61639 14.1507 1.43838C14.0211 1.0338 13.6486 0.791018 13.2437 0.677735C12.8712 0.564453 12.4501 0.564453 12.0614 0.677735C11.608 0.823384 11.203 1.11471 10.7495 1.27654C9.92355 1.56784 9.00035 1.37364 8.12577 1.38982C7.86663 1.38982 7.60748 1.42217 7.38073 1.53545C7.21877 1.61637 7.08927 1.74585 6.9597 1.87532C6.51701 2.29608 6.07429 2.71685 5.6316 3.13761C5.04854 3.70402 4.36834 4.30279 3.55854 4.30279C3.29941 4.30279 2.9269 4.41608 2.74874 4.5941C2.58678 4.75593 2.34384 4.75593 2.34384 4.75593C2.01992 4.7883 1.71217 4.83682 1.42064 4.96628C1.12911 5.09575 0.869974 5.32233 0.772798 5.62981C0.659426 6.03439 0.837566 6.45514 0.837566 6.87591C0.837566 7.42614 0.513662 7.92781 0.610838 8.49423C0.659426 8.72079 0.772767 8.93118 0.983314 9.02828Z" fill="#F1F1F1" stroke="#BABABA" stroke-width="1.18548" stroke-linecap="round" stroke-linejoin="round"/>
</svg>
