<svg width="17" height="17" viewBox="0 0 17 17" fill="none" xmlns="http://www.w3.org/2000/svg">
<path d="M15.9231 2.82606C15.8421 3.40866 15.7288 4.00742 15.3886 4.5091C15.0485 4.99459 14.757 5.56101 14.7408 6.17597C14.7246 7.03368 15.2591 7.85905 15.0161 8.66821C14.7732 9.47737 13.8662 9.8981 13.4937 10.6587C13.2994 11.0633 13.2832 11.5164 13.267 11.9696C13.2508 12.892 13.3317 13.8306 13.5585 14.7207C13.4289 14.8825 13.2994 15.0605 13.2508 15.2709C13.2022 15.4166 13.2022 15.5784 13.1536 15.7403C13.0564 16.0639 12.7649 16.3228 12.441 16.3714C12.1009 16.4038 11.7446 16.2096 11.6312 15.9021C11.534 15.6108 11.5988 15.2224 11.3234 15.0767C11.2587 15.0282 11.1777 15.012 11.0967 15.012C9.58508 14.807 8.07346 14.6614 6.56183 14.5751C6.55103 14.5535 6.53483 14.5265 6.51324 14.4942C6.35128 14.2514 6.10834 14.0572 5.83301 13.9115L4.26201 13.1186C4.11624 13.0377 3.95427 12.9729 3.8409 12.8596C3.71133 12.714 3.61417 12.536 3.53319 12.3741C2.99872 11.387 2.18892 10.5616 1.34673 9.83339C1.0714 9.59064 0.796074 9.3479 0.666506 9.02423C0.56933 8.74912 0.585518 8.44161 0.61791 8.15032C1.26575 8.15032 1.91359 7.98848 2.48045 7.66482C2.64241 7.5839 2.80435 7.47065 2.90152 7.325C3.17685 6.88805 2.85295 6.25691 3.07969 5.78759C3.16067 5.57721 3.32265 5.43155 3.5008 5.2859C3.95429 4.8975 4.50493 4.46055 5.08798 4.59001C5.4119 4.65475 5.70344 4.88133 6.02736 4.89752C6.51324 4.92988 6.91813 4.52529 7.11248 4.07216C7.30683 3.63521 7.37164 3.14973 7.58219 2.71279C8.10046 1.66088 9.6067 1.22393 10.627 1.82271C10.708 1.87126 10.789 1.93598 10.8862 1.96834C11.0157 2.00071 11.1453 2.00073 11.2911 1.98454C12.6515 1.82271 13.9634 1.3372 15.1133 0.592773C15.3077 0.754605 15.4696 0.932644 15.5992 1.14303C15.9231 1.6447 16.0041 2.25965 15.9231 2.82606Z" fill="#F1F1F1" stroke="#BABABA" stroke-width="1.18548" stroke-linecap="round" stroke-linejoin="round"/>
</svg>
