<svg width="62" height="21" viewBox="0 0 62 21" fill="none" xmlns="http://www.w3.org/2000/svg">
<path d="M61.0517 12.6899C60.6468 12.1073 59.7884 12.5604 59.2702 12.1882C59.011 11.994 58.9138 11.6541 58.7033 11.3952C57.9745 10.5537 56.4682 11.4114 55.5127 10.845C55.2373 10.6831 55.0592 10.4242 54.8163 10.2138C53.8445 9.30758 52.3221 9.35613 51.0102 9.64742C49.7145 9.93872 48.3864 10.408 47.0746 10.1491C46.5887 10.052 46.119 9.85781 45.6331 9.80926C44.8881 9.74452 44.1593 10.0358 43.4791 10.3109C41.9458 10.9367 40.4126 11.557 38.8794 12.172C38.102 12.4957 37.2436 12.8193 36.4338 12.5928C35.6078 12.3662 34.96 11.6056 34.1016 11.557C33.6967 11.5409 33.2918 11.7027 32.8869 11.7836C31.8503 12.0264 30.7166 11.8322 29.8258 11.2657C29.4533 11.0392 29.0646 10.7317 28.5788 11.1848C28.4168 11.3305 28.3034 11.5247 28.2062 11.7351C27.9957 12.172 27.3802 12.6899 26.9753 12.1882C26.7648 11.9131 26.7972 11.5247 27.0239 11.2496C28.0443 10.0034 26.619 8.95155 25.4205 8.87063C24.6107 8.8059 23.7361 8.93537 22.9749 8.7088C22.6672 8.6117 22.5862 8.20711 22.8454 8.01292C23.1693 7.77017 23.639 7.67307 24.0439 7.67307C24.6755 7.67307 25.3234 7.8349 25.9388 7.68925C26.619 7.52742 27.2669 6.75063 26.7486 6.1033C26.619 5.94147 26.4085 5.82819 26.1817 5.77964C25.4853 5.6178 24.8375 5.95766 24.1572 5.92529C22.6186 5.87674 21.7278 4.11277 20.2864 3.57873C19.0717 3.1256 17.7274 3.64345 16.4641 3.96712C15.2009 4.30696 13.6137 4.32315 12.8686 3.25506C12.6905 2.99613 12.5771 2.70483 12.3828 2.46208C12.0588 2.10605 11.6377 1.92804 11.1681 1.92804C10.828 1.92804 10.504 2.04132 10.1801 2.02513C10.0343 2.00895 9.88857 1.97659 9.759 1.89567C9.69422 1.8633 9.62942 1.82015 9.56464 1.76621C9.3379 1.58819 8.91681 1.36163 8.64148 1.26453C8.25277 1.11349 7.85866 0.984019 7.45916 0.876131C5.87195 0.487735 4.20377 0.536284 2.58417 0.795216C2.16307 0.859948 1.74198 0.957045 1.36947 1.16743C0.251948 1.84712 0.365316 3.80529 1.54762 4.35552C2.06589 4.59827 2.71374 4.59826 3.15103 4.97048C3.39397 5.19704 3.53974 5.50452 3.76649 5.74727C4.09041 6.1033 4.56008 6.26514 5.01357 6.41079C6.79513 6.92865 8.69006 7.17139 10.5202 6.783C11.2652 6.62116 12.0103 6.36224 12.7877 6.36224C13.5651 6.37842 14.4072 6.76681 14.634 7.51124C14.7636 7.89964 14.715 8.33659 14.8769 8.7088C15.2656 9.53414 16.5937 9.59887 16.95 10.4566C17.4683 11.7027 15.3466 12.8031 15.622 14.1302C15.7029 14.5347 15.9783 14.8422 16.205 15.1659C16.7233 15.9427 17.031 16.8489 17.6465 17.5448C18.2619 18.2569 19.3956 18.6453 20.1082 18.0465C20.3026 17.9008 20.4483 17.6743 20.6913 17.5772C21.1124 17.4315 21.5335 17.7876 21.8736 18.0789C23.5256 19.4221 26.117 19.4544 27.8013 18.1436C28.1253 17.8847 28.433 17.5772 28.8379 17.4477C29.097 17.3506 29.4047 17.3668 29.6477 17.4963C29.7934 17.5934 29.8258 17.8037 29.7125 17.917C29.4371 18.1921 29.5019 18.7747 29.8096 19.0499C30.1983 19.3735 30.749 19.3897 31.2511 19.3897C35.4189 19.4005 39.5866 19.4113 43.7544 19.4221C44.6614 19.4221 45.5845 19.4221 46.3943 19.0337C47.107 18.71 47.69 17.9979 47.7224 17.2373C47.7224 16.9137 48.1111 16.7195 48.354 16.9137C48.4998 17.0108 48.597 17.1564 48.6618 17.3021C48.8075 17.7067 48.7751 18.176 49.0505 18.4996C49.2286 18.7262 49.5039 18.8233 49.7631 18.9366C51.0426 19.4059 52.4354 19.9076 53.7311 19.4868C54.2818 19.3088 54.7677 18.9851 55.3345 18.888C56.4359 18.6776 57.7153 19.2926 58.5899 18.5967C59.594 17.7876 58.9786 16.0398 59.7236 14.9879C60.1285 14.4215 60.8574 14.1464 61.1327 13.4505C61.2299 13.2077 61.2137 12.9164 61.0517 12.6899Z" fill="#F1F1F1" stroke="#BABABA" stroke-width="1.18548" stroke-linecap="round" stroke-linejoin="round"/>
</svg>
