<svg width="16" height="16" viewBox="0 0 16 16" fill="none" xmlns="http://www.w3.org/2000/svg">
<path d="M12.6306 6.45108C12.6629 6.7262 12.7601 7.00133 12.9383 7.19552C13.1003 7.35736 13.3108 7.43826 13.4728 7.5839C13.9263 7.98848 13.9748 8.66816 13.8615 9.26694C13.7643 9.84953 13.5537 10.4322 13.6185 11.0309C13.6833 11.6783 14.0558 12.3094 13.8453 12.9244C13.7805 13.0862 13.6671 13.2318 13.5699 13.3937C13.3594 13.7497 13.2136 14.1381 13.1489 14.5265C13.0733 14.5157 12.9977 14.4887 12.9221 14.4456C12.1123 14.0733 11.756 12.9082 10.849 12.8111C10.3307 12.7625 9.86107 13.1347 9.3428 13.2966C9.01888 13.3937 8.66253 13.4099 8.33861 13.507C7.9985 13.6203 7.67458 13.8468 7.60979 14.1867C7.54501 14.4456 7.65838 14.7369 7.52881 14.9796C7.44783 15.1253 7.3021 15.2062 7.15634 15.2709C6.71905 15.4489 6.26556 15.4327 5.77968 15.3842C5.43956 14.8016 4.88889 14.3161 4.4354 13.7821C3.81996 13.07 3.38266 12.2285 3.13972 11.3384C3.09114 11.128 3.04254 10.9177 2.92917 10.7558C2.55666 10.157 1.60109 10.2218 1.17999 9.65536C1.00184 9.4288 0.953257 9.13749 0.904669 8.87856C0.861479 8.61963 0.812907 8.36069 0.75892 8.10176C0.645548 7.45443 0.532169 6.77473 0.629345 6.11122C0.742716 5.44771 1.09902 4.80041 1.71447 4.5253C2.03839 4.39583 2.3947 4.36345 2.68623 4.18543C3.2045 3.84559 3.33407 3.14969 3.41505 2.55092C3.44744 2.24883 3.48522 1.94677 3.52841 1.64468C3.5608 1.30483 3.6256 0.948796 3.86854 0.706048C3.91173 0.673681 3.96572 0.635929 4.0305 0.592773C4.56497 0.722239 5.14804 0.754605 5.6987 0.754605C7.18873 0.797761 8.67874 0.840924 10.1688 0.884079C11.6912 0.916445 13.2298 0.964963 14.6875 1.41809C14.7415 1.42888 14.79 1.44507 14.8332 1.46665C14.9142 2.06543 14.7199 2.69658 14.315 3.13353C14.0882 3.37627 13.8129 3.55429 13.5699 3.78085C12.8411 4.44437 12.4848 5.48009 12.6306 6.45108Z" fill="#F1F1F1" stroke="#BABABA" stroke-width="1.18548" stroke-linecap="round" stroke-linejoin="round"/>
</svg>
