<svg width="25" height="14" viewBox="0 0 25 14" fill="none" xmlns="http://www.w3.org/2000/svg">
<path d="M17.8951 5.06046C17.8303 5.1252 17.7656 5.20611 17.6684 5.25466C17.4741 5.36795 17.2311 5.27084 17.1015 5.10901C16.9558 4.94718 16.8748 4.7368 16.7614 4.55879C16.4375 3.96001 15.8383 3.57161 15.2714 3.1994C14.8665 2.94047 14.4454 2.68153 13.9757 2.68153C13.0201 2.66535 12.4047 3.66871 11.9188 4.46168C11.8378 4.57497 11.7245 4.67207 11.5787 4.68825C11.2224 4.7368 11.109 4.36458 11.19 4.10565C11.2548 3.87909 11.4005 3.70107 11.4653 3.49069C11.6597 2.87573 11.2062 2.27695 10.7041 1.87237C9.31127 0.739549 7.36775 0.318788 5.63478 0.771918C5.16509 0.8852 4.71161 1.07939 4.22573 1.11176C3.61029 1.16031 3.01102 0.982301 2.41177 1.04703C1.95828 1.11177 1.56958 1.25741 1.18088 1.50016C1.1161 1.54332 1.05671 1.59187 1.00273 1.64581C0.889356 1.74291 0.727392 1.92092 0.695 2.00184C0.45206 2.92428 0.533036 4.21894 2.16883 3.87909C2.33079 3.84673 2.47656 3.78199 2.62233 3.71726C2.80048 3.62016 3.25396 3.53925 3.39972 3.79818C3.57788 4.07329 3.17298 4.36458 3.05961 4.67206C2.89765 5.15756 3.49691 5.61069 3.99899 5.54596C4.58204 5.46504 5.01932 4.99573 5.5052 4.68825C5.65097 4.60734 5.84532 4.60733 5.97489 4.70443C6.10446 4.8339 6.05588 4.99574 6.02349 5.1252C5.92631 5.46505 5.9587 5.93436 6.28262 6.06382C6.63893 6.17711 6.99524 5.80489 7.33536 5.69161C7.52971 5.62688 7.72406 5.80489 7.67547 5.99909C7.5297 6.50077 7.17339 6.93771 6.70371 7.18046C6.315 7.39084 5.76435 7.42321 5.47282 7.06718C5.35945 6.93772 5.31085 6.7597 5.18128 6.63024C4.95454 6.40367 4.59823 6.43604 4.2905 6.4684C3.96658 6.50077 3.64267 6.53313 3.35115 6.67878C3.05962 6.82443 2.81667 7.11573 2.81667 7.43939C2.83287 7.74688 3.02722 8.0058 3.22157 8.23237C3.62647 8.71786 4.04757 9.20337 4.56585 9.57558C5.08412 9.94779 5.71576 10.1744 6.3474 10.0773C7.30297 9.9316 8.06417 9.05771 9.05213 9.07389C9.19789 9.09008 9.34366 9.12245 9.44083 9.21955C9.81334 9.57558 9.29507 10.1258 9.60279 10.4657C9.69997 10.5951 9.86193 10.6275 10.0077 10.6275C10.2992 10.5951 10.526 10.4009 10.7527 10.2553C11.7569 9.62412 13.0202 9.65649 14.1863 9.72122C14.6883 9.7374 15.2066 9.76977 15.6763 9.94779C16.1136 10.1096 16.4861 10.4009 16.8424 10.7084C17.4254 11.1939 17.9707 11.7225 18.4782 12.2944C18.7535 12.6018 19.0289 12.9255 19.4014 13.0873C19.7253 13.233 20.0816 13.2492 20.4217 13.2492C21.3611 13.233 22.3004 13.1521 23.2236 12.974C23.4828 12.9255 23.7581 12.8122 23.9686 12.6342C24.6813 12.0192 24.2764 11.1777 23.7257 10.7084C23.3046 10.3362 22.7863 10.0934 22.3976 9.68885C22.0089 9.26809 21.8146 8.5884 22.1709 8.15145C22.3004 7.98962 22.4948 7.87634 22.5758 7.68214C22.673 7.43939 22.5272 7.14809 22.3328 6.97008C22.1223 6.79206 21.8632 6.69496 21.6364 6.5655C20.9886 6.19328 20.5351 5.57832 19.9358 5.15756C19.3366 4.7368 18.4296 4.5426 17.8951 5.06046Z" fill="#F1F1F1" stroke="#BABABA" stroke-width="1.18548" stroke-linecap="round" stroke-linejoin="round"/>
</svg>
