<svg width="144" height="70" viewBox="0 0 144 70" fill="none" xmlns="http://www.w3.org/2000/svg">
<path d="M142.783 31.8012C142.395 31.9954 141.925 32.1573 141.698 32.5457C141.374 33.1444 141.828 33.9698 141.488 34.5686C141.326 34.8275 141.05 35.0055 140.775 35.1188C139.803 35.5234 138.718 35.5072 137.827 36.1383C137.665 36.2462 137.531 36.3757 137.423 36.5267C136.71 37.4654 137.277 38.3231 137.633 39.1484C137.892 39.7634 137.989 40.5725 137.471 40.9933C137.228 41.2037 136.904 41.2522 136.629 41.3979C136.046 41.6892 135.592 42.3365 134.961 42.2394C134.734 42.207 134.54 42.0938 134.329 41.9967C133.406 41.6406 132.321 42.1261 131.398 41.7863C130.976 41.6244 130.636 41.317 130.248 41.1228C129.843 40.9286 129.325 40.8477 129.001 41.1551C128.855 41.2846 128.774 41.4626 128.693 41.6406C128.272 42.5577 127.856 43.4693 127.446 44.3756C127.008 45.3304 126.571 46.2852 126.182 47.24C125.972 47.7417 125.794 48.4052 126.199 48.7774C126.409 48.9878 126.733 49.0363 126.927 49.3115C126.992 49.4086 127.008 49.538 126.976 49.6513C126.895 49.8455 126.668 49.8779 126.474 49.8779C125.923 49.8994 125.378 49.921 124.838 49.9426H124.692C124.466 49.9426 124.271 49.8455 124.126 49.6837C123.818 49.3276 123.543 49.1982 123.089 49.2791C122.538 49.3924 122.052 49.716 121.502 49.8455C120.789 49.9911 119.947 49.7808 119.364 50.2339C119.234 50.331 119.121 50.4766 118.959 50.5252C118.619 50.6223 118.117 50.3634 117.971 50.7032C117.89 50.9136 118.004 51.1402 118.214 51.2211C118.846 51.4638 119.089 52.1273 119.202 52.7585C119.315 53.3573 119.348 53.9884 119.315 54.6034C119.315 54.8137 119.283 55.0241 119.348 55.2345C119.413 55.5258 119.639 55.7524 119.801 56.0113C120.174 56.5615 120.336 57.2412 120.498 57.8885C120.546 58.1151 120.595 58.3255 120.562 58.5359C120.449 59.4583 119.121 59.6687 118.668 60.4779C118.457 60.8501 118.473 61.287 118.522 61.7078C118.084 61.7725 117.663 61.7725 117.226 61.6754C116.125 61.4003 115.299 60.4455 114.23 60.0409C113.631 59.8144 112.967 59.782 112.319 59.7334C110.008 59.5932 107.697 59.4583 105.387 59.3289C104.885 59.2965 104.383 59.2641 103.929 59.4421C103.654 59.5554 103.427 59.7334 103.168 59.8467C102.245 60.2513 101.192 59.9438 100.237 59.6363C99.6858 59.4421 99.1352 59.2641 98.6817 58.9081C98.3901 58.6815 98.1472 58.3902 97.8071 58.2122C97.2726 57.9371 96.5762 58.0666 96.0903 58.455C95.6206 58.8434 95.3615 59.4421 95.2967 60.0571C95.2643 60.3484 95.2644 60.6721 95.07 60.8986C94.8595 61.1252 94.5031 61.1576 94.1792 61.1414C93.1913 61.0928 92.2033 60.8663 91.2963 60.4617C90.3893 60.0733 89.4823 59.8953 88.5268 60.1704C87.6198 60.4293 86.7938 61.0119 86.2917 61.8049C86.2917 61.8157 86.2917 61.8211 86.2917 61.8211C86.1298 62.08 85.9678 62.3713 85.6925 62.517C85.4333 62.6464 85.1094 62.5979 84.8341 62.7111C84.5426 62.8406 84.3644 63.0995 84.1701 63.3261C83.2469 64.3942 81.9027 64.9768 80.6556 65.6565C79.4247 66.32 78.1614 67.2101 77.7079 68.5533C77.6269 68.7799 77.5621 69.0388 77.3839 69.2006C76.9467 69.5728 76.2826 69.1197 76.0397 68.6018C75.7968 68.1001 75.6834 67.469 75.2137 67.1615C74.7116 66.8217 74.0476 67.0159 73.4483 67.113C72.8491 67.2101 72.0879 67.113 71.8773 66.5465C71.7963 66.3038 71.8449 66.0449 71.8449 65.7859C71.7963 64.0705 69.4317 63.1481 69.2374 61.4327C69.1726 60.7692 69.4155 59.9762 68.962 59.4745C68.7353 59.2318 68.4114 59.1346 68.1037 59.0214C67.1643 58.633 66.3706 57.8885 65.9333 56.9823C65.8362 56.7881 65.739 56.5777 65.5771 56.4321C65.0588 55.9951 64.33 56.513 63.6983 56.7395C62.678 57.1118 61.5766 56.7072 60.5239 56.513C58.9205 56.2217 57.2199 56.4644 55.7623 57.1765C55.5517 57.2898 55.3412 57.3869 55.1145 57.403C54.6934 57.4354 54.337 57.1441 54.0455 56.8366C52.6041 55.3478 51.7133 53.2602 50.1261 52.0141C50.1585 51.9385 50.1908 51.863 50.2232 51.7875C50.3366 51.6095 50.4662 51.4476 50.5796 51.2696C50.7577 50.946 50.8225 50.5414 50.7415 50.1692C50.6444 49.6513 50.2719 49.2305 50.1099 48.7127C49.9318 48.1786 49.9965 47.5637 50.2232 47.0296C50.45 46.4956 50.8225 46.0424 51.2598 45.6702C51.4542 45.4922 51.6647 45.3466 51.7943 45.1362C51.94 44.9258 52.021 44.6345 51.9077 44.408C51.7781 44.149 51.4703 44.0196 51.195 43.9386C50.6875 43.766 50.1746 43.5988 49.6564 43.437C49.4782 43.3722 49.2677 43.3237 49.0734 43.3399C48.879 43.3561 48.6684 43.4855 48.6198 43.6797C48.5875 43.8739 48.7008 44.0681 48.8628 44.1814C49.0085 44.3109 49.2029 44.3594 49.3811 44.4565C49.5592 44.5374 50.0937 44.8773 49.6726 45.3789C49.4134 45.7026 48.9114 45.735 48.4903 45.7026C48.0692 45.6702 47.6643 45.5408 47.2594 45.4437C47.0489 45.3951 46.8059 45.3628 46.644 45.5084C46.5306 45.6379 46.5144 45.8321 46.4982 45.9939C46.4658 46.3176 46.3686 46.625 46.2391 46.9163C46.1419 47.0944 46.0285 47.2724 45.8665 47.3857C45.7046 47.4989 45.4778 47.5313 45.2997 47.4342C45.0405 47.2724 45.0405 46.9002 44.8948 46.625C44.7166 46.3176 44.2955 46.1719 43.9554 46.3176C43.6963 46.4308 43.5182 46.6898 43.4048 46.9649C43.3076 47.24 43.2752 47.5313 43.2104 47.8226C43.1888 47.8981 43.1672 47.979 43.1456 48.0654C41.8661 48.1786 40.6028 48.5347 39.3719 48.8907C38.9022 49.0202 38.4487 49.1496 37.9953 49.3276C37.6875 49.4409 37.3961 49.5866 37.0721 49.6999C36.7806 49.797 36.4729 49.8617 36.1814 49.9588C35.8574 50.0882 35.5335 50.2501 35.2096 50.3796C34.8371 50.5252 34.4484 50.6061 34.0435 50.6708C33.6871 50.7194 33.428 51.0107 33.428 51.3829V66.7731C33.0717 66.7839 32.7208 66.7893 32.3753 66.7893C32.1324 66.7893 31.8894 66.7893 31.6627 66.7246C30.9987 66.5304 30.6099 65.8669 30.2698 65.2681C29.8163 64.4751 29.3142 63.6821 28.634 63.051C28.0348 62.4846 27.3221 62.1285 26.5285 61.9991C26.291 61.9667 26.048 61.9559 25.7997 61.9667C25.573 61.9667 25.3462 61.9991 25.1194 62.0962C24.9089 62.1771 24.7308 62.3066 24.5202 62.4037C23.9534 62.695 23.3055 62.7597 22.7387 63.051C22.431 63.2128 22.1556 63.4394 21.8803 63.666C21.7345 63.7792 21.6049 63.8925 21.4916 64.022C21.2648 64.2647 21.0867 64.556 20.8924 64.815C20.8492 64.8905 20.8005 64.9606 20.7465 65.0253C20.6008 64.8797 20.4874 64.7178 20.4388 64.5236C20.3254 64.0543 20.6008 63.585 20.6494 63.0995C20.6494 63.0186 20.6494 62.9539 20.6818 62.8892C20.7465 62.7597 20.8923 62.695 21.0381 62.614C21.1839 62.5331 21.3296 62.3875 21.2648 62.2256C21.3296 61.9829 21.7183 61.9182 21.8479 61.6754C21.8803 61.6107 21.8803 61.546 21.8965 61.4812C21.9774 60.8501 21.5725 60.2189 20.9895 59.9438C20.6332 59.782 20.1959 59.7334 19.8072 59.8305C19.629 59.8629 19.4508 59.9276 19.2889 59.8629C19.0298 59.7658 18.965 59.3774 18.6897 59.2641C18.6411 59.2479 18.5763 59.2318 18.5277 59.1994C18.382 59.0699 18.5115 58.7624 18.3333 58.6653C18.2686 58.633 18.1876 58.6492 18.1228 58.6653C17.8961 58.7301 17.6693 58.8272 17.4264 58.8434C17.1996 58.8757 16.9405 58.8272 16.7624 58.6653C16.5842 58.5197 16.5194 58.2608 16.5194 58.018C16.5194 57.7915 16.568 57.5487 16.6004 57.3221C16.649 56.9499 16.649 56.5615 16.568 56.1893C16.5518 56.0598 16.5194 55.9466 16.4385 55.8333C16.3737 55.7362 16.2441 55.6714 16.1145 55.6876C16.1145 55.6229 16.0983 55.5744 16.0983 55.5744C16.0497 55.3316 15.8229 55.186 15.6448 55.0241C15.418 54.7976 15.2561 54.5224 15.0456 54.2797C14.916 54.1179 14.7378 53.9722 14.5435 53.9237C14.1872 53.8266 13.7661 54.0208 13.4908 53.7942C13.2964 53.6486 13.264 53.3734 13.2964 53.1307C13.3288 52.9041 13.4098 52.6776 13.426 52.4348C13.4422 52.3215 13.426 52.1921 13.4745 52.0788C13.5231 51.9817 13.6203 51.917 13.7013 51.8684C13.8956 51.7389 14.0738 51.6256 14.2681 51.5609C14.6244 51.4314 15.0456 51.48 15.3695 51.6742C15.5315 51.7713 15.6772 51.9169 15.8716 51.9655C15.9526 51.9979 16.0497 51.9979 16.1307 51.9979C16.4438 52.0195 16.7515 52.0356 17.0539 52.0464C17.1349 52.0464 17.232 52.0626 17.313 52.0302C17.394 51.9979 17.4588 51.9331 17.4588 51.836C17.475 51.7551 17.4102 51.6742 17.3454 51.6257C17.0376 51.3991 16.6004 51.4638 16.2603 51.2858C16.1793 51.2211 16.0821 51.1402 16.0497 51.0431C16.0335 50.9621 16.0335 50.8812 16.0497 50.8003C16.0821 50.5737 16.2117 50.331 16.4385 50.3148C16.5194 50.2986 16.6166 50.3148 16.6652 50.2501C16.6814 50.2339 16.6975 50.2015 16.6975 50.1692C16.7299 49.9642 16.7623 49.7538 16.7947 49.538C17.2644 48.9554 17.9932 48.5832 18.722 48.4214C19.4994 48.2595 20.3093 48.3081 21.0867 48.4538C21.3458 48.5023 21.6211 48.5508 21.8317 48.7127C22.026 48.8583 22.1718 49.0687 22.3661 49.2144C22.5605 49.36 22.852 49.4409 23.0464 49.2953C23.3379 49.0525 23.1112 48.5832 22.8197 48.3567C22.5281 48.1463 22.1556 47.9682 22.0584 47.6122C21.9774 47.2238 22.2852 46.8678 22.6253 46.6574C22.9492 46.4632 23.3541 46.3499 23.6295 46.0748C24.0182 45.6864 24.0667 45.0067 23.7428 44.5698C23.4998 44.2461 23.0626 43.9386 23.1921 43.5664C23.2569 43.3722 23.4513 43.2589 23.6133 43.1457C23.7752 43.0162 23.9372 42.822 23.8724 42.6278C23.84 42.5469 23.759 42.466 23.678 42.4012C23.2083 41.9967 22.6577 41.5597 22.0422 41.6244C21.2648 41.7215 20.6818 42.5792 19.8882 42.5145C19.4833 42.4821 19.1432 42.1908 18.7869 41.9481C18.0419 41.4464 17.1349 41.2037 16.2441 41.2522C16.0821 41.2684 15.8878 41.3008 15.8392 41.4464C15.8068 41.5435 15.823 41.6406 15.823 41.7215C15.7906 42.0776 15.3371 42.207 14.9808 42.2232C14.3978 42.2394 13.7661 42.207 13.2802 42.5145C12.9401 42.7411 12.7134 43.1133 12.4542 43.437C12.2113 43.7768 11.8712 44.0843 11.4663 44.1005C11.1423 44.1167 10.7212 44.0034 10.5755 44.2785C10.5107 44.4079 10.5431 44.5536 10.5269 44.6992C10.4945 44.8773 10.365 45.0229 10.203 45.1362C9.76031 44.8665 9.31759 44.5968 8.8749 44.327C8.69674 44.2299 8.51859 44.1166 8.38902 43.9548C8.09749 43.5502 8.22703 43 8.27562 42.5145C8.46997 40.6373 6.97994 38.7438 5.1174 38.4849C4.37238 38.3878 3.54642 38.4849 2.96336 38.0156C2.23454 37.3844 2.36411 36.1383 1.66768 35.4748C1.45713 35.2644 1.18183 35.135 0.971286 34.9246C0.533994 34.4877 0.46921 33.727 0.809326 33.2092C1.01987 32.9017 1.35993 32.6913 1.55428 32.3677C2.2831 31.2186 0.890306 29.4061 1.86207 28.4513C2.15359 28.1762 2.59085 28.0629 2.8014 27.7231C3.09293 27.2376 2.76904 26.5093 3.40068 26.1371C3.77319 25.9106 4.24288 25.9591 4.61538 26.2019C5.66812 26.8492 5.74909 28.3218 7.02857 28.7588C7.46586 28.9044 7.98415 28.7264 8.1785 28.2895C8.51862 27.5451 7.59545 26.9463 7.61164 26.2019C7.64403 25.6193 8.22704 25.2309 8.77771 25.0205C9.32837 24.8101 9.94383 24.6483 10.2516 24.1466C10.4945 23.7906 10.5107 23.3051 10.8022 22.9814C11.3043 22.415 12.2437 22.7387 12.9563 22.4797C13.6042 22.2532 13.9766 21.6058 14.3815 21.0718C14.7864 20.5215 15.4181 20.0037 16.0659 20.1817C16.5032 20.3112 16.811 20.7319 17.2483 20.8776C18.3334 21.2498 19.4023 19.8257 20.5036 20.1493C21.119 20.3274 21.4916 21.0232 22.1071 21.2498C22.7225 21.4764 23.3865 21.1689 24.0506 21.1689C24.9414 21.1851 25.7187 21.7839 26.3018 22.4635C26.9011 23.1918 27.3545 24.0333 28.0347 24.6806C28.1157 24.7616 28.2291 24.8101 28.3425 24.8101C28.7474 24.8425 28.8121 24.2761 29.1037 24.0171C29.3952 23.7582 29.8649 23.8877 30.1726 24.1304C30.4642 24.3732 30.6747 24.713 30.9986 24.9396C31.9218 25.6354 33.2499 25.069 34.2378 24.4702C35.2258 23.8553 36.4081 23.1594 37.4608 23.6611C37.7524 23.7906 37.9953 24.0009 38.303 24.0495C39.0319 24.179 39.5663 23.386 40.2627 23.1432C41.3154 22.7872 42.3358 23.7258 43.0484 24.5674L43.0647 24.5835C43.2428 24.8263 43.5182 24.9396 43.8097 24.9234C44.2794 24.891 44.749 24.9396 45.0729 25.247C45.3807 25.5545 45.5264 26.0886 46.0609 26.04C46.2715 26.0238 46.482 25.9106 46.6278 25.7325C46.9031 25.3927 47.1622 24.9881 47.5509 24.7454C47.8262 24.5835 48.1664 24.5026 48.4741 24.6159C48.7008 24.6806 48.8628 24.8587 49.0734 24.9881C49.7212 25.3927 50.5958 25.328 51.2922 24.9881C51.9724 24.6321 52.5069 24.0495 52.9766 23.4183C53.1385 23.1918 53.3167 22.9167 53.3329 22.6254C53.3653 22.3017 53.1872 21.9942 52.9604 21.7677C52.7337 21.5411 52.4421 21.3955 52.1668 21.2498C51.778 21.0556 51.3894 20.8452 50.9845 20.7158C50.612 20.5863 50.2071 20.5216 49.8345 20.3759C49.3163 20.1655 48.8628 19.8095 48.4903 19.3725C48.4417 19.3078 48.377 19.2269 48.3446 19.146C48.296 18.9518 48.3931 18.7414 48.5551 18.6119C48.7008 18.4987 48.8952 18.4339 49.0895 18.3692C49.4566 18.2397 49.813 18.0779 50.1585 17.8837C50.4338 17.7219 50.7091 17.5277 50.8711 17.2525C51.0168 16.9613 50.9844 16.5567 50.7091 16.3625C50.6119 16.2977 50.4824 16.2654 50.4176 16.1683C50.3528 16.0874 50.3529 15.9903 50.3529 15.8932C50.3367 15.2458 50.3852 14.4852 50.9521 14.1616C51.1626 14.0483 51.4218 14.0159 51.6647 13.9997C52.1668 13.9835 52.6688 14.0321 53.1547 14.1616C53.5272 14.2587 53.9159 14.3881 54.2884 14.2425C54.4828 14.1616 54.6286 13.9997 54.6448 13.8055C54.6934 13.5142 54.4828 13.3524 54.2884 13.2391C54.0293 13.0935 53.754 12.9964 53.4624 12.9478C53.1061 12.8831 52.7013 12.8669 52.4583 12.608C52.264 12.4138 52.2154 12.1225 52.102 11.8797C52.0372 11.7179 51.8915 11.5722 51.7295 11.5075C51.5675 11.4428 51.4541 11.3133 51.4379 11.1353L51.4218 10.9411C51.3786 10.6714 51.3408 10.4071 51.3084 10.1481C51.2922 10.051 51.2922 9.95393 51.3408 9.87302C51.4056 9.7921 51.5189 9.77592 51.6323 9.77592C53.0144 9.71119 54.4019 9.64105 55.7947 9.56553C56.394 9.54935 57.0256 9.50081 57.5601 9.20951C58.0459 8.93439 58.4022 8.46508 58.8881 8.17378C60.1028 7.41317 61.852 7.93102 63.0019 7.07332C63.2125 6.91148 63.3906 6.7173 63.6011 6.60402C64.1032 6.34509 64.6863 6.47454 65.237 6.5069C66.0144 6.53927 66.7594 6.31272 67.5044 6.11852C69.5613 5.53593 71.6505 4.9857 73.7884 4.82387C74.5982 4.75913 75.5052 4.72675 76.0883 4.16034C76.396 3.86904 76.5903 3.48065 76.8819 3.17317C77.0924 2.9466 77.4164 2.7686 77.7241 2.80097C77.9508 2.81715 78.1937 2.78478 78.4043 2.67149L78.4367 2.65531C79.457 2.12127 80.283 1.23119 81.352 0.794248C82.4209 0.357302 83.9433 0.616225 84.2672 1.71668C84.3482 1.9918 84.3482 2.28311 84.4454 2.55822C84.575 2.89807 84.8341 3.1408 85.0608 3.41592C85.984 4.46782 86.5347 5.84339 86.5671 7.23515C86.5833 7.65591 86.5671 8.10904 86.8424 8.43271C87.0205 8.64309 87.2959 8.75638 87.5712 8.78875C88.3 8.91821 89.0774 8.61072 89.5309 8.02813C89.6767 7.85011 89.8063 7.62356 90.114 7.67211C90.3246 7.72065 90.5027 7.88248 90.5837 8.09286C90.7294 8.51363 90.8914 9.03149 91.2963 9.29042C91.5878 9.50081 92.0737 9.50081 92.2681 9.19333C92.4462 8.91821 92.4624 8.43271 92.8187 8.48126C92.9483 8.49745 93.0617 8.61073 93.1103 8.74019C93.499 9.695 95.07 9.64645 95.4749 8.75637C95.8474 8.95057 95.8798 9.51698 95.6692 9.88919C95.4587 10.2614 95.0861 10.5042 94.7622 10.7954C94.6164 10.9249 94.4546 11.0868 94.5031 11.3295C94.5517 11.5399 94.7623 11.6693 94.9728 11.6693C95.6368 11.6693 95.9445 10.9087 96.5438 10.844C96.9649 10.7793 97.3374 11.0868 97.6937 11.2971C98.0662 11.4913 98.6169 11.5723 98.8274 11.2162C98.9246 11.0706 98.9246 10.8764 99.0056 10.7145C99.2971 9.97011 100.479 10.2938 101.111 9.80828C101.386 9.61408 101.532 9.29042 101.775 9.06386C102.277 8.59454 103.055 8.59455 103.686 8.31943C104.14 8.12523 104.512 7.78538 104.933 7.52645C105.403 7.23516 105.986 7.02477 106.504 7.2837C106.78 7.41317 106.974 7.70447 106.974 8.01195C106.974 8.74019 105.97 8.67546 106.083 9.45226C106.132 9.7921 106.391 10.051 106.731 10.1481C108.432 10.666 109.679 12.0092 110.796 13.3686C111.433 14.1454 112.043 14.9438 112.626 15.7637C113.22 16.5944 113.787 17.4306 114.327 18.2721C114.575 18.6605 114.818 19.0489 115.056 19.4373C115.283 19.8041 115.477 20.1925 115.639 20.6025C115.866 21.1365 116.092 21.6706 116.352 22.1884C116.6 22.7063 116.881 23.2134 117.194 23.7096C117.534 24.2599 118.068 24.8748 118.781 24.4702C118.927 24.3893 119.056 24.2599 119.153 24.1142L120.255 22.5606C120.336 22.4474 120.417 22.3503 120.514 22.2693C120.967 21.9133 121.664 22.3017 121.988 22.8034C122.295 23.2889 122.457 23.9038 122.927 24.2761C123.235 24.5188 123.64 24.5997 124.028 24.6806C124.692 24.8263 125.389 24.9719 126.053 24.8101C126.863 24.6321 127.511 24.0333 128.304 23.7744C129.551 23.3536 131.041 23.9038 131.721 25.0367C132.143 25.7164 132.321 26.6226 133.001 27.0272C133.633 27.3994 134.459 27.2214 135.074 27.5936C135.592 27.9011 135.835 28.5161 136.111 29.0501C136.532 29.8431 137.261 30.6037 138.151 30.5389C138.686 30.5066 139.139 30.1991 139.625 29.9564C140.095 29.7298 140.71 29.6003 141.131 29.9078C141.455 30.1344 141.585 30.5551 141.795 30.895C142.022 31.2834 142.378 31.5909 142.783 31.8012Z" fill="#77B341" stroke="#BABABA" stroke-width="1.18548" stroke-linecap="round" stroke-linejoin="round"/>
</svg>
