<svg width="30" height="22" viewBox="0 0 30 22" fill="none" xmlns="http://www.w3.org/2000/svg">
<path d="M28.4336 12.2067C28.4013 12.4171 28.3688 12.6436 28.304 12.8378C28.0611 13.5499 27.3647 14.0839 26.6035 14.1325C25.7937 14.181 24.8219 13.7603 24.255 14.3429C23.8987 14.6989 23.8664 15.2977 23.4453 15.5566C23.4021 15.5782 23.3589 15.5997 23.3157 15.6213C23.1375 15.6861 22.927 15.6861 22.7326 15.6861C21.8904 15.7023 20.9835 15.7023 20.2385 15.2815C20.2169 15.2599 20.1899 15.2437 20.1575 15.2329C19.9631 15.1035 19.7688 14.974 19.542 14.9255C19.0238 14.8284 18.5703 15.233 18.1006 15.4433C17.5985 15.6537 17.0478 15.6699 16.5134 15.6699C14.4835 15.713 12.459 15.7562 10.4399 15.7994C10.2455 15.7994 10.035 15.8156 9.87302 15.8965C9.41954 16.123 9.40335 16.7865 9.5977 17.2558C9.79205 17.709 10.116 18.1459 10.1483 18.6476C10.1645 19.1655 9.87301 19.6348 9.77583 20.1365C9.19278 20.0394 8.64213 19.8128 8.17244 19.4406C8.01048 19.3111 7.84853 19.1655 7.65418 19.1169C7.42744 19.0522 7.20068 19.1169 6.99013 19.1816C6.45566 19.3273 5.85642 19.5215 5.58109 20.007C5.50011 20.1365 5.45153 20.2821 5.35436 20.4116C5.14381 20.7029 4.70649 20.7838 4.39877 20.622C4.17203 20.4925 4.02629 20.2497 3.81574 20.1203C3.49182 19.9099 3.0383 19.9261 2.81156 19.6186C2.73058 19.5215 2.69821 19.3758 2.63342 19.2625C2.43907 18.858 1.98558 18.6638 1.58068 18.4372C1.24057 18.243 0.932836 17.9841 0.641308 17.709C0.625112 17.531 0.592712 17.3529 0.592712 17.1749C0.608908 16.8189 0.706108 16.479 0.81948 16.1554C0.916656 15.8803 1.01381 15.589 1.15957 15.3462C1.40251 14.974 1.79122 14.618 1.69405 14.181L1.53209 13.6955C1.38093 13.4042 1.22438 13.1183 1.06242 12.8378C1.01383 12.7407 0.965244 12.6598 0.98144 12.5627C0.98144 12.2552 1.38632 12.1743 1.69405 12.1905C2.60102 12.2067 3.70233 12.0772 4.10723 11.2519C4.33398 10.7664 4.25303 10.1838 4.46358 9.6821C4.62554 9.34226 4.91706 9.06716 5.06282 8.72731C5.25717 8.24182 5.17619 7.64301 5.46772 7.20607C5.72686 6.81767 6.29371 6.65586 6.71481 6.86624C7.07112 7.02808 7.31406 7.38411 7.68656 7.48121C8.20484 7.62686 8.69072 7.18988 8.94986 6.72057C9.209 6.28363 9.35476 5.78197 9.5977 5.32884C9.84064 4.89189 10.1969 4.45494 10.6828 4.30929C11.2497 4.14746 11.9137 4.39022 12.4158 4.08274C12.5777 3.98564 12.7073 3.82381 12.8369 3.67816C13.4847 2.99847 14.3107 2.49678 15.2339 2.25403C15.5416 2.17312 15.8655 2.12456 16.1409 1.96273C16.5944 1.68762 16.8373 1.15359 17.2746 0.846105C18.0844 0.295876 19.1533 0.748982 20.0279 1.18593C20.1899 1.28303 20.3842 1.36396 20.5624 1.36396C20.5786 2.10839 20.5624 2.83661 20.9349 3.45157C21.0321 3.62959 21.1778 3.79145 21.2426 4.00183C21.2912 4.13129 21.3074 4.27694 21.356 4.40641C21.4046 4.53587 21.4856 4.64915 21.5827 4.76243C22.2144 5.53922 22.9918 6.20272 23.8663 6.68821C24.0607 6.8015 24.2874 6.94717 24.2712 7.15755C24.2712 7.25465 24.2226 7.35174 24.1741 7.43266C23.8501 8.14472 24.1903 9.0186 24.8058 9.48791C25.4212 9.95723 26.2634 10.0381 27.0246 9.89249C27.1055 9.87631 27.2028 9.86011 27.2999 9.87629C27.5591 9.95721 27.5429 10.3294 27.5429 10.6045C27.5267 11.2357 27.8992 11.8669 28.4336 12.2067Z" fill="#F1F1F1" stroke="#BABABA" stroke-width="1.18548" stroke-linecap="round" stroke-linejoin="round"/>
</svg>
