<svg width="16" height="17" viewBox="0 0 16 17" fill="none" xmlns="http://www.w3.org/2000/svg">
<path d="M15.4121 7.79429C15.0882 8.47399 14.5861 9.05657 13.9545 9.47733C13.4524 9.80099 12.8855 10.0275 12.3835 10.3512C11.8814 10.6749 11.4279 11.128 11.3146 11.7106C11.2498 12.0505 11.3145 12.4065 11.185 12.7302C11.1526 12.8111 11.104 12.8758 11.0392 12.9405C10.7801 13.3127 10.2942 13.4907 9.90547 13.7497C9.40339 14.0895 9.04711 14.5912 8.64221 15.0282C8.48025 15.19 8.31828 15.3356 8.14012 15.4651C8.14012 15.4759 8.14012 15.4759 8.14012 15.4651C7.96197 15.4813 7.76763 15.4975 7.58947 15.4813C6.48815 15.4166 5.61356 14.3647 4.51224 14.3485C4.20451 14.3485 3.88058 14.4294 3.57286 14.3808C3.28133 14.3161 3.006 14.1381 2.76306 13.9601C2.03424 13.4422 1.2892 12.9243 0.592773 12.3741C0.706145 11.9533 0.868121 11.5326 1.09487 11.1604C1.53216 10.4321 2.1638 9.80098 2.30956 8.97563C2.42294 8.39304 2.32576 7.69717 2.79544 7.32496C3.15176 7.01748 3.67002 7.0984 4.12351 7.13077C5.07907 7.22787 6.05082 7.16314 6.99019 6.93658C7.20074 6.88803 7.44371 6.77474 7.42751 6.56436C7.42751 6.48344 7.37891 6.40254 7.33032 6.33781C6.53672 5.20498 5.48399 4.26633 4.2693 3.60282C4.15592 3.53809 4.04253 3.48956 3.96155 3.37627C3.81578 3.19826 3.84817 2.92315 3.99393 2.72895C4.1397 2.55093 4.38264 2.47 4.60939 2.47C4.75515 2.48618 4.9171 2.51856 5.04667 2.43764C5.22483 2.34054 5.25724 2.09781 5.22484 1.88743C5.19245 1.69323 5.09528 1.499 5.11148 1.28862C5.14387 0.851673 5.62973 0.592773 6.06703 0.592773C6.48812 0.608957 6.89301 0.78694 7.31411 0.884039C7.70281 0.964955 8.10774 0.981154 8.51264 0.981154C9.21446 0.991943 9.91629 0.997353 10.6181 0.997353C10.8611 1.01354 11.104 0.997322 11.2983 0.884039C11.3955 0.803123 11.4765 0.722231 11.5575 0.625132C11.5251 1.46666 11.4981 2.30816 11.4765 3.14969C11.4765 3.76465 11.4603 4.36346 11.4765 4.96223C11.5251 5.86849 11.6547 6.75855 11.7842 7.64862C11.8004 7.68099 11.8004 7.71337 11.8328 7.74574C11.849 7.7781 11.8976 7.77809 11.9462 7.77809C12.2809 7.77809 12.621 7.77809 12.9665 7.77809C13.2581 7.77809 13.5496 7.79426 13.8411 7.7619C13.8411 7.7619 13.8465 7.75653 13.8573 7.74574C13.9221 7.75653 13.9923 7.7619 14.0679 7.7619C14.5106 7.77268 14.9586 7.7835 15.4121 7.79429Z" fill="#F1F1F1"/>
<path d="M8.14012 15.4651C8.31828 15.3356 8.48025 15.19 8.64221 15.0282C9.04711 14.5912 9.40339 14.0895 9.90547 13.7497C10.2942 13.4907 10.7801 13.3127 11.0392 12.9405C11.104 12.8758 11.1526 12.8111 11.185 12.7302C11.3145 12.4065 11.2498 12.0505 11.3146 11.7106C11.4279 11.128 11.8814 10.6749 12.3835 10.3512C12.8855 10.0275 13.4524 9.80099 13.9545 9.47733C14.5861 9.05657 15.0882 8.47399 15.4121 7.79429C14.9586 7.7835 14.5106 7.77268 14.0679 7.7619C13.9923 7.7619 13.9221 7.75652 13.8573 7.74574C13.8465 7.75652 13.8411 7.7619 13.8411 7.7619C13.5496 7.79426 13.2581 7.77809 12.9665 7.77809C12.621 7.77809 12.2809 7.77809 11.9462 7.77809C11.8976 7.77809 11.849 7.7781 11.8328 7.74574C11.8004 7.71337 11.8004 7.68099 11.7842 7.64862C11.6547 6.75855 11.5251 5.86849 11.4765 4.96224C11.4603 4.36346 11.4765 3.76465 11.4765 3.14969C11.4981 2.30816 11.5251 1.46666 11.5575 0.625132C11.4765 0.722231 11.3955 0.803123 11.2983 0.884039C11.104 0.997322 10.8611 1.01354 10.6181 0.997353C9.91629 0.997353 9.21446 0.991943 8.51264 0.981154C8.10774 0.981154 7.70281 0.964955 7.31411 0.884039C6.89301 0.78694 6.48812 0.608957 6.06703 0.592773C5.62974 0.592773 5.14387 0.851673 5.11148 1.28862C5.09528 1.499 5.19245 1.69323 5.22484 1.88743C5.25724 2.09781 5.22483 2.34054 5.04667 2.43764C4.9171 2.51856 4.75515 2.48618 4.60939 2.47C4.38264 2.47 4.1397 2.55093 3.99393 2.72895C3.84817 2.92315 3.81578 3.19826 3.96155 3.37627C4.04253 3.48956 4.15592 3.53809 4.2693 3.60282C5.48399 4.26633 6.53672 5.20498 7.33032 6.33781C7.37891 6.40254 7.42751 6.48344 7.42751 6.56436C7.44371 6.77474 7.20074 6.88803 6.99019 6.93658C6.05082 7.16314 5.07907 7.22787 4.12351 7.13077C3.67002 7.0984 3.15176 7.01748 2.79544 7.32496C2.32576 7.69717 2.42294 8.39304 2.30956 8.97564C2.1638 9.80098 1.53216 10.4321 1.09487 11.1604C0.868121 11.5326 0.706145 11.9533 0.592773 12.3741C1.2892 12.9243 2.03424 13.4422 2.76306 13.9601C3.006 14.1381 3.28133 14.3161 3.57286 14.3808C3.88058 14.4294 4.20451 14.3485 4.51224 14.3485C5.61356 14.3647 6.48815 15.4166 7.58947 15.4813C7.76763 15.4975 7.96197 15.4813 8.14012 15.4651ZM8.14012 15.4651C8.14012 15.4759 8.14012 15.4759 8.14012 15.4651Z" stroke="#BABABA" stroke-width="1.18548" stroke-linecap="round" stroke-linejoin="round"/>
</svg>
