<svg width="5" height="5" viewBox="0 0 5 5" fill="none" xmlns="http://www.w3.org/2000/svg">
<path d="M4.1175 2.15519C4.13369 2.09045 4.10131 2.02572 4.08511 1.96099C3.97174 1.66969 3.77739 1.41076 3.51825 1.24893C3.3401 1.11947 3.14574 1.03854 2.98378 0.909078C2.919 0.844345 2.8542 0.763431 2.77322 0.698698C2.4493 0.488317 1.99583 0.61778 1.7367 0.909078C1.7043 0.957627 1.65571 1.00617 1.60712 1.03854C1.55853 1.07091 1.49375 1.07092 1.44516 1.0871C1.20222 1.13565 0.975484 1.2813 0.845916 1.49168L0.667744 1.88007C0.570568 2.05808 0.570592 2.28465 0.651572 2.47885C0.732552 2.67305 0.926888 2.80251 1.12124 2.85106C1.20222 2.86724 1.29941 2.86725 1.38039 2.88343C1.60714 2.93198 1.78529 3.10999 1.94725 3.28801C2.04443 3.38511 2.1416 3.48221 2.27117 3.53076C2.48172 3.61167 2.70846 3.53076 2.91901 3.44984C3.16195 3.35274 3.43729 3.23946 3.53447 2.98052C3.58305 2.88342 3.58305 2.77014 3.64783 2.68923C3.7612 2.46266 4.1013 2.39793 4.1175 2.15519Z" fill="#F1F1F1" stroke="#BABABA" stroke-width="1.18548" stroke-linecap="round" stroke-linejoin="round"/>
</svg>
