<svg width="63" height="46" viewBox="0 0 63 46" fill="none" xmlns="http://www.w3.org/2000/svg">
<path d="M62.0132 2.46802C61.9484 1.98253 61.6245 1.49703 61.1386 1.41612C60.7823 1.3352 60.4098 1.48085 60.0697 1.39994C59.7781 1.35139 59.5351 1.14101 59.2922 0.995358C58.3204 0.412763 57.0896 0.542227 56.0207 0.882074C54.9517 1.2381 53.9476 1.80452 52.8624 2.07963C52.2308 2.25765 51.4857 2.38711 51.1942 2.95352C51.1132 3.09917 51.0647 3.27719 50.9675 3.42284C50.8217 3.63322 50.5626 3.76269 50.3196 3.85979C49.4127 4.24818 48.5219 4.65276 47.5501 4.79841C47.1128 4.86314 46.6593 4.89551 46.2706 5.12207C46.0439 5.2839 45.8495 5.49429 45.6066 5.63994C44.8454 6.07688 43.825 5.5752 43.0152 5.89886C42.7723 5.97978 42.5779 6.14161 42.3674 6.27107C42.227 6.35739 42.0813 6.4383 41.9301 6.51382C40.926 6.96695 39.7437 7.0155 38.7072 6.67565C38.1889 6.49764 37.7354 6.17398 37.2333 5.97978C36.6988 5.7694 36.1158 5.63993 35.5489 5.6723C34.9335 5.72084 34.3018 6.07688 34.1399 6.65948C34.0427 6.96696 34.0751 7.33917 33.6054 7.46864C33.3625 7.53337 33.1033 7.48481 32.8766 7.37153C32.4717 7.16115 31.759 6.9184 31.4513 7.35535C31.3541 7.48482 31.338 7.66283 31.257 7.80848C30.9493 8.45581 29.9451 8.26161 29.3296 8.61764C29.0867 8.76329 28.8276 9.00603 28.5684 8.9413C28.3579 8.87657 28.2283 8.65001 28.0339 8.56909C27.8072 8.47199 27.5481 8.58528 27.3375 8.71474C26.9002 8.98986 26.5115 9.29734 26.1714 9.65337C25.9608 9.86375 25.7665 10.0903 25.4912 10.1874C25.2969 10.2683 25.0701 10.2521 24.8757 10.2845C24.1469 10.3492 23.4505 10.77 23.0456 11.385C22.8836 11.6601 22.754 11.9676 22.5273 12.1779C21.7985 12.8738 20.4542 12.3721 19.7254 13.0356C19.3853 13.3431 19.2072 13.8772 18.7699 13.9743C18.4945 14.039 18.2192 13.8934 17.9439 13.8124C17.3608 13.6183 16.632 13.6668 16.2757 14.1847C16.0328 14.5245 16.0813 14.9938 16.389 15.2689C16.7939 15.6411 17.1826 15.2366 17.5875 15.4146C17.7009 15.4793 17.7819 15.6088 17.7333 15.7382C17.6848 15.9324 17.4418 15.9324 17.2636 15.9972C16.7777 16.1752 16.6805 16.8387 16.2918 17.1786C16.0489 17.4213 15.6764 17.5022 15.4011 17.7126C14.5589 18.3923 15.0772 19.8811 14.397 20.7227C14.1378 21.0625 13.7329 21.2243 13.3604 21.4024C13.1823 21.4995 12.9879 21.5804 12.8097 21.6937C12.6153 21.8393 12.4372 22.0011 12.2428 22.1468C11.8703 22.4381 11.4007 22.5837 10.9634 22.7618C10.4775 22.956 9.99161 23.1555 9.50573 23.3605C9.19801 23.49 8.87412 23.6195 8.80933 24.0564C8.77694 24.4124 8.95507 24.7523 9.26279 24.9303C9.89443 25.3025 10.5909 25.0598 11.2225 24.817C11.757 24.5905 12.3238 24.3477 12.9069 24.4448C13.1336 24.5419 13.1175 24.8817 12.9555 25.0436C12.7774 25.2216 12.5182 25.2378 12.2915 25.254C12.0485 25.2701 11.7893 25.2863 11.595 25.432C11.2225 25.7233 11.3197 26.3382 11.012 26.6943C10.7367 27.0341 10.2184 27.0341 9.78109 27.0341C9.32761 27.0449 8.87413 27.0881 8.42065 27.1636C8.04814 27.2445 7.67563 27.3416 7.36791 27.5843C7.06018 27.8109 6.84957 28.1831 6.89816 28.5715C6.93055 28.7495 7.01159 28.9599 6.88203 29.1056C6.80105 29.1865 6.67148 29.1865 6.55811 29.2027C5.66733 29.2998 4.8251 29.9147 4.50118 30.7562C4.4364 30.9181 4.4364 31.0799 4.50118 31.2417C4.64695 31.614 5.06806 31.5978 5.40818 31.6463C5.6997 31.6787 6.056 31.9053 5.95882 32.1966C5.94263 32.2775 5.89401 32.3422 5.84542 32.4069C5.47831 32.8493 5.11123 33.2916 4.74412 33.734C4.51738 34.0091 4.27447 34.3004 3.96675 34.4784C3.44848 34.802 2.80059 34.7859 2.21753 34.9963C1.32675 35.3037 0.646521 36.1938 0.597933 37.1324C0.533149 38.0872 1.08386 39.042 1.94225 39.479C2.33095 39.6732 2.83298 39.7379 3.18929 39.479C3.35125 39.3495 3.46466 39.1553 3.62662 39.0259C4.01532 38.7669 4.54974 38.9288 4.95464 39.1553C5.37574 39.3819 5.81304 39.657 6.26653 39.5761C6.60665 39.5275 6.94679 39.2848 7.27071 39.3819C7.44887 39.4466 7.57845 39.5761 7.69183 39.7056C8.1885 40.2342 8.67972 40.7683 9.1656 41.3077C9.24658 41.3724 9.31141 41.4695 9.29521 41.5666C9.29521 41.6314 9.24663 41.6799 9.21423 41.7123C8.67977 42.3758 7.98329 42.9098 7.22208 43.2659C7.06012 43.3306 6.96294 43.4924 6.97914 43.6704C7.01153 43.8323 7.15736 43.8646 7.28693 43.897C7.85379 43.9941 8.4692 43.8161 9.03606 44.0103C9.40857 44.1236 9.73252 44.4149 10.1212 44.4796C10.5261 44.5443 10.9472 44.3663 11.3521 44.431C12.0971 44.5605 12.6153 45.4506 13.3766 45.3697C13.6681 45.3373 13.9272 45.1593 14.2026 45.046C15.061 44.69 16.0327 45.0136 16.9559 44.8842C17.296 44.8356 17.6361 44.7062 17.9924 44.69C18.2192 44.69 18.4783 44.7223 18.6727 44.8518C18.8994 44.9813 19.1586 45.0784 19.4339 45.0784C20.0332 45.0784 20.9887 45.0946 21.426 45.1269C21.7823 45.1431 22.1872 45.1431 22.3653 44.7709C22.4625 44.5443 22.4139 44.2854 22.2844 44.0912C21.9442 43.6381 21.3936 43.5572 20.9077 43.363C20.2599 43.104 19.7254 42.6509 19.2071 42.1654C17.7981 40.8869 16.5186 39.479 15.3525 37.9578C14.8828 37.3428 14.3969 36.5337 14.7047 35.8054C14.9638 35.239 15.6764 34.7535 15.4497 34.1547C15.2877 33.7016 14.5913 33.5398 14.5265 33.0543C14.4617 32.4231 15.4497 32.1965 15.5792 31.5816C15.644 31.3227 15.5306 31.0476 15.644 30.8048C15.8869 30.206 17.0692 30.465 17.1826 29.8338C17.2312 29.5911 17.0854 29.3321 17.1826 29.1217C17.377 28.701 18.041 29.0408 18.4783 28.8952C18.948 28.7495 19.0452 28.1346 19.1748 27.73C19.2234 27.5682 19.2881 27.4063 19.3853 27.2769C19.4177 27.2121 19.4663 27.1528 19.531 27.0988C19.5634 27.0665 19.6121 27.0665 19.6607 27.0503C19.8388 26.9856 19.9684 26.8723 20.1303 26.7914C20.4057 26.6781 20.8429 26.8399 20.9887 26.5001C21.0859 26.2735 21.0697 25.9984 21.0859 25.7556C21.1183 25.4967 21.2316 25.2216 21.4746 25.1569C21.6041 25.1245 21.7499 25.1569 21.8795 25.173C22.5273 25.2216 23.1104 24.7685 23.4019 24.2021C23.6935 23.6356 23.742 22.9883 23.7744 22.341C23.7744 22.2439 23.7906 22.1144 23.8554 22.0335C23.9526 21.9202 24.1145 21.904 24.2765 21.8879C25.3454 21.7908 26.463 20.9492 26.382 19.8326C26.3658 19.7355 26.382 19.606 26.4305 19.5089C26.6087 19.1367 27.0946 19.3633 27.4671 19.2824C28.1797 19.1205 28.2607 17.7935 28.9896 17.8259C29.3783 17.8582 29.6536 18.2952 30.0423 18.279C30.1881 18.2628 30.3176 18.1819 30.4472 18.101C31.3218 17.5669 32.2287 17.0167 32.8118 16.1914C33.1033 15.7868 33.3138 15.3175 33.6216 14.9291C34.075 14.3465 34.7553 13.9257 35.4841 13.7963C35.7432 13.7477 36.0024 13.7315 36.2615 13.6668C37.0551 13.4888 37.6868 12.9062 38.4318 12.5502C39.5979 11.9999 41.007 12.0647 42.0759 11.3526C42.3188 11.207 42.5294 11.0289 42.7885 10.9157C43.2258 10.7538 43.6793 10.8347 44.1328 10.8347C44.5053 10.8347 44.8778 10.7538 45.2503 10.6891C45.3259 10.6675 45.4069 10.6513 45.4933 10.6405C45.7524 10.592 46.0115 10.5434 46.2706 10.4625C46.9509 10.2521 47.6149 9.94466 48.2951 9.71809C48.9754 9.49153 49.6718 9.31351 50.3844 9.15168C51.8852 8.80644 53.3915 8.4558 54.9032 8.09977C55.2757 8.01886 55.6481 7.92176 55.972 7.72756C56.2312 7.56573 56.4417 7.33916 56.7008 7.2097C56.9762 7.08023 57.284 7.03168 57.5755 6.96695C59.3085 6.61092 60.8308 5.44573 61.6568 3.89214C61.8836 3.4552 62.0618 2.9697 62.0132 2.46802Z" fill="#F1F1F1" stroke="#BABABA" stroke-width="1.18548" stroke-linecap="round" stroke-linejoin="round"/>
</svg>
