<svg width="6" height="5" viewBox="0 0 6 5" fill="none" xmlns="http://www.w3.org/2000/svg">
<path d="M0.657138 1.88743C1.04584 2.47002 1.62895 2.92316 1.92047 3.55431C2.01765 3.76469 2.11481 3.99124 2.30916 4.07216C2.40634 4.12071 2.50348 4.12072 2.60066 4.12072C3.2485 4.12072 3.84778 3.7323 4.33366 3.29536C4.47942 3.16589 4.64135 3.02028 4.70614 2.84226C4.78712 2.66425 4.77097 2.45385 4.75477 2.25965C4.75477 2.08163 4.73854 1.9036 4.64137 1.75796C4.54419 1.59612 4.36602 1.51522 4.22026 1.40193C3.96112 1.19155 3.78296 0.900278 3.49144 0.738446C3.2161 0.592797 2.89217 0.592773 2.58445 0.592773C2.26053 0.592773 1.93662 0.592797 1.6289 0.65753C1.30498 0.722263 0.997286 0.851705 0.770542 1.07827C0.770542 1.07827 0.462786 1.59613 0.657138 1.88743Z" fill="#F1F1F1" stroke="#BABABA" stroke-width="1.18548" stroke-linecap="round" stroke-linejoin="round"/>
</svg>
