<svg width="9" height="6" viewBox="0 0 9 6" fill="none" xmlns="http://www.w3.org/2000/svg">
<path d="M0.84063 2.31949C1.08357 2.74025 1.50467 3.01535 2.05533 3.03153C2.70317 3.04772 3.30244 2.64314 3.93408 2.51368C4.38757 2.43276 4.85722 2.43276 5.27832 2.59459C5.86137 2.82116 6.29868 3.3552 6.42825 3.97017C6.46064 4.14818 6.47684 4.35859 6.59021 4.52042C6.78456 4.76317 7.22185 4.76315 7.40001 4.50422C7.54577 4.31002 7.51341 4.03492 7.51341 3.79217C7.51341 3.40378 7.57815 3.01536 7.70772 2.64315C7.80489 2.33567 7.96687 1.99582 7.88589 1.67216C7.80491 1.39705 7.54582 1.20285 7.28668 1.10575C6.96276 1.00865 6.62263 1.02482 6.29871 1.08955C5.86142 1.18665 5.40792 1.38085 4.98682 1.25138C4.6467 1.15428 4.38754 0.895359 4.06362 0.733527C3.64252 0.539329 3.17287 0.587902 2.71938 0.636452C2.2497 0.685001 1.77998 0.701153 1.3103 0.765886C0.85681 0.846801 0.549102 1.05718 0.59769 1.57505C0.630082 1.83398 0.711062 2.09292 0.84063 2.31949Z" fill="#F1F1F1" stroke="#BABABA" stroke-width="1.18548" stroke-linecap="round" stroke-linejoin="round"/>
</svg>
