<svg width="19" height="28" viewBox="0 0 19 28" fill="none" xmlns="http://www.w3.org/2000/svg">
<path d="M17.7169 24.5277C17.312 24.4953 16.9071 24.4144 16.5184 24.4144C15.7895 24.4144 15.0931 24.6248 14.3967 24.8352C13.5005 25.1157 12.6043 25.3962 11.7082 25.6767C11.2871 25.8062 10.8336 25.9518 10.4935 26.2593C10.2667 26.4859 10.0886 26.7772 9.81323 26.9228C8.80908 27.4245 7.31903 25.8709 7.31903 25.8709C6.39585 24.8676 5.44029 23.7671 5.29453 22.4239C5.16496 21.0807 5.87761 19.8022 5.89381 18.459C5.89381 18.2972 5.89381 18.1353 5.97479 18.0221C6.12055 17.7793 6.49304 17.7793 6.6388 17.5366C6.68739 17.4557 6.6874 17.3586 6.6874 17.2615C6.6712 16.8407 6.33109 16.4847 6.00717 16.2096C5.68325 15.9344 5.31074 15.6755 5.14878 15.2709C5.0516 15.012 5.05159 14.7369 5.05159 14.4618C5.05159 13.9655 5.04621 13.4692 5.03541 12.9729C5.03541 12.9082 5.03542 12.8434 5.00303 12.7949C4.95444 12.7302 4.85724 12.714 4.77626 12.714C4.12842 12.6654 3.46439 12.714 2.83274 12.8596C2.57361 12.0343 1.68283 11.7106 1.13216 11.1118C0.0308363 9.91429 0.69488 7.56771 2.39546 7.32496C2.6546 7.29259 2.91375 7.21168 3.14049 7.08221C4.67911 6.20832 3.01092 4.84896 3.4968 3.79705C3.62636 3.48957 3.93409 3.29537 4.19323 3.06881C4.92205 2.43767 5.37551 1.5314 5.50508 0.592773C5.8452 0.706056 6.18533 0.851697 6.49305 1.02971C7.69156 1.74177 8.61472 2.80986 9.5217 3.86177C9.84562 4.23398 10.1533 4.60619 10.3801 5.02695C10.5582 5.35062 10.6716 5.70665 10.8984 5.99794C11.53 6.75855 12.7285 6.74237 13.4735 7.37352C14.008 7.84283 14.2347 8.58727 14.753 9.08895C15.0769 9.4288 15.498 9.623 15.9677 9.73628C15.9029 9.77943 15.8489 9.81719 15.8058 9.84955C15.5628 10.0923 15.498 10.4483 15.4656 10.7882C15.4224 11.0903 15.3846 11.3923 15.3523 11.6944C15.2713 12.2932 15.1417 12.9891 14.6234 13.3289C14.3319 13.507 13.9756 13.5393 13.6517 13.6688C13.0362 13.9439 12.6799 14.5912 12.5666 15.2547C12.4694 15.9182 12.5828 16.5979 12.6961 17.2453C12.7501 17.5042 12.7987 17.7631 12.8419 18.0221C12.8905 18.281 12.939 18.5723 13.1172 18.7989C13.5383 19.3653 14.4939 19.3006 14.8664 19.8993C14.9797 20.0612 15.0283 20.2715 15.0769 20.4819C15.3199 21.372 15.7572 22.2135 16.3726 22.9256C16.8261 23.4596 17.3768 23.9451 17.7169 24.5277Z" fill="#F1F1F1" stroke="#BABABA" stroke-width="1.18548" stroke-linecap="round" stroke-linejoin="round"/>
</svg>
