<svg width="40" height="159" viewBox="0 0 40 159" fill="none" xmlns="http://www.w3.org/2000/svg">
<path d="M38.916 153.524C38.6407 154.592 37.6204 155.32 36.5676 155.628C35.2395 156.016 33.7495 155.854 32.5348 155.191C32.1785 154.997 31.806 154.77 31.4335 154.883C31.0934 154.98 30.899 155.336 30.6237 155.563C30.1702 155.968 29.4414 155.984 28.9717 155.612C28.7612 155.45 28.5992 155.223 28.3725 155.078C28.1619 154.916 27.8218 154.883 27.6436 155.078C27.5465 155.207 27.5303 155.401 27.5303 155.563L27.4817 157.44C27.4817 157.732 27.1739 157.942 26.8986 157.845C26.5099 157.699 26.1536 157.311 25.8621 156.987C25.4248 156.485 24.6636 156.032 24.1777 156.469C24.0481 156.599 23.9672 156.761 23.9186 156.939C23.8538 157.165 23.6108 157.311 23.3841 157.262C22.5419 157.068 21.6997 156.68 21.6025 155.887C21.5539 155.547 21.6673 155.191 21.5863 154.851C21.4891 154.479 21.1005 154.204 20.728 154.22C20.2259 154.236 19.7886 154.705 19.902 155.223C19.9505 155.466 19.9344 155.741 19.7886 155.935C19.5618 156.259 19.3027 156.162 19.0759 156.065C18.1798 155.676 17.2782 155.288 16.3712 154.9C15.5776 154.56 14.7516 154.204 14.1362 153.573C13.5207 152.958 13.1806 151.987 13.5045 151.177C13.6341 150.87 13.8609 150.595 13.9256 150.271C14.0714 149.381 12.9862 148.572 13.2454 147.714C13.375 147.229 13.8771 146.97 14.2496 146.63C14.4925 146.387 14.6707 146.015 14.6545 145.707C14.6383 145.481 14.4115 145.319 14.1848 145.335C13.294 145.432 12.468 146.031 12.1279 146.856C11.9983 147.18 11.6582 147.374 11.3181 147.293C10.7512 147.18 10.9132 146.403 10.7026 145.885C10.3625 145.028 8.88867 144.898 8.84008 143.976C8.82389 143.846 8.85627 143.701 8.79149 143.587C8.71051 143.426 8.51615 143.393 8.30561 143.361C8.06267 143.345 7.81975 143.231 7.64159 143.053C7.15571 142.552 7.46342 141.888 7.9493 141.694C8.20844 141.581 8.3866 141.322 8.32182 141.047C8.24084 140.675 7.90071 140.318 7.49581 140.367C6.84797 140.448 6.3945 141.322 5.73046 141.16C5.37415 141.063 5.1474 140.707 5.1636 140.335C5.19599 139.704 5.64949 139.267 6.022 138.797C6.32972 138.425 6.60503 137.956 6.52405 137.486C6.26491 136.078 3.33345 136.273 4.27282 134.136C4.37 133.926 4.51574 133.732 4.66151 133.554C5.00162 133.182 5.0826 132.712 5.14739 132.243L5.60088 129.638C5.63328 129.427 5.43893 129.265 5.24458 129.33C4.98544 129.427 4.74249 129.702 4.66151 129.929C4.59672 130.091 4.51578 130.236 4.37001 130.333C3.54402 130.884 3.15531 129.864 3.31727 129.201C3.41445 128.78 3.5764 128.327 3.51162 127.922C3.47922 127.712 3.26868 127.566 3.07433 127.598C2.7828 127.615 2.49125 127.599 2.19973 127.55C2.03777 127.534 1.90819 127.388 1.90819 127.226C1.92439 126.886 2.02159 126.579 2.18355 126.288C2.45888 125.851 2.94473 125.851 3.04191 125.608C3.0905 125.479 3.05812 125.317 2.97714 125.203C2.81518 124.944 2.52367 124.847 2.26453 124.734C1.64909 124.475 1.09841 124.038 0.709702 123.488C0.644918 123.423 0.596338 123.342 0.596338 123.261C0.563946 123.051 0.774502 122.905 0.968854 122.808C1.42234 122.565 1.89201 122.323 2.41028 122.226C2.91236 122.129 3.47923 122.193 3.88413 122.517C4.14327 122.711 4.30521 123.002 4.51576 123.245C4.62913 123.358 4.7425 123.472 4.87206 123.553C5.06642 123.666 5.30938 123.504 5.26079 123.278C5.2122 122.986 5.1798 122.695 5.2122 122.404C5.26078 121.967 5.4875 121.546 5.87621 121.368C6.02197 121.303 6.18396 121.271 6.26494 121.141C6.3945 120.931 6.16774 120.656 5.9248 120.575C5.68186 120.494 5.40656 120.526 5.17981 120.397C4.71013 120.122 4.8073 119.41 5.05024 118.924C5.29318 118.455 5.6495 117.937 5.50373 117.419C5.48754 117.306 5.42274 117.193 5.32556 117.128C5.1798 117.047 5.00164 117.079 4.83968 117.096C4.09466 117.177 3.38202 116.642 2.63701 116.659C2.32929 116.659 2.05397 116.756 1.76244 116.772C1.35754 116.804 0.904046 116.675 0.823066 116.206C0.774478 115.979 0.83927 115.769 0.952642 115.574C1.50331 114.555 2.92854 114.312 3.4954 113.309C3.83552 112.678 3.77073 111.885 4.33759 111.334C4.54814 111.124 4.85588 111.027 5.13122 111.124C5.84384 111.334 5.55231 112.37 6.50788 112.435C7.10713 112.483 7.67396 112.095 7.90071 111.529C8.01408 111.27 8.11125 111.027 8.30561 110.849C8.45137 110.703 8.62953 110.622 8.7591 110.493C8.85628 110.38 8.93726 110.25 9.00204 110.121C9.42314 109.247 9.56889 108.243 9.43933 107.272C9.30976 106.285 8.88867 105.25 9.24498 104.311C9.90902 103.372 9.64988 102.11 9.89282 100.993C10.0548 100.297 10.4111 99.6825 10.6379 99.0028C10.9456 98.0965 10.9941 97.1255 11.0265 96.1707C11.0589 95.5072 11.0751 94.7951 10.7026 94.2449C10.5892 94.0669 10.4273 93.9213 10.2167 93.9374C10.071 93.9374 9.94143 94.0669 9.82805 94.164C9.53653 94.4715 9.24501 94.7952 9.14783 95.1997C9.06685 95.572 9.164 95.9927 9.00204 96.3487C8.84008 96.7533 8.40281 96.9961 8.28943 97.4168C8.12747 97.9671 8.59714 98.4849 8.67812 99.0513C8.71051 99.3588 8.62955 99.6825 8.53237 99.9738C8.37041 100.54 8.14368 101.107 7.60921 101.398C7.39866 101.511 7.13952 101.544 6.91278 101.495C6.4107 101.366 6.3297 100.977 6.24872 100.621C6.19474 100.373 6.13538 100.125 6.07059 99.8767C5.90863 99.1161 5.73045 98.3555 5.76284 97.5787C5.81143 96.818 6.07059 96.0251 6.63745 95.5072C6.81561 95.3454 6.99375 95.2321 7.15571 95.0703C7.65779 94.5686 7.75497 93.7109 7.36627 93.0959C7.12333 92.7075 6.68602 92.4162 6.49166 91.9793C6.11916 91.1054 6.86419 90.1667 6.96137 89.2281C7.00996 88.8883 6.96136 88.5485 6.99375 88.2086C7.10713 87.1567 7.99791 86.3799 8.58097 85.4898C8.93728 84.9234 9.18019 84.2761 9.27737 83.6126C9.16399 82.8843 9.06685 82.2855 9.06685 82.2855C8.8563 81.0718 8.28944 79.939 8.01411 78.7414C7.73878 77.5439 7.78733 76.1521 8.62953 75.262C8.92105 74.9546 9.2774 74.728 9.55273 74.4367C9.97383 73.9674 10.1682 73.3686 10.3625 72.7698C11.2857 70.0025 12.4194 67.3161 13.7151 64.7106C13.958 64.2089 14.2172 63.7072 14.4115 63.1732C14.8812 61.8947 14.9946 60.5029 15.1079 59.1274C15.1727 58.2319 15.2375 57.3418 15.3023 56.4571C15.3671 55.5833 15.4319 54.7094 15.2861 53.8517C15.1727 53.2367 14.946 52.6541 14.8164 52.0553C14.4439 50.437 14.7516 48.6892 15.6748 47.2975C16.0149 46.7796 16.2093 46.197 16.1931 45.5821V45.4526C16.0635 45.1289 15.9501 44.8214 15.9501 44.8214C15.2537 43.0737 16.0797 41.1479 16.6465 39.3515C17.1972 37.5552 17.5211 35.7103 17.8289 33.8492C17.9908 32.8567 18.1582 31.8641 18.3309 30.8715C18.5145 29.7495 18.7035 28.6275 18.8978 27.5054C19.1569 25.968 19.4161 24.3983 19.1893 22.8609C19.076 22.165 18.8816 21.4529 19.1245 20.7894C19.2217 20.5143 19.3999 20.2554 19.5294 19.9802C20.0639 18.8151 19.578 17.4395 19.7562 16.161C19.821 15.5622 20.0477 14.9958 20.1935 14.4294C20.7118 12.4712 20.5012 10.3998 20.2906 8.39306L20.0477 7.42207C19.9019 6.03032 19.3837 4.7195 18.6225 3.55431C18.8816 3.53273 19.1354 3.51117 19.3837 3.48959C19.902 3.45722 20.485 3.39247 20.8251 2.98789C20.9871 2.7937 21.0681 2.5186 21.1329 2.27585C21.2948 1.71483 21.4568 1.15379 21.6187 0.592773C22.1802 1.21852 22.7848 1.80654 23.4327 2.35677C23.6432 2.55096 23.8862 2.72895 24.0481 2.97169C24.4045 3.53811 24.3397 4.26637 24.3235 4.92988C24.2911 5.59339 24.4044 6.3702 24.9713 6.72623C25.2304 6.90424 25.5381 6.95278 25.7973 7.11461C26.0564 7.27644 26.2508 7.64866 26.0564 7.89141C26.0078 7.97233 25.9107 8.02087 25.8459 8.0856C25.5867 8.34453 25.6515 8.78147 25.6515 9.16987C25.6839 10.1894 25.1333 11.1928 25.279 12.1961C25.4896 13.5879 26.9148 14.5751 27.0282 15.9668C27.0606 16.2257 27.0282 16.517 27.1092 16.776C27.2387 17.1967 27.6436 17.5042 27.7894 17.925C27.919 18.2972 27.8218 18.7018 27.8056 19.1064C27.7732 19.4948 27.8542 19.9479 28.1943 20.1583C28.3563 20.2554 28.583 20.2877 28.7774 20.3039C28.7774 20.3039 30.0083 20.1259 30.6399 19.7213C30.6237 21.0969 30.9962 22.5372 30.3484 23.7186C29.6357 25.0456 27.9838 25.4825 26.7529 26.3403C26.3156 26.6477 25.8945 27.1009 25.9269 27.6349C25.9431 28.1528 26.3965 28.7353 26.0564 29.1561C25.9755 29.2694 25.8297 29.3341 25.7325 29.4474C25.4086 29.7711 25.522 30.3213 25.7325 30.7421C25.9269 31.1467 26.2022 31.5836 26.1212 32.0367C26.0564 32.4089 25.7325 32.7326 25.7325 33.121C25.7325 33.4447 25.943 33.736 26.1212 34.0111C26.3641 34.3995 26.5585 34.8526 26.5423 35.3219C26.5261 35.7751 26.2346 36.2605 25.7973 36.39C25.441 36.4871 24.9875 36.39 24.7284 36.6489C24.4854 36.8917 24.534 37.2801 24.5016 37.6037C24.4044 38.5909 23.5137 39.2706 22.7363 39.9018C21.9588 40.5167 21.1652 41.423 21.4244 42.3778C21.5215 42.75 21.7645 43.2193 21.473 43.4782C21.3758 43.5592 21.23 43.5915 21.1004 43.6563C20.6793 43.8666 20.5498 44.4331 20.647 44.9024C20.728 45.3717 20.9709 45.8086 21.0681 46.2779C21.23 46.9091 21.1166 47.5726 21.0195 48.2199C20.9871 48.4141 20.9385 48.6245 20.8089 48.7863C20.6632 48.9158 20.4526 48.9805 20.2906 49.0938C19.7562 49.4984 20.0315 50.3885 19.7724 51.0034C19.5942 51.3918 19.2379 51.6346 18.9464 51.9421C18.6711 52.2495 18.3957 52.7027 18.4281 53.0749C18.4281 53.0749 18.6387 54.5799 19.5133 55.4538C19.8858 55.826 20.0639 56.4086 19.9182 56.8941C19.8696 57.056 19.7724 57.2016 19.8048 57.3472C19.8533 57.59 20.1449 57.6871 20.3231 57.8651C20.8899 58.4315 20.0315 59.4672 20.404 60.1631C20.485 60.3411 20.6308 60.4706 20.7603 60.6163C21.6187 61.5711 21.3596 63.1085 20.7603 64.2413C20.1611 65.3903 19.2703 66.3936 18.914 67.6236C18.8006 67.9958 18.7358 68.3842 18.833 68.7564C18.914 69.1448 19.1731 69.4846 19.3513 69.8568C19.5295 70.229 19.6266 70.6822 19.4323 71.022C19.3351 71.1677 19.2217 71.281 19.0922 71.3942C18.4443 71.966 17.7911 72.5432 17.1324 73.1258C17.0029 73.2553 16.8409 73.3848 16.7761 73.5628C16.6951 73.7732 16.7599 74.0159 16.7761 74.2425C16.8895 75.0517 16.679 75.877 16.5818 76.7023C16.4522 77.8028 16.5332 78.9356 16.8247 80.0199C16.8733 80.1979 16.9219 80.3759 17.0353 80.5216C17.1648 80.6996 17.4564 80.8614 17.5535 81.3307C17.6993 82.0104 15.772 82.4474 15.7072 83.2242C15.664 83.742 15.6208 84.2599 15.5776 84.7777C15.5452 85.0205 15.5291 85.2956 15.3833 85.506C15.2375 85.7002 14.9946 85.8297 14.8812 86.0562C14.8002 86.2342 14.8002 86.4284 14.8002 86.6226C14.811 87.27 14.8164 87.9173 14.8164 88.5646C14.8326 88.7426 14.8326 88.9206 14.7516 89.0825C14.6868 89.2443 14.5411 89.3576 14.4439 89.5033C14.2496 89.7946 14.2334 90.1829 14.2334 90.5228C14.2334 91.9145 14.2279 93.3063 14.2171 94.698C14.2171 94.9084 14.2172 95.1512 14.3629 95.313C14.4763 95.4587 14.6868 95.5234 14.8002 95.6852C14.9946 95.9927 14.6869 96.3811 14.3629 96.5591C14.0552 96.7209 13.6503 96.8504 13.4883 97.1741C13.4073 97.3521 13.4074 97.5787 13.4236 97.7729C13.4559 98.5388 13.4884 99.2995 13.5207 100.055C13.5207 100.168 13.5369 100.281 13.5855 100.362C13.6503 100.443 13.7475 100.492 13.8285 100.556C14.0876 100.751 14.1362 101.139 14.0876 101.479C14.0552 101.802 13.958 102.142 14.039 102.466C14.0714 102.676 14.1686 102.854 14.2657 103.049C14.4601 103.469 14.6059 103.922 14.6869 104.392C14.784 104.877 14.7678 105.33 14.7354 105.816C14.7354 105.881 14.7354 105.945 14.7516 106.01C14.784 106.091 14.8326 106.14 14.9136 106.188C15.3185 106.447 15.9177 106.156 16.2902 106.512C16.5656 106.771 16.4198 107.289 16.0959 107.515C15.7882 107.726 15.3671 107.758 14.9784 107.774C14.7031 107.79 14.3305 107.904 14.3305 108.179C14.3305 108.357 14.4763 108.502 14.622 108.599C14.8596 108.783 15.1025 108.966 15.3509 109.15C15.5776 109.311 15.8044 109.49 15.9501 109.732C16.0959 109.959 16.1607 110.282 16.0311 110.525C15.8692 110.817 15.5128 110.914 15.2537 111.124C14.8812 111.415 14.7678 111.982 14.9784 112.419C15.027 112.516 15.0917 112.613 15.1079 112.71C15.1403 113.017 14.784 113.195 14.5735 113.422C14.3467 113.665 14.2981 114.037 14.4439 114.328C14.6221 114.684 15.0918 114.943 15.0918 115.348C15.0756 115.849 14.3791 116.044 14.201 116.513C14.0552 116.901 14.2981 117.306 14.3791 117.694C14.4925 118.196 14.3305 118.746 13.958 119.102C13.6503 119.41 13.2292 119.555 12.8891 119.831C12.2088 120.381 11.8526 121.465 12.3384 122.177C12.9701 123.116 12.5975 123.779 12.5975 123.779C12.1926 124.524 11.7392 124.718 11.5286 125.3C11.4315 125.543 11.3667 125.802 11.2371 126.013C10.897 126.563 10.2168 126.773 9.71469 127.178C9.13163 127.647 8.80769 128.375 8.67812 129.103C8.54855 129.848 8.59715 130.592 8.64574 131.337C8.66193 131.596 8.67814 131.887 8.85629 132.097C8.95347 132.211 9.08302 132.292 9.164 132.421C9.40694 132.858 8.79149 133.327 8.79149 133.829C8.79149 134.25 9.27738 134.557 9.69848 134.541C10.1358 134.541 10.5407 134.315 10.9294 134.169C11.5286 133.942 12.2575 133.845 12.7433 134.266C13.1806 134.654 13.2292 135.334 13.0996 135.9C12.9701 136.467 12.6786 136.985 12.549 137.551C12.4356 138.134 12.5166 138.797 12.9701 139.169C13.1644 139.315 13.4074 139.396 13.6179 139.542C13.8932 139.768 14.0552 140.092 14.3143 140.318C14.7354 140.658 15.3185 140.674 15.853 140.691C17.6777 140.691 19.497 140.691 21.311 140.691C21.6511 140.691 22.0074 140.707 22.3314 140.82C22.6391 140.917 22.8982 141.128 23.1897 141.225C23.789 141.435 24.4692 141.209 25.0685 141.387C25.2952 141.451 25.5058 141.565 25.7163 141.678C26.0402 141.872 26.3696 142.061 26.7043 142.244C26.6611 142.277 26.6125 142.298 26.5585 142.309C25.9593 142.487 25.4086 142.05 24.8093 141.856C24.2263 141.662 23.5784 141.743 23.0602 142.05C22.7524 142.228 22.4285 142.358 22.0884 142.406C22.002 142.417 21.9156 142.444 21.8293 142.487C20.9871 142.924 19.8534 142.616 19.1245 143.215C18.7844 143.49 18.6387 143.944 18.5091 144.364L17.4078 147.811C17.3592 147.957 17.343 148.103 17.3916 148.248C17.6021 148.977 18.7358 148.442 19.3999 148.766C20.404 149.268 19.497 151.129 20.4526 151.776C21.0195 152.181 21.6673 151.889 21.7807 151.194C21.9103 150.255 20.5012 149.769 20.6955 148.928C20.9223 148.054 22.6553 148.103 22.5905 147.213C22.5419 146.614 21.6673 146.42 21.149 146.468C20.8251 146.5 20.485 146.42 20.2259 146.209C19.578 145.643 20.1287 144.817 20.728 144.397C21.8779 143.571 23.3517 143.183 24.7608 143.329C25.6515 143.426 26.6557 143.895 26.7529 144.785C26.8015 145.141 26.6719 145.497 26.7529 145.853C26.85 146.355 27.2873 146.695 27.7084 147.002C29.8463 148.513 31.9842 150.023 34.122 151.533C34.5917 151.857 35.0776 152.197 35.6445 152.278C36.2113 152.343 36.7782 152.132 37.3612 152.051C37.9443 151.987 38.6245 152.116 38.8837 152.634C39.0132 152.909 38.997 153.233 38.916 153.524Z" fill="#F1F1F1" stroke="#BABABA" stroke-width="1.18548" stroke-linecap="round" stroke-linejoin="round"/>
</svg>
