<svg width="108" height="69" viewBox="0 0 108 69" fill="none" xmlns="http://www.w3.org/2000/svg">
<path d="M106.725 44.5423C106.703 44.7581 106.677 44.9739 106.644 45.1896C106.628 45.3353 106.628 45.4971 106.579 45.6589C106.515 45.8208 106.369 45.934 106.255 46.0635C106.126 46.193 106.029 46.3386 105.867 46.4519C105.608 46.6299 105.316 46.7756 105.073 46.9698C104.36 47.5524 104.15 48.5719 104.247 49.4943C104.296 49.8989 104.377 50.3035 104.377 50.7081C104.393 51.2097 104.263 51.6953 104.134 52.1808C103.929 52.936 103.723 53.6858 103.518 54.4302C103.421 54.8186 103.308 55.2232 103.081 55.5469C102.53 55.207 102.028 54.7863 101.607 54.2846C101.429 54.0742 101.218 53.8314 100.943 53.8638C100.83 53.88 100.716 53.9447 100.635 54.0095C100.295 54.2684 100.069 54.6406 99.9552 55.029C99.9228 55.1747 99.8904 55.3365 99.8094 55.466C99.5017 55.9353 98.7243 55.6602 98.2708 56C98.206 56.0486 98.1412 56.1295 98.0764 56.1942C97.9955 56.2913 97.9145 56.3722 97.8173 56.4531C97.6229 56.5664 97.38 56.5826 97.1371 56.5664C96.4352 56.5664 95.7334 56.561 95.0316 56.5502C94.6267 56.5502 94.2218 56.534 93.8331 56.4531C93.412 56.356 93.0071 56.178 92.586 56.1618C92.1487 56.1618 91.6628 56.4207 91.6304 56.8577C91.6142 57.0681 91.7114 57.2623 91.7438 57.4565C91.7762 57.6669 91.7438 57.9096 91.5656 58.0067C91.4361 58.0876 91.2741 58.0552 91.1283 58.0391C90.9016 58.0391 90.6587 58.12 90.5129 58.298C90.3671 58.4922 90.3347 58.7673 90.4805 58.9453C90.5615 59.0586 90.6749 59.1072 90.7883 59.1719C92.003 59.8354 93.0557 60.774 93.8493 61.9069C93.8979 61.9716 93.9465 62.0525 93.9465 62.1334C93.9627 62.3438 93.7197 62.4571 93.5091 62.5056C92.5698 62.7322 91.598 62.7969 90.6425 62.6998C90.189 62.6675 89.6707 62.5865 89.3144 62.894C88.8447 63.2662 88.9419 63.9621 88.8285 64.5447C88.6828 65.37 88.0511 66.0012 87.6138 66.7294C87.3871 67.1016 87.2251 67.5224 87.1117 67.9432C86.642 67.571 86.1886 67.1826 85.7513 66.778C84.7795 65.8232 83.9211 64.7227 82.9008 63.8165C81.8804 62.9102 80.6172 62.1496 79.2567 62.1011C77.1836 62.0201 75.3858 63.509 73.3614 63.9945C71.6284 64.4152 69.7334 64.0916 68.2596 63.0397C66.6562 61.6803 64.5993 61.0168 62.6396 60.2562C60.0644 59.2852 57.5379 58.12 55.3028 56.5179C54.0395 55.6278 52.8086 54.5597 51.27 54.2846C50.6708 54.1875 50.0391 54.2198 49.4399 54.0418C48.3871 53.7182 47.6421 52.7795 46.6542 52.2779C45.3909 51.6305 43.8199 51.7438 42.6052 50.9832C41.5686 50.3197 41.0018 49.0897 40.856 47.876C40.7102 46.6461 40.937 45.4162 41.2123 44.2186C41.4228 43.2638 41.6658 42.2443 41.3905 41.3057C41.1961 40.6745 40.7588 40.1243 40.3539 39.6064C40.3539 39.6064 40.3485 39.601 40.3377 39.5902C39.7763 38.8782 39.2094 38.1607 38.6371 37.4379C38.378 37.098 38.0865 36.7744 37.8273 36.4183C37.5844 36.0947 37.3576 35.8034 37.0337 35.5444C36.7638 35.3502 36.5155 35.1291 36.2887 34.8809C35.1874 33.6672 33.9727 32.5506 32.6446 31.5634C32.2721 31.2721 31.8834 30.9808 31.6567 30.56C31.4299 30.123 31.4299 29.5567 31.106 29.1683C30.5553 28.4562 29.4054 28.6989 28.5956 28.2943C27.6239 27.825 27.3647 26.5466 27.4295 25.4623C27.4457 25.1224 27.4943 24.7826 27.3971 24.4589C27.1866 23.7792 26.4416 23.4394 25.8423 23.0672C25.1621 22.6141 24.5952 22.0315 24.0284 21.4489C23.5425 20.9418 23.0566 20.4347 22.5707 19.9276C21.5828 18.8919 20.5948 17.8724 19.7364 16.7396C19.202 16.0437 18.5217 15.2183 17.6471 15.3478C17.388 15.3963 17.1289 15.5258 16.8859 15.2184C16.7078 15.008 16.6592 14.7167 16.7078 14.4416C16.9345 13.244 16.4162 12.1112 15.898 11.0431C15.4769 10.1476 15.0504 9.25754 14.6185 8.37286C14.1164 7.32095 13.5819 6.23669 12.675 5.50844C11.8166 4.79638 10.6343 4.47271 9.51675 4.65072C9.25762 4.68309 9.06325 4.89345 9.01466 5.15238C8.56117 7.36948 9.14423 9.78079 10.5533 11.5609C11.1201 12.273 11.8652 12.9203 12.9017 12.7747C13.3066 12.7261 13.7277 12.7908 14.0678 13.0012C15.2987 13.7942 14.3432 14.7329 14.3755 15.6553C14.4079 16.3188 14.9424 16.8367 15.3959 17.3222C16.2705 18.2608 16.9993 19.3127 17.6795 20.397C18.133 21.0929 18.5541 21.8049 18.9752 22.517C20.1413 24.4589 21.3074 26.4009 22.4735 28.3429C22.7651 28.8284 23.0566 29.3139 23.2347 29.8479C23.4939 30.6247 23.4939 31.4663 23.4129 32.2916C23.3967 32.4696 23.3805 32.6638 23.4939 32.7933C23.5911 32.8904 23.7044 32.9066 23.834 32.939L26.2634 33.3921C26.5225 33.4406 26.7169 33.6348 26.7493 33.8937C26.7979 34.3307 27.219 34.7353 27.3809 35.1722C27.6724 35.9328 27.2514 36.742 26.8627 37.4379C26.7331 37.632 26.6197 37.8425 26.4254 37.9881C26.2472 38.1176 25.9719 38.1823 25.7775 38.0528C25.5346 37.891 25.5022 37.5512 25.4212 37.2922C25.1945 36.4992 24.3523 36.0785 23.8016 35.4635C23.5263 35.1722 23.3157 34.8162 22.9918 34.5896C22.7975 34.4602 22.5869 34.3792 22.3926 34.2498C22.0686 34.0394 21.8581 33.6995 21.6152 33.3921C21.1293 32.7771 20.4976 32.2592 19.7688 31.9841C19.04 31.709 18.1492 31.6281 17.7443 30.9646C17.3718 30.3334 17.6633 29.5243 17.9549 28.8446C18.2464 28.1811 18.5379 27.3557 18.133 26.7408C18.0196 26.5628 17.8577 26.4171 17.6957 26.2876L15.574 24.3942C15.3473 24.2 14.9424 23.9411 14.6833 23.8602C14.5375 23.8278 14.4079 23.7631 14.3108 23.6821C13.8411 23.3099 13.096 23.6336 12.4968 23.4718C12.2539 23.4071 12.0271 23.2452 11.8004 23.0834L8.9013 20.9472C8.59357 20.7044 8.28585 20.4617 7.99432 20.1866C7.79997 19.9924 7.62182 19.7496 7.73519 19.4098C7.79998 19.2318 7.94572 19.0699 8.12388 18.989C8.94988 18.5682 9.93784 19.2641 10.6667 18.4226C10.9906 18.0504 11.104 17.5325 11.0068 17.047C10.8124 16.0599 9.98642 15.4287 9.16043 14.9109C8.80412 14.6843 8.4316 14.4739 8.12388 14.1988C7.76757 13.8751 7.47604 13.4867 7.15212 13.1631C6.8282 12.8394 6.47189 12.5805 6.16417 12.273C5.48394 11.6095 5.03045 10.7518 4.86849 9.82935C4.77131 9.32767 4.77132 8.82599 4.52838 8.37286C4.35022 8.06538 4.04251 7.855 3.68619 7.77409C3.31369 7.67699 3.00595 7.38568 2.86018 6.99729C2.30952 5.50843 1.72647 4.03035 1.11103 2.56307C0.938269 2.16388 0.7655 1.76471 0.592743 1.36553C1.67787 0.977132 2.8602 0.880049 4.01011 0.815316C5.00347 0.750583 5.99681 0.685819 6.99016 0.621086C7.34647 0.58872 7.71899 0.572552 8.0753 0.637285C8.4964 0.702018 8.88509 0.880049 9.2576 1.05806C11.6546 2.14234 14.084 3.14567 16.5134 4.14903C17.0857 4.37559 17.6579 4.60756 18.2302 4.84492C19.3315 5.29804 20.4328 5.75119 21.599 5.99394C22.263 6.1234 22.927 6.18811 23.5911 6.25284C25.2754 6.41468 26.9598 6.57651 28.6442 6.73834C29.5998 6.81926 30.8145 6.75454 31.1708 5.86446C31.3004 5.57317 31.2842 5.21712 31.4623 4.95819C31.7377 4.53743 32.3207 4.47272 32.8228 4.45653C34.1616 4.42417 35.5005 4.38638 36.8394 4.34322C37.4386 4.32704 38.1027 4.32707 38.5886 4.69928C39.0582 5.03913 39.2526 5.65409 39.5765 6.15577C40.2243 7.14294 41.3581 7.66079 42.2164 8.48613C43.4311 9.66751 43.9656 11.3667 45.0993 12.6128C45.3909 12.9203 45.7148 13.1793 46.0225 13.4544C46.314 13.6971 46.5894 13.9722 46.8971 14.215C47.464 14.6681 48.128 15.0403 48.873 14.9271C49.9419 14.749 50.8651 13.8428 51.0433 12.7747C51.108 12.4186 51.0919 12.0141 51.3348 11.7228C51.6101 11.4153 52.096 11.3829 52.5333 11.3991C53.3107 11.4153 54.1043 11.4476 54.8169 11.7551C55.562 12.0788 56.145 12.6776 56.6309 13.3249C58.2505 15.4287 59.1089 18.1799 61.2467 19.782C61.3439 19.8467 61.4573 19.9277 61.5059 20.0571C61.5707 20.1704 61.5545 20.2999 61.5383 20.4293C61.4897 20.931 61.3925 21.465 61.6354 21.902C61.846 22.258 62.2509 22.4522 62.4452 22.8245C62.6072 23.1643 62.5586 23.5689 62.7044 23.9249C62.9149 24.4589 63.498 24.7341 64.0487 24.8797C64.5993 25.0092 65.1824 25.0577 65.7006 25.3329C66.1055 25.5432 66.4295 25.8993 66.8668 26.0611C67.1745 26.1744 67.5308 26.1744 67.8709 26.1744C68.6591 26.1744 69.4473 26.1797 70.2355 26.1905C70.2841 26.4818 70.3165 26.7893 70.3003 27.0968C70.2517 28.0354 69.8306 28.8931 69.3123 29.6861C68.4864 31.353 68.1624 33.2464 68.3568 35.0913C68.4864 36.305 68.8589 37.5673 68.4702 38.7325C68.373 39.0076 68.2434 39.2828 68.211 39.5741C68.1786 39.8654 68.2596 40.1566 68.3568 40.4317C68.8103 42.0339 69.2962 43.6684 70.1869 45.0925C70.8186 46.0797 71.6284 46.9536 72.3896 47.8599C72.7297 48.2644 73.0536 48.7014 73.1832 49.2031C73.248 49.4458 73.3937 49.6724 73.5881 49.8342C74.2845 50.3682 74.5922 51.2421 75.0133 52.0027C75.1429 52.2131 75.2725 52.4235 75.4506 52.5691C75.9365 52.9737 76.6329 52.909 77.2646 52.9899C78.1068 53.1032 78.9166 53.524 79.4834 54.1551C79.7264 54.4302 80.0017 54.7701 80.3742 54.7377C80.5038 54.7377 80.6171 54.673 80.7467 54.6244C81.7833 54.1389 82.9008 53.7991 84.0507 53.6372C84.6662 53.5563 85.2978 53.5078 85.8646 53.265C86.5611 52.9737 87.2089 52.3749 87.954 52.5368C88.0187 52.5368 88.0997 52.5691 88.1483 52.6177C88.2455 52.6986 88.2617 52.8281 88.2779 52.9414C88.3589 53.4107 88.5532 53.8638 88.9743 54.1065C89.2172 54.236 89.5088 54.2684 89.7679 54.1551C90.2862 53.9285 90.3348 53.265 90.2538 52.731C90.2376 52.5368 90.2214 52.3588 90.2538 52.1808C90.27 52.0351 90.3509 51.9056 90.4481 51.8085C90.6911 51.5658 90.9502 51.4363 91.2255 51.2745C91.8248 50.9184 92.0839 50.2064 92.4726 49.64C92.6508 49.4134 92.8451 49.1869 92.9747 48.9441C93.6226 47.7789 92.9423 46.2577 93.412 45.0116C93.7683 44.073 94.7401 43.4742 95.7118 43.1991C96.6998 42.9402 97.7201 42.924 98.7243 42.7459C99.8418 42.5517 100.959 42.1633 102.093 42.2928C102.757 42.3737 103.405 42.6165 104.053 42.5356C104.506 42.487 104.927 42.2766 105.381 42.1957C105.834 42.1148 106.369 42.2119 106.612 42.6003C106.725 42.7945 106.741 43.0372 106.757 43.2638C106.779 43.6954 106.768 44.1215 106.725 44.5423Z" fill="#F1F1F1" stroke="#BABABA" stroke-width="1.18548" stroke-linecap="round" stroke-linejoin="round"/>
</svg>
