<svg width="37" height="25" viewBox="0 0 37 25" fill="none" xmlns="http://www.w3.org/2000/svg">
<path d="M4.00601 3.0905C3.84405 3.15523 3.66588 3.23614 3.5687 3.39797C3.43914 3.60835 3.47154 3.86729 3.52013 4.09386C3.77926 5.29141 4.55667 6.37568 5.62561 6.97446C5.94953 7.15248 6.16007 7.47614 6.14387 7.84835C6.12768 8.78697 5.01016 8.56042 4.58906 9.11065C4.0384 9.85507 5.1883 11.1659 4.45948 11.7485C4.29752 11.878 4.07078 11.9265 3.90882 12.056C3.5687 12.3796 3.73068 12.9622 3.52013 13.383C3.29338 13.8523 2.67793 13.9818 2.33781 14.3702C1.9977 14.7262 1.9491 15.2603 1.72236 15.6972C1.33365 16.4578 0.378098 17.1051 0.637234 17.9143C0.73441 18.2218 0.993546 18.4484 1.28507 18.5616C1.90052 18.8044 2.53216 18.6587 3.1638 18.7235C4.36231 18.8529 5.31787 19.7754 6.0143 20.7464C6.71072 21.7335 7.2452 22.834 8.08739 23.6917C8.36272 23.983 8.70283 24.2581 9.09153 24.339C9.44785 24.4038 9.80417 24.3229 10.1605 24.2258C11.0837 23.9345 11.9744 23.4489 12.7194 22.834C13.1567 22.4618 13.7236 22.0248 14.2257 22.2999C14.3714 22.3647 14.4686 22.478 14.582 22.5751C15.1326 23.0282 15.9424 23.0282 16.5903 22.7369C17.2543 22.4618 17.7726 21.9601 18.2909 21.4746C19.3598 20.4389 20.4611 19.3708 21.028 18.0114C21.4329 17.0242 21.5625 15.9076 22.2427 15.0822C22.5504 14.71 22.9391 14.4187 23.3602 14.1922C24.0243 13.8038 24.7531 13.5286 25.5143 13.3668C26.0487 13.2535 26.6156 13.1888 27.1177 12.9299C27.5874 12.6709 27.9275 12.2502 28.3486 11.9103C29.2717 11.1983 30.4702 10.9555 31.604 10.648C32.7053 10.3568 33.7904 9.96835 34.8432 9.49904C35.2805 9.28866 35.7339 9.06209 35.7825 8.41476C35.8149 7.96163 35.6206 7.54087 35.2967 7.21721C34.7946 6.71553 34.0658 6.52133 33.3855 6.31095C31.4744 5.6798 29.5795 4.66026 28.462 2.97721C28.0409 2.36225 27.5388 1.53691 26.7452 1.76347C26.5994 1.81202 26.4699 1.90912 26.3565 2.0224C25.741 2.65354 25.9192 3.60836 25.4819 4.30424C25.3685 4.51462 25.158 4.67645 24.9474 4.75736C24.5911 4.90301 24.2348 4.56316 24.3482 4.19095C24.4777 3.72164 24.5587 3.25233 24.3644 2.7992C24.2024 2.44317 23.8299 2.18423 23.4412 2.2166C22.5018 2.28133 22.8257 3.72164 22.0807 3.77019C21.9026 3.78638 21.7244 3.68927 21.5787 3.57599C21.1252 3.15523 20.6069 2.81538 20.04 2.55645C19.7161 2.39462 19.1169 2.10332 18.6958 2.10332C18.6202 2.10332 18.5554 2.11411 18.5014 2.13568C18.388 2.16805 18.2909 2.24897 18.1775 2.28134C17.4487 2.5079 16.7846 1.52072 16.315 1.13232C15.5861 0.533546 14.501 0.420271 13.6588 0.857217C13.1405 1.11615 12.7356 1.56928 12.185 1.74729C11.3428 1.99004 10.3386 1.58546 9.62601 2.08714C9.33448 2.28133 9.15633 2.605 8.881 2.84775C7.63391 3.94821 5.57702 2.5079 4.00601 3.0905Z" fill="#F1F1F1" stroke="#BABABA" stroke-width="1.18548" stroke-linecap="round" stroke-linejoin="round"/>
</svg>
