<svg width="8" height="6" viewBox="0 0 8 6" fill="none" xmlns="http://www.w3.org/2000/svg">
<path d="M6.75439 2.70791C6.02557 1.76928 4.90804 1.13814 3.70954 0.992494C3.51518 0.960128 3.32086 0.943942 3.1265 0.87921C2.91596 0.798294 2.7216 0.63646 2.47866 0.604093C2.02518 0.523177 1.63646 0.895397 1.21537 1.10578C1.05341 1.18669 0.891441 1.23524 0.761873 1.34853C0.648501 1.47799 0.616125 1.63982 0.616125 1.83402L0.599913 2.3357C0.551325 2.62699 0.761865 2.86975 0.956217 3.08013C1.15057 3.29051 1.32873 3.56562 1.24775 3.82455C1.16677 4.0673 0.907629 4.18058 0.794257 4.40714C0.680885 4.61752 0.729489 4.89264 0.891449 5.03829C0.972429 5.10302 1.05342 5.15158 1.1506 5.18394C1.76605 5.41051 2.54345 5.08684 2.80258 4.47188C2.83498 4.42333 2.85115 4.3586 2.89974 4.31005C2.96452 4.22913 3.0779 4.21295 3.19127 4.21295C3.45041 4.24532 3.66096 4.43952 3.88771 4.53662C4.09826 4.61753 4.34119 4.63371 4.56793 4.63371C4.77848 4.61753 5.00522 4.60135 5.21577 4.53662C5.41012 4.4557 5.58829 4.32623 5.75025 4.19676C6.04177 3.99178 6.33329 3.7814 6.62481 3.56563C6.75438 3.46853 6.91637 3.35524 6.93256 3.17722C6.96495 3.01539 6.86776 2.85356 6.75439 2.70791Z" fill="#F1F1F1" stroke="#BABABA" stroke-width="1.18548" stroke-linecap="round" stroke-linejoin="round"/>
</svg>
