<svg width="4" height="8" viewBox="0 0 4 8" fill="none" xmlns="http://www.w3.org/2000/svg">
<path d="M0.693373 4.28546C0.693373 4.59294 0.725749 4.90042 0.677161 5.2079C0.612377 5.58011 0.563805 5.95232 0.612393 6.34072C0.612393 6.48637 0.644801 6.64819 0.709585 6.77766C0.790565 6.92331 0.920085 7.03662 1.06585 7.0528C1.34118 7.10135 1.56794 6.85859 1.7299 6.63203C1.95664 6.34073 2.17801 6.04945 2.39395 5.75815C2.83124 5.19174 3.2847 4.57675 3.33329 3.86468C3.34948 3.6543 3.33327 3.42776 3.31708 3.2012C3.25229 2.45677 3.17138 1.66379 2.73408 1.04883C2.55593 0.806077 2.29678 0.563321 1.98905 0.595688C1.66513 0.611871 1.42216 0.903161 1.30879 1.19446C1.01726 1.84179 0.952525 2.5215 0.790565 3.23356C0.758173 3.52485 0.693373 3.81614 0.693373 4.10743C0.693373 4.17217 0.693373 4.23152 0.693373 4.28546Z" fill="#F1F1F1" stroke="#BABABA" stroke-width="1.18548" stroke-linecap="round" stroke-linejoin="round"/>
</svg>
