<svg width="5" height="4" viewBox="0 0 5 4" fill="none" xmlns="http://www.w3.org/2000/svg">
<path d="M0.72231 1.69324C0.819486 1.8227 0.949101 1.91981 1.09487 1.98454C1.48357 2.16256 1.87223 2.34055 2.17995 2.64803C2.30952 2.7775 2.42287 2.92315 2.56864 3.05261C2.86016 3.27918 3.31367 3.32775 3.63759 3.11737C3.94531 2.92317 4.09112 2.47002 3.92916 2.13018C3.84818 1.96834 3.71858 1.83888 3.57282 1.7256C3.40006 1.56377 3.22194 1.40193 3.03838 1.2401C2.69827 0.932621 2.29331 0.592773 1.83982 0.592773C1.69405 0.592773 1.56449 0.625124 1.43492 0.65749C1.27296 0.689857 1.111 0.727649 0.949038 0.770804C0.73849 0.803171 0.592773 0.997361 0.592773 1.20774C0.592773 1.36957 0.625134 1.56377 0.72231 1.69324Z" fill="#F1F1F1" stroke="#BABABA" stroke-width="1.18548" stroke-linecap="round" stroke-linejoin="round"/>
</svg>
