<svg width="7" height="11" viewBox="0 0 7 11" fill="none" xmlns="http://www.w3.org/2000/svg">
<path d="M5.68541 2.27877C5.66381 2.32193 5.63682 2.35968 5.60443 2.39205C5.36149 2.68334 5.02139 2.87754 4.72986 3.12029C4.30876 3.46014 3.95244 3.99418 4.38973 4.57678C4.55169 4.81952 4.63267 5.11081 4.63267 5.41829C4.63267 6.3731 4.4869 7.34411 3.77427 7.94289C3.35318 8.29892 2.77014 8.46076 2.46242 8.96244C2.31666 9.189 2.28424 9.48029 2.39761 9.72304C2.52718 9.96579 2.75394 10.0305 2.98068 10.0467C2.96989 10.0575 2.96447 10.0629 2.96447 10.0629C2.67294 10.0952 2.38143 10.0791 2.0899 10.0791C1.74439 10.0791 1.40427 10.0791 1.06955 10.0791C1.02096 10.0791 0.97238 10.0791 0.956184 10.0467C0.923792 10.0143 0.923784 9.98195 0.907588 9.94959C0.77802 9.05951 0.648468 8.16946 0.59988 7.2632C0.583684 6.66442 0.59988 6.06561 0.59988 5.45065C0.621475 4.60913 0.648468 3.76762 0.68086 2.9261C0.745644 2.86137 0.81042 2.78046 0.875204 2.73191C1.32869 2.39206 2.1061 2.66717 2.41382 2.19785C2.4948 2.06839 2.52718 1.90657 2.55957 1.76092C2.67294 1.37252 2.89968 1.0003 3.2398 0.741367C3.32078 0.676635 3.43417 0.611878 3.54754 0.595695C3.82288 0.563329 4.0334 0.806092 4.21156 1.01647C4.63265 1.51815 5.13474 1.93892 5.68541 2.27877Z" fill="#F1F1F1" stroke="#BABABA" stroke-width="1.18548" stroke-linecap="round" stroke-linejoin="round"/>
</svg>
