<svg width="44" height="20" viewBox="0 0 44 20" fill="none" xmlns="http://www.w3.org/2000/svg">
<path d="M39.0827 6.56469C38.3215 6.62943 37.7547 7.39004 37.787 8.13447C37.8032 8.45813 37.4307 8.66851 37.1716 8.45813C36.961 8.31248 36.7829 8.11828 36.6047 7.94027C35.6978 6.98546 34.4021 6.41905 33.0902 6.3705C32.8311 6.35432 32.6853 6.0792 32.8311 5.86882C32.9768 5.64225 33.1064 5.4157 33.1712 5.15676C33.3008 4.68745 33.1712 4.12104 32.7501 3.87829C32.5557 3.76501 32.2966 3.71646 32.1346 3.55462C31.7297 3.15004 32.167 2.48654 32.1994 1.92013C32.2318 1.15952 31.4382 0.576919 30.6932 0.593103C29.932 0.593103 29.2517 1.04623 28.6849 1.53173C27.9561 2.17905 27.3082 2.93967 26.3365 3.21478C25.8992 3.32806 25.5267 3.61936 25.3485 4.02394C24.9436 4.99493 25.9316 5.52898 26.7576 5.64226C27.4378 5.72318 28.2314 5.70699 28.7335 6.19248C28.8145 6.2734 28.8954 6.3705 28.9278 6.49997C29.0088 6.93691 28.3772 7.13111 27.9237 7.11493C27.454 7.08256 26.8223 7.16348 26.8062 7.63279C26.79 7.89172 26.9681 8.1021 27.2111 8.1992L29.5433 9.13783C29.8024 9.23492 30.1101 9.38057 30.1263 9.70424C30.1425 9.88225 30.0453 10.0603 29.8996 10.1736C29.5919 10.4163 29.2032 10.4001 28.8468 10.3677C27.2056 10.2599 25.5645 10.152 23.9233 10.0441C23.486 10.0279 23.0325 9.99553 22.6276 9.80133C21.2185 9.15401 20.7974 6.87218 19.2426 6.87218C19.0807 6.87218 18.8863 6.88836 18.7406 6.80744C18.5786 6.71034 18.5138 6.49996 18.449 6.32195C18.0765 5.33477 16.959 4.68744 15.9225 4.86546C15.3232 4.96256 14.8049 5.30241 14.2219 5.46424C13.655 5.62607 12.9424 5.57752 12.5861 5.09203C12.2946 4.67126 12.3431 4.02394 11.9382 3.71646C11.7439 3.57081 11.5009 3.53844 11.2742 3.48989C10.4806 3.37661 9.68699 3.26333 8.87719 3.31188C8.48849 3.34424 8.09977 3.40897 7.71107 3.52226C7.43574 3.61936 7.1766 3.74882 6.90127 3.87829C6.70692 3.97539 6.4316 4.04012 6.26964 4.20195C6.23725 4.24511 6.21026 4.29366 6.18866 4.3476C6.07529 4.57417 6.09149 4.86546 6.0267 5.09203C5.96192 5.35096 5.81615 5.56134 5.54082 5.62607C5.26549 5.70699 4.99015 5.64226 4.69862 5.64226C4.26133 5.62608 3.79164 5.77172 3.48392 6.09539C3.19239 6.43523 3.11142 6.96928 3.37055 7.3415C3.51632 7.53569 3.77545 7.69753 3.64588 7.98882C3.58109 8.16684 3.41914 8.26393 3.24098 8.2963C2.41498 8.42576 1.83192 9.08927 1.39463 9.75278C0.892556 10.481 0.487668 11.3387 0.617236 12.2288C0.68202 12.6496 0.89256 13.038 1.21648 13.3293C2.39879 14.3812 3.54871 12.779 4.65004 13.1998C5.31408 13.4749 5.62179 14.3974 6.33441 14.4459C7.04703 14.5106 7.67868 13.6206 8.34272 13.8795C8.56946 13.9604 8.71523 14.1546 8.89339 14.2841C9.41166 14.6563 10.1405 14.5916 10.6749 14.2679C11.2094 13.9442 11.5819 13.4102 11.8573 12.8438C12.0192 12.5039 12.165 12.1479 12.4565 11.9051C12.5861 11.7919 12.748 11.7271 12.91 11.711C13.1529 11.6786 13.3311 11.9699 13.1853 12.1803C12.9586 12.5039 12.91 12.9409 13.0882 13.2807C13.3473 13.7662 13.9465 13.9766 14.481 13.9604C15.0317 13.9442 15.5499 13.7339 16.0682 13.572C17.8822 12.9732 19.8095 12.8438 21.7044 12.7143C21.8664 12.6981 22.0283 12.7467 22.1255 12.8761C22.2713 13.0542 22.1903 13.2322 22.0769 13.3616C21.3967 14.3003 20.0524 14.3164 18.8863 14.3326C17.1047 14.3488 15.3232 14.5592 13.5902 14.9961C12.829 15.1742 11.9868 15.4816 11.9382 16.4203C11.922 16.9381 12.1974 17.4398 12.6185 17.7311C15.0479 19.4627 18.1413 18.783 20.9108 18.0548C21.753 17.8444 22.6276 17.6178 23.3888 17.1809C24.231 16.7116 24.9436 15.9995 25.8668 15.6597C27.0167 15.2389 28.4096 15.4655 29.3975 14.721C29.6566 14.5268 29.8834 14.2679 30.1911 14.1546C31.1467 13.831 32.0698 15.1903 33.0416 14.8829C33.5599 14.721 33.9 14.0899 34.4507 14.0737C34.8556 14.0575 35.1957 14.365 35.5358 14.5916C36.2322 15.0285 37.1554 15.0447 37.8842 14.6563C38.2081 14.4783 38.4997 14.2193 38.856 14.1708C39.4552 14.0899 40.1355 14.5916 40.6052 14.2032C40.7185 14.1222 40.7995 13.9928 40.8643 13.8633C41.7875 12.2126 42.4191 10.3839 42.7268 8.50668C42.7754 8.21538 42.743 7.92408 42.6297 7.64897C42.2409 6.79126 41.3825 6.98546 40.6699 6.87218C40.1355 6.79126 39.6172 6.53233 39.0827 6.56469Z" fill="#F1F1F1" stroke="#BABABA" stroke-width="1.18548" stroke-linecap="round" stroke-linejoin="round"/>
</svg>
