<svg width="43" height="28" viewBox="0 0 43 28" fill="none" xmlns="http://www.w3.org/2000/svg">
<path d="M17.0254 2.00462C16.7177 1.66477 16.2156 1.61622 15.7621 1.56767C15.0819 1.51912 14.3693 1.42203 13.7376 1.14691C13.4461 1.01745 13.1546 0.839427 12.8468 0.726144C12.4905 0.612862 12.118 0.580498 11.7455 0.596681C11.1463 0.596681 10.5632 0.677601 9.98012 0.823249C9.72099 0.904165 9.44568 1.00126 9.23513 1.17927C9.00839 1.35729 8.86262 1.64859 8.91121 1.93988C8.97599 2.23118 9.23512 2.44157 9.51045 2.52248C9.78579 2.61958 10.0935 2.6034 10.385 2.6034L12.199 2.53866C12.361 2.52248 12.5229 2.63576 12.5715 2.79759C12.6363 3.05652 12.3609 3.16981 12.1342 3.21836C11.5673 3.33164 10.9843 3.39637 10.4174 3.38019C10.1421 3.38019 9.86677 3.36401 9.59143 3.41256C9.3161 3.44493 9.05697 3.55821 8.78163 3.62294C8.34434 3.70386 7.89085 3.65531 7.43736 3.62294C6.88669 3.59057 6.30366 3.60676 5.83397 3.97897C5.62342 4.15699 5.46145 4.4321 5.47765 4.72339C5.47765 5.35454 6.1093 5.64583 6.64377 5.8724C7.06487 6.05581 7.48056 6.24461 7.89085 6.43881C8.1176 6.55209 8.36053 6.68156 8.47391 6.90812C8.55489 7.03759 8.5549 7.19942 8.50631 7.32888C8.40913 7.52308 8.23097 7.55545 8.05281 7.57163C7.64791 7.62018 7.19443 7.65255 6.82192 7.47454C6.35224 7.24797 6.06071 6.76248 5.60722 6.50354C5.16993 6.2608 4.60306 6.26079 4.18197 6.51972C4.02001 6.61682 3.87424 6.76247 3.69609 6.84339C3.40456 6.98904 3.04826 6.98904 2.77292 7.21561C2.65955 7.31271 2.59477 7.45836 2.61096 7.62019C2.65955 8.05714 3.33979 8.00858 3.40457 8.38079C3.43696 8.65591 3.11304 8.81775 2.8539 8.83393C2.57857 8.86629 2.27084 8.83393 2.09268 9.04431C2.09268 9.04431 1.76877 9.14141 1.6554 9.36797C1.55822 9.59454 1.47723 9.9182 1.68778 10.0638C1.80115 10.1448 1.96311 10.1286 2.09268 10.1448C2.52997 10.2095 2.83771 10.6141 3.2588 10.7435C3.79327 10.9216 4.39252 10.6141 4.91079 10.8083C5.13753 10.8892 5.3157 11.051 5.52624 11.1643C5.83397 11.31 6.20647 11.3423 6.53039 11.229C6.8705 11.1158 7.16204 10.8568 7.53455 10.8083C7.7451 10.7759 7.98803 10.8245 8.14999 10.9701C8.31195 11.0996 8.39292 11.3585 8.32814 11.5527C8.18237 11.9411 7.69651 11.9897 7.29161 11.9897C6.79493 11.9789 6.30364 11.9681 5.81776 11.9573C4.78122 11.9411 3.6799 11.9087 2.78912 11.3585C2.48139 11.1643 2.20607 10.9216 1.86595 10.8083C1.54203 10.695 1.15331 10.7274 0.877981 10.9539C0.602649 11.1643 0.505481 11.5851 0.683637 11.8764C0.797009 12.0706 0.991361 12.1838 1.16952 12.3133C1.6392 12.6532 2.0117 13.1225 2.23845 13.6565C2.33562 13.8831 2.4166 14.142 2.56237 14.3686C2.90248 14.935 3.6313 15.1939 4.27914 15.0968C4.4573 15.0644 4.65165 15.1292 4.74883 15.291C4.99177 15.6309 4.4411 15.9545 4.50589 16.3267C4.52208 16.44 4.60306 16.5209 4.66785 16.6019C5.18612 17.2492 5.86635 17.767 6.61137 18.1231C6.72474 18.1878 6.83812 18.2364 6.98388 18.2364C7.11345 18.2525 7.25921 18.204 7.38878 18.1393C7.83147 17.9774 8.27416 17.8102 8.71685 17.6376C8.83022 17.589 8.95979 17.5405 9.08936 17.5567C9.23513 17.5728 9.36469 17.6861 9.49426 17.767C10.1259 18.1878 10.9681 18.3011 11.6969 18.0422C12.1342 17.8965 12.5229 17.6214 12.9278 17.3948C13.3327 17.1683 13.8024 16.9741 14.2559 17.0226C14.7256 17.0874 15.179 17.4434 15.2114 17.9127C15.2114 18.0583 15.1629 18.2202 15.0657 18.3335C15.0009 18.3982 14.9199 18.4467 14.8227 18.4791C13.9968 18.819 13.0088 18.3982 12.1666 18.738C11.7455 18.916 11.4054 19.2721 10.9519 19.3854C10.466 19.5148 9.83437 19.3692 9.52665 19.7738C9.36469 20.0003 9.38089 20.3078 9.49426 20.5506C9.64003 20.8904 9.94775 21.2303 10.2393 21.4568C10.3688 21.5701 10.547 21.6025 10.6928 21.6996C10.8223 21.7751 10.9519 21.8614 11.0815 21.9585C11.3244 22.1527 11.5674 22.3631 11.7941 22.5735C12.2314 22.9618 12.7335 23.3664 13.3327 23.3988C13.3867 23.3988 13.4461 23.3934 13.5109 23.3826C13.9967 23.3502 14.434 23.0428 14.9199 23.0266C15.503 22.9942 16.167 23.8034 15.3248 24.127C15.179 24.1918 15.0171 24.1756 14.8713 24.127C14.5474 24.0299 13.9643 24.2241 14.0291 24.5963C14.0615 24.742 14.1749 24.8391 14.2883 24.92C16.248 26.4089 18.8069 26.7487 21.2363 27.04C21.868 27.1209 22.5968 27.1533 23.0017 26.6678C23.1799 26.4574 23.2609 26.1985 23.4066 25.9719C23.5524 25.7454 23.8277 25.5512 24.0868 25.6321C24.2974 25.713 24.4108 25.9396 24.5403 26.1338C24.8643 26.5221 25.4635 26.684 25.9332 26.4736C26.0142 26.4412 26.0951 26.3765 26.1437 26.3118C26.3057 26.0528 26.0142 25.7777 25.8522 25.535C25.6416 25.1789 25.7226 24.5963 26.1923 24.564C26.4029 24.5316 26.6134 24.6611 26.743 24.8553C27.0669 25.3246 26.9211 25.9072 27.1641 26.4089C27.2451 26.5707 27.407 26.7164 27.5852 26.7973C27.8929 26.9106 28.0873 26.7325 28.2654 26.5707C28.557 26.2902 28.8485 26.0097 29.14 25.7292C29.5125 25.3731 29.9336 24.8391 29.6907 24.386C29.5611 24.1432 29.2696 23.8843 29.4639 23.6577C29.6583 23.4312 29.966 23.4959 30.0956 23.7872C30.3709 24.3212 31.1321 24.1918 31.3588 23.7386C31.5532 23.3664 31.4074 22.8809 31.0835 22.622C30.8892 22.4763 30.63 22.3631 30.549 22.1365C30.4681 21.8938 30.5976 21.4406 30.6948 21.1817C30.792 20.8904 30.9864 20.7124 31.3103 20.7448C32.3306 20.858 31.3588 22.4602 32.0877 22.7838C32.2172 22.8324 32.3468 22.8324 32.4764 22.8162C33.8854 22.6058 34.4685 20.8419 35.6832 20.0812C36.9303 19.2883 38.5337 19.6767 40.0075 19.8061C40.2181 19.8223 40.461 19.8223 40.5905 19.6443C40.7687 19.4339 40.6392 19.1103 40.7687 18.8675C40.9469 18.5115 41.5785 18.5762 41.7243 18.204C41.8053 18.0098 41.7081 17.7832 41.5947 17.589C41.0117 16.6828 39.9751 16.084 38.89 16.0031C38.5499 15.9869 38.2097 16.0031 37.8858 15.8898C37.3676 15.6632 37.0274 15.0645 36.4606 14.9997C35.9585 14.935 35.4726 15.3558 34.9544 15.2263C34.7924 15.1777 34.6466 15.0806 34.5819 14.9188C34.4523 14.6437 34.6628 14.4009 34.7762 14.1582C35.1001 13.5109 34.841 12.7503 34.5819 12.0706C34.5009 11.844 34.4037 11.5851 34.1931 11.4556C33.7073 11.1643 32.8651 11.5527 32.6383 11.0348C33.2376 10.7274 33.1566 9.75637 32.6383 9.31942C32.1363 8.88248 31.4075 8.80156 30.7434 8.75301C30.3763 8.73143 30.0092 8.70985 29.6421 8.68828C29.059 8.63973 28.6703 9.27087 28.9619 9.75636C29.059 9.95056 29.2048 10.1286 29.3182 10.3066C29.4963 10.5979 29.2696 10.9377 28.9456 10.9054C28.5246 10.8568 28.1034 10.6303 27.8443 10.2904C27.3746 9.65927 27.3908 8.70446 26.8078 8.15423C26.0304 7.42599 24.7509 7.92767 23.6819 7.74965C23.1151 7.65255 22.613 7.34507 22.1757 6.98904C21.9382 6.81642 21.7169 6.62762 21.5117 6.42263C21.5009 6.41184 21.4901 6.40645 21.4793 6.40645C21.3011 6.22843 21.1392 6.03423 20.9286 5.8724C20.6533 5.66201 20.4427 5.45164 20.1998 5.12797C19.8435 4.70721 19.4872 4.28645 19.1309 3.86569C18.8879 3.59057 18.6612 3.25073 18.3373 3.05653C18.0619 2.87851 17.7056 2.81378 17.4789 2.58721C17.3007 2.42538 17.2035 2.18264 17.0254 2.00462Z" fill="#F1F1F1" stroke="#BABABA" stroke-width="1.18548" stroke-linecap="round" stroke-linejoin="round"/>
</svg>
