<svg width="19" height="8" viewBox="0 0 19 8" fill="none" xmlns="http://www.w3.org/2000/svg">
<path d="M17.8649 3.94072C17.7516 3.84362 17.5896 3.81125 17.4438 3.77889C16.4721 3.58469 15.4679 3.48759 14.48 3.48759C14.1399 3.48759 13.7673 3.50378 13.4758 3.32576C13.3462 3.24484 13.2329 3.11537 13.1033 3.03446C12.828 2.87262 12.5041 2.87262 12.1963 2.87262C11.6943 2.87262 11.176 2.88881 10.7387 3.13156C10.6577 3.18011 10.5605 3.22866 10.4795 3.26102C10.2204 3.34194 9.9613 3.18011 9.78314 2.98591C9.62118 2.79171 9.50778 2.54896 9.34582 2.33858C8.81135 1.6427 7.79099 1.56179 6.90021 1.56179C6.36574 1.56179 5.78273 1.59415 5.32925 1.90163C4.95674 2.16056 4.61659 2.64606 4.1631 2.54896C3.93636 2.50041 3.75822 2.3224 3.61245 2.1282C3.4397 1.88006 3.28849 1.61573 3.15892 1.33522C3.04555 1.04392 2.89978 0.687892 2.59206 0.606976C2.18716 0.509877 1.86329 0.946823 1.74991 1.33522C1.66893 1.56178 1.62035 1.78836 1.50697 1.99874C1.4098 2.17675 1.24784 2.29004 1.10207 2.43568C1.03729 2.50042 0.956327 2.58133 0.875347 2.66224C0.745779 2.80789 0.616179 2.95355 0.599983 3.13156C0.567591 3.34194 0.648603 3.55232 0.794367 3.71415C1.0697 3.98927 1.50697 4.054 1.91187 4.10255C2.33297 4.13492 2.77028 4.18347 3.06181 4.45858C3.17518 4.57187 3.27235 4.71751 3.38573 4.8308C3.83921 5.31629 4.58417 5.34866 5.2644 5.42958C6.09039 5.54286 6.91639 5.76942 7.61282 6.22255C7.96913 6.46529 8.29306 6.75659 8.68177 6.95079C9.41059 7.33919 10.2852 7.33918 11.1112 7.323C11.9048 7.30682 12.6984 7.29064 13.4434 7.01553C13.8159 6.86988 14.1722 6.65949 14.5447 6.51384C15.1278 6.28728 15.7594 6.20637 16.3749 6.04453C16.9903 5.8827 17.6058 5.5914 17.9459 5.05735C18.1565 4.70132 18.205 4.18347 17.8649 3.94072Z" fill="#F1F1F1" stroke="#BABABA" stroke-width="1.18548" stroke-linecap="round" stroke-linejoin="round"/>
</svg>
