<svg width="6" height="5" viewBox="0 0 6 5" fill="none" xmlns="http://www.w3.org/2000/svg">
<path d="M4.92034 1.86869C4.90415 1.60976 4.66121 1.43174 4.43447 1.30228C4.3049 1.20518 4.16993 1.11347 4.02957 1.02716C3.77043 0.865331 3.49516 0.703499 3.20363 0.622583C2.89591 0.55785 2.55573 0.590216 2.32899 0.784415C2.18322 0.91388 2.08608 1.0919 1.95651 1.25373C1.66498 1.5774 1.21149 1.62594 0.903771 1.90106C0.849784 1.94421 0.795798 1.99277 0.741811 2.04671C0.709419 2.08987 0.682426 2.13841 0.660831 2.19235C0.547459 2.40274 0.579835 2.80732 0.725599 3.00151C0.887559 3.2119 1.19527 3.24426 1.43821 3.35755C1.68115 3.47083 1.90789 3.68121 2.16703 3.76213C2.40997 3.85922 2.68535 3.84304 2.94448 3.81067C3.13883 3.77831 3.34937 3.74594 3.49513 3.60029C3.57611 3.51938 3.64086 3.40609 3.70565 3.29281C3.80282 3.08243 3.93239 2.88824 4.11055 2.74259C4.27251 2.61312 4.46689 2.51602 4.62885 2.40273C4.79081 2.27327 4.93654 2.07907 4.92034 1.86869Z" fill="#F1F1F1" stroke="#BABABA" stroke-width="1.18548" stroke-linecap="round" stroke-linejoin="round"/>
</svg>
