<svg width="31" height="14" viewBox="0 0 31 14" fill="none" xmlns="http://www.w3.org/2000/svg">
<path d="M30.2434 5.76295C30.2272 5.326 29.6765 5.16418 29.2392 5.09944C27.7653 4.87288 26.3401 4.3712 25.0444 3.61059C24.8501 3.4973 24.6558 3.38402 24.429 3.38402C24.0079 3.38402 23.7326 3.82096 23.3601 4.03135C23.0038 4.24173 22.4855 4.35501 22.4369 4.75959C22.4207 4.95379 22.5179 5.16418 22.4531 5.34219C22.3559 5.60112 22.0158 5.60112 21.789 5.63349C21.4327 5.69822 21.2708 5.87623 20.9631 6.02188C20.9091 6.05424 20.8605 6.09201 20.8173 6.13516C20.4771 6.42646 20.4772 7.02524 20.7525 7.38127C21.0278 7.75348 21.5137 7.88295 21.8862 8.14188C22.2587 8.40081 22.5017 8.99959 22.1616 9.29088C21.8377 9.566 21.3518 9.33943 21.0116 9.09668C20.2342 8.53027 19.4244 7.86676 19.1329 6.94432C18.8414 6.02188 19.2948 4.79196 20.2504 4.63013C20.6229 4.56539 21.1412 4.58158 21.206 4.20937C21.2222 4.0799 21.1898 3.96662 21.125 3.85334C20.623 3.04418 19.4083 3.17364 18.6147 2.65578C18.1288 2.33211 17.7562 1.7657 17.1894 1.74952C16.9626 1.73334 16.7521 1.81425 16.5415 1.89516C16.0557 2.08936 15.5536 2.29975 15.1649 2.67196C14.7762 3.02799 14.5332 3.5944 14.6952 4.09608C14.76 4.33883 14.9219 4.54921 15.0029 4.79196C15.1001 5.03471 15.0839 5.34219 14.8734 5.48783C14.598 5.68203 14.1931 5.4231 14.0312 5.1318C13.853 4.8405 13.7558 4.4683 13.4805 4.25792C13.0756 3.95043 12.444 4.12845 12.0229 3.82097C11.6828 3.57822 11.6018 3.07654 11.2941 2.78524C10.6138 2.15409 9.28575 2.81761 8.70269 2.10555C8.41116 1.74952 8.47596 1.16692 8.15204 0.827076C7.69856 0.357764 6.90492 0.68143 6.33806 1.02128C4.83723 1.94911 3.34185 2.89852 1.85182 3.86951C1.60888 4.03135 1.36588 4.19318 1.22011 4.45212C0.928585 4.95379 1.13916 5.58493 1.4145 6.08661C1.49548 6.21608 1.57644 6.34554 1.56024 6.49119C1.54405 6.63684 1.43069 6.75013 1.33352 6.84723C0.928617 7.23562 0.475145 7.7373 0.620909 8.27134C0.718085 8.59501 0.993416 8.82157 1.26875 9.01577C2.08935 9.63073 2.90456 10.2403 3.71436 10.8445C4.3622 11.33 5.07479 11.8316 5.86839 11.8478C6.20851 11.864 6.54864 11.7831 6.85637 11.864C7.35844 11.9935 7.71472 12.4466 8.2006 12.6084C8.67029 12.7379 9.23714 12.5437 9.49628 12.1229C9.804 11.6374 9.80405 10.8768 10.3547 10.6665C10.9378 10.4561 11.4236 11.1681 11.9904 11.4432C12.8974 11.8802 13.9016 11.1681 14.8247 10.7474C16.3958 10.0191 18.3717 10.1971 19.7807 11.2005C19.9103 11.2976 20.0237 11.3785 20.1694 11.4271C20.6877 11.5403 21.0278 10.9254 21.4975 10.6988C21.951 10.4884 22.4855 10.6826 22.9876 10.8283C23.4735 10.9739 24.0889 11.0387 24.429 10.6503C24.591 10.4561 24.6558 10.181 24.8339 9.98676C25.2874 9.45271 26.1458 9.74401 26.8422 9.64692C27.7168 9.53363 28.3484 8.77303 28.8829 8.06096C28.9639 7.94768 29.061 7.81822 29.0125 7.68875C28.9801 7.59165 28.8829 7.52692 28.8181 7.42982C28.5914 7.08997 28.9963 6.68539 29.385 6.52356C29.7737 6.37791 30.2596 6.16753 30.2434 5.76295Z" fill="#F1F1F1" stroke="#BABABA" stroke-width="1.18548" stroke-linecap="round" stroke-linejoin="round"/>
</svg>
