<svg width="6" height="8" viewBox="0 0 6 8" fill="none" xmlns="http://www.w3.org/2000/svg">
<path d="M0.608924 4.00897C0.592728 4.38119 0.722328 4.62394 0.884288 4.94761C1.04625 5.31982 1.11105 5.69203 1.38638 6.01569C1.64552 6.30699 2.00181 6.53355 2.34193 6.74394C2.53628 6.85722 2.76302 6.98669 2.98977 6.95433C3.34608 6.90578 3.57281 6.53355 3.6214 6.17752C3.68618 5.82149 3.63762 5.44928 3.7348 5.10944C3.83197 4.72104 4.10724 4.39738 4.31779 4.05753C4.54454 3.71768 4.72275 3.3131 4.62558 2.92471C4.5446 2.61723 4.30161 2.37448 4.17204 2.09937C4.01008 1.79189 3.97774 1.43585 3.89676 1.096C3.84817 0.885617 3.76719 0.675235 3.57284 0.610502C3.44327 0.561953 3.29744 0.626697 3.18407 0.723797C3.0707 0.820896 2.98977 0.934178 2.90879 1.04746C2.71444 1.30639 2.4715 1.51677 2.17997 1.64623C1.98562 1.74333 1.77504 1.80806 1.58068 1.90516C1.111 2.14791 0.625104 2.66578 0.592712 3.23219C0.592712 3.41021 0.60894 3.58821 0.625136 3.75005C0.625136 3.83636 0.619722 3.92266 0.608924 4.00897Z" fill="#F1F1F1" stroke="#BABABA" stroke-width="1.18548" stroke-linecap="round" stroke-linejoin="round"/>
</svg>
