<svg width="6" height="5" viewBox="0 0 6 5" fill="none" xmlns="http://www.w3.org/2000/svg">
<path d="M1.05322 3.74558C1.23138 3.85886 1.37717 4.00451 1.57152 4.06924C1.76588 4.11779 1.96021 4.06925 2.12217 3.95597L2.80243 3.42191C3.02918 3.2439 3.25591 3.0497 3.35308 2.77459C3.43406 2.51566 3.36925 2.17581 3.5636 1.96543C3.69317 1.83596 3.87139 1.78743 4.03335 1.73888C4.24389 1.67415 4.43823 1.57705 4.58399 1.41521C4.72976 1.25338 4.79449 1.0106 4.69732 0.816405C4.66493 0.762461 4.62718 0.719338 4.58399 0.686971C4.51921 0.638422 4.42202 0.622215 4.32484 0.622215C3.70939 0.573665 3.02916 0.541291 2.54328 0.897321C2.33274 1.05915 2.17081 1.25337 2.00885 1.44757C1.60395 1.86834 1.10181 2.20817 0.7293 2.64511C0.583537 2.80695 0.551145 3.04969 0.648321 3.24388C0.745496 3.4219 0.89126 3.6323 1.05322 3.74558Z" fill="#F1F1F1" stroke="#BABABA" stroke-width="1.18548" stroke-linecap="round" stroke-linejoin="round"/>
</svg>
