<svg width="14" height="10" viewBox="0 0 14 10" fill="none" xmlns="http://www.w3.org/2000/svg">
<path d="M8.45322 3.1912C8.25887 3.0941 8.06452 2.98082 7.96734 2.78662C7.90256 2.65715 7.87017 2.5115 7.80538 2.38204C7.61103 2.04219 7.18994 1.89654 6.80124 1.81563C6.41254 1.71853 5.99143 1.65379 5.7161 1.37868C5.65131 1.31395 5.60273 1.24922 5.53794 1.20067C5.44077 1.1683 5.32739 1.1683 5.23022 1.1683C4.69575 1.20067 4.1613 1.11975 3.62683 1.03884C3.3569 1.00647 3.09236 0.974108 2.83322 0.941741C2.71985 0.925558 2.60648 0.909373 2.5093 0.828457C2.44452 0.779907 2.41213 0.715174 2.34734 0.666625C2.21777 0.569526 2.03961 0.585711 1.87765 0.618077C1.44036 0.68281 0.954486 0.779907 0.727742 1.15212C0.565782 1.41105 0.581966 1.75089 0.614358 2.05838C0.630554 2.15547 0.64675 2.25258 0.695338 2.33349C0.792514 2.47914 1.00307 2.54387 1.08405 2.7057C1.14883 2.85135 1.10025 3.02937 0.986874 3.15883C0.943685 3.20199 0.895093 3.23975 0.841106 3.27211C0.646754 3.40158 0.549574 3.62815 0.614358 3.83853C0.625156 3.84932 0.63057 3.86011 0.63057 3.8709C0.808726 4.30784 1.2622 4.51822 1.65091 4.77715C1.97483 5.00371 2.23397 5.29501 2.57409 5.45685C3.02758 5.68341 3.61062 5.68342 4.01552 5.95853C4.19367 6.07181 4.20988 6.34692 4.04792 6.47639C3.93455 6.57348 3.77259 6.63822 3.62683 6.65441C3.28671 6.70296 2.91419 6.62204 2.62267 6.86479C2.44451 7.02662 2.36354 7.26937 2.42832 7.49593C2.55789 7.88433 3.04376 7.98143 3.43246 8.07853C3.88595 8.20799 4.30706 8.41837 4.67957 8.69348C5.06827 8.98478 5.45696 9.38936 5.94284 9.37318C6.62308 9.357 7.04418 8.59639 7.69202 8.38601C7.96735 8.28891 8.25887 8.32127 8.55039 8.33745C9.3386 8.38061 10.1322 8.3968 10.9312 8.38601C11.077 8.36983 11.2389 8.36982 11.3685 8.32127C11.5305 8.24036 11.66 8.11089 11.822 8.01379C12.0002 7.90051 12.2269 7.81959 12.3889 7.67395C12.7776 7.31792 12.6966 6.67059 12.4374 6.21746C12.3241 6.00708 12.1621 5.76433 12.2431 5.53776C12.3565 5.19792 12.8909 5.14937 12.9557 4.79334C13.0043 4.55059 12.7937 4.34021 12.5994 4.19456C12.405 4.04352 12.2107 3.89247 12.0163 3.74143C11.903 3.64433 11.7896 3.56342 11.6438 3.53105C11.5143 3.49869 11.3685 3.53105 11.2551 3.46632C11.158 3.41777 11.1094 3.30448 11.0284 3.23975C10.7693 2.98082 10.332 3.17502 9.99184 3.2883C9.48977 3.43395 8.9391 3.40158 8.45322 3.1912Z" fill="#F1F1F1" stroke="#BABABA" stroke-width="1.18548" stroke-linecap="round" stroke-linejoin="round"/>
</svg>
