<svg width="13" height="6" viewBox="0 0 13 6" fill="none" xmlns="http://www.w3.org/2000/svg">
<path d="M0.595495 2.74935C0.563103 3.34813 0.822239 3.9631 1.24334 4.41623C1.48628 4.65897 1.87493 4.86937 2.16646 4.67517C2.32842 4.57807 2.40945 4.36767 2.53901 4.20584C2.74956 3.94691 3.08965 3.83362 3.39737 3.72034C3.83466 3.55851 4.30435 3.41289 4.77403 3.50999C5.00077 3.55854 5.21135 3.68799 5.45429 3.73654C6.2317 3.86601 7.02527 3.15395 7.77029 3.41288C8.1104 3.52616 8.35336 3.81747 8.67728 3.99549C8.92022 4.12495 9.19552 4.15729 9.45466 4.28675C9.82716 4.44858 10.1187 4.77226 10.4102 5.06355C10.5722 5.22539 10.7503 5.38724 10.9771 5.37106C11.2038 5.33869 11.3658 5.1283 11.4306 4.91792C11.5764 4.51334 11.5116 4.07639 11.4468 3.65562C11.382 3.18631 11.2687 2.68462 10.9609 2.31241C10.6046 1.90783 10.0377 1.74602 9.51942 1.64892C8.98496 1.55183 8.43436 1.50326 7.96467 1.22815C7.75412 1.09868 7.55971 0.920649 7.33297 0.807367C6.84709 0.532252 6.19931 0.516093 5.69723 0.791207C5.55147 0.85594 5.42189 0.953023 5.27612 1.01776C5.06557 1.09867 4.8226 1.11487 4.59586 1.11487C3.75367 1.13645 2.91687 1.15801 2.08548 1.17959C1.81015 1.19577 1.51867 1.21198 1.32432 1.40618C1.19475 1.51946 1.09756 1.61656 0.984183 1.81076C0.984183 1.81076 0.611691 2.37714 0.595495 2.74935Z" fill="#F1F1F1" stroke="#BABABA" stroke-width="1.18548" stroke-linecap="round" stroke-linejoin="round"/>
</svg>
