<svg width="15" height="15" viewBox="0 0 15 15" fill="none" xmlns="http://www.w3.org/2000/svg">
<path d="M1.05615 4.78189C1.08854 5.02464 1.08848 5.25121 1.15326 5.47778C1.4124 6.35167 2.57854 6.70768 2.80528 7.56539C3.01583 8.326 2.44896 9.16755 2.78907 9.84724C2.90245 10.0738 3.09681 10.2518 3.29116 10.4137C3.89042 10.9639 4.45724 11.5626 4.87834 12.2585C5.20226 12.7764 5.47762 13.3914 6.04448 13.6503C6.3846 13.8121 6.8057 13.8121 7.1782 13.9092C7.56691 14.0225 7.92325 14.2653 8.34435 14.2653C8.83023 14.2491 9.25127 13.8769 9.51041 13.4561C9.76955 13.0353 9.93149 12.566 10.223 12.1614C10.3202 11.9996 10.4498 11.8701 10.6118 11.7892C10.9033 11.6598 11.2434 11.773 11.5673 11.7083C11.8751 11.6436 12.1342 11.4332 12.3771 11.2228C12.6903 10.9531 13.0033 10.6834 13.3165 10.4137C13.3813 10.3489 13.4622 10.2842 13.4784 10.1871C13.4946 10.0576 13.3813 9.96052 13.3165 9.84724C12.9925 9.39411 13.1707 8.73061 13.5918 8.35839C13.7862 8.19656 14.0129 8.0671 14.1749 7.8729C14.3855 7.5816 14.4178 7.1932 14.353 6.82099C14.3044 6.46496 14.1749 6.1251 14.1263 5.75288C14.0291 4.89517 14.434 4.03746 14.272 3.19593C14.1424 2.56479 13.689 2.01457 13.106 1.75564C12.5229 1.49671 11.8103 1.56143 11.2596 1.90127C11.1463 1.98219 11.0166 2.07931 10.8871 2.12786C10.7899 2.16023 10.6927 2.16021 10.5956 2.19258C10.4336 2.24113 10.304 2.35443 10.1582 2.45153C9.63998 2.77519 8.94353 2.67807 8.36048 2.87227C8.03656 2.98555 7.76129 3.17975 7.45357 3.27685C6.54659 3.56814 5.55862 3.09885 4.92698 2.40297C4.74882 2.20877 4.58683 1.96603 4.32769 1.88511C4.05236 1.78802 3.74465 1.8689 3.45312 1.93363C3.1616 1.98218 2.82147 1.98219 2.62711 1.73944C2.49755 1.57761 2.49755 1.33485 2.46515 1.12447C2.43276 0.897908 2.31944 0.655168 2.10889 0.606619C2.01171 0.574252 1.91451 0.606634 1.83353 0.622818C1.76874 0.644395 1.70934 0.665957 1.65535 0.687535C1.26665 0.849367 0.958942 1.15686 0.780786 1.54525C0.716002 1.65853 0.667382 1.77182 0.667382 1.788C0.39205 2.77517 0.958973 3.77853 1.05615 4.78189Z" fill="#F1F1F1" stroke="#BABABA" stroke-width="1.18548" stroke-linecap="round" stroke-linejoin="round"/>
</svg>
