<svg width="30" height="16" viewBox="0 0 30 16" fill="none" xmlns="http://www.w3.org/2000/svg">
<path d="M28.9905 2.66423C28.9257 2.53476 28.7799 2.43766 28.6342 2.37292C28.1267 2.1032 27.6192 1.83348 27.1118 1.56377C26.2372 1.09445 25.314 0.62514 24.326 0.592773C23.7916 0.592773 23.1761 0.78698 22.998 1.28866C22.9332 1.48286 22.9494 1.69323 22.8684 1.88743C22.674 2.35674 22.0262 2.4053 21.5079 2.38911C19.8343 2.31359 18.1554 2.24347 16.471 2.17873C16.0985 2.16255 15.726 2.14637 15.3534 2.25965C14.9324 2.38912 14.5922 2.66423 14.2521 2.95553C12.7513 4.20703 11.2451 5.45853 9.73345 6.71003C9.23137 7.13079 8.68071 7.56774 8.01668 7.6001C7.72515 7.6001 7.41742 7.53537 7.14209 7.61628C6.72099 7.72957 6.46186 8.15033 6.17033 8.47399C5.66825 9.00804 4.97182 9.36407 4.243 9.4288C3.8543 9.46117 3.4656 9.41262 3.0769 9.47735C2.72059 9.55827 2.36428 9.7201 2.02416 9.9143C1.95938 9.94666 1.89999 9.97903 1.84601 10.0114C1.4897 10.238 1.18197 10.5293 0.955228 10.8853C0.679896 11.3384 0.534117 11.8725 0.615097 12.4065C0.744665 13.1995 1.48968 13.9115 2.29948 13.8468C2.76917 13.7983 3.19026 13.5231 3.4494 13.1347C3.54657 13.0053 3.61136 12.8596 3.74093 12.7625C3.93528 12.6331 4.21062 12.6816 4.43737 12.7625C5.05281 12.9567 5.61966 13.329 6.2675 13.4261C6.89915 13.5393 7.67657 13.2642 7.83852 12.6493C7.90331 12.3741 7.8871 12.0343 8.13004 11.9048C8.34059 11.7915 8.58353 11.9534 8.6969 12.1476C8.82647 12.3418 8.85886 12.5845 8.95603 12.7949C9.31234 13.5717 10.4623 13.7659 10.8024 14.5589C10.9319 14.834 10.9644 15.19 11.2397 15.3195C11.515 15.4489 11.8389 15.2224 11.9847 14.9473C12.1305 14.6883 12.179 14.3647 12.3248 14.1057C12.6811 13.4908 13.5719 13.1833 13.5881 12.4712C13.5881 12.1799 13.4585 11.8077 13.7177 11.6783C13.912 11.565 14.155 11.7592 14.2521 11.9534C14.3655 12.1476 14.4303 12.3903 14.6084 12.5198C14.9162 12.7302 15.3535 12.4874 15.564 12.1638C15.7584 11.8563 15.8717 11.4679 16.1632 11.2251C16.5681 10.8853 17.2646 10.8529 17.4104 10.3512C17.5237 9.89812 17.0864 9.34788 17.4104 9.00803C17.5075 8.91093 17.6533 8.86239 17.7667 8.78148C18.0744 8.58728 18.1392 8.16651 18.3011 7.82666C18.4955 7.47063 18.8842 7.17933 19.2891 7.22788C19.694 7.27643 20.0179 7.76193 19.8398 8.11796C19.7426 8.31216 19.5482 8.42544 19.4024 8.58727C18.949 9.07277 19.0947 9.93048 19.5968 10.3998C20.0989 10.8529 20.8115 10.9824 21.4917 10.95C22.2044 10.9338 22.998 10.7073 23.3381 10.0761C23.5486 9.68773 23.5648 9.20223 23.8726 8.92712C24.2451 8.58727 24.8119 8.68438 25.314 8.73293C25.7999 8.78148 26.3181 8.74911 26.723 8.49018C27.1441 8.21507 27.3709 7.64865 27.1441 7.22788C27.0632 7.06605 26.9012 6.92041 26.9174 6.72621C26.9174 6.27308 27.711 6.30545 27.9053 5.90087C28.0997 5.51247 27.6138 5.15644 27.2089 4.97842C26.8202 4.81659 26.3343 4.44438 26.5287 4.05598C26.6744 3.79705 27.0146 3.76468 27.3061 3.73232C27.6786 3.69995 28.0349 3.61903 28.375 3.48957C28.7475 3.3601 29.1524 3.02026 28.9905 2.66423Z" fill="#F1F1F1" stroke="#BABABA" stroke-width="1.18548" stroke-linecap="round" stroke-linejoin="round"/>
</svg>
