<svg width="28" height="32" viewBox="0 0 28 32" fill="none" xmlns="http://www.w3.org/2000/svg">
<path d="M26.4901 4.21779C26.2148 4.42817 25.8422 4.52528 25.5831 4.75185C25.0972 5.20498 25.1458 5.98176 25.1458 6.64527C25.1458 8.78145 24.0931 10.7558 23.1537 12.6654C22.7326 13.5069 22.3439 14.3808 22.1982 15.3033C22.101 15.9021 22.1009 16.5494 21.7608 17.0673C21.194 17.9412 19.8821 18.0221 19.1533 18.7989C18.5378 19.4624 18.4893 20.4657 18.635 21.372C18.7646 22.2621 19.0561 23.1521 18.959 24.0584C18.9266 24.4306 18.8132 24.8028 18.6998 25.1589C18.4947 25.7199 18.2463 26.2539 17.9548 26.761C17.809 27.0037 17.6471 27.2303 17.4851 27.4569C17.1936 27.8453 17.064 28.2822 16.8697 28.7192C16.7887 28.881 16.7563 29.0428 16.6915 29.1885C16.5781 29.4636 16.3838 29.7063 16.1247 29.8196C15.8655 29.9491 15.5254 29.9329 15.2986 29.7387C15.2015 29.6578 15.1367 29.5445 15.0395 29.4798C14.7642 29.2856 14.3593 29.415 14.1164 29.6578C13.8734 29.8843 13.7276 30.208 13.5171 30.4669C13.4037 30.6126 13.258 30.7421 13.0636 30.7744C12.8045 30.8068 12.5453 30.6288 12.4319 30.386C12.3185 30.1594 12.3024 29.8682 12.3348 29.6092C12.351 29.4474 12.3672 29.2694 12.3024 29.1237C12.2376 28.9781 12.108 28.881 11.9785 28.8001C11.8165 28.703 11.6383 28.6059 11.4602 28.5897C11.0229 28.5088 10.618 28.7677 10.3103 29.0752C10.0026 29.3665 9.75958 29.7387 9.43566 30.03C9.11174 30.3213 8.65829 30.5317 8.25339 30.386C7.86468 30.2727 7.62174 29.9005 7.36261 29.5768C7.18445 29.3665 6.9901 29.1723 6.71477 29.0914C6.22889 28.9457 5.72681 29.2856 5.33811 29.6092C4.80904 30.0516 4.29616 30.5047 3.79949 30.9686C3.3622 29.8034 0.592712 26.7448 0.592712 26.7448C0.819456 26.5506 1.0624 26.4212 1.32153 26.3726C1.35392 26.3726 1.38092 26.3726 1.40251 26.3726C1.49969 26.3618 1.59683 26.3726 1.69401 26.405C1.75879 26.4265 1.81819 26.4481 1.87218 26.4697C2.00175 26.5344 2.13132 26.5991 2.27708 26.6315C2.33107 26.6315 2.37964 26.6315 2.42283 26.6315C2.43363 26.6315 2.44445 26.6315 2.45525 26.6315C2.49844 26.6315 2.5416 26.6261 2.58479 26.6154C2.81153 26.5344 3.00587 26.3564 3.13544 26.1299C3.16783 26.0759 3.18941 26.022 3.2002 25.968C3.2326 25.8709 3.25425 25.7738 3.26505 25.6767C3.27585 25.5257 3.26502 25.3692 3.23263 25.2074C3.20024 25.0563 3.15708 24.9053 3.10309 24.7543C3.0491 24.5817 2.97887 24.4036 2.8925 24.2202C2.78452 23.9829 2.66039 23.7563 2.52002 23.5405C2.50922 23.519 2.49298 23.4974 2.47138 23.4758C2.3904 23.3301 2.29323 23.1683 2.22844 23.0065C2.22844 22.9849 2.22311 22.9579 2.21231 22.9256C2.14753 22.7152 2.14753 22.5048 2.29329 22.343C2.42286 22.2135 2.61716 22.1649 2.81152 22.1326C2.84391 22.1326 2.8709 22.1326 2.8925 22.1326C3.06525 22.111 3.23804 22.0894 3.4108 22.0679C3.63754 22.0355 3.88044 21.987 4.09098 21.9222C4.14497 21.9007 4.19896 21.879 4.25294 21.8575C4.31773 21.8359 4.37713 21.8143 4.43112 21.7928C4.44191 21.782 4.44733 21.7766 4.44733 21.7766C4.70646 21.6471 4.91704 21.4529 5.04661 21.1778C5.15998 20.9512 5.20851 20.6761 5.30568 20.4333C5.35427 20.3362 5.40288 20.2392 5.48386 20.1582C5.59723 20.0611 5.71063 20.0126 5.8402 19.9964C6.09933 19.9479 6.37464 20.045 6.61758 20.2068C6.71475 20.2715 6.80656 20.347 6.89294 20.4333C6.91453 20.4657 6.9307 20.4927 6.94149 20.5143C6.98468 20.5682 7.02792 20.6221 7.07111 20.6761C7.1251 20.7516 7.17908 20.8325 7.23307 20.9188C7.26546 20.9836 7.29779 21.0429 7.33018 21.0969C7.47595 21.3234 7.62171 21.5338 7.81606 21.728C8.01041 21.906 8.30196 22.0193 8.56109 22.0193C8.78784 22.0355 9.0146 21.9708 9.14417 21.7928C9.16576 21.7712 9.18192 21.7442 9.19272 21.7118C9.20352 21.6903 9.21435 21.6687 9.22515 21.6471C9.24674 21.5931 9.26832 21.5338 9.28991 21.4691C9.32231 21.3882 9.35473 21.3234 9.40332 21.2587C9.41411 21.2371 9.43028 21.2209 9.45187 21.2101C9.51666 21.1616 9.58147 21.1454 9.64626 21.1292C9.67865 21.1292 9.70564 21.1346 9.72724 21.1454C9.80822 21.1616 9.87299 21.194 9.95397 21.2263C10.008 21.2695 10.0619 21.318 10.1159 21.372C10.1591 21.4259 10.1969 21.4745 10.2293 21.5176C10.2833 21.604 10.3319 21.6902 10.3751 21.7766C10.4075 21.8413 10.4399 21.9006 10.4723 21.9546C10.5694 22.0841 10.6666 22.1973 10.8285 22.2459C10.8501 22.2567 10.8717 22.2675 10.8933 22.2782C10.9365 22.289 10.9851 22.2944 11.0391 22.2944C11.2173 22.2782 11.3954 22.1811 11.5411 22.0193C11.5627 22.0085 11.579 21.9923 11.5898 21.9707C11.6222 21.9276 11.6546 21.8845 11.687 21.8413C11.7086 21.7982 11.7301 21.755 11.7517 21.7118C11.8165 21.5662 11.8489 21.4367 11.8813 21.2911C11.8921 21.2371 11.9029 21.1832 11.9137 21.1292C11.9623 20.935 11.9947 20.7409 12.0757 20.5467C12.108 20.4711 12.1458 20.3956 12.189 20.3201C12.2322 20.2445 12.2808 20.1636 12.3348 20.0773C12.3888 19.991 12.4428 19.8993 12.4968 19.8022C12.9503 18.9607 12.8369 17.9412 12.7235 16.9864C12.7127 16.8785 12.7019 16.7706 12.6911 16.6627C12.6263 16.3552 12.5453 16.0315 12.3672 15.7726C12.2916 15.6863 12.2106 15.6 12.1242 15.5137C12.081 15.4813 12.0325 15.4489 11.9785 15.4166C11.9137 15.3626 11.8489 15.3141 11.7841 15.2709C11.7085 15.217 11.6275 15.163 11.5411 15.1091C11.444 15.0282 11.3468 14.9635 11.2659 14.8825C10.7638 14.4294 10.537 13.7335 10.5694 13.0538C10.5694 12.9999 10.5748 12.9405 10.5856 12.8758C10.5856 12.7895 10.5964 12.7086 10.618 12.6331C10.6504 12.5198 10.6828 12.4227 10.7313 12.3094C10.7529 12.2662 10.7799 12.2285 10.8123 12.1961C10.8663 12.1206 10.9257 12.0451 10.9905 11.9696C11.0877 11.8725 11.1902 11.7807 11.2982 11.6944C11.6869 11.3869 12.0918 11.128 12.27 10.6911C12.3995 10.3836 12.3672 10.0599 12.2538 9.73628C12.2214 9.64997 12.1836 9.56364 12.1404 9.47733C11.9785 9.16985 11.7518 8.87856 11.525 8.63581C11.5034 8.59266 11.4764 8.5549 11.444 8.52254C11.3792 8.4578 11.3144 8.39306 11.2496 8.34451C11.2065 8.31214 11.1686 8.28517 11.1362 8.26359C11.1038 8.2528 11.0715 8.24202 11.0391 8.23123C10.9528 8.19887 10.8664 8.18267 10.78 8.18267C10.5532 8.16649 10.3265 8.26358 10.0997 8.37686C9.98094 8.43081 9.86222 8.49557 9.74345 8.57109C9.62468 8.63583 9.50588 8.70055 9.38711 8.76529C9.33312 8.79765 9.27372 8.82999 9.20893 8.86236C9.13335 8.90552 9.05237 8.9379 8.96599 8.95948C8.9444 8.97026 8.91741 8.98105 8.88501 8.99183C8.77704 9.0242 8.67448 9.04039 8.57731 9.04039C8.44774 9.02421 8.33433 9.00801 8.22096 8.94328C8.18857 8.9217 8.15624 8.90555 8.12385 8.89476C8.09146 8.86239 8.05905 8.83001 8.02666 8.79764C7.96187 8.73291 7.9133 8.66819 7.88091 8.60345C7.81613 8.48478 7.77289 8.36611 7.75129 8.24743C7.7405 8.20428 7.73508 8.16111 7.73508 8.11796C7.73508 8.05322 7.73508 7.99387 7.73508 7.93993C7.73508 7.82125 7.74591 7.70258 7.76751 7.5839C7.7783 7.51917 7.79447 7.45982 7.81606 7.40587C7.83766 7.30877 7.85932 7.21708 7.88091 7.13077C7.95649 6.82868 8.03747 6.52121 8.12385 6.20833C8.16704 6.02492 8.21561 5.8469 8.2696 5.67428C8.40996 5.68507 8.55034 5.69585 8.69071 5.70664C8.83107 5.71743 8.97679 5.72825 9.12795 5.73904C9.40868 5.74983 9.69486 5.74983 9.98639 5.73904C10.5694 5.73904 11.1525 5.70666 11.7193 5.69048C11.8921 5.69048 12.0594 5.68507 12.2214 5.67428C12.4643 5.67428 12.7235 5.69045 12.9664 5.70664C13.042 5.71743 13.123 5.72825 13.2094 5.73904C13.2958 5.74983 13.3875 5.76598 13.4847 5.78755C13.5602 5.80913 13.6412 5.83073 13.7276 5.85231C13.8734 5.88468 14.0354 5.93321 14.1811 5.99794C14.2567 6.01952 14.3323 6.04112 14.4079 6.0627C14.4834 6.09507 14.5644 6.12204 14.6508 6.14362C14.7156 6.1544 14.775 6.17056 14.829 6.19213C14.8938 6.20292 14.9532 6.20833 15.0071 6.20833C15.0719 6.21912 15.1367 6.2299 15.2015 6.24069C15.2554 6.25148 15.3094 6.25689 15.3634 6.25689C15.4066 6.26768 15.4498 6.27305 15.493 6.27305C15.9789 6.3216 16.4486 6.41871 16.7077 6.8071C16.7563 6.9042 16.8049 7.00131 16.8535 7.09841C16.8751 7.13077 16.8966 7.15775 16.9182 7.17932C17.0478 7.35734 17.2908 7.42206 17.5175 7.40587C17.5391 7.40587 17.5607 7.4005 17.5823 7.38971C17.6147 7.38971 17.6417 7.3843 17.6633 7.37351C17.7497 7.35194 17.8306 7.31418 17.9062 7.26024C17.9386 7.23866 17.971 7.21169 18.0034 7.17932C18.0844 7.09841 18.1653 7.0013 18.2139 6.88802C18.2949 6.75855 18.3435 6.61293 18.3759 6.46728C18.3867 6.41334 18.3975 6.36476 18.4083 6.32161C18.4191 6.2353 18.4299 6.1436 18.4407 6.0465C18.4407 6.0465 18.4407 6.04109 18.4407 6.0303C18.4568 5.75519 18.4569 5.49626 18.4893 5.22114C18.5109 5.03773 18.5432 4.85975 18.5864 4.68713C18.6188 4.56845 18.6566 4.44437 18.6998 4.31491C18.9104 4.46056 19.1533 4.5253 19.3962 4.5253C19.4934 4.5253 19.5906 4.5253 19.6878 4.5253C19.6986 4.5253 19.7147 4.5253 19.7363 4.5253C19.7471 4.51451 19.758 4.5091 19.7688 4.5091C19.7796 4.5091 19.7957 4.5091 19.8173 4.5091C19.8497 4.49831 19.8767 4.48212 19.8983 4.46054C19.9307 4.42817 19.9469 4.39582 19.9631 4.34727C19.9793 4.29872 19.9793 4.25016 19.9793 4.21779C20.0549 3.38706 20.1358 2.55633 20.2222 1.7256C20.2384 1.5314 20.2546 1.32102 20.368 1.15919C20.5137 0.964987 20.7567 0.884071 20.9835 0.835521C21.1994 0.781577 21.4153 0.738414 21.6313 0.706048C21.858 0.662893 22.0794 0.635921 22.2953 0.625132C22.3169 0.625132 22.3331 0.625132 22.3439 0.625132C22.5167 0.614343 22.6894 0.603562 22.8622 0.592773C22.9594 0.592773 23.0511 0.598144 23.1375 0.608933C23.4074 0.619722 23.6828 0.641323 23.9635 0.673689C24.1255 0.695267 24.282 0.722239 24.4332 0.754605C24.7247 0.819338 25.0055 0.894844 25.2754 0.981154C25.405 1.0297 25.5507 1.07826 25.6965 1.11063C25.7505 1.12142 25.8098 1.1322 25.8746 1.14299C25.9934 1.17535 26.1068 1.18613 26.2147 1.17534H26.2309C26.3065 1.17534 26.3875 1.16456 26.4739 1.14299C26.5279 1.1322 26.5819 1.11064 26.6358 1.07827C26.7006 1.0459 26.76 0.99733 26.814 0.932597C26.922 1.38573 26.9976 1.84966 27.0407 2.32437C27.0893 3.00406 27.0246 3.79703 26.4901 4.21779Z" fill="#F1F1F1" stroke="#BABABA" stroke-width="1.18548" stroke-linecap="round" stroke-linejoin="round"/>
</svg>
