<svg width="8" height="6" viewBox="0 0 8 6" fill="none" xmlns="http://www.w3.org/2000/svg">
<path d="M6.39231 2.38911C6.27894 2.19492 6.05219 2.09781 5.92262 1.9198C5.84164 1.77415 5.80925 1.61232 5.67968 1.49904C5.5987 1.43431 5.50153 1.40194 5.42055 1.35339C5.35577 1.30484 5.29099 1.2401 5.2424 1.19155C5.03185 1.01354 4.74032 0.94881 4.46498 1.01354C4.33542 1.04591 4.20584 1.12682 4.07628 1.15919C3.94671 1.20773 3.76855 1.19156 3.68757 1.09446C3.5418 0.94881 3.57421 0.673695 3.39605 0.608963C3.34746 0.592779 3.29887 0.592773 3.25028 0.592773C2.98035 0.603562 2.70502 0.608963 2.42429 0.608963C2.35951 0.625146 2.29472 0.625138 2.21374 0.641321C2.05178 0.706054 1.9546 0.867892 1.82503 0.981174C1.66307 1.11064 1.45254 1.17537 1.27438 1.28865C1.14481 1.36956 1.01524 1.48285 0.901865 1.61231C0.707513 1.83888 0.577941 2.09781 0.594137 2.37292C0.594137 2.66422 0.756101 2.93934 0.982845 3.10117C1.12861 3.21445 1.32295 3.27918 1.50111 3.31155C1.90601 3.40865 2.31091 3.40865 2.69962 3.31155C2.95875 3.263 3.25028 3.18209 3.44463 3.37628C3.59039 3.52193 3.5742 3.78086 3.67138 3.95888C3.80094 4.21781 4.12486 4.31491 4.41639 4.36346C4.93466 4.47674 5.51772 4.55766 5.93882 4.23399C6.29513 3.97506 6.4247 3.53811 6.48948 3.10117C6.52187 2.85842 6.53807 2.58331 6.39231 2.38911Z" fill="#F1F1F1" stroke="#BABABA" stroke-width="1.18548" stroke-linecap="round" stroke-linejoin="round"/>
</svg>
