<svg width="8" height="6" viewBox="0 0 8 6" fill="none" xmlns="http://www.w3.org/2000/svg">
<path d="M0.59584 1.72561C0.628232 2.04927 0.838828 2.3244 1.04938 2.55097C1.17894 2.7128 1.32469 2.85843 1.51904 2.93935C1.94014 3.13355 2.47461 2.92316 2.8957 3.13354C3.05766 3.23064 3.18721 3.37631 3.36537 3.44104C3.62451 3.55433 3.93226 3.44103 4.20759 3.50576C4.64489 3.60286 4.90402 4.03979 5.26033 4.29872C5.811 4.68712 6.62075 4.59005 7.07424 4.08837C7.18761 3.9589 7.28483 3.79705 7.28483 3.61903C7.30103 3.3601 7.13902 3.13353 6.99326 2.92315C6.8313 2.69658 6.66935 2.47003 6.44261 2.32438C6.29685 2.22728 6.1349 2.16255 5.97294 2.08163C5.53565 1.8227 5.22793 1.35341 4.75824 1.1754C4.48291 1.06211 4.14281 1.04592 3.96465 0.803175C3.93226 0.754625 3.89985 0.689869 3.86746 0.657502C3.75409 0.560403 3.59211 0.592777 3.44635 0.625144C3.05765 0.722243 2.65278 0.722235 2.26408 0.738418C2.06972 0.738418 1.87537 0.73845 1.69722 0.770816C1.47047 0.819366 1.32471 0.916465 1.13036 1.01356C0.968396 1.0783 0.838828 1.11065 0.725456 1.24011C0.62828 1.38576 0.579644 1.56378 0.59584 1.72561Z" fill="#F1F1F1" stroke="#BABABA" stroke-width="1.18548" stroke-linecap="round" stroke-linejoin="round"/>
</svg>
