<svg width="13" height="9" viewBox="0 0 13 9" fill="none" xmlns="http://www.w3.org/2000/svg">
<path d="M4.33403 5.28231C4.54458 5.41178 4.67413 5.70306 4.56076 5.91344C4.44739 6.14 4.15585 6.20475 3.94531 6.33422C3.89672 6.36658 3.84812 6.39894 3.81573 6.44749C3.79953 6.47986 3.79956 6.5284 3.79956 6.56077C3.76717 7.0139 4.10726 7.67742 4.62553 7.62887C4.86307 7.59651 5.10064 7.55334 5.33818 7.4994C5.67829 7.41848 6.01839 7.30521 6.32611 7.14338C6.52046 7.04628 6.71482 6.9168 6.94157 6.86825C7.16831 6.83589 7.39505 6.88444 7.62179 6.85207C7.91332 6.81971 8.18866 6.62552 8.48019 6.57697C8.8041 6.51223 9.14422 6.60932 9.45195 6.54459C9.84065 6.44749 10.0998 6.14001 10.4075 5.88108C10.6667 5.6707 10.9582 5.50886 11.2335 5.33085C11.2983 5.2823 11.3631 5.23375 11.3955 5.16902C11.4279 5.10428 11.4279 5.02336 11.4117 4.94245C11.3793 4.61878 11.3469 4.30053 11.3145 3.98766C11.3145 3.89056 11.2983 3.77727 11.2335 3.69635C11.0553 3.4536 10.6181 3.56689 10.4237 3.35651C10.3751 3.29177 10.3427 3.22705 10.2941 3.1785C10.197 3.11376 10.0674 3.11376 9.95404 3.09758C9.46816 3.06521 9.01467 2.83863 8.57738 2.59589C8.17248 2.36932 7.75137 2.14277 7.39506 1.8191C7.21691 1.65727 7.05496 1.46308 6.84441 1.31743C6.03461 0.751017 4.90086 1.1394 3.97769 0.799555C3.83193 0.734822 3.68617 0.65391 3.54041 0.621544C3.26507 0.556811 2.98977 0.621544 2.71443 0.621544C2.42291 0.60536 2.06659 0.540632 1.85604 0.767196C1.79125 0.831929 1.75885 0.929016 1.67787 0.977566C1.46732 1.1394 1.11101 0.9452 0.949047 1.1394C0.949047 1.1394 0.722319 1.26887 0.722319 1.4307C0.738515 1.56017 0.770891 1.70581 0.868067 1.78673C0.965243 1.86764 1.09483 1.9162 1.2082 1.98094C1.35396 2.06185 1.4997 2.19131 1.54829 2.35314C1.59688 2.51497 1.5321 2.74155 1.35395 2.7901C1.30536 2.80628 1.2406 2.79009 1.17581 2.82245C1.11103 2.85482 1.07861 2.90338 1.03003 2.95193C0.943648 3.0706 0.857293 3.18388 0.770915 3.29177C0.689935 3.40505 0.592743 3.51834 0.592743 3.66399C0.592743 3.80964 0.689927 3.93909 0.803299 4.05237C0.916671 4.14947 1.04624 4.23039 1.12722 4.35986C1.17581 4.44077 1.22438 4.52169 1.27297 4.60261C1.46732 4.91009 1.85603 5.03956 2.21234 5.15284C2.42289 5.21757 2.64965 5.28231 2.87639 5.28231C3.11933 5.28231 3.36227 5.21756 3.60521 5.1852C3.84815 5.15283 4.12349 5.15285 4.33403 5.28231Z" fill="#F1F1F1" stroke="#BABABA" stroke-width="1.18548" stroke-linecap="round" stroke-linejoin="round"/>
</svg>
