<svg width="57" height="59" viewBox="0 0 57 59" fill="none" xmlns="http://www.w3.org/2000/svg">
<path d="M55.6974 36.1796C54.6122 36.5518 53.5433 37.3772 52.4743 37.0212C52.1828 36.9079 51.9075 36.7298 51.5998 36.6813C51.2921 36.6327 50.9033 36.8108 50.9033 37.1344C50.9033 37.2801 51.0005 37.4419 50.8547 37.6037C50.7738 37.6846 50.6442 37.7332 50.5147 37.7332C50.3041 37.717 50.1097 37.5714 49.9154 37.4743C49.5105 37.2639 49.057 37.1992 48.6035 37.183C47.7289 37.1344 46.741 37.2477 46.2065 38.0083C45.8826 38.4614 45.8826 39.0926 46.2551 39.4972C46.66 39.9665 47.1945 39.7885 47.6965 39.8532C48.2148 39.9179 48.7007 40.2254 48.9598 40.6785C49.0246 40.7918 49.057 40.9375 48.9922 41.0508C48.9436 41.1155 48.8788 41.1478 48.7979 41.164C48.2148 41.3259 47.567 41.067 46.9839 41.2288C46.2227 41.4392 45.8178 42.2969 45.8502 43.0737C45.8988 43.8504 46.2875 44.5625 46.66 45.2422C47.1891 46.2024 47.7235 47.1572 48.2634 48.1066C48.393 48.3494 48.5387 48.6083 48.5711 48.8996C48.6197 49.2233 48.5387 49.5469 48.4416 49.8706C47.8909 51.9582 47.8261 54.1268 47.6479 56.2792C47.6479 56.387 47.6426 56.5003 47.6318 56.619C47.6156 56.975 47.5508 57.3149 47.4374 57.6385C47.3726 57.8165 47.2754 57.9622 47.1459 58.0755C47.0703 57.9676 46.9947 57.8543 46.9191 57.7356C46.7895 57.5738 46.66 57.3958 46.4818 57.2825C45.8988 56.8941 45.0728 57.3634 44.4412 57.0721C44.1334 56.3439 44.7327 55.5671 45.3319 55.033C45.9312 54.499 46.6276 53.8679 46.498 53.0749C46.3685 52.1362 45.1862 51.7802 44.2306 51.8288C43.2912 51.8935 42.2547 52.1362 41.4449 51.6507C41.3315 51.586 41.2181 51.4889 41.0886 51.4727C40.5703 51.3756 40.4245 52.2172 39.971 52.5085C39.7605 52.6541 39.4852 52.6541 39.2098 52.6541C38.3461 52.6433 37.4823 52.6271 36.6185 52.6055C36.2622 52.6055 35.8896 52.5894 35.5819 52.4114C35.2742 52.2172 35.0961 51.9097 34.9179 51.6022C34.2917 50.4909 33.6654 49.3797 33.0391 48.2685C32.9582 48.1066 32.861 47.961 32.7152 47.8639C32.3913 47.6697 31.9378 47.8801 31.5977 47.7021C31.3224 47.5726 31.2252 47.2327 31.128 46.9253C30.5773 45.226 29.0712 43.6401 27.2734 43.721C27.0143 43.7372 26.7389 43.7857 26.4798 43.7857C26.2206 43.7857 25.9615 43.7372 25.7672 43.5754C25.4109 43.3002 25.3299 42.7985 25.006 42.491C24.5687 42.0703 23.856 42.1674 23.3054 42.4101C22.7547 42.6529 22.2202 43.0251 21.621 43.0575C20.0338 43.1707 19.1592 41.0993 17.653 40.5976C17.0213 40.3711 16.1791 40.3549 15.92 39.7399C15.839 39.5295 15.839 39.2544 15.6933 39.0602C15.5475 38.8822 15.3045 38.8175 15.094 38.7528C14.7215 38.6395 14.3814 38.4614 14.0737 38.2187C14.2356 37.7979 14.2194 37.3286 14.4138 36.924C14.6891 36.2929 15.3693 35.953 15.9362 35.5323C17.7502 34.2214 18.6085 31.9558 19.3535 29.8358C19.5479 29.2856 19.7423 28.7354 19.7423 28.1528C19.7423 27.7158 19.6451 27.295 19.5641 26.8743C19.2564 25.2398 19.3212 23.5405 19.7423 21.9384C19.9366 21.2101 20.1957 20.4496 19.9528 19.7375C19.5965 18.6532 18.3008 18.2325 17.5072 17.4233C16.7784 16.6627 16.4868 15.4975 16.8108 14.478C17.0861 14.0896 17.1995 13.5717 17.1347 13.1024C17.1185 12.9891 17.0861 12.8758 17.0051 12.8273C16.9403 12.7787 16.8432 12.7625 16.7622 12.7625C16.3897 12.7787 16.0171 12.8596 15.6608 12.8111C15.1588 12.714 14.6891 12.3256 14.2032 12.4712C13.8793 12.5683 13.6688 12.892 13.3448 13.0215C12.8914 13.1833 12.3731 12.9082 11.9034 13.0215C11.6766 13.0862 11.4823 13.2319 11.2555 13.3451C10.802 13.5879 10.2352 13.685 9.8627 14.0734C9.74933 14.2028 9.68454 14.3809 9.73313 14.5589C9.78172 14.7531 9.94368 14.7369 10.057 14.8016C10.1866 14.8664 10.2352 15.0444 10.3324 15.1576C10.4457 15.2709 10.5915 15.3357 10.7049 15.4166C11.1746 15.7726 11.1746 16.5332 10.8345 17.0025C10.4782 17.4718 9.89509 17.7146 9.32823 17.8441C9.11768 17.8926 8.87472 17.9411 8.66418 17.8926C8.22688 17.7955 7.91915 17.4233 7.64382 17.0834C6.86641 16.1448 5.89466 15.3033 4.69616 15.0929C4.50181 15.0606 4.30747 15.0444 4.14551 14.9635C3.7892 14.834 3.53007 14.5103 3.22235 14.2838C2.76886 13.9601 2.13721 13.8953 1.60275 14.0895C1.18165 14.1705 0.857715 14.2352 0.857715 14.2352C0.825323 14.246 0.792915 14.2514 0.760523 14.2514C0.782118 14.0248 0.803736 13.8037 0.825331 13.5879C0.841527 13.3613 0.873927 13.1509 0.954907 12.9406C1.10067 12.5522 1.44077 12.1476 1.26261 11.7754C1.14924 11.5326 0.857731 11.4193 0.711967 11.209C0.452831 10.8206 0.663355 10.3189 0.890099 9.91431C1.04126 9.6338 1.19243 9.35867 1.34359 9.08895C1.95904 9.65536 2.59068 10.2379 3.40048 10.4483C3.85397 10.5778 4.35606 10.5616 4.79335 10.7882C5.42499 11.1118 5.82988 11.9048 6.5587 11.9857C6.9474 12.0181 7.31992 11.8239 7.66003 11.6459C9.09608 10.8583 10.5375 10.0761 11.9844 9.29934C12.2759 9.12132 12.5836 8.95948 12.9237 8.87856C13.5068 8.73291 14.1546 8.86239 14.6405 9.21842C14.9482 9.44499 15.2074 9.78483 15.5961 9.86575C15.9524 9.96285 16.3573 9.80103 16.7136 9.91431C17.0537 10.0276 17.2481 10.3674 17.4748 10.6426C17.8311 11.0957 18.2846 11.5002 18.8029 11.743C19.0782 11.8563 19.3535 11.8724 19.6127 11.9857C19.888 12.099 20.131 12.2932 20.3091 12.536C20.4873 12.7949 20.5844 13.1024 20.7788 13.3451C20.9731 13.5879 21.3133 13.7821 21.5886 13.6526C21.8153 13.5555 21.9449 13.3128 22.0583 13.1024C22.5279 12.1638 23.2406 11.3384 24.099 10.7396C24.8278 10.2218 25.7672 9.73629 25.9291 8.8624C26.0425 8.24744 25.7186 7.61628 25.7509 6.98513C25.7833 6.25689 26.3016 5.62573 26.8361 5.10787C27.5001 4.49291 28.2613 3.95889 29.1521 3.7647C29.9943 3.58668 30.8851 3.71613 31.7435 3.66758C33.0553 3.58666 34.2863 3.05262 35.4848 2.53476C35.9221 2.34056 36.3917 2.14634 36.7318 1.79031C36.9748 1.54757 37.1529 1.25627 37.3473 0.981154C37.4445 0.851689 37.5417 0.722239 37.6388 0.592773C37.3959 1.75796 38.2543 3.23063 37.4607 4.18543C37.1205 4.59001 36.5537 4.75185 36.165 5.12407C35.7277 5.54483 35.5819 6.15981 35.4362 6.75859C35.2526 7.55696 35.0691 8.3553 34.8855 9.15367C34.7559 9.67153 34.9665 10.2218 35.42 10.4969C35.7439 10.6749 36.0192 10.9986 36.2136 11.306C37.0558 12.6331 37.4445 14.2514 37.3149 15.805C37.2663 16.3228 37.1691 16.8731 37.3635 17.3424C37.5254 17.7146 37.8332 17.9897 38.1571 18.2163C39.4528 19.0901 41.1696 19.3491 42.6596 18.8636C43.0807 18.7179 43.4856 18.5237 43.9229 18.5076C46.0283 18.4105 46.579 21.9222 48.6359 22.3754C49.2352 22.4886 49.8344 22.343 50.4175 22.1811L53.5109 21.3558C53.8024 21.2749 54.1263 21.2587 54.4179 21.3558C55.3086 21.6147 55.2763 22.5048 54.92 23.1036C54.677 23.5244 54.2883 23.8642 53.9968 24.2688C53.1222 25.4987 53.187 27.2465 53.9644 28.525C54.3207 29.1238 54.8228 29.6416 55.1143 30.2727C55.4058 30.9039 55.4382 31.7454 54.9361 32.2309C54.6284 32.506 54.1749 32.6517 54.2883 33.2505C54.3531 33.5579 54.5475 33.8331 54.8066 34.0273C55.4868 34.5128 55.5678 35.3381 55.6812 36.0987C55.692 36.1203 55.6974 36.1472 55.6974 36.1796Z" fill="#F1F1F1" stroke="#BABABA" stroke-width="1.18548" stroke-linecap="round" stroke-linejoin="round"/>
</svg>
