<svg width="23" height="13" viewBox="0 0 23 13" fill="none" xmlns="http://www.w3.org/2000/svg">
<path d="M21.7123 3.95144C20.5624 4.69587 19.2505 5.18138 17.8901 5.34321C17.7443 5.3594 17.6147 5.35938 17.4852 5.32701C17.388 5.29465 17.307 5.22993 17.2261 5.18138C16.2057 4.5826 14.6995 5.01955 14.1812 6.07146C13.9707 6.5084 13.9059 6.99388 13.7115 7.43083C13.5171 7.88396 13.1123 8.28855 12.6264 8.25619C12.3025 8.24 12.0109 8.01342 11.687 7.94868C11.1039 7.81922 10.5533 8.25617 10.0998 8.64457C9.92167 8.79022 9.75969 8.93588 9.67871 9.14626C9.45197 9.61558 9.77587 10.2467 9.50054 10.6837C9.40336 10.8293 9.24143 10.9426 9.07947 11.0235C8.51261 11.3472 7.86477 11.509 7.21693 11.509C7.22773 11.455 7.23852 11.4065 7.24931 11.3634C7.2817 11.0235 7.33028 10.6513 7.20072 10.3438C7.03876 9.95541 6.53669 9.68029 6.19657 10.0201C6.19657 10.0201 6.19657 10.0255 6.19657 10.0363C6.16418 9.69649 6.11559 9.37281 6.03461 9.04915C5.95363 8.75785 5.84025 8.48274 5.6135 8.28855C5.2248 7.98107 4.67417 8.06199 4.18829 8.09436C3.76719 8.12672 3.32987 8.11052 2.94116 7.94868C2.64963 7.81922 2.3905 7.60887 2.13136 7.41467C1.62389 7.00469 1.11101 6.58929 0.592743 6.16853C0.657527 6.1038 0.706139 6.0391 0.738531 5.95818C0.868099 5.63452 0.803322 5.27848 0.868106 4.93863C0.981478 4.35604 1.43494 3.90288 1.93702 3.57922C2.43909 3.25556 3.00595 3.02901 3.50802 2.70534C4.13967 2.28458 4.64174 1.702 4.96566 1.02231C5.6027 1.0331 6.24517 1.04388 6.89301 1.05467C7.52465 1.05467 8.15629 1.07083 8.78793 0.957552C9.16044 0.892819 9.53293 0.779536 9.90544 0.714804C11.5898 0.39114 13.339 0.811895 15.0558 0.828078C15.8332 0.828078 16.6106 0.730987 17.3718 0.79572C18.1492 0.844269 18.9428 1.05464 19.5259 1.55632C20.0604 2.02563 20.3843 2.72154 20.8863 3.2394C21.1293 3.49833 21.437 3.70869 21.7123 3.95144Z" fill="#F1F1F1" stroke="#BABABA" stroke-width="1.18548" stroke-linecap="round" stroke-linejoin="round"/>
</svg>
