<svg width="57" height="45" viewBox="0 0 57 45" fill="none" xmlns="http://www.w3.org/2000/svg">
<path d="M55.9344 13.2319C55.8535 13.6688 55.6429 14.0734 55.5133 14.5103C55.3838 15.0606 55.3999 15.6431 55.3999 16.2096C55.3999 17.8441 55.2542 19.4786 54.9788 21.0969C54.9302 21.372 54.8655 21.6471 54.7845 21.9222C54.6711 22.2459 54.5092 22.5696 54.4282 22.8932C54.3148 23.4435 54.3958 24.026 54.3148 24.5763C54.1367 25.8062 53.1649 26.7448 52.2903 27.6187C51.1242 28.8001 50.0391 30.0624 49.0512 31.3894L48.4843 32.2147C47.9984 32.862 47.6583 33.6065 47.5611 34.3995C47.4963 35.0306 47.6097 35.6779 47.9174 36.2282C47.0914 36.6489 46.1844 36.9079 45.2612 37.005C45.1479 37.0211 45.0183 37.0373 44.9212 37.1021C44.7592 37.2154 44.743 37.4419 44.7106 37.6523C44.5972 38.1863 44.1761 38.6395 43.6578 38.8013C42.4107 39.2059 41.2771 38.0083 40.0624 37.5228C38.4428 36.8917 36.5802 37.5552 35.1226 38.5262C34.2966 39.0764 33.4544 39.7561 32.4503 39.7561C30.5229 39.7885 28.9195 37.3772 27.1217 38.0569C26.3605 38.3482 25.6965 39.1897 24.9191 38.9469C24.579 38.8337 24.336 38.5424 24.0769 38.2834C23.008 37.1506 21.5018 36.5518 20.0441 35.9854C19.7526 35.8559 19.4448 35.7427 19.1371 35.775C18.6027 35.8236 18.1978 36.2605 17.6957 36.4224C17.1126 36.6004 16.4648 36.4062 15.8817 36.6166C15.2015 36.8431 14.829 37.5714 14.5213 38.2187C13.7924 39.7561 13.0636 41.3097 12.7235 42.9765C12.6587 43.2571 12.6156 43.5376 12.594 43.8181C12.4644 43.7426 12.3456 43.6508 12.2376 43.543C11.7193 43.0413 11.4117 42.3454 10.8934 41.8276C10.3913 41.3097 9.50052 41.0184 8.94986 41.5039C8.60974 41.8114 8.54496 42.2645 8.46398 42.7176C7.92951 42.3778 7.557 41.7466 7.5732 41.1155C7.5732 40.8404 7.5894 40.4682 7.33026 40.3872C7.23308 40.3711 7.13588 40.3873 7.0549 40.4034C6.29369 40.5491 5.45154 40.4682 4.83609 39.9989C4.22065 39.5295 3.88047 38.6557 4.20439 37.9436C4.25297 37.8627 4.30158 37.7656 4.30158 37.6685C4.31777 37.4581 4.09103 37.3124 3.89668 37.1992C3.0221 36.7137 2.24471 36.0502 1.61307 35.2734C1.51589 35.1601 1.43489 35.0468 1.3863 34.9173C1.33771 34.7879 1.32152 34.6422 1.27294 34.5128C1.20815 34.3024 1.0624 34.1405 0.965228 33.9625C0.59272 33.3476 0.608908 32.6193 0.592712 31.8749C0.72228 31.8911 0.851856 31.8749 0.965228 31.794C1.38632 31.4541 0.99762 30.5964 1.45111 30.3051C1.71024 30.1595 2.03414 30.3213 2.1961 30.564C2.35806 30.8068 2.40667 31.1143 2.50385 31.3894C2.58483 31.616 2.73059 31.8587 2.98973 31.9073C3.13549 31.9234 3.29746 31.8587 3.44322 31.7778C4.18824 31.4056 4.70651 30.8068 5.38674 30.3375C5.43533 30.3051 5.48392 30.2728 5.5487 30.2566C5.61349 30.2404 5.67822 30.2404 5.74301 30.2404C7.40579 30.208 9.06863 30.181 10.7314 30.1595C11.525 30.1433 12.3672 30.1109 13.0312 29.7063C13.7438 29.2856 14.1487 28.4926 14.3269 27.6834C14.505 26.8905 14.4888 26.0489 14.4888 25.2398C14.505 22.5048 14.8938 19.7861 15.2339 17.0673C15.2555 16.8947 15.2717 16.722 15.2825 16.5494C15.3905 16.5602 15.493 16.5602 15.5902 16.5494C15.9465 16.5494 16.3028 16.4361 16.643 16.339C17.8631 16.0046 19.0993 15.7294 20.3518 15.5137C26.1176 10.0114 38.7343 2.66422 42.3622 0.592773C42.3946 0.614351 42.4324 0.635913 42.4756 0.65749C42.7833 0.819322 43.1234 0.900262 43.4635 0.964995C44.8564 1.22393 46.2492 1.48824 47.6421 1.75796C47.9174 1.80651 48.209 1.85506 48.4033 2.04926C48.5815 2.22728 48.6462 2.50238 48.7434 2.72895C48.8243 2.92315 49.0025 3.13354 49.1807 3.31156C49.5046 3.65141 50.0067 3.78087 50.4602 3.63522C50.7679 3.53812 51.0594 3.40867 51.3509 3.2792C51.6911 3.11737 52.0312 2.9717 52.3227 2.72895C52.4847 2.59948 52.6305 2.43767 52.7762 2.30821C52.9166 2.18953 53.0677 2.08164 53.2297 1.98454C53.1973 2.86923 53.1703 3.74848 53.1487 4.62237C53.1325 4.78421 53.1325 4.92986 53.1811 5.07551C53.2459 5.28589 53.3916 5.44774 53.4726 5.65812C53.5536 5.81995 53.5698 6.01414 53.586 6.20833C53.6184 6.6291 53.6454 7.05528 53.667 7.48683C53.6832 7.79431 53.7803 8.08558 53.9585 8.34451C54.1367 8.58726 54.2986 8.7653 54.4282 8.94332C54.5577 9.12133 54.6387 9.31552 54.6549 9.57445C54.6873 10.0923 54.8169 10.4322 55.076 10.8853C55.1894 11.0957 55.3676 11.2737 55.5133 11.4679C55.902 11.9534 56.0478 12.6169 55.9344 13.2319Z" fill="#F1F1F1" stroke="#BABABA" stroke-width="1.18548" stroke-linecap="round" stroke-linejoin="round"/>
</svg>
