<svg width="6" height="4" viewBox="0 0 6 4" fill="none" xmlns="http://www.w3.org/2000/svg">
<path d="M1.88857 2.32441C2.03434 2.43769 2.21253 2.48622 2.40688 2.47004C2.60123 2.43767 2.79552 2.35676 2.98987 2.30821C3.2652 2.25966 3.55678 2.27585 3.84831 2.27585C4.01027 2.27585 4.18844 2.27583 4.3504 2.21109C4.60953 2.06544 4.72284 1.70945 4.60947 1.43433C4.60947 1.43433 4.60947 1.42892 4.60947 1.41813C4.25316 0.835537 3.84831 0.900278 3.44341 0.900278C3.13028 0.900278 2.82253 0.867896 2.5202 0.803163C2.44462 0.792374 2.37447 0.776183 2.30969 0.754605C2.22871 0.722239 2.14773 0.689896 2.06675 0.65753C1.92098 0.60898 1.77517 0.608957 1.61321 0.592773C1.2407 0.592773 0.803412 0.592797 0.641452 1.06211C0.592864 1.19158 0.592896 1.3372 0.592896 1.48285C0.592896 1.5314 0.609123 1.57997 0.625319 1.62852C0.657711 1.69325 0.706283 1.7418 0.771067 1.79035L0.787279 1.80651C0.900651 1.9198 1.04641 2.00071 1.19218 2.04926C1.41892 2.09781 1.72661 2.21112 1.88857 2.32441Z" fill="#F1F1F1" stroke="#BABABA" stroke-width="1.18548" stroke-linecap="round" stroke-linejoin="round"/>
</svg>
