<svg width="9" height="7" viewBox="0 0 9 7" fill="none" xmlns="http://www.w3.org/2000/svg">
<path d="M8.14006 3.24682C8.09147 3.11736 8.04293 2.9879 7.94576 2.8908C7.7838 2.71278 7.52466 2.68041 7.29792 2.59949C7.00639 2.50239 6.73103 2.34056 6.45569 2.19491C6.18576 2.03308 5.91583 1.87125 5.64589 1.70942C5.19241 1.4343 4.73895 1.14302 4.38264 0.770804C4.33405 0.706072 4.26925 0.657518 4.20447 0.625152C4.13968 0.592785 4.04251 0.592773 3.96153 0.592773C3.76717 0.592773 3.54041 0.592781 3.37845 0.722247C3.31367 0.770796 3.26507 0.835525 3.20028 0.900258C2.90876 1.22392 2.52007 1.46667 2.08278 1.56377C1.9856 1.59613 1.87226 1.61233 1.79128 1.66088C1.58073 1.75798 1.46736 1.98453 1.3054 2.13018C1.14344 2.29201 0.949072 2.42148 0.803308 2.58331C0.689936 2.71278 0.592712 2.87461 0.592712 3.08499C0.592712 3.41944 0.592712 3.7485 0.592712 4.07216C0.592712 4.37964 0.608924 4.68713 0.770884 4.92988C0.981432 5.22117 1.38633 5.31828 1.66166 5.54485C1.88841 5.70668 2.05037 5.94942 2.3095 6.04652C2.42288 6.09507 2.53626 6.09507 2.64964 6.11126C3.45943 6.14362 4.26925 6.01415 5.01427 5.73904C5.46775 5.5772 5.90505 5.33446 6.14799 4.92988C6.22897 4.75186 6.29375 4.57385 6.39093 4.41202C6.63387 4.07218 7.07113 3.94271 7.49222 3.94271C7.62179 3.92652 7.76755 3.94269 7.89712 3.91033C8.10767 3.8456 8.23728 3.63521 8.1887 3.42483C8.1779 3.37089 8.16166 3.31155 8.14006 3.24682Z" fill="#F1F1F1" stroke="#BABABA" stroke-width="1.18548" stroke-linecap="round" stroke-linejoin="round"/>
</svg>
