<svg width="301" height="171" viewBox="0 0 301 171" fill="none" xmlns="http://www.w3.org/2000/svg">
<path fill-rule="evenodd" clip-rule="evenodd" d="M299.749 120.041C299.765 121.352 299.7 122.663 299.538 123.973C298.534 126.304 295.991 127.793 293.497 127.631C293.157 128.505 292.218 128.958 291.327 129.201C290.436 129.443 289.464 129.557 288.703 130.075C287.586 130.835 287.116 132.308 285.982 133.052C285.156 133.586 284.12 133.651 283.132 133.667C278.5 133.78 273.868 133.586 269.284 133.036C267.648 132.858 265.98 132.615 264.344 132.826C262.709 133.052 261.073 133.78 260.134 135.14C259.793 135.642 259.55 136.224 259.129 136.693C258.271 137.648 256.862 137.842 255.663 138.36C253.607 139.234 252.149 141.095 250.788 142.875C249.72 144.278 248.651 145.675 247.582 147.067C247.663 147.407 248.165 147.213 248.408 146.986C248.748 146.695 249.055 146.339 249.379 146.031C249.703 145.707 250.027 145.384 250.351 145.06C250.999 144.424 251.647 143.782 252.295 143.134C252.619 142.821 252.942 142.503 253.266 142.18C253.574 141.872 253.866 141.565 254.19 141.273C254.319 141.16 254.433 141.031 254.562 140.917C254.702 140.799 254.843 140.691 254.983 140.594C255.286 140.399 255.604 140.238 255.939 140.108C256.991 139.736 258.239 139.72 259.065 138.959C259.291 138.749 259.47 138.49 259.696 138.279C260.538 137.454 261.818 137.325 263 137.244C263.864 137.19 264.733 137.13 265.608 137.066C266.984 136.985 268.604 137.001 269.43 138.101C269.916 138.733 269.997 139.574 269.997 140.367C269.981 140.82 269.932 141.338 269.592 141.645C269.284 141.904 268.847 141.937 268.458 142.066C268.005 142.244 267.632 142.6 267.211 142.859C266.806 143.134 266.288 143.329 265.818 143.134C265.316 142.94 265.041 142.325 264.523 142.18C264.442 142.147 264.344 142.147 264.28 142.18C264.182 142.228 264.134 142.341 264.102 142.438C263.907 143.118 263.923 143.911 264.377 144.478C264.604 144.753 264.944 144.947 265.316 144.995C266.077 145.109 266.401 144.558 266.871 144.186C267.179 143.943 267.648 143.798 267.956 144.057C268.215 144.267 268.232 144.672 268.118 144.995C268.005 145.335 267.794 145.61 267.713 145.95C267.551 146.517 267.762 147.132 267.972 147.682C268.188 148.275 268.404 148.863 268.62 149.446C268.734 149.753 268.847 150.077 269.057 150.352C269.284 150.676 269.641 150.902 269.981 151.129C270.985 151.792 272.005 152.472 273.123 152.893C274.823 153.556 276.718 153.621 278.5 153.281C278.678 153.249 278.872 153.2 278.986 153.055C279.083 152.925 279.099 152.747 279.115 152.585C279.196 151.452 279.763 150.352 280.638 149.624C280.929 149.381 281.253 149.187 281.48 148.896C281.917 148.345 282.031 147.52 282.84 147.374C283.44 146.711 283.796 147.601 283.763 148.184L283.618 149.85C283.602 150.109 283.715 150.368 283.958 150.482C284.525 150.757 284.816 149.85 285.383 150.142C285.626 150.255 285.739 150.53 285.691 150.805C285.561 151.533 285.27 152.229 284.849 152.828C284.687 153.087 284.476 153.33 284.217 153.492C283.925 153.653 283.585 153.718 283.261 153.783C281.998 154.058 280.832 154.673 279.876 155.531C279.342 156.016 278.888 156.583 278.273 156.955C277.852 157.214 277.366 157.359 276.896 157.505C276.006 157.78 275.099 158.055 274.159 158.12C273.447 158.185 272.734 158.12 272.054 158.233C270.693 158.46 269.56 159.366 268.474 160.224C267.535 161.001 266.515 161.842 266.272 163.056C266.239 163.234 266.158 163.412 266.013 163.525C265.64 163.833 265.235 163.477 264.96 163.169C264.463 162.597 263.961 162.031 263.454 161.47C263.016 160.968 262.547 160.386 262.595 159.722C262.644 159.075 263.162 158.573 263.729 158.249C264.296 157.942 264.928 157.748 265.462 157.392C265.835 157.133 266.142 156.809 266.515 156.599C267.81 155.854 269.43 156.469 270.888 156.324C271.374 156.275 271.876 156.129 272.135 155.676C272.281 155.45 272.297 155.142 272.151 154.916C271.762 154.285 270.774 154.689 270.353 155.158C270.126 155.401 269.867 155.579 269.576 155.692C268.41 156.113 268.102 154.819 267.276 154.463C266.774 154.252 266.191 154.446 265.721 154.738C265.268 155.045 264.879 155.45 264.409 155.725C263.324 156.388 261.899 156.324 260.814 156.987C260.263 157.327 259.81 157.845 259.291 158.217C259.178 156.89 258.498 155.628 257.429 154.835C257.089 154.592 256.7 154.365 256.506 153.993C256.344 153.67 256.36 153.281 256.376 152.925C256.419 151.965 256.457 151.005 256.489 150.045C256.538 149.138 256.57 148.184 256.133 147.391C255.696 146.598 254.611 146.096 253.849 146.581C253.461 146.84 253.121 147.326 252.683 147.213C252.295 147.099 252.181 146.598 251.841 146.403C251.388 146.128 250.837 146.533 250.497 146.937C249.962 147.552 249.525 148.264 249.217 149.025C249.023 149.478 248.861 149.98 248.537 150.352C248.1 150.87 247.387 151.145 247.063 151.744C246.739 152.31 246.869 153.038 246.691 153.67C246.383 154.851 245.185 155.514 244.083 156.065C243.565 156.324 243.014 156.583 242.448 156.712C241.848 156.842 241.249 156.825 240.65 156.809C238.425 156.755 236.196 156.701 233.961 156.647C233.264 156.631 232.568 156.615 231.888 156.777C230.786 157.068 229.863 157.829 228.989 158.573C228.33 159.134 227.671 159.695 227.013 160.256C226.883 160.062 226.705 159.916 226.478 159.884C226.106 159.835 225.749 160.094 225.523 160.386C225.28 160.677 225.102 161.017 224.81 161.26C224.033 161.923 222.867 161.551 221.862 161.373C219.773 160.968 217.522 161.583 215.918 162.975C215.724 163.137 215.53 163.315 215.416 163.558C215.271 163.881 215.303 164.27 215.206 164.626C214.963 165.532 213.975 165.985 213.117 166.325C212.291 166.665 211.448 166.988 210.558 167.037C209.877 167.085 209.197 166.956 208.517 167.069C208.193 167.118 207.885 167.231 207.61 167.441C207.383 167.636 207.27 167.895 207.108 168.137C207.021 168.278 206.919 168.412 206.8 168.542C206.363 169.092 205.731 169.562 205.067 169.642C204.484 169.707 203.771 169.61 203.383 169.966C203.026 169.464 202.897 168.623 204.241 167.409C205.181 166.568 205.715 165.661 206.023 164.885C206.12 164.885 206.217 164.868 206.33 164.836C207.74 164.399 208.63 162.716 208.177 161.308C207.966 160.693 207.578 159.981 207.982 159.479C208.128 159.285 208.355 159.172 208.549 159.026C209.181 158.541 209.294 157.489 208.76 156.874C208.452 156.518 207.901 156.097 208.144 155.676C208.274 155.45 208.598 155.385 208.841 155.482C209.1 155.563 209.294 155.757 209.489 155.951C210.428 156.858 211.497 157.651 212.647 158.282C212.841 158.395 213.052 158.492 213.262 158.492C213.894 158.492 214.185 157.715 214.153 157.084C214.153 156.777 214.105 156.453 213.959 156.178C213.829 155.968 213.667 155.806 213.489 155.628C212.895 155.024 212.296 154.425 211.691 153.831C211.157 153.297 210.558 152.731 209.796 152.699C209.586 152.699 209.359 152.731 209.165 152.65C208.857 152.537 208.679 152.197 208.404 152.003C208.144 151.841 207.837 151.841 207.529 151.825C205.845 151.792 204.16 151.76 202.476 151.728C202.184 151.711 201.893 151.711 201.617 151.809C201.542 151.841 201.466 151.873 201.391 151.906C201.261 151.819 201.115 151.749 200.953 151.695C200.548 151.582 200.079 151.598 199.771 151.323C199.496 151.096 199.399 150.708 199.188 150.417C198.977 150.109 198.621 149.915 198.281 149.721C198.259 149.71 198.238 149.699 198.216 149.689C198.216 149.689 198.216 149.683 198.216 149.672C198.168 149.025 197.39 148.653 197.277 148.022C197.196 147.585 197.455 147.132 197.358 146.695C197.244 146.177 196.678 145.885 196.402 145.432C196.273 145.206 196.208 144.947 196.095 144.704C195.965 144.461 195.738 144.251 195.479 144.251C195.204 144.251 194.993 144.494 194.734 144.591C194.167 144.801 193.568 144.364 193.212 143.879C192.515 142.94 192.175 141.726 191.317 140.917C190.151 139.833 188.385 139.817 186.782 139.865C186.539 139.882 186.28 139.882 186.053 139.979C185.664 140.157 185.438 140.529 185.13 140.804C184.304 141.5 182.976 141.306 182.134 142.002C181.729 142.325 181.502 142.794 181.162 143.183C181 143.377 180.806 143.555 180.595 143.717C179.996 143.733 179.396 143.685 178.846 143.442C178.506 143.296 178.198 143.086 177.842 143.021C177.404 142.94 176.919 143.102 176.497 142.94C176.368 142.892 176.254 142.827 176.125 142.778C175.833 142.665 175.477 142.714 175.218 142.924C175.072 143.021 174.975 143.183 174.829 143.28C174.505 143.539 174.019 143.539 173.631 143.393C173.242 143.231 172.918 142.94 172.61 142.649C172.481 142.519 172.319 142.374 172.124 142.325C172.027 142.293 171.914 142.293 171.817 142.293C171.056 142.341 170.003 141.937 170.003 141.937C169.679 141.807 169.387 141.629 169.128 141.403C168.999 141.289 168.885 141.16 168.74 141.079C168.351 140.836 167.833 140.869 167.411 141.063C167.185 141.16 166.974 141.306 166.731 141.403C166.505 141.484 166.245 141.532 166.019 141.435C165.759 141.306 165.598 141.031 165.338 140.917C165.014 140.772 164.658 140.917 164.302 140.933C163.929 140.966 163.524 140.82 163.249 140.561C162.99 140.318 162.828 139.995 162.666 139.671C162.407 139.153 162.153 138.635 161.905 138.118C161.84 137.972 161.759 137.826 161.646 137.729C161.532 137.616 161.37 137.551 161.225 137.6C160.949 137.681 160.868 138.037 160.852 138.328C160.82 138.797 160.496 139.121 160.253 139.299C160.107 139.412 159.913 139.477 159.735 139.477H64.3564C63.9191 138.943 63.4656 138.409 63.3036 137.745C63.255 137.535 63.2226 137.308 63.0769 137.163C62.9149 137.017 62.6882 136.985 62.4776 137.033C62.2671 137.066 62.0727 137.163 61.8784 137.211C61.1496 137.438 60.356 137.211 59.7243 136.791C59.0927 136.37 58.5906 135.787 58.1047 135.205C57.5217 134.514 56.9386 133.818 56.3555 133.117C56.2098 132.939 55.9992 132.729 55.7563 132.777C55.5943 132.809 55.4648 132.955 55.4324 133.133C55.3838 133.295 55.4324 133.473 55.5134 133.635C55.6105 133.878 55.7725 134.088 55.9345 134.298C56.4041 134.865 56.8414 135.464 57.2949 136.046C57.3921 136.165 57.4839 136.278 57.5702 136.386C57.9104 136.758 58.2829 137.066 58.7849 137.244C59.1413 137.357 59.5138 137.422 59.8215 137.6C60.0806 137.762 60.275 137.988 60.4693 138.215C61.3763 139.294 62.2671 140.389 63.1417 141.5C63.1525 141.608 63.1579 141.716 63.1579 141.824C63.1741 141.921 63.1741 142.018 63.1417 142.099C63.0931 142.196 62.9959 142.277 62.8987 142.341C62.3643 142.665 61.7002 142.616 61.0686 142.568C60.6799 142.536 60.3074 142.503 59.9349 142.374C59.6919 142.293 59.4652 142.18 59.2384 142.066C58.8335 141.872 58.4124 141.726 57.9751 141.629C57.7646 141.597 57.5703 141.565 57.3597 141.548C57.2625 141.419 57.1654 141.306 57.052 141.192C56.5985 140.707 56.145 140.221 55.5296 139.995C55.1732 139.849 54.7521 139.801 54.5092 139.509C54.2825 139.25 54.2501 138.894 54.1043 138.587C53.7318 137.859 52.8086 137.713 52.096 137.341C50.8165 136.661 50.1687 135.124 48.6786 134.703C48.4519 134.509 48.1928 134.363 47.8851 134.314C47.7069 134.282 47.5287 134.282 47.3668 134.217C47.1724 134.153 47.0267 134.007 46.8809 133.861C46.3626 133.311 45.8605 132.729 45.4071 132.114C45.1155 131.741 44.824 131.224 45.2289 130.803C45.4233 130.609 45.7148 130.528 46.0063 130.544C46.5246 130.592 47.0914 130.592 47.5773 130.803C48.047 131.013 48.4195 131.434 48.9054 131.596C49.6018 131.855 50.444 131.563 51.1243 131.887C51.2862 131.968 51.4482 132.081 51.6263 132.114C51.8207 132.146 52.0474 132.033 52.0474 131.838C52.0474 131.725 51.9502 131.628 51.8693 131.547C51.2862 131.013 50.5412 130.673 49.7476 130.576C49.3265 130.528 48.9054 130.56 48.4843 130.447C48.0794 130.35 47.6583 130.091 47.5449 129.686C47.4315 129.314 47.5773 128.893 47.3992 128.553C47.3344 128.424 47.221 128.327 47.1238 128.23C46.6865 127.825 46.2331 127.404 45.9901 126.87C45.7634 126.32 45.812 125.592 46.2978 125.252C46.4112 125.155 46.557 125.09 46.638 124.961C46.7675 124.766 46.6865 124.491 46.5408 124.313C46.3788 124.135 46.1521 124.038 45.9577 123.909C45.5366 123.666 45.1803 123.31 44.9374 122.905C44.7754 122.663 44.6297 122.371 44.3381 122.29C44.0304 122.209 43.7227 122.452 43.4312 122.598C42.9291 122.841 42.1679 122.76 41.9735 122.226C41.8601 121.902 41.9897 121.546 42.0707 121.19C42.1679 120.818 42.184 120.413 42.1193 120.009C42.0707 119.701 41.9735 119.394 41.7306 119.183C41.5038 118.989 41.1151 118.94 40.8884 119.151C40.8074 119.232 40.7588 119.345 40.6778 119.426C40.3215 119.879 39.5765 119.733 39.1392 119.345C38.7181 118.973 38.459 118.439 38.0379 118.05C37.7464 117.484 37.1633 116.885 37.1471 116.157C37.1309 115.671 37.5034 115.137 37.9893 115.186C38.1836 115.202 38.4428 115.283 38.54 115.121C38.5885 115.057 38.5886 114.976 38.5724 114.895C38.4914 114.296 37.7949 113.908 37.7787 113.309C37.7626 113.082 37.8597 112.856 37.8921 112.629C37.9407 112.402 37.9083 112.127 37.7302 111.998C37.5358 111.852 37.2767 111.917 37.0499 111.933C36.9959 111.933 36.942 111.933 36.888 111.933C37.4062 111.593 38.1836 111.108 38.54 110.606C38.7667 110.266 38.9611 109.91 39.0582 109.506C39.2202 108.81 39.4631 108.017 39.4631 107.256C39.4631 106.916 39.3498 106.577 39.1554 106.301C38.9287 106.01 38.6209 105.8 38.3294 105.589C37.9245 105.314 37.5196 105.039 37.0823 104.796C36.6288 104.554 36.1267 104.343 35.6409 104.149C34.8473 103.842 34.0537 103.534 33.3572 103.049C32.6608 102.563 32.0616 101.867 31.851 101.042C31.8024 100.799 31.77 100.556 31.6891 100.314C31.5919 100.022 31.4137 99.7634 31.2518 99.5044C31.1222 99.2779 30.9872 99.0567 30.8469 98.8409C30.4905 98.2745 30.1342 97.6919 29.7617 97.1093C29.4594 96.667 29.1463 96.2247 28.8224 95.7823C28.4229 95.2429 28.0018 94.7142 27.5591 94.1964C27.1542 93.7109 26.7817 93.1606 26.3444 92.7075C26.0043 92.3677 25.6156 92.1087 25.1783 91.9307C24.8867 91.8012 24.5466 91.7203 24.3199 91.4776C24.1741 91.3319 24.0931 91.1216 23.9474 90.9759C23.7692 90.7817 23.5425 90.6846 23.3319 90.539C22.2954 89.8269 22.0686 88.3704 21.2102 87.448C21.0483 87.27 20.8701 87.1243 20.6596 87.0596C20.3518 86.9463 20.0117 87.0272 19.704 87.1081C19.2181 87.2376 18.7323 87.394 18.2464 87.5774C17.5662 87.8364 16.8211 88.2895 16.7402 89.0177C16.7402 89.0717 16.7402 89.1256 16.7402 89.1796C16.7402 89.6651 16.3514 90.1829 15.8818 90.3286C15.4931 90.4419 15.0558 90.4904 14.7318 90.7494C14.4241 91.0083 14.1326 91.4614 13.7601 91.2348C13.6629 91.1701 13.5981 91.073 13.5495 90.9597C12.7397 88.7588 10.5209 87.5127 8.51258 86.3313C8.18866 86.1371 7.84855 85.9429 7.60561 85.6516C7.36267 85.3765 7.21691 84.9881 7.31409 84.6159C7.34648 84.4379 7.44364 84.1951 7.29788 84.0657C7.23309 84.0171 7.13592 84.0171 7.05494 84.0009C6.32612 83.9686 5.56491 83.9362 4.91708 84.2437C4.65794 84.3732 4.41499 84.535 4.13966 84.5512C3.65378 84.5674 3.13551 84.098 2.74681 84.3893C2.63344 84.4703 2.56866 84.5997 2.47148 84.6806C2.27713 84.8263 1.98559 84.7939 1.79124 84.6645C1.58069 84.5188 1.45114 84.3246 1.32157 84.1142L0.770905 83.4669C0.657533 83.3213 0.592743 83.1432 0.592743 82.949V30.467C2.84399 31.0981 5.25719 31.0334 7.34647 30.0138C7.49224 29.9329 7.68659 29.9329 7.81616 30.0462C8.04291 30.208 7.94573 30.4346 7.89714 30.645C7.73518 31.535 8.67454 32.1985 9.48434 32.6193C11.6222 33.7198 13.8087 34.8364 16.2057 35.1115C17.4528 35.241 18.8294 35.1763 19.8012 35.9854C20.1899 35.7427 20.0279 35.1439 19.7364 34.804C19.3477 34.3671 18.7646 34.0111 19.0076 33.299C19.121 32.9915 19.3477 32.765 19.6392 32.6193C21.1941 31.8317 22.7435 31.0441 24.2875 30.2566C24.498 30.1595 24.741 30.0947 24.9677 30.1271C26.0205 30.3051 25.5993 31.9558 26.7331 32.1662C26.9598 32.1986 27.2028 32.1662 27.4133 32.0691C28.045 31.7778 28.3851 31.1628 28.8548 30.7259C30.1019 29.5769 31.9806 29.6254 33.584 29.1561C35.8028 28.525 37.8273 26.8257 40.0786 27.1818C40.2405 27.1979 40.4025 27.2465 40.4997 27.3598C40.613 27.4731 40.6292 27.6349 40.613 27.7805C40.5321 28.4764 39.8032 28.8486 39.1554 29.1076C37.4494 29.7873 35.7435 30.4723 34.0375 31.1628C33.8107 31.2437 33.5678 31.3732 33.584 31.6483C33.6164 31.8749 33.8107 32.0367 34.0375 32.0529C34.9445 32.1176 35.9324 32.2309 36.7422 31.8101C37.2119 31.5674 37.5682 31.1952 37.9569 30.8554C39.0096 29.9329 40.3539 29.3503 41.7468 29.1885C42.0869 29.9167 43.253 29.6416 43.7713 29.0266C44.3543 28.347 44.6782 27.3598 45.6014 27.1008C45.7796 27.0523 45.9577 26.939 46.0549 26.7772C46.4436 26.0813 45.0345 25.7091 45.2613 24.8838C45.3585 24.5439 45.6986 24.3335 46.0549 24.3173C46.6056 24.2688 47.0752 24.6248 47.5125 24.9647C48.3547 25.6282 49.1969 26.2917 49.8124 27.1656C50.3954 27.9747 50.7355 28.9134 51.2214 29.7872C51.7235 30.645 52.4199 31.4703 53.3755 31.7292C54.331 31.9882 55.5457 31.4541 55.7077 30.4831C55.8373 29.7063 55.3676 28.7192 55.983 28.2175C55.983 28.2175 56.2584 27.9909 56.5499 27.7482C56.5985 27.7644 56.6471 27.7805 56.6471 27.7805C57.1977 27.9747 57.8456 27.8938 58.3315 27.554C58.4772 27.4407 58.6392 27.2951 58.8659 27.376C59.0279 27.4407 59.1574 27.5863 59.206 27.7482C59.3194 28.088 59.1737 28.444 59.1737 28.8001C59.1737 29.415 59.6433 30.0138 60.2426 30.1595C60.356 30.5802 59.7729 30.8068 59.6109 31.1952C59.4814 31.5189 59.6595 31.9072 59.9511 32.1176C60.2264 32.328 60.5989 32.3927 60.939 32.4575C61.1334 32.4898 61.3439 32.5222 61.5221 32.4575C62.1213 32.2309 61.9594 31.2599 62.4614 30.8715C62.6882 30.6935 63.0121 30.6611 63.2388 30.4831C63.498 30.2728 63.579 29.9329 63.7571 29.6578C64.243 28.9296 65.2957 28.9457 66.1541 29.059C67.7413 29.2532 69.3177 29.4852 70.8834 29.7549C71.0453 29.7873 71.2073 29.8196 71.353 29.9005C71.5636 29.9976 71.7094 30.1918 71.8551 30.3537C73.3128 32.0043 75.7098 32.3927 77.8962 32.5222C78.2525 32.5384 78.6088 32.5546 78.9166 32.7164C79.1919 32.8459 79.4186 33.0725 79.6454 33.2828C80.8439 34.3024 82.4635 34.6422 84.0183 34.9335C84.5528 35.0306 85.1034 35.1439 85.6541 35.063C86.5287 34.9335 87.3061 34.3671 88.1807 34.2376C89.2982 34.0758 90.3833 34.626 91.3551 35.1924C92.3268 35.7535 93.2824 36.3468 94.2218 36.9726C94.8696 37.4095 95.5984 38.073 95.4041 38.8337C94.5619 39.0764 93.6387 39.0602 92.7803 39.303C91.922 39.5619 91.0636 40.2254 91.0474 41.1155C91.9544 41.3906 92.8937 41.5363 93.8493 41.5363C95.0154 42.2483 96.4082 42.6043 97.7849 42.572C99.5503 42.5234 101.267 41.8114 103.049 41.8923C103.891 41.9408 104.863 42.1027 105.429 41.5039C105.656 41.2773 105.77 40.9537 106.029 40.7756C106.482 40.4358 107.146 40.6947 107.681 40.4844C108.005 40.3549 108.248 40.0636 108.523 39.8532C108.798 39.6428 109.203 39.4972 109.495 39.6914C110.061 40.0798 109.559 41.2126 110.142 41.5524C110.402 41.7143 110.725 41.6172 111.017 41.6657C111.309 41.6981 111.584 41.8761 111.843 42.0541C112.88 42.75 114.143 43.4782 115.309 43.0089C115.228 43.6563 116.281 43.8181 116.572 44.4007C116.783 44.8214 116.524 45.3231 116.556 45.7924C116.572 46.2941 116.961 46.7634 117.447 46.8929C117.56 46.9253 117.706 46.9253 117.787 46.8443C117.868 46.7634 117.868 46.6178 117.836 46.4883C117.625 45.2908 117.155 44.1256 116.491 43.106C116.086 42.5072 115.6 41.8437 115.957 41.1155C116.07 40.8727 116.265 40.6785 116.507 40.5329C117.495 39.9341 118.743 40.3387 119.747 39.8856C120.783 39.4163 121.382 38.1378 122.63 38.154C122.889 38.154 123.164 38.073 123.326 37.8788C123.763 37.3933 123.164 36.8755 122.678 36.9402C122.257 36.9888 121.917 37.2801 121.577 37.539C120.686 38.2025 119.585 38.6071 118.467 38.688C118.127 38.7204 117.755 38.7042 117.431 38.8175C116.961 38.9631 116.572 39.303 116.103 39.4486C115.374 39.7076 114.548 39.4648 113.803 39.303C113.641 39.2544 113.495 39.1897 113.365 39.0764C112.928 38.6233 113.284 38.1054 113.673 37.8303C113.997 37.6037 114.386 37.4095 114.548 37.0697C114.645 36.8755 114.677 36.6489 114.791 36.4709C115.131 35.9369 115.941 36.1473 116.572 36.2282C117.576 36.3738 118.597 35.9854 119.52 35.5647C120.459 35.1439 121.399 34.6584 122.435 34.5937C123.456 34.5289 124.589 35.0144 124.946 35.9692C125.221 36.7137 125.043 37.7008 125.674 38.154C126.063 38.4291 126.581 38.3805 127.035 38.5262C127.877 38.8175 128.347 39.8047 129.189 40.1121C129.869 40.3549 130.614 40.0959 131.311 39.9665C131.991 39.837 132.833 39.8856 133.222 40.4358C133.643 40.7433 133.983 40.9698 133.983 40.9698C134.744 41.4877 135.603 41.8599 136.526 42.0379C137.157 42.1512 137.821 42.1836 138.485 42.1189C138.728 42.1027 138.988 42.0541 139.214 41.957C139.587 41.7952 139.911 41.4877 140.316 41.3906C140.591 41.3259 140.866 41.3744 141.142 41.3744C142.097 41.3744 143.02 40.7433 143.943 40.986C144.478 41.1317 144.915 41.5362 145.466 41.601C145.725 41.6333 145.984 41.5848 146.243 41.6657C146.648 41.779 146.988 42.2321 147.409 42.1512C147.75 42.0703 147.911 41.6981 148.203 41.5039C148.349 41.423 148.511 41.3744 148.624 41.245C148.673 41.164 148.705 41.0508 148.721 40.9537L149.11 39.3515C149.142 39.2382 149.175 39.125 149.126 39.0117C149.045 38.8175 148.802 38.7851 148.657 38.6395C148.43 38.3967 148.592 37.9598 148.883 37.7817C149.175 37.6199 149.531 37.6685 149.871 37.717C150.13 37.7656 150.406 37.8141 150.649 37.6847C150.778 37.6199 150.892 37.4905 150.892 37.3286C150.908 37.1021 150.713 36.9726 150.535 36.8593C149.963 36.5141 149.391 36.1634 148.818 35.8074C148.495 35.6294 148.171 35.4352 147.814 35.3704C147.215 35.2733 146.6 35.5323 146.049 35.3381C145.612 35.1763 145.304 34.7393 145.304 34.2862C145.304 33.8331 145.612 33.3961 146.049 33.2343C146.47 33.0886 146.956 33.2019 147.393 33.1048C147.863 33.0077 148.252 32.6517 148.511 32.2471C148.98 31.535 149.094 30.6773 149.58 29.9815C150.001 29.3341 150.632 28.8486 151.442 28.8163C151.653 28.8163 151.863 28.8486 152.041 28.9457C152.479 29.2047 152.576 29.8196 152.965 30.1271C153.289 30.3537 153.726 30.3698 154.034 30.5964C154.115 30.645 154.196 30.7259 154.293 30.7744C154.471 30.8877 154.698 30.8715 154.908 30.8554C156.107 30.7583 157.321 30.8068 158.536 30.8392C158.811 30.8392 159.103 30.8554 159.378 30.9363C159.702 31.0334 159.978 31.2438 160.188 31.5027C160.285 31.6321 160.366 31.7778 160.35 31.9396C160.318 32.15 160.123 32.2957 159.929 32.3442C159.103 32.5708 158.261 31.713 157.451 31.972C157.37 32.0043 157.289 32.0367 157.24 32.1015C157.143 32.2147 157.159 32.3927 157.24 32.5222C157.321 32.6517 157.451 32.7326 157.581 32.8135C157.985 33.0563 158.423 33.2343 158.86 33.3475C159.071 33.3961 159.297 33.4447 159.475 33.5579C159.718 33.7198 159.864 34.0111 160.107 34.1891C160.285 34.3186 160.528 34.3833 160.706 34.5451C161.014 34.804 161.046 35.2734 161.046 35.6779C161.046 36.212 161.014 36.8269 160.609 37.1992C160.463 37.3286 160.285 37.4095 160.091 37.4905C159.038 37.8789 157.888 37.7979 156.771 37.717C156.236 37.6846 155.702 37.6361 155.216 37.4581C154.957 37.361 154.714 37.2315 154.438 37.1992C154.179 37.1506 153.855 37.2477 153.742 37.4905C153.612 37.7656 153.774 38.0892 154.001 38.2996C154.212 38.4938 154.503 38.6233 154.73 38.8175C155.005 39.0764 155.2 39.4648 155.572 39.5619C155.88 39.659 156.204 39.4972 156.463 39.3192C156.819 39.0926 157.143 38.8175 157.597 38.8984C157.791 38.9308 157.969 39.0764 158.018 39.2868C158.083 39.6428 157.726 39.837 157.5 40.0798C157.078 40.4844 157.095 41.0669 157.046 41.601C157.03 41.779 157.014 41.957 156.949 42.135C156.884 42.313 156.787 42.4749 156.755 42.6529C156.657 43.0575 156.868 43.4782 157.062 43.8504C157.127 43.9637 157.192 44.077 157.305 44.1418C157.451 44.2227 157.661 44.2065 157.775 44.3198C157.84 44.4007 157.872 44.5301 157.985 44.5463C158.099 44.5787 158.18 44.433 158.261 44.3521C158.487 44.1741 158.828 44.2874 159.038 44.4978C159.232 44.7082 159.33 44.9833 159.524 45.1937C159.702 45.4202 160.042 45.5659 160.269 45.404C160.431 45.2907 160.496 45.0804 160.463 44.8862C160.431 44.7082 160.334 44.5301 160.22 44.3845C159.994 44.0285 159.735 43.7048 159.524 43.3488C159.152 42.75 158.925 42.0541 158.86 41.3582C158.811 40.9375 158.844 40.5005 159.071 40.1607C159.281 39.8532 159.637 39.6914 159.994 39.6266C160.366 39.5781 160.723 39.6266 161.079 39.7237C161.37 39.8046 161.678 39.9179 161.97 39.8856C162.407 39.837 162.747 39.5134 163.006 39.1897C163.265 38.8499 163.508 38.4776 163.865 38.2349C164.205 37.9921 164.642 37.9112 165.014 37.7008C165.776 37.2315 166.067 36.2605 166.132 35.3704C166.148 35.2086 166.164 35.0306 166.083 34.885C166.002 34.7393 165.824 34.6422 165.678 34.7069C165.549 34.7717 165.5 34.9173 165.468 35.063C165.382 35.3327 165.284 35.597 165.176 35.8559C165.095 36.034 165.014 36.1958 164.853 36.3091C164.707 36.4062 164.529 36.4386 164.334 36.4386C164.01 36.4709 163.67 36.4547 163.362 36.3414C163.055 36.2282 162.779 36.0016 162.666 35.6941C162.488 35.1439 162.877 34.5775 163.265 34.1244C163.508 33.8492 163.767 33.5579 163.913 33.2019C164.059 32.8135 163.962 32.4575 163.848 32.0691C163.573 31.1467 162.617 30.4346 161.646 30.4022C161.403 30.4022 161.16 30.4184 160.917 30.3699C160.561 30.2889 160.253 30.03 159.897 29.8844C159.573 29.7549 159.184 29.7387 158.86 29.6092C158.471 29.4474 158.18 29.1561 157.856 28.8972C157.224 28.3955 156.495 28.0071 155.993 27.376C155.491 26.7448 155.329 25.7091 155.929 25.175C156.204 24.9485 156.56 24.8352 156.755 24.5115C156.835 24.3659 156.852 24.2041 156.771 24.0584C156.674 23.848 156.479 23.8642 156.301 23.8157C155.848 23.7186 155.572 23.2331 155.556 22.7799C155.54 22.3268 155.718 21.8737 155.88 21.4529C156.031 21.0969 156.177 20.7462 156.317 20.401C156.463 20.045 156.625 19.6728 156.9 19.3976C157.159 19.1387 157.597 18.9931 157.937 19.1549C158.115 19.2196 158.228 19.3491 158.39 19.4462C158.633 19.608 158.941 19.6728 159.232 19.6242C159.313 19.608 159.411 19.5757 159.443 19.4947C159.524 19.3976 159.459 19.252 159.394 19.1549C159.216 18.9283 158.973 18.7989 158.779 18.6047C158.585 18.4267 158.439 18.1354 158.536 17.8764C158.585 17.7793 158.649 17.6984 158.73 17.6175C159.087 17.2776 159.459 16.9702 159.767 16.5818C159.961 16.3552 160.107 16.0801 160.204 15.7888C160.285 15.5137 160.253 15.2386 160.301 14.9473C160.366 14.3323 160.528 13.7173 160.463 13.0862C160.399 12.3256 160.091 11.5812 159.573 10.9986C159.006 10.3674 158.147 9.73627 158.342 8.91093C158.39 8.63581 158.552 8.40925 158.666 8.16651C158.795 7.85903 158.828 7.51918 158.844 7.19551C158.892 6.24071 158.811 5.25354 158.568 4.3311C158.52 4.12072 158.552 3.89414 158.682 3.7485C158.941 3.4572 159.249 3.68376 159.524 3.63521C159.88 3.58666 160.058 3.1659 160.091 2.80987C160.123 2.45384 160.107 2.04926 160.334 1.77414C160.723 1.28865 161.5 1.51522 162.099 1.35339C162.391 1.27247 162.65 1.09445 162.925 0.964985C163.557 0.689871 164.269 0.673693 164.95 0.65751C166.105 0.635933 167.26 0.614351 168.416 0.592773C168.61 0.592773 168.837 0.592773 169.031 0.673689C169.468 0.884071 169.598 1.48285 170.003 1.77414C170.246 1.95216 170.553 2.00072 170.845 2.03308C171.574 2.09781 172.303 2.09781 173.031 2.01689C174.165 1.88743 175.331 1.56377 176.384 2.19491C176.838 2.45384 177.161 2.90697 177.178 3.42483C177.21 4.26636 176.562 4.65476 175.995 5.07552C174.635 6.04651 173.566 7.42207 172.983 8.99185C172.837 9.34787 172.724 9.70391 172.513 10.0114C171.898 10.9338 170.602 11.1118 169.517 10.9176C168.432 10.7235 167.411 10.2218 166.31 10.0923C166.083 10.0599 165.84 10.0599 165.662 10.3512C165.565 10.5293 165.549 10.7396 165.598 10.9338C165.727 11.3384 166.067 11.6135 166.326 11.921C166.569 12.1961 166.78 12.5845 166.666 12.9405C166.472 13.5231 165.646 13.5555 165.209 13.9763C164.95 14.219 164.836 14.575 164.577 14.8178C164.318 15.0605 163.946 15.1576 163.622 15.3033C163.184 15.5137 162.747 15.9344 163.087 16.4847C163.184 16.6303 163.298 16.7436 163.443 16.8245C163.816 17.0511 164.188 17.3262 164.626 17.4557C165.403 17.6822 166.343 17.4395 166.99 17.925C167.622 18.4267 167.671 19.43 168.318 19.9155C168.529 20.0773 168.82 20.1744 168.966 20.4172C169.047 20.579 169.047 20.7894 169.047 20.9674C169.047 21.345 169.042 21.7172 169.031 22.0841C169.031 22.3753 168.982 22.6667 169.015 22.9579C169.031 23.2978 169.323 23.5729 169.663 23.5891C169.873 23.6053 170.084 23.5567 170.294 23.5891C170.489 23.6215 170.683 23.7024 170.845 23.7995C171.137 23.9613 171.412 24.1231 171.655 24.3497C171.849 24.5439 172.011 24.7705 172.173 24.997C172.497 25.4502 172.853 25.9195 173.145 26.405C173.339 26.7286 173.096 27.0685 172.805 27.2303C172.513 27.376 172.157 27.4893 172.027 27.7805C171.979 27.9262 171.979 28.0718 171.914 28.2013C171.72 28.6221 171.12 28.5897 170.78 28.881C170.456 29.1561 170.44 29.6578 170.667 29.9976C170.877 30.3375 171.299 30.5155 171.703 30.5479C172.108 30.5641 172.513 30.4346 172.886 30.2727C173.291 30.1109 173.728 29.8843 174.149 30.03C174.441 30.1433 174.635 30.4022 174.894 30.5479C175.25 30.7259 175.688 30.6773 176.076 30.8068C176.433 30.9201 176.724 31.1628 177.048 31.3409C177.242 31.438 177.469 31.5189 177.647 31.6645C177.825 31.794 177.971 32.0044 177.955 32.2309C177.939 32.4413 177.777 32.6193 177.583 32.7164C177.388 32.7973 177.161 32.8135 176.951 32.7811C176.659 32.765 176.271 32.7164 176.141 32.9753C176.06 33.1534 176.125 33.3476 176.238 33.4932C176.449 33.8007 176.789 34.0273 176.919 34.3671C176.967 34.5289 176.983 34.7069 176.999 34.8688C177.043 35.6456 177.134 36.4116 177.275 37.1668C177.323 37.3934 177.388 37.6361 177.664 37.717C177.809 37.7494 177.971 37.717 178.101 37.6361C178.457 37.3933 178.57 36.9726 178.846 36.6813C178.959 36.5842 179.073 36.4871 179.137 36.3576C179.235 36.1473 179.121 35.9045 179.056 35.6779C178.813 34.9011 179.105 33.9949 179.753 33.5094C179.98 33.3314 180.255 33.2019 180.465 32.9915C180.644 32.8135 180.773 32.5546 181.032 32.4737C181.308 32.3766 181.583 32.5222 181.826 32.7002C182.247 32.9915 182.652 33.299 183.041 33.6065L183.267 33.7845L184.984 34.5451C185.891 34.9497 186.62 35.7427 186.782 36.7298C186.782 36.7622 186.787 36.7892 186.798 36.8108C186.798 36.9079 186.782 37.005 186.749 37.1021C186.555 37.7332 186.345 38.4938 185.745 38.8337C185.405 39.0279 184.968 39.0602 184.676 39.3353C184.336 39.6266 184.288 40.1445 184.433 40.5653C184.579 40.986 184.871 41.3421 185.178 41.6657C186.118 42.723 187.111 43.7318 188.159 44.692C188.24 44.7567 188.32 44.8214 188.418 44.7891C188.482 44.7729 188.515 44.7082 188.563 44.6596C188.758 44.3521 189.017 44.0608 189.373 43.9475C189.843 43.7857 190.442 43.9799 190.847 43.6724C191.074 43.4944 191.171 43.1708 191.09 42.8795C191.009 42.6043 190.734 42.394 190.442 42.3778C190.442 42.3778 190.28 42.3778 190.102 42.3616L189.892 42.2321C189.276 41.8761 188.839 41.0022 188.952 40.2901C189.066 39.5619 189.487 38.9308 189.908 38.3158C189.972 38.2349 190.037 38.1378 190.134 38.0892C190.296 37.9921 190.491 38.0407 190.669 38.1054C191.058 38.2187 191.511 38.3805 191.673 38.7527C191.851 39.1411 191.722 39.659 192.094 39.9017C192.337 40.0474 192.645 39.9827 192.839 39.7885C193.212 39.4163 193.195 38.8984 193.212 38.4129C193.244 37.6847 193.406 36.9564 193.746 36.3091C194.086 35.6779 194.637 35.1277 195.301 34.8526C195.463 34.7879 195.641 34.7231 195.754 34.5937C195.884 34.448 195.9 34.2215 195.9 34.0273C195.884 33.7198 195.787 33.3961 195.544 33.2019C195.414 33.1048 195.269 33.0563 195.123 32.9753C194.783 32.7812 194.524 32.4413 194.313 32.1015C194.135 31.794 193.973 31.4703 193.941 31.1143C193.908 30.9039 193.957 30.6935 194.038 30.5155C194.102 30.3537 194.232 30.2566 194.313 30.1109C194.394 29.9653 194.443 29.8034 194.459 29.6254C194.475 29.4312 194.459 29.3018 194.669 29.2208C194.799 29.1723 194.945 29.1723 195.09 29.1399C195.35 29.0914 195.592 29.0752 195.835 28.9943C196.289 28.8972 196.742 28.8163 197.18 28.8972C197.617 28.9781 198.006 29.2208 198.443 29.2856C198.832 29.3503 199.22 29.2694 199.609 29.3503C199.82 29.415 200.03 29.5121 200.241 29.5931C200.662 29.7225 201.115 29.6902 201.569 29.674C202.573 29.6416 203.593 29.674 204.597 29.7711C204.792 29.8034 204.986 29.8843 205.1 30.03C205.342 30.3375 205.116 30.5964 205.083 30.8715C205.019 31.2923 205.375 31.6645 205.764 31.8263C206.168 31.972 206.606 31.9882 207.011 32.1015C207.48 32.2147 207.918 32.4737 208.355 32.7002C208.485 32.7811 208.598 32.8782 208.679 32.9915C209.003 33.5418 208.306 33.8492 208.306 34.3347C208.29 34.7393 208.744 34.9659 208.954 35.3057C209.132 35.6294 209.084 36.034 208.906 36.3738C208.646 36.8593 208.161 37.1992 207.804 37.6037C207.48 37.4095 207.27 37.7979 207.027 37.9921C206.654 38.3158 206.104 38.2025 205.618 38.1216C205.553 38.1054 205.472 38.1054 205.423 38.1378C205.359 38.1863 205.359 38.2672 205.342 38.3482C205.326 38.8175 205.326 39.3353 205.634 39.7076C205.99 40.1121 206.622 40.1769 207.027 40.5491C207.318 40.8242 207.448 41.245 207.74 41.5363C208.096 41.9085 208.646 42.0541 208.954 42.4587C209.213 42.7985 209.262 43.2193 209.311 43.6401C209.359 44.1094 209.391 44.6434 209.116 45.0318C208.97 45.2584 208.744 45.404 208.549 45.5659C207.82 46.1808 207.367 47.0547 206.606 47.605C206.233 47.8639 205.812 48.0419 205.407 48.2523C204.452 48.754 203.609 49.5469 202.541 49.7735C202.265 49.8382 201.99 49.8544 201.715 49.7897C200.84 49.6117 200.338 48.7054 199.771 48.0257C199.35 47.524 198.864 47.1033 198.297 46.7796C198.07 46.634 197.811 46.5207 197.536 46.4883C197.244 46.4721 196.953 46.5854 196.807 46.812C196.742 46.9091 196.71 47.0547 196.759 47.168C196.84 47.3136 197.034 47.3298 197.18 47.3622C198.654 47.5888 199.868 48.9158 199.965 50.4046C199.965 50.4856 199.965 50.5827 199.901 50.6474C199.852 50.6798 199.787 50.6959 199.739 50.7121C199.431 50.7445 199.123 50.6959 198.815 50.7121C198.443 50.7283 198.022 50.9063 197.957 51.3271C197.212 51.1167 196.516 50.7769 195.9 50.3237C195.641 50.1457 195.414 49.9515 195.139 49.7897C194.167 49.2556 192.969 49.466 191.867 49.3527C191.722 49.3365 191.56 49.3042 191.414 49.3366C191.252 49.3689 191.106 49.4498 191.058 49.6117C190.993 49.7735 191.074 49.9515 191.203 50.0648C191.333 50.1781 191.479 50.259 191.641 50.3237C191.965 50.4856 192.289 50.6959 192.483 51.0034C192.677 51.3109 192.742 51.7155 192.548 52.023C192.386 52.2819 192.094 52.4275 191.867 52.6379C191.463 52.994 191.268 53.5604 190.896 53.9811C190.588 54.321 190.167 54.5637 189.794 54.8227C189.622 54.9305 189.449 55.0384 189.276 55.1463C188.936 55.3405 188.612 55.5833 188.256 55.7451C187.381 56.1173 186.296 56.004 185.535 55.4214C183.904 54.5907 182.269 53.76 180.627 52.9292C180.303 52.7512 179.947 52.5894 179.575 52.6541C179.396 52.7027 179.218 52.7998 179.137 52.9616C178.911 53.3662 179.251 53.7546 179.558 54.062C180.287 54.7579 181.048 55.4862 181.988 55.8907C182.668 56.182 183.397 56.2791 184.126 56.3924C185.432 56.5866 186.744 56.7754 188.061 56.9588C188.58 57.0397 189.163 57.153 189.325 57.7518C189.389 58.0107 189.341 58.2859 189.211 58.5124C188.806 59.2568 187.98 59.4834 187.43 60.0336C186.717 60.7295 186.539 61.7976 185.94 62.5744C185 63.7396 183.332 63.9662 181.826 64.0794C181.534 64.1118 181.227 64.128 180.951 64.0471C180.465 63.9014 180.109 63.4645 179.575 63.3997C179.38 63.3674 179.186 63.4159 179.04 63.5454C178.7 63.8529 178.911 64.3384 178.813 64.7429C178.684 65.2446 178.101 65.4712 177.599 65.6168C176.659 65.892 175.59 66.1509 174.748 65.6168C174.505 65.455 174.279 65.2285 174.019 65.099C173.355 64.7591 172.562 65.0019 171.833 64.8562C171.185 64.7268 170.618 64.306 169.97 64.1765C169.452 64.0794 168.918 64.1765 168.416 64.0147C168.011 63.8852 167.687 63.6101 167.314 63.4483C166.877 63.2541 166.294 63.2541 166.067 63.7234C165.986 63.9176 165.986 64.128 166.067 64.3222C166.245 64.743 166.666 64.9533 167.104 65.0342C167.784 65.1799 168.513 65.0342 169.193 65.1313C170.213 65.2932 171.088 65.9891 172.124 66.0376C172.448 66.0376 172.789 65.9891 173.096 66.0862C173.388 66.1671 173.631 66.3613 173.874 66.5393C174.23 66.7659 174.602 66.9439 175.007 67.0733C175.169 67.1219 175.364 67.1704 175.542 67.1866C175.72 67.2028 175.914 67.1866 176.06 67.2999C176.206 67.4132 176.254 67.6074 176.287 67.8016C176.303 67.9634 176.368 68.1252 176.433 68.2709C176.481 68.3842 176.514 68.4975 176.53 68.6431C176.53 68.9668 176.384 69.2904 176.173 69.517C175.833 69.8568 175.38 70.051 174.943 70.229C174.149 70.5527 173.274 70.8764 172.481 70.31C172.173 70.0834 171.784 70.0025 171.444 70.1158C170.537 70.4233 171.137 71.5884 170.651 72.1872C170.359 72.5594 169.776 72.5918 169.485 72.964C169.274 73.2068 169.225 73.5952 168.95 73.7894C168.691 73.9836 168.302 73.8865 167.995 74.0159C166.99 74.4205 167.897 76.3625 166.942 76.8965C166.764 76.9936 166.537 77.0098 166.343 77.0907C165.889 77.2687 165.598 77.7381 165.468 78.2074C165.338 78.6767 165.306 79.1622 165.16 79.6315C164.723 81.1203 163.265 82.0752 162.601 83.4669C162.294 84.0819 162.164 84.7616 161.921 85.4089C161.549 86.3637 160.949 87.4156 161.435 88.3219C161.613 88.6455 161.921 88.9045 162.115 89.2119C162.52 89.8269 162.536 90.7008 163.152 91.1054C163.411 91.2672 163.719 91.3158 164.01 91.3643C164.777 91.4722 165.538 91.5801 166.294 91.688C166.683 91.7365 167.071 91.8013 167.379 92.044C167.687 92.2706 167.849 92.659 167.995 93.015C168.901 95.2914 169.727 97.5948 170.473 99.9252C170.618 100.378 170.845 100.912 171.315 100.961C171.541 100.993 171.768 100.88 171.979 100.783C173.188 100.2 174.397 99.6177 175.607 99.0351C177.129 99.9576 178.846 100.556 180.611 100.799C181.502 100.929 182.441 100.961 183.3 101.285C186.053 102.288 187.349 105.848 190.199 106.56C191.155 106.787 192.208 106.657 193.082 107.127C193.957 107.58 194.475 108.535 195.35 108.972C196.338 109.473 197.52 109.198 198.605 109.02C200.176 108.777 201.779 108.794 203.35 109.036C204.306 109.182 205.278 109.441 206.007 110.056C206.735 110.687 207.156 111.755 206.752 112.629C206.573 113.066 206.217 113.406 206.023 113.827C205.78 114.377 205.845 114.992 205.909 115.591C206.017 116.583 206.125 117.581 206.233 118.584C206.314 119.28 206.395 119.976 206.687 120.607C206.994 121.238 207.48 121.756 207.966 122.242C209.769 124.076 211.573 125.91 213.376 127.744C213.813 128.197 214.315 128.683 214.947 128.715C215.546 128.747 216.08 128.359 216.55 128.003C217.83 127.032 219.206 125.867 219.303 124.281C219.417 122.42 217.684 120.866 217.603 119.005C217.57 118.245 217.813 117.484 217.7 116.74C217.441 115.202 215.708 113.972 217.101 112.273C217.522 111.739 218.105 111.383 218.753 111.205C220.793 110.606 222.138 108.972 223.644 107.596C224.729 106.593 226.009 105.67 227.45 105.46C227.839 105.395 228.033 104.926 227.774 104.635C227.385 104.181 226.689 103.858 226.252 103.421C225.426 102.612 225.458 101.317 225.328 100.168C225.021 97.4006 223.336 94.8113 220.891 93.4519C220.275 93.1121 219.789 92.5457 219.595 91.866C219.093 90.0697 220.955 89.2767 222.073 88.1762C223.903 86.3637 223.612 82.9005 221.506 81.4278C221.069 81.1204 220.793 80.6187 220.826 80.0684C220.842 79.8904 220.891 79.6962 220.988 79.5344C221.182 79.1945 221.555 78.9842 221.798 78.6767C222.348 77.9808 222.17 76.9613 221.862 76.1359C221.441 75.0193 220.81 73.8703 221.619 72.6565C222.057 72.0254 222.753 71.6208 223.514 71.4913C225.312 71.1677 226.916 72.0092 228.6 72.4947C229.815 72.8507 231.078 73.0126 232.341 73.1744C232.73 73.223 233.151 73.2715 233.524 73.142C234.042 72.9802 234.43 72.5271 234.916 72.2843C235.337 72.0739 235.84 72.0254 236.309 72.171C236.666 72.2681 236.973 72.4785 237.281 72.6889C238.264 73.347 239.246 74.0051 240.229 74.6632C240.952 75.1487 241.676 75.6289 242.399 76.1036C242.707 76.3139 243.014 76.5243 243.273 76.7832C243.97 77.4306 244.359 78.3692 245.152 78.9032C246.432 79.7448 248.262 79.2269 249.558 80.0523C249.719 80.1494 249.898 80.295 250.092 80.3274C250.724 80.4407 251.096 79.5991 251.695 79.4211C251.987 79.324 252.327 79.4211 252.538 79.6315C253.04 80.117 252.748 80.9747 252.359 81.5411C251.971 82.1237 251.469 82.771 251.647 83.4507C251.728 83.7906 251.987 84.1466 251.825 84.4703C251.76 84.6321 251.614 84.713 251.501 84.8425C250.918 85.4413 251.193 86.4284 251.161 87.2861C251.129 87.8687 250.934 88.4351 250.918 89.0177C250.902 89.6003 251.161 90.2638 251.712 90.4419C252.084 90.0858 252.732 89.7298 253.04 90.1668C253.38 90.6684 252.521 91.3481 252.764 91.8984C253.671 92.1897 254.74 90.895 255.485 91.7365C255.712 92.0116 255.825 92.3677 255.777 92.7237C255.566 94.3258 257.72 95.5234 258.951 94.342C260.636 94.5362 261.008 91.9793 262.466 91.2996C263.292 90.9112 264.377 91.1701 265.089 90.5875C266.158 89.7298 265.381 88.0144 265.559 86.6388C265.754 85.15 267.163 84.0981 268.264 83.1594C268.588 82.8843 269.025 82.7548 269.446 82.8681C270.224 83.0623 270.272 83.9039 270.418 84.5836C270.58 85.3442 270.969 86.04 271.341 86.7197C271.714 87.4156 272.07 88.0953 272.459 88.7912C273.544 90.7817 274.564 92.8532 275.989 94.6333C276.848 95.7014 277.836 96.6886 278.532 97.8699C279.358 99.2941 279.698 101.171 278.565 102.531C278.241 102.935 278.062 103.453 278.127 103.971C278.354 105.525 280.233 104.796 280.848 105.735C281.14 106.188 281.026 106.835 281.415 107.175C281.917 107.628 282.937 107.24 283.278 107.823C283.423 108.049 283.375 108.34 283.456 108.599C283.65 109.279 284.525 109.457 285.237 109.603C286.501 109.846 287.699 110.38 288.719 111.156C289.157 111.496 289.675 111.901 290.209 111.739C290.631 111.609 290.89 111.156 291.295 111.011C292.347 110.606 293.076 112.241 294.161 112.451C294.113 113.05 293.449 113.39 292.849 113.454C292.25 113.503 291.619 113.39 291.052 113.584C290.242 113.843 289.74 114.652 288.979 115.008C287.91 115.493 286.63 115.008 285.496 115.332C284.444 115.623 283.634 116.691 283.682 117.791C283.682 117.969 283.731 118.131 283.828 118.261C284.185 118.698 284.768 118.423 285.189 118.147C287.262 116.788 289.4 115.429 291.813 114.959C292.525 114.814 293.287 114.765 293.935 115.089C294.372 115.315 294.712 115.785 294.777 116.27C294.809 116.529 295.085 116.691 295.327 116.594C296.17 116.286 297.093 116.173 297.611 116.837C298.032 117.371 297.967 118.212 298.502 118.633C298.81 118.876 299.279 118.892 299.538 119.199C299.717 119.426 299.749 119.75 299.749 120.041ZM82.01 48.932C81.7023 48.7378 81.265 48.932 81.022 49.2071C80.7629 49.4822 80.6171 49.8382 80.3418 50.0972C79.8073 50.615 78.9976 50.6312 78.2525 50.615C77.1296 50.6042 76.0067 50.5881 74.8838 50.5665C74.4951 50.5665 74.0902 50.5503 73.7339 50.3885C73.3775 50.2266 73.0698 49.8544 73.1346 49.4498C73.1832 49.0938 73.5071 48.8349 73.8472 48.6569C74.1711 48.495 74.5436 48.3979 74.819 48.1552C75.0943 47.8962 75.2563 47.4593 75.0295 47.168C74.8352 46.8929 74.4465 46.8767 74.1063 46.8767C73.1994 46.8929 72.2924 46.9253 71.4178 47.1518C70.4785 47.3946 69.6039 47.8801 68.6807 48.2037C67.2878 48.7216 65.7978 48.8834 64.3888 49.3527C63.4008 49.6926 62.4614 50.1619 61.4249 50.259C60.5503 50.3561 59.6757 50.1619 58.8011 50.1781C57.9913 50.1943 56.4365 50.5665 56.5175 51.6346C56.5283 51.6346 56.5337 51.64 56.5337 51.6508C56.5337 51.6831 56.5391 51.7155 56.5499 51.7479C56.6957 52.0392 57.3111 51.8935 57.5541 51.8935C58.0183 51.8611 58.488 51.8288 58.9631 51.7964C59.8701 51.7424 60.7771 51.6831 61.684 51.6184C62.2509 51.586 62.8339 51.5536 63.3846 51.3595C63.7571 51.2462 64.0972 51.052 64.4697 50.9549C64.8908 50.8416 65.3281 50.8254 65.7492 50.8416C66.9639 50.9063 68.1624 51.2785 69.2152 51.9259C69.3933 52.0391 69.6039 52.201 69.6039 52.4275C69.6039 52.6541 69.3771 52.8159 69.1666 52.8969C68.5673 53.172 67.8547 53.1558 67.2393 52.8969C67.1259 52.8483 66.9963 52.7836 66.8667 52.7998C66.6562 52.8159 66.5104 53.0101 66.4618 53.2205C66.4133 53.4309 66.4457 53.6413 66.4457 53.8517C66.4133 54.8874 65.4739 55.6642 64.5345 56.1173C64.243 56.263 63.9353 56.3924 63.7247 56.6352C63.5142 56.8779 63.4656 57.2987 63.7085 57.5091C63.8867 57.6709 64.1458 57.6709 64.3726 57.6709C65.8302 57.6385 67.4174 57.5738 68.5511 56.6513C69.0046 56.2953 69.3609 55.8098 69.782 55.3891C70.1869 54.9683 70.7052 54.5961 71.2883 54.5475C71.8713 54.499 72.5353 54.8712 72.6163 55.4538C72.6811 55.8908 72.422 56.3115 72.1143 56.6352C71.7417 57.0236 71.2882 57.331 70.7862 57.5414C70.527 57.6385 70.1707 57.8813 70.3003 58.1402C70.3975 58.302 70.6242 58.3182 70.8186 58.2859C71.6446 58.1564 72.422 57.7518 72.9888 57.1207C73.1994 56.8779 73.4099 56.5866 73.7014 56.4572C74.2035 56.2468 74.8028 56.5381 75.3049 56.3439C75.3696 55.9231 75.2563 55.47 74.9647 55.1463C74.7542 54.9036 74.4465 54.7094 74.3817 54.4019C74.3169 54.0944 74.5113 53.7869 74.7542 53.5927C75.3372 53.1558 76.147 53.2529 76.8597 53.4471C77.5561 53.6413 78.2687 53.9164 78.9976 53.7869C79.7102 53.6413 80.2932 53.1072 80.7143 52.4923C81.1192 51.8935 81.4269 51.2138 81.8318 50.5989C82.01 50.3399 82.2043 50.081 82.2853 49.7735C82.3663 49.466 82.2853 49.0938 82.01 48.932ZM111.973 70.6013C111.794 70.3423 111.406 70.3909 111.082 70.3747C110.321 70.3585 109.673 69.8245 108.928 69.6626C108.231 69.517 107.502 69.7274 106.822 69.9054C106.207 70.0834 105.591 70.2614 105.073 70.6336C104.782 70.844 104.539 71.1191 104.279 71.3781C103.34 72.3005 102.255 73.0611 101.17 73.8217C100.976 73.9512 100.781 74.0807 100.571 74.1292C100.279 74.1939 99.9875 74.113 99.696 74.1616C99.3397 74.2263 99.0482 74.469 98.7081 74.5985C97.6229 75.0516 96.3921 74.3719 95.5175 73.5628C95.3069 73.3524 95.0802 73.142 94.8048 73.0126C93.995 72.6242 92.9585 73.1258 92.1487 72.7374C91.8086 72.5594 91.5494 72.252 91.2579 71.9768C90.9664 71.7179 90.5939 71.4752 90.2052 71.5561C90.1242 71.5723 90.027 71.6046 89.9946 71.6855C89.946 71.7665 89.9622 71.8474 89.9946 71.9283C90.108 72.3814 90.3671 72.7698 90.7072 73.0935C90.8692 73.2553 91.0636 73.3686 91.2417 73.5142C91.4361 73.6761 91.4685 73.9026 91.598 74.0968C91.6196 74.14 91.6466 74.1777 91.679 74.2101C91.841 74.3881 92.1001 74.5176 92.2783 74.6794C92.4888 74.906 92.667 75.1811 92.6346 75.5048C92.586 76.0874 91.9058 76.411 91.3065 76.492C90.7234 76.5729 90.0594 76.5729 89.6059 76.9775C89.2334 77.3173 89.1362 77.8513 88.9095 78.3045C88.6989 78.7576 88.2131 79.1945 87.7434 79.0165C87.4843 78.9194 87.3061 78.6767 87.047 78.5958C86.723 78.4987 86.3343 78.7738 86.3181 79.1136C86.3181 79.4049 86.5287 79.6638 86.7716 79.8742C87.7758 80.7481 89.1848 81.1365 90.5129 80.9261C91.5494 80.7481 92.5374 80.2141 93.5901 80.2303C94.0274 80.2465 94.4647 80.3436 94.902 80.3274C95.3555 80.3112 95.8252 80.1332 96.0357 79.7448C96.1491 79.502 96.1653 79.2431 96.2301 78.9842C96.3759 78.3854 96.8779 77.8999 97.4448 77.6571C98.0278 77.3982 98.6595 77.3497 99.2911 77.3658C99.6474 77.382 100.101 77.382 100.263 77.0584C100.376 76.848 100.311 76.6052 100.295 76.3625C100.247 75.699 100.733 75.0517 101.38 74.8898C101.818 74.7927 102.304 74.906 102.741 74.7927C103.956 74.4691 104.263 72.7698 105.381 72.2034C106.093 71.8312 106.968 72.0254 107.762 71.9445C108.75 71.8474 109.673 71.3295 110.661 71.3619C110.968 71.3781 111.292 71.4428 111.6 71.3295C111.892 71.2324 112.135 70.8764 111.973 70.6013Z" fill="#F1F1F1" stroke="#BABABA" stroke-width="1.18548" stroke-linecap="round" stroke-linejoin="round"/>
</svg>
