<svg width="19" height="5" viewBox="0 0 19 5" fill="none" xmlns="http://www.w3.org/2000/svg">
<path d="M6.40372 4.25313C7.01917 4.1884 7.63462 4.05894 8.26626 4.05894C9.15704 4.04275 10.145 4.22078 10.89 3.70292C11.214 3.49253 11.4569 3.16885 11.8294 3.07175C12.0561 3.00701 12.299 3.05559 12.542 3.05559C13.1736 3.07177 13.8053 2.86138 14.2912 2.44062C14.3884 2.37589 14.4693 2.27877 14.5989 2.26259C14.9228 2.18167 15.1658 2.60243 15.4897 2.69953C16.008 2.87754 16.5101 2.19785 17.0445 2.3435C17.2389 2.39205 17.4008 2.5539 17.5627 2.68337C17.7733 2.81283 18.081 2.90994 18.243 2.65101C18.3564 2.48918 18.324 2.26259 18.1945 2.10076C17.9677 1.76091 17.7086 1.32399 17.2875 1.19452C17.0445 1.1136 16.7691 1.17831 16.51 1.12976C16.2671 1.0974 16.0403 0.967956 15.7974 0.951773C15.3115 0.903223 14.7771 1.29162 14.3398 1.03269C14.2264 0.984139 14.1454 0.887032 14.0483 0.8223C13.5948 0.450086 12.8497 0.547162 12.4772 1.00029C12.3315 1.19449 12.2505 1.42108 12.121 1.63146C11.8618 2.01986 11.4083 2.27878 10.9386 2.31115C10.8252 2.31115 10.6957 2.31113 10.6147 2.21403C10.5661 2.16548 10.5499 2.10075 10.5175 2.0522C10.3717 1.79327 10.0154 1.72853 9.7239 1.80945C9.43237 1.89037 9.18945 2.10078 8.93031 2.24643C8.67118 2.40826 8.36349 2.52154 8.07196 2.40826C7.81282 2.31116 7.6508 2.06841 7.44025 1.87421C6.87339 1.35634 6.03122 1.32395 5.27 1.32395C4.60597 1.32395 3.92572 1.34017 3.31027 1.5991C2.98635 1.72857 2.67863 1.93892 2.33851 2.01984C1.88503 2.14931 1.383 2.03602 0.92951 2.18167C0.92951 2.18167 0.621786 2.31115 0.60559 2.44062C0.540806 2.78047 0.73511 3.1365 1.04283 3.29834C1.35056 3.46017 1.70692 3.47634 2.06323 3.49253C2.40334 3.49253 2.75961 3.50869 3.06733 3.67052C3.31027 3.79998 3.48844 3.99421 3.73138 4.1075C3.97432 4.23696 4.26585 4.2693 4.54118 4.28549C5.16743 4.32864 5.78828 4.31786 6.40372 4.25313Z" fill="#F1F1F1" stroke="#BABABA" stroke-width="1.18548" stroke-linecap="round" stroke-linejoin="round"/>
</svg>
