<svg width="16" height="7" viewBox="0 0 16 7" fill="none" xmlns="http://www.w3.org/2000/svg">
<path d="M13.9881 2.29201C13.7614 2.24346 13.5022 2.27582 13.2916 2.16254C13.0811 2.06544 12.9515 1.87124 12.7572 1.74178C12.5628 1.61231 12.3361 1.56376 12.1094 1.51521C11.7368 1.40193 11.3643 1.24009 11.0242 1.02971C10.8298 0.916429 10.6355 0.770785 10.425 0.689869C10.1982 0.608953 9.95526 0.592773 9.72852 0.592773C9.29122 0.62514 8.85398 0.73841 8.48147 0.964975C8.25473 1.07826 8.04416 1.2401 7.81742 1.32102C7.54209 1.41812 7.25059 1.41811 6.95906 1.41811C6.26804 1.40732 5.57154 1.40193 4.86972 1.40193C4.69156 1.40193 4.51345 1.40192 4.35149 1.46665C4.10855 1.56375 3.94659 1.8065 3.78463 2.0007C3.20158 2.64803 2.32698 2.92314 1.50098 3.16589C1.50098 3.16589 1.11226 3.27917 0.998892 3.47337C0.80454 3.8294 0.626385 4.21779 0.593993 4.62237C0.577797 5.04314 0.707396 5.48009 1.03132 5.73902C1.43622 6.06268 1.9869 6.04651 2.50517 6.03032C3.07203 5.99796 3.65505 5.96559 4.17332 5.72284C4.48105 5.57719 4.75638 5.36681 5.0641 5.22116C5.64716 4.92987 6.39216 4.88132 6.91043 5.2859C7.04 5.39918 7.16956 5.52864 7.31533 5.62574C7.60686 5.78757 7.97941 5.78756 8.25474 5.59336C8.4329 5.4639 8.57863 5.25353 8.78918 5.15643C9.16169 4.99459 9.56656 5.22115 9.97146 5.18878C10.3278 5.15642 10.6193 4.91368 10.9756 4.83276C11.4615 4.71948 11.9636 4.92987 12.4495 4.8975C13.1621 4.86513 13.7451 4.39582 14.2796 3.94269C14.4416 3.81322 14.6035 3.66756 14.7007 3.48955C14.9275 3.00405 14.5064 2.40529 13.9881 2.29201Z" fill="#F1F1F1" stroke="#BABABA" stroke-width="1.18548" stroke-linecap="round" stroke-linejoin="round"/>
</svg>
