<svg width="5" height="4" viewBox="0 0 5 4" fill="none" xmlns="http://www.w3.org/2000/svg">
<path d="M0.678206 1.76212C0.807774 1.92395 1.01831 2.00485 1.22885 2.06958C1.35842 2.10195 1.48797 2.11813 1.61754 2.18286C1.84429 2.27996 2.02243 2.49034 2.24917 2.58744C2.31395 2.63599 2.41113 2.65218 2.49211 2.636C2.5407 2.61981 2.58927 2.60364 2.63786 2.57128C2.74583 2.50655 2.84847 2.43641 2.94564 2.36089C3.01043 2.31234 3.05897 2.26378 3.13995 2.23142C3.39909 2.10195 3.75541 2.18285 3.96596 1.97247C4.11172 1.843 4.1279 1.58409 4.03073 1.42226C3.93355 1.24424 3.7392 1.13097 3.54485 1.06623C3.43148 1.03387 3.31809 1.03387 3.20472 0.985318C3.01037 0.904402 2.84842 0.74257 2.65407 0.661654C2.55689 0.613104 2.44351 0.596897 2.31394 0.596897C2.11959 0.580714 1.92523 0.613081 1.74708 0.677813C1.68229 0.699391 1.61756 0.726363 1.55277 0.758729L0.904934 1.00148C0.775366 1.05003 0.678158 1.16332 0.62957 1.29278C0.580982 1.43843 0.564834 1.61647 0.678206 1.76212Z" fill="#F1F1F1" stroke="#BABABA" stroke-width="1.18548" stroke-linecap="round" stroke-linejoin="round"/>
</svg>
