<svg width="8" height="7" viewBox="0 0 8 7" fill="none" xmlns="http://www.w3.org/2000/svg">
<path d="M0.871555 3.49583C1.1145 3.83568 1.43842 4.09462 1.76233 4.33737C2.00527 4.4992 2.24825 4.67722 2.52358 4.74195C2.81511 4.80668 3.12283 4.74193 3.41436 4.80667C4.046 4.91995 4.51565 5.5511 5.16349 5.66438C5.50361 5.71293 5.87616 5.61583 6.18389 5.42164C6.49161 5.24362 6.73454 4.98468 6.97748 4.72575C7.09085 4.59629 7.20424 4.46682 7.23663 4.30499C7.30141 4.01369 7.09086 3.7224 6.83173 3.57675C6.57259 3.41492 6.28106 3.35019 6.02193 3.22073C5.76279 3.09126 5.53605 2.89705 5.29311 2.78377C5.05017 2.67049 4.77482 2.62195 4.54808 2.49248C4.32133 2.36302 4.15934 2.16881 3.94879 2.03934C3.70585 1.87751 3.39819 1.78041 3.20384 1.55385C3.02569 1.32728 2.97707 1.00363 2.76652 0.793247C2.53977 0.582865 2.18345 0.582854 1.85953 0.599037C1.66517 0.599037 1.45463 0.615228 1.29267 0.72851C1.11451 0.857976 1.03356 1.08454 0.920191 1.27874C0.758231 1.52149 0.661007 1.82896 0.628615 2.12026C0.628615 2.21736 0.612483 2.2821 0.612483 2.33065C0.547699 2.73523 0.644811 3.15599 0.871555 3.49583Z" fill="#F1F1F1" stroke="#BABABA" stroke-width="1.18548" stroke-linecap="round" stroke-linejoin="round"/>
</svg>
