<svg width="72" height="127" viewBox="0 0 72 127" fill="none" xmlns="http://www.w3.org/2000/svg">
<path d="M70.7073 16.9233C70.6588 17.0366 70.5778 17.1175 70.5292 17.2146C69.9623 18.1047 70.6425 19.4479 69.9947 20.2894C69.5412 20.8882 68.6504 20.9043 67.9216 21.1147C66.8851 21.406 66.0591 22.1504 65.2655 22.8625C64.5529 23.5206 63.8348 24.1734 63.1114 24.8207C62.6579 25.2253 62.1882 25.6622 61.8481 26.1801C61.6052 26.5523 61.427 26.9892 61.1679 27.3452C60.5686 28.1544 59.5645 28.5914 58.9814 29.4167C58.6089 29.9346 58.447 30.5819 57.9935 31.035C57.702 31.3101 57.3133 31.4881 56.9731 31.7147C56.633 31.9575 56.3253 32.2326 56.0661 32.5724C55.9258 32.7343 55.807 32.9123 55.7098 33.1065C55.4345 33.6082 55.305 34.2878 55.7261 34.6762C55.8394 34.7895 56.0175 34.8705 56.0985 35.0161C56.3415 35.4692 55.7098 35.8576 55.4345 36.2784C55.224 36.602 55.224 37.0066 55.1592 37.3788C54.981 38.6735 54.0417 39.871 54.2684 41.1495C54.3656 41.7159 54.6733 42.3147 54.4142 42.8164C54.317 43.0106 54.155 43.1562 54.0093 43.3181C53.1671 44.2405 53.1671 45.5999 53.2967 46.8784C53.0537 46.9593 52.8432 47.1535 52.7622 47.4124C52.6164 47.8332 52.8917 48.173 53.1833 48.4158C54.3818 49.4838 56.2281 49.8561 57.0217 51.2478C57.5562 52.1703 57.4752 53.3193 57.8315 54.3388C58.0097 54.8567 58.3012 55.326 58.4955 55.86C58.8357 56.7987 58.7709 57.8506 58.3822 58.773C58.1716 59.2423 57.8801 59.6307 57.5238 60.0029C57.0541 60.5208 56.552 61.0548 56.1147 61.6051C55.6613 62.1877 55.2888 62.835 54.7867 63.3691C53.3614 64.8741 51.1588 65.3434 49.1019 65.6671C46.8506 66.0069 44.5346 66.282 42.2995 65.8613C41.6031 65.7318 40.9229 65.5376 40.2265 65.4729C39.5948 65.4243 39.109 66.0231 39.2871 66.6218C39.4005 66.9779 39.5462 67.3339 39.6434 67.6738C39.773 68.1269 39.8054 68.6124 39.8216 69.0817C39.8863 70.344 39.9511 71.6225 39.5786 72.82C39.2223 74.0176 38.3477 75.1504 37.133 75.4741C37.133 75.4741 36.6796 75.5873 36.1613 75.733C34.8818 75.8301 33.5699 75.4579 32.5334 74.7296C32.0637 74.3898 31.6426 73.9852 31.1081 73.7749C30.8652 73.6778 30.606 73.6292 30.3469 73.6292C30.0392 73.613 29.7153 73.6777 29.4885 73.9043C29.2456 74.1309 29.197 74.5031 29.1646 74.8429C29.0998 75.733 29.1484 76.6393 29.3428 77.5293C29.3913 77.7235 29.4399 77.9177 29.5047 78.0958C29.6019 78.3871 29.7639 78.646 29.9096 78.9049C30.104 79.2124 30.2821 79.5199 30.5575 79.7788C31.1729 80.3452 32.1771 80.4423 32.8897 79.9892C33.2136 79.7788 33.4565 79.4713 33.7481 79.2124C33.9424 79.002 34.1854 78.8078 34.5741 79.0182C34.7522 79.1153 34.8818 79.2448 34.9628 79.4228C35.3029 80.0377 35.2543 80.7983 35.06 81.478C34.9628 81.7855 34.8494 82.0768 34.6713 82.3034C34.4769 82.5461 34.1854 82.7241 33.8776 82.7403C33.5375 82.7403 33.2136 82.5299 32.9707 82.2872C32.7115 82.0606 32.501 81.7693 32.2094 81.5751C31.8855 81.3648 31.4968 81.2515 31.1081 81.3C31.0596 81.3 31.011 81.3162 30.9786 81.3486C30.9138 81.3809 30.9138 81.4619 30.9138 81.5266C30.9462 81.9635 31.3996 82.2063 31.6426 82.5623C31.9341 83.0154 31.8207 83.6304 31.5292 84.0673C31.2215 84.5043 30.768 84.7956 30.2983 85.0383C29.9744 85.2002 29.6181 85.3944 29.2942 85.6047C29.0512 85.7828 28.8893 86.0579 28.8731 86.3653C28.8407 86.9479 28.8569 87.5467 28.8407 88.1131C28.8083 88.8252 28.6949 89.5534 28.3224 90.1684C27.9013 90.8319 27.2049 91.285 26.4923 91.6249C25.7797 91.9485 25.0185 92.1751 24.3058 92.5474C22.832 93.308 21.6497 94.6511 21.1152 96.2371C21.0018 96.5608 20.9694 96.9168 21.018 97.2566V97.2728C21.0828 97.6451 21.2448 97.9849 21.4877 98.2762C21.8278 98.697 22.3461 99.3281 22.3461 99.3281C22.9292 100.024 23.7875 100.509 24.6945 100.623C25.1318 100.687 25.5691 100.655 25.9902 100.72C26.4113 100.768 26.8648 100.898 27.1563 101.222C27.4316 101.513 27.5612 101.917 27.5612 102.322C27.5612 102.727 27.464 103.131 27.3345 103.503C27.1239 104.167 26.8486 104.798 26.5085 105.397C26.3141 105.753 26.0712 106.125 25.7635 106.384C25.4557 106.659 25.0832 106.837 24.7107 106.999C24.2248 107.225 23.7228 107.484 23.2531 107.711C22.3785 108.099 21.7144 108.941 21.3257 109.815C20.9532 110.689 20.8237 111.66 20.7751 112.615C20.7589 112.954 20.7427 113.31 20.5645 113.602C20.4512 113.796 20.273 113.942 20.0949 114.087C19.609 114.476 19.1231 114.864 18.5562 115.123C18.0056 115.366 17.3901 115.479 16.9204 115.883C16.8557 115.948 16.7855 116.002 16.7099 116.045C16.4669 116.191 16.2564 116.369 16.0944 116.596C15.9811 116.757 15.8515 116.919 15.6895 117.065C15.5762 117.162 15.4466 117.259 15.3494 117.372C15.2361 117.502 15.1713 117.647 15.1065 117.793C14.6368 118.91 14.7664 120.253 15.4142 121.273C15.7381 121.774 16.1754 122.195 16.6127 122.6C17.293 123.247 17.9732 123.889 18.6534 124.525C18.9449 124.8 19.2527 125.108 19.2203 125.593C19.1879 125.917 18.9935 126.208 18.702 126.354C18.3673 126.171 18.0379 125.982 17.714 125.788C17.5035 125.674 17.2929 125.561 17.0662 125.496C16.4669 125.318 15.7867 125.545 15.1875 125.335C14.8959 125.237 14.6368 125.027 14.3291 124.93C14.0052 124.817 13.6488 124.8 13.3087 124.8C11.4948 124.8 9.67543 124.8 7.85068 124.8C7.31621 124.784 6.73316 124.768 6.31206 124.428C6.05293 124.202 5.89096 123.878 5.61563 123.651C5.40508 123.506 5.16214 123.425 4.96779 123.279C4.5143 122.907 4.43334 122.243 4.54672 121.661C4.67628 121.094 4.9678 120.577 5.09736 120.01C5.22693 119.444 5.17835 118.764 4.74106 118.376C4.25518 117.955 3.52637 118.052 2.92712 118.279C2.53841 118.424 2.1335 118.651 1.6962 118.651C1.27511 118.667 0.789213 118.36 0.789213 117.939C0.789213 117.437 1.40467 116.968 1.16173 116.531C1.08075 116.401 0.951197 116.32 0.854021 116.207C0.675865 115.997 0.659661 115.706 0.643465 115.447C0.594877 114.702 0.546281 113.958 0.675849 113.213C0.805417 112.485 1.12936 111.757 1.71242 111.287C2.21449 110.883 2.89471 110.673 3.23482 110.122C3.36439 109.912 3.42918 109.653 3.52636 109.41C3.73691 108.828 4.19037 108.633 4.59527 107.889C4.59527 107.889 4.9678 107.225 4.33616 106.287C3.85028 105.575 4.20658 104.491 4.88681 103.94C5.22692 103.665 5.64804 103.52 5.95576 103.212C6.32827 102.856 6.4902 102.306 6.37683 101.804C6.29585 101.416 6.05293 101.011 6.1987 100.623C6.37685 100.153 7.07328 99.9593 7.08948 99.4576C7.08948 99.053 6.61979 98.7941 6.44164 98.438C6.29587 98.1467 6.34447 97.7745 6.57121 97.5317C6.78176 97.3052 7.13804 97.1272 7.10565 96.8197C7.08945 96.7226 7.0247 96.6255 6.97611 96.5284C6.76557 96.0915 6.87893 95.525 7.25144 95.2337C7.51057 95.0234 7.86689 94.9263 8.02885 94.635C8.15842 94.3922 8.09364 94.0686 7.94787 93.842C7.80211 93.5993 7.57533 93.4212 7.34859 93.2594C7.10025 93.076 6.85731 92.8926 6.61977 92.7092C6.47401 92.6121 6.32827 92.4664 6.32827 92.2884C6.32827 92.0133 6.70078 91.9 6.97611 91.8838C7.36482 91.8676 7.7859 91.8353 8.09362 91.6249C8.41754 91.3983 8.5633 90.8805 8.28797 90.6215C7.91546 90.2655 7.31621 90.5568 6.91131 90.2979C6.83033 90.2493 6.78174 90.2008 6.74935 90.1199C6.73315 90.0551 6.73317 89.9904 6.73317 89.9257C6.76557 89.4402 6.78175 88.9871 6.68458 88.5016C6.6036 88.0322 6.45782 87.5791 6.26347 87.1583C6.16629 86.9641 6.06913 86.7861 6.03674 86.5757C5.95576 86.2521 6.05294 85.9122 6.08533 85.5886C6.13392 85.2487 6.08532 84.8603 5.82618 84.6661C5.7452 84.6014 5.64803 84.5528 5.58324 84.4719C5.53466 84.391 5.51848 84.2777 5.51848 84.1645C5.48608 83.4092 5.45368 82.6486 5.42128 81.8826C5.40509 81.6884 5.40507 81.4619 5.48605 81.2838C5.64801 80.9602 6.05293 80.8307 6.36066 80.6689C6.68458 80.4909 6.99229 80.1025 6.79794 79.795C6.68457 79.6332 6.47403 79.5684 6.36066 79.4228C6.21489 79.2609 6.21487 79.0182 6.21487 78.8078C6.22567 77.416 6.23108 76.0243 6.23108 74.6325C6.23108 74.2927 6.24729 73.9043 6.44164 73.613C6.53881 73.4674 6.68456 73.3541 6.74935 73.1922C6.83033 73.0304 6.83035 72.8524 6.81415 72.6744C6.81415 72.0271 6.80874 71.3797 6.79794 70.7324C6.79794 70.5382 6.79794 70.344 6.87892 70.166C6.99229 69.9394 7.23525 69.8099 7.38101 69.6157C7.52678 69.4054 7.54297 69.1302 7.57536 68.8875C7.61855 68.3696 7.66174 67.8518 7.70493 67.3339C7.76972 66.5571 9.69703 66.1202 9.55126 65.4405C9.45409 64.9712 9.16257 64.8094 9.033 64.6313C8.91963 64.4857 8.87103 64.3077 8.82244 64.1297C8.53091 63.0454 8.44993 61.9126 8.5795 60.8121C8.67668 59.9868 8.88722 59.1614 8.77385 58.3523C8.75765 58.1257 8.69287 57.883 8.77385 57.6726C8.83863 57.4946 9.00058 57.3651 9.13015 57.2356C9.78879 56.653 10.442 56.0758 11.0899 55.504C11.2194 55.3907 11.3328 55.2774 11.43 55.1318C11.6244 54.7919 11.5272 54.3388 11.349 53.9666C11.1709 53.5944 10.9117 53.2545 10.8307 52.8661C10.7336 52.4939 10.7983 52.1055 10.9117 51.7333C11.268 50.5034 12.1588 49.5 12.7581 48.351C13.3573 47.2182 13.6165 45.6808 12.7581 44.726C12.6285 44.5804 12.4828 44.4509 12.4018 44.2729C12.0293 43.577 12.8877 42.5413 12.3208 41.9749C12.1426 41.7969 11.8511 41.6997 11.8025 41.457C11.7701 41.3113 11.8673 41.1657 11.9159 41.0039C12.0617 40.5184 11.8835 39.9358 11.511 39.5636C10.6364 38.6897 10.4258 37.1846 10.4258 37.1846C10.3934 36.8124 10.6688 36.3593 10.9441 36.0518C11.2357 35.7443 11.5919 35.5016 11.7701 35.1132C12.0292 34.4982 11.7539 33.6081 12.2884 33.2036C12.4503 33.0903 12.6609 33.0256 12.8067 32.8961C12.9362 32.7343 12.9848 32.5239 13.0172 32.3297C13.1144 31.6824 13.2277 31.0188 13.0658 30.3877C12.9686 29.9184 12.7257 29.4814 12.6447 29.0121C12.5475 28.5428 12.6771 27.9764 13.0982 27.766C13.2277 27.7013 13.3735 27.6689 13.4707 27.588C13.7622 27.3291 13.5193 26.8597 13.4221 26.4875C13.163 25.5327 13.9566 24.6265 14.734 24.0115C15.5114 23.3804 16.4022 22.7007 16.4993 21.7135C16.5317 21.3898 16.4832 21.0014 16.7261 20.7587C16.9852 20.4998 17.4387 20.5968 17.795 20.4997C18.2323 20.3703 18.5238 19.8848 18.54 19.4317C18.5562 18.9624 18.3619 18.5092 18.1189 18.1208C17.9408 17.8457 17.7302 17.5544 17.7302 17.2308C17.7302 16.8424 18.0541 16.5187 18.1189 16.1465C18.1999 15.6934 17.9246 15.2564 17.7302 14.8518C17.5197 14.4311 17.4063 13.8808 17.7302 13.5572C17.8274 13.4439 17.9732 13.3792 18.0542 13.2659C18.3943 12.8451 17.9408 12.2625 17.9246 11.7447C17.8922 11.2106 18.3133 10.7575 18.7506 10.45C19.9815 9.5923 21.6335 9.15536 22.3461 7.82834C22.9939 6.64697 22.6214 5.20663 22.6376 3.83106C22.7132 3.78791 22.778 3.73937 22.832 3.68543C23.0911 3.4265 23.4636 3.32938 23.6742 3.0219C23.8847 2.7306 24.0629 2.40694 24.3058 2.13183C24.5812 1.84053 24.9375 1.63016 25.1966 1.33886C25.4719 1.04757 25.6987 0.626788 26.1036 0.594422C26.5247 0.562055 26.8324 1.0152 27.2373 1.17703C27.5774 1.3065 27.9823 1.22557 28.3224 1.37122C28.4034 1.40359 28.4844 1.45213 28.5816 1.4845C28.6787 1.51686 28.7921 1.5169 28.9055 1.5169C29.6289 1.50611 30.3577 1.48992 31.0919 1.46834C31.2539 1.46834 31.432 1.46831 31.5778 1.56541C31.7074 1.64633 31.7722 1.80817 31.8208 1.93763C31.9503 2.23972 32.0799 2.53641 32.2094 2.82771C32.3228 3.13519 32.501 3.45885 32.8249 3.5074C33.1326 3.53976 33.3918 3.26467 33.5537 3.00574C33.7049 2.7576 33.8398 2.49325 33.9586 2.21274C34.0396 2.00236 34.1044 1.77583 34.2664 1.59781C34.5579 1.25796 35.0438 1.19323 35.4649 1.19323C36.6472 1.17705 37.8295 1.19323 39.028 1.19323C39.2223 2.74682 40.5018 4.05765 41.7327 5.10956C42.8448 6.08055 43.9839 7.02457 45.1501 7.94162C45.555 8.26528 45.976 8.58895 46.4619 8.71842C46.964 8.86407 47.4823 8.81551 47.9844 8.83169C49.1019 8.89642 50.187 9.38191 50.9968 10.1587C51.5151 10.6766 51.9362 11.3239 52.6002 11.6476C52.9565 11.8256 53.3614 11.8903 53.7501 12.0198C54.4141 12.2463 54.9972 12.6347 55.5803 13.0393C56.0014 13.3306 56.4548 13.6705 56.5844 14.1721C56.7464 14.8842 56.1633 15.5477 55.5803 15.9847C54.9972 16.4378 54.317 16.9071 54.2036 17.6353C54.1226 18.1208 54.317 18.6711 54.0255 19.0757C53.7501 19.4641 53.1347 19.545 52.9727 19.9981C52.8108 20.4674 53.3614 20.9367 53.8635 20.9852C54.3656 21.0338 54.8676 20.8558 55.3697 20.9043C55.7422 20.9367 56.0823 21.0824 56.4224 21.2118C57.5238 21.6326 58.7061 21.843 59.8884 21.8106C60.2447 21.8106 60.6334 21.7621 60.8602 21.5031C61.0059 21.3575 61.0869 21.1633 61.2327 21.0338C61.7995 20.4998 62.6903 21.2766 63.4677 21.1633C63.4515 20.694 63.8402 20.2894 64.2613 20.0628C64.6824 19.8524 65.1521 19.7391 65.5732 19.4964C66.3992 19.0271 66.8527 18.0723 67.047 17.1498C67.2576 16.2112 67.2414 15.2402 67.4195 14.3016C67.4411 14.1937 67.4627 14.0804 67.4843 13.9618C68.8124 14.1236 70.0757 14.9651 70.6102 16.195C70.7235 16.4216 70.8045 16.6967 70.7073 16.9233Z" fill="#F1F1F1" stroke="#BABABA" stroke-width="1.18548" stroke-linecap="round" stroke-linejoin="round"/>
</svg>
