<svg width="15" height="7" viewBox="0 0 15 7" fill="none" xmlns="http://www.w3.org/2000/svg">
<path d="M0.608725 4.32949C0.657313 4.55606 0.803046 4.76644 0.981201 4.92827C1.15936 5.0901 1.40231 5.23576 1.64525 5.23576C1.95298 5.23576 2.21213 5.04156 2.47126 4.87972C3.08671 4.49133 3.8155 4.28095 4.54432 4.26477C4.96542 4.26477 5.41892 4.32949 5.77523 4.57224C5.98578 4.71789 6.16392 4.92827 6.40686 5.05774C6.73078 5.23575 7.13571 5.23575 7.49202 5.33285C7.89692 5.42995 8.25317 5.64034 8.64187 5.75362C9.06297 5.8669 9.51647 5.8669 9.95376 5.85072C10.9363 5.81835 11.9189 5.79138 12.9015 5.7698C13.2902 5.75362 13.7275 5.72125 13.9704 5.41377C14.1486 5.1872 14.1647 4.86354 14.1485 4.57224C14.1485 4.24858 14.1486 3.92491 14.0352 3.63362C13.7922 3.03484 13.193 2.67881 12.6261 2.35515C12.0754 2.06385 11.5302 1.76716 10.9903 1.46508C10.4882 1.18996 9.9862 0.914843 9.43554 0.753011C8.88488 0.574996 8.28562 0.526448 7.73496 0.704463C7.50822 0.785379 7.28143 0.914847 7.03849 0.97958C6.48782 1.15759 5.87239 1.0605 5.35412 1.30324C4.49573 1.70782 4.2042 2.8892 3.32962 3.24523C3.0057 3.37469 2.64942 3.37469 2.3093 3.37469C1.96379 3.37469 1.61821 3.38008 1.2727 3.39087C1.02976 3.39087 0.916449 3.48797 0.770685 3.66599C0.624921 3.844 0.560137 4.10293 0.608725 4.32949Z" fill="#F1F1F1" stroke="#BABABA" stroke-width="1.18548" stroke-linecap="round" stroke-linejoin="round"/>
</svg>
