<svg width="31" height="33" viewBox="0 0 31 33" fill="none" xmlns="http://www.w3.org/2000/svg">
<path d="M29.0783 23.647C29.0567 23.7656 29.0351 23.8789 29.0135 23.9868C28.8353 24.9255 28.8515 25.8964 28.641 26.835C28.4466 27.7575 27.9931 28.7123 27.1671 29.1816C26.746 29.4244 26.2764 29.5376 25.8553 29.748C25.4342 29.9746 25.0454 30.3792 25.0616 30.8485C24.2842 30.9618 23.3935 30.185 22.8266 30.719C22.6809 30.8485 22.5999 31.0427 22.4541 31.1883C22.2274 31.4473 21.8387 31.4958 21.4824 31.4958C20.3 31.5282 19.1177 31.3178 18.0164 30.897C17.6763 30.7676 17.3362 30.6219 16.9636 30.5895C16.4616 30.541 15.9595 30.719 15.4574 30.6705C14.9554 30.6219 14.4047 30.1526 14.5667 29.6833C14.7286 29.2302 15.3441 29.1493 15.6194 28.7609C15.9109 28.3563 15.7166 27.806 15.7975 27.3205C15.9109 26.5923 16.5911 26.123 17.1742 25.6699C17.7573 25.2329 18.3403 24.5694 18.1783 23.8574C18.0488 23.3557 17.5953 23.0158 17.1742 22.7245C16.5911 22.32 16.0081 21.9315 15.344 21.705C14.9553 21.5755 14.5505 21.5108 14.1942 21.3328C13.5301 21.0091 13.109 20.3618 12.5907 19.8439C11.7809 19.0671 10.6958 18.5816 9.5783 18.5169C9.07622 18.5007 8.55793 18.5493 8.05585 18.4036C7.56997 18.2742 7.1489 17.9505 6.744 17.6268C5.57789 16.7098 4.43875 15.7658 3.32663 14.7948C2.09573 13.7429 0.816258 12.432 0.621906 10.8784C0.589514 10.6627 0.584099 10.4469 0.605694 10.2311C0.62189 9.92363 0.686698 9.61613 0.751482 9.32483C0.859455 8.89328 0.962014 8.46173 1.05919 8.03018C1.26974 7.09155 1.39931 6.12055 1.78801 5.23048C2.16052 4.40514 2.67879 3.64453 3.24565 2.93247C3.55337 2.54408 3.87731 2.17185 4.3146 1.94528C5.43212 1.31414 6.84117 1.75109 8.07206 1.42743C8.50935 1.31415 8.91426 1.10376 9.33536 0.941932C10.7768 0.407887 12.445 0.488827 13.8379 1.16852C14.5829 1.54073 15.2469 2.07476 15.9109 2.56025C16.0567 2.67353 16.2511 2.72209 16.4292 2.68973C16.5048 2.66815 16.5642 2.64118 16.6073 2.60881C16.6721 2.83537 16.7045 3.06193 16.7045 3.2885C16.7207 3.96819 16.8503 4.6479 17.1742 5.24668C17.2174 5.33299 17.2552 5.41927 17.2876 5.50559C17.4171 5.92635 17.3686 6.37949 17.3362 6.81644C17.3038 7.28036 17.2714 7.74966 17.239 8.22437C17.2066 8.53185 17.1742 8.85552 17.0608 9.163C16.9637 9.40575 16.8179 9.61612 16.7207 9.87505C16.4454 10.668 16.9475 11.5257 17.4334 12.2216C17.6601 12.5615 17.9192 12.9175 18.2755 13.1117C18.648 13.3221 19.1663 13.2897 19.4093 12.9499C19.5064 12.8042 19.555 12.6424 19.636 12.4806C19.9275 12.0112 20.5592 11.9303 21.1098 11.8979C21.9358 11.8494 22.8428 11.8171 23.5392 12.254C24.2843 12.7233 24.6568 13.5972 24.8511 14.4549C25.0617 15.3126 25.1426 16.2027 25.5313 16.9957C25.8877 17.7401 26.7461 18.4198 27.5235 18.0961C28.0417 17.8857 28.3818 17.2708 29.0783 17.465C29.2726 17.5297 29.4508 17.643 29.5965 17.7887C29.9366 18.1609 30.0338 18.6625 30.05 19.148C30.0986 20.6854 29.4022 22.1419 29.0783 23.647Z" fill="#F1F1F1" stroke="#BABABA" stroke-width="1.18548" stroke-linecap="round" stroke-linejoin="round"/>
</svg>
