<svg width="103" height="76" viewBox="0 0 103 76" fill="none" xmlns="http://www.w3.org/2000/svg">
<path d="M101.883 46.3118C101.559 45.9072 101.04 45.7131 100.522 45.616C100.15 45.535 99.7771 45.4865 99.3884 45.4541C98.5624 45.3732 97.7364 45.2761 96.9104 45.3408C96.6189 45.3732 96.4245 45.0819 96.5541 44.823C96.6189 44.7097 96.6837 44.5964 96.7484 44.4831C96.8942 44.1757 96.9428 43.7549 96.6512 43.5769C96.1816 43.2856 95.6795 44.0947 95.1126 44.0462C94.8697 44.0138 94.6753 43.8196 94.4972 43.6416C93.1205 42.3146 91.1932 41.6349 89.8328 40.2755C89.4926 39.9357 89.1849 39.5473 88.78 39.2721C88.3913 39.0132 87.8568 38.8676 87.4195 39.0779C87.1442 39.2236 86.9336 39.4825 86.6421 39.5311C86.4154 39.5796 86.2048 39.4987 86.0105 39.3854C85.8485 39.2883 85.638 39.3531 85.557 39.5311C85.476 39.7414 85.2331 39.8224 85.0549 39.6767C84.5529 39.2721 84.2451 38.6248 83.9374 38.0422C83.5649 37.3463 82.998 36.6019 82.2044 36.5372C81.589 36.4886 81.0059 36.877 80.3905 36.9418C79.775 37.0227 79.1596 36.7799 78.5765 36.5372C78.0691 36.3322 77.5562 36.1218 77.0379 35.906C76.9893 35.8899 76.9569 35.8737 76.9083 35.8413C76.8274 35.7442 76.876 35.5662 76.9893 35.4853C77.0865 35.4367 77.1999 35.4205 77.3132 35.4205C77.5238 35.4205 77.7019 35.2749 77.7343 35.0645C77.7775 34.633 77.8261 34.2014 77.8801 33.7699C77.8963 33.608 77.9125 33.4462 77.8477 33.2844C77.7344 33.0092 77.378 32.9121 77.0703 32.896C76.6978 32.8798 76.3091 32.9283 76.0176 32.6694C75.8556 32.5076 75.807 32.2486 75.9528 32.0868C76.0661 31.925 76.2605 31.9412 76.4225 31.9573C77.2215 32.0329 78.0151 32.103 78.8033 32.1677C78.9328 32.1839 79.0624 32.2001 79.1758 32.2648C79.273 32.3134 79.3539 32.3943 79.4511 32.4428C79.5807 32.5076 79.7102 32.4914 79.856 32.4752C80.5686 32.4105 81.2759 32.3457 81.9777 32.281C82.0911 32.281 82.2044 32.2648 82.2854 32.1839C82.3826 32.0868 82.3664 31.9088 82.2854 31.7955C82.1882 31.666 82.0587 31.6175 81.9291 31.5528C81.5242 31.3909 81.1031 31.2776 80.7954 30.9863C80.6172 30.8245 80.4877 30.5979 80.2771 30.4685C80.0342 30.3228 79.7427 30.3228 79.4673 30.3228C78.7223 30.3228 77.9827 30.3228 77.2484 30.3228C76.9407 30.339 76.5196 30.2743 76.5034 29.9183C76.4873 29.7402 76.6006 29.5622 76.7626 29.4813C77.7019 28.9473 78.7871 28.6722 79.8722 28.7045C80.099 28.7207 80.3419 28.7369 80.5686 28.6721C80.7954 28.6074 81.0059 28.4294 81.0383 28.1866C81.0545 27.9601 80.8925 27.7659 80.7306 27.5879C80.3743 27.1887 80.0018 26.8003 79.6131 26.4227C79.2244 26.0505 78.8195 25.6783 78.3012 25.4841C77.8963 25.3384 77.459 25.3384 77.0379 25.3222C76.9407 25.3222 76.8435 25.3222 76.7626 25.3708C76.6816 25.4193 76.6168 25.5164 76.5682 25.6135C76.4386 25.8077 76.2605 25.9534 76.0823 26.099C74.8028 27.1024 73.5234 28.1381 72.0333 28.7854C71.8876 28.8502 71.7256 28.8502 71.5961 28.7854C71.2559 28.5912 71.4503 28.1543 71.3207 27.863C71.2397 27.7173 71.094 27.6202 70.9968 27.4908C70.7539 27.1671 70.8834 26.6493 71.1749 26.358C71.4665 26.0667 71.8876 25.921 72.2763 25.7915C73.8635 25.2737 75.4507 24.7612 77.0379 24.2541C77.1513 24.2218 77.2484 24.1894 77.3294 24.1247C77.5238 23.9628 77.5238 23.6392 77.4104 23.4126C77.2808 23.2022 77.0703 23.0404 76.8435 22.9109C75.2887 21.9561 73.4424 21.503 71.6284 21.6163C71.5637 21.6163 71.0292 21.6972 71.0292 21.7134C70.986 21.7134 70.9482 21.7188 70.9158 21.7295C70.7053 21.7943 70.5271 21.9561 70.3166 22.037C70.1222 22.118 69.9279 22.1989 69.7335 22.2798C69.361 22.4254 68.9885 22.6358 68.778 22.9918C68.5836 23.3479 68.5836 23.8334 68.2759 24.1085C68.0491 24.3189 67.6928 24.3512 67.4175 24.2218C67.1421 24.0923 66.9478 23.8334 66.8506 23.5583C66.8344 23.4612 66.8183 23.3641 66.8344 23.2832C66.883 23.1699 66.9802 23.089 67.0936 23.0404C67.5632 22.7815 68.1139 22.7006 68.5674 22.4093C68.8427 22.2151 69.0533 21.9561 69.3124 21.7619C69.5877 21.5515 69.8955 21.4221 70.1708 21.2279C70.4461 21.0337 70.6891 20.7586 70.7053 20.4187C70.7053 20.3216 70.6891 20.2083 70.6081 20.1436C70.5433 20.0951 70.4785 20.0789 70.3976 20.0627C69.9279 19.9818 69.3934 19.9009 69.0209 20.2083C68.9075 20.3054 68.8104 20.4349 68.697 20.5482C68.5674 20.6777 68.3892 20.7748 68.2273 20.8719C67.5362 21.271 66.8452 21.6702 66.1542 22.0694C65.9274 22.1989 65.6683 22.3445 65.393 22.296C65.231 22.2636 65.0853 22.1665 65.0367 22.0047C64.9719 21.7781 65.1339 21.5839 65.2958 21.4383C65.7655 21.0013 66.2676 20.6291 66.8506 20.3702C67.1583 20.2407 67.4823 20.1436 67.7738 19.9656C68.0653 19.7714 68.3245 19.4963 68.3731 19.1564C68.4217 18.8328 68.2597 18.5091 68.0329 18.2825C67.6604 17.9103 67.1422 17.7323 66.7373 17.4572C66.5753 17.3709 66.4133 17.2792 66.2514 17.1821C65.5387 16.8908 64.8423 16.3567 64.0487 16.1949C63.5466 16.0978 62.996 16.1464 62.5911 16.4538C62.1862 16.7775 61.9918 17.2792 61.6841 17.6676C61.6031 17.7809 61.5059 17.878 61.3764 17.9427C61.1658 18.0398 60.9067 17.9912 60.68 17.8941C60.1131 17.6352 59.7244 17.0526 59.1089 16.8908C58.7526 16.7775 58.3477 16.8422 57.9914 16.6966C57.7485 16.5995 57.6189 16.3729 57.5379 16.1302C57.4731 15.8712 56.8739 15.8712 56.8739 15.8712C56.5824 15.9036 56.307 16.0331 56.1127 16.2273C55.9183 16.4376 55.7888 16.6966 55.5944 16.907C55.4001 17.1012 55.1085 17.263 54.8332 17.1659C54.5741 17.0526 54.4607 16.7451 54.2663 16.5347C54.2016 16.4538 54.1044 16.3891 54.0558 16.292C53.9748 16.0978 54.1368 15.8551 54.3311 15.7741C54.5255 15.677 54.7522 15.6609 54.9628 15.6123C55.2705 15.5152 55.5458 15.3048 55.7078 15.0297C55.7887 14.9164 55.8374 14.787 55.9345 14.6899C56.2261 14.4147 56.6957 14.5766 57.0844 14.4957C57.3598 14.4148 57.6027 14.1882 57.6837 13.9131C57.7647 13.6218 57.6837 13.2981 57.4732 13.0877C57.3112 12.9259 57.1007 12.8288 56.8739 12.7479C56.5824 12.6346 56.2746 12.5213 55.9507 12.5051C55.643 12.4889 55.3029 12.5699 55.0761 12.7964C54.898 12.9745 54.817 13.201 54.7036 13.4114C54.4607 13.8645 54.0882 14.2367 53.6347 14.4795C53.084 14.7708 52.42 14.8841 52.0313 15.3534C51.9017 15.499 51.7721 15.7094 51.5778 15.7418C51.3349 15.7741 51.1567 15.5314 51.0434 15.321C50.903 15.0944 50.7626 14.8625 50.6222 14.6251C50.4927 14.3986 50.3469 14.1396 50.3469 13.8645C50.3631 13.5732 50.5575 13.2981 50.8004 13.1363C51.0434 12.9583 51.3349 12.8774 51.6264 12.7964C52.9707 12.489 54.3959 12.408 55.643 11.8093C55.9831 11.6636 56.3232 11.4532 56.2746 10.9192C56.2584 10.6603 56.1451 10.4175 55.9669 10.2395C55.562 9.80254 54.9466 9.62453 54.3473 9.62453C53.8129 9.62453 53.2784 9.75399 52.7601 9.88346C52.339 9.99135 51.9179 10.0992 51.4968 10.2071C51.0595 10.3042 50.6384 10.4175 50.2011 10.4499C49.8448 10.4822 49.4723 10.4499 49.116 10.4337C48.8029 10.4121 48.4898 10.3905 48.1766 10.369C47.9337 10.3528 47.6908 10.3366 47.4802 10.2233C47.2535 10.0777 47.1725 9.86728 47.2049 9.62453C47.2535 9.34942 47.3021 9.05811 47.3344 8.783C47.383 8.50788 47.2859 8.2166 47.1401 7.99003C46.9458 7.69874 46.6866 7.47217 46.4113 7.2456C46.2169 7.08377 46.0172 6.91654 45.812 6.74392C45.6987 6.64682 45.5691 6.51735 45.5853 6.37171C45.6177 6.17751 45.8444 6.09659 46.0388 6.09659C46.6866 6.06422 47.3344 6.43644 47.6584 7.01903C47.8041 7.29415 47.8851 7.61782 47.9823 7.9253C48.1119 8.31369 48.3062 8.70208 48.7111 8.86391C48.8245 8.92864 48.9541 8.94483 49.0836 8.92865C49.6667 8.83155 49.6505 8.20041 49.8124 7.86056C49.861 7.7311 49.9096 7.58544 49.9096 7.42361C49.9258 7.09995 50.1363 6.63063 49.9582 6.25842C49.7638 5.85384 49.1646 5.72438 49.0189 5.28743C48.8893 4.85048 49.2942 4.36499 49.0998 3.96041C49.0189 3.81477 48.8731 3.70148 48.7273 3.60438C48.3494 3.32387 47.9931 3.01639 47.6584 2.68194C47.3021 2.32591 46.9619 1.92132 46.4761 1.72713C46.1197 1.58148 45.7148 1.58148 45.3099 1.58148C45.0508 1.58148 44.7917 1.58148 44.5325 1.63003C44.3706 1.6624 44.1924 1.69477 44.0305 1.74332C43.631 1.86199 43.2261 1.97527 42.8158 2.08316C42.6214 2.13171 42.3947 2.19644 42.2813 2.37445C42.1517 2.60102 42.2327 2.9085 42.4109 3.1027C42.5728 3.31308 42.8158 3.44255 42.9939 3.62056C43.1883 3.79858 43.3502 4.05751 43.2854 4.31644C43.2531 4.41354 43.2045 4.51064 43.1073 4.55919C43.0749 4.58076 43.0371 4.59155 42.9939 4.59155C42.8481 4.6401 42.6862 4.65629 42.5405 4.65629C41.7307 4.59156 41.2933 3.97659 40.6455 3.66911C40.3864 3.53964 40.0463 3.55584 39.7709 3.55584C39.3822 3.56662 38.9935 3.57201 38.6048 3.57201C38.4267 3.5882 38.2323 3.5882 38.0703 3.52347C37.9084 3.44255 37.7464 3.2969 37.7464 3.11889C37.7464 2.92469 37.8922 2.77904 38.0218 2.64957C38.2809 2.39064 38.54 2.13171 38.7992 1.87278C39.0583 1.61385 39.366 1.25782 39.1069 0.885608C38.9773 0.69141 38.7344 0.578119 38.5076 0.594303C37.5845 0.626669 36.6451 0.739951 35.7381 0.917966C35.2685 0.998882 34.815 1.11217 34.3939 1.35491C33.989 1.58148 33.6326 1.95369 33.5355 2.40682C33.3897 3.02178 33.6812 3.65293 33.6974 4.28408C33.6974 4.64011 33.6164 5.01232 33.7298 5.33599C33.7784 5.43309 33.827 5.53018 33.8756 5.64346C34.0861 6.16132 33.8432 6.79247 34.0537 7.31033C34.2319 7.73109 34.653 7.99002 35.0741 8.11949C35.5114 8.26514 35.9649 8.2975 36.386 8.44315C36.6289 8.52407 36.8556 8.63736 37.0824 8.71828C37.8436 8.99339 38.6696 9.00958 39.4794 9.04194C39.8033 9.04194 40.1434 9.04193 40.4674 8.94483C40.7265 8.84773 40.9694 8.66972 41.2124 8.52407C42.0707 8.05476 43.0749 7.99003 44.0467 7.94148C44.5001 7.92529 44.986 7.90912 45.3423 8.23278C45.5205 8.39461 45.6177 8.66972 45.5367 8.89629C45.4395 9.18759 45.1804 9.25232 44.9374 9.30087C44.3112 9.43034 43.685 9.52203 43.0587 9.57598C42.6376 9.62453 42.2165 9.64071 41.844 9.80254C41.4553 9.96438 41.1152 10.3042 41.0828 10.725C41.0342 11.0972 41.2448 11.4371 41.4067 11.7931C41.4877 12.0035 41.5525 12.2462 41.5201 12.4728C41.5039 12.667 41.3743 12.8126 41.3095 12.9744C41.2286 13.1363 41.1476 13.3143 41.099 13.4761C41.0504 13.7189 41.2286 13.9131 41.4391 14.0425C41.6875 14.1828 41.9358 14.3231 42.1841 14.4633C42.3461 14.5604 42.5242 14.6575 42.6376 14.8193C42.7672 14.965 42.8158 15.1916 42.7186 15.3534C42.6052 15.58 42.2975 15.6123 42.0384 15.6123C41.925 15.6123 41.8116 15.6123 41.7144 15.5799C41.4229 15.4505 41.3419 15.0621 41.1314 14.8355C40.9046 14.6089 40.5483 14.5442 40.2244 14.5604C39.9005 14.5604 39.5766 14.6251 39.2688 14.5604C39.2041 14.5442 39.1393 14.528 39.0907 14.4795C39.0583 14.4309 39.0421 14.3662 39.0421 14.3015C39.0745 14.0749 39.3012 13.9131 39.528 13.816C39.8033 13.6865 40.1272 13.5894 40.2082 13.2334C40.2406 13.023 40.1758 12.8288 40.0625 12.667C39.7871 12.3271 39.366 12.2138 38.9611 12.1167C38.621 12.052 38.2647 11.9711 37.9894 11.7445C37.9084 11.6636 37.8274 11.5827 37.7302 11.5503C37.633 11.5342 37.5359 11.5665 37.4549 11.5989C37.212 11.7283 37.0338 11.9387 36.7909 12.0682C36.5479 12.1977 36.1754 12.1815 36.0782 11.9225C36.0458 11.8578 36.0458 11.7769 35.9973 11.7122C35.9001 11.6151 35.7381 11.6636 35.6247 11.7607C35.0417 12.1977 35.1065 13.1363 34.6206 13.7027C34.4424 13.9131 34.1995 14.0587 33.9728 14.2044C33.5948 14.4201 33.2116 14.6413 32.8229 14.8679C32.7419 14.9003 32.6609 14.9488 32.5799 14.9326C32.4018 14.8841 32.418 14.6089 32.4989 14.4471C32.7419 13.9293 33.1629 13.5247 33.5193 13.0715C33.8918 12.6346 34.1995 12.1005 34.1833 11.5341C34.1671 11.4856 34.1671 11.437 34.1347 11.4047C34.1023 11.3561 34.0375 11.3561 33.9728 11.3399C33.8108 11.3238 33.6327 11.34 33.4707 11.4047C32.8391 11.6474 32.5151 12.1815 32.1102 12.6346C31.9644 12.8126 31.7701 12.9745 31.5596 12.9259C31.349 12.8612 31.2518 12.6022 31.268 12.3919C31.3166 11.9873 31.6081 11.6474 31.9159 11.3885C32.4503 10.9192 33.0982 10.5793 33.7946 10.3851C34.0052 10.3366 34.1995 10.2395 34.3291 10.0777C34.7178 9.62452 34.3939 9.20376 34.1023 8.86391C33.7622 8.45933 33.4059 8.03858 33.2601 7.52072C33.163 7.1485 33.1468 6.71155 32.8552 6.45262C32.6771 6.29079 32.4341 6.24225 32.2074 6.14515C31.9321 6.03186 31.6405 5.72438 31.9159 5.40071C31.5596 4.33262 31.1385 2.98942 30.0533 2.56865C29.697 2.43919 29.3245 2.42301 28.952 2.39064C27.0247 2.30973 24.9354 2.245 23.3158 3.31309C23.2024 3.394 23.089 3.47492 23.0405 3.60438C23.0081 3.73385 23.0404 3.86332 22.9919 3.96041C22.9109 4.1708 22.6518 4.21934 22.4412 4.25171L20.7083 4.42972C20.4653 4.4459 20.271 4.60774 20.2224 4.8343C20.109 5.40071 21.0807 5.48164 21.016 6.06423C20.9836 6.32316 20.7082 6.50117 20.4491 6.45262C19.7527 6.35552 19.5583 5.65964 19.0238 5.36834C18.7971 5.25506 18.5218 5.23888 18.3274 5.36834C18.1007 5.51399 18.1007 5.70819 18.1331 5.88621C18.1817 6.22606 18.3598 6.54973 18.6352 6.79247C19.2992 7.37507 20.1738 7.42361 20.9998 7.31033C21.4533 7.2456 21.9391 7.13232 22.3278 7.42361C22.5222 7.56926 22.6194 7.84439 22.5384 8.07095C22.425 8.32988 22.1497 8.36223 21.9229 8.37842C21.0646 8.45933 20.1576 8.52408 19.3478 8.23278C18.8457 8.05477 18.4084 7.74727 17.9063 7.55308C17.4043 7.37506 16.805 7.32652 16.3839 7.66637C15.979 8.00622 15.898 8.62117 15.9952 9.13904C16.0924 9.67308 16.3353 10.1586 16.4649 10.6764C16.5297 10.9677 16.5945 11.3076 16.8536 11.4532C16.9832 11.518 17.1451 11.518 17.3071 11.518C17.7606 11.518 18.2195 11.518 18.6838 11.518C18.8133 11.518 18.9591 11.5341 19.0563 11.6151C19.202 11.7445 19.1696 11.9873 19.2182 12.1653C19.3478 12.7155 20.0766 12.8126 20.5301 13.1201C20.8378 13.3305 21.0483 13.6703 21.0969 14.0264C21.1455 14.3662 20.8054 14.6251 20.4977 14.4795C19.8822 14.1882 19.3316 13.7674 18.8943 13.2496C18.6514 12.9745 18.3274 12.7479 17.9549 12.6508C16.8374 12.3595 16.3839 13.3952 16.3029 14.2691C16.2058 15.1754 16.4649 16.292 17.3395 16.5671C18.0845 16.7937 18.9267 16.3082 19.6393 16.6157C19.866 16.7289 20.0766 16.9717 19.9794 17.1983C19.947 17.2954 19.866 17.3763 19.8013 17.4572C19.5097 17.8456 19.6393 18.3958 19.7689 18.8651C19.9146 19.3992 20.0442 19.9494 19.8175 20.4835C19.7041 20.7747 19.4611 21.0175 19.1534 21.0984C18.2464 21.325 17.6958 20.1112 16.805 19.917C15.9628 19.7228 15.2664 20.5158 14.5862 21.0499C14.3756 21.2117 14.1489 21.3573 13.8735 21.325C13.7278 21.3088 13.582 21.2279 13.5172 21.0822C13.4038 20.8718 13.5334 20.6615 13.663 20.4996C14.2137 19.8038 15.0397 19.3344 15.9304 19.2535C16.2705 19.205 16.6107 19.2212 16.9346 19.1241C17.2747 19.027 17.5824 18.7518 17.5986 18.412C17.5986 18.1207 17.4043 17.878 17.1937 17.6676C16.4649 16.9555 15.4769 16.5833 14.6509 15.9845C13.8087 15.4019 13.0961 14.4309 13.3067 13.4276C13.4363 12.7964 13.9221 12.2138 13.7601 11.5989C13.5982 10.9839 12.8694 10.6926 12.5454 10.1424C12.1729 9.52743 12.3997 8.73446 12.7236 8.08713C13.3391 6.88957 14.327 5.87003 15.5093 5.19033C15.7361 4.89904 15.979 4.62392 15.979 4.62392C16.6269 3.83095 17.9387 3.91187 18.6189 3.15126C18.7971 2.94087 18.9105 2.61721 18.7647 2.39064C18.7539 2.36907 18.7377 2.34748 18.7161 2.32591C18.4408 2.00224 17.9873 1.8566 17.5662 1.87278L11.5089 2.16407C11.0554 2.19644 10.6019 2.21262 10.1646 2.32591C9.75974 2.43919 9.38726 2.61721 9.01475 2.79522C7.68668 3.44255 6.29382 4.13843 5.45163 5.35217C5.32206 5.56255 5.19249 5.78911 4.99814 5.93476C4.70661 6.16132 4.3017 6.1775 3.97778 6.33934C3.55669 6.54972 3.26517 6.98667 3.10321 7.4398C2.94125 7.87675 2.89264 8.36224 2.79547 8.83155C2.60111 9.81873 2.22861 10.7573 1.71034 11.5989C1.37023 12.1653 0.949146 12.6831 0.754794 13.3143C0.60903 13.7998 0.609007 14.3177 0.609007 14.8193C0.598209 15.7148 0.592834 16.6103 0.592834 17.5057C0.592834 17.8294 0.592819 18.1854 0.738583 18.4767C0.997718 19.0431 1.66174 19.2697 2.26099 19.383C2.98981 19.4963 3.71863 19.5286 4.44745 19.4639C5.14388 19.4154 5.95368 19.383 5.95368 19.383C7.03882 19.3183 8.12395 19.3668 9.19288 19.5286C9.45202 19.5772 9.67876 19.739 9.75974 19.9818C9.9217 20.4511 9.48444 20.7262 9.09573 20.8719C7.78386 21.3412 6.31 21.2602 5.0629 20.6615C4.62561 20.4511 4.18832 20.176 3.68625 20.3702C3.15178 20.5806 2.89266 21.1793 2.97364 21.7457C3.1356 22.6844 3.9292 23.2508 4.67422 23.7524C6.53676 24.9986 8.8042 26.3094 10.8773 25.4517C11.2498 25.306 11.6223 25.0795 12.0272 25.1604C12.4807 25.2575 12.756 25.7106 13.0637 26.0667C13.7116 26.8273 14.7481 27.248 15.7523 27.1509C16.2381 27.1024 16.7078 26.9405 17.2099 26.9082C18.7161 26.7787 20.1252 27.8144 21.6476 27.7982C23.0405 27.7821 24.4171 26.9082 25.729 27.3613C26.5226 27.6364 27.1704 28.3808 28.0126 28.3647C28.6119 28.3647 29.114 27.9601 29.697 27.8468C31.0089 27.5717 32.1588 28.6883 33.0982 29.6593C34.0861 30.7112 35.5762 31.7631 36.8556 30.8893C37.2282 30.6303 37.4387 30.161 37.2929 29.7241C36.969 28.7854 35.6247 29.0767 34.653 28.9634C33.9242 28.8664 33.2439 28.3809 32.8876 27.7335C32.6609 27.329 33.0172 26.8596 33.4707 26.9405C34.3939 27.1024 35.2846 27.5879 36.1754 27.9763C37.3577 28.4941 38.8316 28.8502 39.9005 28.0734C40.0301 27.9763 40.1596 27.8468 40.2406 27.7012C40.6455 26.9567 39.9005 26.2609 39.3336 25.7268C38.7992 25.2089 38.3943 24.2379 39.0097 23.8334C39.2203 23.1375 40.3702 23.5259 40.6779 24.2056C40.9856 24.8691 41.0828 25.743 41.7307 26.0667C42.2165 26.3094 42.8806 26.1476 43.2531 26.5522C43.7551 27.1024 43.2369 28.2352 43.9009 28.575C44.6783 28.9796 45.5367 27.4422 46.2655 27.9277C46.8162 28.2999 46.3465 29.2386 46.719 29.7564C46.8648 29.9506 47.1077 30.0639 47.3183 30.161C48.29 30.5602 49.2564 30.9648 50.2173 31.3748C50.3955 31.4395 50.5737 31.5204 50.7032 31.6822C51.2539 32.3457 49.9744 33.2682 49.1808 33.0578C48.7759 32.9445 48.3386 32.9607 47.9661 33.1873C46.4275 34.1259 47.9499 35.4691 49.0836 35.2587C50.0068 35.0807 50.7194 34.3686 51.594 34.0126C52.2094 33.7537 53.0354 33.8022 53.5213 34.1744C53.7804 34.3848 53.6509 34.8218 53.3108 34.8703C52.7439 34.9674 52.2094 35.2102 52.1446 35.7604C52.0961 36.2459 52.4686 36.6666 52.9544 36.7314C53.6185 36.8285 54.1368 36.5048 54.5903 36.1002C54.8332 35.8899 55.2057 35.9708 55.3191 36.2621L55.3353 36.2944C55.4487 36.6019 55.7402 36.7961 56.0641 36.7637C56.3556 36.7314 56.6958 36.8123 56.9549 36.9256C59.6596 38.0746 61.7651 40.5506 62.4615 43.3989C62.5263 43.6254 62.5749 43.8682 62.5101 44.0947C62.4291 44.3375 62.2186 44.5317 62.0242 44.7097C60.1671 46.3496 58.3045 47.9949 56.4366 49.6456C56.2098 49.8398 55.9831 50.0502 55.9021 50.3253C55.4811 51.5876 58.1048 52.6233 57.3598 53.7237C57.2302 53.9018 57.052 54.0312 56.8415 54.1121C55.0599 54.7595 53.2136 55.2611 51.3349 55.5848C50.7032 55.6981 50.0392 55.7952 49.4238 55.6172C48.2091 55.2611 47.2697 53.8856 46.0064 54.0636C44.9213 54.2092 44.3544 55.3744 43.7066 56.1188C43.5446 56.2969 43.3664 56.4749 43.1721 56.6367C43.0101 56.75 42.8643 56.8309 42.67 56.8956C42.4271 56.9927 42.3461 57.3811 42.2489 57.5915C41.9898 58.1256 42.0708 58.7729 42.3623 59.2908C42.6376 59.8086 43.0911 60.197 43.577 60.553C44.6297 61.3298 45.893 61.8962 47.2049 61.9448C47.8527 61.9772 48.5492 61.8477 49.0189 61.3946C49.1808 61.2327 49.3104 61.0385 49.4885 60.8929C50.023 60.4398 50.8328 60.5045 51.4806 60.2294C51.6912 60.1485 51.8855 60.019 52.1123 60.019C52.6143 60.019 52.9221 60.5692 53.3756 60.7634C53.829 60.9576 54.3635 60.7796 54.7846 60.5207C55.2057 60.2617 55.5944 59.9381 56.0641 59.7924C56.8091 59.5821 57.5865 59.8895 58.283 60.197C58.5421 60.3103 58.8174 60.4236 59.0604 60.5854C59.4815 60.8605 59.8054 61.2813 60.1131 61.6859C60.9877 62.8672 62.0728 64.1295 63.5467 64.1943C63.9192 64.2266 64.2917 64.1457 64.6804 64.1781C65.0853 64.1943 65.5225 64.3561 65.7169 64.7283C65.8303 64.9549 65.8141 65.23 65.6521 65.4242C65.4416 65.6831 65.1986 65.6184 64.9557 65.6184C64.3564 65.6508 63.8544 66.2657 63.9192 66.8483C64.0001 67.4471 64.648 67.9002 65.231 67.7707C65.5549 67.706 65.8465 67.4956 66.1704 67.4956C66.7211 67.5118 67.045 68.1106 67.1259 68.6446C67.2069 69.1949 67.1422 69.7613 67.4013 70.2468C67.7414 70.8779 68.4702 71.0883 69.2152 71.1692C69.5878 71.2016 69.944 70.975 70.0412 70.619C70.1546 70.2306 70.3651 69.8746 70.77 69.7289C71.0616 69.6156 71.3855 69.6642 71.677 69.7936C72.0819 70.004 72.3573 70.3763 72.5678 70.7808C72.6812 71.0398 72.8755 71.2663 73.1023 71.4282C74.5437 72.4639 76.2605 73.1112 78.0097 73.2569C78.7385 73.3054 79.4835 73.2892 80.1475 73.5805C80.9249 73.9204 81.5566 74.6324 82.3988 74.6648C82.6417 74.6648 82.8685 74.6162 83.1114 74.6162C83.5649 74.6324 83.9698 74.859 84.4071 74.9723C84.9092 75.1179 85.557 75.0856 85.7675 74.5353C85.8809 74.2602 85.8161 73.9689 85.6866 73.7262C85.4112 73.2407 84.9091 72.9979 84.4557 72.7228C83.8726 72.3668 83.3543 71.9298 82.917 71.4282C82.5283 70.9588 82.2044 70.4248 81.7509 70.004C80.8278 69.1301 79.5159 68.8388 78.4793 68.0944C78.0583 67.8031 77.7019 67.4309 77.3456 67.0749C76.9245 66.6433 76.4981 66.2172 76.0662 65.7964C75.8232 65.5375 75.5641 65.1814 75.7584 64.874C75.8556 64.7445 76.0176 64.6636 76.1795 64.6798C76.5034 64.6798 76.7464 64.8901 77.0055 65.052C77.7181 65.5213 78.5765 65.7479 79.3377 66.1848C79.8074 66.4599 80.2447 66.8159 80.6982 67.1396C81.9129 68.0135 83.3057 68.6446 84.7796 68.9845C85.0711 69.0492 85.395 69.0978 85.6704 69.2272C86.8041 69.6965 87.3547 71.0074 88.4237 71.6062C88.9905 71.946 89.7032 72.0269 90.351 71.8489C90.432 71.8327 90.513 71.8004 90.5454 71.7356C90.594 71.6709 90.5939 71.5738 90.5778 71.4929C90.4482 70.797 89.8813 70.2791 89.3793 69.7613C88.8934 69.2434 88.4075 68.5637 88.5856 67.8679C88.8772 66.6865 90.7883 66.3952 90.7397 65.052C90.7235 64.7769 90.6263 64.5017 90.4644 64.2752C90.0109 63.5955 89.2659 63.2718 88.6666 62.7701C88.0512 62.2685 87.5815 61.5888 87.3385 60.8282C87.2252 60.4398 87.1604 60.0352 86.9985 59.663C86.6098 58.7729 85.6866 58.1579 84.7148 58.1579C84.2775 58.1579 83.8402 58.2712 83.3867 58.255C82.9171 58.255 82.415 58.0608 82.2368 57.6239C82.1558 57.4135 82.0425 57.2031 81.8805 57.0575C81.0383 56.2699 80.2231 55.45 79.4349 54.5976C79.2567 54.4196 79.0624 54.1607 79.1758 53.9341C79.2406 53.8046 79.3863 53.7237 79.4835 53.6266C79.7426 53.3515 79.6617 52.9146 79.6293 52.5424C79.6293 52.4776 79.6293 52.3967 79.6617 52.3482C79.7264 52.2511 79.8722 52.2511 79.9856 52.2511C80.2933 52.2349 80.5848 52.0407 80.6982 51.7656C80.8116 51.4743 80.763 51.1344 80.5686 50.9079C80.2609 50.568 79.775 50.5357 79.4349 50.2444C79.2729 50.1149 79.1596 49.9531 79.192 49.7427C79.2243 49.5647 79.3539 49.3543 79.5321 49.2734C79.694 49.1924 79.9046 49.2248 80.0504 49.3381C80.1043 49.3813 80.153 49.4298 80.1961 49.4837C80.3743 49.6779 80.682 49.5808 80.7306 49.3219L80.8602 48.4642C80.8602 48.3833 80.8764 48.3024 80.925 48.2215C81.0059 48.092 81.1841 48.0596 81.346 48.092C81.6861 48.1567 81.9291 48.4642 82.0911 48.7717C82.2368 49.0953 82.334 49.4352 82.5284 49.7265C83.1276 50.5842 84.4071 50.6328 85.1683 51.361C85.5408 51.717 85.7513 52.2187 86.1562 52.5585C86.5935 52.9469 87.2576 53.1088 87.5815 53.6104C87.7434 53.8856 87.792 54.193 87.8568 54.5005C88.035 55.2449 88.5209 56.0379 89.2821 56.1027C89.606 56.135 89.9299 56.0379 90.2377 56.1188C90.6426 56.2321 90.8855 56.6043 91.1608 56.8956C91.7601 57.4782 92.6347 57.7857 93.4606 57.6562C93.5902 57.6401 93.736 57.6077 93.8169 57.5268C93.8979 57.4459 93.9303 57.3488 93.9627 57.2517C94.2543 56.1836 93.4445 55.0669 93.2987 53.9988C93.2339 53.5134 93.8493 53.2382 94.1895 53.5943C94.3676 53.7885 94.5782 53.9665 94.8373 53.9665C95.1612 53.9827 95.4204 53.7076 95.6633 53.4972C95.9063 53.2868 96.2626 53.0926 96.5379 53.2382C96.6998 53.3192 96.797 53.481 96.959 53.5134C97.2019 53.5781 97.4125 53.3192 97.4773 53.0764C97.5258 52.8337 97.4773 52.5586 97.5582 52.332C97.7364 51.7979 98.4652 51.4419 98.3518 50.8917C98.287 50.6166 98.0117 50.3738 98.2708 50.0825C98.368 49.9692 98.5138 49.9207 98.6596 49.9207C99.3722 49.9369 100.069 49.7265 100.668 49.3381C100.959 49.1601 101.251 48.9335 101.478 48.6584C101.704 48.3833 101.753 48.0434 101.915 47.736C101.996 47.5579 102.109 47.3961 102.142 47.1857C102.174 46.8782 102.077 46.5546 101.883 46.3118Z" fill="#F1F1F1" stroke="#BABABA" stroke-width="1.18548" stroke-linecap="round" stroke-linejoin="round"/>
</svg>
