<svg width="7" height="7" viewBox="0 0 7 7" fill="none" xmlns="http://www.w3.org/2000/svg">
<path d="M1.02739 2.66423C1.3999 2.66423 1.77246 2.6966 2.12877 2.82606C2.46888 2.95553 2.79277 3.19828 2.90614 3.55431C2.93854 3.66759 2.95475 3.78087 3.00334 3.87797C3.10051 4.08835 3.32727 4.18546 3.50543 4.33111C3.92652 4.65477 4.16942 5.15643 4.50953 5.56101C4.60671 5.67429 4.72011 5.80378 4.86587 5.86851C5.01164 5.91706 5.20596 5.91705 5.31933 5.81995C5.40031 5.75522 5.44891 5.64195 5.4975 5.54485C5.59468 5.31828 5.6919 5.07551 5.7081 4.83276C5.74049 4.59001 5.67566 4.31489 5.4975 4.13688C5.38413 4.03978 5.25461 3.97506 5.14124 3.91033C4.63916 3.6514 4.20181 3.19828 4.10463 2.63187C4.03985 2.25966 4.13705 1.83888 3.9751 1.48285C3.89411 1.30483 3.76452 1.143 3.61875 0.997353C3.52158 0.900254 3.42442 0.803163 3.31104 0.722247C3.11669 0.608965 2.87374 0.592773 2.64699 0.592773C2.46884 0.592773 2.30692 0.592766 2.12877 0.625132C1.46473 0.738414 0.865448 1.2239 0.638704 1.87123C0.638704 1.87123 0.395748 2.68041 1.02739 2.66423Z" fill="#F1F1F1" stroke="#BABABA" stroke-width="1.18548" stroke-linecap="round" stroke-linejoin="round"/>
</svg>
