<svg width="21" height="20" viewBox="0 0 21 20" fill="none" xmlns="http://www.w3.org/2000/svg">
<path d="M18.8279 13.0017C18.9142 13.3469 19.0006 13.6868 19.087 14.0212C18.5039 14.5553 17.8399 15.0246 17.192 15.4777C16.2095 16.179 15.2269 16.8748 14.2444 17.5653C13.8395 17.8404 13.4346 18.1317 12.9811 18.3421C12.4142 18.6011 11.7826 18.7143 11.1671 18.8114C9.79048 19.038 8.39762 19.1836 6.98857 19.216C6.69704 19.2322 6.38931 19.2322 6.09779 19.1351C5.75767 18.9894 5.49853 18.7143 5.23939 18.4554C4.381 17.5815 3.40928 16.8047 2.35654 16.1574C1.87066 15.8661 1.33616 15.591 0.753109 15.7366C0.720717 15.7474 0.688348 15.7582 0.655956 15.769C0.526388 14.4905 0.526373 13.1311 1.36856 12.2087C1.51433 12.0468 1.67629 11.9012 1.77346 11.707C2.0326 11.2053 1.72489 10.6066 1.62772 10.0401C1.40097 8.76167 2.34034 7.56411 2.5185 6.26945C2.58328 5.89724 2.58327 5.49265 2.79382 5.16899C3.06915 4.74822 3.70077 4.35986 3.45783 3.90673C3.37685 3.76108 3.19873 3.68015 3.08536 3.56687C2.66426 3.17847 2.79381 2.49878 3.06914 1.9971C3.16632 1.80291 3.28508 1.62488 3.42545 1.46305C3.80335 1.49542 4.18668 1.49542 4.57538 1.46305C4.72114 1.44687 4.85071 1.43067 4.98028 1.36594C5.12604 1.28502 5.207 1.13939 5.32037 1.02611C5.75766 0.572983 6.48651 0.492067 7.08576 0.702448C7.68501 0.896647 8.18709 1.30122 8.67297 1.7058C8.86732 1.86763 9.06168 2.02945 9.15885 2.25601C9.32081 2.62822 9.17503 3.06517 9.14264 3.46975C9.09405 3.89051 9.27219 4.40838 9.69329 4.44074C10.0334 4.47311 10.2764 4.13329 10.6003 4.02C10.8756 3.9229 11.1995 4.0038 11.3939 4.19799C11.5882 4.39219 11.6692 4.68351 11.896 4.82916C12.1389 5.00718 12.479 4.95863 12.7705 4.99099C13.8557 5.12046 14.5359 6.26946 15.5724 6.56076C15.7992 6.62549 16.0259 6.64169 16.2203 6.73879C16.4956 6.85207 16.7062 7.07862 16.9005 7.289C17.6239 8.05501 18.3474 8.821 19.0708 9.58701C19.2813 9.79739 19.4919 10.0402 19.5243 10.3314C19.6215 10.9788 18.8764 11.4319 18.7307 12.063C18.6659 12.3705 18.7469 12.6942 18.8279 13.0017Z" fill="#F1F1F1" stroke="#BABABA" stroke-width="1.18548" stroke-linecap="round" stroke-linejoin="round"/>
</svg>
