<svg width="23" height="14" viewBox="0 0 23 14" fill="none" xmlns="http://www.w3.org/2000/svg">
<path d="M21.6533 6.38037C21.6209 6.1538 21.5399 5.92724 21.3942 5.73304C20.8597 5.06953 20.0499 5.45792 19.3697 5.24754C19.0943 5.16663 18.8676 5.00479 18.6408 4.84296C18.1766 4.48693 17.7068 4.1363 17.2318 3.79106C16.8431 3.49976 16.4382 3.22465 15.9847 3.079C15.0939 2.82007 14.1545 3.19228 13.2962 3.54831L12.8265 3.74251C12.4864 3.88816 12.1948 3.45122 12.4539 3.19229C12.5835 3.06282 12.7293 2.94954 12.875 2.86862C13.0694 2.77152 13.2475 2.60969 13.3447 2.3993C13.6524 1.80053 13.1342 1.42832 12.6969 1.16939C12.292 0.942821 11.8871 0.700069 11.4336 0.619154C10.9639 0.538238 10.4457 0.635339 10.1379 0.975186C10.0084 1.12083 9.92743 1.29885 9.76547 1.42831C9.6197 1.55778 9.37673 1.59014 9.24716 1.44449C9.19857 1.37976 9.18241 1.31503 9.11763 1.26648C9.02045 1.18557 8.85846 1.26648 8.76128 1.3474C8.14583 1.76816 7.52499 2.19432 6.89874 2.62587C6.72059 2.75534 6.52627 2.8848 6.44529 3.09518C6.34811 3.28938 6.41283 3.58068 6.62338 3.66159C6.83393 3.74251 7.15786 3.58068 7.28743 3.77488C7.38461 3.90434 7.27122 4.09854 7.10926 4.16328C6.9635 4.21183 6.78534 4.17946 6.62338 4.16328C6.25087 4.11473 5.82982 4.14709 5.5383 4.40602C5.16579 4.71351 5.11722 5.40938 5.71647 5.55503C5.89462 5.60358 6.04034 5.74922 6.07273 5.92724C6.15371 6.28327 5.73266 6.36418 5.47353 6.2509C5.26298 6.13762 5.08476 5.9596 4.84182 5.89487C4.40453 5.79777 3.99966 6.20235 3.82151 6.60693C3.67574 6.94678 3.61099 7.30281 3.44903 7.62647C3.31946 7.85304 3.22229 8.09579 3.12511 8.33854C2.91456 8.8564 2.70398 9.34189 2.20191 9.73029C1.63505 10.1834 0.954815 10.5394 0.663287 11.2677C0.549915 11.6075 0.566127 11.9798 0.760478 12.2711C1.19777 12.8698 2.00752 12.6918 2.65536 12.4814C3.36799 12.2549 4.08064 12.0283 4.79326 11.8017C5.21436 11.6561 5.65167 11.5266 6.02418 11.2515C6.13755 11.1706 6.25087 11.0735 6.38044 11.0088C6.62338 10.8793 6.9311 10.8793 7.19024 10.8307C7.40619 10.7984 7.62213 10.766 7.83808 10.7336C8.5831 10.6689 9.36052 10.4747 10.1217 10.5718C10.7696 10.6527 11.4174 10.9279 12.049 10.7984C12.7455 10.6527 13.28 10.0701 13.944 9.87594C14.77 9.64938 15.6446 10.0216 16.4868 9.89212C17.248 9.77884 17.8958 9.27716 18.657 9.19625C19.3049 9.13151 20.0175 9.37426 20.5681 9.03441C20.9245 8.82403 21.1026 8.41946 21.2808 8.04724C21.5075 7.5132 21.7343 6.96296 21.6533 6.38037Z" fill="#F1F1F1" stroke="#BABABA" stroke-width="1.18548" stroke-linecap="round" stroke-linejoin="round"/>
</svg>
