<svg width="42" height="37" viewBox="0 0 42 37" fill="none" xmlns="http://www.w3.org/2000/svg">
<path d="M40.613 14.8664C40.9855 15.2386 40.8722 15.9506 40.4187 16.1934C40.2568 16.2905 40.0462 16.3229 39.8842 16.4361C39.285 16.8245 39.5765 17.7632 39.3498 18.4267C39.2202 18.8636 38.8639 19.2035 38.7991 19.6566C38.7343 20.1259 39.0258 20.6114 38.9287 21.0807C38.8153 21.55 38.3294 21.8575 37.8597 21.9546C37.3738 22.0679 36.8879 22.0193 36.4021 22.0841C34.8958 22.3106 33.7459 23.6215 32.2721 23.9451C31.4137 24.1393 30.3448 24.0746 29.8751 24.8028C29.6808 25.0941 29.6484 25.4502 29.6322 25.79C29.616 26.2755 29.6484 26.761 29.7779 27.2141C29.1949 27.2249 28.6118 27.2303 28.0288 27.2303C27.4781 27.2465 26.9112 27.2627 26.3768 27.4245C25.8423 27.5863 25.3403 27.9424 25.1135 28.4441C25.0001 28.6868 24.9677 28.9619 24.9029 29.2209C24.6924 30.1433 24.1094 31.0981 23.17 31.2438C22.6517 31.3247 22.101 31.1628 21.6152 31.357C21.3074 31.4865 21.0807 31.7616 20.8539 32.0367C20.1737 32.8783 19.4935 33.7198 18.9428 34.6422C18.6999 35.0792 18.4731 35.5161 18.1168 35.856C17.7605 36.1796 17.2099 36.3738 16.7726 36.1796C16.5782 36.0987 16.4324 35.9531 16.2705 35.8398C15.153 35.0306 13.5819 35.3057 12.2863 34.9173C12.2323 34.9066 12.1783 34.8904 12.1243 34.8688C11.9191 34.8041 11.7248 34.7124 11.5412 34.5937C11.2821 34.4318 11.0554 34.2376 10.7801 34.1082C10.4885 33.9787 10.1646 33.9464 9.85685 33.914C8.67454 33.8331 7.49221 33.9302 6.34229 34.2053C5.87261 34.3186 5.30576 34.4642 4.90086 34.1729C4.87927 34.1621 4.85769 34.1513 4.83609 34.1405C4.69033 34.0111 4.57693 33.8493 4.47975 33.6712C4.2692 33.3476 4.02629 33.0239 3.78335 32.7164C3.50262 32.3604 3.22728 31.999 2.95734 31.6321C2.69821 31.2599 2.42289 30.9039 2.08278 30.6126C1.77505 30.3537 1.41874 30.1595 1.11102 29.9167C0.927461 29.7873 0.754672 29.6362 0.592712 29.4636V17.3262H7.5732V10.1409C7.61639 10.1516 7.66496 10.1625 7.71895 10.1733C8.12385 10.2704 8.52876 10.4645 8.7879 10.8044C8.93366 10.9662 9.03082 11.1766 9.17659 11.3384C9.45192 11.6136 9.88924 11.7268 10.2618 11.5973C10.3913 11.565 10.5047 11.5003 10.6181 11.4517C10.7477 11.387 10.8826 11.333 11.023 11.2899C11.3307 11.209 11.6546 11.209 11.9461 11.3222C12.0595 11.3546 12.1729 11.4193 12.2215 11.4841C12.4158 11.8185 12.6048 12.1476 12.7883 12.4713C12.8693 12.6007 12.9503 12.7302 13.0798 12.8273C13.4038 13.07 13.8735 12.9244 14.246 13.1024C14.4565 13.1995 14.6185 13.3775 14.7966 13.5232C15.0234 13.7012 15.2825 13.8145 15.5579 13.9277C16.1895 14.1867 16.8212 14.4456 17.5014 14.5103C17.5824 14.5103 17.6633 14.5104 17.7119 14.4618C17.7605 14.4294 17.7767 14.3647 17.7929 14.3C17.8577 14.0087 17.89 13.7173 18.0196 13.4584C18.133 13.1833 18.3598 12.9406 18.6351 12.8758C18.7161 12.8597 18.8132 12.8597 18.8942 12.8758C19.6068 13.0539 19.5583 13.507 19.6879 13.8792C19.8984 14.4618 20.4815 14.8016 21.0645 15.012C21.6314 15.2062 22.263 15.3195 22.7651 15.6593C23.2186 15.9506 23.5425 16.3876 23.8664 16.8245C24.2983 17.4071 24.7302 17.9843 25.1621 18.5561C25.2916 18.7341 25.4374 18.9283 25.6642 18.9769C25.7613 18.9931 25.8585 18.9769 25.9557 18.9769C26.4739 18.9014 26.9814 18.7881 27.4781 18.637C27.64 18.5885 27.802 18.5238 27.9316 18.3943C28.3527 17.9897 27.9639 17.2291 28.2069 16.6789C28.3364 16.339 28.6928 16.1448 28.8709 15.8212C29.0653 15.449 28.9844 14.9473 28.6766 14.6722C28.3689 14.3809 27.8668 14.3485 27.5105 14.5751C27.0408 14.8826 26.8626 15.5946 26.0528 15.3519C25.8585 15.3033 25.6965 15.2062 25.5508 15.0767L23.8826 13.7012C23.6882 13.5393 23.4938 13.3775 23.3481 13.1671C22.8622 12.4875 23.0728 11.5326 23.4291 10.7558C23.5262 10.5293 23.6558 10.3027 23.7692 10.0761C23.915 9.76866 24.0446 9.46117 24.1418 9.13751C24.2389 8.83003 24.2551 8.45782 24.3037 8.13416C24.3847 7.43828 24.4333 6.7262 24.3847 6.01414C24.3847 5.93323 24.3846 5.85231 24.3361 5.7714C24.2875 5.64193 24.1741 5.56103 24.0931 5.46393C23.8826 5.23737 23.7854 4.92989 23.8502 4.62241C23.915 4.41203 24.0445 4.23402 24.1741 4.056C24.6762 3.36012 25.0649 2.56712 25.324 1.7256C25.405 1.46667 25.486 1.1754 25.7289 1.02975C25.8909 0.932652 26.0852 0.932636 26.2796 0.932636C27.4241 0.932636 28.5741 0.938046 29.7294 0.948835C29.9075 0.948835 30.9926 0.93262 31.1222 0.916437C31.3489 0.900254 31.6405 0.835521 31.9158 0.754605C32.1102 0.706056 32.3045 0.657506 32.4827 0.592773C32.4827 1.02972 32.4827 1.56377 32.5637 1.64468C32.9686 2.06544 33.6649 1.88745 34.1994 2.11402C34.6367 2.30822 34.8959 2.72898 35.2036 3.08501C35.3817 3.32776 35.6246 3.48958 35.9 3.60286C36.3211 3.7647 36.7908 3.81324 37.2281 3.92653C37.6816 4.03981 38.0217 4.29876 38.4428 4.50914C38.6047 4.59005 38.7829 4.63859 38.9449 4.73569C39.1068 4.83279 39.2364 4.94608 39.4145 5.02699C39.5765 5.12409 39.787 5.17262 39.9652 5.20498C39.9868 5.20498 40.003 5.20498 40.0138 5.20498C40.1272 5.83613 40.2891 6.45109 40.6292 6.98513C40.7912 7.22788 40.9693 7.43829 41.0827 7.69722C41.3904 8.50638 40.8398 9.3479 40.5158 10.1571C40.0785 11.209 40.03 12.3742 39.9814 13.5232C39.9652 13.863 39.9652 14.219 40.1758 14.478C40.3054 14.6398 40.4835 14.7207 40.613 14.8664Z" fill="#F1F1F1" stroke="#BABABA" stroke-width="1.18548" stroke-linecap="round" stroke-linejoin="round"/>
</svg>
