<svg width="13" height="5" viewBox="0 0 13 5" fill="none" xmlns="http://www.w3.org/2000/svg">
<path d="M12.1891 1.56037C12.1729 1.33381 11.9947 1.17198 11.8004 1.09106C11.5898 1.02633 11.3793 1.04251 11.1687 1.05869C10.1646 1.12343 9.16583 1.1504 8.17248 1.13961C7.86475 1.12343 7.55702 1.12342 7.29789 0.993958C6.97397 0.848309 6.68244 0.524652 6.34232 0.605567C6.16416 0.637934 6.03461 0.767395 5.88884 0.864495C5.56492 1.05869 5.16002 1.04251 4.77132 1.01015C4.54457 0.993964 4.30164 0.977777 4.09109 0.864495C4.01011 0.832128 3.94533 0.767393 3.86435 0.75121C3.76717 0.718844 3.68618 0.718852 3.589 0.718852C3.21649 0.751218 2.8602 0.880678 2.55247 1.10724C2.37432 1.23671 2.21235 1.39855 2.00181 1.4471C1.82365 1.47946 1.5969 1.41473 1.45114 1.54419C1.45114 1.54419 1.24059 1.78694 0.981451 1.90022C0.803295 1.99732 0.608939 2.1106 0.592743 2.3048C0.592743 2.51518 0.689919 2.70938 0.835683 2.85503C0.965251 3.00067 1.14341 3.11396 1.28918 3.2596C1.5969 3.51854 1.83983 3.87457 2.21234 4.03641C2.50387 4.16587 2.8278 4.16587 3.13553 4.16587C4.28544 4.14969 5.45156 4.14969 6.60147 3.95549C6.893 3.90694 7.20072 3.84221 7.52464 3.87457C7.92954 3.89076 8.30204 4.06877 8.69074 4.19824C9.07944 4.31152 9.51676 4.39243 9.88927 4.24679C10.116 4.16587 10.2941 4.00403 10.4723 3.85839C10.7152 3.648 10.9582 3.43763 11.1849 3.19488C11.5413 2.82266 11.8328 2.38572 12.0757 1.93259C12.1405 1.81931 12.1891 1.68984 12.1891 1.56037Z" fill="#F1F1F1" stroke="#BABABA" stroke-width="1.18548" stroke-linecap="round" stroke-linejoin="round"/>
</svg>
