<svg width="134" height="96" viewBox="0 0 134 96" fill="none" xmlns="http://www.w3.org/2000/svg">
<path d="M133.127 88.0642C133.127 88.8248 132.884 89.6178 132.722 90.3137C132.625 90.7183 132.43 91.0743 132.204 91.4141C131.847 91.9158 131.07 92.4013 130.552 92.7412C130.357 92.725 130.163 92.6602 130.017 92.5308C129.726 92.2233 129.839 91.7216 129.774 91.3008C129.742 90.8801 129.483 90.4593 129.062 90.3622C128.883 90.3298 128.673 90.3622 128.527 90.4593C128.219 90.6859 128.252 91.0419 128.203 91.3494C128.155 91.5921 127.976 91.8511 127.733 91.8349C127.555 91.8187 127.426 91.6569 127.312 91.5436C127.183 91.4141 126.972 91.3008 126.827 91.4141C126.567 91.5921 126.875 92.1424 126.6 92.3042C126.6 92.3042 126.589 92.3096 126.567 92.3204C126.405 92.5793 126.243 92.8544 126.243 92.8544C126.033 93.1943 125.498 93.259 125.207 92.9839C125.061 92.8544 124.996 92.6764 124.867 92.5469C124.753 92.4013 124.543 92.3042 124.381 92.3851C124.122 92.5146 124.219 92.8868 124.122 93.1457C123.992 93.5503 123.442 93.6474 123.069 93.4532C122.713 93.2752 122.47 92.903 122.275 92.5469C121.935 91.9805 121.579 91.3494 121.676 90.6859C121.741 90.1518 122.113 89.6178 121.935 89.1161C121.79 88.7115 121.352 88.5012 120.98 88.2908C120.899 88.2422 120.818 88.1937 120.769 88.1127C120.704 88.0156 120.704 87.9024 120.672 87.8053C120.559 87.4978 120.138 87.3845 120.008 87.0932C119.911 86.8667 119.992 86.6239 120.073 86.4135C120.316 85.8471 120.64 85.2969 120.737 84.6981C120.785 84.3744 120.769 84.0346 120.591 83.7757C120.413 83.5005 120.073 83.3549 119.83 83.1283C119.457 82.8208 119.247 82.3515 119.247 81.8822C119.247 81.8013 119.247 81.7042 119.295 81.6395C119.36 81.5262 119.506 81.4776 119.635 81.4453C120.105 81.2996 120.575 81.0569 120.85 80.6361C121.109 80.2477 121.142 79.6651 120.818 79.3091C120.44 78.597 120.062 77.885 119.684 77.1729C119.555 76.9463 119.409 76.7036 119.166 76.6227C119.117 76.6065 119.052 76.5903 119.004 76.6065C118.955 76.6389 118.923 76.7036 118.89 76.7522C118.712 77.2053 118.939 77.6908 119.182 78.0954C119.425 78.4999 119.7 78.9369 119.652 79.4062C119.619 79.7299 119.425 80.0212 119.231 80.2963C119.117 80.4743 118.988 80.6523 118.809 80.7818C118.421 81.0731 117.789 80.976 117.498 80.5876C117.319 80.361 117.255 80.0697 117.125 79.8108C116.979 79.5033 116.655 79.212 116.299 79.3738C116.089 79.4709 115.975 79.7137 115.975 79.9402C116.008 80.4419 116.364 80.7494 116.655 81.1054C117.53 82.1897 117.708 83.7918 117.044 85.0218C116.931 85.216 116.769 85.3778 116.542 85.4425C116.137 85.572 115.878 85.2807 115.684 85.0056C115.306 84.5201 114.928 84.0346 114.55 83.5491C114.356 83.2902 114.145 83.015 114.113 82.6752C114.113 82.4163 114.21 82.1735 114.307 81.9308C114.42 81.688 114.501 81.4129 114.453 81.154C114.42 80.9112 114.177 80.6685 113.918 80.717C113.854 80.717 113.789 80.7494 113.74 80.7979C113.432 81.0569 113.659 81.6556 113.238 81.866C113.028 81.9631 112.785 81.8822 112.623 81.7042C112.331 81.3644 112.396 80.9112 112.428 80.4905C112.444 80.1506 112.444 79.7622 112.202 79.5033C112.023 79.3091 111.748 79.2444 111.521 79.0987C111.116 78.856 110.857 78.4028 110.647 77.9821C110.517 77.707 110.388 77.448 110.371 77.1567C110.355 76.7522 110.533 76.3637 110.792 76.0563C111.44 75.3118 112.655 75.1338 113.513 75.6517C113.854 75.8621 114.129 76.1534 114.485 76.3152C114.728 76.4123 115.02 76.4447 115.198 76.6227C115.457 76.8816 115.441 77.2862 115.603 77.6099C115.684 77.7717 115.91 77.9335 116.072 77.8202C116.153 77.7555 116.186 77.6422 116.218 77.5451C116.396 76.6227 116.477 75.6841 116.493 74.7454C116.493 74.5674 116.493 74.3732 116.412 74.2114C116.315 74.0657 116.121 73.9525 115.959 74.0172C115.748 74.1143 115.732 74.3732 115.635 74.5836C115.457 75.0044 114.922 75.15 114.469 75.0529C113.87 74.9073 113.416 74.4218 112.947 74.0657C112.795 73.8931 112.65 73.7151 112.509 73.5317C112.299 73.2728 112.088 73.0138 111.764 72.9491C111.554 72.9167 111.311 72.9815 111.214 73.1757C111.052 73.4346 111.246 73.7259 111.278 74.001C111.327 74.3894 111.052 74.7616 110.711 74.9396C110.371 75.1338 109.983 75.1824 109.594 75.2309C109.4 75.2633 109.205 75.2795 109.027 75.2147C108.849 75.15 108.719 75.0205 108.59 74.8911C108.039 74.357 107.408 73.9039 106.727 73.5317C106.371 73.3213 105.998 73.1595 105.675 72.9005C105.432 72.7387 105.237 72.5283 105.027 72.3503C104.46 71.8648 103.78 71.5088 103.051 71.3308C102.727 71.2499 102.403 71.2013 102.095 71.088C101.577 70.8776 101.156 70.4731 100.751 70.117C100.136 69.9714 99.5525 69.6801 99.0504 69.2917C98.9532 69.2108 98.856 69.1137 98.8398 69.0004C98.8074 68.8062 98.9694 68.6444 99.1476 68.5635C99.3095 68.4825 99.5039 68.434 99.6334 68.2883C99.7468 68.1589 99.7792 67.9809 99.7954 67.8028C99.7954 67.7381 99.8116 67.6572 99.7792 67.5925C99.7306 67.5277 99.6658 67.4792 99.5848 67.463C99.2285 67.3497 98.8236 67.3983 98.5321 67.6248C98.3863 67.7219 98.273 67.8352 98.1272 67.9323C97.9005 68.0941 97.6089 68.1427 97.3174 68.1589C96.7883 68.2128 96.2593 68.2344 95.7302 68.2236C95.4387 68.2236 95.1471 68.2074 94.8556 68.1265C94.0782 67.8838 93.5113 67.1393 92.7015 67.0099C92.3128 66.929 91.8917 67.0099 91.503 66.8804C91.2601 66.7995 91.0496 66.6538 90.8066 66.5567C90.5475 66.4435 90.1912 66.4435 90.013 66.7186C89.1546 66.7995 88.2638 66.7995 87.3893 66.7186C86.9034 66.67 86.4013 66.5729 85.8992 66.6376C85.4619 66.6862 85.0246 66.848 84.5873 66.8642C83.486 66.8966 82.579 66.0712 81.8664 65.2459C81.5911 64.9222 81.2996 64.5824 80.8947 64.4853C80.2954 64.3396 79.68 64.7928 79.0969 64.6148C78.854 64.55 78.6596 64.372 78.4167 64.3073C78.028 64.1778 77.6231 64.3235 77.2344 64.4367C76.6999 64.5824 76.133 64.6795 75.5662 64.728C75.3556 64.7442 75.1289 64.7442 74.9345 64.6309C74.7564 64.5177 74.6592 64.2264 74.8212 64.0645C74.8698 64.016 74.9507 63.9836 75.0317 63.9512C75.7281 63.7085 76.5865 63.66 77.0076 63.045C76.6837 62.7213 76.1492 62.786 75.7281 62.608C75.2747 62.4138 74.9831 61.9607 74.5782 61.7018C74.0276 61.3619 73.3473 61.3943 72.7157 61.4267C71.9815 61.4375 71.2419 61.4429 70.4968 61.4429C70.3349 61.4429 70.1729 61.459 70.0272 61.5399C69.8976 61.637 69.8328 61.7827 69.7194 61.9122C69.5089 62.1387 69.1688 62.2196 68.8934 62.3815C68.6019 62.5271 68.3428 62.8346 68.44 63.1259C69.2821 62.9155 70.1891 63.2716 70.9017 63.6923C71.1447 63.838 71.339 64.0483 71.4362 64.3073C71.7277 65.1488 70.8693 65.6667 70.1243 65.7152C69.9786 65.7314 69.8328 65.7314 69.7194 65.8123C69.5899 65.8932 69.5251 66.0389 69.4603 66.1522C69.0068 66.848 68.0674 66.9613 67.2414 66.9128C66.4316 66.848 65.5571 66.7186 64.8606 67.1393C64.3262 67.4468 63.986 68.0294 63.4516 68.3531C62.8361 68.7091 62.0587 68.6606 61.4757 69.049C61.0384 69.3402 60.7631 69.8096 60.342 70.1009C59.9533 70.376 59.4512 70.4569 58.9815 70.5378C58.5604 70.6133 58.1393 70.6835 57.7182 70.7482C57.2485 70.8291 56.6169 70.8291 56.4549 70.376C56.3901 70.1494 56.4549 69.9228 56.6007 69.7448C56.876 69.3888 57.3133 69.2755 57.6534 69.0004C57.7344 68.9357 57.8154 68.8709 57.8478 68.7576C57.9126 68.5311 57.702 68.3045 57.4753 68.1912C57.1837 68.0294 56.8274 67.9323 56.8112 67.4954C56.8112 67.285 56.9084 67.0908 57.0542 66.929C57.783 66.0713 58.2527 65.0032 58.4146 63.8865C58.4794 63.401 58.5118 62.867 58.8843 62.5433C59.0463 62.3976 59.2568 62.3329 59.4674 62.252C60.018 62.0686 60.5687 61.8852 61.1194 61.7018C61.3299 61.6209 61.5567 61.54 61.7672 61.4267C62.6418 60.925 62.2531 59.5494 61.2489 59.6465C60.9412 59.6789 60.6659 59.8083 60.4553 60.0187C60.3096 60.1644 60.2286 60.3586 60.2124 60.5528C60.18 60.7955 59.8885 60.8926 59.6617 60.8926C58.3498 60.925 57.3619 61.7018 56.4387 62.6404C55.5803 63.5143 55.0297 64.6309 54.479 65.7314C54.317 66.0551 54.1551 66.3787 53.9121 66.6538C53.2967 67.3497 52.3087 67.5601 51.4827 68.0132C50.5272 68.5311 49.7984 69.3888 49.0695 70.1656C48.8914 70.3598 48.8104 70.6187 48.8752 70.8615C48.9724 71.2175 49.2801 71.266 49.5392 71.266C50.3004 71.3146 51.1102 71.3146 51.7095 71.7677C51.8552 71.8648 51.9686 71.9943 52.0172 72.1561C52.1468 72.5607 51.8067 72.9653 51.418 73.1271C51.0293 73.2889 50.592 73.3051 50.2033 73.4669C49.1019 73.9039 48.778 75.2471 48.3893 76.3476C48.3245 76.5256 48.2597 76.6874 48.114 76.8169C48.0006 76.914 47.8224 76.9625 47.6605 77.0111C45.8303 77.5128 44.146 78.4676 42.494 79.4224C42.0405 79.6651 41.587 79.9402 41.2793 80.3448C40.923 80.8303 40.8096 81.4776 40.4209 81.9631C40.0322 82.4324 39.4329 82.6752 38.8661 82.9018C37.8187 83.2902 36.7768 83.684 35.7402 84.0831C35.2058 84.2935 34.6713 84.7952 34.5093 85.3454C34.5741 85.8957 34.6875 86.7857 34.2664 87.1418C34.0397 87.3198 33.7643 87.3845 33.489 87.4169C32.3391 87.6111 31.0758 87.692 30.2498 88.5011C30.0554 88.6953 29.8449 88.9543 29.5696 88.9866C29.3266 89.019 29.1161 88.8734 28.8893 88.7924C28.1443 88.5173 27.2211 89.019 27.0268 89.7796C26.962 90.0224 26.9782 90.2813 26.8972 90.524C26.6381 91.317 25.3748 91.495 24.9051 90.8154C24.7917 90.6535 24.7108 90.4431 24.5488 90.346C24.3059 90.1842 23.9981 90.2651 23.739 90.2166C23.5609 90.1842 23.3827 90.1033 23.2045 90.1033C22.913 90.1195 22.6863 90.346 22.4757 90.5564C21.6659 91.3818 20.5646 91.9158 19.3985 92.0453C19.0584 92.0776 18.7021 92.0776 18.4105 92.2395C18.2324 92.3366 18.0866 92.466 17.9246 92.5469C17.7789 92.6279 17.6007 92.6764 17.4874 92.7897C17.3578 92.8868 17.293 93.0486 17.1958 93.1781C16.7099 93.8416 15.6734 93.5018 14.8636 93.5989C14.4749 93.6474 14.1186 93.7931 13.8271 94.052C13.5679 94.2786 13.3574 94.5698 13.0982 94.8126C12.7743 95.0877 12.3046 95.2819 11.9159 95.0068C11.6082 94.7641 11.511 94.3595 11.6244 93.9873C11.8188 93.3723 12.418 93.0486 12.9687 92.7412C13.7245 92.3528 14.4803 91.959 15.2361 91.5598C15.5438 91.3818 15.8678 91.2199 16.2079 91.139C16.4994 91.0743 16.7909 91.0743 17.0663 90.9934C17.4226 90.8801 17.7141 90.6535 18.0056 90.4269C18.9936 89.6502 19.9653 88.8086 21.0505 88.1613C22.1356 87.4978 23.3665 87.0285 24.646 87.0608C24.8727 87.0608 25.1157 87.0932 25.31 87.2227C25.5853 87.4007 25.7149 87.7405 26.0226 87.87C26.1846 87.9347 26.3952 87.9024 26.4923 87.7567C26.6381 87.5625 26.4761 87.3036 26.4599 87.0608C26.4275 86.7857 26.6219 86.543 26.8 86.3164C27.95 84.957 29.4238 83.8727 31.0758 83.1607C32.2095 82.6914 33.57 82.2221 33.9101 81.0407C33.9749 80.7979 33.9911 80.5552 34.1044 80.3286C34.3474 79.7784 35.0114 79.6004 35.5135 79.2605C36.8416 78.3543 36.9225 76.4123 36.8901 74.8587C37.376 74.4164 37.8565 73.9686 38.3316 73.5155C38.4288 73.4184 38.5421 73.3051 38.4936 73.1757C38.445 73.03 38.2668 73.0138 38.1372 72.9977C37.5056 72.9653 36.8416 72.9329 36.3071 73.2404C36.048 73.3699 35.8374 73.5803 35.5945 73.7259C35.3515 73.8716 35.0438 73.9686 34.7847 73.8392C34.4931 73.7097 34.3474 73.386 34.2178 73.1109L34.2016 73.0947C33.8939 72.496 32.9869 72.6578 32.9221 73.3375C32.8573 73.7744 32.9221 74.2761 32.501 74.5512C32.2581 74.7293 31.9504 74.7454 31.6588 74.6483C31.092 74.4703 30.7357 73.9686 30.347 73.5641C30.0069 73.208 29.602 72.9005 29.1161 72.9005C28.8407 72.9167 28.5654 73.03 28.2901 72.9653C27.707 72.8034 27.5127 71.8163 26.8972 71.8648C26.4761 71.9134 26.298 72.4151 26.2008 72.8358C26.1036 73.2404 25.8445 73.7583 25.4234 73.6935C25.0833 73.645 24.8727 73.2242 24.5326 73.2242C24.2573 73.208 24.0629 73.4831 23.8524 73.6612C23.3989 74.0981 22.7187 74.179 22.1032 74.2114C21.7631 74.2438 21.3744 74.2276 21.18 73.9686C21.0343 73.7583 21.0505 73.4669 21.1476 73.2242C21.2448 72.9815 21.4068 72.7711 21.5202 72.5445C21.7631 72.0105 21.7307 71.3631 21.4392 70.8615C21.3096 70.6511 21.1314 70.4407 21.1314 70.1818C21.1638 69.5992 22.1518 69.3079 22.006 68.7415C21.9736 68.6444 21.9089 68.5473 21.8603 68.4664C21.6119 68.1211 21.3582 67.7759 21.0991 67.4306C20.9047 67.1555 20.678 66.8642 20.3702 66.7509C19.69 66.492 19.0422 67.0746 18.4429 67.463C17.5845 68.0294 16.5156 68.2883 15.4952 68.1427C14.9608 68.2236 14.5235 67.7219 14.2158 67.285C14.0646 67.0692 13.9134 66.8534 13.7623 66.6376C13.406 66.1198 13.0173 65.5696 12.4342 65.3106C12.0455 65.1326 11.6082 65.1164 11.2033 64.9708C10.685 64.7928 10.2315 64.4367 9.94002 63.9674C9.79426 63.7247 9.72947 63.4496 9.81045 63.1906C9.95621 62.6889 10.4583 62.5919 10.8956 62.5271C11.2681 62.4786 11.6568 62.4138 12.0455 62.4624C12.4666 62.5271 12.8715 62.689 13.2764 62.7537C13.6003 62.8184 13.9404 62.8022 14.2482 62.867C14.8312 62.9964 15.4305 63.3848 15.9811 63.1583C16.1269 63.0935 16.2727 62.9641 16.2889 62.8022C16.305 62.5919 16.1107 62.4138 15.9487 62.2844C15.7544 62.1549 15.56 62.0093 15.3495 61.9283C14.5883 61.6371 13.7461 62.0578 12.9363 62.0416C12.1103 62.0254 11.3167 61.5076 10.9766 60.747C10.928 60.666 10.8956 60.5528 10.8146 60.5042C10.7336 60.4557 10.6202 60.4719 10.5231 60.4719C10.1344 60.5042 9.74027 60.5366 9.34077 60.569C9.16261 60.5851 8.95207 60.5851 8.8063 60.5042C8.67673 60.4233 8.59575 60.2938 8.51477 60.1806C8.27183 59.8083 7.85073 59.1125 7.60779 58.7402C7.38105 58.4651 6.99235 57.7693 7.23529 57.5265C7.38105 57.3647 7.62399 57.3647 7.83454 57.2676C8.27183 57.0734 8.30422 56.4584 8.36901 55.9729C8.59575 54.4032 9.94002 53.06 11.5272 52.8819C11.7378 52.8658 11.9321 52.7363 12.0131 52.5421C12.1913 52.1537 11.7702 51.8624 11.5596 51.5225C11.3005 51.0856 11.4301 50.4868 11.754 50.0661C12.0617 49.6615 12.5314 49.3864 12.9849 49.1274C13.5679 48.8038 14.232 48.4639 14.8474 48.6905C15.479 48.9171 15.8354 49.6453 16.4832 49.8233C17.212 50.0175 17.8923 49.4187 18.5725 49.0627C18.9612 48.8685 19.4309 48.7229 19.6576 48.3506C19.7386 48.205 19.7872 48.027 19.9006 47.8975C20.1597 47.5415 20.678 47.5415 21.1153 47.5738C21.9251 47.6278 22.7349 47.6871 23.5447 47.7519C23.9496 47.7842 24.3706 47.8004 24.6946 47.5577C24.9213 47.3958 25.0509 47.1207 25.1643 46.8618C25.3262 46.4896 25.4882 45.8584 25.6177 45.4538C25.9417 45.0169 25.6339 44.143 25.2128 43.7708C24.8079 43.4148 24.2735 43.1073 24.0953 42.5894C24.0791 42.5085 24.0629 42.4114 24.0791 42.3305C24.1277 42.1525 24.3221 42.0878 24.5164 42.0392C24.7756 41.9745 25.0185 41.845 25.1966 41.6346C25.8121 40.9387 25.1966 40.0487 24.484 40.0325C24.2411 40.0163 23.9981 40.1134 23.7714 40.1943C22.6377 40.6151 21.5364 41.1114 20.4674 41.6832C19.9168 41.9745 19.3823 42.2819 18.783 42.46C18.1838 42.638 17.5197 42.6542 16.9691 42.3629C16.7261 42.2334 16.4994 42.0392 16.2565 41.9097C15.722 41.6346 15.1065 41.6346 14.5073 41.6508C14.151 41.6508 13.7785 41.667 13.4384 41.7803C13.163 41.8774 12.9201 42.0554 12.6609 42.1849C12.0293 42.5085 11.2843 42.5571 10.5717 42.5733C9.29218 42.5894 7.96411 42.4762 6.81419 41.9259C5.66428 41.3595 4.7573 39.9839 4.66013 38.7055C4.62773 38.576 4.7735 38.1552 4.90307 38.0905C5.01644 38.0258 5.1622 38.0258 5.30797 38.0258C5.48072 38.0366 5.65888 38.0581 5.84243 38.0905C6.02059 38.1229 6.23114 38.1391 6.34451 37.9934C6.44168 37.8639 6.3607 37.6536 6.23113 37.5403C5.90722 37.249 5.42134 37.2652 4.96785 37.2975C3.68837 37.3461 2.3603 37.1357 1.25897 36.4722C0.902656 36.2618 0.562539 35.9381 0.594931 35.5336C0.611127 35.2585 0.821673 35.0319 1.04842 34.87C1.80963 34.3845 2.82998 34.514 3.62358 34.1094C4.3848 33.7049 4.83828 32.8633 5.63189 32.5397C6.36071 32.2322 7.1705 32.4588 7.96411 32.5559C8.10987 32.572 8.28803 32.5882 8.43379 32.5559C8.59575 32.5073 8.74152 32.394 8.77391 32.2322C8.8063 32.0704 8.72532 31.8762 8.77391 31.7143C8.7901 31.6334 8.83869 31.5525 8.90347 31.504C9.27598 31.1479 9.72947 30.9052 10.2154 30.7595C10.6364 30.6409 11.0575 30.5276 11.4786 30.4197C11.8835 30.3226 12.256 30.1607 12.6124 29.9827C13.2764 29.6429 14.1186 29.2868 14.8474 29.5781C15.1227 29.6914 15.3657 29.9342 15.3495 30.2255C15.3333 30.3549 15.2847 30.4844 15.2199 30.5977C15.0256 31.0023 14.9122 31.4392 14.8474 31.8924C14.8312 32.0542 14.815 32.2322 14.9122 32.3778C15.0256 32.5397 15.2361 32.6044 15.4467 32.6368C17.7303 33.1061 20.1111 33.0899 22.4109 32.5882C22.5729 32.5559 22.751 32.5073 22.8644 32.3616C22.913 32.3131 22.9292 32.2322 22.9778 32.1836C23.1236 32.038 23.3503 32.0704 23.5447 32.0704C23.8038 32.0542 24.0305 31.9409 24.1925 31.7629C24.2897 31.6496 24.3545 31.5201 24.4516 31.423C24.6946 31.1965 25.0509 31.1965 25.3748 31.1965C26.0874 31.1803 26.8 31.0508 27.4803 30.8404C27.6422 30.7757 27.788 30.6462 27.8366 30.4682C27.95 30.1122 27.5937 29.8856 27.2859 29.7885C26.7353 29.6267 26.1522 29.5943 25.5853 29.7076C24.9699 29.8371 24.403 30.1446 23.7714 30.1446C23.4637 30.1607 23.1398 30.0798 22.8482 30.1931C22.6377 30.274 22.4757 30.4359 22.2652 30.5168C21.7631 30.6948 21.2286 30.3387 20.8075 30.0151C20.4836 29.7562 20.1651 29.5026 19.852 29.2545C19.7548 29.1898 19.6738 29.1088 19.6414 29.0117C19.609 28.8499 19.7386 28.7042 19.8844 28.6395C20.0301 28.591 20.1921 28.6072 20.354 28.6072C20.9857 28.6395 21.6335 28.5262 22.2166 28.2997C22.3623 28.2349 22.4757 28.0893 22.4757 27.9275C22.4595 27.6524 22.168 27.5876 21.9251 27.5714C21.5256 27.5391 21.1315 27.5067 20.7428 27.4743C20.4026 27.442 20.0463 27.4096 19.69 27.442C19.1717 27.4743 18.6535 27.6362 18.1352 27.7009C16.9205 27.8789 15.5114 27.4743 14.9122 26.3901C14.5559 25.7589 14.5235 24.9659 14.1024 24.351C13.7461 23.8169 13.1468 23.5094 12.5476 23.2991C11.9645 23.0887 11.2519 23.0078 10.7822 22.5546C10.5555 22.3119 10.3287 22.0206 10.0048 21.8911C9.69708 21.794 9.35697 21.8749 9.03304 21.8102C8.83869 21.7617 8.67673 21.6646 8.51477 21.5675C7.68878 21.082 6.92757 20.4508 6.03679 20.0786C5.71287 19.9653 5.32416 19.8035 5.27557 19.4637C5.25938 19.2695 5.35656 19.0914 5.48612 18.9458C5.63189 18.8163 5.79385 18.7192 5.95581 18.6221C6.31212 18.3794 6.63604 18.0557 6.73321 17.6511C6.81419 17.198 6.63604 16.6963 6.83039 16.2918C6.95996 16.049 7.21909 15.8872 7.49443 15.8063C7.75356 15.7415 8.04509 15.7415 8.32042 15.7415C9.50813 15.7415 10.6958 15.7415 11.8835 15.7415C12.6124 15.7415 13.3574 15.7415 14.07 15.434C14.2967 15.3369 14.5073 15.2075 14.6854 15.0295L14.7016 15.0133C14.9446 14.7058 15.1713 14.3983 15.1713 14.3983C15.6572 13.751 16.548 13.5082 17.0177 12.8447C17.2282 12.5372 17.3254 12.165 17.455 11.809C17.957 10.2716 18.9126 8.76656 20.4026 8.13542C21.3906 7.73084 22.4757 7.74702 23.5285 7.64992C24.5812 7.55282 25.6987 7.32627 26.4275 6.56566C26.6381 6.33909 26.8324 6.06397 27.1402 5.95069C27.3345 5.86977 27.5613 5.90213 27.707 6.04778C27.869 6.20961 27.8042 6.38764 27.788 6.56566C27.788 6.92169 28.0309 7.24534 28.3549 7.34244C28.695 7.43954 29.0837 7.2939 29.2456 6.98641C29.5534 6.48474 29.1971 5.83741 28.7598 5.44901C28.6464 5.35191 28.5168 5.25482 28.452 5.10917C28.3873 4.89879 28.4844 4.68839 28.614 4.51038C29.1809 3.79832 30.185 3.62031 31.092 3.68504C31.999 3.76596 32.8897 4.04107 33.7967 4.02488C35.6107 3.99252 37.1655 2.81115 38.5421 1.64596C39.2062 1.09573 39.9998 0.480768 40.8582 0.610234C41.2955 0.674967 41.6842 0.917715 42.0729 1.09573C42.251 1.19283 42.4454 1.27375 42.6559 1.30612C42.8665 1.3223 43.0932 1.30612 43.3038 1.38704C43.4441 1.46256 43.5899 1.52189 43.7411 1.56505C44.0002 1.64596 44.146 2.00199 44.0002 2.22855C43.8544 2.45512 43.5305 2.50368 43.3362 2.68169C43.2552 2.76261 43.1904 2.8597 43.1094 2.94062C43.0122 3.03772 42.8827 3.10245 42.7693 3.18337C42.6721 3.26428 42.575 3.40992 42.6073 3.53939C42.6235 3.66885 42.7369 3.76595 42.8665 3.79831C42.996 3.83068 43.1418 3.79833 43.2552 3.74978C43.3632 3.70662 43.4657 3.65268 43.5629 3.58795C43.6439 3.5394 43.7087 3.47466 43.8058 3.44229C43.9192 3.39374 44.0488 3.39375 44.1783 3.3452C44.4213 3.2481 44.5509 2.98916 44.6318 2.73023C44.6804 2.61695 44.729 2.4713 44.8262 2.37421C44.9072 2.29329 45.0205 2.24474 45.1339 2.19619C45.3445 2.11528 45.5874 2.05054 45.7979 2.13146C45.8789 2.16382 45.9437 2.22855 46.0247 2.24473C46.1219 2.2771 46.2352 2.27711 46.3486 2.27711C46.6563 2.27711 46.9965 2.40658 47.1584 2.68169C47.288 2.90826 47.3042 3.18336 47.4661 3.37756C47.6119 3.53939 47.8386 3.62031 48.0492 3.66886C48.1788 3.71741 48.3083 3.74978 48.4379 3.7336C48.5513 3.7336 48.6646 3.66885 48.778 3.6203C49.0479 3.49084 49.3125 3.36137 49.5716 3.2319C50.0737 2.98916 50.6082 2.73022 51.175 3.07007C51.8391 3.02152 52.5193 3.08626 53.1671 3.28046C53.653 3.42611 54.1713 3.62031 54.641 3.58795C54.9001 3.57176 55.0944 3.79831 55.0621 4.04106L54.9973 4.41328C54.9487 4.72076 55.1754 5.02825 55.4994 5.06061C56.1796 5.15771 56.8112 5.52993 57.2161 6.08016C57.2971 6.19344 57.3781 6.32291 57.4915 6.40382C57.6534 6.51711 57.8478 6.54947 58.0583 6.58184C58.3984 6.6142 58.7709 6.66275 59.0787 6.5171C59.5969 6.29053 59.9047 5.65938 60.4553 5.57847C60.8764 5.52992 61.2327 5.80504 61.589 6.0316C61.9292 6.25817 62.3988 6.43618 62.739 6.20961C62.9171 6.09633 63.0143 5.88596 63.1924 5.77268C63.3544 5.65939 63.5488 5.64321 63.7431 5.62702C64.5205 5.57847 65.2979 5.59466 66.0591 5.69176C66.4478 5.75649 66.8365 5.82122 67.1605 6.04778C67.3224 6.16106 67.4682 6.30672 67.6463 6.42C67.8569 6.54947 68.0836 6.6142 68.3104 6.66275C68.9744 6.82458 69.6385 6.90549 70.3025 6.93786C70.6264 6.95404 70.9503 6.95405 71.258 7.06733C71.42 7.11588 71.5658 7.21297 71.7115 7.2777C72.0031 7.39098 72.327 7.42335 72.6347 7.43953L76.6999 7.73084C77.202 7.7632 77.7041 7.92504 78.1413 8.18398C79.9229 9.26825 82.1741 9.54335 84.1663 8.94458C85.5753 8.50763 87.0329 7.64991 88.4258 8.08686C89.0898 8.31343 89.6243 8.78274 90.175 9.2035C91.3735 10.1421 92.7825 10.8542 94.2564 11.275V63.757C94.2564 63.9512 94.3212 64.1293 94.4345 64.2749L94.9852 64.9222C95.1148 65.1326 95.2443 65.3268 95.4549 65.4725C95.6492 65.6019 95.9408 65.6343 96.1351 65.4886C96.2323 65.4077 96.2971 65.2783 96.4104 65.1973C96.7991 64.9061 97.3174 65.3754 97.8033 65.3592C98.0786 65.343 98.3216 65.1812 98.5807 65.0517C99.2285 64.7442 99.9897 64.7766 100.719 64.8089C100.8 64.8251 100.897 64.8251 100.961 64.8737C101.107 65.0031 101.01 65.2459 100.978 65.4239C100.881 65.7961 101.026 66.1845 101.269 66.4596C101.512 66.7509 101.852 66.9451 102.176 67.1393C104.185 68.3207 106.403 69.5668 107.213 71.7677C107.262 71.881 107.327 71.9781 107.424 72.0428C107.796 72.2694 108.088 71.8163 108.395 71.5574C108.719 71.2984 109.157 71.2499 109.545 71.1366C110.015 70.9909 110.404 70.4731 110.404 69.9876C110.404 69.9336 110.404 69.8797 110.404 69.8257C110.485 69.0975 111.23 68.6444 111.91 68.3854C112.396 68.202 112.882 68.0456 113.368 67.9161C113.675 67.8352 114.015 67.7543 114.323 67.8676C114.534 67.9323 114.712 68.078 114.874 68.256C115.732 69.1784 115.959 70.6349 116.996 71.347C117.206 71.4926 117.433 71.5897 117.611 71.7839C117.757 71.9296 117.838 72.1399 117.983 72.2856C118.21 72.5283 118.55 72.6092 118.842 72.7387C119.279 72.9167 119.668 73.1757 120.008 73.5155C120.445 73.9686 120.818 74.5189 121.223 75.0044C121.665 75.5222 122.086 76.0509 122.486 76.5903C122.81 77.0327 123.123 77.475 123.425 77.9173C123.798 78.4999 124.154 79.0825 124.51 79.6489C124.651 79.8647 124.786 80.0859 124.915 80.3124C125.077 80.5714 125.256 80.8303 125.353 81.1216C125.434 81.3644 125.466 81.6071 125.515 81.8499C125.725 82.6752 126.324 83.3711 127.021 83.8566C127.717 84.3421 128.511 84.6495 129.304 84.957C129.79 85.1512 130.292 85.3616 130.746 85.6043C131.183 85.8471 131.588 86.1222 131.993 86.3973C132.285 86.6077 132.592 86.8181 132.819 87.1094C133.013 87.3845 133.127 87.7244 133.127 88.0642Z" fill="#F1F1F1" stroke="#BABABA" stroke-width="1.18548" stroke-linecap="round" stroke-linejoin="round"/>
</svg>
