<svg width="12" height="5" viewBox="0 0 12 5" fill="none" xmlns="http://www.w3.org/2000/svg">
<path d="M1.64545 2.5024C1.8398 2.53476 2.03417 2.55095 2.22852 2.58331C2.60103 2.68041 2.9088 2.95553 3.24892 3.03645C3.62143 3.11737 4.02633 2.95552 4.38264 3.10117C4.65797 3.21445 4.81993 3.45722 5.03048 3.65142C5.48397 4.08837 6.13174 4.29873 6.74719 4.20163C7.37883 4.10453 7.94574 3.71613 8.57739 3.58666C8.86891 3.53811 9.17664 3.53815 9.46816 3.53815C9.77589 3.52196 10.0674 3.48958 10.3427 3.36011C10.6828 3.19828 10.9581 2.84224 10.8772 2.45384C10.861 2.29201 10.7638 2.14638 10.6342 2.06546C10.2941 1.85508 9.97024 2.11402 9.63013 2.11402C9.25762 2.11402 8.94991 1.80652 8.5936 1.69324C8.1887 1.57996 7.73516 1.7256 7.33026 1.61232C7.15211 1.56377 6.974 1.48285 6.81204 1.40193C6.1642 1.09445 5.40292 1.02974 4.72269 1.22394C4.60932 1.24012 4.49601 1.28866 4.38264 1.28866C4.25307 1.30484 4.12346 1.27247 4.01008 1.2401C3.73475 1.17537 3.49181 1.04591 3.28126 0.884079C3.1517 0.770796 3.02211 0.657522 2.86015 0.608972C2.77917 0.592789 2.68206 0.592773 2.60108 0.592773C2.21238 0.603562 1.82364 0.608972 1.43494 0.608972C1.22439 0.625156 0.98148 0.625156 0.81952 0.770804C0.625168 0.932636 0.592712 1.22392 0.592712 1.48285C0.592712 1.70941 0.608908 2.01692 0.754672 2.19493C0.900436 2.37295 1.28916 2.45387 1.4997 2.48624C1.55369 2.49703 1.60226 2.5024 1.64545 2.5024Z" fill="#F1F1F1" stroke="#BABABA" stroke-width="1.18548" stroke-linecap="round" stroke-linejoin="round"/>
</svg>
