<svg width="45" height="50" viewBox="0 0 45 50" fill="none" xmlns="http://www.w3.org/2000/svg">
<path d="M43.8036 31.9841C43.3825 32.6961 43.4149 33.6024 43.0748 34.363C42.9452 34.6219 42.7833 34.8485 42.6537 35.1074C42.3946 35.6253 42.2812 36.2079 42.184 36.7905C42.1678 36.9523 42.1354 37.1303 41.9897 37.2436C41.9465 37.276 41.8871 37.303 41.8116 37.3245C41.6334 37.3569 41.439 37.3083 41.2932 37.1951C40.6292 36.7096 39.9652 36.1755 39.2202 35.8033C37.8273 35.1236 36.1591 35.0427 34.7177 35.5767C34.2966 35.7386 33.8917 35.949 33.4544 36.0622C32.2235 36.3859 30.8145 35.949 29.6969 36.5801C29.2596 36.8067 28.9357 37.1789 28.628 37.5673C28.0611 38.2793 27.5429 39.04 27.1703 39.8653C26.7816 40.7554 26.6521 41.7264 26.4415 42.665C26.3444 43.0965 26.2418 43.5281 26.1338 43.9596C26.069 44.2509 26.0042 44.5584 25.988 44.8659C25.9664 45.0817 25.9719 45.2975 26.0042 45.5132C24.8057 45.5132 23.6234 45.4971 22.4411 45.5132C22.02 45.5132 21.5342 45.578 21.2426 45.9178C21.0807 46.0958 21.0159 46.3224 20.9349 46.5328C20.8161 46.8133 20.6812 47.0776 20.53 47.3258C20.368 47.5847 20.1089 47.8598 19.8012 47.8274C19.4772 47.7789 19.2991 47.4552 19.1857 47.1477C19.0561 46.8564 18.9266 46.5597 18.797 46.2577C18.7484 46.1282 18.6837 45.9663 18.5541 45.8854C18.4083 45.7883 18.2302 45.7884 18.0682 45.7884C17.334 45.8099 16.6052 45.8261 15.8817 45.8369C15.7684 45.8369 15.655 45.8369 15.5578 45.8045C15.4607 45.7721 15.3797 45.7236 15.2987 45.6912C14.9586 45.5456 14.5537 45.6265 14.2136 45.4971C13.8087 45.3352 13.5009 44.8821 13.0798 44.9144C12.6749 44.9468 12.4482 45.3676 12.1729 45.6589C11.9137 45.9502 11.5574 46.1605 11.2821 46.4518C11.0392 46.727 10.861 47.0506 10.6504 47.3419C10.4399 47.6494 10.0674 47.7465 9.80825 48.0054C9.75426 48.0594 9.68949 48.1079 9.6139 48.1511C8.98226 48.5557 7.75136 48.7337 7.75136 48.7337C7.55701 48.7175 7.33025 48.6852 7.16829 48.5881C6.82818 48.3777 6.74721 47.9245 6.7796 47.5361C6.7958 47.1316 6.89296 46.727 6.76339 46.3548C6.61763 45.934 6.21274 45.6265 6.08317 45.2057C6.00219 44.9468 6.03458 44.6555 6.00219 44.3966C5.88882 43.0048 4.46356 42.0177 4.25301 40.6259C4.10725 39.6225 4.65792 38.6192 4.62553 37.5996C4.62553 37.2113 4.56074 36.7743 4.81987 36.5154C4.88466 36.4506 4.98184 36.4021 5.03043 36.3212C5.22478 36.0784 5.03041 35.7062 4.77128 35.5444C4.51214 35.3826 4.20444 35.334 3.94531 35.156C3.37845 34.8 3.26507 34.0232 3.29747 33.3597C3.31366 32.6961 3.37845 31.9679 3.02214 31.4015C2.86018 31.1587 2.61723 30.9807 2.40669 30.7865C1.75885 30.2363 1.1542 29.6483 0.592743 29.0226C0.64673 28.8068 0.706091 28.5856 0.770875 28.3591C0.916639 27.8736 1.06242 27.3557 1.43493 27.0159C2.01798 26.4494 3.11931 26.3038 3.21649 25.5108C3.28127 24.9929 2.84395 24.5722 2.42286 24.2809C2.00176 23.9896 1.51588 23.6821 1.37012 23.1804C1.11098 22.2095 2.40668 21.287 2.11515 20.2998C2.05037 20.0571 1.87223 19.8629 1.80744 19.6201C1.62929 19.0699 1.98559 18.4873 2.40669 18.0989C2.82778 17.7105 3.34604 17.4192 3.68615 16.9499C3.83192 16.7395 3.9453 16.4806 3.89671 16.2217C3.83193 15.8818 3.50801 15.6714 3.29747 15.4125C2.77919 14.7814 2.84397 13.8751 3.08691 13.1145C3.31365 12.3539 3.70237 11.6256 3.78335 10.8327C3.92911 9.35999 2.98975 8.00058 1.88842 7.01341C1.66168 6.80303 1.40252 6.57648 1.33773 6.269C1.28915 5.99389 1.38634 5.70259 1.27297 5.45984C1.80743 5.2171 2.42286 5.13615 2.98972 5.26561C3.4756 5.3789 3.89671 5.63785 4.38259 5.73495C4.85227 5.83205 5.43535 5.75113 5.69448 5.33037C5.84025 5.10381 5.88883 4.8125 6.09938 4.63449C6.4233 4.35937 6.90916 4.56974 7.33025 4.53737C7.9619 4.48882 8.3992 3.89006 8.83649 3.42075C9.97021 2.19082 11.606 1.57586 13.1932 0.993267C13.9868 0.701969 14.8452 0.410656 15.6874 0.73432C16.0923 0.896152 16.4162 1.21985 16.5296 1.65679C16.6915 2.30412 16.2543 2.74107 15.9303 3.1942C15.3797 3.98717 15.1529 5.0067 15.4121 5.92914C15.7522 7.11051 16.7887 7.91967 17.5823 8.87447C18.1492 9.58653 18.6675 10.4443 19.5421 10.7194C20.4004 10.9783 21.3236 10.5737 22.2144 10.7517C23.6073 11.0107 24.4332 12.6452 25.8261 12.9688C26.4253 13.1145 27.138 13.0174 27.5752 13.4705C27.7696 13.6647 27.8506 13.9398 28.0125 14.1664C28.4822 14.8299 29.4054 14.9917 30.2314 14.9755C31.0574 14.9432 31.8996 14.7975 32.677 15.0564C32.9037 15.1374 33.1143 15.2668 33.2438 15.461C33.4868 15.8009 33.3896 16.254 33.4058 16.6586C33.4058 17.0308 33.5354 17.3868 33.6164 17.7429C33.6811 18.0989 33.7945 18.4549 33.9565 18.7948C34.1185 19.1184 34.1184 19.3288 33.9079 19.6363C33.7459 19.879 33.503 20.0894 33.4382 20.3969C33.3734 20.6882 33.503 20.9795 33.6811 21.2223C33.8431 21.465 34.0537 21.6754 34.1994 21.9343C34.5557 22.6302 34.329 23.4556 34.3776 24.2323C34.3938 24.3618 34.4099 24.5074 34.4909 24.6207C34.6529 24.7987 34.9282 24.7987 35.155 24.7664C36.8394 24.6369 38.5237 24.6046 40.2081 24.6693C40.2891 24.6693 40.3701 24.6855 40.4187 24.734C40.4511 24.7826 40.4673 24.8635 40.4673 24.9282L40.5159 26.9349C40.5321 27.3557 40.7102 27.7441 41.0018 28.0354L41.0665 28.0839C41.3742 28.3914 41.8277 28.4885 42.2326 28.6503C42.6375 28.796 43.0586 29.0549 43.1558 29.4757C43.2368 29.767 43.1396 30.0907 43.2854 30.3658C43.4635 30.7218 43.998 30.8674 44.0628 31.2558C44.0952 31.5148 43.9332 31.7575 43.8036 31.9841Z" fill="#F1F1F1" stroke="#BABABA" stroke-width="1.18548" stroke-linecap="round" stroke-linejoin="round"/>
</svg>
