<svg width="9" height="14" viewBox="0 0 9 14" fill="none" xmlns="http://www.w3.org/2000/svg">
<path d="M1.02648 6.28145C0.63778 7.10679 0.556863 8.07777 0.605451 9.01639C0.637843 9.69609 0.913143 10.3434 1.38283 10.8289C1.77153 11.2335 2.28979 11.5248 2.58131 12.0103C2.85665 12.431 2.93761 12.9651 3.29392 13.3211C3.34251 13.3535 3.39116 13.3859 3.43975 13.4021C3.60171 13.4344 3.71503 13.2564 3.79601 13.1107C4.2711 12.1182 4.69224 11.0987 5.05935 10.0521C5.20511 9.59901 5.36703 9.1297 5.65855 8.75748C5.77193 8.59565 5.91772 8.45 6.0149 8.27199C6.19305 7.94832 6.19304 7.54374 6.24163 7.17152C6.41978 5.87687 7.39157 4.7926 7.56973 3.49795C7.6993 2.6726 7.45629 1.76634 6.85704 1.18374C6.25779 0.601147 5.28608 0.406925 4.55726 0.795322C4.3791 0.892421 4.21709 1.00573 4.10372 1.15138C3.90937 1.37795 3.79605 1.65305 3.66648 1.91199C3.48832 2.26802 3.26156 2.60787 3.00243 2.93154C2.80807 3.1581 2.61369 3.35229 2.48412 3.61122C2.25738 4.1129 2.30603 4.77639 1.90113 5.13243C1.51243 5.47227 1.23703 5.86069 1.02648 6.28145Z" fill="#F1F1F1" stroke="#BABABA" stroke-width="1.18548" stroke-linecap="round" stroke-linejoin="round"/>
</svg>
