<svg width="24" height="21" viewBox="0 0 24 21" fill="none" xmlns="http://www.w3.org/2000/svg">
<path d="M20.3896 7.15592C20.1791 7.30157 20.0495 7.52814 19.9847 7.78707C19.7418 8.67714 20.4382 8.9037 20.746 9.40538C20.9403 9.74522 20.8269 10.3278 20.3735 10.2631C20.1953 10.2307 20.0495 10.1174 19.9686 9.95561L19.3531 8.75805C19.1102 8.28874 18.7862 7.7547 18.2518 7.67378C17.9764 7.64142 17.7011 7.73852 17.4258 7.81944C17.1019 7.93272 16.8589 7.51195 17.1181 7.2692C17.4744 6.94554 18.0088 6.75134 18.4785 6.62188C19.2073 6.39531 20.0657 6.05546 20.1953 5.29485C20.2277 5.13302 20.2115 4.93883 20.3087 4.79318C20.422 4.59898 20.665 4.53424 20.8269 4.37241C21.0213 4.14584 21.0213 3.78981 20.8755 3.5147C20.746 3.23959 20.503 3.04539 20.2763 2.85119C19.9848 2.62463 19.677 2.3657 19.3207 2.31715C19.2073 2.30097 19.0616 2.28478 18.932 2.28478C18.6729 2.25242 18.5433 1.9773 18.6567 1.75074C18.8024 1.49181 18.7539 1.07104 18.5109 0.860663C18.2356 0.617916 17.8469 0.56936 17.4582 0.601726C16.7294 0.634093 16.0005 0.77974 15.3041 0.973938L13.1824 1.57272C13.0205 1.62127 12.8747 1.73455 12.8423 1.89638C12.7775 2.13913 12.9719 2.28478 13.1177 2.43043C13.2472 2.55989 13.3444 2.70554 13.4254 2.86737C13.5387 3.11012 13.2634 3.36906 13.0205 3.20723L11.1741 1.9773C11.0608 1.89638 10.915 1.84784 10.7854 1.83165C10.2672 1.76692 10.2834 2.31715 9.95944 2.47898C9.68411 2.60845 9.37638 2.39806 9.10105 2.26859C8.58277 2.05821 7.99973 2.18769 7.44906 2.31715C7.20612 2.38188 6.96317 2.44661 6.76882 2.60845C6.55827 2.75409 6.42871 3.0292 6.50969 3.27195C6.59067 3.46615 6.78502 3.57943 6.93078 3.72508C6.93078 3.73587 6.93078 3.74127 6.93078 3.74127C7.10894 3.91928 6.91459 4.24295 6.65546 4.14585C6.26675 4.01638 5.87804 3.93546 5.47314 4.04874C5.2464 4.11348 5.03585 4.24295 4.90628 4.43714C4.59856 4.87409 4.79291 5.27867 5.06824 5.56997C6.12098 6.76752 8.16169 6.46005 9.39258 7.4634C9.50595 7.57669 9.61931 7.68997 9.6841 7.83561C9.81367 8.20783 9.50595 8.59622 9.23062 8.88752C8.87431 9.25974 8.46941 9.64813 7.95113 9.69668C7.6758 9.71286 7.38427 9.64813 7.14134 9.79378C7.01177 9.89088 6.93079 10.0365 6.80122 10.1336C6.5097 10.3764 6.04001 10.2631 5.74848 10.0203C5.47315 9.76141 5.29498 9.40539 5.06824 9.09791C4.53377 8.38585 3.72398 7.94889 2.8494 7.85179C2.59026 7.81943 2.32572 7.81943 2.05579 7.85179C1.68328 7.90034 1.35937 8.14309 1.13263 8.41821C0.79251 8.87134 0.387594 9.84232 0.711514 10.3764C1.01924 10.8942 1.68329 11.315 2.12058 11.7196C2.36352 11.93 2.60646 12.1565 2.8494 12.3669C3.07614 12.5773 3.33526 12.7553 3.54581 12.9657C3.75636 13.1599 3.91832 13.3541 4.19365 13.4674C4.64714 13.6292 5.14922 13.4026 5.6351 13.3217C7.01176 13.1113 8.21027 14.1956 9.18203 15.199C10.1862 16.2347 11.1903 17.2758 12.1945 18.3223C12.8423 18.9858 13.5387 19.6817 14.4457 19.9244C15.3527 20.151 16.5026 19.6979 16.6646 18.7754C16.7132 18.4518 16.6484 18.0796 16.8589 17.8368C17.0047 17.6588 17.2314 17.5941 17.442 17.5455C18.2518 17.3999 19.1102 17.6103 19.92 17.4323C20.7784 17.2219 21.4748 16.6069 22.1388 16.0081C22.3494 15.8139 22.5923 15.5874 22.6571 15.2961C22.8028 14.7296 22.2846 14.1956 22.3008 13.613C22.3008 13.1275 22.6733 12.7391 22.8838 12.3022C23.2078 11.6063 23.0944 10.7162 22.6085 10.1174C22.4951 9.98798 22.3818 9.87469 22.3008 9.72904C22.0578 9.25973 22.3494 8.7095 22.3494 8.17546C22.3332 7.28538 21.2156 6.49241 20.3896 7.15592Z" fill="#F1F1F1" stroke="#BABABA" stroke-width="1.18548" stroke-linecap="round" stroke-linejoin="round"/>
</svg>
