<svg width="9" height="7" viewBox="0 0 9 7" fill="none" xmlns="http://www.w3.org/2000/svg">
<path d="M0.989559 4.90757C1.26489 5.24742 1.62118 5.50636 1.97749 5.74911C2.3338 6.00804 2.67392 6.00805 3.11121 5.97568C3.35415 5.94331 3.74286 5.97567 3.96961 5.84621C4.08298 5.78147 4.14777 5.652 4.18016 5.53872C4.40691 4.92376 4.86039 4.42209 5.39486 4.04988C5.89694 3.69385 6.44759 3.4511 6.96586 3.1598C7.17641 3.04652 7.37077 2.93324 7.50034 2.73904C7.6785 2.51248 7.7109 2.22118 7.7109 1.92988C7.6947 1.47675 7.54893 0.991249 7.17642 0.748501C6.8687 0.570486 6.4962 0.586665 6.13989 0.602848C5.54064 0.635215 4.89279 0.699952 4.4231 1.07216C4.32593 1.16926 4.22875 1.26636 4.09918 1.33109C3.96961 1.37964 3.84006 1.37965 3.71049 1.39583C3.6781 1.39583 3.65111 1.39583 3.62951 1.39583C3.37038 1.39583 3.11661 1.40661 2.86827 1.42819C2.60913 1.44437 2.23663 1.46057 2.05847 1.68713C1.89651 1.9137 1.75075 2.15643 1.73455 2.46392C1.71836 2.60956 1.73456 2.78759 1.62119 2.90087C1.49162 3.04652 1.26489 2.99796 1.07054 3.04651C0.795207 3.12742 0.633224 3.41874 0.600832 3.71003C0.552244 4.1308 0.730423 4.56773 0.989559 4.90757Z" fill="#F1F1F1" stroke="#BABABA" stroke-width="1.18548" stroke-linecap="round" stroke-linejoin="round"/>
</svg>
