<svg width="8" height="7" viewBox="0 0 8 7" fill="none" xmlns="http://www.w3.org/2000/svg">
<path d="M0.908572 0.857809C0.908572 0.857809 0.633236 1.1491 0.600845 1.27857C0.536061 1.65078 0.87618 1.95826 0.989552 2.33048C1.05434 2.57322 0.989556 2.86452 1.05434 3.10727C1.13532 3.41475 1.37826 3.64132 1.6212 3.8517C2.21505 4.34798 2.8359 4.81729 3.48374 5.25963C3.85625 5.51856 4.24496 5.76131 4.66605 5.90696C5.10335 6.05261 5.57302 6.08497 5.99412 5.90696C6.18847 5.84223 6.35042 5.71276 6.4314 5.53475C6.47999 5.42146 6.48 5.292 6.46381 5.17871C6.41522 4.69322 6.13989 4.25628 5.73499 4.01353C5.52444 3.90025 5.31389 3.81933 5.10334 3.72223C4.77942 3.54421 4.50408 3.30147 4.24494 3.05872C3.80225 2.64875 3.36496 2.23877 2.93307 1.8288C2.77111 1.66697 2.59295 1.52131 2.46338 1.32712C2.36621 1.18147 2.30143 1.00345 2.18806 0.873988C1.86414 0.501775 1.23249 0.501779 0.908572 0.857809Z" fill="#F1F1F1" stroke="#BABABA" stroke-width="1.18548" stroke-linecap="round" stroke-linejoin="round"/>
</svg>
