<svg width="109" height="58" viewBox="0 0 109 58" fill="none" xmlns="http://www.w3.org/2000/svg">
<path d="M108.271 7.03375C107.963 6.24077 107.105 5.90092 106.327 5.94947C105.728 5.98184 105.161 6.19223 104.578 6.12749C104.222 6.09513 103.849 5.90092 103.639 5.62581C103.493 5.43161 103.217 5.38306 103.023 5.51253C102.327 5.93329 101.242 5.7391 100.659 5.12414C100.189 4.63864 99.9297 3.95894 99.9783 3.27925C99.9945 3.00413 100.043 2.71283 99.7192 2.51863C99.5248 2.40535 99.2819 2.38917 99.0713 2.47009C98.5045 2.69665 97.97 3.06887 97.3708 3.18215C96.8687 3.26307 96.3018 3.1336 96.0589 2.69666L95.573 2.30826C95.1519 1.90368 94.4069 1.90368 93.9858 2.30826C93.8076 2.47009 93.6943 2.68047 93.4837 2.80994C93.095 3.0365 92.5929 2.79375 92.1556 2.7452C91.7022 2.69665 91.2648 2.82612 90.8275 2.98795C90.2121 3.20373 89.6075 3.44648 89.0136 3.7162C88.301 4.03986 87.6046 4.41207 86.8434 4.5739C86.4547 4.65482 86.0497 4.68718 85.6448 4.62245C85.2723 4.5739 85.2561 4.03986 85.6124 3.92657L89.2565 2.92321C89.5967 2.8423 89.9854 2.69665 90.0502 2.30826C90.0988 2.06551 89.953 1.80658 89.7424 1.66093C89.3213 1.402 88.8354 1.4991 88.3658 1.58001C87.313 1.77421 86.2279 1.85513 85.1428 1.82276C84.7703 1.80658 84.3978 1.77421 84.0576 1.61238C83.7985 1.4991 83.5718 1.3049 83.3126 1.2078C82.7134 0.981236 82.0655 1.27253 81.4501 1.402C80.6241 1.56383 79.7819 1.45055 78.9559 1.33726C78.6806 1.3049 78.389 1.25635 78.1785 1.07834C78.0165 0.932688 77.9355 0.7223 77.7898 0.576652C77.5306 0.301537 77.1257 0.236807 76.7532 0.20444C75.7815 0.107341 74.8097 0.155889 73.8542 0.333904C73.4655 0.398637 73.0282 0.511921 72.8176 0.851768C72.5909 1.17543 72.7852 1.75803 73.1739 1.74184C73.5464 1.95223 73.2063 2.58338 72.8014 2.56719C72.3803 2.55101 72.0726 2.1626 71.8944 1.79039C71.7163 1.41818 71.5867 0.981232 71.2466 0.738484C70.8741 0.463369 70.372 0.479558 69.9185 0.511925C68.5095 0.625207 67.1166 0.835583 65.74 1.14306C65.1893 1.25635 64.4767 1.62856 64.8006 2.22734C64.9625 2.53482 65.3351 2.66428 65.6752 2.59955C66.1449 2.50245 67.0842 2.68047 66.987 3.29544C66.9385 3.57055 66.6793 3.76475 66.404 3.78093C65.4484 3.82948 64.4929 3.4249 63.845 2.7452C63.343 2.19497 63.0028 1.48291 62.3226 1.17543C61.9177 0.997417 61.448 0.997417 60.9784 1.0136C60.0174 1.04597 59.051 1.07834 58.0793 1.1107H57.5124C57.2209 1.1107 56.9294 1.02979 56.6864 0.867957C56.5407 0.770858 56.4111 0.64139 56.2491 0.592841C56.1357 0.560474 56.0224 0.576652 55.909 0.576652C55.4555 0.609018 55.002 0.641388 54.5809 0.80322C54.4028 0.867953 54.2246 0.965056 54.0465 1.02979C53.3338 1.24017 52.5078 0.867953 51.8438 1.2078C51.698 1.28872 51.5685 1.41818 51.5523 1.56383C51.5361 1.70948 51.6009 1.83894 51.698 1.93604C51.8924 2.11406 52.1515 2.16261 52.3945 2.24353C52.8966 2.40536 53.35 2.63192 53.7711 2.9394C53.9655 3.08505 54.1436 3.24688 54.3542 3.32779C54.4675 3.37634 54.5809 3.39254 54.6781 3.45727C55.083 3.63528 55.2612 4.15314 55.6984 4.28261C55.8442 4.33116 56.0062 4.29879 56.1843 4.29879C56.3463 4.2826 56.5082 4.29879 56.654 4.3797C56.7836 4.4768 56.8646 4.67101 56.7836 4.80047C56.6702 4.9623 56.4435 4.94611 56.2653 5.02703C56.1033 5.10795 55.99 5.26979 55.828 5.31834C55.5851 5.38307 55.3583 5.18887 55.164 5.01085C54.6295 4.50917 53.9979 4.15314 53.3824 3.76474C53.1665 3.63528 52.9559 3.50042 52.7508 3.36016C52.524 3.21451 52.2973 3.06887 52.0381 2.98795C51.86 2.92322 51.6818 2.89086 51.5199 2.80994C51.4065 2.76139 51.2932 2.68047 51.1798 2.63192C50.6615 2.3568 50.0299 2.51863 49.463 2.68047C49.2524 2.7452 48.9123 2.58337 48.9123 2.58337C48.2321 2.22734 47.4547 2.06551 46.6935 2.16261C46.4019 2.21116 46.1104 2.27589 45.8189 2.22734C45.5112 2.16261 45.252 1.98459 44.9767 1.87131C44.2803 1.59619 43.4867 1.75803 42.7579 1.83895C42.4663 1.87132 42.2072 2.03314 42.0938 2.30826C41.9319 2.69665 42.2072 2.98795 42.4825 3.18215C43.3895 3.82948 44.5232 4.13696 45.6245 4.02368C45.9647 3.99131 46.3209 3.91039 46.6125 4.13695C46.7906 4.25024 46.8554 4.49299 46.7583 4.67101C46.6287 4.89757 46.3372 4.88138 46.0942 4.84902C45.3168 4.75192 44.5448 4.64942 43.7782 4.54153C43.1303 4.46062 42.4339 4.36352 41.9642 3.9104C41.7537 3.70001 41.5917 3.44108 41.3488 3.29544C41.1382 3.18215 40.9115 3.14978 40.6848 3.11741L38.5793 2.89086C38.2878 2.85849 37.9962 3.00413 37.8829 3.27925C37.6723 3.74856 38.223 4.08841 38.6603 4.28261C39.0814 4.46062 39.5673 4.83284 39.3567 5.2536C39.2595 5.4478 39.0328 5.5449 38.8222 5.52871C38.4173 5.49635 38.1582 5.22124 37.8666 4.99467C37.235 4.49299 36.4576 4.21788 35.664 4.18551C35.4211 4.18551 35.1781 4.26643 35 4.42826C34.5951 4.81666 34.9838 5.14032 34.9352 5.49635C34.8218 6.19222 33.5261 5.82001 33.2508 6.51589C33.1536 6.74245 33.2184 7.00139 33.3804 7.1794C33.6557 7.51925 34.0768 7.61634 34.4817 7.69726C35.5722 7.92382 36.6574 8.16118 37.7371 8.40932C38.4497 8.57115 39.1785 8.73298 39.8426 9.07283C40.2313 9.26703 40.62 9.52596 41.0411 9.67161C41.7861 9.94672 42.6283 9.86581 43.3895 10.0924C43.9887 10.2542 44.588 10.7559 44.7014 11.3223C44.75 11.5812 44.5232 11.824 44.2641 11.7916C43.5676 11.6945 42.8874 11.4679 42.2234 11.2576C41.2354 10.9339 40.2313 10.6102 39.2595 10.2057C38.8222 10.0115 38.3849 9.80107 37.9314 9.63924C36.7167 9.16993 35.4372 8.97573 34.1416 8.83008C33.6719 8.78153 33.0402 8.84626 32.9755 9.31558C32.9593 9.41267 32.9755 9.50978 32.9107 9.59069C32.8621 9.63924 32.7811 9.65543 32.7001 9.65543C32.1333 9.65543 31.7608 9.13756 31.4045 8.70062C31.0805 8.27985 30.6918 7.90765 30.2869 7.58398C29.8497 7.24414 29.3638 6.93665 28.8293 6.83955C28.1005 6.72627 27.2583 6.93665 26.7238 6.45116C26.5781 6.32169 26.4809 6.14367 26.3027 6.06276C26.157 5.98184 25.9788 5.96566 25.8168 5.96566C24.9315 5.9333 24.0515 5.95487 23.1769 6.03039C22.8692 6.06276 22.5453 6.09513 22.3023 6.33787C22.1889 6.45116 22.1241 6.61299 22.1565 6.77482C22.2051 7.14704 22.61 7.24413 22.9502 7.29268C23.0797 7.45451 23.0149 7.69726 22.8692 7.82673C22.7234 7.94001 22.5128 7.98856 22.3185 8.00474C21.8002 8.05329 21.2819 7.98855 20.7799 7.85909C20.5045 7.77817 20.1482 7.98856 20.1482 7.98856C19.7109 8.15039 19.1927 7.98856 18.7716 8.23131C18.5772 8.34459 18.4477 8.57116 18.48 8.79772C18.5448 9.05665 18.7878 9.13757 18.9983 9.25085C19.1603 9.34795 19.306 9.52596 19.2412 9.70398C19.2089 9.76871 19.1603 9.81726 19.1117 9.86581C18.4153 10.4322 17.2815 10.3351 16.6661 9.6878C16.5203 9.54215 16.4069 9.38031 16.245 9.26703C16.0506 9.13756 15.7915 9.12139 15.5648 9.12139C14.7226 9.08902 13.8858 9.11599 13.0544 9.2023C12.6495 9.25085 12.2284 9.31558 11.9369 9.59069C11.7587 9.76871 11.6291 10.0115 11.4024 10.1409C11.0785 10.3189 10.6574 10.1571 10.3011 10.2704C10.0257 10.3675 9.8476 10.5779 9.63705 10.7721C9.42651 10.9501 9.15116 11.1119 8.89202 11.031C8.76245 10.9986 8.64909 10.9015 8.53572 10.8368C7.92027 10.416 7.09428 10.4484 6.34926 10.497C6.12252 10.5131 5.89577 10.5293 5.70142 10.6264C5.55566 10.6912 5.42609 10.8044 5.29652 10.9177C4.60009 11.5003 3.83888 12.1638 2.9481 12.1153C2.65657 12.0991 2.36503 12.0344 2.12209 12.1476C1.96013 12.2285 1.84677 12.3904 1.68481 12.5037C1.49045 12.6331 1.23133 12.6655 1.00458 12.7464C0.777838 12.8435 0.551094 13.0539 0.599682 13.2966C0.680662 13.7012 1.39328 13.6689 1.52285 14.0573C1.52285 14.0573 1.81439 14.3809 2.02494 14.4295C2.62419 14.5751 3.27202 14.5589 3.83888 14.3162C4.35715 14.1058 4.77826 13.7498 5.26414 13.4747C5.75002 13.1995 6.34925 13.0215 6.86752 13.2157C6.9647 13.2481 7.07807 13.3128 7.11046 13.4261C7.17525 13.6365 6.93232 13.7821 6.72178 13.8631C6.40865 13.9817 6.09552 14.1004 5.7824 14.2191C5.52326 14.3162 5.24792 14.4618 5.19933 14.7208C5.16694 14.9473 5.3289 15.1415 5.49086 15.2872C5.83098 15.6108 6.30066 15.886 6.73795 15.7241C6.9485 15.6432 7.12667 15.449 7.32102 15.3519C7.64494 15.1901 8.01743 15.2224 8.35755 15.1092C8.61668 15.0283 8.84345 14.8664 9.0702 14.7208C9.36172 14.5428 9.68563 14.4133 10.0257 14.5266C10.1877 14.5751 10.3173 14.7208 10.3659 14.8826C10.4469 15.1901 10.1715 15.4328 9.92855 15.5623C9.57224 15.7565 9.19973 15.8698 8.79483 15.9021C8.42232 15.9345 8.00124 15.9021 7.70971 16.1449C7.58014 16.2582 7.49918 16.4038 7.36962 16.5171C7.17526 16.6789 6.8999 16.7437 6.77033 16.954C6.65696 17.1482 6.68936 17.391 6.73795 17.6014C6.75414 17.747 6.80273 17.9089 6.89991 18.0221C7.01328 18.1354 7.15904 18.1678 7.30481 18.2002C8.19559 18.3944 9.10256 18.5885 10.0095 18.4591C10.2039 18.4267 10.382 18.3944 10.5764 18.4267C10.7545 18.4591 10.9327 18.5885 10.9651 18.7827C10.9975 19.0417 10.7222 19.2359 10.625 19.4786C10.5278 19.7052 10.5926 19.9803 10.7869 20.1421C11.0299 20.3525 11.3862 20.3201 11.6777 20.4334C11.9855 20.5629 12.2122 20.8218 12.5037 20.9189C13.022 21.1131 13.6699 20.838 14.091 21.1779L14.7226 21.3397C15.1599 21.5824 15.6295 21.7928 16.1316 21.8252C17.0872 21.8899 17.9294 21.2426 18.6096 20.5629C18.885 20.2878 19.1603 20.0127 19.468 19.7699C19.8081 19.5272 20.1968 19.333 20.5208 19.0417C20.6179 18.9446 20.6989 18.8475 20.7313 18.7342C20.7637 18.6047 20.7313 18.4429 20.6179 18.3944C20.5531 18.362 20.4883 18.362 20.4236 18.362C20.1482 18.362 19.8567 18.3943 19.5814 18.4591C19.0145 18.6209 18.2533 18.7504 17.6865 18.4267C17.5731 18.362 17.4759 18.2163 17.5569 18.1354C17.5785 18.1138 17.6001 18.0977 17.6216 18.0869C18.9659 17.4234 20.6665 17.9089 22.0108 17.2292C22.3671 17.0511 22.6748 16.7922 23.0311 16.6304C23.3874 16.4685 23.8247 16.4038 24.1649 16.6142C24.2458 16.6628 24.3268 16.7437 24.343 16.8408C24.3754 17.0026 24.2296 17.1159 24.1163 17.213C23.7599 17.4719 23.3713 17.6985 22.9502 17.8441C22.7072 17.925 22.4319 18.0221 22.3185 18.2487C22.2375 18.4267 22.2861 18.6371 22.2213 18.8313C22.0918 19.2359 21.5411 19.333 21.2334 19.6243C20.9256 19.9156 20.8285 20.3687 20.5369 20.66C20.294 20.9189 19.9215 21.0322 19.6947 21.3073C19.5814 21.4368 19.5328 21.5986 19.549 21.7605C19.5976 22.1165 19.9215 22.1165 20.1159 22.1974C20.294 22.2945 20.4884 22.3592 20.6827 22.3592L23.7114 22.4402C24.6669 22.4725 25.6225 22.5049 26.578 22.3592C26.8858 22.3107 27.1935 22.2298 27.5174 22.246C27.8575 22.2621 28.2138 22.3592 28.5539 22.343C28.9103 22.3107 29.299 22.1003 29.3314 21.7443C29.3476 21.6634 29.3314 21.5824 29.3637 21.5015C29.4285 21.2588 29.7687 21.2264 30.044 21.2264C30.1898 21.2264 30.6433 20.8056 30.6433 20.8056C31.0158 20.6924 31.4044 20.5953 31.7608 20.8218C31.9065 20.9027 32.0199 21.0646 32.0361 21.2426C32.0523 21.5501 31.7932 21.6795 31.5988 21.8576C31.453 21.9708 31.3073 22.1812 31.3882 22.343C31.4692 22.5211 31.696 22.5696 31.8741 22.5858C32.5706 22.6505 33.2832 22.7153 33.9634 22.5211C34.2873 22.424 34.5951 22.2621 34.9352 22.1812C35.6316 22.0356 36.3928 22.2783 37.0245 21.9547C37.2026 21.8737 37.3484 21.7443 37.5266 21.6957C37.8019 21.5986 38.1096 21.6634 38.4011 21.6795C39.0813 21.7281 39.7292 21.5177 40.377 21.3073C41.176 21.0484 41.9804 20.7895 42.7902 20.5305C43.3571 20.3363 43.9564 20.1421 44.4422 19.7699C44.9281 19.4139 45.3168 18.8475 45.2844 18.2325C45.2844 18.0707 45.252 17.8927 45.3006 17.747C45.3978 17.5205 45.6407 17.4072 45.8837 17.391C46.1104 17.3748 46.3534 17.4395 46.5801 17.4395C47.6976 17.4234 48.4264 16.2744 49.4468 15.8536C49.5925 15.805 49.7707 15.7565 49.9003 15.9021C50.046 16.0316 50.046 16.2743 49.9327 16.4362C49.3496 17.2939 48.2645 17.569 47.3737 17.9898C47.1308 18.1031 46.9202 18.2811 46.8069 18.5238C46.4344 19.2521 47.0984 19.7376 47.6976 19.7214C48.1349 19.7052 48.5398 19.4786 48.9285 19.2682C49.3172 19.074 49.7221 18.8637 50.1594 18.8637C50.872 18.896 51.4713 19.4624 52.1677 19.4463C52.5078 19.4463 52.8156 19.3168 53.1557 19.2844C53.4796 19.2682 53.8683 19.3977 53.9493 19.7214C54.0141 19.9641 53.8683 20.2392 53.6416 20.3687C53.431 20.5144 53.1557 20.5467 52.8965 20.5467C51.4875 20.5953 50.0298 20.0774 48.6856 20.5143C48.4588 20.5953 48.2321 20.6924 48.0053 20.7571C47.3737 20.9351 46.6773 20.8056 46.0132 20.9027L45.3654 20.8704C44.9281 20.9027 44.4746 20.9675 44.1345 21.2426C43.9564 21.3882 43.8268 21.5986 43.6648 21.7605C43.4543 21.9547 43.1952 22.0679 42.9198 22.1812C39.6482 23.5244 35.9879 23.395 32.4896 23.9776C32.3114 24.0099 32.1495 24.1394 32.1009 24.3012C32.0199 24.544 32.1657 24.6734 32.3114 24.7867C33.6071 25.8063 35.0162 26.8582 36.6844 26.8905C36.8301 26.8905 36.9921 26.9391 37.1054 27.02C37.4618 27.2951 37.2188 27.6673 37.2188 28.0234C37.2026 28.6707 37.9476 29.0429 38.5793 29.1238C39.5672 29.2371 40.5552 29.0105 41.4946 28.7516C41.8185 28.6545 42.1424 28.5736 42.4663 28.7031C42.6121 28.7678 42.7416 28.9134 42.774 29.0753C42.8388 29.4151 42.5473 29.6417 42.272 29.7711C41.5918 30.0948 40.7981 30.1272 40.0369 30.111C39.2271 30.0948 38.4011 30.0139 37.5913 29.8521C37.2674 29.7873 36.9111 29.7064 36.6682 29.4637C36.4738 29.3018 36.3604 29.0591 36.2309 28.8325C35.9069 28.2985 35.4373 27.8453 34.9028 27.5217C34.3359 27.198 33.7043 27.0038 33.0888 26.7449C32.1495 26.3565 31.2749 25.8063 30.5137 25.1427C29.8982 24.6087 29.2666 23.9614 28.4406 23.9776C28.1652 23.9937 27.8899 24.0908 27.6146 24.1879C27.0208 24.3821 26.4215 24.544 25.8168 24.6734C25.1204 24.8191 24.3592 24.9162 23.76 24.5601C23.5494 24.4307 23.3712 24.2365 23.1445 24.107C22.1727 23.4759 20.8285 23.9452 19.9863 24.7543C19.5328 25.1913 19.1603 25.9357 19.5814 26.405C19.6786 26.5183 19.7919 26.583 19.8891 26.6963C20.0996 26.9714 20.0349 27.3598 20.0349 27.6997C20.0349 28.0395 20.213 28.4765 20.5531 28.4603L20.9904 28.8972C21.7678 29.2209 22.5938 29.3989 23.4198 29.4475C23.7437 29.4637 24.0839 29.4637 24.3754 29.6255C24.7803 29.8359 24.9746 30.3052 25.25 30.6612C25.914 31.5351 27.0639 31.9073 27.6956 32.8136C27.809 32.9592 27.8575 33.1534 27.7927 33.3314C27.6794 33.6227 27.3716 33.6389 27.0963 33.6713C26.8696 33.7036 26.6104 33.8008 26.578 34.0273C26.5456 34.173 26.6428 34.3186 26.7562 34.4157C27.0801 34.707 27.5336 34.7232 27.9547 34.7394C29.5095 34.7879 31.0643 34.9659 32.5868 35.2734C33.0565 35.3705 33.5423 35.4676 34.0282 35.4514C34.5141 35.4191 35.0162 35.2572 35.3239 34.9012C35.4696 34.7394 35.583 34.5452 35.7288 34.3995C35.9717 34.173 36.3442 34.0759 36.6519 34.173C36.7815 34.2053 36.8949 34.2701 36.9597 34.3833C37.0245 34.5128 37.0083 34.6585 36.9597 34.7879C36.8139 35.2734 36.3928 35.6618 35.8907 35.7751C35.5506 35.856 35.1781 35.8075 34.8218 35.8884C34.4817 35.9693 34.1254 36.2606 34.174 36.6166C34.1902 36.827 34.3683 37.0374 34.2064 37.264C34.093 37.4096 33.8824 37.4582 33.7043 37.4096C33.0079 37.1992 32.603 36.471 31.9227 36.2768C31.7284 36.212 31.5016 36.212 31.2911 36.1959C30.87 36.1635 30.4489 36.0826 30.044 36.0017C29.299 35.856 28.5539 35.7266 27.8251 35.5971C27.4796 35.5324 27.1395 35.473 26.8048 35.4191C25.995 35.2734 25.169 35.144 24.3754 35.3543C23.8571 35.4838 23.355 35.7751 22.8206 35.6942C22.3995 35.6456 22.0594 35.3867 21.6706 35.2249C21.2819 35.063 20.7799 35.0307 20.5208 35.3543C20.3912 35.5162 20.3588 35.7427 20.213 35.8884C19.9863 36.1635 19.5652 36.1311 19.2089 36.1797C18.8526 36.2282 18.4315 36.5357 18.5772 36.8594C18.5772 36.8594 18.4801 37.3125 18.1237 37.4582C17.5245 37.6847 17.0548 38.154 16.5689 38.5748C16.4069 38.7204 16.245 38.8823 16.1964 39.0927C16.1478 39.2707 16.1964 39.4649 16.245 39.6429C16.3746 40.0852 16.5311 40.5168 16.7147 40.9375C16.7957 41.1317 16.8928 41.3259 17.071 41.4554C17.2815 41.6172 17.5893 41.6334 17.8646 41.6496C18.4962 41.6658 19.1927 41.6658 19.711 41.2612C19.8891 41.1317 20.0835 41.0346 20.2778 41.0185C20.9742 40.9537 20.9256 41.6981 21.3143 41.9571C21.7354 42.2322 22.2375 41.8276 22.7234 41.6982C23.1121 41.6011 23.5332 41.682 23.8895 41.5201C24.1649 41.3907 24.343 41.1317 24.5859 40.9375C24.8451 40.7272 25.2824 40.6139 25.4929 40.9375C25.6063 41.1317 25.5739 41.3745 25.4281 41.5525C25.1366 41.9085 24.6831 41.9247 24.2782 42.038C23.9543 42.1351 23.6466 42.2807 23.3874 42.4749C23.2741 42.5559 23.1769 42.6368 23.1445 42.7662C23.0797 42.9604 23.1931 43.1708 23.3551 43.3003C23.5008 43.4459 23.6952 43.543 23.8247 43.6887C24.4402 44.3846 23.679 45.7116 24.8937 46.1323C25.088 46.1971 25.3148 46.2133 25.5091 46.1971L28.0681 46.1162C28.2138 46.1 28.3596 46.1485 28.473 46.2456C28.7645 46.4884 28.5702 46.8282 28.3272 46.9577C28.0519 47.1033 27.7279 47.0871 27.4202 47.0548C26.632 47.0008 25.8438 46.9415 25.0556 46.8768C24.6993 46.8444 24.3268 46.812 24.0353 46.6017C23.9219 46.5207 23.8409 46.4075 23.7114 46.3589C23.5656 46.2942 23.3875 46.3104 23.2417 46.2618C23.0473 46.1971 22.9178 46.0191 22.7882 45.8572C22.2051 45.1128 21.5789 44.4061 20.9094 43.7372C20.6017 43.4621 20.2778 43.1708 19.8891 43.0899C19.5814 43.0252 19.2736 43.1061 18.9659 43.1061C18.1399 43.1385 17.3787 42.7015 16.5689 42.6044C15.5486 42.4911 14.512 42.9281 13.5565 43.1223C13.2649 43.1708 12.9734 43.2355 12.6981 43.365C12.3094 43.5268 11.532 43.5754 11.2728 44.0933C11.0623 44.5464 11.3862 45.0643 11.7425 45.4203C12.0827 45.7763 12.5037 46.1485 12.5199 46.6502C12.5199 46.6502 12.8277 47.0872 12.8277 47.1519C12.8762 47.427 13.0868 47.6697 13.3621 47.7507C13.6213 47.8478 13.9128 47.8154 14.2043 47.7992C14.863 47.7453 15.527 47.6967 16.1964 47.6536C16.4232 47.6374 16.6499 47.6212 16.8604 47.7021C17.071 47.7992 17.2167 48.042 17.1358 48.2523C17.1034 48.3656 17.0062 48.4465 16.909 48.4951C15.5972 49.3528 13.7022 48.2362 12.358 49.013C11.7911 49.3366 11.4348 49.9516 10.9327 50.3723C10.2201 50.9549 9.24835 51.1653 8.58431 51.8126C8.29279 52.0716 8.08221 52.4114 7.90405 52.7674C7.85546 53.1235 8.21178 53.4148 8.55189 53.5281C8.9082 53.6252 9.28071 53.6413 9.60463 53.8194C9.92855 54.0136 10.1391 54.3858 10.4792 54.5476C11.0299 54.8227 11.7263 54.5152 12.3094 54.7256C12.5199 54.7904 12.6819 54.9198 12.8763 55.0169C13.6537 55.3891 14.7064 55.0493 15.0951 54.2887C15.1923 54.1107 15.2571 53.9003 15.3866 53.7546C15.5324 53.5928 15.7591 53.4957 15.9373 53.609C16.0021 53.6413 16.0669 53.7061 16.1155 53.7708C16.3638 54.116 16.6121 54.4559 16.8604 54.7903C16.9414 54.9198 17.0548 55.0493 17.2006 55.114C17.3787 55.1787 17.6055 55.114 17.7836 55.0331C18.2857 54.8065 18.7392 54.4829 19.1117 54.0783C19.3708 53.8032 19.6138 53.4633 20.0025 53.3986C20.3588 53.35 20.7151 53.609 20.9418 53.8841C21.1848 54.1754 21.3629 54.5152 21.6545 54.758C22.1565 55.1788 22.9016 55.1949 23.5656 55.1787C24.6669 55.1464 25.7628 55.1194 26.8534 55.0978C27.0153 55.0978 27.2097 55.0816 27.2907 54.936C27.3717 54.7742 27.2583 54.5962 27.3069 54.4343C27.4202 54.0136 28.1491 54.3049 28.4082 53.965C28.6025 53.7384 28.4406 53.35 28.7969 53.1882C28.9426 53.1235 29.1208 53.1558 29.2666 53.2368C29.6067 53.431 29.7201 53.8194 29.9792 54.0945C30.1736 54.3372 30.5461 54.4829 30.7728 54.2887C30.7728 54.2887 31.2101 54.2078 31.3397 54.143C31.6312 53.9812 31.9389 53.8517 32.2466 53.8032C32.3438 53.787 32.441 53.7708 32.5382 53.8032C32.8297 53.9165 32.7487 54.3534 32.8459 54.6447C32.9755 55.114 33.5909 55.3082 34.0606 55.1626C34.5303 55.0331 34.9028 54.6771 35.2753 54.3696C35.6478 54.0621 36.1013 53.7708 36.5872 53.8032C36.9273 53.8194 37.2998 53.9974 37.6075 53.8517C37.7857 53.787 37.9153 53.6252 38.0934 53.5928C38.3202 53.5442 38.5469 53.7061 38.7736 53.787C38.9842 53.8679 39.2109 53.8679 39.4215 53.9326C39.6968 54.0297 39.9559 54.321 39.713 54.6285C39.632 54.7418 39.5025 54.8227 39.3567 54.8551C38.7413 55.0493 38.2068 55.47 37.8829 56.0041C37.7047 56.2792 37.8991 56.6352 38.223 56.6352C39.5349 56.6514 40.8143 55.8261 42.1586 55.7128C42.7092 55.6642 43.3409 55.7128 43.7458 55.3244C43.9078 55.1788 44.0211 54.9684 44.1831 54.8065C44.7823 54.2078 45.997 54.4991 46.3695 53.609C46.4343 53.4471 46.5477 53.3177 46.6935 53.2529C47.1146 53.0749 47.3251 53.609 47.6814 53.8032C47.9406 53.9326 48.2483 53.8517 48.4912 53.7223C48.7342 53.5766 48.9447 53.3662 49.1553 53.1882C49.7869 52.6865 50.6777 52.3467 50.872 51.5699C50.9206 51.3433 50.9044 51.0682 50.7263 50.9064C50.6129 50.8093 50.4671 50.7607 50.3376 50.6798C49.8517 50.3723 49.7383 49.547 49.1553 49.4175C48.8314 49.3528 48.5074 49.5632 48.2645 49.8059C48.0378 50.0649 47.8596 50.3562 47.5842 50.5504C47.2927 50.7446 46.8716 50.7931 46.6449 50.5342C46.5315 50.4047 46.4991 50.2105 46.3695 50.0972C46.2724 50.0163 46.1428 50.0001 46.0294 49.9354C45.5922 49.6603 45.8513 48.9482 45.5597 48.5275C45.3492 48.2038 44.8957 48.1714 44.5232 48.1714C43.8592 48.1552 43.1789 48.1391 42.5635 48.3656C42.3691 48.4465 42.191 48.5436 41.9804 48.5436C41.3974 48.5922 40.9601 47.9934 40.377 47.8801C39.8587 47.7992 39.3405 48.1391 38.806 48.1229C38.5307 48.1229 38.2554 48.0258 37.9962 48.1067C37.7047 48.22 37.478 48.5598 37.1702 48.4627C36.9759 48.398 36.8787 48.1876 36.8949 47.9772C36.9435 47.6212 37.235 47.4108 37.4617 47.1681C37.5103 47.1195 37.5427 47.071 37.5589 47.0224C37.5913 46.8282 37.316 46.7635 37.1864 46.634C37.0245 46.456 37.1055 46.1647 37.2836 46.0352C37.478 45.9058 37.7371 45.9058 37.9476 45.9543C38.3687 46.0514 38.7412 46.2942 38.9842 46.634C39.1138 46.7797 39.2109 46.9577 39.3729 47.0548C39.5024 47.1357 39.6482 47.1519 39.8102 47.1519C41.3542 47.2921 42.8982 47.3623 44.4422 47.3623L45.2358 47.3784C46.0618 47.4432 46.904 47.5079 47.6976 47.2813C48.5884 47.0224 49.3334 46.3913 50.0461 45.7925C50.1918 45.663 50.3538 45.5336 50.4185 45.3555C50.5319 45.1128 50.4671 44.8215 50.3376 44.5788C50.208 44.3522 50.0137 44.158 49.8355 43.9476C49.5926 43.6563 49.3982 43.3326 49.2363 42.9766C49.1553 42.8148 49.1067 42.5882 49.2363 42.4749C49.301 42.4426 49.3658 42.4264 49.4306 42.4102C49.6573 42.3778 49.9003 42.4264 50.0946 42.5235C50.4023 42.6853 50.6291 42.9766 50.9692 43.0899C51.0988 43.1385 51.2607 43.1385 51.4065 43.1546C51.9788 43.1654 52.551 43.1438 53.1233 43.0899C53.5282 43.0575 53.9493 43.0252 54.3218 42.8472C54.5809 42.7339 54.8077 42.5559 55.0668 42.4588C55.4231 42.3131 55.8118 42.3131 56.1843 42.2646C56.3463 42.2484 56.5244 42.216 56.6702 42.1189C56.816 42.038 56.9293 41.8762 56.9131 41.6982C56.8808 41.4716 56.654 41.3259 56.4273 41.2612C56.1195 41.1479 55.7956 41.1156 55.4555 41.1317C55.1964 41.1479 54.9048 41.2127 54.6781 41.0023C54.4837 40.8404 54.4352 40.5653 54.5647 40.3388C54.7429 40.0151 55.164 39.9827 55.4879 40.096C55.7632 40.1931 56.0224 40.3549 56.2977 40.4682C56.5568 40.5653 56.8646 40.6139 57.1561 40.5815L57.8039 40.711C58.1926 40.6948 58.5813 40.4359 58.7109 40.0636C58.8567 39.6914 58.7271 39.2383 58.4032 39.0117C58.1116 38.8175 57.7391 38.8014 57.3828 38.8014C56.9779 38.8175 56.5245 38.8014 56.2329 38.4939C56.0386 38.2835 55.99 37.9436 56.1843 37.7333C56.3949 37.5229 56.735 37.5876 57.0103 37.6847C57.4962 37.8627 57.9659 38.1055 58.468 38.2349C58.9701 38.3806 59.5369 38.413 59.9904 38.1702C60.4115 37.9598 60.703 37.5229 60.7678 37.0698C60.8164 36.6004 60.6382 36.1149 60.2819 35.8075C59.3264 34.9659 57.642 35.6295 56.6378 34.8365C56.4435 34.6746 56.2815 34.4643 56.0548 34.3833C55.7794 34.2701 55.4717 34.351 55.1964 34.2701C54.9372 34.1891 54.7267 33.9788 54.4837 33.8493C53.7873 33.4771 52.8804 33.8169 52.1839 33.4124C52.0058 33.3153 51.8438 33.1534 51.7628 32.9592C51.5847 32.5385 51.8276 32.231 52.0706 31.972C52.1353 31.9073 52.2001 31.8264 52.2973 31.8102C52.5078 31.7617 52.686 31.972 52.8479 32.1339C53.3014 32.5708 53.9979 32.587 54.6133 32.6841C55.3745 32.8298 56.1033 33.1534 56.7026 33.6227C56.9293 33.7846 57.1237 33.9788 57.3666 34.0921C57.5934 34.2053 57.8363 34.2701 58.0955 34.3186C59.1806 34.5128 60.2981 34.529 61.3994 34.3833C61.5128 34.3672 61.6424 34.351 61.7072 34.2539C61.7396 34.1892 61.7396 34.1244 61.7396 34.0435C61.7234 33.7846 61.6262 33.5418 61.4642 33.3476C60.9298 32.6517 60.039 32.6356 59.2292 32.6356C58.5597 32.6356 57.8903 32.6356 57.2209 32.6356C57.0103 32.6356 56.7998 32.6356 56.6216 32.5385C56.3787 32.3928 56.2653 32.1339 56.071 31.9397C55.4393 31.3247 54.3542 31.8426 53.5282 31.5675C53.2853 31.4866 53.0423 31.2438 53.1395 31.0011C53.2043 30.904 53.3014 30.8392 53.4148 30.7907C54.2894 30.3861 55.3745 30.4994 56.1681 31.0496C56.3625 31.1953 56.5406 31.3571 56.7836 31.4218C56.9779 31.4866 57.2047 31.4542 57.4152 31.4704C57.9011 31.5189 58.3222 31.794 58.8081 31.8588C59.6988 31.9882 60.5249 31.4218 61.4156 31.26C62.0473 31.1629 62.7113 31.26 63.3106 31.0172C63.4725 30.9525 63.6345 30.8554 63.8288 30.7907C64.3471 30.6127 64.914 30.7907 65.4646 30.8069C66.0801 30.8069 66.8575 30.4023 66.5984 29.7064C66.5336 29.5122 66.3878 29.3342 66.2096 29.2209C65.8209 28.9458 65.4323 28.6221 64.9464 28.5089C64.7196 28.4603 64.4767 28.4603 64.2337 28.4603C63.2728 28.4819 62.3172 28.4981 61.367 28.5089C61.1079 28.525 60.784 28.4603 60.7678 28.2014C60.7678 28.0072 60.9135 27.8453 61.1079 27.8292C61.6586 27.7482 62.2092 27.6835 62.7437 27.6026C63.181 27.554 63.6183 27.554 64.0394 27.4731C64.3471 27.4246 64.6386 27.376 64.9625 27.4084C65.6104 27.4731 66.2258 27.7644 66.7765 28.1043C67.6025 28.6059 68.3961 29.2209 69.3355 29.4313C71.4086 29.8682 73.3035 28.1852 74.7773 26.7287C74.9069 26.5992 74.9717 26.4212 74.9231 26.2432C74.8745 26.0005 74.6801 25.9681 74.5182 25.9681C73.4492 25.9034 72.4127 26.3241 71.36 26.405C70.291 26.5021 69.0277 26.0814 68.7362 25.0618C68.6876 24.9 68.6714 24.7382 68.8496 24.6087C68.963 24.5116 69.1249 24.4954 69.2545 24.544C69.5622 24.6411 69.7404 24.9 69.9671 25.1104C70.615 25.6606 71.5867 25.6121 72.4127 25.4179C73.2387 25.2075 74.0809 24.9 74.9231 25.0456C75.6195 25.1589 76.5913 25.4664 76.6561 24.4954C76.6884 24.1394 76.4455 23.8319 76.1054 23.7024C75.6033 23.4921 75.0527 22.5211 75.6195 22.2298C76.5427 22.2298 76.98 23.4435 77.8384 23.7834C78.5348 24.0585 79.3284 23.6863 79.8791 23.1846C80.4297 22.6829 80.867 22.0518 81.4825 21.631C82.2923 21.0646 83.3288 20.9189 84.2196 20.5143C85.159 20.0774 85.9364 19.3653 86.7624 18.7666C88.3658 17.6337 90.2445 16.8893 92.188 16.6627C92.8197 16.5818 93.4513 16.5656 94.0506 16.3553C95.0061 16.0154 95.7349 15.2386 96.4314 14.4942C94.6012 13.5556 92.431 14.3809 90.4551 14.9797C88.9165 15.449 87.3292 15.7889 85.742 16.1125L78.3728 17.6499C78.1461 17.6985 77.9032 17.5852 77.806 17.3748C77.7088 17.1159 77.9032 16.9217 78.0975 16.8084C78.9721 16.242 80.0896 16.242 81.1262 16.1773C83.3774 16.0316 85.6124 15.4652 87.6693 14.5266C87.8475 14.4456 87.9609 14.2515 87.8961 14.0573C87.8475 13.8631 87.6856 13.8469 87.5398 13.8307C86.3251 13.7498 85.1266 14.1058 83.9281 14.2353C82.7134 14.3647 81.3529 14.2029 80.5431 13.3128C80.3649 13.1186 80.203 12.8597 80.3487 12.6008C80.4621 12.3904 80.7212 12.3095 80.948 12.3418C81.4177 12.4389 81.6768 12.8273 82.0331 13.1024C82.8429 13.7498 84.0252 13.6365 85.0456 13.3452C86.0497 13.0701 87.0701 12.6493 88.1067 12.8112C88.9812 12.9406 89.7748 13.4908 90.6656 13.5232C91.7345 13.5556 92.6901 12.8435 93.7428 12.6331C94.5364 12.4713 95.3624 12.5846 96.1722 12.5846C99.8487 12.536 102.958 9.83344 106.554 8.99191C107.218 8.83008 107.979 8.70062 108.271 8.00474C108.4 7.69726 108.4 7.34123 108.271 7.03375Z" fill="#F1F1F1" stroke="#BABABA" stroke-width="1.18548" stroke-linecap="round" stroke-linejoin="round"/>
</svg>
