<svg width="11" height="16" viewBox="0 0 11 16" fill="none" xmlns="http://www.w3.org/2000/svg">
<path d="M0.593672 6.16473C0.577476 6.94153 0.771828 7.70214 0.755632 8.47894C0.755632 9.41756 0.415532 10.4047 0.771844 11.2786C0.885216 11.5861 1.09572 11.8451 1.12811 12.1687C1.1767 12.46 1.07955 12.7513 1.16053 13.0426C1.24151 13.3339 1.51681 13.5281 1.69497 13.8032C1.92171 14.143 1.95409 14.6124 2.24562 14.936C2.39138 15.0978 2.61816 15.2111 2.8449 15.2759C3.62231 15.5186 4.48066 15.3082 5.24187 14.9846C5.98689 14.6447 6.69956 14.2078 7.47697 13.9327C7.83328 13.8032 8.23813 13.7061 8.48107 13.3986C8.70782 13.1073 8.74026 12.7028 8.77265 12.3305C8.85363 11.6185 9.03175 10.9226 9.30708 10.2591C9.46904 9.85451 9.67964 9.4661 9.76062 9.02915C9.8416 8.60839 9.76056 8.12289 9.45283 7.81541C9.06413 7.4432 8.43252 7.4594 7.94664 7.23284C7.33119 6.94154 6.97488 6.31037 6.65096 5.7116C6.42421 5.28004 6.19744 4.84849 5.97069 4.41694C5.69536 3.91526 5.43626 3.41358 5.19332 2.87954C5.03136 2.53969 4.88558 2.16748 4.61025 1.87619C4.41589 1.68199 4.15681 1.50397 4.09202 1.22886C4.05963 1.06703 4.09201 0.872813 3.99483 0.727164C3.88146 0.565332 3.63853 0.581523 3.44418 0.61389C2.63438 0.759538 1.87316 1.11558 1.24151 1.63344C0.96618 1.86 0.70706 2.24838 0.933804 2.50732C1.19294 2.8148 1.72739 2.5397 2.05131 2.76626C2.39143 2.99283 2.21329 3.54304 1.90556 3.80197C1.64643 3.99617 1.3387 4.10948 1.09576 4.31986C0.885216 4.51406 0.901364 4.85388 0.804188 5.09663C0.804188 5.10742 0.798774 5.11824 0.787977 5.12902C0.674605 5.46887 0.593672 5.8087 0.593672 6.16473Z" fill="#F1F1F1" stroke="#BABABA" stroke-width="1.18548" stroke-linecap="round" stroke-linejoin="round"/>
</svg>
