<svg width="68" height="34" viewBox="0 0 68 34" fill="none" xmlns="http://www.w3.org/2000/svg">
<path d="M57.4199 20.3622C56.9502 20.6535 56.27 20.5726 55.8974 20.168C55.4278 19.6664 55.4602 18.8896 55.0877 18.3232C54.7313 17.7406 54.0349 17.4816 53.4519 17.1256C52.8688 16.7858 52.2857 16.1708 52.4315 15.5073C52.5125 15.1351 52.7878 14.8438 52.9012 14.4878C53.1603 13.711 52.5611 12.9341 52.059 12.2868C50.9901 10.9113 50.1965 9.3253 49.7268 7.64225C49.581 7.10821 49.4515 6.55799 49.0789 6.15341C48.7064 5.76501 48.1558 5.60317 47.7185 5.27951C46.9087 4.66455 46.6171 3.61264 46.1637 2.70638C45.6616 1.68684 44.625 0.68348 43.5075 1.24989C43.054 1.47646 42.7463 1.9134 42.6167 2.41508C42.3252 3.67737 42.9407 4.79402 43.1512 5.99158C43.3456 7.15676 43.1512 8.38668 42.5844 9.4224C42.0499 10.4258 40.9 11.3158 39.831 10.9274C38.8107 10.5552 38.5354 8.96928 39.3613 8.2734C39.6529 8.03065 40.0416 7.885 39.9444 7.31859C39.912 7.01111 39.7339 6.75217 39.5071 6.54179C39.2804 6.35838 39.059 6.16957 38.8431 5.97538C38.2384 5.45751 37.6338 4.93966 37.0291 4.42179C36.5108 3.98485 36.0088 3.46699 35.4581 3.07859C35.3393 3.00307 35.2206 2.92755 35.1018 2.85203C34.5997 2.57692 34.1786 3.03005 34.0329 3.49936C33.9195 3.92012 33.8385 4.4218 33.4498 4.63218C32.9477 4.92348 32.2027 4.48652 31.7492 4.84255C31.4415 5.0853 31.3605 5.60317 30.9394 5.63553C30.7451 5.65172 30.5669 5.53844 30.4697 5.37661C30.2268 4.97203 30.3564 4.5189 30.2592 4.08195C30.1458 3.54791 29.6761 3.12714 29.1579 2.96531C28.6234 2.78729 28.0565 2.80347 27.5059 2.88439C27.1334 2.93294 26.7609 3.01386 26.4046 2.90058C26.0806 2.81966 25.8215 2.5931 25.5138 2.51218C25.1737 2.41508 24.785 2.47981 24.542 2.72256C24.2991 2.96531 24.2343 3.40226 24.4448 3.67737C24.5258 3.79065 24.6392 3.85539 24.704 3.96868C25.2546 4.77784 23.3273 5.71646 24.4286 6.71982C24.6554 6.91402 24.9307 7.02729 25.2222 7.09202C25.8053 7.23767 26.6313 7.83646 26.3074 8.43523C26.1778 8.6618 25.9511 8.77507 25.7081 8.80744C24.4448 8.98545 23.5702 7.82027 22.5337 7.15676C21.983 6.81691 21.3676 6.59035 20.9465 6.07249C20.7845 5.87829 20.6712 5.63553 20.655 5.39279C20.5578 3.95248 23.1168 3.72592 22.9062 2.33417C22.8414 1.92959 22.5661 1.57356 22.1936 1.39554C21.1732 0.893866 20.0071 0.424547 18.8734 0.651112C17.4158 0.942409 16.4116 2.28562 15.0835 2.9815C13.2048 3.95249 10.743 3.5479 9.05864 4.84255C8.60516 5.19858 8.21644 5.66791 7.73056 6.00775C7.11511 6.42852 6.3539 6.57417 5.62508 6.71982C5.03123 6.8385 4.44277 6.95716 3.85971 7.07584C3.55199 7.12439 3.21189 7.2053 2.98515 7.41568C2.7584 7.64225 2.7098 8.06302 2.96893 8.25722C3.24427 8.45142 3.77874 8.35431 3.82733 8.69416C3.85972 8.88836 3.71395 9.06637 3.5196 9.09874C2.96894 9.21202 2.45067 9.47095 2.02958 9.82698C1.85142 9.95645 1.67327 10.1345 1.5437 10.2963C1.41413 10.4905 1.36553 10.7009 1.25216 10.8951C1.07401 11.154 0.782487 11.1702 0.652919 11.4777C0.539547 11.7528 0.588123 12.0765 0.782475 12.303C1.13879 12.6914 1.70565 12.7723 2.24011 12.8209C2.75839 12.8532 3.34145 12.9018 3.73016 13.2578C3.98929 13.5006 4.13505 13.8566 4.39419 14.0994C4.78289 14.4554 5.34975 14.5039 5.88421 14.5201C8.18404 14.5687 10.5163 14.2126 12.7027 13.452C12.9133 13.3711 13.14 13.3387 13.3668 13.3549C14.3871 13.4682 14.29 14.5363 13.7555 14.9732C13.3668 15.3131 12.8161 15.394 12.2978 15.4425C9.59311 15.6853 6.775 15.2322 4.23223 16.2193C4.08647 16.2841 3.95691 16.365 3.87593 16.4945C3.68157 16.7857 3.84352 17.0285 4.00548 17.2389C4.71811 18.2261 5.51172 19.2618 6.64544 19.6664C7.24469 19.8768 7.90872 19.9091 8.54036 19.9253C11.2451 20.0224 13.9822 20.1033 16.6384 19.5693C17.2052 19.4722 17.7721 19.3265 18.3551 19.2942C18.922 19.278 19.4889 19.3589 20.0395 19.4398C21.5188 19.6664 22.9926 19.8929 24.461 20.1195C24.9145 20.2004 25.0765 20.783 24.704 21.0581C24.2181 21.398 23.4083 21.5113 22.7605 21.4627C17.8369 21.139 12.8485 21.3009 7.95731 21.9806C7.69817 22.0129 7.45522 22.11 7.26087 22.2557C6.45107 22.903 7.03414 23.9873 7.601 24.7317C8.54037 25.9131 9.54451 27.143 10.9698 27.6447C12.2492 28.0816 13.6583 27.8389 15.0188 27.7418C16.444 27.6609 17.8855 27.7741 19.2945 28.0493C19.8776 28.1787 20.2825 28.7128 20.2339 29.3116C20.1367 30.5738 20.4444 31.917 21.5619 32.4025C22.064 32.6129 22.6309 32.6129 23.1654 32.5967C27.846 32.5158 32.7372 32.3702 36.8834 30.2016C38.1466 29.5381 39.3775 28.6804 40.8028 28.5995C41.8879 28.5348 43.054 28.9231 43.9934 28.3891C44.9813 27.8389 45.2729 26.4957 46.3094 25.9454C46.6819 25.7512 47.1354 25.7189 47.4917 25.9131C48.3987 26.3986 47.7833 27.6447 48.4311 28.1949C48.8684 28.5348 49.5 28.3082 50.0507 28.4053C51.1196 28.5671 51.6865 29.9265 52.7716 30.0883C53.63 30.2016 54.3912 29.5057 55.2496 29.3601C55.9298 29.2468 56.6101 29.4896 57.3065 29.5705C58.3916 29.6838 59.4606 29.3763 60.5133 29.085C61.1126 28.907 61.7442 28.7128 62.1329 28.1625C62.3597 27.8227 62.4082 27.3858 62.1977 27.0459C61.7604 26.3662 60.7724 26.609 59.9788 26.7384C58.4888 26.9812 56.9016 26.4309 55.8813 25.3143C55.7355 25.1363 55.6383 24.9097 55.6545 24.6832C55.7355 23.7931 57.3065 24.1006 57.7114 24.7964C57.9057 25.1525 58.2135 25.4114 58.6022 25.4923C60.0436 25.7998 59.9465 24.5213 60.5619 23.9064C61.2907 23.1943 62.4892 23.696 63.38 24.1815C64.0116 24.5375 64.8214 24.8126 65.4693 24.667C65.7608 24.586 65.9228 24.2462 65.777 23.9711C65.6151 23.6474 65.7284 23.081 65.9876 22.7897C66.1495 22.5955 66.2953 22.4013 66.3601 22.1586C66.5868 21.4141 66.1657 21.2038 65.777 21.0905C64.6757 20.8154 63.542 21.2361 62.4406 21.4303C61.3231 21.6245 59.9464 21.4789 59.412 20.4917C59.2176 20.1195 59.1529 19.6825 58.9423 19.3103C58.8289 19.1 58.6022 18.9057 58.3754 18.841C58.1487 18.7763 57.9382 18.9705 57.9705 19.1971C58.0029 19.6502 57.7924 20.1195 57.4199 20.3622Z" fill="#F1F1F1" stroke="#BABABA" stroke-width="1.18548" stroke-linecap="round" stroke-linejoin="round"/>
</svg>
