<svg width="49" height="46" viewBox="0 0 49 46" fill="none" xmlns="http://www.w3.org/2000/svg">
<path d="M48.0613 3.6013C47.9749 3.67683 47.894 3.75237 47.8184 3.82789C47.7536 3.87644 47.705 3.94114 47.6402 3.95733C47.5592 3.98969 47.4945 3.97354 47.4297 3.98972C47.1867 3.98972 46.96 4.03825 46.7332 4.0868C45.972 4.24863 45.2108 4.37811 44.482 4.62085C44.0609 4.7665 43.737 5.07399 43.2997 5.15491C43.0082 5.21964 42.6842 5.34909 42.6194 5.6242C42.6032 5.68894 42.6033 5.75368 42.5547 5.80223C42.4737 5.89933 42.3117 5.83459 42.2145 5.75368C41.9554 5.55948 41.7611 5.30053 41.6477 5.00923C41.5991 4.89595 41.5505 4.76649 41.4695 4.68557C41.3723 4.60465 41.2266 4.5723 41.1133 4.53994C39.2021 4.23246 37.3558 5.3329 35.4284 5.41381C35.1207 5.43 34.7968 5.41385 34.4891 5.44621C33.9546 5.49476 33.4202 5.68893 32.9505 5.98023V19.0563H29.5493V43.6547C29.4198 43.7086 29.2955 43.768 29.1768 43.8327C28.9824 43.9137 28.8042 43.9945 28.5937 44.0107C28.4155 44.0269 28.205 43.9784 28.0431 44.0593C27.8325 44.1726 27.7839 44.4639 27.6706 44.6905C27.4276 45.1598 26.8446 45.3054 26.3101 45.3539C25.3546 45.4349 24.3666 45.3216 23.4434 45.0141C23.1519 44.917 22.8603 44.8037 22.5526 44.7714C22.3421 44.739 22.1153 44.7552 21.9048 44.7714C21.4675 44.7714 21.014 44.6904 20.7225 44.3829C20.3176 43.946 20.431 43.2016 20.0747 42.7161C19.8155 42.3762 19.362 42.2306 18.9571 42.3439C18.8761 42.3763 18.7789 42.4086 18.7304 42.4895C18.6332 42.6028 18.6332 42.7646 18.5846 42.8941C18.5036 43.153 18.2769 43.3311 18.034 43.4282C17.791 43.5091 17.5156 43.5252 17.2565 43.5252C17.1269 43.5414 16.9974 43.5414 16.884 43.5091C16.8732 43.4767 16.8571 43.4443 16.8355 43.412C16.5439 42.8132 16.0094 42.3601 15.4912 41.9393C14.8919 41.4376 14.2926 40.9036 13.6934 40.4181C12.8836 39.5765 12.3653 38.4114 12.3167 37.2462C12.3005 36.8254 12.333 36.4208 12.1872 36.0324C12.0252 35.5955 11.6366 35.2556 11.4908 34.8187C11.3612 34.3818 11.4584 33.9286 11.5231 33.4755C11.6365 32.6178 11.5717 31.7439 11.3774 30.9023C11.1992 30.077 10.9077 29.3002 10.6324 28.5073C10.0331 26.808 9.49867 25.0764 9.45008 23.2801C9.3853 21.5485 9.74159 19.6227 8.70505 18.2471C8.47831 17.9558 8.20296 17.7131 7.96002 17.4541C7.05304 16.4831 6.43759 15.2694 5.85454 14.088C5.70878 13.3598 5.41729 12.6639 5.01239 12.0489C4.73706 11.6282 4.41311 11.2236 4.33213 10.7381C4.28354 10.463 4.31594 10.1555 4.25115 9.88039C4.17017 9.54054 3.92722 9.23305 3.83004 8.8932C3.76526 8.66664 3.74908 8.42392 3.68429 8.19735C3.55472 7.77659 3.23082 7.43673 2.8907 7.12925C1.99992 6.32009 0.914745 5.54328 0.655609 4.36191C0.558433 3.89259 0.590888 3.40711 0.639476 2.92162C0.682666 2.38218 0.709659 1.83733 0.720456 1.2871C1.23873 1.25473 1.74077 1.2871 2.22665 1.44893C2.38861 1.49748 2.53436 1.57841 2.69632 1.62696C2.97165 1.70788 3.26321 1.72408 3.53854 1.72408C3.58713 1.72408 3.61949 1.70786 3.66808 1.69168C3.86243 1.61076 3.74906 1.28713 3.83004 1.07675C3.89482 0.882552 4.12157 0.817811 4.31592 0.785445C5.12572 0.60743 6.01653 0.44559 6.77774 0.817803C6.89111 0.866353 7.00449 0.947277 7.10166 1.02819C7.18264 1.12529 7.24739 1.2224 7.31218 1.3195C7.51733 1.64316 7.7441 1.93985 7.99244 2.20957H24.237C24.5393 2.61955 24.8632 3.00794 25.2088 3.37476C25.3707 3.55277 25.5651 3.74695 25.7918 3.84405C26.0024 3.92497 26.2291 3.94114 26.4559 3.95733C28.1511 4.04364 29.8462 4.08143 31.5414 4.07064C31.8491 4.07064 32.1406 4.07063 32.416 4.18392C32.5455 4.24865 32.6751 4.32956 32.8047 4.37811C33.2743 4.60467 33.8251 4.55613 34.3271 4.42666C34.8292 4.31338 35.3151 4.11917 35.8333 4.05444C36.4326 4.00589 37.0642 4.11918 37.5987 3.86025C37.7607 3.77934 37.9064 3.66604 38.0846 3.6013C38.3113 3.52039 38.5542 3.53657 38.7972 3.52039C39.4936 3.48802 40.1901 3.24527 40.7731 2.87306C40.7947 2.88385 40.8163 2.89463 40.8379 2.90542C41.2428 3.19672 41.8096 3.0511 42.2793 2.93782C43.4292 2.6627 44.6116 2.5656 45.7939 2.64651C46.1016 2.67888 46.4256 2.71124 46.7171 2.8407C46.9924 2.97017 47.2191 3.16437 47.4782 3.3262C47.6618 3.44487 47.8562 3.53657 48.0613 3.6013Z" fill="#F1F1F1" stroke="#BABABA" stroke-width="1.18548" stroke-linecap="round" stroke-linejoin="round"/>
</svg>
