<svg width="8" height="5" viewBox="0 0 8 5" fill="none" xmlns="http://www.w3.org/2000/svg">
<path d="M0.932905 2.10879C0.754749 2.35154 0.592773 2.61047 0.592773 2.91795C0.608969 3.03123 0.625197 3.1445 0.706177 3.22541C0.819549 3.35488 1.03003 3.32251 1.20819 3.30633C1.70487 3.2416 2.20699 3.21462 2.71446 3.22541C2.79544 3.22541 2.87641 3.2254 2.94119 3.25777C3.26511 3.33869 3.45948 3.69472 3.7672 3.82418C3.97775 3.9051 4.22071 3.85655 4.43126 3.74327C4.62561 3.64617 4.80375 3.50053 4.9819 3.35489C5.24104 3.1499 5.51097 2.95568 5.7917 2.77227C5.98605 2.64281 6.21277 2.49716 6.32614 2.28678C6.42332 2.09258 6.4395 1.88223 6.39091 1.67185C6.34232 1.47765 6.26136 1.28344 6.16418 1.08924C6.0994 0.927407 6.00222 0.749376 5.84026 0.66846C5.74308 0.61991 5.62971 0.619926 5.51634 0.603743C5.24101 0.58756 4.93333 0.571369 4.6742 0.717017C4.44745 0.846483 4.30166 1.07305 4.07491 1.20251C3.76719 1.38053 3.36226 1.29961 3.07073 1.1216C2.92496 1.04068 2.79544 0.927399 2.63348 0.878849C2.50392 0.8303 2.35815 0.830308 2.22858 0.846491C2.1476 0.862674 2.06664 0.862658 2.00186 0.911208C1.94787 0.932785 1.90463 0.959757 1.87224 0.992124C1.54832 1.25105 1.3054 1.55854 1.07865 1.8822C1.03546 1.95772 0.986892 2.03327 0.932905 2.10879Z" fill="#F1F1F1" stroke="#BABABA" stroke-width="1.18548" stroke-linecap="round" stroke-linejoin="round"/>
</svg>
