<svg width="34" height="35" viewBox="0 0 34 35" fill="none" xmlns="http://www.w3.org/2000/svg">
<path d="M32.7579 16.3228C32.3368 17.0349 32.272 18.2163 31.4622 18.3943C31.0411 18.5076 30.5876 18.2648 30.1665 18.3619C29.4701 18.5238 29.3082 19.43 28.8871 20.0126C28.304 20.8056 27.2027 20.9674 26.3281 21.4367C25.3726 21.987 24.7085 22.9741 24.5628 24.0584C24.5142 24.3659 24.5142 24.6734 24.4008 24.9647C24.1417 25.6444 23.2832 25.9842 22.5706 25.8224C22.3439 25.7577 22.101 25.6605 21.8742 25.7576C21.6637 25.8386 21.5503 26.0651 21.4693 26.2755C20.9349 27.5216 20.4328 28.8163 19.4286 29.7225C18.052 30.9363 15.8493 31.1143 14.2945 30.1271C13.8572 29.852 13.4685 29.4798 13.0798 29.1399C12.5831 28.7192 12.0702 28.32 11.5411 27.9424C11.4602 27.8776 11.363 27.8129 11.2659 27.8291C11.1687 27.8453 11.0877 27.9262 11.0229 28.0071C10.6828 28.4441 10.4884 29.0105 10.4884 29.5769C10.4884 29.9491 10.5694 30.3537 10.4074 30.6935C10.294 30.9363 10.0673 31.1143 9.85677 31.2761C8.9498 31.999 8.03744 32.7218 7.11967 33.4447C6.86053 33.655 6.60138 33.8492 6.29365 33.9787C6.00213 34.092 5.66203 34.1244 5.33811 34.1567C4.5607 34.2215 3.77789 34.2862 2.98969 34.3509C2.90871 34.3509 2.81152 34.3671 2.73054 34.3186C2.61716 34.27 2.5524 34.1405 2.50381 34.0111C2.35804 33.477 2.45524 32.8782 2.76296 32.4251C3.0059 32.0853 3.36216 31.794 3.36216 31.3894C3.34597 31.2437 3.29743 31.0819 3.24884 30.9363C2.84394 29.8682 2.601 28.7192 1.95316 27.7967C1.61304 27.3274 1.12718 26.9229 0.592712 26.7125V16.0477H3.99387V2.97169C4.46355 2.6804 4.99802 2.48623 5.53249 2.43768C5.84021 2.40531 6.1641 2.42147 6.47183 2.40528C8.39915 2.32437 10.2455 1.22393 12.1566 1.53141C12.27 1.56377 12.4157 1.59612 12.5129 1.67704C12.5939 1.75796 12.6425 1.88742 12.6911 2.0007C12.8044 2.292 12.9988 2.55095 13.2579 2.74515C13.3551 2.82606 13.5171 2.8908 13.5981 2.7937C13.6467 2.74515 13.6466 2.68041 13.6628 2.61567C13.7276 2.34056 14.0516 2.21111 14.3431 2.14638C14.7804 2.06546 15.1043 1.75797 15.5254 1.61232C16.2542 1.36957 17.0154 1.2401 17.7766 1.07827C18.0033 1.02972 18.2301 0.981194 18.4731 0.981194C18.5379 0.965011 18.6026 0.981162 18.6836 0.948796C18.7484 0.932613 18.797 0.867911 18.8618 0.819362C18.9373 0.74384 19.0183 0.668295 19.1047 0.592773C19.1587 0.614351 19.2127 0.630542 19.2667 0.641331C19.3746 0.932628 19.488 1.21854 19.6068 1.49905C19.9469 2.25966 20.3356 3.02028 20.9672 3.5705C21.113 3.69997 21.2912 3.82943 21.3883 4.00744C21.6151 4.36347 21.5017 4.8166 21.5503 5.22118C21.5989 5.94943 22.0847 6.5644 22.5544 7.13081C22.9431 7.60012 23.3805 8.1018 23.9797 8.18271C24.1903 8.23126 24.4008 8.19887 24.6275 8.23123C25.0163 8.29597 25.3564 8.53872 25.6803 8.76529C25.8746 8.91093 26.069 9.05658 26.1824 9.25078C26.3119 9.47735 26.3119 9.73629 26.3605 9.99522C26.4091 10.238 26.5224 10.4969 26.7654 10.594C26.8949 10.6425 27.0407 10.6263 27.1703 10.6587C27.5266 10.7558 27.721 11.1604 27.721 11.5326C27.7048 11.9048 27.559 12.2447 27.4456 12.6007C27.4132 12.7625 27.3647 12.9082 27.3971 13.07C27.4295 13.248 27.559 13.4099 27.6886 13.5393C28.3526 14.2352 29.2272 14.7207 30.1827 14.9149C30.5714 14.9958 30.9925 15.0282 31.3812 15.1415C31.8347 15.2871 32.0777 15.5461 32.353 15.9021C32.4718 16.0531 32.6067 16.1934 32.7579 16.3228Z" fill="#F1F1F1" stroke="#BABABA" stroke-width="1.18548" stroke-linecap="round" stroke-linejoin="round"/>
</svg>
