<svg width="11" height="9" viewBox="0 0 11 9" fill="none" xmlns="http://www.w3.org/2000/svg">
<path d="M0.629368 5.13455C0.645564 5.3773 0.677956 5.62005 0.791328 5.84661C0.920896 6.10554 1.16381 6.31593 1.29338 6.57486C1.39056 6.76905 1.40674 6.96325 1.48772 7.17363C1.5849 7.44874 1.76307 7.69149 1.98982 7.88569C2.73483 8.46829 3.88476 8.29027 4.67837 8.37119C5.18044 8.41974 5.6663 8.40356 6.15218 8.27409C6.18457 8.2633 6.21698 8.24711 6.24937 8.22553C6.33035 8.19317 6.39514 8.11226 6.45993 8.03134C6.76765 7.70768 7.09155 7.384 7.49645 7.18981C7.85277 6.99561 8.25765 6.9147 8.61396 6.73669C8.98647 6.54249 9.32659 6.26738 9.55334 5.92753C9.82867 5.53913 9.97445 5.02127 9.73151 4.61669C9.61814 4.4225 9.40759 4.27685 9.32661 4.05028C9.19704 3.72662 9.3752 3.38676 9.48857 3.06309C9.56955 2.80416 9.63433 2.52906 9.56955 2.27013C9.52096 1.99502 9.32659 1.75225 9.06746 1.68752C8.92169 1.65515 8.77595 1.67134 8.64639 1.6066C8.48443 1.50951 8.41963 1.29913 8.27387 1.16967C8.19289 1.08875 8.06331 1.0402 7.93374 0.991655C7.71779 0.916133 7.50184 0.840608 7.2859 0.765086C6.97817 0.651804 6.65425 0.538517 6.34652 0.619433C6.13597 0.667983 5.95784 0.797456 5.76349 0.910739C5.18043 1.25059 4.48399 1.34768 3.80376 1.3315C3.52843 1.3315 3.25311 1.49333 3.17213 1.75226C3.16133 1.77383 3.15592 1.79542 3.15592 1.81699C3.01016 2.52905 2.16799 2.91745 1.52015 3.2573C1.3096 3.37058 1.08285 3.46769 0.904692 3.6457C0.54838 4.01792 0.564584 4.6005 0.629368 5.13455Z" fill="#F1F1F1" stroke="#BABABA" stroke-width="1.18548" stroke-linecap="round" stroke-linejoin="round"/>
</svg>
