<svg width="48" height="44" viewBox="0 0 48 44" fill="none" xmlns="http://www.w3.org/2000/svg">
<path fill-rule="evenodd" clip-rule="evenodd" d="M47.3719 14.7494C47.2423 15.688 46.7888 16.5943 46.06 17.2254C45.8009 17.452 45.4931 17.6462 45.3636 17.9536C44.8777 19.0055 46.5459 20.3649 45.0073 21.2388C44.7805 21.3683 44.5214 21.4492 44.2622 21.4815C42.5617 21.7243 41.8976 24.0709 42.9989 25.2684C43.5496 25.8672 44.4404 26.1909 44.6995 27.0162C44.7481 27.1781 44.7805 27.356 44.7805 27.5502C44.7805 27.8415 44.6995 28.1329 44.57 28.3918C44.1489 29.2171 43.3553 29.6703 42.5293 30.0101C41.7033 30.3661 40.8287 30.6089 39.9217 30.7384C39.2901 30.8355 38.626 30.884 38.0592 31.1753C37.8486 31.2886 37.6543 31.4342 37.5085 31.6122C37.0712 32.1301 36.3424 32.2596 35.7431 31.9845C34.5284 31.4019 33.2652 30.9487 31.9695 30.625C31.678 30.5441 31.354 30.6412 31.1597 30.8678C30.9492 31.1267 31.0625 31.3533 31.1597 31.5799C31.7859 32.9716 32.4176 34.3688 33.0546 35.7713C33.1842 36.0788 33.3461 36.3863 33.6215 36.5805C34.1559 36.9365 35.0305 36.6937 35.3544 37.2602C35.5002 37.4867 35.484 37.778 35.3544 38.0046C34.8038 39.008 33.33 38.6034 32.6497 39.3964C32.4392 39.6229 32.342 39.9142 32.1476 40.1408C31.7751 40.5777 31.1435 40.6748 30.5928 40.8205C29.8316 41.047 29.119 41.4354 28.5359 41.9533C28.212 42.2446 27.7909 42.3579 27.3536 42.3579C27.1107 42.3417 26.8677 42.4388 26.6734 42.5844C26.3009 42.8919 25.9932 43.3451 25.5235 43.3936C25.3129 43.4098 25.1186 43.3451 24.9242 43.2803C22.8673 42.4712 21.8146 40.1731 21.4421 37.9884C21.4421 37.956 21.4367 37.9291 21.4259 37.9075C21.3125 37.1469 21.2316 36.3216 20.5513 35.8361C20.2922 35.6419 20.0978 35.3667 20.033 35.0593C19.9196 34.4605 20.3731 34.3148 20.6809 34.0397C21.1829 33.5542 21.1506 32.7127 20.859 32.0815C20.5675 31.4504 20.0654 30.9326 19.7091 30.3338C18.9317 29.0553 18.8669 27.3075 19.7415 26.0776C20.0331 25.673 20.4217 25.3332 20.6647 24.9124C21.021 24.3136 21.0534 23.4235 20.1626 23.1646C19.8711 23.0675 19.5472 23.0837 19.2556 23.1646L16.1622 23.9899C15.5791 24.1518 14.9799 24.2975 14.3806 24.1842C12.3237 23.731 11.7731 20.2193 9.66759 20.3164C9.23029 20.3325 8.82543 20.5267 8.40433 20.6724C6.9143 21.1579 5.19751 20.8989 3.90183 20.0251C3.57792 19.7985 3.27017 19.5234 3.10821 19.1512C2.91386 18.6819 3.01106 18.1316 3.05965 17.6138C3.18922 16.0602 2.80051 14.4419 1.95832 13.1148C1.76396 12.8074 1.48861 12.4837 1.16469 12.3057C0.711201 12.0306 0.500684 11.4803 0.630252 10.9625C0.813807 10.1641 0.997346 9.36576 1.1809 8.56739C1.32666 7.96861 1.47243 7.35363 1.90972 6.93287C2.29842 6.56066 2.86528 6.39882 3.2054 5.99424C3.999 5.03943 3.14063 3.56677 3.38357 2.40158C3.86945 1.81898 4.45248 1.34966 5.10032 0.977446C5.91012 0.5405 7.06004 0.34631 7.6107 1.10692C7.80505 1.39822 7.86983 1.77042 7.80505 2.11027C7.64309 2.8547 6.97907 3.30784 6.28264 3.42112C5.95872 3.48586 5.57001 3.50203 5.39186 3.77715C5.29468 3.90661 5.27848 4.08464 5.26228 4.23028C5.1975 4.84525 5.16511 5.55728 5.6348 5.94568C5.87774 6.15606 6.20164 6.20462 6.50937 6.15607C6.73611 6.1237 6.94666 5.99426 7.15721 5.89716C7.40015 5.80006 7.64309 5.71911 7.88603 5.62201C8.4043 5.41163 8.9226 5.18508 9.45707 5.02324C10.2507 4.7805 11.0605 4.60247 11.8865 4.48919C12.8744 4.37591 13.8786 4.34357 14.8665 4.44067C15.2552 4.47304 15.6763 4.52158 16.0164 4.71578C17.1664 5.29837 17.3607 6.93288 18.4296 7.62875C19.4014 8.2599 20.6809 7.88769 21.7822 7.54784C22.8835 7.19181 24.2116 6.91669 25.1024 7.66111C25.3615 7.87149 25.5559 8.16278 25.815 8.37316C26.1389 8.63209 26.56 8.74539 26.9487 8.84249C28.0015 9.10143 29.0866 9.328 30.1393 9.1338C31.2407 8.90724 32.18 8.2437 33.1842 7.77439C34.2045 7.32126 35.4516 7.04616 36.4072 7.62875C37.3304 8.19517 37.7353 9.40889 38.6746 9.95912C39.6464 10.5093 40.8611 10.2019 41.9624 10.4123C43.2743 10.2181 44.1327 11.804 43.5658 12.8397C43.2581 13.39 42.675 13.7298 42.5131 14.3771C42.4483 14.6684 42.5131 14.9759 42.7236 15.1539C43.1933 15.5585 43.8411 15.1377 44.3756 14.8626C45.2826 14.3933 46.3839 14.4257 47.3719 14.7494ZM7.75649 10.1533C7.64312 9.84583 7.49732 9.50599 7.23819 9.31179C7.14101 9.24706 7.04384 9.19853 6.96286 9.1338C6.83329 9.02052 6.75231 8.89104 6.67133 8.76158C6.54176 8.58356 6.3636 8.43792 6.18545 8.32464C6.14226 8.30306 6.09369 8.29224 6.0397 8.29224L5.82914 8.30844C5.79675 8.30844 5.76976 8.31385 5.74816 8.32464C5.63479 8.38937 5.5538 8.535 5.53761 8.66446C5.50521 8.81011 5.50525 8.95575 5.48905 9.1014C5.45666 9.2956 5.39187 9.48982 5.27849 9.65165C5.14893 9.86204 4.93839 10.0401 4.84121 10.2666C4.69545 10.5741 4.74403 10.9463 4.95457 11.1891C5.06795 11.3185 5.21372 11.4156 5.32709 11.5289C5.52144 11.6907 5.66718 11.9011 5.82914 12.1115C5.9911 12.3057 6.16927 12.4999 6.41221 12.597C6.50939 12.6455 6.62276 12.6617 6.73613 12.6617C6.8819 12.6617 7.02765 12.6132 7.12482 12.5161C7.25439 12.419 7.31917 12.2572 7.40015 12.1277C7.52971 11.9335 7.70787 11.7878 7.80505 11.5936C8.04799 11.1567 7.91845 10.6226 7.75649 10.1533Z" fill="#F1F1F1" stroke="#BABABA" stroke-width="1.18548" stroke-linecap="round" stroke-linejoin="round"/>
</svg>
