<svg width="6" height="7" viewBox="0 0 6 7" fill="none" xmlns="http://www.w3.org/2000/svg">
<path d="M0.775667 4.21666C0.986215 4.54033 1.29393 4.76688 1.53687 5.05818C1.84459 5.43039 2.13611 5.94826 2.62199 5.94826C2.97831 5.94826 3.26983 5.64078 3.51277 5.36567C3.77191 5.06358 4.03105 4.75611 4.29019 4.44323C4.63031 4.05483 4.97042 3.61788 5.01901 3.10002C5.08379 2.48506 4.71129 1.93482 4.33879 1.43314C4.12824 1.14184 3.9015 0.834367 3.57758 0.688718C3.25366 0.526886 2.80015 0.559249 2.62199 0.866729C2.50862 1.04474 2.50865 1.2875 2.41148 1.4817C2.23332 1.90246 1.74743 2.04811 1.39112 2.27468C1.05101 2.46888 0.791871 2.79255 0.662303 3.14858C0.548931 3.50461 0.565119 3.893 0.775667 4.21666Z" fill="#F1F1F1" stroke="#BABABA" stroke-width="1.18548" stroke-linecap="round" stroke-linejoin="round"/>
</svg>
