<svg width="204" height="101" viewBox="0 0 204 101" fill="none" xmlns="http://www.w3.org/2000/svg">
<path d="M202.524 21.2275C202.233 21.454 201.909 21.632 201.536 21.6968C201.018 21.7777 200.467 21.6158 199.949 21.7777C199.058 22.0366 198.475 23.1533 197.552 23.0238C197.147 22.9591 196.807 22.6516 196.386 22.5707C196.159 22.5383 195.916 22.603 195.754 22.7649C195.56 22.9752 195.673 23.1694 195.69 23.3798C195.738 23.8815 195.188 24.2052 194.734 24.4155C193.665 24.8902 192.602 25.365 191.544 25.8397C190.701 26.2119 189.778 26.665 189.438 27.5227C189.146 28.2348 189.341 29.0439 189.163 29.7884C189.082 30.1444 188.904 30.468 188.92 30.8241C188.92 31.1154 189.114 31.4229 189.357 31.5038C189.778 31.8922 190.102 32.1997 190.102 32.1997C190.637 32.7013 190.928 33.4458 190.847 34.174C190.831 34.3358 190.782 34.5139 190.669 34.6271C190.507 34.789 190.248 34.8051 190.021 34.8051C188.887 34.789 187.64 34.611 186.733 35.2745C186.442 35.501 186.199 35.7923 185.891 35.9703C185.34 36.294 184.66 36.2455 184.045 36.1322C183.429 36.0189 182.798 35.8409 182.166 35.9056C181.551 35.9865 180.903 36.4073 180.822 37.0384C180.789 37.4268 180.935 37.8476 180.725 38.1551C180.627 38.2845 180.482 38.3817 180.32 38.4302C179.477 38.6891 178.36 38.0094 177.826 38.9319C177.68 39.1746 177.647 39.4659 177.68 39.7572C177.745 40.6635 177.68 41.5859 177.437 42.476C177.259 43.2204 176.935 43.9648 176.238 44.3532C175.979 44.4827 175.688 44.5474 175.396 44.5151C174.262 44.3856 174.279 43.091 173.42 42.6216C173.291 42.5569 173.08 42.5893 172.983 42.7026C172.87 42.832 172.918 42.9615 172.967 43.0748C173.679 44.6284 174.602 46.279 174.198 47.9297C174.052 48.4638 173.777 48.9493 173.485 49.4186C172.87 50.3572 172.125 51.1987 171.266 51.927C170.958 50.8265 172.044 49.5642 171.396 48.6256C171.234 48.3829 170.991 48.221 170.796 47.9944C170.602 47.7841 170.473 47.4604 170.618 47.2176C170.683 47.0882 170.796 47.0073 170.894 46.9264C171.347 46.538 171.703 45.9715 171.606 45.3566C171.558 45.1138 171.444 44.8873 171.266 44.7255C170.699 44.24 170.003 44.596 169.711 45.1138C169.517 45.5022 169.485 45.9554 169.517 46.3923C169.566 47.0397 169.744 47.6708 170.019 48.2372C170.213 48.658 170.489 49.1435 170.278 49.5642C170.149 49.7908 169.889 49.9526 169.792 50.1954C169.582 50.6809 170.019 51.4577 169.533 51.6842C169.436 51.7328 169.339 51.7328 169.242 51.7651C168.918 51.9108 168.885 52.4125 169.096 52.6876C169.485 53.1893 170.311 53.1893 170.699 53.4806C171.509 53.8204 171.979 54.7752 172.416 55.5196C172.529 55.7462 172.562 56.0213 172.432 56.2641C172.108 56.879 171.347 56.345 170.942 56.7172C170.57 57.0571 171.007 57.7206 171.396 57.9633C171.606 58.0928 171.784 58.2708 171.898 58.4974C172.173 59.1447 171.59 59.5007 171.072 59.5978C170.667 59.6625 170.23 59.6464 169.889 59.8567C169.517 60.0833 169.339 60.5688 169.468 60.9896C169.598 61.378 169.954 61.7016 169.728 62.1709C169.63 62.3651 169.452 62.5108 169.258 62.5755C168.723 62.7697 168.221 62.5755 167.703 62.5108C167.282 62.446 166.796 62.4784 166.505 62.7859C166.31 62.9801 166.229 63.2714 166.116 63.5303C165.84 64.1129 165.355 64.566 164.885 65.0192C164.642 65.2457 164.367 65.4885 164.059 65.6018C163.784 65.6827 163.508 65.6989 163.233 65.7312C162.472 65.8445 161.791 66.2329 161.127 66.6375C160.836 66.7993 160.544 66.9773 160.334 67.2201C160.075 67.5114 159.929 67.8998 159.751 68.2396C159.135 69.5019 158.034 70.5053 156.706 70.9908C155.718 71.5734 154.762 72.2207 154.131 73.1755C153.807 73.661 153.596 74.2112 153.337 74.7291C153.11 75.1822 152.851 75.603 152.738 76.0885C152.625 76.5578 152.625 77.0595 152.657 77.545C152.819 79.7297 153.337 81.8821 154.212 83.8888C154.714 85.054 155.329 86.1868 155.588 87.4329C155.734 88.0964 155.75 88.7923 155.977 89.4234C156.188 90.0546 156.576 90.621 156.852 91.2198C157.953 93.5663 157.402 96.366 156.495 98.7935C156.414 99.0039 156.285 99.1981 156.09 99.3437C155.605 99.6836 155.313 99.3437 154.957 99.2143C154.519 99.0686 154.034 99.1819 153.645 98.9715C153.418 98.842 153.272 98.6155 153.127 98.4051C151.529 96.0208 149.985 93.6041 148.495 91.155C147.798 90.0222 147.086 88.7114 147.442 87.4167C147.62 86.7047 148.122 86.0735 148.122 85.3453C148.106 84.4876 147.409 83.8241 146.778 83.2577C145.498 82.1248 143.911 80.9111 142.243 81.3318C141.336 81.5746 140.526 82.3028 139.603 82.1896C138.955 82.1086 138.421 81.6555 137.886 81.2671C134.598 78.9044 130.015 79.4384 126.112 79.665C125.577 79.6164 125.01 79.584 124.508 79.8268C124.282 79.9401 124.071 80.1019 123.941 80.3285C123.537 81.0082 124.006 81.7203 124.573 82.1572C125.156 82.6265 125.885 82.9502 126.209 83.6946C126.371 84.0344 126.338 84.4552 126.095 84.7627C125.691 85.2482 124.994 85.0701 124.508 84.7627C124.071 84.4875 123.698 84.1153 123.196 84.0021C122.257 83.7593 121.285 84.4876 120.33 84.2934C119.277 84.083 118.743 82.8693 117.787 82.3676C116.637 81.7688 115.26 82.3352 113.965 82.319C112.361 82.2867 110.758 81.2995 109.235 81.8012C108.669 81.9954 108.167 82.3676 107.632 82.6589C107.098 82.934 106.45 83.112 105.899 82.8531C105.689 82.756 105.446 82.5779 105.235 82.9016C105.154 83.0311 105.154 83.1929 105.219 83.3386C105.429 83.8079 105.089 84.1315 104.782 84.3905C103.696 85.3129 102.466 86.2839 101.04 86.3001C100.895 86.3001 100.733 86.2839 100.587 86.3163C99.8742 86.4943 99.858 87.5138 99.4531 88.1288C99.2263 88.4848 98.8376 88.7276 98.5137 88.9865C97.2666 89.9898 96.6026 91.6567 96.7969 93.2427C96.9427 94.2622 97.4124 95.2494 97.5905 96.2527C96.8023 96.2419 96.0141 96.2366 95.2259 96.2366C94.8858 96.2366 94.5295 96.2366 94.2218 96.1233C93.7845 95.9615 93.4606 95.6054 93.0557 95.3951C92.5374 95.1199 91.9543 95.0714 91.4037 94.9419C90.853 94.7963 90.27 94.5211 90.0594 93.9871C89.9136 93.6311 89.9622 93.2265 89.8003 92.8867C89.6059 92.5144 89.201 92.3202 88.9905 91.9642C88.7475 91.5272 88.8447 90.9932 88.8933 90.4915C88.9095 90.3621 88.9257 90.2326 88.8609 90.1193C88.8123 89.9898 88.6989 89.9089 88.6018 89.8442C86.4639 88.2421 85.6055 85.4909 83.9859 83.3871C83.5 82.7398 82.917 82.141 82.172 81.8173C81.4593 81.5098 80.6657 81.4775 79.8883 81.4613C79.451 81.4451 78.9651 81.4775 78.6898 81.785C78.4469 82.0763 78.4631 82.4809 78.3983 82.8369C78.2201 83.905 77.297 84.8112 76.228 84.9892C75.483 85.1025 74.819 84.7303 74.2521 84.2772C73.9444 84.0344 73.6691 83.7593 73.3775 83.5166C73.0698 83.2414 72.7459 82.9825 72.4544 82.675C71.3206 81.4289 70.7862 79.7297 69.5715 78.5483C68.7131 77.723 67.5794 77.2051 66.9315 76.218C66.6076 75.7163 66.4133 75.1013 65.9436 74.7615C65.4577 74.3893 64.7937 74.3892 64.1944 74.4054C62.8555 74.4486 61.5167 74.4864 60.1778 74.5187C59.6757 74.5349 59.0927 74.5996 58.8173 75.0204C58.6392 75.2793 58.6554 75.6354 58.5258 75.9267C58.1695 76.8167 56.9548 76.8815 55.9992 76.8005C54.3149 76.6387 52.6305 76.4769 50.9461 76.315C50.282 76.2503 49.618 76.1856 48.954 76.0561C47.7879 75.8134 46.6865 75.3602 45.5852 74.9071C45.0129 74.6698 44.4407 74.4378 43.8684 74.2112C41.439 73.2079 39.0096 72.2045 36.6126 71.1203C36.2401 70.9422 35.8514 70.7642 35.4303 70.6995C35.074 70.6348 34.7015 70.6509 34.3452 70.6833C33.3518 70.748 32.3585 70.8128 31.3651 70.8775C30.2152 70.9422 29.0329 71.0393 27.9478 71.4277C27.829 71.158 27.7156 70.8883 27.6077 70.6186C27.2189 69.7447 26.8464 68.8708 26.2148 68.1587C25.4212 67.2687 24.3037 66.7346 23.2185 66.2329C21.5989 65.4777 19.9739 64.7171 18.3435 63.9511C17.8415 63.7245 17.3394 63.4818 16.7887 63.4494C16.4162 63.4332 16.0275 63.498 15.6874 63.3523C15.2501 63.1581 15.0396 62.6402 14.9748 62.1547C14.91 61.6693 14.9586 61.1838 14.8452 60.7145C14.7157 60.1804 14.3755 59.7435 14.0516 59.3065C13.4038 58.4326 12.7397 57.5425 11.8975 56.8466C11.4117 56.4583 10.8286 56.0375 10.8286 55.4226C10.8124 54.9856 11.1201 54.5972 11.2173 54.1764C11.2659 53.9822 11.1039 53.8042 10.9096 53.8528C10.9096 53.8528 10.116 53.8851 9.93782 53.61C8.94987 52.0402 9.03084 50.0335 7.70277 48.7389C7.10352 48.1563 6.35851 47.7355 5.80785 47.1206C4.35021 45.4861 4.52836 42.9291 3.31366 41.1328C3.10311 40.8091 2.84397 40.534 2.66582 40.1942C1.69406 38.2522 3.83193 35.8571 3.07072 33.818C2.89256 33.3163 2.56865 32.8955 2.3743 32.41C2.21234 31.9407 2.17994 31.4391 2.16375 30.9374C2.09896 29.6427 2.05038 28.2995 2.47147 27.0696C2.66583 26.5194 2.94115 25.9853 3.07072 25.4189C3.20029 24.8201 3.1355 24.189 3.1517 23.5578C3.16789 22.7972 3.29746 22.0366 3.41083 21.276C3.81573 18.5087 3.78335 15.6928 3.34606 12.9416C3.32447 12.7906 3.31366 12.6396 3.31366 12.4885C3.23268 10.8055 2.37429 9.07387 1.61308 7.66593C1.30535 7.06715 0.981447 6.4522 0.916663 5.7725C0.900467 5.54594 0.916655 5.30318 0.868067 5.07662C0.819479 4.88242 0.722311 4.7206 0.592743 4.55876C0.803291 4.57495 0.997631 4.60731 1.20818 4.63968C1.64547 4.73678 2.06657 4.88242 2.47147 5.07662C2.69822 5.1899 2.92495 5.30319 3.16789 5.3841C3.5404 5.51357 3.91291 5.54593 4.30161 5.57829C4.93325 5.62684 5.5973 5.67539 6.13176 5.35173C6.22894 5.28699 6.32612 5.20608 6.3747 5.10898C6.4071 5.02806 6.40709 4.93097 6.3909 4.83387C6.3909 4.72598 6.3855 4.6181 6.3747 4.51021C6.62304 4.81229 6.86598 5.11977 7.10352 5.43264C7.42744 5.83722 7.75136 6.29035 7.75136 6.80821C7.75136 7.03478 7.73518 7.34227 7.96192 7.39082C8.14008 7.43937 8.28583 7.22899 8.48018 7.22899C8.72312 7.21281 8.8527 7.55265 9.09564 7.56884C9.2738 7.58502 9.43575 7.37463 9.43575 7.19661C9.43575 7.00242 9.33858 6.8244 9.2576 6.64638C8.93368 5.98287 8.75551 5.23845 8.75551 4.49403C8.75551 4.28365 8.75552 4.05708 8.69074 3.86288C8.62596 3.71723 8.52877 3.60394 8.4154 3.47448C8.14546 3.14003 7.87014 2.81097 7.5894 2.48731H102.968C103.146 2.48731 103.34 2.42258 103.486 2.3093C103.729 2.13128 104.053 1.80762 104.085 1.3383C104.101 1.04701 104.182 0.690977 104.458 0.610061C104.603 0.561511 104.765 0.626232 104.879 0.739514C104.992 0.836614 105.073 0.982266 105.138 1.12792C105.386 1.64578 105.64 2.16364 105.899 2.6815C106.061 3.00516 106.223 3.32883 106.482 3.57157C106.757 3.8305 107.162 3.97616 107.535 3.9438C107.891 3.92761 108.248 3.78197 108.571 3.92762C108.831 4.0409 108.993 4.316 109.252 4.44547C109.478 4.54257 109.738 4.49403 109.964 4.41311C110.207 4.31601 110.418 4.17037 110.645 4.07327C111.066 3.87907 111.584 3.8467 111.973 4.08945C112.118 4.17036 112.232 4.29983 112.361 4.41311C112.62 4.63968 112.912 4.81768 113.236 4.94715C113.236 4.94715 114.289 5.35174 115.05 5.30319C115.147 5.30319 115.26 5.30318 115.358 5.33555C115.552 5.3841 115.714 5.52974 115.843 5.65921C116.151 5.95051 116.475 6.2418 116.864 6.40363C117.252 6.54928 117.738 6.54929 118.062 6.29036C118.208 6.19326 118.305 6.03144 118.451 5.93434C118.71 5.72395 119.066 5.6754 119.358 5.78868C119.488 5.83723 119.601 5.90197 119.73 5.95052C120.152 6.11235 120.637 5.95052 121.075 6.03143C121.431 6.09616 121.739 6.30654 122.079 6.45219C122.63 6.69494 123.229 6.74348 123.828 6.7273C123.423 7.03478 122.953 7.26136 122.5 7.47174C122.36 7.52568 122.219 7.58502 122.079 7.64975C121.032 8.10288 119.979 8.55601 118.921 9.00914C118.597 9.13861 118.273 9.28424 117.965 9.47844C117.172 9.93157 116.556 10.6598 116.135 11.4528C116.038 11.6308 115.957 11.8088 115.973 12.0192C115.973 12.2134 116.103 12.4076 116.313 12.44C116.491 12.4562 116.653 12.3105 116.799 12.181C117.22 11.7926 117.69 11.4366 118.192 11.1453C118.532 10.9511 118.937 10.7893 119.277 10.9673C119.569 11.113 119.682 11.4852 119.941 11.7117C120.233 11.9707 120.67 12.0192 121.042 11.9221C121.431 11.825 121.771 11.6308 122.127 11.4852C123.213 11.0158 124.46 10.9188 125.48 10.3038C125.755 10.1258 126.031 9.9154 126.322 9.73739C127.326 9.09006 128.557 8.87968 129.756 8.84731C129.869 8.84731 129.999 8.86349 130.064 8.96059C130.112 9.05768 130.031 9.20333 129.95 9.28425C129.583 9.7158 129.216 10.1474 128.849 10.5789C129.173 10.7084 129.529 10.6275 129.853 10.7084C130.42 10.8378 130.76 11.3719 131.149 11.7926C132.218 12.9255 134.032 13.2815 135.441 12.5856C135.926 12.1649 136.59 12.084 137.222 12.003C137.697 11.9383 138.172 11.8736 138.647 11.8088C138.809 11.7926 138.988 11.7765 139.133 11.8412C139.49 11.9869 139.522 12.4562 139.765 12.7313C140.056 13.0711 140.575 13.1035 141.028 13.0873C141.125 13.0873 141.239 13.0873 141.32 13.0226C141.417 12.9578 141.449 12.8284 141.449 12.6989C141.471 12.7097 141.492 12.7205 141.514 12.7313C141.854 12.9255 142.211 13.1197 142.421 13.4271C142.632 13.7184 142.729 14.1068 143.004 14.3334C143.312 14.6085 143.782 14.5923 144.186 14.7056C144.348 14.7596 144.494 14.8297 144.624 14.916C144.397 15.0455 144.203 15.2235 143.976 15.3529C143.02 15.9679 141.789 15.9355 140.656 15.8708C140.089 15.8384 139.473 15.8061 139.02 15.4662C138.874 15.3529 138.745 15.2235 138.599 15.1426C138.032 14.8513 137.384 15.3044 136.85 15.6443C136.04 16.1297 135.084 16.3887 134.145 16.3887C133.351 16.6962 132.622 16.9713 132.622 16.9713C131.505 17.392 130.582 18.2821 130.128 19.3664C130.064 19.4959 130.015 19.6415 130.047 19.771C130.128 20.1432 130.679 20.1594 130.954 19.9328C131.246 19.6901 131.375 19.334 131.618 19.0589C131.861 18.7838 132.347 18.622 132.59 18.8971C132.784 19.1236 132.687 19.4635 132.59 19.7386C132.315 20.5478 132.039 21.3569 131.764 22.1661C131.602 22.6192 131.44 23.0885 131.23 23.5255C130.744 24.5612 129.999 25.4836 129.691 26.6003C129.432 27.6036 129.578 28.7203 130.096 29.6265C130.339 30.0473 130.663 30.4357 130.711 30.9212C130.76 31.3905 130.517 31.8598 130.566 32.3291C130.647 32.8794 131.084 33.2839 131.505 33.64C131.635 33.7532 131.764 33.8503 131.91 33.8665C132.072 33.8665 132.218 33.7856 132.347 33.7047C133.432 32.9926 134.404 32.0378 134.955 30.8565C135.505 29.6751 135.586 28.251 134.971 27.0858C134.858 26.8592 134.712 26.6488 134.615 26.4061C134.501 26.1148 134.453 25.8235 134.404 25.516C134.307 24.9658 134.21 24.3832 134.307 23.8329C134.388 23.3636 134.615 22.9267 134.841 22.5059C135.316 21.5997 135.792 20.6934 136.267 19.7871C136.38 19.5444 136.51 19.3178 136.72 19.156C136.947 19.0104 137.271 18.978 137.449 19.156C137.595 19.3016 137.611 19.5282 137.692 19.7224C137.757 19.9166 137.935 20.127 138.129 20.0623C138.21 20.0299 138.275 19.9652 138.323 19.9004C138.809 19.2531 138.647 18.3145 139.085 17.6348C139.538 16.9227 140.494 16.7285 141.336 16.8094C142.761 16.9551 144.041 17.6995 145.239 18.4925C145.579 18.7191 145.952 18.978 146.049 19.3826C146.243 20.0946 145.547 20.7258 145.434 21.454C145.369 21.8748 145.498 22.3117 145.579 22.7325C145.644 23.1532 145.628 23.6387 145.304 23.93C145.223 24.011 145.11 24.0757 144.98 24.1242C144.429 24.3508 143.684 24.3022 143.506 24.8525C143.393 25.2571 143.798 25.6778 144.219 25.7102C144.64 25.7426 145.045 25.4836 145.353 25.1923C145.612 24.9334 145.838 24.6259 146.017 24.2861C146.13 24.0433 146.243 23.7682 146.47 23.6064C146.891 23.2989 147.523 23.574 147.782 24.0271C148.057 24.4641 148.09 25.0143 148.171 25.516C148.268 26.1633 148.446 26.7945 148.705 27.3771C148.802 27.5875 148.932 27.814 149.159 27.8787C149.191 27.8895 149.223 27.8949 149.256 27.8949C148.948 28.6717 148.414 29.578 147.474 30.4195C146.13 31.6332 146.259 32.4748 146.616 32.9765C146.573 33.0196 146.529 33.0736 146.486 33.1383C146.211 33.5752 146.502 34.1902 146.94 34.4491C147.377 34.708 147.928 34.7242 148.446 34.7242C149.078 34.7242 149.742 34.7242 150.309 34.4329C150.568 34.2873 150.794 34.0931 151.037 33.8989C152.041 33.1545 153.272 32.7661 154.519 32.7822C154.908 32.7984 155.329 32.8308 155.653 32.6204C155.864 32.4586 155.993 32.2158 156.188 32.0216C156.787 31.3743 157.823 31.4552 158.666 31.1639C159.686 30.7917 160.415 29.7722 160.431 28.6879C160.431 28.0406 160.237 27.2638 160.69 26.7945C160.868 26.6164 161.111 26.5193 161.37 26.4708C162.617 26.2119 163.816 27.0048 165.063 27.3447C166.877 27.8302 168.95 27.2314 170.213 25.8558C170.278 25.4675 170.338 25.0845 170.392 24.7068C170.456 24.3508 170.505 23.9786 170.408 23.6226C170.375 23.4931 170.327 23.3636 170.246 23.2665C170.904 22.7055 171.563 22.1445 172.222 21.5835C173.096 20.8391 174.019 20.0784 175.121 19.7871C175.801 19.6253 176.497 19.6415 177.194 19.6577C179.429 19.7116 181.659 19.7656 183.883 19.8195C184.482 19.8357 185.081 19.8519 185.681 19.7224C186.247 19.5929 186.798 19.334 187.316 19.0751C188.418 18.5249 189.616 17.8613 189.924 16.68C190.102 16.0488 189.973 15.3206 190.296 14.7542C190.62 14.1554 191.333 13.8803 191.77 13.3624C192.094 12.9902 192.256 12.4885 192.45 12.0354C192.758 11.2748 193.196 10.5627 193.73 9.94776C194.07 9.54318 194.621 9.13861 195.074 9.41372C195.414 9.60792 195.528 10.1096 195.916 10.2229C196.354 10.3362 196.694 9.85067 197.083 9.59173C197.844 9.10624 198.929 9.60792 199.366 10.4009C199.803 11.1939 199.771 12.1487 199.722 13.0549C199.69 14.0151 199.652 14.9753 199.609 15.9355C199.593 16.2916 199.577 16.68 199.739 17.0036C199.933 17.3758 200.322 17.6024 200.662 17.8452C201.731 18.6381 202.411 19.9004 202.524 21.2275Z" fill="#F1F1F1" stroke="#BABABA" stroke-width="1.18548" stroke-linecap="round" stroke-linejoin="round"/>
</svg>
