<svg width="7" height="13" viewBox="0 0 7 13" fill="none" xmlns="http://www.w3.org/2000/svg">
<path d="M1.36694 1.58355C1.5127 1.24371 1.75564 0.952393 2.01478 0.677279C2.12815 0.563997 2.67881 0.515463 2.66262 0.85531L2.92177 3.57409C2.92177 3.67119 2.93795 3.76826 2.98654 3.86536C3.05132 3.94628 3.14851 3.99484 3.24569 3.96248C3.31047 3.93011 3.34283 3.86539 3.37523 3.81684C3.68295 3.33135 4.1688 2.9753 4.71946 2.82965C4.83283 2.81347 4.96243 2.78111 5.07581 2.79729C5.5131 2.86203 5.59408 3.25043 5.64267 3.57409C5.70745 4.02722 5.75604 4.56124 5.39973 4.83635C5.12439 5.04673 4.67092 5.0791 4.60614 5.40276C4.55755 5.54841 4.63853 5.71026 4.7681 5.82354C4.88147 5.93682 5.02723 6.00157 5.173 6.08249C5.37815 6.17959 5.57251 6.29285 5.75607 6.42231C6.07999 6.63269 6.40386 6.95637 6.35527 7.32859C6.32288 7.55515 6.14473 7.74933 5.95037 7.8788C5.82081 7.9759 5.67509 8.05682 5.51313 8.08919C5.12442 8.13774 4.78425 7.86264 4.47652 7.61989C4.10401 7.3286 3.63435 7.03727 3.19705 7.34475C3.05129 7.44185 2.95413 7.58752 2.88935 7.73317C2.77597 7.9921 2.71119 8.29957 2.80837 8.57469C2.85695 8.7527 2.97036 8.91453 3.08373 9.06018C3.39685 9.50252 3.68836 9.96105 3.9583 10.4358C4.03928 10.5976 4.12027 10.7432 4.13647 10.9212C4.16886 11.1802 4.00689 11.4877 3.63438 11.4067C3.50481 11.3744 3.39144 11.3097 3.31046 11.2126C2.97034 10.9051 2.69501 10.5328 2.41968 10.1768C2.03097 9.65894 1.64229 9.12491 1.54511 8.49377C1.49652 8.15392 1.14016 7.2153 1.09158 7.03728C0.929616 6.55179 0.929616 6.06629 0.767656 5.58079C0.686676 5.3866 0.427524 3.80064 0.751444 3.31515C1.04297 2.86202 1.1402 2.29562 1.28596 1.79394C1.30755 1.71842 1.33455 1.64829 1.36694 1.58355Z" fill="#F1F1F1" stroke="#BABABA" stroke-width="1.18548" stroke-linecap="round" stroke-linejoin="round"/>
</svg>
