<svg width="17" height="8" viewBox="0 0 17 8" fill="none" xmlns="http://www.w3.org/2000/svg">
<path d="M0.752045 4.38907C0.914005 4.72892 1.20554 4.98784 1.51327 5.21441C2.03154 5.60281 2.59839 5.92647 3.16525 6.25014C3.99125 6.71945 4.88203 7.20495 5.8214 7.17258C6.35587 7.1564 6.85794 6.97838 7.37621 6.83273C8.75287 6.41197 10.2105 6.16922 11.652 6.25014C11.8949 6.26632 12.154 6.29869 12.397 6.25014C12.5913 6.20159 12.7695 6.10449 12.9476 6.00739C13.1312 5.91029 13.3201 5.81319 13.5145 5.71609C13.5793 5.66754 13.6441 5.63517 13.6765 5.57044C13.725 5.52189 13.725 5.45716 13.7412 5.39243C13.7844 4.98246 13.833 4.57248 13.887 4.1625C13.9032 4.0654 13.9032 3.96831 13.8708 3.87121C13.806 3.70937 13.6279 3.62846 13.5469 3.48282C13.4497 3.27243 13.5955 3.0135 13.806 2.88403C14.0166 2.77075 14.2595 2.77075 14.4863 2.7222C14.9397 2.64129 15.3608 2.44708 15.7171 2.1396C15.8467 2.02632 15.9763 1.88068 15.9925 1.70266C16.0249 1.39518 15.7495 1.16862 15.4742 1.02297C14.5186 0.537472 13.3687 0.456558 12.3484 0.812588C11.9921 0.942054 11.6682 1.12006 11.3118 1.20098C10.2591 1.49228 9.14158 1.07151 8.07265 1.16861C7.31144 1.23334 6.58261 1.55701 5.8214 1.55701C5.20595 1.55701 4.5581 1.36281 4.00744 1.60556C3.86167 1.68647 3.73211 1.78358 3.58634 1.83213C3.11666 2.04251 2.5498 1.89686 2.06392 2.09105L1.56184 2.26908C0.752045 2.57656 0.347145 3.62846 0.752045 4.38907Z" fill="#F1F1F1" stroke="#BABABA" stroke-width="1.18548" stroke-linecap="round" stroke-linejoin="round"/>
</svg>
