<svg width="26" height="18" viewBox="0 0 26 18" fill="none" xmlns="http://www.w3.org/2000/svg">
<path d="M23.5959 14.9808C23.1586 15.5472 22.4784 16.1784 21.8306 15.8871C21.6038 15.7738 21.4419 15.5958 21.2637 15.4339C20.2434 14.6086 18.559 14.9808 17.5548 14.2202C17.4684 14.1555 17.3874 14.0799 17.3119 13.9936C16.9232 13.5567 16.6802 12.8446 16.0972 12.7961C15.9028 12.7799 15.6923 12.8608 15.5141 12.8123C15.0283 12.699 14.8825 11.9545 14.3966 11.8898C13.8621 11.8089 13.6354 12.521 13.4087 12.9903C12.8094 14.1555 11.2222 14.4468 10.4124 15.4663C10.2018 15.7252 10.0723 16.0327 9.84553 16.2755C9.1815 17.0522 8.01537 17.1493 6.99502 17.1655C6.86546 17.1817 6.71968 17.1817 6.62251 17.1008C6.55772 17.0361 6.50915 16.9552 6.47676 16.8742C6.28241 16.324 6.41197 15.6929 6.34718 15.0941C6.2662 14.4953 5.81272 13.848 5.21347 13.9613C5.0677 13.9936 4.92195 14.0745 4.77618 14.1555C4.58183 14.2633 4.39288 14.3766 4.20932 14.4953C3.4967 14.9161 2.75168 15.3368 1.94188 15.2721C1.13208 15.1912 0.354652 14.3497 0.662376 13.6052C0.80814 13.2492 1.14826 13.0226 1.47218 12.8123C1.92566 12.5102 2.38455 12.2027 2.84883 11.8898C3.09177 11.7442 3.33471 11.55 3.41569 11.2749C3.46428 11.0968 3.43191 10.9026 3.39952 10.7085C3.28615 9.99639 3.39951 9.26814 3.51289 8.55608C3.75043 6.9917 3.99337 5.42733 4.24171 3.86295C4.32269 3.31272 4.41988 2.76249 4.66282 2.26081C4.85717 1.87241 5.19726 1.56494 5.56977 1.35456C5.74792 1.24127 5.94229 1.1118 6.15284 1.06325C6.34719 1.0147 6.57392 1.07945 6.78447 1.07945C7.0544 1.10103 7.31896 1.1172 7.5781 1.12799C7.69147 1.12799 7.83721 1.12799 7.91819 1.04707C8.01536 0.949972 7.99918 0.75577 8.09636 0.65867C8.25832 0.496838 8.51746 0.658686 8.66322 0.836701C9.08432 1.28983 9.44062 1.79151 9.74834 2.30937C9.9103 2.60067 10.0399 2.97287 9.82932 3.21562C9.48921 3.60402 8.79277 3.08615 8.32309 3.31272C7.8534 3.5231 7.99918 4.28371 8.45266 4.52646C8.90615 4.75302 9.44063 4.62357 9.92651 4.47792C10.4124 4.33227 10.9307 4.15425 11.4165 4.33227C11.9834 4.54265 12.2749 5.14142 12.7122 5.56219C13.3601 6.20951 14.3318 6.40371 15.0768 6.95394C15.4169 7.19668 15.7085 7.52036 16.081 7.71456C16.7774 8.08677 17.6196 7.98967 18.3484 8.21623C19.3526 8.5399 20.0976 9.52707 20.1462 10.579C20.1624 10.8703 20.1462 11.2263 20.3729 11.4367C20.5349 11.5985 20.794 11.5985 21.0208 11.5985C21.6686 11.5985 22.3326 11.5338 22.9643 11.6794C23.6121 11.8413 24.2275 12.262 24.3895 12.8932C24.5677 13.6376 24.0656 14.3658 23.5959 14.9808Z" fill="#F1F1F1" stroke="#BABABA" stroke-width="1.18548" stroke-linecap="round" stroke-linejoin="round"/>
</svg>
