<svg width="6" height="8" viewBox="0 0 6 8" fill="none" xmlns="http://www.w3.org/2000/svg">
<path d="M0.647603 4.80164C0.777171 5.06057 1.06868 5.19004 1.27923 5.36805C1.58695 5.6108 1.76513 5.96685 2.02426 6.24197C2.21861 6.43617 2.55875 6.59797 2.76929 6.41996C2.89886 6.30668 2.91506 6.11249 2.93125 5.95066C2.94205 5.73489 2.9528 5.52448 2.9636 5.31949C2.9636 5.23858 2.97984 5.15766 3.01223 5.07675C3.07702 4.97965 3.20655 4.94731 3.30373 4.8664C3.59526 4.63983 3.54667 4.20288 3.62765 3.84685C3.70863 3.37753 4.01632 2.98911 4.24307 2.56835C4.45361 2.14759 4.61564 1.62974 4.38889 1.20898C4.30791 1.04715 4.17833 0.93388 4.04876 0.820598C3.85441 0.658766 3.56283 0.513101 3.35229 0.642567C3.27131 0.691117 3.20657 0.77204 3.15798 0.852956C2.98522 1.09031 2.83943 1.34384 2.72066 1.61356C2.60729 1.84012 2.42911 2.01812 2.29955 2.24469C2.16998 2.47125 2.12142 2.73018 2.00805 2.97293C1.92707 3.15095 1.81373 3.28044 1.63557 3.36135C1.48981 3.42608 1.34403 3.45845 1.21446 3.52318C1.12808 3.56634 1.05252 3.62565 0.987734 3.70117C0.84197 3.84682 0.728583 4.02487 0.647603 4.21907C0.582819 4.39708 0.566623 4.62362 0.647603 4.80164Z" fill="#F1F1F1" stroke="#BABABA" stroke-width="1.18548" stroke-linecap="round" stroke-linejoin="round"/>
</svg>
