<svg width="13" height="9" viewBox="0 0 13 9" fill="none" xmlns="http://www.w3.org/2000/svg">
<path d="M1.50351 3.87196C1.50351 3.87196 1.17959 4.08235 0.936645 4.06616C0.628921 4.04998 0.531761 4.53547 0.628937 4.81059C0.726113 5.10188 0.969053 5.31227 1.1958 5.49028C1.64928 5.83013 2.11896 6.1538 2.66963 6.28326C2.97735 6.348 3.28506 6.36417 3.60898 6.39654C4.43498 6.49364 5.24478 6.78494 5.9574 7.25426C6.10317 7.35135 6.24894 7.46463 6.42709 7.51318C6.65384 7.5941 6.91298 7.57791 7.12353 7.69119C7.30168 7.78829 7.43125 7.96632 7.6256 8.06342C7.80375 8.16051 8.0143 8.16051 8.20865 8.16051C8.89968 8.16051 9.59611 8.16051 10.2979 8.16051C10.5571 8.16051 10.8324 8.14433 11.0915 8.04723C11.4802 7.90158 11.7556 7.51318 11.8689 7.1086C11.9985 6.70402 11.9823 6.28326 11.9337 5.86249C11.9014 5.52265 11.8527 5.16662 11.9823 4.84296C12.0795 4.55166 12.3224 4.29273 12.2738 4.00143C12.2414 3.59685 11.788 3.41883 11.4478 3.22464C11.1077 3.03044 10.8162 2.77151 10.6057 2.44784C10.4923 2.28601 10.3951 2.108 10.2656 1.96235C10.0874 1.78433 9.87684 1.67105 9.66629 1.55777C9.13182 1.28266 8.58115 0.99136 7.9819 0.94281C7.75516 0.926627 7.52842 0.942806 7.31787 0.878073C7.15591 0.829524 7.01014 0.748606 6.84818 0.683873C6.26513 0.473491 5.5687 0.635323 5.1476 1.08845C4.88847 1.36357 4.72652 1.73579 4.45119 1.99472C4.24064 2.2051 3.96531 2.31838 3.70618 2.44784C2.92877 2.83624 2.18374 3.32174 1.50351 3.87196Z" fill="#F1F1F1" stroke="#BABABA" stroke-width="1.18548" stroke-linecap="round" stroke-linejoin="round"/>
</svg>
