<svg width="26" height="24" viewBox="0 0 26 24" fill="none" xmlns="http://www.w3.org/2000/svg">
<path d="M24.8918 19.4536C24.8918 18.7901 24.7137 18.1428 24.5355 17.4955C24.2332 16.4489 23.9308 15.4024 23.6285 14.3559C23.5637 14.1293 23.4827 13.8866 23.3046 13.7571C22.6244 13.2716 21.6202 14.6472 21.0048 14.097C20.7294 13.8542 20.8104 13.4011 21.0371 13.1098C21.2639 12.8185 21.5878 12.6243 21.8469 12.3654C22.0899 12.1065 22.2519 11.6857 22.0575 11.3782C21.9927 11.2488 21.8793 11.1678 21.766 11.0869C21.1505 10.6446 20.5351 10.2022 19.9196 9.7599C19.6119 9.54952 19.2718 9.30676 18.8831 9.32294C18.3972 9.32294 18.0085 9.72754 17.6522 10.0836C17.2959 10.4234 16.7938 10.7633 16.3241 10.5852C15.8545 10.4234 15.5629 9.75989 15.0608 9.82462C14.8017 9.85699 14.5102 10.0836 14.332 9.88935C14.1701 9.74371 14.2996 9.48478 14.4454 9.30676C14.7855 8.86982 15.1256 8.20631 14.7207 7.81792C14.413 7.52662 13.9271 7.67226 13.506 7.60753C12.761 7.51043 12.2751 6.55563 12.6152 5.87593C12.842 5.45517 13.3117 5.19624 13.6194 4.82403C14.0243 4.30616 14.1377 3.5941 14.575 3.12479C14.7693 2.93059 14.9961 2.76876 15.158 2.55838C15.5143 2.10525 15.4495 1.377 15.0446 0.972418C14.6397 0.551655 13.9433 0.470747 13.4412 0.778228C13.4412 0.778228 12.6476 1.24754 11.8054 1.74922C11.109 3.09242 10.4936 4.50035 9.34365 5.4228C8.93875 5.76264 8.48527 6.02158 8.09656 6.37761C7.62688 6.83074 7.31916 7.41333 7.01144 7.99593C6.50397 8.94534 6.00188 9.88936 5.50521 10.828C4.90595 11.977 4.24192 13.1745 3.15679 13.8704C2.31459 14.4206 1.18087 14.7119 0.759772 15.6344C0.597812 15.9904 0.581616 16.4112 0.597812 16.7996C0.630204 17.5117 0.792156 18.2399 1.19706 18.8225C1.60196 19.4051 2.24982 19.842 2.96244 19.8744C4.11236 19.9068 5.06792 18.9196 6.20164 18.871C7.52971 18.7901 8.64724 19.9715 9.97532 19.9715C10.8823 19.9553 11.7083 19.4051 12.6152 19.4698C13.0687 19.5022 13.4898 19.6964 13.9109 19.8744C14.2672 20.0362 14.7045 20.3761 14.5426 20.7483C14.4778 20.8939 14.332 20.9748 14.2187 21.0719C13.8138 21.3956 13.6032 22.0753 13.9757 22.4313C14.413 22.8359 15.1094 22.4961 15.5953 22.14C15.9408 21.8811 16.2863 21.6222 16.6318 21.3632C17.2473 20.9101 17.8951 20.4246 18.6563 20.2304C18.8993 20.1657 19.1746 20.1495 19.4175 20.2142C19.4499 20.225 19.4823 20.2358 19.5147 20.2466C19.7901 20.3437 20.0168 20.6188 20.0006 20.9101C19.9844 21.25 19.6767 21.4927 19.4338 21.7516C19.207 22.0268 19.0937 22.4961 19.4014 22.6741C19.5309 22.7388 19.6929 22.7226 19.8387 22.7065C20.1626 22.6417 20.4703 22.5284 20.7618 22.3828C21.2315 23.1434 22.349 23.111 23.2398 22.9816C23.3856 22.9492 23.5313 22.933 23.6447 22.8521C23.8067 22.755 23.8877 22.577 23.9686 22.399C24.4221 21.4765 24.8918 20.4893 24.8918 19.4536Z" fill="#F1F1F1" stroke="#BABABA" stroke-width="1.18548" stroke-linecap="round" stroke-linejoin="round"/>
</svg>
