<svg width="24" height="24" viewBox="0 0 24 24" fill="none" xmlns="http://www.w3.org/2000/svg">
<mask id="mask0_1_1021" style="mask-type:alpha" maskUnits="userSpaceOnUse" x="5" y="2" width="18" height="19">
<path d="M21.7528 10.4249C22.6714 10.9304 22.6714 12.2355 21.7528 12.7409L7.06284 20.8245C6.16825 21.3167 5.0675 20.6779 5.0675 19.6665L5.06751 3.49937C5.06751 2.48792 6.16825 1.84911 7.06284 2.34138L21.7528 10.4249Z" fill="#C4C4C4"/>
</mask>
<g mask="url(#mask0_1_1021)">
<path d="M5.527 20.6652L14.6902 11.4506L5.67791 2.3877C5.31837 2.61818 5.0675 3.01612 5.0675 3.49897V19.6661C5.0675 20.078 5.2501 20.4282 5.527 20.6652Z" fill="url(#paint0_linear_1_1021)"/>
<path d="M21.7528 10.4245C22.6714 10.93 22.6714 12.235 21.7528 12.7405L18.0469 14.7798L14.6902 11.4505L17.8757 8.29102L21.7528 10.4245Z" fill="url(#paint1_linear_1_1021)"/>
<path d="M18.0468 14.7805L14.6901 11.4512L5.52692 20.6659C5.92987 21.0109 6.53254 21.1165 7.06279 20.8247L18.0468 14.7805Z" fill="url(#paint2_linear_1_1021)"/>
<path d="M5.67792 2.38808L14.6901 11.451L17.8757 8.29142L7.06283 2.34138C6.59532 2.08412 6.0715 2.13577 5.67792 2.38808Z" fill="url(#paint3_linear_1_1021)"/>
</g>
<defs>
<linearGradient id="paint0_linear_1_1021" x1="11.349" y1="7.87154" x2="5.11894" y2="14.1528" gradientUnits="userSpaceOnUse">
<stop stop-color="#00C3FF"/>
<stop offset="1" stop-color="#1BE2FA"/>
</linearGradient>
<linearGradient id="paint1_linear_1_1021" x1="14.6902" y1="11.4505" x2="22.9764" y2="11.4505" gradientUnits="userSpaceOnUse">
<stop stop-color="#FFCE00"/>
<stop offset="1" stop-color="#FFEA00"/>
</linearGradient>
<linearGradient id="paint2_linear_1_1021" x1="5.33476" y1="21.7907" x2="16.357" y2="12.9539" gradientUnits="userSpaceOnUse">
<stop stop-color="#DE2453"/>
<stop offset="1" stop-color="#FE3944"/>
</linearGradient>
<linearGradient id="paint3_linear_1_1021" x1="5.86938" y1="1.37655" x2="16.3589" y2="9.94429" gradientUnits="userSpaceOnUse">
<stop stop-color="#11D574"/>
<stop offset="1" stop-color="#01F176"/>
</linearGradient>
</defs>
</svg>
