<svg width="19" height="19" viewBox="0 0 19 19" fill="none" xmlns="http://www.w3.org/2000/svg">
<path d="M12.8606 0.502772L2.17316 2.82837L2.78224 5.62745L13.4696 3.30185L12.8606 0.502772Z" stroke="white" stroke-width="1.00517" stroke-miterlimit="10" stroke-linecap="round" stroke-linejoin="round"/>
<path d="M12.9713 1.01172L14.7525 0.624119L15.1401 2.40535L13.3589 2.79295" stroke="white" stroke-width="1.00517" stroke-miterlimit="10" stroke-linecap="round" stroke-linejoin="round"/>
<path d="M2.67152 5.11849L0.890285 5.50609L0.502686 3.72485L2.28392 3.33725" stroke="white" stroke-width="1.00517" stroke-miterlimit="10" stroke-linecap="round" stroke-linejoin="round"/>
<path d="M15.5876 13.035L4.90021 15.3606L5.50929 18.1597L16.1967 15.8341L15.5876 13.035Z" stroke="white" stroke-width="1.00517" stroke-miterlimit="10" stroke-linecap="round" stroke-linejoin="round"/>
<path d="M15.6984 13.5439L17.4796 13.1563L17.8672 14.9376L16.086 15.3252" stroke="white" stroke-width="1.00517" stroke-miterlimit="10" stroke-linecap="round" stroke-linejoin="round"/>
<path d="M5.39857 17.6507L3.61734 18.0383L3.22974 16.2571L5.01097 15.8695" stroke="white" stroke-width="1.00517" stroke-miterlimit="10" stroke-linecap="round" stroke-linejoin="round"/>
<path d="M3.54565 5.46118L5.66361 15.1943" stroke="white" stroke-width="1.00517" stroke-miterlimit="10" stroke-linecap="round" stroke-linejoin="round"/>
<path d="M14.8242 13.2012L12.7063 3.46802" stroke="white" stroke-width="1.00517" stroke-miterlimit="10" stroke-linecap="round" stroke-linejoin="round"/>
<path d="M7.58039 8.08135L10.3795 7.47226L7.99038 11.1903" stroke="white" stroke-width="1.00517" stroke-miterlimit="10" stroke-linecap="round" stroke-linejoin="round"/>
<path d="M9.18494 9.3313L11.0439 10.5258" stroke="white" stroke-width="1.00517" stroke-miterlimit="10" stroke-linecap="round" stroke-linejoin="round"/>
<path d="M9.73864 11.8759L9.2403 9.58569" stroke="white" stroke-width="1.00517" stroke-miterlimit="10" stroke-linecap="round" stroke-linejoin="round"/>
<path d="M8.63123 6.78662L8.85271 7.80447" stroke="white" stroke-width="1.00517" stroke-miterlimit="10" stroke-linecap="round" stroke-linejoin="round"/>
</svg>
