<svg width="57" height="62" viewBox="0 0 57 62" fill="none" xmlns="http://www.w3.org/2000/svg">
<path fill-rule="evenodd" clip-rule="evenodd" d="M11.7958 47.1615C10.7115 45.7617 9.39401 42.8997 7.04962 39.4253C5.72084 37.4601 2.42562 33.7596 1.44435 31.8802C0.592877 30.2192 0.684507 29.4744 0.886887 28.0979C1.24581 25.6491 3.70484 23.7425 6.32806 23.9998C8.30972 24.1909 9.98991 25.5284 11.5019 26.7916C12.4145 27.552 13.5372 29.0298 14.2129 29.8644C14.8354 30.6287 14.9882 30.9444 15.6525 31.8491C16.5308 33.0462 16.8057 33.6389 16.4697 32.3209C16.1985 30.3868 15.7556 27.0841 15.1142 24.1635C14.6254 21.9489 14.507 21.6017 14.0412 19.9016C13.5485 18.0923 13.2966 16.8251 12.8346 14.9066C12.5138 13.5498 11.9372 10.7773 11.7807 9.2175C11.5632 7.08466 11.4484 3.60634 12.7887 2.00764C13.8389 0.755974 16.2483 0.377743 17.7411 1.1498C19.6963 2.15971 20.8073 5.06087 21.3152 6.21882C22.2278 8.30105 22.7928 10.707 23.2855 13.8653C23.9117 17.8856 25.0648 23.4653 25.1029 24.6391C25.1946 23.2002 24.8434 20.1704 25.0877 18.7902C25.3091 17.5384 26.3402 16.0841 27.6307 15.6903C28.7228 15.3587 30.002 15.238 31.1283 15.4758C32.3236 15.7252 33.5835 16.5987 34.0531 17.4216C35.4354 19.8547 35.4621 24.8263 35.5195 24.5611C35.8479 23.0949 35.7905 19.769 36.6038 18.3846C37.1384 17.4722 38.5015 16.6495 39.227 16.5169C40.3497 16.3141 41.7281 16.2518 42.908 16.4856C43.8588 16.6767 45.1454 17.8309 45.4929 18.3846C46.3253 19.726 46.7989 23.52 46.9402 24.8497C46.9973 25.3995 47.2227 23.3211 48.059 21.9798C49.6092 19.4882 55.0961 19.0047 55.3062 24.4715C55.4016 27.0216 55.3825 26.9046 55.3825 28.6203C55.3825 30.6361 55.3366 31.849 55.2297 33.3072C55.1115 34.867 54.7831 38.3918 54.3058 40.0998C53.9774 41.2735 52.889 43.9133 51.8163 45.4964C51.8163 45.4964 47.7152 50.3704 47.2685 52.5658C46.818 54.7572 46.9669 54.7729 46.8791 56.3286C46.7913 57.8806 47.3411 59.9238 47.3411 59.9238C47.3411 59.9238 44.2787 60.3293 42.6291 60.0603C41.1363 59.8145 39.2881 56.7809 38.8108 55.8529C38.154 54.574 36.7528 54.8196 36.2067 55.7632C35.3476 57.2566 33.4996 59.9355 32.1936 60.1031C29.643 60.4307 24.3507 60.224 20.2079 60.1811C20.2079 60.1811 20.9142 56.2389 19.3411 54.886C18.1764 53.8759 16.1718 51.8289 14.9729 50.7526L11.7958 47.1615Z" stroke="#2A6DBD" stroke-width="1.5" stroke-linecap="round" stroke-linejoin="round"/>
</svg>
