<svg width="65" height="70" viewBox="0 0 65 70" fill="none" xmlns="http://www.w3.org/2000/svg">
<g filter="url(#filter0_d_1_777)">
<path d="M19.1815 3.3125C19.9173 3.18895 20.6684 3.24813 21.2654 3.48242L21.5115 3.59375C22.3617 4.03289 23.0687 4.91093 23.6395 5.88184C23.9226 6.36358 24.1623 6.84881 24.3631 7.28809L24.8572 8.41992C25.6331 10.1903 26.157 12.2152 26.6043 14.7998L26.7918 15.9424C27.1061 17.9604 27.552 20.3687 27.9227 22.4092C28.1083 23.4313 28.2748 24.3603 28.3973 25.1064C28.5218 25.8654 28.5951 26.4007 28.6033 26.6553L29.6024 26.6709C29.6504 25.9171 29.5828 24.7586 29.5379 23.6719C29.4914 22.5456 29.4692 21.5025 29.5799 20.877C29.6746 20.3418 29.9491 19.7402 30.3514 19.2275C30.7044 18.7777 31.1324 18.4256 31.5828 18.2383L31.7762 18.1689C32.8062 17.8563 33.9985 17.7481 35.0252 17.9648H35.0262C35.5496 18.0741 36.1043 18.3254 36.5838 18.6484C37.0672 18.9741 37.4335 19.3457 37.618 19.668V19.6689C38.2554 20.791 38.6006 22.5527 38.7869 24.0645C38.8786 24.8084 38.9298 25.4707 38.9617 25.9336C38.9774 26.1603 38.9888 26.3511 38.9979 26.4688C39.002 26.5224 39.0077 26.5856 39.0154 26.6328C39.0175 26.6454 39.0215 26.6695 39.0291 26.6973C39.0329 26.711 39.0406 26.7366 39.0535 26.7666C39.0619 26.786 39.0945 26.8612 39.1678 26.9316C39.2084 26.9707 39.2797 27.0254 39.3836 27.0537C39.4966 27.0844 39.6114 27.0737 39.7098 27.0322C39.8727 26.9635 39.9423 26.8335 39.9549 26.8105C39.9938 26.7396 40.0062 26.6725 40.0076 26.666C40.1793 25.8963 40.254 24.6322 40.3768 23.4961C40.4403 22.9083 40.5172 22.337 40.6258 21.833C40.7221 21.3862 40.8385 21.0191 40.9754 20.748L41.035 20.6377C41.2496 20.2714 41.6575 19.888 42.1238 19.5732C42.5931 19.2565 43.0485 19.0569 43.3162 19.0078C44.396 18.8128 45.7081 18.7566 46.8094 18.9746V18.9756C47.1665 19.0473 47.65 19.3232 48.117 19.6914C48.5803 20.0568 48.9388 20.4427 49.0692 20.6504C49.2402 20.9268 49.4106 21.3621 49.5701 21.9131C49.7277 22.4571 49.8658 23.0818 49.9842 23.7139C50.1616 24.6616 50.2914 25.6106 50.3748 26.3037L50.4432 26.9023C50.4471 26.9404 50.455 27.0125 50.4793 27.084C50.4881 27.1096 50.5237 27.2127 50.6199 27.3027C50.6766 27.3557 50.7668 27.4157 50.8904 27.4346C51.0157 27.4536 51.1233 27.4227 51.199 27.3838C51.3255 27.3186 51.3889 27.2187 51.4031 27.1963C51.4274 27.1581 51.4436 27.1224 51.4529 27.1006C51.4722 27.0554 51.4878 27.0071 51.4998 26.9678C51.5442 26.8224 51.6138 26.5362 51.6902 26.2549C51.8361 25.7179 52.0451 25.0432 52.3475 24.4785L52.4832 24.2441C53.1399 23.1887 54.6899 22.5118 56.1072 22.7354C56.7975 22.8442 57.4371 23.1649 57.9188 23.7451C58.3713 24.2905 58.7123 25.0991 58.7938 26.2549L58.8065 26.4902C58.9015 29.0313 58.8826 28.9075 58.8826 30.6201C58.8826 32.6253 58.8371 33.8258 58.7313 35.2695C58.6121 36.8418 58.2854 40.3136 57.824 41.9648C57.5085 43.0925 56.4469 45.6637 55.4139 47.1963C55.4064 47.2053 55.3973 47.2173 55.3856 47.2314C55.3548 47.2684 55.3099 47.323 55.2527 47.3926C55.1384 47.5318 54.9746 47.7327 54.7772 47.9805C54.3825 48.4757 53.8508 49.1606 53.3045 49.915C52.7591 50.6682 52.1948 51.4981 51.7361 52.2832C51.285 53.0555 50.9073 53.8313 50.7781 54.4658C50.318 56.7041 50.4653 56.7847 50.3797 58.3008C50.3325 59.1356 50.4562 60.0802 50.5848 60.7969C50.6319 61.0594 50.6816 61.2955 50.7244 61.4902C50.4216 61.5224 50.0176 61.5625 49.5692 61.5938C48.5986 61.6614 47.4709 61.6907 46.7088 61.5664C46.4693 61.5265 46.1589 61.3606 45.7947 61.0498C45.4389 60.746 45.076 60.3423 44.7332 59.9043C44.0473 59.0278 43.4823 58.0646 43.2557 57.624C42.8459 56.8264 42.1586 56.4471 41.4481 56.4746C40.7659 56.5012 40.128 56.9015 39.7742 57.5127L39.7733 57.5137C39.3535 58.2433 38.693 59.2605 37.9842 60.1094C37.6294 60.5343 37.2725 60.905 36.9373 61.1748C36.5916 61.4531 36.319 61.5831 36.1297 61.6074C34.8929 61.7663 32.9649 61.7974 30.8016 61.7812C28.8228 61.7665 26.7222 61.7152 24.7791 61.6895C24.7825 61.6595 24.7874 61.6285 24.7908 61.5967C24.8339 61.1923 24.8746 60.6358 24.8641 60.0322C24.8536 59.4312 24.7922 58.7655 24.6219 58.1504C24.4528 57.5398 24.1642 56.9351 23.6678 56.5078H23.6688C23.0992 56.0139 22.3179 55.2607 21.5184 54.4854C20.7365 53.7271 19.9374 52.9487 19.3318 52.4033L16.1815 48.8418C15.6689 48.1765 15.0915 47.1561 14.3289 45.8232C13.665 44.6628 12.8751 43.2946 11.8953 41.7959L11.4637 41.1455C10.7854 40.1424 9.60973 38.7018 8.50861 37.3105C7.3865 35.8928 6.35162 34.5374 5.88751 33.6484C5.48042 32.8536 5.31712 32.3143 5.2674 31.8311C5.21659 31.3371 5.27924 30.8675 5.38165 30.1709V30.1699C5.70028 27.998 7.90894 26.2647 10.2791 26.4971H10.2801C11.8588 26.6493 13.2551 27.6064 14.6053 28.7002L15.1815 29.1758C16.0447 29.895 17.1228 31.3125 17.824 32.1787L17.825 32.1797C18.4435 32.9391 18.5474 33.1889 19.2498 34.1455V34.1445C19.4661 34.4393 19.643 34.6951 19.7899 34.9023C19.9215 35.0882 20.0588 35.2795 20.1678 35.3857C20.1965 35.4137 20.252 35.4649 20.3279 35.5049C20.3908 35.538 20.604 35.6329 20.8367 35.501C21.0469 35.3818 21.0892 35.1765 21.0984 35.125C21.112 35.0495 21.1093 34.9799 21.1063 34.9365C21.0951 34.7765 21.0376 34.5306 20.9608 34.2275C20.6901 32.296 20.246 28.9877 19.6024 26.0566V26.0557C19.3565 24.9419 19.2035 24.2953 19.0535 23.7148L18.5233 21.7695C18.033 19.9689 17.7871 18.7278 17.3201 16.7891C16.9999 15.4342 16.4311 12.6918 16.2781 11.168V11.167L16.2049 10.3242C16.1422 9.43498 16.1181 8.42314 16.199 7.4541C16.3089 6.13999 16.6059 5.00412 17.1717 4.3291C17.5975 3.82164 18.3381 3.45414 19.1815 3.3125ZM39.032 26.4521H39.0311C39.0315 26.4504 39.0325 26.4485 39.033 26.4463C39.0326 26.4482 39.0325 26.4503 39.032 26.4521Z" fill="white" stroke="#2A6DBD"/>
<path fill-rule="evenodd" clip-rule="evenodd" d="M15.7958 49.1615C14.7115 47.7617 13.394 44.8997 11.0496 41.4253C9.72084 39.4601 6.42562 35.7596 5.44435 33.8802C4.59288 32.2192 4.68451 31.4744 4.88689 30.0979C5.24581 27.6491 7.70484 25.7425 10.3281 25.9998C12.3097 26.1909 13.9899 27.5284 15.5019 28.7916C16.4145 29.552 17.5372 31.0298 18.2129 31.8644C18.8354 32.6287 18.9882 32.9444 19.6525 33.8491C20.5308 35.0462 20.8057 35.6389 20.4697 34.3209C20.1985 32.3868 19.7556 29.0841 19.1142 26.1635C18.6254 23.9489 18.507 23.6017 18.0412 21.9016C17.5485 20.0923 17.2966 18.8251 16.8346 16.9066C16.5138 15.5498 15.9372 12.7773 15.7807 11.2175C15.5632 9.08466 15.4484 5.60634 16.7887 4.00764C17.8389 2.75597 20.2483 2.37774 21.7411 3.1498C23.6963 4.15971 24.8073 7.06087 25.3152 8.21882C26.2278 10.3011 26.7928 12.707 27.2855 15.8653C27.9117 19.8856 29.0648 25.4653 29.1029 26.6391C29.1946 25.2002 28.8434 22.1704 29.0877 20.7902C29.3091 19.5384 30.3402 18.0841 31.6307 17.6903C32.7228 17.3587 34.002 17.238 35.1283 17.4758C36.3236 17.7252 37.5835 18.5987 38.0531 19.4216C39.4354 21.8547 39.4621 26.8263 39.5195 26.5611C39.8479 25.0949 39.7905 21.769 40.6038 20.3846C41.1384 19.4722 42.5015 18.6495 43.227 18.5169C44.3497 18.3141 45.7281 18.2518 46.908 18.4856C47.8588 18.6767 49.1454 19.8309 49.4929 20.3846C50.3253 21.726 50.7989 25.52 50.9402 26.8497C50.9973 27.3995 51.2227 25.3211 52.059 23.9798C53.6092 21.4882 59.0961 21.0047 59.3062 26.4715C59.4016 29.0216 59.3825 28.9046 59.3825 30.6203C59.3825 32.6361 59.3366 33.849 59.2297 35.3072C59.1115 36.867 58.7831 40.3918 58.3058 42.0998C57.9774 43.2735 56.889 45.9133 55.8163 47.4964C55.8163 47.4964 51.7152 52.3704 51.2685 54.5658C50.818 56.7572 50.9669 56.7729 50.8791 58.3286C50.7913 59.8806 51.3411 61.9238 51.3411 61.9238C51.3411 61.9238 48.2787 62.3293 46.6291 62.0603C45.1363 61.8145 43.2881 58.7809 42.8108 57.8529C42.154 56.574 40.7528 56.8196 40.2067 57.7632C39.3476 59.2566 37.4996 61.9355 36.1936 62.1031C33.643 62.4307 28.3507 62.224 24.2079 62.1811C24.2079 62.1811 24.9142 58.2389 23.3411 56.886C22.1764 55.8759 20.1718 53.8289 18.9729 52.7526L15.7958 49.1615Z" stroke="#2A6DBD" stroke-width="1.5" stroke-linecap="round" stroke-linejoin="round"/>
</g>
<defs>
<filter id="filter0_d_1_777" x="0" y="0" width="64.134" height="69.0352" filterUnits="userSpaceOnUse" color-interpolation-filters="sRGB">
<feFlood flood-opacity="0" result="BackgroundImageFix"/>
<feColorMatrix in="SourceAlpha" type="matrix" values="0 0 0 0 0 0 0 0 0 0 0 0 0 0 0 0 0 0 127 0" result="hardAlpha"/>
<feOffset dy="2"/>
<feGaussianBlur stdDeviation="2"/>
<feColorMatrix type="matrix" values="0 0 0 0 0 0 0 0 0 0 0 0 0 0 0 0 0 0 0.24 0"/>
<feBlend mode="normal" in2="BackgroundImageFix" result="effect1_dropShadow_1_777"/>
<feBlend mode="normal" in="SourceGraphic" in2="effect1_dropShadow_1_777" result="shape"/>
</filter>
</defs>
</svg>
