<svg width="21" height="17" viewBox="0 0 21 17" fill="none" xmlns="http://www.w3.org/2000/svg">
<path fill-rule="evenodd" clip-rule="evenodd" d="M19.3479 2.12493C19.9227 3.40172 20.2455 4.8142 20.2455 6.30148C20.2455 11.9407 15.6505 16.5137 9.99057 16.5137C5.12207 16.5137 1.05141 13.1363 0.000499966 8.60504C-0.0027171 8.59222 0.0101519 8.58047 0.0230202 8.58474C1.27017 9.00571 2.3629 9.41278 6.20622 8.54094C10.0806 7.66267 15.2033 4.30456 15.2033 3.01708C15.2033 1.88667 14.1106 1.6826 11.9133 2.45508C11.612 1.79158 10.9439 1.33215 10.1707 1.33215C9.11338 1.33215 8.25657 2.18263 8.25657 3.24039C8.25657 4.33127 9.17987 5.20953 10.293 5.14115C11.3385 5.07704 12.1396 4.1507 12.0784 3.1079C12.0784 3.10042 12.0774 3.09294 12.0774 3.08546C12.9299 2.92306 13.8371 2.81301 13.2119 3.81521C12.6693 4.68706 10.9224 6.02261 8.89784 6.85493C4.86256 8.50888 -0.256864 8.58367 1.64228 5.94355C3.08781 4.16673 5.27113 2.35358 8.06462 1.29048C13.8768 -0.9212 16.8322 -0.13162 16.8322 2.45508C16.8322 5.04606 11.6924 8.93412 8.21046 10.0603C4.71029 11.1928 4.33925 11.1714 3.05028 11.2868C2.74251 11.3061 2.44011 11.3232 2.17417 11.3125C2.87978 11.4524 4.90546 11.5518 9.05869 10.478C13.228 9.40103 19.2493 4.94348 19.3479 2.12493Z" fill="#E28133"/>
</svg>
