<svg width="16" height="18" viewBox="0 0 16 18" fill="none" xmlns="http://www.w3.org/2000/svg">
<path d="M11.975 0.774621C13.1267 1.29068 14.0157 2.02897 14.6419 2.98844C15.2671 3.9479 15.5803 5.07511 15.5803 6.37113C15.5803 7.66715 15.2671 8.79008 14.6419 9.741C14.0168 10.6919 13.1278 11.4259 11.975 11.9431C10.8222 12.4591 9.46461 12.7177 7.90112 12.7177H4.88887V17.219H0V0H7.90112C9.46568 0 10.8233 0.258563 11.975 0.774621ZM9.8764 8.22808C10.3868 7.79322 10.6421 7.1746 10.6421 6.37113C10.6421 5.56766 10.3868 4.94476 9.8764 4.50135C9.36595 4.05902 8.60887 3.83678 7.60515 3.83678H4.88887V8.87983H7.60515C8.60887 8.87983 9.36595 8.66294 9.8764 8.22808Z" fill="#E28133"/>
</svg>
