<svg width="15" height="18" viewBox="0 0 15 18" fill="none" xmlns="http://www.w3.org/2000/svg">
<path d="M3.20957 17.3911C1.89271 17.047 0.822497 16.5876 0 16.0138L1.60424 12.4228C2.37741 12.9314 3.27498 13.3417 4.29586 13.6526C5.31675 13.9646 6.32047 14.1195 7.30811 14.1195C9.18473 14.1195 10.123 13.6526 10.123 12.7177C10.123 12.2262 9.85495 11.8608 9.32092 11.6225C8.78582 11.3853 7.92578 11.1342 6.74083 10.8725C5.44006 10.5936 4.35376 10.2945 3.48194 9.97499C2.60904 9.65552 1.86054 9.14267 1.23536 8.4375C0.6091 7.73232 0.297045 6.78141 0.297045 5.58368C0.297045 4.53447 0.584429 3.58676 1.16136 2.74269C1.73721 1.89862 2.59725 1.22978 3.74145 0.738295C4.88565 0.246811 6.2883 0 7.95152 0C9.08715 0 10.2067 0.127144 11.3091 0.381433C12.4114 0.635723 13.383 1.00861 14.2227 1.50116L12.7171 5.11678C11.071 4.23104 9.47427 3.7887 7.92686 3.7887C6.9553 3.7887 6.24754 3.93187 5.80359 4.21928C5.35963 4.50669 5.13659 4.87958 5.13659 5.33901C5.13659 5.79844 5.39931 6.14248 5.92691 6.3722C6.45344 6.60191 7.3006 6.83911 8.46946 7.08592C9.78632 7.36478 10.8769 7.66394 11.7412 7.98341C12.6055 8.30287 13.3541 8.81145 13.9878 9.50915C14.6216 10.2068 14.9379 11.1535 14.9379 12.3501C14.9379 13.3833 14.6495 14.3182 14.0736 15.1548C13.4977 15.9914 12.6334 16.6592 11.4817 17.1592C10.3289 17.6592 8.93058 17.9092 7.28452 17.9092C5.88402 17.9082 4.52642 17.7362 3.20957 17.3911Z" fill="#E28133"/>
</svg>
