<svg width="23" height="19" viewBox="0 0 23 19" fill="none" xmlns="http://www.w3.org/2000/svg">
<path fill-rule="evenodd" clip-rule="evenodd" d="M21.3436 6.11559C21.3811 5.88955 21.3165 5.6583 21.1686 5.4833C21.0197 5.30934 20.802 5.2083 20.5728 5.2083H1.82279C1.59362 5.2083 1.37591 5.30934 1.22695 5.4833C1.07904 5.6583 1.01445 5.88955 1.05195 6.11559C1.05195 6.11559 2.11654 12.6198 2.6405 15.827C2.86758 17.2125 4.06446 18.2291 5.46758 18.2291H16.928C18.3311 18.2291 19.528 17.2125 19.7551 15.827L21.3436 6.11559ZM19.653 6.7708L18.2124 15.575C18.1092 16.2041 17.5655 16.6666 16.928 16.6666C14.0415 16.6666 8.35404 16.6666 5.46758 16.6666C4.83008 16.6666 4.28633 16.2041 4.18321 15.575L2.74258 6.7708H19.653Z" fill="#333F48"/>
<path fill-rule="evenodd" clip-rule="evenodd" d="M18.1175 5.58747L14.9925 0.379134C14.7706 0.00934207 14.2904 -0.11045 13.9206 0.111425C13.5508 0.3333 13.4311 0.813509 13.6529 1.1833L16.7779 6.39163C16.9998 6.76143 17.48 6.88122 17.8498 6.65934C18.2196 6.43747 18.3394 5.95726 18.1175 5.58747Z" fill="#333F48"/>
<path fill-rule="evenodd" clip-rule="evenodd" d="M5.61751 6.39163L8.74251 1.1833C8.96439 0.813509 8.8446 0.3333 8.4748 0.111425C8.10501 -0.11045 7.6248 0.00934207 7.40293 0.379134L4.27793 5.58747C4.05605 5.95726 4.17585 6.43747 4.54564 6.65934C4.91543 6.88122 5.39564 6.76143 5.61751 6.39163Z" fill="#333F48"/>
<path fill-rule="evenodd" clip-rule="evenodd" d="M10.4165 9.63541V13.8021C10.4165 14.2333 10.7665 14.5833 11.1978 14.5833C11.629 14.5833 11.979 14.2333 11.979 13.8021V9.63541C11.979 9.20416 11.629 8.85416 11.1978 8.85416C10.7665 8.85416 10.4165 9.20416 10.4165 9.63541Z" fill="#333F48"/>
<path fill-rule="evenodd" clip-rule="evenodd" d="M6.25 9.63541V13.8021C6.25 14.2333 6.6 14.5833 7.03125 14.5833C7.4625 14.5833 7.8125 14.2333 7.8125 13.8021V9.63541C7.8125 9.20416 7.4625 8.85416 7.03125 8.85416C6.6 8.85416 6.25 9.20416 6.25 9.63541Z" fill="#333F48"/>
<path fill-rule="evenodd" clip-rule="evenodd" d="M14.583 9.63541V13.8021C14.583 14.2333 14.933 14.5833 15.3643 14.5833C15.7955 14.5833 16.1455 14.2333 16.1455 13.8021V9.63541C16.1455 9.20416 15.7955 8.85416 15.3643 8.85416C14.933 8.85416 14.583 9.20416 14.583 9.63541Z" fill="#333F48"/>
<path fill-rule="evenodd" clip-rule="evenodd" d="M21.6146 5.2083H0.78125C0.35 5.2083 0 5.5583 0 5.98955C0 6.4208 0.35 6.7708 0.78125 6.7708H21.6146C22.0458 6.7708 22.3958 6.4208 22.3958 5.98955C22.3958 5.5583 22.0458 5.2083 21.6146 5.2083Z" fill="#333F48"/>
</svg>
