<svg width="30" height="18" viewBox="0 0 30 18" fill="none" xmlns="http://www.w3.org/2000/svg">
<path d="M29.841 15.4579C29.8046 15.3797 29.7708 15.3147 29.7393 15.2627C29.2188 14.3253 28.2242 13.1746 26.7559 11.8105L26.7249 11.7792L26.7094 11.7639L26.6937 11.7482H26.6779C26.0116 11.113 25.5896 10.6859 25.4129 10.4672C25.0896 10.0506 25.0171 9.629 25.1938 9.20178C25.3187 8.879 25.7876 8.19732 26.5996 7.15583C27.0267 6.60388 27.365 6.1615 27.6148 5.82822C29.4164 3.43307 30.1975 1.90253 29.9579 1.23602L29.8648 1.08026C29.8023 0.986488 29.6409 0.900705 29.3809 0.822471C29.1202 0.744402 28.7871 0.731491 28.3809 0.783519L23.8825 0.814593C23.8096 0.788771 23.7056 0.791178 23.57 0.822471C23.4346 0.853765 23.3669 0.869466 23.3669 0.869466L23.2886 0.908583L23.2265 0.955578C23.1744 0.986652 23.1171 1.04131 23.0546 1.11943C22.9924 1.19728 22.9403 1.28864 22.8987 1.39276C22.409 2.65275 21.8522 3.82423 21.2272 4.90714C20.8419 5.55287 20.4881 6.11248 20.1649 6.58632C19.8422 7.05998 19.5714 7.40897 19.3529 7.63268C19.1341 7.8566 18.9366 8.03599 18.7592 8.1715C18.5821 8.30707 18.4469 8.36435 18.3533 8.3434C18.2595 8.32244 18.1711 8.30165 18.0875 8.28086C17.9418 8.18709 17.8246 8.05957 17.7363 7.89818C17.6475 7.73679 17.5878 7.53365 17.5565 7.28894C17.5255 7.04406 17.5071 6.83344 17.5018 6.65634C17.497 6.47947 17.4992 6.22929 17.5098 5.9065C17.5206 5.58356 17.5255 5.36505 17.5255 5.25049C17.5255 4.85473 17.5332 4.42521 17.5487 3.96183C17.5644 3.49844 17.5772 3.13129 17.5878 2.86081C17.5984 2.59006 17.6034 2.3036 17.6034 2.00161C17.6034 1.69962 17.585 1.46278 17.5487 1.29089C17.5128 1.11921 17.4577 0.952569 17.3851 0.791014C17.312 0.629623 17.2051 0.504777 17.0649 0.416149C16.9243 0.32763 16.7496 0.257384 16.5416 0.205192C15.9897 0.0802919 15.2868 0.0127266 14.4328 0.00222248C12.496 -0.0185669 11.2516 0.106497 10.6997 0.377251C10.481 0.491647 10.2831 0.64795 10.1062 0.845667C9.9187 1.07484 9.89255 1.19991 10.0279 1.22048C10.6528 1.31408 11.0952 1.53801 11.3555 1.89203L11.4493 2.07962C11.5223 2.21497 11.5952 2.4546 11.6681 2.79817C11.7409 3.14174 11.7879 3.5218 11.8086 3.93814C11.8606 4.69842 11.8606 5.34924 11.8086 5.89064C11.7565 6.43226 11.7072 6.8539 11.6602 7.15589C11.6133 7.45788 11.543 7.70259 11.4493 7.88997C11.3555 8.0774 11.2931 8.19196 11.2618 8.23354C11.2306 8.27512 11.2045 8.30133 11.1838 8.31161C11.0485 8.36348 10.9077 8.3899 10.762 8.3899C10.6161 8.3899 10.4392 8.31692 10.231 8.17106C10.0228 8.02521 9.80677 7.82487 9.58285 7.56971C9.35892 7.31449 9.10639 6.95784 8.82513 6.49971C8.54409 6.04158 8.25249 5.50013 7.9505 4.87535L7.70064 4.42225C7.54445 4.13077 7.33109 3.70634 7.06033 3.14934C6.78941 2.59214 6.54995 2.05315 6.34179 1.53248C6.25858 1.31381 6.13357 1.14733 5.96698 1.03277L5.8888 0.985777C5.83683 0.944198 5.75339 0.900048 5.63894 0.852999C5.52433 0.806004 5.40474 0.772303 5.27967 0.751568L0.999858 0.782643C0.562516 0.782643 0.265775 0.881721 0.109527 1.0796L0.0469949 1.17321C0.0157561 1.22535 0 1.30861 0 1.42323C0 1.53779 0.0312387 1.67839 0.0937709 1.84487C0.718545 3.31325 1.39797 4.72939 2.13206 6.0935C2.86614 7.45761 3.50404 8.55643 4.04539 9.38899C4.58684 10.2222 5.13874 11.0085 5.70109 11.7476C6.26344 12.487 6.63568 12.9608 6.81781 13.169C7.00015 13.3775 7.14338 13.5335 7.24749 13.6376L7.63806 14.0124C7.88797 14.2623 8.25495 14.5617 8.73918 14.9105C9.22352 15.2595 9.75972 15.603 10.3481 15.9417C10.9365 16.2799 11.6211 16.5558 12.4022 16.7693C13.1831 16.9829 13.9432 17.0686 14.6826 17.0273H16.4789C16.8432 16.9958 17.1193 16.8813 17.3069 16.6835L17.369 16.6052C17.4108 16.5431 17.4499 16.4465 17.486 16.3166C17.5226 16.1864 17.5407 16.0431 17.5407 15.8871C17.5301 15.4394 17.5641 15.0359 17.6421 14.6767C17.7199 14.3176 17.8086 14.0468 17.9079 13.8645C18.0071 13.6823 18.119 13.5286 18.2436 13.404C18.3684 13.2791 18.4574 13.2034 18.5096 13.1774C18.5614 13.1512 18.6028 13.1334 18.6341 13.1227C18.884 13.0394 19.1781 13.1201 19.5169 13.365C19.8554 13.6097 20.1728 13.9119 20.4698 14.271C20.7666 14.6304 21.1232 15.0337 21.5396 15.4814C21.9563 15.9292 22.3207 16.2621 22.633 16.4811L22.9452 16.6685C23.1538 16.7936 23.4246 16.9082 23.7578 17.0123C24.0905 17.1163 24.382 17.1424 24.6323 17.0903L28.6308 17.028C29.0263 17.028 29.334 16.9625 29.5523 16.8326C29.771 16.7024 29.901 16.559 29.9429 16.403C29.9847 16.2469 29.9869 16.0698 29.9508 15.8717C29.9138 15.6742 29.8773 15.536 29.841 15.4579Z" fill="white"/>
</svg>
