<svg width="26" height="26" viewBox="0 0 26 26" fill="none" xmlns="http://www.w3.org/2000/svg">
<path d="M22.2 0H3C1.3458 0 0 1.3458 0 3V22.2C0 23.8542 1.3458 25.2 3 25.2H22.2C23.8542 25.2 25.2 23.8542 25.2 22.2V3C25.2 1.3458 23.8542 0 22.2 0ZM19.8036 10.9938C19.6674 11.0064 19.5294 11.0148 19.3896 11.0148C17.8158 11.0148 16.4328 10.2054 15.6282 8.982C15.6282 12.1914 15.6282 15.843 15.6282 15.9042C15.6282 18.7296 13.3374 21.0204 10.512 21.0204C7.6866 21.0204 5.3958 18.7296 5.3958 15.9042C5.3958 13.0788 7.6866 10.788 10.512 10.788C10.6188 10.788 10.7232 10.7976 10.8282 10.8042V13.3254C10.7232 13.3128 10.62 13.2936 10.512 13.2936C9.0696 13.2936 7.9008 14.4624 7.9008 15.9048C7.9008 17.3472 9.0696 18.516 10.512 18.516C11.9544 18.516 13.2282 17.3796 13.2282 15.9372C13.2282 15.8802 13.2534 4.1808 13.2534 4.1808H15.663C15.8898 6.3354 17.6292 8.0358 19.8036 8.1918V10.9938Z" fill="white"/>
</svg>
