<svg width="30" height="30" viewBox="0 0 30 30" fill="none" xmlns="http://www.w3.org/2000/svg">
<path d="M24.5999 2.3999H5.3999C3.7457 2.3999 2.3999 3.7457 2.3999 5.3999V24.5999C2.3999 26.2541 3.7457 27.5999 5.3999 27.5999H24.5999C26.2541 27.5999 27.5999 26.2541 27.5999 24.5999V5.3999C27.5999 3.7457 26.2541 2.3999 24.5999 2.3999ZM22.2035 13.3937C22.0673 13.4063 21.9293 13.4147 21.7895 13.4147C20.2157 13.4147 18.8327 12.6053 18.0281 11.3819C18.0281 14.5913 18.0281 18.2429 18.0281 18.3041C18.0281 21.1295 15.7373 23.4203 12.9119 23.4203C10.0865 23.4203 7.7957 21.1295 7.7957 18.3041C7.7957 15.4787 10.0865 13.1879 12.9119 13.1879C13.0187 13.1879 13.1231 13.1975 13.2281 13.2041V15.7253C13.1231 15.7127 13.0199 15.6935 12.9119 15.6935C11.4695 15.6935 10.3007 16.8623 10.3007 18.3047C10.3007 19.7471 11.4695 20.9159 12.9119 20.9159C14.3543 20.9159 15.6281 19.7795 15.6281 18.3371C15.6281 18.2801 15.6533 6.5807 15.6533 6.5807H18.0629C18.2897 8.7353 20.0291 10.4357 22.2035 10.5917V13.3937Z" fill="white"/>
</svg>
