<svg width="25" height="27" viewBox="0 0 25 27" fill="none" xmlns="http://www.w3.org/2000/svg">
<path fill-rule="evenodd" clip-rule="evenodd" d="M5.16073 20.6332C4.68635 20.0207 4.10996 18.7686 3.08429 17.2486C2.50295 16.3888 1.06129 14.7698 0.631983 13.9476C0.259464 13.2209 0.299552 12.8951 0.388093 12.2928C0.545124 11.2215 1.62095 10.3874 2.76861 10.4999C3.63558 10.5835 4.37067 11.1687 5.03217 11.7213C5.43142 12.054 5.92262 12.7005 6.21824 13.0657C6.49056 13.4 6.5574 13.5382 6.84807 13.934C7.2323 14.4577 7.35258 14.717 7.20558 14.1404C7.08692 13.2942 6.89314 11.8493 6.61254 10.5716C6.3987 9.60262 6.34689 9.45074 6.14312 8.70695C5.92757 7.91538 5.81736 7.36099 5.61522 6.52164C5.47487 5.92803 5.22262 4.71507 5.15415 4.03266C5.05897 3.09954 5.00878 1.57777 5.59515 0.878342C6.05459 0.330739 7.10869 0.165262 7.76182 0.503037C8.61719 0.944875 9.10326 2.21413 9.32547 2.72073C9.72473 3.63171 9.97195 4.68432 10.1875 6.06608C10.4614 7.82496 10.9659 10.2661 10.9826 10.7796C11.0227 10.1501 10.8691 8.82457 10.9759 8.2207C11.0728 7.67307 11.5239 7.0368 12.0885 6.86449C12.5663 6.71944 13.126 6.66662 13.6187 6.77064C14.1416 6.87979 14.6928 7.26194 14.8983 7.62196C15.5031 8.68644 15.5148 10.8615 15.5399 10.7455C15.6835 10.104 15.6584 8.64892 16.0142 8.04326C16.2481 7.64409 16.8445 7.28416 17.1619 7.22613C17.6531 7.13741 18.2561 7.11014 18.7723 7.21246C19.1883 7.29605 19.7512 7.80102 19.9032 8.04326C20.2674 8.63012 20.4746 10.29 20.5364 10.8717C20.5614 11.1123 20.66 10.203 21.0259 9.61614C21.7041 8.5261 24.1046 8.31455 24.1965 10.7063C24.2383 11.822 24.2299 11.7708 24.2299 12.5214C24.2299 13.4033 24.2099 13.9339 24.1631 14.5719C24.1113 15.2543 23.9677 16.7964 23.7589 17.5436C23.6152 18.0572 23.139 19.2121 22.6697 19.9047C22.6697 19.9047 20.8755 22.0371 20.6801 22.9975C20.483 23.9563 20.5481 23.9631 20.5097 24.6438C20.4713 25.3228 20.7118 26.2166 20.7118 26.2166C20.7118 26.2166 19.372 26.3941 18.6503 26.2764C17.9972 26.1689 17.1886 24.8416 16.9798 24.4356C16.6925 23.8761 16.0794 23.9836 15.8405 24.3964C15.4646 25.0498 14.6561 26.2218 14.0848 26.2951C12.9689 26.4384 10.6535 26.348 8.84102 26.3292C8.84102 26.3292 9.15004 24.6045 8.46182 24.0126C7.95228 23.5707 7.07523 22.6751 6.55074 22.2043L5.16073 20.6332Z" stroke="#2A6DBD" stroke-width="0.65625" stroke-linecap="round" stroke-linejoin="round"/>
</svg>
