<svg width="29" height="31" viewBox="0 0 29 31" fill="none" xmlns="http://www.w3.org/2000/svg">
<g filter="url(#filter0_d_2_575)">
<path d="M8.3916 1.44922C8.75946 1.38745 9.13632 1.43021 9.41113 1.57227C9.78311 1.76441 10.093 2.14842 10.3428 2.57324C10.4667 2.78402 10.5713 2.99628 10.6592 3.18848L10.875 3.68359C11.2629 4.56875 11.5071 5.59933 11.7217 6.97461C11.8592 7.85741 12.0537 8.91107 12.2158 9.80371C12.2971 10.251 12.3703 10.6579 12.4238 10.9844C12.4783 11.3164 12.5101 11.5507 12.5137 11.6621L12.9512 11.6689C12.9722 11.3392 12.9425 10.8319 12.9229 10.3564C12.9025 9.8637 12.893 9.40746 12.9414 9.13379C12.9829 8.89957 13.1032 8.63646 13.2793 8.41211C13.4558 8.18728 13.6746 8.01776 13.9023 7.94824V7.94922C14.3528 7.81249 14.8742 7.76464 15.3232 7.85938H15.3242C15.553 7.90715 15.7953 8.01707 16.0049 8.1582C16.2167 8.30091 16.3774 8.4643 16.458 8.60547C16.7368 9.09638 16.8882 9.86704 16.9697 10.5283C17.0098 10.8536 17.0319 11.1433 17.0459 11.3457C17.0527 11.4449 17.0575 11.5286 17.0615 11.5801C17.0633 11.6034 17.066 11.6307 17.0693 11.6514C17.0702 11.6569 17.0718 11.6683 17.0752 11.6807C17.0769 11.6868 17.0803 11.698 17.0859 11.7109C17.0897 11.7198 17.1042 11.7518 17.1357 11.7822C17.1535 11.7993 17.185 11.8235 17.2305 11.8359C17.2799 11.8494 17.33 11.8443 17.373 11.8262C17.4445 11.796 17.4751 11.7393 17.4805 11.7295C17.4975 11.6985 17.5023 11.6688 17.5029 11.666C17.578 11.3292 17.6113 10.7763 17.665 10.2793C17.6928 10.0222 17.7269 9.77222 17.7744 9.55176C17.8225 9.32856 17.8817 9.15089 17.9531 9.0293C18.047 8.86915 18.2249 8.70111 18.4287 8.56348C18.5829 8.4594 18.7344 8.38462 18.8496 8.34473L18.9512 8.31641C19.3646 8.24176 19.8558 8.21339 20.2949 8.27148L20.4795 8.30176C20.6357 8.33323 20.8475 8.45418 21.0518 8.61523C21.2541 8.77483 21.4106 8.9433 21.4678 9.03418V9.0332C21.5428 9.15407 21.6165 9.34528 21.6865 9.58691C21.7555 9.82495 21.8164 10.0984 21.8682 10.375C21.9715 10.9271 22.0377 11.4801 22.0684 11.7686V11.7695C22.0701 11.7861 22.0742 11.8181 22.085 11.8496C22.0889 11.8612 22.1047 11.9062 22.1465 11.9453C22.1713 11.9684 22.2108 11.9947 22.2646 12.0029C22.3193 12.0112 22.3663 11.9975 22.3994 11.9805C22.4548 11.952 22.483 11.9082 22.4893 11.8984C22.4998 11.8818 22.5067 11.866 22.5107 11.8564C22.5191 11.8369 22.526 11.816 22.5312 11.7988C22.5507 11.7352 22.5808 11.6094 22.6143 11.4863C22.6872 11.2178 22.7973 10.8705 22.9619 10.6064C23.2493 10.1449 23.927 9.8486 24.5469 9.94629C24.8489 9.99391 25.1291 10.1348 25.3398 10.3887C25.5509 10.6432 25.706 11.0289 25.7275 11.5898C25.7691 12.7013 25.7607 12.6472 25.7607 13.3965C25.7607 14.0545 25.7498 14.5144 25.7246 14.9697L25.6953 15.4307C25.6432 16.1186 25.4997 17.637 25.2979 18.3594C25.1596 18.8535 24.6938 19.9812 24.2412 20.6514C24.2383 20.6548 24.2354 20.6593 24.2314 20.6641C24.218 20.6802 24.1979 20.7039 24.1729 20.7344C24.1228 20.7953 24.0511 20.8829 23.9648 20.9912C23.7922 21.2079 23.5603 21.5078 23.3213 21.8379C23.0826 22.1674 22.8355 22.5305 22.6348 22.874C22.4376 23.2116 22.2725 23.5507 22.2158 23.8281C22.0144 24.8077 22.0785 24.8435 22.041 25.5068C22.0204 25.872 22.0746 26.2852 22.1309 26.5986C22.1515 26.7138 22.1746 26.817 22.1934 26.9023C22.0607 26.9164 21.8834 26.9335 21.6865 26.9473C21.3681 26.9695 21.0111 26.9828 20.7119 26.9648L20.4355 26.9355C20.3307 26.9182 20.1947 26.8452 20.0352 26.709C19.8795 26.5761 19.7203 26.3997 19.5703 26.208C19.2706 25.8249 19.0241 25.4039 18.9248 25.2109C18.7456 24.8619 18.4446 24.696 18.1338 24.708C17.8725 24.7182 17.626 24.8535 17.4648 25.0664L17.4014 25.1621C17.2177 25.4813 16.9282 25.9265 16.6182 26.2979C16.463 26.4837 16.3068 26.6457 16.1602 26.7637C16.0089 26.8854 15.8894 26.9425 15.8066 26.9531C15.2655 27.0226 14.422 27.0363 13.4756 27.0293C12.6095 27.0228 11.6902 26.9995 10.8398 26.9883C10.8413 26.9754 10.8442 26.9619 10.8457 26.9482C10.8645 26.7713 10.8825 26.5276 10.8779 26.2637C10.8733 26.001 10.8468 25.7102 10.7725 25.4414C10.7077 25.2073 10.6027 24.9746 10.4316 24.7949L10.3545 24.7217C10.1053 24.5055 9.7636 24.1759 9.41406 23.8369C9.06998 23.5032 8.71857 23.1606 8.45312 22.9219L7.08398 21.374C6.85868 21.0832 6.60525 20.6346 6.26953 20.0479C5.93757 19.4676 5.53328 18.7681 5.01562 18.001C4.71888 17.5621 4.20441 16.9319 3.72266 16.3232C3.29295 15.7803 2.89245 15.2585 2.66309 14.876L2.57617 14.7217C2.39788 14.3737 2.32645 14.1373 2.30469 13.9258C2.28251 13.7097 2.3097 13.5039 2.35449 13.1992C2.49395 12.2491 3.4602 11.4912 4.49707 11.5928H4.49805C5.28718 11.669 5.97185 12.2051 6.6416 12.7646H6.64258C7.02013 13.0794 7.49114 13.6993 7.79785 14.0781L7.79883 14.0791C8.0692 14.4111 8.11464 14.5201 8.42188 14.9385C8.51641 15.0673 8.594 15.1789 8.6582 15.2695C8.71578 15.3508 8.77556 15.4349 8.82324 15.4814C8.8358 15.4937 8.86034 15.5157 8.89355 15.5332C8.92095 15.5476 9.01436 15.5898 9.11621 15.5322C9.20814 15.4801 9.22642 15.3898 9.23047 15.3672C9.23636 15.3344 9.23569 15.3042 9.23438 15.2852C9.23186 15.2491 9.22343 15.2028 9.21191 15.1484L9.16797 14.9609C9.04936 14.114 8.85627 12.6749 8.57617 11.3994L8.44043 10.7998C8.40199 10.6363 8.36878 10.502 8.33594 10.375L8.10449 9.52441C7.99725 9.13057 7.9161 8.79812 7.83691 8.45801L7.57812 7.3457C7.45559 6.82731 7.24973 5.84377 7.15527 5.15918L7.12207 4.88574C7.07511 4.42537 7.03966 3.82609 7.08691 3.26074C7.13499 2.68589 7.26517 2.18881 7.5127 1.89355C7.69893 1.67172 8.02289 1.51121 8.3916 1.44922Z" fill="white" stroke="#2A6DBD" stroke-width="0.4375"/>
<path fill-rule="evenodd" clip-rule="evenodd" d="M6.91073 21.5082C6.43635 20.8957 5.85996 19.6436 4.83429 18.1236C4.25295 17.2638 2.81129 15.6448 2.38198 14.8226C2.00946 14.0959 2.04955 13.7701 2.13809 13.1678C2.29512 12.0965 3.37095 11.2624 4.51861 11.3749C5.38558 11.4585 6.12067 12.0437 6.78217 12.5963C7.18142 12.929 7.67262 13.5755 7.96824 13.9407C8.24056 14.275 8.3074 14.4132 8.59807 14.809C8.9823 15.3327 9.10258 15.592 8.95558 15.0154C8.83692 14.1692 8.64314 12.7243 8.36254 11.4466C8.1487 10.4776 8.09689 10.3257 7.89312 9.58195C7.67757 8.79038 7.56736 8.23599 7.36522 7.39664C7.22487 6.80303 6.97262 5.59007 6.90415 4.90766C6.80897 3.97454 6.75878 2.45277 7.34515 1.75334C7.80459 1.20574 8.85869 1.04026 9.51182 1.37804C10.3672 1.81988 10.8533 3.08913 11.0755 3.59573C11.4747 4.50671 11.7219 5.55932 11.9375 6.94108C12.2114 8.69996 12.7159 11.1411 12.7326 11.6546C12.7727 11.0251 12.6191 9.69957 12.7259 9.0957C12.8228 8.54807 13.2739 7.9118 13.8385 7.73949C14.3163 7.59444 14.876 7.54162 15.3687 7.64564C15.8916 7.75479 16.4428 8.13694 16.6483 8.49696C17.2531 9.56144 17.2648 11.7365 17.2899 11.6205C17.4335 10.979 17.4084 9.52392 17.7642 8.91826C17.9981 8.51909 18.5945 8.15916 18.9119 8.10113C19.4031 8.01241 20.0061 7.98514 20.5223 8.08746C20.9383 8.17105 21.5012 8.67602 21.6532 8.91826C22.0174 9.50512 22.2246 11.165 22.2864 11.7467C22.3114 11.9873 22.41 11.078 22.7759 10.4911C23.4541 9.4011 25.8546 9.18955 25.9465 11.5813C25.9883 12.697 25.9799 12.6458 25.9799 13.3964C25.9799 14.2783 25.9599 14.8089 25.9131 15.4469C25.8613 16.1293 25.7177 17.6714 25.5089 18.4186C25.3652 18.9322 24.889 20.0871 24.4197 20.7797C24.4197 20.7797 22.6255 22.9121 22.4301 23.8725C22.233 24.8313 22.2981 24.8381 22.2597 25.5188C22.2213 26.1978 22.4618 27.0916 22.4618 27.0916C22.4618 27.0916 21.122 27.2691 20.4003 27.1514C19.7472 27.0439 18.9386 25.7166 18.7298 25.3106C18.4425 24.7511 17.8294 24.8586 17.5905 25.2714C17.2146 25.9248 16.4061 27.0968 15.8348 27.1701C14.7189 27.3134 12.4035 27.223 10.591 27.2042C10.591 27.2042 10.9 25.4795 10.2118 24.8876C9.70228 24.4457 8.82523 23.5501 8.30074 23.0793L6.91073 21.5082Z" stroke="#2A6DBD" stroke-width="0.65625" stroke-linecap="round" stroke-linejoin="round"/>
</g>
<defs>
<filter id="filter0_d_2_575" x="0" y="0" width="28.0586" height="30.2029" filterUnits="userSpaceOnUse" color-interpolation-filters="sRGB">
<feFlood flood-opacity="0" result="BackgroundImageFix"/>
<feColorMatrix in="SourceAlpha" type="matrix" values="0 0 0 0 0 0 0 0 0 0 0 0 0 0 0 0 0 0 127 0" result="hardAlpha"/>
<feOffset dy="0.875"/>
<feGaussianBlur stdDeviation="0.875"/>
<feColorMatrix type="matrix" values="0 0 0 0 0 0 0 0 0 0 0 0 0 0 0 0 0 0 0.24 0"/>
<feBlend mode="normal" in2="BackgroundImageFix" result="effect1_dropShadow_2_575"/>
<feBlend mode="normal" in="SourceGraphic" in2="effect1_dropShadow_2_575" result="shape"/>
</filter>
</defs>
</svg>
