<svg width="24" height="24" viewBox="0 0 24 24" fill="none" xmlns="http://www.w3.org/2000/svg">
<mask id="mask0_2_606" style="mask-type:alpha" maskUnits="userSpaceOnUse" x="5" y="2" width="18" height="19">
<path d="M21.7527 10.4249C22.6713 10.9304 22.6713 12.2355 21.7527 12.7409L7.06272 20.8245C6.16813 21.3167 5.06738 20.6779 5.06738 19.6665L5.06738 3.49937C5.06738 2.48792 6.16813 1.84911 7.06272 2.34138L21.7527 10.4249Z" fill="#C4C4C4"/>
</mask>
<g mask="url(#mask0_2_606)">
<path d="M5.52688 20.6655L14.69 11.4508L5.67779 2.38794C5.31825 2.61843 5.06738 3.01636 5.06738 3.49922V19.6663C5.06738 20.0783 5.24998 20.4284 5.52688 20.6655Z" fill="url(#paint0_linear_2_606)"/>
<path d="M21.7526 10.4248C22.6711 10.9302 22.6711 12.2353 21.7526 12.7407L18.0466 14.7801L14.6899 11.4508L17.8754 8.29126L21.7526 10.4248Z" fill="url(#paint1_linear_2_606)"/>
<path d="M18.0467 14.7802L14.69 11.4509L5.52686 20.6656C5.92981 21.0106 6.53248 21.1162 7.06273 20.8245L18.0467 14.7802Z" fill="url(#paint2_linear_2_606)"/>
<path d="M5.67773 2.38808L14.69 11.451L17.8755 8.29142L7.06264 2.34138C6.59513 2.08412 6.07132 2.13577 5.67773 2.38808Z" fill="url(#paint3_linear_2_606)"/>
</g>
<defs>
<linearGradient id="paint0_linear_2_606" x1="11.3488" y1="7.87179" x2="5.11882" y2="14.153" gradientUnits="userSpaceOnUse">
<stop stop-color="#00C3FF"/>
<stop offset="1" stop-color="#1BE2FA"/>
</linearGradient>
<linearGradient id="paint1_linear_2_606" x1="14.6899" y1="11.4508" x2="22.9761" y2="11.4508" gradientUnits="userSpaceOnUse">
<stop stop-color="#FFCE00"/>
<stop offset="1" stop-color="#FFEA00"/>
</linearGradient>
<linearGradient id="paint2_linear_2_606" x1="5.33469" y1="21.7904" x2="16.357" y2="12.9537" gradientUnits="userSpaceOnUse">
<stop stop-color="#DE2453"/>
<stop offset="1" stop-color="#FE3944"/>
</linearGradient>
<linearGradient id="paint3_linear_2_606" x1="5.8692" y1="1.37655" x2="16.3587" y2="9.94429" gradientUnits="userSpaceOnUse">
<stop stop-color="#11D574"/>
<stop offset="1" stop-color="#01F176"/>
</linearGradient>
</defs>
</svg>
