<svg width="21" height="19" viewBox="0 0 21 19" fill="none" xmlns="http://www.w3.org/2000/svg">
<path d="M19.784 2.43187C18.5569 0.893034 16.8322 0 15.2035 0C13.0533 0 12.1438 1.02939 10.6499 1.02939C9.10958 1.02939 7.93935 0.0029969 6.07986 0.0029969C4.25334 0.0029969 2.30844 1.11929 1.07527 3.02822C-0.65835 5.71632 -0.361671 10.7703 2.44779 15.0752C3.4532 16.6155 4.79575 18.3477 6.55185 18.3626C8.11466 18.3776 8.55518 17.3602 10.6724 17.3497C12.7896 17.3377 13.1912 18.3761 14.751 18.3596C16.5086 18.3462 17.9245 16.4267 18.93 14.8864C19.6507 13.7821 19.9189 13.2262 20.4778 11.9795C16.4127 10.4317 15.7609 4.65097 19.784 2.43187Z" fill="white"/>
</svg>
