<svg width="39" height="39" viewBox="0 0 39 39" fill="none" xmlns="http://www.w3.org/2000/svg">
<path d="M19.1406 0C8.56953 0 0 8.56953 0 19.1406C0 29.7117 8.56953 38.2812 19.1406 38.2812C29.7117 38.2812 38.2812 29.7117 38.2812 19.1406C38.2812 8.56953 29.7117 0 19.1406 0ZM16.7833 8.41789C16.7833 7.79496 17.0308 7.19754 17.4713 6.75705C17.9118 6.31657 18.5092 6.06911 19.1321 6.06911C19.7551 6.06911 20.3525 6.31657 20.793 6.75705C21.2334 7.19753 21.4809 7.79496 21.4809 8.41789V22.017C21.4809 22.64 21.2334 23.2374 20.793 23.6779C20.3525 24.1184 19.7551 24.3658 19.1321 24.3658C18.5092 24.3658 17.9118 24.1184 17.4713 23.6779C17.0308 23.2374 16.7833 22.64 16.7833 22.017V8.41789ZM21.2001 31.3526C20.7251 31.8212 20.1024 32.1107 19.438 32.172C18.7736 32.2333 18.1085 32.0626 17.5558 31.6889C17.0031 31.3151 16.5969 30.7615 16.4063 30.1221C16.2157 29.4827 16.2525 28.797 16.5104 28.1816C16.7683 27.5663 17.2313 27.0592 17.8209 26.7468C18.4104 26.4343 19.0899 26.3357 19.744 26.4677C20.398 26.5997 20.9861 26.9542 21.4082 27.4709C21.8304 27.9875 22.0606 28.6345 22.0596 29.3017C22.0628 29.6839 21.9882 30.0629 21.8405 30.4154C21.6927 30.768 21.4748 31.0869 21.2001 31.3526Z" fill="#E28133"/>
</svg>
