<svg width="65" height="70" viewBox="0 0 65 70" fill="none" xmlns="http://www.w3.org/2000/svg">
<g filter="url(#filter0_d_2_688)">
<path d="M19.1816 3.31238C19.9175 3.18883 20.6686 3.24801 21.2656 3.4823L21.5117 3.59363C22.3619 4.03276 23.0689 4.91081 23.6396 5.88171C23.9228 6.36346 24.1625 6.84868 24.3633 7.28796L24.8574 8.4198C25.6333 10.1902 26.1572 12.2151 26.6045 14.7997L26.792 15.9423C27.1063 17.9603 27.5522 20.3686 27.9229 22.4091C28.1085 23.4312 28.275 24.3602 28.3975 25.1063C28.522 25.8652 28.5953 26.4005 28.6035 26.6552L29.6025 26.6708C29.6506 25.917 29.5829 24.7585 29.5381 23.6718C29.4916 22.5455 29.4694 21.5024 29.5801 20.8768C29.6748 20.3416 29.9493 19.7401 30.3516 19.2274C30.7046 18.7776 31.1326 18.4255 31.583 18.2382L31.7764 18.1688C32.8063 17.8562 33.9987 17.748 35.0254 17.9647H35.0264C35.5498 18.074 36.1045 18.3253 36.584 18.6483C37.0673 18.974 37.4337 19.3455 37.6182 19.6678V19.6688C38.2556 20.7909 38.6007 22.5526 38.7871 24.0643C38.8788 24.8082 38.93 25.4706 38.9619 25.9335C38.9775 26.1601 38.989 26.351 38.998 26.4686C39.0022 26.5222 39.0079 26.5855 39.0156 26.6327C39.0177 26.6453 39.0217 26.6694 39.0293 26.6971C39.0331 26.7108 39.0408 26.7365 39.0537 26.7665C39.0621 26.7859 39.0947 26.8611 39.168 26.9315C39.2086 26.9705 39.2799 27.0253 39.3838 27.0536C39.4968 27.0843 39.6116 27.0736 39.71 27.0321C39.8729 26.9633 39.9425 26.8334 39.9551 26.8104C39.994 26.7395 40.0064 26.6724 40.0078 26.6659C40.1794 25.8962 40.2542 24.6321 40.377 23.496C40.4405 22.9082 40.5174 22.3368 40.626 21.8329C40.7223 21.3861 40.8387 21.019 40.9756 20.7479L41.0352 20.6376C41.2498 20.2712 41.6577 19.8878 42.124 19.5731C42.5933 19.2564 43.0487 19.0568 43.3164 19.0077C44.3962 18.8127 45.7082 18.7565 46.8096 18.9745V18.9755C47.1666 19.0472 47.6502 19.3231 48.1172 19.6913C48.5805 20.0566 48.9389 20.4426 49.0693 20.6503C49.2404 20.9267 49.4107 21.3619 49.5703 21.913C49.7278 22.457 49.866 23.0816 49.9844 23.7137C50.1618 24.6615 50.2916 25.6105 50.375 26.3036L50.4434 26.9022C50.4473 26.9403 50.4552 27.0124 50.4795 27.0839C50.4882 27.1095 50.5239 27.2126 50.6201 27.3026C50.6768 27.3555 50.767 27.4156 50.8906 27.4344C51.0159 27.4535 51.1235 27.4226 51.1992 27.3837C51.3257 27.3185 51.3891 27.2186 51.4033 27.1962C51.4276 27.158 51.4438 27.1223 51.4531 27.1005C51.4724 27.0553 51.488 27.007 51.5 26.9677C51.5443 26.8222 51.614 26.536 51.6904 26.2548C51.8363 25.7178 52.0453 25.043 52.3477 24.4784L52.4834 24.244C53.1401 23.1886 54.69 22.5117 56.1074 22.7352C56.7977 22.8441 57.4373 23.1648 57.9189 23.745C58.3715 24.2903 58.7125 25.099 58.7939 26.2548L58.8066 26.4901C58.9017 29.0312 58.8828 28.9073 58.8828 30.62C58.8828 32.6251 58.8373 33.8257 58.7314 35.2694C58.6123 36.8416 58.2856 40.3135 57.8242 41.9647C57.5087 43.0924 56.4471 45.6636 55.4141 47.1962C55.4066 47.2051 55.3975 47.2172 55.3857 47.2313C55.355 47.2683 55.3101 47.3229 55.2529 47.3925C55.1385 47.5317 54.9748 47.7325 54.7773 47.9803C54.3827 48.4756 53.851 49.1605 53.3047 49.9149C52.7593 50.6681 52.195 51.498 51.7363 52.2831C51.2852 53.0554 50.9075 53.8312 50.7783 54.4657C50.3182 56.704 50.4654 56.7846 50.3799 58.3007C50.3327 59.1354 50.4563 60.0801 50.585 60.7968C50.6321 61.0593 50.6818 61.2954 50.7246 61.4901C50.4218 61.5223 50.0178 61.5624 49.5693 61.5936C48.5988 61.6613 47.4711 61.6906 46.709 61.5663C46.4695 61.5263 46.159 61.3604 45.7949 61.0497C45.439 60.7459 45.0762 60.3422 44.7334 59.9042C44.0475 59.0277 43.4825 58.0645 43.2559 57.6239C42.8461 56.8263 42.1588 56.4469 41.4482 56.4745C40.7661 56.501 40.1282 56.9014 39.7744 57.5126L39.7734 57.5135C39.3537 58.2432 38.6931 59.2604 37.9844 60.1093C37.6296 60.5341 37.2727 60.9049 36.9375 61.1747C36.5918 61.4529 36.3192 61.583 36.1299 61.6073C34.8931 61.7661 32.9651 61.7972 30.8018 61.7811C28.823 61.7664 26.7224 61.7151 24.7793 61.6893C24.7827 61.6594 24.7876 61.6284 24.791 61.5966C24.8341 61.1922 24.8747 60.6357 24.8643 60.0321C24.8538 59.4311 24.7924 58.7654 24.6221 58.1503C24.453 57.5397 24.1644 56.935 23.668 56.5077H23.6689C23.0994 56.0138 22.3181 55.2606 21.5186 54.4852C20.7367 53.727 19.9376 52.9485 19.332 52.4032L16.1816 48.8417C15.6691 48.1764 15.0917 47.1559 14.3291 45.8231C13.6652 44.6627 12.8752 43.2945 11.8955 41.7958L11.4639 41.1454C10.7856 40.1423 9.60991 38.7017 8.50879 37.3104C7.38669 35.8927 6.35181 34.5372 5.8877 33.6483C5.48061 32.8535 5.31731 32.3142 5.26758 31.8309C5.21677 31.3369 5.27942 30.8674 5.38184 30.1708V30.1698C5.70047 27.9979 7.90913 26.2646 10.2793 26.4969H10.2803C11.859 26.6492 13.2553 27.6063 14.6055 28.7001L15.1816 29.1757C16.0449 29.8949 17.1229 31.3124 17.8242 32.1786L17.8252 32.1796C18.4437 32.939 18.5475 33.1888 19.25 34.1454V34.1444C19.4663 34.4392 19.6432 34.6949 19.79 34.9022C19.9217 35.088 20.059 35.2794 20.168 35.3856C20.1967 35.4136 20.2522 35.4648 20.3281 35.5048C20.391 35.5379 20.6042 35.6327 20.8369 35.5009C21.0471 35.3817 21.0894 35.1763 21.0986 35.1249C21.1122 35.0494 21.1095 34.9798 21.1064 34.9364C21.0952 34.7764 21.0378 34.5305 20.9609 34.2274C20.6903 32.2959 20.2462 28.9876 19.6025 26.0565V26.0555C19.3567 24.9418 19.2037 24.2951 19.0537 23.7147L18.5234 21.7694C18.0331 19.9688 17.7872 18.7277 17.3203 16.7889C17.0001 15.4341 16.4312 12.6916 16.2783 11.1678V11.1669L16.2051 10.3241C16.1424 9.43485 16.1182 8.42302 16.1992 7.45398C16.309 6.13987 16.6061 5.004 17.1719 4.32898C17.5976 3.82152 18.3383 3.45402 19.1816 3.31238ZM39.0322 26.452H39.0312C39.0316 26.4503 39.0327 26.4484 39.0332 26.4462C39.0328 26.448 39.0326 26.4502 39.0322 26.452Z" fill="white" stroke="#2A6DBD"/>
<path fill-rule="evenodd" clip-rule="evenodd" d="M15.7959 49.1614C14.7117 47.7616 13.3942 44.8996 11.0498 41.4252C9.72102 39.46 6.4258 35.7595 5.44453 33.8801C4.59306 32.2191 4.68469 31.4743 4.88707 30.0978C5.246 27.649 7.70502 25.7424 10.3282 25.9997C12.3099 26.1908 13.9901 27.5283 15.5021 28.7915C16.4147 29.5519 17.5374 31.0297 18.2131 31.8643C18.8356 32.6285 18.9883 32.9443 19.6527 33.849C20.531 35.046 20.8059 35.6388 20.4699 34.3208C20.1987 32.3867 19.7558 29.084 19.1144 26.1634C18.6256 23.9487 18.5072 23.6016 18.0414 21.9015C17.5487 20.0922 17.2968 18.825 16.8348 16.9065C16.514 15.5497 15.9374 12.7772 15.7809 11.2174C15.5634 9.08454 15.4486 5.60622 16.7889 4.00752C17.8391 2.75585 20.2484 2.37762 21.7413 3.14968C23.6964 4.15959 24.8075 7.06075 25.3154 8.2187C26.2279 10.3009 26.793 12.7069 27.2857 15.8652C27.9119 19.8855 29.065 25.4652 29.1031 26.639C29.1948 25.2001 28.8436 22.1703 29.0879 20.79C29.3093 19.5383 30.3403 18.084 31.6309 17.6901C32.723 17.3586 34.0022 17.2379 35.1284 17.4756C36.3238 17.7251 37.5837 18.5986 38.0533 19.4215C39.4356 21.8546 39.4623 26.8261 39.5197 26.561C39.8481 25.0948 39.7907 21.7688 40.6039 20.3845C41.1386 19.4721 42.5017 18.6494 43.2272 18.5167C44.3499 18.314 45.7282 18.2516 46.9081 18.4855C47.859 18.6766 49.1456 19.8308 49.4931 20.3845C50.3255 21.7259 50.7991 25.5199 50.9403 26.8496C50.9975 27.3993 51.2229 25.321 52.0592 23.9796C53.6094 21.4881 59.0962 21.0046 59.3064 26.4714C59.4018 29.0215 59.3827 28.9045 59.3827 30.6202C59.3827 32.636 59.3368 33.8488 59.2299 35.3071C59.1117 36.8669 58.7833 40.3917 58.306 42.0996C57.9776 43.2734 56.8892 45.9132 55.8164 47.4963C55.8164 47.4963 51.7154 52.3703 51.2687 54.5657C50.8182 56.7571 50.9671 56.7727 50.8793 58.3285C50.7915 59.8805 51.3413 61.9236 51.3413 61.9236C51.3413 61.9236 48.2789 62.3292 46.6293 62.0602C45.1364 61.8144 43.2882 58.7807 42.811 57.8527C42.1542 56.5739 40.753 56.8194 40.2069 57.7631C39.3478 59.2565 37.4998 61.9354 36.1938 62.103C33.6432 62.4306 28.3509 62.2239 24.208 62.1809C24.208 62.1809 24.9144 58.2388 23.3413 56.8859C22.1766 55.8758 20.1719 53.8287 18.9731 52.7525L15.7959 49.1614Z" stroke="#2A6DBD" stroke-width="1.5" stroke-linecap="round" stroke-linejoin="round"/>
</g>
<defs>
<filter id="filter0_d_2_688" x="0" y="0" width="64.1343" height="69.0348" filterUnits="userSpaceOnUse" color-interpolation-filters="sRGB">
<feFlood flood-opacity="0" result="BackgroundImageFix"/>
<feColorMatrix in="SourceAlpha" type="matrix" values="0 0 0 0 0 0 0 0 0 0 0 0 0 0 0 0 0 0 127 0" result="hardAlpha"/>
<feOffset dy="2"/>
<feGaussianBlur stdDeviation="2"/>
<feColorMatrix type="matrix" values="0 0 0 0 0 0 0 0 0 0 0 0 0 0 0 0 0 0 0.24 0"/>
<feBlend mode="normal" in2="BackgroundImageFix" result="effect1_dropShadow_2_688"/>
<feBlend mode="normal" in="SourceGraphic" in2="effect1_dropShadow_2_688" result="shape"/>
</filter>
</defs>
</svg>
