<svg width="55" height="60" viewBox="0 0 55 60" fill="none" xmlns="http://www.w3.org/2000/svg">
<path d="M14.4316 0.5625C15.1675 0.438951 15.9186 0.498132 16.5156 0.732422L16.7617 0.84375C17.6119 1.28289 18.3189 2.16093 18.8896 3.13184C19.1728 3.61358 19.4125 4.09881 19.6133 4.53809L20.1074 5.66992C20.8833 7.44029 21.4072 9.46522 21.8545 12.0498L22.042 13.1924C22.3563 15.2104 22.8022 17.6187 23.1729 19.6592C23.3585 20.6813 23.525 21.6103 23.6475 22.3564C23.772 23.1154 23.8453 23.6507 23.8535 23.9053L24.8525 23.9209C24.9006 23.1671 24.8329 22.0086 24.7881 20.9219C24.7416 19.7956 24.7194 18.7525 24.8301 18.127C24.9248 17.5918 25.1993 16.9902 25.6016 16.4775C25.9546 16.0277 26.3826 15.6756 26.833 15.4883L27.0264 15.4189C28.0563 15.1063 29.2487 14.9981 30.2754 15.2148H30.2764C30.7998 15.3241 31.3545 15.5754 31.834 15.8984C32.3173 16.2241 32.6837 16.5957 32.8682 16.918V16.9189C33.5056 18.041 33.8507 19.8027 34.0371 21.3145C34.1288 22.0584 34.18 22.7207 34.2119 23.1836C34.2275 23.4103 34.239 23.6011 34.248 23.7188C34.2522 23.7724 34.2579 23.8356 34.2656 23.8828C34.2677 23.8954 34.2717 23.9195 34.2793 23.9473C34.2831 23.961 34.2908 23.9866 34.3037 24.0166C34.3121 24.036 34.3447 24.1112 34.418 24.1816C34.4586 24.2207 34.5299 24.2754 34.6338 24.3037C34.7468 24.3344 34.8616 24.3237 34.96 24.2822C35.1229 24.2135 35.1925 24.0835 35.2051 24.0605C35.244 23.9896 35.2564 23.9225 35.2578 23.916C35.4294 23.1463 35.5042 21.8822 35.627 20.7461C35.6905 20.1583 35.7674 19.587 35.876 19.083C35.9723 18.6362 36.0887 18.2691 36.2256 17.998L36.2852 17.8877C36.4998 17.5214 36.9077 17.138 37.374 16.8232C37.8433 16.5065 38.2987 16.3069 38.5664 16.2578C39.6462 16.0628 40.9582 16.0066 42.0596 16.2246V16.2256C42.4166 16.2973 42.9002 16.5732 43.3672 16.9414C43.8305 17.3068 44.1889 17.6927 44.3193 17.9004C44.4904 18.1768 44.6607 18.6121 44.8203 19.1631C44.9778 19.7071 45.116 20.3318 45.2344 20.9639C45.4118 21.9116 45.5416 22.8606 45.625 23.5537L45.6934 24.1523C45.6973 24.1904 45.7052 24.2625 45.7295 24.334C45.7382 24.3596 45.7739 24.4627 45.8701 24.5527C45.9268 24.6057 46.017 24.6657 46.1406 24.6846C46.2659 24.7036 46.3735 24.6727 46.4492 24.6338C46.5757 24.5686 46.6391 24.4687 46.6533 24.4463C46.6776 24.4081 46.6938 24.3724 46.7031 24.3506C46.7224 24.3054 46.738 24.2571 46.75 24.2178C46.7943 24.0724 46.864 23.7862 46.9404 23.5049C47.0863 22.9679 47.2953 22.2932 47.5977 21.7285L47.7334 21.4941C48.3901 20.4387 49.94 19.7618 51.3574 19.9854C52.0477 20.0942 52.6873 20.4149 53.1689 20.9951C53.6215 21.5405 53.9625 22.3491 54.0439 23.5049L54.0566 23.7402C54.1517 26.2813 54.1328 26.1575 54.1328 27.8701C54.1328 29.8753 54.0873 31.0758 53.9814 32.5195C53.8623 34.0918 53.5356 37.5636 53.0742 39.2148C52.7587 40.3425 51.6971 42.9137 50.6641 44.4463C50.6566 44.4553 50.6475 44.4673 50.6357 44.4814C50.605 44.5184 50.5601 44.573 50.5029 44.6426C50.3885 44.7818 50.2248 44.9827 50.0273 45.2305C49.6327 45.7257 49.101 46.4106 48.5547 47.165C48.0093 47.9182 47.445 48.7481 46.9863 49.5332C46.5352 50.3055 46.1575 51.0813 46.0283 51.7158C45.5682 53.9541 45.7154 54.0347 45.6299 55.5508C45.5827 56.3856 45.7063 57.3302 45.835 58.0469C45.8821 58.3094 45.9318 58.5455 45.9746 58.7402C45.6718 58.7724 45.2678 58.8125 44.8193 58.8438C43.8488 58.9114 42.7211 58.9407 41.959 58.8164C41.7195 58.7765 41.409 58.6106 41.0449 58.2998C40.689 57.996 40.3262 57.5923 39.9834 57.1543C39.2975 56.2778 38.7325 55.3146 38.5059 54.874C38.0961 54.0764 37.4088 53.6971 36.6982 53.7246C36.0161 53.7512 35.3782 54.1515 35.0244 54.7627L35.0234 54.7637C34.6037 55.4933 33.9431 56.5105 33.2344 57.3594C32.8796 57.7843 32.5227 58.155 32.1875 58.4248C31.8418 58.7031 31.5692 58.8331 31.3799 58.8574C30.1431 59.0163 28.2151 59.0474 26.0518 59.0312C24.073 59.0165 21.9724 58.9652 20.0293 58.9395C20.0327 58.9095 20.0376 58.8785 20.041 58.8467C20.0841 58.4423 20.1247 57.8858 20.1143 57.2822C20.1038 56.6812 20.0424 56.0155 19.8721 55.4004C19.703 54.7898 19.4144 54.1851 18.918 53.7578H18.9189C18.3494 53.2639 17.5681 52.5107 16.7686 51.7354C15.9867 50.9771 15.1876 50.1987 14.582 49.6533L11.4316 46.0918C10.9191 45.4265 10.3417 44.4061 9.5791 43.0732C8.91516 41.9128 8.12525 40.5446 7.14551 39.0459L6.71387 38.3955C6.03562 37.3924 4.85991 35.9518 3.75879 34.5605C2.63669 33.1428 1.60181 31.7874 1.1377 30.8984C0.730606 30.1036 0.567306 29.5643 0.517578 29.0811C0.466771 28.5871 0.529422 28.1175 0.631836 27.4209V27.4199C0.950465 25.248 3.15913 23.5147 5.5293 23.7471H5.53027C7.10897 23.8993 8.50528 24.8564 9.85547 25.9502L10.4316 26.4258C11.2949 27.145 12.3729 28.5625 13.0742 29.4287L13.0752 29.4297C13.6937 30.1891 13.7975 30.4389 14.5 31.3955V31.3945C14.7163 31.6893 14.8932 31.9451 15.04 32.1523C15.1717 32.3382 15.309 32.5295 15.418 32.6357C15.4467 32.6637 15.5022 32.7149 15.5781 32.7549C15.641 32.788 15.8542 32.8829 16.0869 32.751C16.2971 32.6318 16.3394 32.4265 16.3486 32.375C16.3622 32.2995 16.3595 32.2299 16.3564 32.1865C16.3452 32.0265 16.2878 31.7806 16.2109 31.4775C15.9403 29.546 15.4962 26.2377 14.8525 23.3066V23.3057C14.6067 22.1919 14.4537 21.5453 14.3037 20.9648L13.7734 19.0195C13.2831 17.2189 13.0372 15.9778 12.5703 14.0391C12.2501 12.6842 11.6812 9.94177 11.5283 8.41797V8.41699L11.4551 7.57422C11.3924 6.68498 11.3682 5.67314 11.4492 4.7041C11.559 3.38999 11.8561 2.25412 12.4219 1.5791C12.8476 1.07164 13.5883 0.704137 14.4316 0.5625ZM34.2822 23.7021H34.2812C34.2816 23.7004 34.2827 23.6985 34.2832 23.6963C34.2828 23.6982 34.2826 23.7003 34.2822 23.7021Z" fill="white" stroke="#2A6DBD"/>
</svg>
