<svg width="57" height="62" viewBox="0 0 57 62" fill="none" xmlns="http://www.w3.org/2000/svg">
<path fill-rule="evenodd" clip-rule="evenodd" d="M11.7959 47.1614C10.7117 45.7616 9.39419 42.8996 7.0498 39.4252C5.72102 37.46 2.4258 33.7595 1.44453 31.8801C0.593061 30.2191 0.68469 29.4743 0.887071 28.0978C1.246 25.649 3.70502 23.7424 6.32824 23.9997C8.3099 24.1908 9.99009 25.5283 11.5021 26.7915C12.4147 27.5519 13.5374 29.0297 14.2131 29.8643C14.8356 30.6285 14.9883 30.9443 15.6527 31.849C16.531 33.046 16.8059 33.6388 16.4699 32.3208C16.1987 30.3867 15.7558 27.084 15.1144 24.1634C14.6256 21.9487 14.5072 21.6016 14.0414 19.9015C13.5487 18.0922 13.2968 16.825 12.8348 14.9065C12.514 13.5497 11.9374 10.7772 11.7809 9.21738C11.5634 7.08454 11.4486 3.60622 12.7889 2.00752C13.8391 0.755852 16.2484 0.377621 17.7413 1.14968C19.6964 2.15959 20.8075 5.06075 21.3154 6.2187C22.2279 8.30093 22.793 10.7069 23.2857 13.8652C23.9119 17.8855 25.065 23.4652 25.1031 24.639C25.1948 23.2001 24.8436 20.1703 25.0879 18.79C25.3093 17.5383 26.3403 16.084 27.6309 15.6901C28.723 15.3586 30.0022 15.2379 31.1284 15.4756C32.3238 15.7251 33.5837 16.5986 34.0533 17.4215C35.4356 19.8546 35.4623 24.8261 35.5197 24.561C35.8481 23.0948 35.7907 19.7688 36.6039 18.3845C37.1386 17.4721 38.5017 16.6494 39.2272 16.5167C40.3499 16.314 41.7282 16.2516 42.9081 16.4855C43.859 16.6766 45.1456 17.8308 45.4931 18.3845C46.3255 19.7259 46.7991 23.5199 46.9403 24.8496C46.9975 25.3993 47.2229 23.321 48.0592 21.9796C49.6094 19.4881 55.0962 19.0046 55.3064 24.4714C55.4018 27.0215 55.3827 26.9045 55.3827 28.6202C55.3827 30.636 55.3368 31.8488 55.2299 33.3071C55.1117 34.8669 54.7833 38.3917 54.306 40.0996C53.9776 41.2734 52.8892 43.9132 51.8164 45.4963C51.8164 45.4963 47.7154 50.3703 47.2687 52.5657C46.8182 54.7571 46.9671 54.7727 46.8793 56.3285C46.7915 57.8805 47.3413 59.9236 47.3413 59.9236C47.3413 59.9236 44.2789 60.3292 42.6293 60.0602C41.1364 59.8144 39.2882 56.7807 38.811 55.8527C38.1542 54.5739 36.753 54.8194 36.2069 55.7631C35.3478 57.2565 33.4998 59.9354 32.1938 60.103C29.6432 60.4306 24.3509 60.2239 20.208 60.1809C20.208 60.1809 20.9144 56.2388 19.3413 54.8859C18.1766 53.8758 16.1719 51.8287 14.9731 50.7525L11.7959 47.1614Z" stroke="#2A6DBD" stroke-width="1.5" stroke-linecap="round" stroke-linejoin="round"/>
</svg>
