<svg width="20" height="15" viewBox="0 0 20 15" fill="none" xmlns="http://www.w3.org/2000/svg">
<path fill-rule="evenodd" clip-rule="evenodd" d="M3.90244 1.86047C3.90244 0.83293 3.02888 0 1.95122 0C0.873561 0 0 0.83293 0 1.86047V13.0233C0 14.0508 0.873561 14.8837 1.95122 14.8837C3.02888 14.8837 3.90244 14.0508 3.90244 13.0233V1.86047ZM9.7561 0C10.8338 0 11.7073 0.83293 11.7073 1.86047V13.0233C11.7073 14.0508 10.8338 14.8837 9.7561 14.8837C8.67844 14.8837 7.80488 14.0508 7.80488 13.0233V1.86047C7.80488 0.83293 8.67844 0 9.7561 0ZM17.561 0C18.6386 0 19.5122 0.83293 19.5122 1.86047V13.0233C19.5122 14.0508 18.6386 14.8837 17.561 14.8837C16.4833 14.8837 15.6098 14.0508 15.6098 13.0233V1.86047C15.6098 0.83293 16.4833 0 17.561 0Z" fill="#E28133"/>
</svg>
