<svg width="30" height="26" viewBox="0 0 30 26" fill="none" xmlns="http://www.w3.org/2000/svg">
<path d="M29.9864 1.16441C30.0447 0.814725 29.9135 0.460318 29.6415 0.232897C29.3696 0.00547516 28.9975 -0.0609629 28.6637 0.0582722L0.663673 10.0583C0.286417 10.193 0.0259733 10.5399 0.00182741 10.9397C-0.0223184 11.3396 0.194494 11.7153 0.552796 11.8944L8.5528 15.8944C8.87377 16.0549 9.25612 16.0311 9.55471 15.8321L16.1955 11.4049L12.2191 16.3753C12.0441 16.5942 11.9688 16.8765 12.0118 17.1534C12.0548 17.4304 12.2121 17.6766 12.4453 17.8321L24.4453 25.8321C24.7276 26.0203 25.0862 26.0525 25.3975 25.9176C25.7089 25.7827 25.9306 25.4991 25.9864 25.1644L29.9864 1.16441Z" fill="white"/>
</svg>
