<svg width="30" height="26" viewBox="0 0 30 26" fill="none" xmlns="http://www.w3.org/2000/svg">
<path d="M17.1972 12.7239L14 14.8554V10.5924L17.1972 12.7239Z" fill="white"/>
<path fill-rule="evenodd" clip-rule="evenodd" d="M3.01221 1.26999C10.9144 -0.42333 19.0856 -0.42333 26.9878 1.26999C28.7448 1.64649 30 3.19919 30 4.99605V20.4517C30 22.2486 28.7448 23.8013 26.9878 24.1778C19.0856 25.8711 10.9144 25.8711 3.01221 24.1778C1.25523 23.8013 0 22.2486 0 20.4517V4.99605C0 3.19919 1.25523 1.64649 3.01221 1.26999ZM13.5547 7.89183C13.2478 7.68726 12.8533 7.66818 12.5281 7.8422C12.203 8.01622 12 8.35508 12 8.72388V16.7239C12 17.0927 12.203 17.4315 12.5281 17.6056C12.8533 17.7796 13.2478 17.7605 13.5547 17.5559L19.5547 13.5559C19.8329 13.3705 20 13.0582 20 12.7239C20 12.3895 19.8329 12.0773 19.5547 11.8918L13.5547 7.89183Z" fill="white"/>
</svg>
