<svg width="30" height="30" viewBox="0 0 30 30" fill="none" xmlns="http://www.w3.org/2000/svg">
<path d="M10 9.53548C10.6018 9.15274 11.4041 9.50716 11.5221 10.2155L11.801 11.8888C11.8657 12.277 11.6967 12.667 11.3693 12.8853L10.3673 13.5533C10.1283 12.7438 10 11.8869 10 11V9.53548Z" fill="white"/>
<path d="M19 20C18.1131 20 17.2562 19.8717 16.4467 19.6327L17.1147 18.6307C17.333 18.3033 17.723 18.1343 18.1112 18.199L19.7845 18.4779C20.4929 18.5959 20.8473 19.3982 20.4645 20H19Z" fill="white"/>
<path fill-rule="evenodd" clip-rule="evenodd" d="M2.75796e-05 15C2.75796e-05 6.71573 6.71576 0 15 0C23.2843 0 30 6.71573 30 15C30 23.2843 23.2843 30 15 30C11.8482 30 8.92114 29.0269 6.50613 27.365L1.44724 29.8944C1.06225 30.0869 0.597281 30.0115 0.292921 29.7071C-0.0114395 29.4027 -0.086894 28.9378 0.1056 28.5528L2.63505 23.4939C0.973169 21.0789 2.75796e-05 18.1518 2.75796e-05 15ZM8.45838 8.15924L8.87164 7.88373C10.683 6.67616 13.137 7.73933 13.4949 9.88668L13.7738 11.56C13.9679 12.7245 13.461 13.8945 12.4787 14.5494L11.1623 15.427C11.9678 16.8502 13.1498 18.0322 14.573 18.8377L15.4506 17.5213C16.1055 16.539 17.2755 16.0321 18.44 16.2262L20.1133 16.5051C22.2607 16.863 23.3239 19.317 22.1163 21.1284L21.8403 21.5424C21.6621 21.8178 21.3524 22 21 22H19C12.9249 22 8 17.0751 8 11V9C8 8.64731 8.18258 8.33727 8.45838 8.15924Z" fill="white"/>
</svg>
