<svg width="38" height="38" viewBox="0 0 38 38" fill="none" xmlns="http://www.w3.org/2000/svg">
    <circle cx="19" cy="19" r="19" fill="#E28133"/>
    <g clip-path="url(#clip0_330_15719)">
        <path d="M29.8649 21.5986C29.5167 17.0648 27.4058 14.2236 25.5436 11.7164C23.8192 9.39536 22.3299 7.39098 22.3299 4.43422C22.3299 4.19672 22.1969 3.97965 21.986 3.87081C21.7744 3.76133 21.5202 3.77926 21.3279 3.91903C18.5311 5.92032 16.1976 9.29335 15.3824 12.5117C14.8165 14.7524 14.7416 17.2713 14.7311 18.9349C12.1483 18.3833 11.5632 14.5198 11.5571 14.4777C11.528 14.2774 11.4055 14.103 11.2274 14.0077C11.0474 13.9137 10.8359 13.9069 10.6534 13.9972C10.518 14.0628 7.32903 15.6831 7.14348 22.1527C7.13048 22.3679 7.12988 22.5838 7.12988 22.7996C7.12988 29.0849 12.2441 34.1988 18.5299 34.1988C18.5386 34.1994 18.5478 34.2007 18.5552 34.1988C18.5577 34.1988 18.5602 34.1988 18.5633 34.1988C24.8335 34.1809 29.9299 29.0738 29.9299 22.7996C29.9299 22.4836 29.8649 21.5986 29.8649 21.5986ZM18.5299 32.9323C16.4344 32.9323 14.7299 31.1165 14.7299 28.8846C14.7299 28.8085 14.7293 28.7318 14.7348 28.6378C14.7602 27.6965 14.9389 27.054 15.135 26.6266C15.5024 27.4157 16.1592 28.1412 17.2261 28.1412C17.5762 28.1412 17.8595 27.8579 17.8595 27.5079C17.8595 26.6062 17.8781 25.566 18.1026 24.6271C18.3024 23.7947 18.7798 22.909 19.3847 22.1991C19.6537 23.1206 20.1783 23.8664 20.6904 24.5943C21.4233 25.6358 22.1809 26.7126 22.3139 28.5487C22.3219 28.6576 22.33 28.767 22.33 28.8846C22.3299 31.1165 20.6253 32.9323 18.5299 32.9323Z" fill="white"/>
    </g>
    <defs>
        <clipPath id="clip0_330_15719">
            <rect width="30.4" height="30.4" fill="white" transform="translate(3.33008 3.7998)"/>
        </clipPath>
    </defs>
</svg>
