<svg width="314" height="77" viewBox="0 0 314 77" fill="none" xmlns="http://www.w3.org/2000/svg">
    <g clip-path="url(#clip0_778_763)">
        <path fill-rule="evenodd" clip-rule="evenodd" d="M38.2911 23.3867C43.1357 23.3867 47.4599 25.6213 50.2825 29.1222C50.3099 29.1561 50.2713 29.2028 50.2326 29.1835C47.5388 27.7673 42.5541 27.8398 36.8379 29.6619C30.8688 31.5711 25.5393 36.1901 23.0356 39.538C22.9953 39.5912 22.9116 39.5654 22.9083 39.4977C22.8971 39.2625 22.8906 39.0289 22.8906 38.7904C22.8906 30.2871 29.7845 23.3867 38.2911 23.3867Z" fill="#E28133"/>
        <path fill-rule="evenodd" clip-rule="evenodd" d="M52.3495 32.4927C53.213 34.418 53.6979 36.5479 53.6979 38.7905C53.6979 47.2939 46.7944 54.1894 38.291 54.1894C30.9766 54.1894 24.8609 49.0967 23.282 42.2641C23.2772 42.2447 23.2965 42.227 23.3158 42.2335C25.1895 42.8682 26.8313 43.4821 32.6054 42.1674C38.4263 40.8431 46.1226 35.7794 46.1226 33.838C46.1226 32.1335 44.4808 31.8258 41.1797 32.9906C40.727 31.9901 39.7233 31.2973 38.5617 31.2973C36.9731 31.2973 35.6859 32.5797 35.6859 34.1747C35.6859 35.8197 37.073 37.144 38.7453 37.0409C40.3162 36.9442 41.5196 35.5474 41.4278 33.975C41.4278 33.9637 41.4262 33.9524 41.4262 33.9411C42.707 33.6962 44.07 33.5303 43.1307 35.0415C42.3155 36.3562 39.691 38.37 36.6493 39.6251C30.5867 42.1191 22.8953 42.2318 25.7486 38.2508C27.9204 35.5716 31.2006 32.8375 35.3975 31.2345C44.1296 27.8995 48.5698 29.0901 48.5698 32.9906C48.5698 36.8975 40.8478 42.7603 35.6166 44.4584C30.358 46.1661 29.8005 46.1339 27.864 46.3079C27.4016 46.3369 26.9473 46.3627 26.5477 46.3466C27.6078 46.5576 30.6512 46.7075 36.891 45.0883C43.1549 43.4643 52.2012 36.7428 52.3495 32.4927Z" fill="#E28133"/>
        <path d="M80.9997 24.9446V50.9107H73.6547V40.7849H63.6385V50.9107H56.2935V24.9446H63.6385V34.6998H73.6547V24.9446H80.9997Z" fill="#E28133"/>
        <path d="M103.589 45.8646H92.6095L90.5699 50.909H83.0767L94.538 24.9429H101.772L113.27 50.909H105.629L103.589 45.8646ZM101.438 40.4497L98.1002 32.1413L94.762 40.4497H101.438Z" fill="#E28133"/>
        <path d="M133.338 26.1126C135.068 26.8908 136.404 28.0041 137.345 29.4508C138.284 30.8976 138.754 32.5973 138.754 34.5516C138.754 36.5058 138.284 38.1991 137.345 39.633C136.404 41.0668 135.07 42.1737 133.338 42.9534C131.606 43.7316 129.566 44.1215 127.217 44.1215H122.692V50.9091H115.347V24.9446H127.217C129.566 24.9446 131.608 25.3345 133.338 26.1126ZM130.185 37.3517C130.952 36.6959 131.335 35.7631 131.335 34.5516C131.335 33.34 130.952 32.4007 130.185 31.7321C129.418 31.0651 128.281 30.73 126.773 30.73H122.692V38.3344H126.773C128.281 38.3344 129.418 38.0074 130.185 37.3517Z" fill="#E28133"/>
        <path d="M160.305 26.1126C162.035 26.8908 163.371 28.0041 164.311 29.4508C165.251 30.8976 165.721 32.5973 165.721 34.5516C165.721 36.5058 165.251 38.1991 164.311 39.633C163.372 41.0668 162.037 42.1737 160.305 42.9534C158.573 43.7316 156.533 44.1215 154.184 44.1215H149.658V50.9091H142.313V24.9446H154.184C156.535 24.9446 158.574 25.3345 160.305 26.1126ZM157.152 37.3517C157.919 36.6959 158.302 35.7631 158.302 34.5516C158.302 33.34 157.919 32.4007 157.152 31.7321C156.385 31.0651 155.247 30.73 153.739 30.73H149.658V38.3344H153.739C155.247 38.3344 156.385 38.0074 157.152 37.3517Z" fill="#E28133"/>
        <path d="M169.282 24.9446H176.627V50.9107H169.282V24.9446Z" fill="#E28133"/>
        <path d="M206.561 24.9446V50.9107H200.514L189.053 37.0745V50.9107H181.856V24.9446H187.902L199.364 38.7807V24.9446H206.561Z" fill="#E28133"/>
        <path d="M232.601 45.2348V50.9107H211.755V24.9446H232.119V30.6205H219.026V34.9978H230.561V40.4885H219.026V45.2364H232.601V45.2348Z" fill="#E28133"/>
        <path d="M239.685 50.6496C237.706 50.1309 236.099 49.4381 234.863 48.5729L237.273 43.158C238.435 43.9249 239.783 44.5436 241.317 45.0124C242.851 45.4829 244.359 45.7165 245.842 45.7165C248.662 45.7165 250.072 45.0124 250.072 43.6027C250.072 42.8616 249.669 42.3106 248.866 41.9513C248.063 41.5937 246.77 41.215 244.99 40.8203C243.036 40.3998 241.404 39.9487 240.094 39.467C238.783 38.9853 237.658 38.212 236.719 37.1486C235.778 36.0853 235.309 34.6514 235.309 32.8454C235.309 31.2633 235.741 29.8342 236.608 28.5615C237.473 27.2887 238.765 26.2802 240.484 25.5391C242.203 24.7979 244.31 24.4258 246.809 24.4258C248.515 24.4258 250.197 24.6175 251.853 25.0009C253.51 25.3844 254.969 25.9467 256.231 26.6894L253.969 32.1413C251.496 30.8057 249.097 30.1387 246.772 30.1387C245.312 30.1387 244.249 30.3546 243.582 30.788C242.915 31.2214 242.58 31.7837 242.58 32.4764C242.58 33.1692 242.975 33.688 243.767 34.0344C244.558 34.3808 245.831 34.7384 247.587 35.1106C249.566 35.5311 251.204 35.9822 252.503 36.4639C253.801 36.9456 254.926 37.7125 255.878 38.7646C256.83 39.8166 257.305 41.244 257.305 43.0485C257.305 44.6064 256.872 46.0161 256.007 47.2776C255.142 48.5391 253.843 49.546 252.113 50.3C250.381 51.054 248.28 51.431 245.807 51.431C243.703 51.4294 241.663 51.17 239.685 50.6496Z" fill="#E28133"/>
        <path d="M263.684 50.6496C261.705 50.1309 260.098 49.4381 258.862 48.5729L261.272 43.158C262.434 43.9249 263.782 44.5436 265.316 45.0124C266.85 45.4829 268.358 45.7165 269.841 45.7165C272.661 45.7165 274.071 45.0124 274.071 43.6027C274.071 42.8616 273.668 42.3106 272.865 41.9513C272.062 41.5937 270.769 41.215 268.989 40.8203C267.035 40.3998 265.403 39.9487 264.093 39.467C262.782 38.9853 261.657 38.212 260.718 37.1486C259.777 36.0853 259.308 34.6514 259.308 32.8454C259.308 31.2633 259.74 29.8342 260.607 28.5615C261.472 27.2887 262.764 26.2802 264.483 25.5391C266.202 24.7979 268.309 24.4258 270.808 24.4258C272.514 24.4258 274.196 24.6175 275.852 25.0009C277.509 25.3844 278.968 25.9467 280.23 26.6894L277.968 32.1413C275.495 30.8057 273.096 30.1387 270.771 30.1387C269.311 30.1387 268.248 30.3546 267.581 30.788C266.914 31.2214 266.579 31.7837 266.579 32.4764C266.579 33.1692 266.974 33.688 267.766 34.0344C268.557 34.3808 269.83 34.7384 271.586 35.1106C273.565 35.5311 275.203 35.9822 276.502 36.4639C277.8 36.9456 278.925 37.7125 279.877 38.7646C280.829 39.8166 281.304 41.244 281.304 43.0485C281.304 44.6064 280.871 46.0161 280.006 47.2776C279.141 48.5391 277.842 49.546 276.112 50.3C274.38 51.054 272.279 51.431 269.806 51.431C267.702 51.4294 265.662 51.17 263.684 50.6496Z" fill="#E28133"/>
    </g>
    <defs>
        <clipPath id="clip0_778_763">
            <rect width="314" height="76.9026" fill="white"/>
        </clipPath>
    </defs>
</svg>
